%TF.GenerationSoftware,KiCad,Pcbnew,8.0.5*%
%TF.CreationDate,2024-10-10T20:32:43-06:00*%
%TF.ProjectId,PancakeCNCPCB,50616e63-616b-4654-934e-435043422e6b,rev?*%
%TF.SameCoordinates,Original*%
%TF.FileFunction,Paste,Top*%
%TF.FilePolarity,Positive*%
%FSLAX46Y46*%
G04 Gerber Fmt 4.6, Leading zero omitted, Abs format (unit mm)*
G04 Created by KiCad (PCBNEW 8.0.5) date 2024-10-10 20:32:43*
%MOMM*%
%LPD*%
G01*
G04 APERTURE LIST*
G04 Aperture macros list*
%AMRoundRect*
0 Rectangle with rounded corners*
0 $1 Rounding radius*
0 $2 $3 $4 $5 $6 $7 $8 $9 X,Y pos of 4 corners*
0 Add a 4 corners polygon primitive as box body*
4,1,4,$2,$3,$4,$5,$6,$7,$8,$9,$2,$3,0*
0 Add four circle primitives for the rounded corners*
1,1,$1+$1,$2,$3*
1,1,$1+$1,$4,$5*
1,1,$1+$1,$6,$7*
1,1,$1+$1,$8,$9*
0 Add four rect primitives between the rounded corners*
20,1,$1+$1,$2,$3,$4,$5,0*
20,1,$1+$1,$4,$5,$6,$7,0*
20,1,$1+$1,$6,$7,$8,$9,0*
20,1,$1+$1,$8,$9,$2,$3,0*%
G04 Aperture macros list end*
%ADD10R,1.500000X0.900000*%
%ADD11R,0.900000X1.500000*%
%ADD12R,1.000000X1.000000*%
%ADD13R,1.900000X2.900000*%
%ADD14R,1.350000X0.400000*%
%ADD15R,0.850000X0.300000*%
%ADD16RoundRect,0.250000X-0.450000X0.350000X-0.450000X-0.350000X0.450000X-0.350000X0.450000X0.350000X0*%
%ADD17R,0.952500X0.558800*%
%ADD18RoundRect,0.250000X-0.450000X0.325000X-0.450000X-0.325000X0.450000X-0.325000X0.450000X0.325000X0*%
%ADD19RoundRect,0.250000X-0.350000X-0.450000X0.350000X-0.450000X0.350000X0.450000X-0.350000X0.450000X0*%
%ADD20RoundRect,0.250000X-0.300000X2.050000X-0.300000X-2.050000X0.300000X-2.050000X0.300000X2.050000X0*%
%ADD21RoundRect,0.250000X-2.375000X2.025000X-2.375000X-2.025000X2.375000X-2.025000X2.375000X2.025000X0*%
%ADD22RoundRect,0.250000X-0.325000X-0.450000X0.325000X-0.450000X0.325000X0.450000X-0.325000X0.450000X0*%
%ADD23RoundRect,0.250000X-0.475000X0.337500X-0.475000X-0.337500X0.475000X-0.337500X0.475000X0.337500X0*%
%ADD24RoundRect,0.250000X-0.337500X-0.475000X0.337500X-0.475000X0.337500X0.475000X-0.337500X0.475000X0*%
%ADD25RoundRect,0.375000X0.375000X-0.625000X0.375000X0.625000X-0.375000X0.625000X-0.375000X-0.625000X0*%
%ADD26RoundRect,0.500000X1.400000X-0.500000X1.400000X0.500000X-1.400000X0.500000X-1.400000X-0.500000X0*%
%ADD27RoundRect,0.250000X0.475000X-0.337500X0.475000X0.337500X-0.475000X0.337500X-0.475000X-0.337500X0*%
%ADD28RoundRect,0.250000X0.250000X0.250000X-0.250000X0.250000X-0.250000X-0.250000X0.250000X-0.250000X0*%
%ADD29R,1.450000X0.450000*%
%ADD30R,1.100000X1.400000*%
%ADD31RoundRect,0.250000X0.450000X-0.325000X0.450000X0.325000X-0.450000X0.325000X-0.450000X-0.325000X0*%
%ADD32RoundRect,0.250000X-0.250000X-0.250000X0.250000X-0.250000X0.250000X0.250000X-0.250000X0.250000X0*%
%ADD33RoundRect,0.100000X0.650000X0.100000X-0.650000X0.100000X-0.650000X-0.100000X0.650000X-0.100000X0*%
G04 APERTURE END LIST*
D10*
%TO.C,U2*%
X44250000Y-47990000D03*
X44250000Y-49260000D03*
X44250000Y-50530000D03*
X44250000Y-51800000D03*
X44250000Y-53070000D03*
X44250000Y-54340000D03*
X44250000Y-55610000D03*
X44250000Y-56880000D03*
X44250000Y-58150000D03*
X44250000Y-59420000D03*
X44250000Y-60690000D03*
X44250000Y-61960000D03*
X44250000Y-63230000D03*
X44250000Y-64500000D03*
D11*
X46015000Y-65750000D03*
X47285000Y-65750000D03*
X48555000Y-65750000D03*
X49825000Y-65750000D03*
X51095000Y-65750000D03*
X52365000Y-65750000D03*
X53635000Y-65750000D03*
X54905000Y-65750000D03*
X56175000Y-65750000D03*
X57445000Y-65750000D03*
X58715000Y-65750000D03*
X59985000Y-65750000D03*
D10*
X61750000Y-64500000D03*
X61750000Y-63230000D03*
X61750000Y-61960000D03*
X61750000Y-60690000D03*
X61750000Y-59420000D03*
X61750000Y-58150000D03*
X61750000Y-56880000D03*
X61750000Y-55610000D03*
X61750000Y-54340000D03*
X61750000Y-53070000D03*
X61750000Y-51800000D03*
X61750000Y-50530000D03*
X61750000Y-49260000D03*
X61750000Y-47990000D03*
D12*
X50140000Y-51840000D03*
X50140000Y-53340000D03*
X50140000Y-54840000D03*
X51640000Y-51840000D03*
X51640000Y-53340000D03*
X51640000Y-54840000D03*
X53140000Y-51840000D03*
X53140000Y-53340000D03*
X53140000Y-54840000D03*
%TD*%
D13*
%TO.C,J1*%
X31000000Y-60255000D03*
D14*
X33675000Y-58955000D03*
X33675000Y-59605000D03*
X33675000Y-60255000D03*
X33675000Y-60905000D03*
X33675000Y-61555000D03*
D15*
X31000000Y-63755000D03*
X31000000Y-56755000D03*
%TD*%
D16*
%TO.C,R2*%
X73640000Y-110690000D03*
X73640000Y-112690000D03*
%TD*%
D17*
%TO.C,SW1*%
X41248650Y-99945800D03*
X47611350Y-99945800D03*
X41248650Y-103654200D03*
X47611350Y-103654200D03*
%TD*%
D18*
%TO.C,D1*%
X69830000Y-110690000D03*
X69830000Y-112740000D03*
%TD*%
D19*
%TO.C,R8*%
X41910000Y-78940000D03*
X43910000Y-78940000D03*
%TD*%
%TO.C,R9*%
X48260000Y-84020000D03*
X50260000Y-84020000D03*
%TD*%
D20*
%TO.C,U3*%
X55860000Y-119550000D03*
X53320000Y-119550000D03*
D21*
X56095000Y-126275000D03*
X50545000Y-126275000D03*
X56095000Y-131125000D03*
X50545000Y-131125000D03*
D20*
X50780000Y-119550000D03*
%TD*%
D22*
%TO.C,D5*%
X53830000Y-78940000D03*
X55880000Y-78940000D03*
%TD*%
D23*
%TO.C,C8*%
X69830000Y-121082500D03*
X69830000Y-123157500D03*
%TD*%
%TO.C,C3*%
X66020000Y-115770000D03*
X66020000Y-117845000D03*
%TD*%
D24*
%TO.C,C1*%
X41910000Y-84020000D03*
X43985000Y-84020000D03*
%TD*%
D19*
%TO.C,R7*%
X48260000Y-78940000D03*
X50260000Y-78940000D03*
%TD*%
D24*
%TO.C,C2*%
X59690000Y-84020000D03*
X61765000Y-84020000D03*
%TD*%
D23*
%TO.C,C4*%
X62210000Y-115770000D03*
X62210000Y-117845000D03*
%TD*%
D25*
%TO.C,U1*%
X39830000Y-121460000D03*
X42130000Y-121460000D03*
D26*
X42130000Y-115160000D03*
D25*
X44430000Y-121460000D03*
%TD*%
D17*
%TO.C,SW2*%
X53948650Y-99945800D03*
X60311350Y-99945800D03*
X53948650Y-103654200D03*
X60311350Y-103654200D03*
%TD*%
D16*
%TO.C,R1*%
X69830000Y-115845000D03*
X69830000Y-117845000D03*
%TD*%
D19*
%TO.C,R6*%
X59690000Y-73860000D03*
X61690000Y-73860000D03*
%TD*%
D27*
%TO.C,C5*%
X62210000Y-122925000D03*
X62210000Y-120850000D03*
%TD*%
D19*
%TO.C,R4*%
X53880000Y-73860000D03*
X55880000Y-73860000D03*
%TD*%
D28*
%TO.C,D4*%
X44410000Y-73860000D03*
X41910000Y-73860000D03*
%TD*%
D29*
%TO.C,U6*%
X47830000Y-88420000D03*
X47830000Y-89070000D03*
X47830000Y-89720000D03*
X47830000Y-90370000D03*
X47830000Y-91020000D03*
X47830000Y-91670000D03*
X47830000Y-92320000D03*
X53730000Y-92320000D03*
X53730000Y-91670000D03*
X53730000Y-91020000D03*
X53730000Y-90370000D03*
X53730000Y-89720000D03*
X53730000Y-89070000D03*
X53730000Y-88420000D03*
D30*
X50030000Y-89470000D03*
X50030000Y-91270000D03*
X51530000Y-89470000D03*
X51530000Y-91270000D03*
%TD*%
D31*
%TO.C,D2*%
X73640000Y-117820000D03*
X73640000Y-115770000D03*
%TD*%
D27*
%TO.C,C6*%
X66020000Y-122925000D03*
X66020000Y-120850000D03*
%TD*%
D32*
%TO.C,D3*%
X48280000Y-73860000D03*
X50780000Y-73860000D03*
%TD*%
D33*
%TO.C,U5*%
X64870000Y-111990000D03*
X64870000Y-111340000D03*
X64870000Y-110690000D03*
X62210000Y-110690000D03*
X62210000Y-111990000D03*
%TD*%
D19*
%TO.C,R3*%
X59690000Y-78940000D03*
X61690000Y-78940000D03*
%TD*%
D23*
%TO.C,C7*%
X73640000Y-121082500D03*
X73640000Y-123157500D03*
%TD*%
D19*
%TO.C,R5*%
X53880000Y-84020000D03*
X55880000Y-84020000D03*
%TD*%
M02*
