%TF.GenerationSoftware,KiCad,Pcbnew,8.0.5*%
%TF.CreationDate,2024-11-16T15:57:55-06:00*%
%TF.ProjectId,ControllerPCB,436f6e74-726f-46c6-9c65-725043422e6b,rev?*%
%TF.SameCoordinates,Original*%
%TF.FileFunction,Drillmap*%
%TF.FilePolarity,Positive*%
%FSLAX45Y45*%
G04 Gerber Fmt 4.5, Leading zero omitted, Abs format (unit mm)*
G04 Created by KiCad (PCBNEW 8.0.5) date 2024-11-16 15:57:55*
%MOMM*%
%LPD*%
G01*
G04 APERTURE LIST*
%ADD10C,0.050000*%
%ADD11C,0.200000*%
%ADD12C,0.274000*%
%ADD13C,0.275000*%
G04 APERTURE END LIST*
D10*
X2824124Y-12731604D02*
X2824124Y-5031604D01*
X2824124Y-5031604D02*
G75*
G02*
X3224124Y-4631604I400000J0D01*
G01*
X3224124Y-13131604D02*
G75*
G02*
X2824124Y-12731604I0J400000D01*
G01*
X8524124Y-12731604D02*
G75*
G02*
X8124124Y-13131604I-400000J0D01*
G01*
X8124124Y-4631604D02*
G75*
G02*
X8524124Y-5031604I0J-400000D01*
G01*
X8124124Y-13131604D02*
X3224124Y-13131604D01*
X8524124Y-5031604D02*
X8524124Y-12731604D01*
X3224124Y-4631604D02*
X8124124Y-4631604D01*
D11*
D12*
X3087124Y-10694604D02*
X3361124Y-10968604D01*
X3361124Y-10694604D02*
X3087124Y-10968604D01*
D13*
X3361624Y-5031604D02*
G75*
G02*
X3086624Y-5031604I-137500J0D01*
G01*
X3086624Y-5031604D02*
G75*
G02*
X3361624Y-5031604I137500J0D01*
G01*
X8261624Y-5031604D02*
G75*
G02*
X7986624Y-5031604I-137500J0D01*
G01*
X7986624Y-5031604D02*
G75*
G02*
X8261624Y-5031604I137500J0D01*
G01*
X8261624Y-10831604D02*
G75*
G02*
X7986624Y-10831604I-137500J0D01*
G01*
X7986624Y-10831604D02*
G75*
G02*
X8261624Y-10831604I137500J0D01*
G01*
D11*
X3082401Y-13445587D02*
X3082401Y-13245587D01*
X3082401Y-13245587D02*
X3130020Y-13245587D01*
X3130020Y-13245587D02*
X3158591Y-13255111D01*
X3158591Y-13255111D02*
X3177639Y-13274159D01*
X3177639Y-13274159D02*
X3187163Y-13293206D01*
X3187163Y-13293206D02*
X3196686Y-13331302D01*
X3196686Y-13331302D02*
X3196686Y-13359873D01*
X3196686Y-13359873D02*
X3187163Y-13397968D01*
X3187163Y-13397968D02*
X3177639Y-13417016D01*
X3177639Y-13417016D02*
X3158591Y-13436064D01*
X3158591Y-13436064D02*
X3130020Y-13445587D01*
X3130020Y-13445587D02*
X3082401Y-13445587D01*
X3282401Y-13445587D02*
X3282401Y-13312254D01*
X3282401Y-13350349D02*
X3291924Y-13331302D01*
X3291924Y-13331302D02*
X3301448Y-13321778D01*
X3301448Y-13321778D02*
X3320496Y-13312254D01*
X3320496Y-13312254D02*
X3339544Y-13312254D01*
X3406210Y-13445587D02*
X3406210Y-13312254D01*
X3406210Y-13245587D02*
X3396686Y-13255111D01*
X3396686Y-13255111D02*
X3406210Y-13264635D01*
X3406210Y-13264635D02*
X3415734Y-13255111D01*
X3415734Y-13255111D02*
X3406210Y-13245587D01*
X3406210Y-13245587D02*
X3406210Y-13264635D01*
X3530020Y-13445587D02*
X3510972Y-13436064D01*
X3510972Y-13436064D02*
X3501448Y-13417016D01*
X3501448Y-13417016D02*
X3501448Y-13245587D01*
X3634782Y-13445587D02*
X3615734Y-13436064D01*
X3615734Y-13436064D02*
X3606210Y-13417016D01*
X3606210Y-13417016D02*
X3606210Y-13245587D01*
X3863353Y-13445587D02*
X3863353Y-13245587D01*
X3863353Y-13245587D02*
X3930020Y-13388445D01*
X3930020Y-13388445D02*
X3996686Y-13245587D01*
X3996686Y-13245587D02*
X3996686Y-13445587D01*
X4177639Y-13445587D02*
X4177639Y-13340826D01*
X4177639Y-13340826D02*
X4168115Y-13321778D01*
X4168115Y-13321778D02*
X4149067Y-13312254D01*
X4149067Y-13312254D02*
X4110972Y-13312254D01*
X4110972Y-13312254D02*
X4091924Y-13321778D01*
X4177639Y-13436064D02*
X4158591Y-13445587D01*
X4158591Y-13445587D02*
X4110972Y-13445587D01*
X4110972Y-13445587D02*
X4091924Y-13436064D01*
X4091924Y-13436064D02*
X4082401Y-13417016D01*
X4082401Y-13417016D02*
X4082401Y-13397968D01*
X4082401Y-13397968D02*
X4091924Y-13378921D01*
X4091924Y-13378921D02*
X4110972Y-13369397D01*
X4110972Y-13369397D02*
X4158591Y-13369397D01*
X4158591Y-13369397D02*
X4177639Y-13359873D01*
X4272877Y-13312254D02*
X4272877Y-13512254D01*
X4272877Y-13321778D02*
X4291925Y-13312254D01*
X4291925Y-13312254D02*
X4330020Y-13312254D01*
X4330020Y-13312254D02*
X4349067Y-13321778D01*
X4349067Y-13321778D02*
X4358591Y-13331302D01*
X4358591Y-13331302D02*
X4368115Y-13350349D01*
X4368115Y-13350349D02*
X4368115Y-13407492D01*
X4368115Y-13407492D02*
X4358591Y-13426540D01*
X4358591Y-13426540D02*
X4349067Y-13436064D01*
X4349067Y-13436064D02*
X4330020Y-13445587D01*
X4330020Y-13445587D02*
X4291925Y-13445587D01*
X4291925Y-13445587D02*
X4272877Y-13436064D01*
X4453829Y-13426540D02*
X4463353Y-13436064D01*
X4463353Y-13436064D02*
X4453829Y-13445587D01*
X4453829Y-13445587D02*
X4444306Y-13436064D01*
X4444306Y-13436064D02*
X4453829Y-13426540D01*
X4453829Y-13426540D02*
X4453829Y-13445587D01*
X4453829Y-13321778D02*
X4463353Y-13331302D01*
X4463353Y-13331302D02*
X4453829Y-13340826D01*
X4453829Y-13340826D02*
X4444306Y-13331302D01*
X4444306Y-13331302D02*
X4453829Y-13321778D01*
X4453829Y-13321778D02*
X4453829Y-13340826D01*
X2621624Y-13674104D02*
X2821624Y-13874104D01*
X2821624Y-13674104D02*
X2621624Y-13874104D01*
X3072877Y-13684635D02*
X3082401Y-13675111D01*
X3082401Y-13675111D02*
X3101448Y-13665587D01*
X3101448Y-13665587D02*
X3149067Y-13665587D01*
X3149067Y-13665587D02*
X3168115Y-13675111D01*
X3168115Y-13675111D02*
X3177639Y-13684635D01*
X3177639Y-13684635D02*
X3187163Y-13703683D01*
X3187163Y-13703683D02*
X3187163Y-13722730D01*
X3187163Y-13722730D02*
X3177639Y-13751302D01*
X3177639Y-13751302D02*
X3063353Y-13865587D01*
X3063353Y-13865587D02*
X3187163Y-13865587D01*
X3272877Y-13846540D02*
X3282401Y-13856064D01*
X3282401Y-13856064D02*
X3272877Y-13865587D01*
X3272877Y-13865587D02*
X3263353Y-13856064D01*
X3263353Y-13856064D02*
X3272877Y-13846540D01*
X3272877Y-13846540D02*
X3272877Y-13865587D01*
X3349067Y-13665587D02*
X3482401Y-13665587D01*
X3482401Y-13665587D02*
X3396686Y-13865587D01*
X3644305Y-13732254D02*
X3644305Y-13865587D01*
X3596686Y-13656064D02*
X3549067Y-13798921D01*
X3549067Y-13798921D02*
X3672877Y-13798921D01*
X3787163Y-13665587D02*
X3806210Y-13665587D01*
X3806210Y-13665587D02*
X3825258Y-13675111D01*
X3825258Y-13675111D02*
X3834782Y-13684635D01*
X3834782Y-13684635D02*
X3844305Y-13703683D01*
X3844305Y-13703683D02*
X3853829Y-13741778D01*
X3853829Y-13741778D02*
X3853829Y-13789397D01*
X3853829Y-13789397D02*
X3844305Y-13827492D01*
X3844305Y-13827492D02*
X3834782Y-13846540D01*
X3834782Y-13846540D02*
X3825258Y-13856064D01*
X3825258Y-13856064D02*
X3806210Y-13865587D01*
X3806210Y-13865587D02*
X3787163Y-13865587D01*
X3787163Y-13865587D02*
X3768115Y-13856064D01*
X3768115Y-13856064D02*
X3758591Y-13846540D01*
X3758591Y-13846540D02*
X3749067Y-13827492D01*
X3749067Y-13827492D02*
X3739544Y-13789397D01*
X3739544Y-13789397D02*
X3739544Y-13741778D01*
X3739544Y-13741778D02*
X3749067Y-13703683D01*
X3749067Y-13703683D02*
X3758591Y-13684635D01*
X3758591Y-13684635D02*
X3768115Y-13675111D01*
X3768115Y-13675111D02*
X3787163Y-13665587D01*
X3939544Y-13865587D02*
X3939544Y-13732254D01*
X3939544Y-13751302D02*
X3949067Y-13741778D01*
X3949067Y-13741778D02*
X3968115Y-13732254D01*
X3968115Y-13732254D02*
X3996686Y-13732254D01*
X3996686Y-13732254D02*
X4015734Y-13741778D01*
X4015734Y-13741778D02*
X4025258Y-13760826D01*
X4025258Y-13760826D02*
X4025258Y-13865587D01*
X4025258Y-13760826D02*
X4034782Y-13741778D01*
X4034782Y-13741778D02*
X4053829Y-13732254D01*
X4053829Y-13732254D02*
X4082401Y-13732254D01*
X4082401Y-13732254D02*
X4101448Y-13741778D01*
X4101448Y-13741778D02*
X4110972Y-13760826D01*
X4110972Y-13760826D02*
X4110972Y-13865587D01*
X4206210Y-13865587D02*
X4206210Y-13732254D01*
X4206210Y-13751302D02*
X4215734Y-13741778D01*
X4215734Y-13741778D02*
X4234782Y-13732254D01*
X4234782Y-13732254D02*
X4263353Y-13732254D01*
X4263353Y-13732254D02*
X4282401Y-13741778D01*
X4282401Y-13741778D02*
X4291925Y-13760826D01*
X4291925Y-13760826D02*
X4291925Y-13865587D01*
X4291925Y-13760826D02*
X4301448Y-13741778D01*
X4301448Y-13741778D02*
X4320496Y-13732254D01*
X4320496Y-13732254D02*
X4349067Y-13732254D01*
X4349067Y-13732254D02*
X4368115Y-13741778D01*
X4368115Y-13741778D02*
X4377639Y-13760826D01*
X4377639Y-13760826D02*
X4377639Y-13865587D01*
X4768115Y-13656064D02*
X4596687Y-13913206D01*
X5025258Y-13665587D02*
X5044306Y-13665587D01*
X5044306Y-13665587D02*
X5063353Y-13675111D01*
X5063353Y-13675111D02*
X5072877Y-13684635D01*
X5072877Y-13684635D02*
X5082401Y-13703683D01*
X5082401Y-13703683D02*
X5091925Y-13741778D01*
X5091925Y-13741778D02*
X5091925Y-13789397D01*
X5091925Y-13789397D02*
X5082401Y-13827492D01*
X5082401Y-13827492D02*
X5072877Y-13846540D01*
X5072877Y-13846540D02*
X5063353Y-13856064D01*
X5063353Y-13856064D02*
X5044306Y-13865587D01*
X5044306Y-13865587D02*
X5025258Y-13865587D01*
X5025258Y-13865587D02*
X5006210Y-13856064D01*
X5006210Y-13856064D02*
X4996687Y-13846540D01*
X4996687Y-13846540D02*
X4987163Y-13827492D01*
X4987163Y-13827492D02*
X4977639Y-13789397D01*
X4977639Y-13789397D02*
X4977639Y-13741778D01*
X4977639Y-13741778D02*
X4987163Y-13703683D01*
X4987163Y-13703683D02*
X4996687Y-13684635D01*
X4996687Y-13684635D02*
X5006210Y-13675111D01*
X5006210Y-13675111D02*
X5025258Y-13665587D01*
X5177639Y-13846540D02*
X5187163Y-13856064D01*
X5187163Y-13856064D02*
X5177639Y-13865587D01*
X5177639Y-13865587D02*
X5168115Y-13856064D01*
X5168115Y-13856064D02*
X5177639Y-13846540D01*
X5177639Y-13846540D02*
X5177639Y-13865587D01*
X5377639Y-13865587D02*
X5263353Y-13865587D01*
X5320496Y-13865587D02*
X5320496Y-13665587D01*
X5320496Y-13665587D02*
X5301449Y-13694159D01*
X5301449Y-13694159D02*
X5282401Y-13713206D01*
X5282401Y-13713206D02*
X5263353Y-13722730D01*
X5501449Y-13665587D02*
X5520496Y-13665587D01*
X5520496Y-13665587D02*
X5539544Y-13675111D01*
X5539544Y-13675111D02*
X5549068Y-13684635D01*
X5549068Y-13684635D02*
X5558591Y-13703683D01*
X5558591Y-13703683D02*
X5568115Y-13741778D01*
X5568115Y-13741778D02*
X5568115Y-13789397D01*
X5568115Y-13789397D02*
X5558591Y-13827492D01*
X5558591Y-13827492D02*
X5549068Y-13846540D01*
X5549068Y-13846540D02*
X5539544Y-13856064D01*
X5539544Y-13856064D02*
X5520496Y-13865587D01*
X5520496Y-13865587D02*
X5501449Y-13865587D01*
X5501449Y-13865587D02*
X5482401Y-13856064D01*
X5482401Y-13856064D02*
X5472877Y-13846540D01*
X5472877Y-13846540D02*
X5463353Y-13827492D01*
X5463353Y-13827492D02*
X5453830Y-13789397D01*
X5453830Y-13789397D02*
X5453830Y-13741778D01*
X5453830Y-13741778D02*
X5463353Y-13703683D01*
X5463353Y-13703683D02*
X5472877Y-13684635D01*
X5472877Y-13684635D02*
X5482401Y-13675111D01*
X5482401Y-13675111D02*
X5501449Y-13665587D01*
X5634782Y-13665587D02*
X5768115Y-13665587D01*
X5768115Y-13665587D02*
X5682401Y-13865587D01*
X5853829Y-13865587D02*
X5891925Y-13865587D01*
X5891925Y-13865587D02*
X5910972Y-13856064D01*
X5910972Y-13856064D02*
X5920496Y-13846540D01*
X5920496Y-13846540D02*
X5939544Y-13817968D01*
X5939544Y-13817968D02*
X5949068Y-13779873D01*
X5949068Y-13779873D02*
X5949068Y-13703683D01*
X5949068Y-13703683D02*
X5939544Y-13684635D01*
X5939544Y-13684635D02*
X5930020Y-13675111D01*
X5930020Y-13675111D02*
X5910972Y-13665587D01*
X5910972Y-13665587D02*
X5872877Y-13665587D01*
X5872877Y-13665587D02*
X5853829Y-13675111D01*
X5853829Y-13675111D02*
X5844306Y-13684635D01*
X5844306Y-13684635D02*
X5834782Y-13703683D01*
X5834782Y-13703683D02*
X5834782Y-13751302D01*
X5834782Y-13751302D02*
X5844306Y-13770349D01*
X5844306Y-13770349D02*
X5853829Y-13779873D01*
X5853829Y-13779873D02*
X5872877Y-13789397D01*
X5872877Y-13789397D02*
X5910972Y-13789397D01*
X5910972Y-13789397D02*
X5930020Y-13779873D01*
X5930020Y-13779873D02*
X5939544Y-13770349D01*
X5939544Y-13770349D02*
X5949068Y-13751302D01*
X6025258Y-13665587D02*
X6025258Y-13703683D01*
X6101449Y-13665587D02*
X6101449Y-13703683D01*
X6396687Y-13941778D02*
X6387163Y-13932254D01*
X6387163Y-13932254D02*
X6368115Y-13903683D01*
X6368115Y-13903683D02*
X6358591Y-13884635D01*
X6358591Y-13884635D02*
X6349068Y-13856064D01*
X6349068Y-13856064D02*
X6339544Y-13808445D01*
X6339544Y-13808445D02*
X6339544Y-13770349D01*
X6339544Y-13770349D02*
X6349068Y-13722730D01*
X6349068Y-13722730D02*
X6358591Y-13694159D01*
X6358591Y-13694159D02*
X6368115Y-13675111D01*
X6368115Y-13675111D02*
X6387163Y-13646540D01*
X6387163Y-13646540D02*
X6396687Y-13637016D01*
X6577639Y-13865587D02*
X6463353Y-13865587D01*
X6520496Y-13865587D02*
X6520496Y-13665587D01*
X6520496Y-13665587D02*
X6501449Y-13694159D01*
X6501449Y-13694159D02*
X6482401Y-13713206D01*
X6482401Y-13713206D02*
X6463353Y-13722730D01*
X6815734Y-13865587D02*
X6815734Y-13665587D01*
X6901449Y-13865587D02*
X6901449Y-13760826D01*
X6901449Y-13760826D02*
X6891925Y-13741778D01*
X6891925Y-13741778D02*
X6872877Y-13732254D01*
X6872877Y-13732254D02*
X6844306Y-13732254D01*
X6844306Y-13732254D02*
X6825258Y-13741778D01*
X6825258Y-13741778D02*
X6815734Y-13751302D01*
X7025258Y-13865587D02*
X7006211Y-13856064D01*
X7006211Y-13856064D02*
X6996687Y-13846540D01*
X6996687Y-13846540D02*
X6987163Y-13827492D01*
X6987163Y-13827492D02*
X6987163Y-13770349D01*
X6987163Y-13770349D02*
X6996687Y-13751302D01*
X6996687Y-13751302D02*
X7006211Y-13741778D01*
X7006211Y-13741778D02*
X7025258Y-13732254D01*
X7025258Y-13732254D02*
X7053830Y-13732254D01*
X7053830Y-13732254D02*
X7072877Y-13741778D01*
X7072877Y-13741778D02*
X7082401Y-13751302D01*
X7082401Y-13751302D02*
X7091925Y-13770349D01*
X7091925Y-13770349D02*
X7091925Y-13827492D01*
X7091925Y-13827492D02*
X7082401Y-13846540D01*
X7082401Y-13846540D02*
X7072877Y-13856064D01*
X7072877Y-13856064D02*
X7053830Y-13865587D01*
X7053830Y-13865587D02*
X7025258Y-13865587D01*
X7206211Y-13865587D02*
X7187163Y-13856064D01*
X7187163Y-13856064D02*
X7177639Y-13837016D01*
X7177639Y-13837016D02*
X7177639Y-13665587D01*
X7358592Y-13856064D02*
X7339544Y-13865587D01*
X7339544Y-13865587D02*
X7301449Y-13865587D01*
X7301449Y-13865587D02*
X7282401Y-13856064D01*
X7282401Y-13856064D02*
X7272877Y-13837016D01*
X7272877Y-13837016D02*
X7272877Y-13760826D01*
X7272877Y-13760826D02*
X7282401Y-13741778D01*
X7282401Y-13741778D02*
X7301449Y-13732254D01*
X7301449Y-13732254D02*
X7339544Y-13732254D01*
X7339544Y-13732254D02*
X7358592Y-13741778D01*
X7358592Y-13741778D02*
X7368115Y-13760826D01*
X7368115Y-13760826D02*
X7368115Y-13779873D01*
X7368115Y-13779873D02*
X7272877Y-13798921D01*
X7434782Y-13941778D02*
X7444306Y-13932254D01*
X7444306Y-13932254D02*
X7463353Y-13903683D01*
X7463353Y-13903683D02*
X7472877Y-13884635D01*
X7472877Y-13884635D02*
X7482401Y-13856064D01*
X7482401Y-13856064D02*
X7491925Y-13808445D01*
X7491925Y-13808445D02*
X7491925Y-13770349D01*
X7491925Y-13770349D02*
X7482401Y-13722730D01*
X7482401Y-13722730D02*
X7472877Y-13694159D01*
X7472877Y-13694159D02*
X7463353Y-13675111D01*
X7463353Y-13675111D02*
X7444306Y-13646540D01*
X7444306Y-13646540D02*
X7434782Y-13637016D01*
X7796687Y-13941778D02*
X7787163Y-13932254D01*
X7787163Y-13932254D02*
X7768115Y-13903683D01*
X7768115Y-13903683D02*
X7758592Y-13884635D01*
X7758592Y-13884635D02*
X7749068Y-13856064D01*
X7749068Y-13856064D02*
X7739544Y-13808445D01*
X7739544Y-13808445D02*
X7739544Y-13770349D01*
X7739544Y-13770349D02*
X7749068Y-13722730D01*
X7749068Y-13722730D02*
X7758592Y-13694159D01*
X7758592Y-13694159D02*
X7768115Y-13675111D01*
X7768115Y-13675111D02*
X7787163Y-13646540D01*
X7787163Y-13646540D02*
X7796687Y-13637016D01*
X7872877Y-13732254D02*
X7872877Y-13865587D01*
X7872877Y-13751302D02*
X7882401Y-13741778D01*
X7882401Y-13741778D02*
X7901449Y-13732254D01*
X7901449Y-13732254D02*
X7930020Y-13732254D01*
X7930020Y-13732254D02*
X7949068Y-13741778D01*
X7949068Y-13741778D02*
X7958592Y-13760826D01*
X7958592Y-13760826D02*
X7958592Y-13865587D01*
X8082401Y-13865587D02*
X8063353Y-13856064D01*
X8063353Y-13856064D02*
X8053830Y-13846540D01*
X8053830Y-13846540D02*
X8044306Y-13827492D01*
X8044306Y-13827492D02*
X8044306Y-13770349D01*
X8044306Y-13770349D02*
X8053830Y-13751302D01*
X8053830Y-13751302D02*
X8063353Y-13741778D01*
X8063353Y-13741778D02*
X8082401Y-13732254D01*
X8082401Y-13732254D02*
X8110973Y-13732254D01*
X8110973Y-13732254D02*
X8130020Y-13741778D01*
X8130020Y-13741778D02*
X8139544Y-13751302D01*
X8139544Y-13751302D02*
X8149068Y-13770349D01*
X8149068Y-13770349D02*
X8149068Y-13827492D01*
X8149068Y-13827492D02*
X8139544Y-13846540D01*
X8139544Y-13846540D02*
X8130020Y-13856064D01*
X8130020Y-13856064D02*
X8110973Y-13865587D01*
X8110973Y-13865587D02*
X8082401Y-13865587D01*
X8206211Y-13732254D02*
X8282401Y-13732254D01*
X8234782Y-13665587D02*
X8234782Y-13837016D01*
X8234782Y-13837016D02*
X8244306Y-13856064D01*
X8244306Y-13856064D02*
X8263353Y-13865587D01*
X8263353Y-13865587D02*
X8282401Y-13865587D01*
X8501449Y-13732254D02*
X8501449Y-13932254D01*
X8501449Y-13741778D02*
X8520496Y-13732254D01*
X8520496Y-13732254D02*
X8558592Y-13732254D01*
X8558592Y-13732254D02*
X8577639Y-13741778D01*
X8577639Y-13741778D02*
X8587163Y-13751302D01*
X8587163Y-13751302D02*
X8596687Y-13770349D01*
X8596687Y-13770349D02*
X8596687Y-13827492D01*
X8596687Y-13827492D02*
X8587163Y-13846540D01*
X8587163Y-13846540D02*
X8577639Y-13856064D01*
X8577639Y-13856064D02*
X8558592Y-13865587D01*
X8558592Y-13865587D02*
X8520496Y-13865587D01*
X8520496Y-13865587D02*
X8501449Y-13856064D01*
X8710973Y-13865587D02*
X8691925Y-13856064D01*
X8691925Y-13856064D02*
X8682401Y-13837016D01*
X8682401Y-13837016D02*
X8682401Y-13665587D01*
X8872877Y-13865587D02*
X8872877Y-13760826D01*
X8872877Y-13760826D02*
X8863354Y-13741778D01*
X8863354Y-13741778D02*
X8844306Y-13732254D01*
X8844306Y-13732254D02*
X8806211Y-13732254D01*
X8806211Y-13732254D02*
X8787163Y-13741778D01*
X8872877Y-13856064D02*
X8853830Y-13865587D01*
X8853830Y-13865587D02*
X8806211Y-13865587D01*
X8806211Y-13865587D02*
X8787163Y-13856064D01*
X8787163Y-13856064D02*
X8777639Y-13837016D01*
X8777639Y-13837016D02*
X8777639Y-13817968D01*
X8777639Y-13817968D02*
X8787163Y-13798921D01*
X8787163Y-13798921D02*
X8806211Y-13789397D01*
X8806211Y-13789397D02*
X8853830Y-13789397D01*
X8853830Y-13789397D02*
X8872877Y-13779873D01*
X8939544Y-13732254D02*
X9015735Y-13732254D01*
X8968116Y-13665587D02*
X8968116Y-13837016D01*
X8968116Y-13837016D02*
X8977639Y-13856064D01*
X8977639Y-13856064D02*
X8996687Y-13865587D01*
X8996687Y-13865587D02*
X9015735Y-13865587D01*
X9158592Y-13856064D02*
X9139544Y-13865587D01*
X9139544Y-13865587D02*
X9101449Y-13865587D01*
X9101449Y-13865587D02*
X9082401Y-13856064D01*
X9082401Y-13856064D02*
X9072877Y-13837016D01*
X9072877Y-13837016D02*
X9072877Y-13760826D01*
X9072877Y-13760826D02*
X9082401Y-13741778D01*
X9082401Y-13741778D02*
X9101449Y-13732254D01*
X9101449Y-13732254D02*
X9139544Y-13732254D01*
X9139544Y-13732254D02*
X9158592Y-13741778D01*
X9158592Y-13741778D02*
X9168116Y-13760826D01*
X9168116Y-13760826D02*
X9168116Y-13779873D01*
X9168116Y-13779873D02*
X9072877Y-13798921D01*
X9339544Y-13865587D02*
X9339544Y-13665587D01*
X9339544Y-13856064D02*
X9320497Y-13865587D01*
X9320497Y-13865587D02*
X9282401Y-13865587D01*
X9282401Y-13865587D02*
X9263354Y-13856064D01*
X9263354Y-13856064D02*
X9253830Y-13846540D01*
X9253830Y-13846540D02*
X9244306Y-13827492D01*
X9244306Y-13827492D02*
X9244306Y-13770349D01*
X9244306Y-13770349D02*
X9253830Y-13751302D01*
X9253830Y-13751302D02*
X9263354Y-13741778D01*
X9263354Y-13741778D02*
X9282401Y-13732254D01*
X9282401Y-13732254D02*
X9320497Y-13732254D01*
X9320497Y-13732254D02*
X9339544Y-13741778D01*
X9415735Y-13941778D02*
X9425258Y-13932254D01*
X9425258Y-13932254D02*
X9444306Y-13903683D01*
X9444306Y-13903683D02*
X9453830Y-13884635D01*
X9453830Y-13884635D02*
X9463354Y-13856064D01*
X9463354Y-13856064D02*
X9472877Y-13808445D01*
X9472877Y-13808445D02*
X9472877Y-13770349D01*
X9472877Y-13770349D02*
X9463354Y-13722730D01*
X9463354Y-13722730D02*
X9453830Y-13694159D01*
X9453830Y-13694159D02*
X9444306Y-13675111D01*
X9444306Y-13675111D02*
X9425258Y-13646540D01*
X9425258Y-13646540D02*
X9415735Y-13637016D01*
X2821624Y-14094104D02*
G75*
G02*
X2621624Y-14094104I-100000J0D01*
G01*
X2621624Y-14094104D02*
G75*
G02*
X2821624Y-14094104I100000J0D01*
G01*
X3072877Y-14004635D02*
X3082401Y-13995111D01*
X3082401Y-13995111D02*
X3101448Y-13985587D01*
X3101448Y-13985587D02*
X3149067Y-13985587D01*
X3149067Y-13985587D02*
X3168115Y-13995111D01*
X3168115Y-13995111D02*
X3177639Y-14004635D01*
X3177639Y-14004635D02*
X3187163Y-14023683D01*
X3187163Y-14023683D02*
X3187163Y-14042730D01*
X3187163Y-14042730D02*
X3177639Y-14071302D01*
X3177639Y-14071302D02*
X3063353Y-14185587D01*
X3063353Y-14185587D02*
X3187163Y-14185587D01*
X3272877Y-14166540D02*
X3282401Y-14176064D01*
X3282401Y-14176064D02*
X3272877Y-14185587D01*
X3272877Y-14185587D02*
X3263353Y-14176064D01*
X3263353Y-14176064D02*
X3272877Y-14166540D01*
X3272877Y-14166540D02*
X3272877Y-14185587D01*
X3349067Y-13985587D02*
X3482401Y-13985587D01*
X3482401Y-13985587D02*
X3396686Y-14185587D01*
X3653829Y-13985587D02*
X3558591Y-13985587D01*
X3558591Y-13985587D02*
X3549067Y-14080826D01*
X3549067Y-14080826D02*
X3558591Y-14071302D01*
X3558591Y-14071302D02*
X3577639Y-14061778D01*
X3577639Y-14061778D02*
X3625258Y-14061778D01*
X3625258Y-14061778D02*
X3644305Y-14071302D01*
X3644305Y-14071302D02*
X3653829Y-14080826D01*
X3653829Y-14080826D02*
X3663353Y-14099873D01*
X3663353Y-14099873D02*
X3663353Y-14147492D01*
X3663353Y-14147492D02*
X3653829Y-14166540D01*
X3653829Y-14166540D02*
X3644305Y-14176064D01*
X3644305Y-14176064D02*
X3625258Y-14185587D01*
X3625258Y-14185587D02*
X3577639Y-14185587D01*
X3577639Y-14185587D02*
X3558591Y-14176064D01*
X3558591Y-14176064D02*
X3549067Y-14166540D01*
X3787163Y-13985587D02*
X3806210Y-13985587D01*
X3806210Y-13985587D02*
X3825258Y-13995111D01*
X3825258Y-13995111D02*
X3834782Y-14004635D01*
X3834782Y-14004635D02*
X3844305Y-14023683D01*
X3844305Y-14023683D02*
X3853829Y-14061778D01*
X3853829Y-14061778D02*
X3853829Y-14109397D01*
X3853829Y-14109397D02*
X3844305Y-14147492D01*
X3844305Y-14147492D02*
X3834782Y-14166540D01*
X3834782Y-14166540D02*
X3825258Y-14176064D01*
X3825258Y-14176064D02*
X3806210Y-14185587D01*
X3806210Y-14185587D02*
X3787163Y-14185587D01*
X3787163Y-14185587D02*
X3768115Y-14176064D01*
X3768115Y-14176064D02*
X3758591Y-14166540D01*
X3758591Y-14166540D02*
X3749067Y-14147492D01*
X3749067Y-14147492D02*
X3739544Y-14109397D01*
X3739544Y-14109397D02*
X3739544Y-14061778D01*
X3739544Y-14061778D02*
X3749067Y-14023683D01*
X3749067Y-14023683D02*
X3758591Y-14004635D01*
X3758591Y-14004635D02*
X3768115Y-13995111D01*
X3768115Y-13995111D02*
X3787163Y-13985587D01*
X3939544Y-14185587D02*
X3939544Y-14052254D01*
X3939544Y-14071302D02*
X3949067Y-14061778D01*
X3949067Y-14061778D02*
X3968115Y-14052254D01*
X3968115Y-14052254D02*
X3996686Y-14052254D01*
X3996686Y-14052254D02*
X4015734Y-14061778D01*
X4015734Y-14061778D02*
X4025258Y-14080826D01*
X4025258Y-14080826D02*
X4025258Y-14185587D01*
X4025258Y-14080826D02*
X4034782Y-14061778D01*
X4034782Y-14061778D02*
X4053829Y-14052254D01*
X4053829Y-14052254D02*
X4082401Y-14052254D01*
X4082401Y-14052254D02*
X4101448Y-14061778D01*
X4101448Y-14061778D02*
X4110972Y-14080826D01*
X4110972Y-14080826D02*
X4110972Y-14185587D01*
X4206210Y-14185587D02*
X4206210Y-14052254D01*
X4206210Y-14071302D02*
X4215734Y-14061778D01*
X4215734Y-14061778D02*
X4234782Y-14052254D01*
X4234782Y-14052254D02*
X4263353Y-14052254D01*
X4263353Y-14052254D02*
X4282401Y-14061778D01*
X4282401Y-14061778D02*
X4291925Y-14080826D01*
X4291925Y-14080826D02*
X4291925Y-14185587D01*
X4291925Y-14080826D02*
X4301448Y-14061778D01*
X4301448Y-14061778D02*
X4320496Y-14052254D01*
X4320496Y-14052254D02*
X4349067Y-14052254D01*
X4349067Y-14052254D02*
X4368115Y-14061778D01*
X4368115Y-14061778D02*
X4377639Y-14080826D01*
X4377639Y-14080826D02*
X4377639Y-14185587D01*
X4768115Y-13976064D02*
X4596687Y-14233206D01*
X5025258Y-13985587D02*
X5044306Y-13985587D01*
X5044306Y-13985587D02*
X5063353Y-13995111D01*
X5063353Y-13995111D02*
X5072877Y-14004635D01*
X5072877Y-14004635D02*
X5082401Y-14023683D01*
X5082401Y-14023683D02*
X5091925Y-14061778D01*
X5091925Y-14061778D02*
X5091925Y-14109397D01*
X5091925Y-14109397D02*
X5082401Y-14147492D01*
X5082401Y-14147492D02*
X5072877Y-14166540D01*
X5072877Y-14166540D02*
X5063353Y-14176064D01*
X5063353Y-14176064D02*
X5044306Y-14185587D01*
X5044306Y-14185587D02*
X5025258Y-14185587D01*
X5025258Y-14185587D02*
X5006210Y-14176064D01*
X5006210Y-14176064D02*
X4996687Y-14166540D01*
X4996687Y-14166540D02*
X4987163Y-14147492D01*
X4987163Y-14147492D02*
X4977639Y-14109397D01*
X4977639Y-14109397D02*
X4977639Y-14061778D01*
X4977639Y-14061778D02*
X4987163Y-14023683D01*
X4987163Y-14023683D02*
X4996687Y-14004635D01*
X4996687Y-14004635D02*
X5006210Y-13995111D01*
X5006210Y-13995111D02*
X5025258Y-13985587D01*
X5177639Y-14166540D02*
X5187163Y-14176064D01*
X5187163Y-14176064D02*
X5177639Y-14185587D01*
X5177639Y-14185587D02*
X5168115Y-14176064D01*
X5168115Y-14176064D02*
X5177639Y-14166540D01*
X5177639Y-14166540D02*
X5177639Y-14185587D01*
X5377639Y-14185587D02*
X5263353Y-14185587D01*
X5320496Y-14185587D02*
X5320496Y-13985587D01*
X5320496Y-13985587D02*
X5301449Y-14014159D01*
X5301449Y-14014159D02*
X5282401Y-14033206D01*
X5282401Y-14033206D02*
X5263353Y-14042730D01*
X5501449Y-13985587D02*
X5520496Y-13985587D01*
X5520496Y-13985587D02*
X5539544Y-13995111D01*
X5539544Y-13995111D02*
X5549068Y-14004635D01*
X5549068Y-14004635D02*
X5558591Y-14023683D01*
X5558591Y-14023683D02*
X5568115Y-14061778D01*
X5568115Y-14061778D02*
X5568115Y-14109397D01*
X5568115Y-14109397D02*
X5558591Y-14147492D01*
X5558591Y-14147492D02*
X5549068Y-14166540D01*
X5549068Y-14166540D02*
X5539544Y-14176064D01*
X5539544Y-14176064D02*
X5520496Y-14185587D01*
X5520496Y-14185587D02*
X5501449Y-14185587D01*
X5501449Y-14185587D02*
X5482401Y-14176064D01*
X5482401Y-14176064D02*
X5472877Y-14166540D01*
X5472877Y-14166540D02*
X5463353Y-14147492D01*
X5463353Y-14147492D02*
X5453830Y-14109397D01*
X5453830Y-14109397D02*
X5453830Y-14061778D01*
X5453830Y-14061778D02*
X5463353Y-14023683D01*
X5463353Y-14023683D02*
X5472877Y-14004635D01*
X5472877Y-14004635D02*
X5482401Y-13995111D01*
X5482401Y-13995111D02*
X5501449Y-13985587D01*
X5682401Y-14071302D02*
X5663353Y-14061778D01*
X5663353Y-14061778D02*
X5653829Y-14052254D01*
X5653829Y-14052254D02*
X5644306Y-14033206D01*
X5644306Y-14033206D02*
X5644306Y-14023683D01*
X5644306Y-14023683D02*
X5653829Y-14004635D01*
X5653829Y-14004635D02*
X5663353Y-13995111D01*
X5663353Y-13995111D02*
X5682401Y-13985587D01*
X5682401Y-13985587D02*
X5720496Y-13985587D01*
X5720496Y-13985587D02*
X5739544Y-13995111D01*
X5739544Y-13995111D02*
X5749068Y-14004635D01*
X5749068Y-14004635D02*
X5758591Y-14023683D01*
X5758591Y-14023683D02*
X5758591Y-14033206D01*
X5758591Y-14033206D02*
X5749068Y-14052254D01*
X5749068Y-14052254D02*
X5739544Y-14061778D01*
X5739544Y-14061778D02*
X5720496Y-14071302D01*
X5720496Y-14071302D02*
X5682401Y-14071302D01*
X5682401Y-14071302D02*
X5663353Y-14080826D01*
X5663353Y-14080826D02*
X5653829Y-14090349D01*
X5653829Y-14090349D02*
X5644306Y-14109397D01*
X5644306Y-14109397D02*
X5644306Y-14147492D01*
X5644306Y-14147492D02*
X5653829Y-14166540D01*
X5653829Y-14166540D02*
X5663353Y-14176064D01*
X5663353Y-14176064D02*
X5682401Y-14185587D01*
X5682401Y-14185587D02*
X5720496Y-14185587D01*
X5720496Y-14185587D02*
X5739544Y-14176064D01*
X5739544Y-14176064D02*
X5749068Y-14166540D01*
X5749068Y-14166540D02*
X5758591Y-14147492D01*
X5758591Y-14147492D02*
X5758591Y-14109397D01*
X5758591Y-14109397D02*
X5749068Y-14090349D01*
X5749068Y-14090349D02*
X5739544Y-14080826D01*
X5739544Y-14080826D02*
X5720496Y-14071302D01*
X5825258Y-13985587D02*
X5949068Y-13985587D01*
X5949068Y-13985587D02*
X5882401Y-14061778D01*
X5882401Y-14061778D02*
X5910972Y-14061778D01*
X5910972Y-14061778D02*
X5930020Y-14071302D01*
X5930020Y-14071302D02*
X5939544Y-14080826D01*
X5939544Y-14080826D02*
X5949068Y-14099873D01*
X5949068Y-14099873D02*
X5949068Y-14147492D01*
X5949068Y-14147492D02*
X5939544Y-14166540D01*
X5939544Y-14166540D02*
X5930020Y-14176064D01*
X5930020Y-14176064D02*
X5910972Y-14185587D01*
X5910972Y-14185587D02*
X5853829Y-14185587D01*
X5853829Y-14185587D02*
X5834782Y-14176064D01*
X5834782Y-14176064D02*
X5825258Y-14166540D01*
X6025258Y-13985587D02*
X6025258Y-14023683D01*
X6101449Y-13985587D02*
X6101449Y-14023683D01*
X6396687Y-14261778D02*
X6387163Y-14252254D01*
X6387163Y-14252254D02*
X6368115Y-14223683D01*
X6368115Y-14223683D02*
X6358591Y-14204635D01*
X6358591Y-14204635D02*
X6349068Y-14176064D01*
X6349068Y-14176064D02*
X6339544Y-14128445D01*
X6339544Y-14128445D02*
X6339544Y-14090349D01*
X6339544Y-14090349D02*
X6349068Y-14042730D01*
X6349068Y-14042730D02*
X6358591Y-14014159D01*
X6358591Y-14014159D02*
X6368115Y-13995111D01*
X6368115Y-13995111D02*
X6387163Y-13966540D01*
X6387163Y-13966540D02*
X6396687Y-13957016D01*
X6453830Y-13985587D02*
X6577639Y-13985587D01*
X6577639Y-13985587D02*
X6510972Y-14061778D01*
X6510972Y-14061778D02*
X6539544Y-14061778D01*
X6539544Y-14061778D02*
X6558591Y-14071302D01*
X6558591Y-14071302D02*
X6568115Y-14080826D01*
X6568115Y-14080826D02*
X6577639Y-14099873D01*
X6577639Y-14099873D02*
X6577639Y-14147492D01*
X6577639Y-14147492D02*
X6568115Y-14166540D01*
X6568115Y-14166540D02*
X6558591Y-14176064D01*
X6558591Y-14176064D02*
X6539544Y-14185587D01*
X6539544Y-14185587D02*
X6482401Y-14185587D01*
X6482401Y-14185587D02*
X6463353Y-14176064D01*
X6463353Y-14176064D02*
X6453830Y-14166540D01*
X6815734Y-14185587D02*
X6815734Y-13985587D01*
X6901449Y-14185587D02*
X6901449Y-14080826D01*
X6901449Y-14080826D02*
X6891925Y-14061778D01*
X6891925Y-14061778D02*
X6872877Y-14052254D01*
X6872877Y-14052254D02*
X6844306Y-14052254D01*
X6844306Y-14052254D02*
X6825258Y-14061778D01*
X6825258Y-14061778D02*
X6815734Y-14071302D01*
X7025258Y-14185587D02*
X7006211Y-14176064D01*
X7006211Y-14176064D02*
X6996687Y-14166540D01*
X6996687Y-14166540D02*
X6987163Y-14147492D01*
X6987163Y-14147492D02*
X6987163Y-14090349D01*
X6987163Y-14090349D02*
X6996687Y-14071302D01*
X6996687Y-14071302D02*
X7006211Y-14061778D01*
X7006211Y-14061778D02*
X7025258Y-14052254D01*
X7025258Y-14052254D02*
X7053830Y-14052254D01*
X7053830Y-14052254D02*
X7072877Y-14061778D01*
X7072877Y-14061778D02*
X7082401Y-14071302D01*
X7082401Y-14071302D02*
X7091925Y-14090349D01*
X7091925Y-14090349D02*
X7091925Y-14147492D01*
X7091925Y-14147492D02*
X7082401Y-14166540D01*
X7082401Y-14166540D02*
X7072877Y-14176064D01*
X7072877Y-14176064D02*
X7053830Y-14185587D01*
X7053830Y-14185587D02*
X7025258Y-14185587D01*
X7206211Y-14185587D02*
X7187163Y-14176064D01*
X7187163Y-14176064D02*
X7177639Y-14157016D01*
X7177639Y-14157016D02*
X7177639Y-13985587D01*
X7358592Y-14176064D02*
X7339544Y-14185587D01*
X7339544Y-14185587D02*
X7301449Y-14185587D01*
X7301449Y-14185587D02*
X7282401Y-14176064D01*
X7282401Y-14176064D02*
X7272877Y-14157016D01*
X7272877Y-14157016D02*
X7272877Y-14080826D01*
X7272877Y-14080826D02*
X7282401Y-14061778D01*
X7282401Y-14061778D02*
X7301449Y-14052254D01*
X7301449Y-14052254D02*
X7339544Y-14052254D01*
X7339544Y-14052254D02*
X7358592Y-14061778D01*
X7358592Y-14061778D02*
X7368115Y-14080826D01*
X7368115Y-14080826D02*
X7368115Y-14099873D01*
X7368115Y-14099873D02*
X7272877Y-14118921D01*
X7444306Y-14176064D02*
X7463353Y-14185587D01*
X7463353Y-14185587D02*
X7501449Y-14185587D01*
X7501449Y-14185587D02*
X7520496Y-14176064D01*
X7520496Y-14176064D02*
X7530020Y-14157016D01*
X7530020Y-14157016D02*
X7530020Y-14147492D01*
X7530020Y-14147492D02*
X7520496Y-14128445D01*
X7520496Y-14128445D02*
X7501449Y-14118921D01*
X7501449Y-14118921D02*
X7472877Y-14118921D01*
X7472877Y-14118921D02*
X7453830Y-14109397D01*
X7453830Y-14109397D02*
X7444306Y-14090349D01*
X7444306Y-14090349D02*
X7444306Y-14080826D01*
X7444306Y-14080826D02*
X7453830Y-14061778D01*
X7453830Y-14061778D02*
X7472877Y-14052254D01*
X7472877Y-14052254D02*
X7501449Y-14052254D01*
X7501449Y-14052254D02*
X7520496Y-14061778D01*
X7596687Y-14261778D02*
X7606211Y-14252254D01*
X7606211Y-14252254D02*
X7625258Y-14223683D01*
X7625258Y-14223683D02*
X7634782Y-14204635D01*
X7634782Y-14204635D02*
X7644306Y-14176064D01*
X7644306Y-14176064D02*
X7653830Y-14128445D01*
X7653830Y-14128445D02*
X7653830Y-14090349D01*
X7653830Y-14090349D02*
X7644306Y-14042730D01*
X7644306Y-14042730D02*
X7634782Y-14014159D01*
X7634782Y-14014159D02*
X7625258Y-13995111D01*
X7625258Y-13995111D02*
X7606211Y-13966540D01*
X7606211Y-13966540D02*
X7596687Y-13957016D01*
X7958592Y-14261778D02*
X7949068Y-14252254D01*
X7949068Y-14252254D02*
X7930020Y-14223683D01*
X7930020Y-14223683D02*
X7920496Y-14204635D01*
X7920496Y-14204635D02*
X7910973Y-14176064D01*
X7910973Y-14176064D02*
X7901449Y-14128445D01*
X7901449Y-14128445D02*
X7901449Y-14090349D01*
X7901449Y-14090349D02*
X7910973Y-14042730D01*
X7910973Y-14042730D02*
X7920496Y-14014159D01*
X7920496Y-14014159D02*
X7930020Y-13995111D01*
X7930020Y-13995111D02*
X7949068Y-13966540D01*
X7949068Y-13966540D02*
X7958592Y-13957016D01*
X8034782Y-14052254D02*
X8034782Y-14185587D01*
X8034782Y-14071302D02*
X8044306Y-14061778D01*
X8044306Y-14061778D02*
X8063353Y-14052254D01*
X8063353Y-14052254D02*
X8091925Y-14052254D01*
X8091925Y-14052254D02*
X8110973Y-14061778D01*
X8110973Y-14061778D02*
X8120496Y-14080826D01*
X8120496Y-14080826D02*
X8120496Y-14185587D01*
X8244306Y-14185587D02*
X8225258Y-14176064D01*
X8225258Y-14176064D02*
X8215734Y-14166540D01*
X8215734Y-14166540D02*
X8206211Y-14147492D01*
X8206211Y-14147492D02*
X8206211Y-14090349D01*
X8206211Y-14090349D02*
X8215734Y-14071302D01*
X8215734Y-14071302D02*
X8225258Y-14061778D01*
X8225258Y-14061778D02*
X8244306Y-14052254D01*
X8244306Y-14052254D02*
X8272877Y-14052254D01*
X8272877Y-14052254D02*
X8291925Y-14061778D01*
X8291925Y-14061778D02*
X8301449Y-14071302D01*
X8301449Y-14071302D02*
X8310973Y-14090349D01*
X8310973Y-14090349D02*
X8310973Y-14147492D01*
X8310973Y-14147492D02*
X8301449Y-14166540D01*
X8301449Y-14166540D02*
X8291925Y-14176064D01*
X8291925Y-14176064D02*
X8272877Y-14185587D01*
X8272877Y-14185587D02*
X8244306Y-14185587D01*
X8368115Y-14052254D02*
X8444306Y-14052254D01*
X8396687Y-13985587D02*
X8396687Y-14157016D01*
X8396687Y-14157016D02*
X8406211Y-14176064D01*
X8406211Y-14176064D02*
X8425258Y-14185587D01*
X8425258Y-14185587D02*
X8444306Y-14185587D01*
X8663354Y-14052254D02*
X8663354Y-14252254D01*
X8663354Y-14061778D02*
X8682401Y-14052254D01*
X8682401Y-14052254D02*
X8720497Y-14052254D01*
X8720497Y-14052254D02*
X8739544Y-14061778D01*
X8739544Y-14061778D02*
X8749068Y-14071302D01*
X8749068Y-14071302D02*
X8758592Y-14090349D01*
X8758592Y-14090349D02*
X8758592Y-14147492D01*
X8758592Y-14147492D02*
X8749068Y-14166540D01*
X8749068Y-14166540D02*
X8739544Y-14176064D01*
X8739544Y-14176064D02*
X8720497Y-14185587D01*
X8720497Y-14185587D02*
X8682401Y-14185587D01*
X8682401Y-14185587D02*
X8663354Y-14176064D01*
X8872877Y-14185587D02*
X8853830Y-14176064D01*
X8853830Y-14176064D02*
X8844306Y-14157016D01*
X8844306Y-14157016D02*
X8844306Y-13985587D01*
X9034782Y-14185587D02*
X9034782Y-14080826D01*
X9034782Y-14080826D02*
X9025258Y-14061778D01*
X9025258Y-14061778D02*
X9006211Y-14052254D01*
X9006211Y-14052254D02*
X8968116Y-14052254D01*
X8968116Y-14052254D02*
X8949068Y-14061778D01*
X9034782Y-14176064D02*
X9015735Y-14185587D01*
X9015735Y-14185587D02*
X8968116Y-14185587D01*
X8968116Y-14185587D02*
X8949068Y-14176064D01*
X8949068Y-14176064D02*
X8939544Y-14157016D01*
X8939544Y-14157016D02*
X8939544Y-14137968D01*
X8939544Y-14137968D02*
X8949068Y-14118921D01*
X8949068Y-14118921D02*
X8968116Y-14109397D01*
X8968116Y-14109397D02*
X9015735Y-14109397D01*
X9015735Y-14109397D02*
X9034782Y-14099873D01*
X9101449Y-14052254D02*
X9177639Y-14052254D01*
X9130020Y-13985587D02*
X9130020Y-14157016D01*
X9130020Y-14157016D02*
X9139544Y-14176064D01*
X9139544Y-14176064D02*
X9158592Y-14185587D01*
X9158592Y-14185587D02*
X9177639Y-14185587D01*
X9320497Y-14176064D02*
X9301449Y-14185587D01*
X9301449Y-14185587D02*
X9263354Y-14185587D01*
X9263354Y-14185587D02*
X9244306Y-14176064D01*
X9244306Y-14176064D02*
X9234782Y-14157016D01*
X9234782Y-14157016D02*
X9234782Y-14080826D01*
X9234782Y-14080826D02*
X9244306Y-14061778D01*
X9244306Y-14061778D02*
X9263354Y-14052254D01*
X9263354Y-14052254D02*
X9301449Y-14052254D01*
X9301449Y-14052254D02*
X9320497Y-14061778D01*
X9320497Y-14061778D02*
X9330020Y-14080826D01*
X9330020Y-14080826D02*
X9330020Y-14099873D01*
X9330020Y-14099873D02*
X9234782Y-14118921D01*
X9501449Y-14185587D02*
X9501449Y-13985587D01*
X9501449Y-14176064D02*
X9482401Y-14185587D01*
X9482401Y-14185587D02*
X9444306Y-14185587D01*
X9444306Y-14185587D02*
X9425258Y-14176064D01*
X9425258Y-14176064D02*
X9415735Y-14166540D01*
X9415735Y-14166540D02*
X9406211Y-14147492D01*
X9406211Y-14147492D02*
X9406211Y-14090349D01*
X9406211Y-14090349D02*
X9415735Y-14071302D01*
X9415735Y-14071302D02*
X9425258Y-14061778D01*
X9425258Y-14061778D02*
X9444306Y-14052254D01*
X9444306Y-14052254D02*
X9482401Y-14052254D01*
X9482401Y-14052254D02*
X9501449Y-14061778D01*
X9577639Y-14261778D02*
X9587163Y-14252254D01*
X9587163Y-14252254D02*
X9606211Y-14223683D01*
X9606211Y-14223683D02*
X9615735Y-14204635D01*
X9615735Y-14204635D02*
X9625258Y-14176064D01*
X9625258Y-14176064D02*
X9634782Y-14128445D01*
X9634782Y-14128445D02*
X9634782Y-14090349D01*
X9634782Y-14090349D02*
X9625258Y-14042730D01*
X9625258Y-14042730D02*
X9615735Y-14014159D01*
X9615735Y-14014159D02*
X9606211Y-13995111D01*
X9606211Y-13995111D02*
X9587163Y-13966540D01*
X9587163Y-13966540D02*
X9577639Y-13957016D01*
M02*
