%TF.GenerationSoftware,KiCad,Pcbnew,8.0.5*%
%TF.CreationDate,2024-11-16T16:01:40-06:00*%
%TF.ProjectId,ControllerPCB,436f6e74-726f-46c6-9c65-725043422e6b,rev?*%
%TF.SameCoordinates,Original*%
%TF.FileFunction,Legend,Top*%
%TF.FilePolarity,Positive*%
%FSLAX46Y46*%
G04 Gerber Fmt 4.6, Leading zero omitted, Abs format (unit mm)*
G04 Created by KiCad (PCBNEW 8.0.5) date 2024-11-16 16:01:40*
%MOMM*%
%LPD*%
G01*
G04 APERTURE LIST*
G04 Aperture macros list*
%AMRoundRect*
0 Rectangle with rounded corners*
0 $1 Rounding radius*
0 $2 $3 $4 $5 $6 $7 $8 $9 X,Y pos of 4 corners*
0 Add a 4 corners polygon primitive as box body*
4,1,4,$2,$3,$4,$5,$6,$7,$8,$9,$2,$3,0*
0 Add four circle primitives for the rounded corners*
1,1,$1+$1,$2,$3*
1,1,$1+$1,$4,$5*
1,1,$1+$1,$6,$7*
1,1,$1+$1,$8,$9*
0 Add four rect primitives between the rounded corners*
20,1,$1+$1,$2,$3,$4,$5,0*
20,1,$1+$1,$4,$5,$6,$7,0*
20,1,$1+$1,$6,$7,$8,$9,0*
20,1,$1+$1,$8,$9,$2,$3,0*%
G04 Aperture macros list end*
%ADD10C,0.100000*%
%ADD11C,0.300000*%
%ADD12C,0.150000*%
%ADD13C,0.120000*%
%ADD14C,0.152400*%
%ADD15C,0.508000*%
%ADD16R,1.500000X0.900000*%
%ADD17R,0.400000X1.350000*%
%ADD18O,1.000000X1.900000*%
%ADD19R,0.875000X1.900000*%
%ADD20O,1.050000X1.250000*%
%ADD21R,2.900000X1.900000*%
%ADD22R,0.558800X0.952500*%
%ADD23RoundRect,0.250000X0.350000X0.450000X-0.350000X0.450000X-0.350000X-0.450000X0.350000X-0.450000X0*%
%ADD24RoundRect,0.250000X-0.350000X-0.450000X0.350000X-0.450000X0.350000X0.450000X-0.350000X0.450000X0*%
%ADD25RoundRect,0.250000X2.050000X0.300000X-2.050000X0.300000X-2.050000X-0.300000X2.050000X-0.300000X0*%
%ADD26RoundRect,0.250002X4.449998X5.149998X-4.449998X5.149998X-4.449998X-5.149998X4.449998X-5.149998X0*%
%ADD27R,1.700000X1.700000*%
%ADD28O,1.700000X1.700000*%
%ADD29C,1.651000*%
%ADD30RoundRect,0.250000X-0.325000X-0.450000X0.325000X-0.450000X0.325000X0.450000X-0.325000X0.450000X0*%
%ADD31C,3.200000*%
%ADD32R,0.900000X1.500000*%
%ADD33R,1.000000X1.000000*%
%ADD34C,0.600000*%
%ADD35C,4.270000*%
%ADD36C,1.779000*%
%ADD37RoundRect,0.102000X0.787500X0.787500X-0.787500X0.787500X-0.787500X-0.787500X0.787500X-0.787500X0*%
%ADD38RoundRect,0.250000X-0.337500X-0.475000X0.337500X-0.475000X0.337500X0.475000X-0.337500X0.475000X0*%
%ADD39RoundRect,0.250000X-0.725000X0.600000X-0.725000X-0.600000X0.725000X-0.600000X0.725000X0.600000X0*%
%ADD40O,1.950000X1.700000*%
%ADD41RoundRect,0.375000X-0.625000X-0.375000X0.625000X-0.375000X0.625000X0.375000X-0.625000X0.375000X0*%
%ADD42RoundRect,0.500000X-0.500000X-1.400000X0.500000X-1.400000X0.500000X1.400000X-0.500000X1.400000X0*%
%ADD43R,2.100000X2.100000*%
%ADD44C,2.100000*%
%ADD45RoundRect,0.250000X-0.250000X-0.250000X0.250000X-0.250000X0.250000X0.250000X-0.250000X0.250000X0*%
%ADD46R,1.500000X1.800000*%
%ADD47R,1.450000X0.450000*%
%ADD48RoundRect,0.250000X0.250000X0.250000X-0.250000X0.250000X-0.250000X-0.250000X0.250000X-0.250000X0*%
%ADD49RoundRect,0.250000X0.337500X0.475000X-0.337500X0.475000X-0.337500X-0.475000X0.337500X-0.475000X0*%
%ADD50RoundRect,0.100000X-0.650000X-0.100000X0.650000X-0.100000X0.650000X0.100000X-0.650000X0.100000X0*%
G04 APERTURE END LIST*
D10*
X77963456Y-55379646D02*
X78106313Y-55427265D01*
X78106313Y-55427265D02*
X78153932Y-55474884D01*
X78153932Y-55474884D02*
X78201551Y-55570122D01*
X78201551Y-55570122D02*
X78201551Y-55712979D01*
X78201551Y-55712979D02*
X78153932Y-55808217D01*
X78153932Y-55808217D02*
X78106313Y-55855837D01*
X78106313Y-55855837D02*
X78011075Y-55903456D01*
X78011075Y-55903456D02*
X77630123Y-55903456D01*
X77630123Y-55903456D02*
X77630123Y-54903456D01*
X77630123Y-54903456D02*
X77963456Y-54903456D01*
X77963456Y-54903456D02*
X78058694Y-54951075D01*
X78058694Y-54951075D02*
X78106313Y-54998694D01*
X78106313Y-54998694D02*
X78153932Y-55093932D01*
X78153932Y-55093932D02*
X78153932Y-55189170D01*
X78153932Y-55189170D02*
X78106313Y-55284408D01*
X78106313Y-55284408D02*
X78058694Y-55332027D01*
X78058694Y-55332027D02*
X77963456Y-55379646D01*
X77963456Y-55379646D02*
X77630123Y-55379646D01*
X78820599Y-54903456D02*
X79011075Y-54903456D01*
X79011075Y-54903456D02*
X79106313Y-54951075D01*
X79106313Y-54951075D02*
X79201551Y-55046313D01*
X79201551Y-55046313D02*
X79249170Y-55236789D01*
X79249170Y-55236789D02*
X79249170Y-55570122D01*
X79249170Y-55570122D02*
X79201551Y-55760598D01*
X79201551Y-55760598D02*
X79106313Y-55855837D01*
X79106313Y-55855837D02*
X79011075Y-55903456D01*
X79011075Y-55903456D02*
X78820599Y-55903456D01*
X78820599Y-55903456D02*
X78725361Y-55855837D01*
X78725361Y-55855837D02*
X78630123Y-55760598D01*
X78630123Y-55760598D02*
X78582504Y-55570122D01*
X78582504Y-55570122D02*
X78582504Y-55236789D01*
X78582504Y-55236789D02*
X78630123Y-55046313D01*
X78630123Y-55046313D02*
X78725361Y-54951075D01*
X78725361Y-54951075D02*
X78820599Y-54903456D01*
X79868218Y-54903456D02*
X80058694Y-54903456D01*
X80058694Y-54903456D02*
X80153932Y-54951075D01*
X80153932Y-54951075D02*
X80249170Y-55046313D01*
X80249170Y-55046313D02*
X80296789Y-55236789D01*
X80296789Y-55236789D02*
X80296789Y-55570122D01*
X80296789Y-55570122D02*
X80249170Y-55760598D01*
X80249170Y-55760598D02*
X80153932Y-55855837D01*
X80153932Y-55855837D02*
X80058694Y-55903456D01*
X80058694Y-55903456D02*
X79868218Y-55903456D01*
X79868218Y-55903456D02*
X79772980Y-55855837D01*
X79772980Y-55855837D02*
X79677742Y-55760598D01*
X79677742Y-55760598D02*
X79630123Y-55570122D01*
X79630123Y-55570122D02*
X79630123Y-55236789D01*
X79630123Y-55236789D02*
X79677742Y-55046313D01*
X79677742Y-55046313D02*
X79772980Y-54951075D01*
X79772980Y-54951075D02*
X79868218Y-54903456D01*
X80582504Y-54903456D02*
X81153932Y-54903456D01*
X80868218Y-55903456D02*
X80868218Y-54903456D01*
X66948448Y-56445849D02*
X67281781Y-56445849D01*
X67424638Y-56969659D02*
X66948448Y-56969659D01*
X66948448Y-56969659D02*
X66948448Y-55969659D01*
X66948448Y-55969659D02*
X67424638Y-55969659D01*
X67853210Y-56969659D02*
X67853210Y-55969659D01*
X67853210Y-55969659D02*
X68424638Y-56969659D01*
X68424638Y-56969659D02*
X68424638Y-55969659D01*
D11*
X40772892Y-116608294D02*
X40772892Y-113608294D01*
X40772892Y-113608294D02*
X41915749Y-113608294D01*
X41915749Y-113608294D02*
X42201464Y-113751151D01*
X42201464Y-113751151D02*
X42344321Y-113894008D01*
X42344321Y-113894008D02*
X42487178Y-114179722D01*
X42487178Y-114179722D02*
X42487178Y-114608294D01*
X42487178Y-114608294D02*
X42344321Y-114894008D01*
X42344321Y-114894008D02*
X42201464Y-115036865D01*
X42201464Y-115036865D02*
X41915749Y-115179722D01*
X41915749Y-115179722D02*
X40772892Y-115179722D01*
X45058607Y-116608294D02*
X45058607Y-115036865D01*
X45058607Y-115036865D02*
X44915749Y-114751151D01*
X44915749Y-114751151D02*
X44630035Y-114608294D01*
X44630035Y-114608294D02*
X44058607Y-114608294D01*
X44058607Y-114608294D02*
X43772892Y-114751151D01*
X45058607Y-116465437D02*
X44772892Y-116608294D01*
X44772892Y-116608294D02*
X44058607Y-116608294D01*
X44058607Y-116608294D02*
X43772892Y-116465437D01*
X43772892Y-116465437D02*
X43630035Y-116179722D01*
X43630035Y-116179722D02*
X43630035Y-115894008D01*
X43630035Y-115894008D02*
X43772892Y-115608294D01*
X43772892Y-115608294D02*
X44058607Y-115465437D01*
X44058607Y-115465437D02*
X44772892Y-115465437D01*
X44772892Y-115465437D02*
X45058607Y-115322579D01*
X46487178Y-114608294D02*
X46487178Y-116608294D01*
X46487178Y-114894008D02*
X46630035Y-114751151D01*
X46630035Y-114751151D02*
X46915750Y-114608294D01*
X46915750Y-114608294D02*
X47344321Y-114608294D01*
X47344321Y-114608294D02*
X47630035Y-114751151D01*
X47630035Y-114751151D02*
X47772893Y-115036865D01*
X47772893Y-115036865D02*
X47772893Y-116608294D01*
X50487179Y-116465437D02*
X50201464Y-116608294D01*
X50201464Y-116608294D02*
X49630036Y-116608294D01*
X49630036Y-116608294D02*
X49344321Y-116465437D01*
X49344321Y-116465437D02*
X49201464Y-116322579D01*
X49201464Y-116322579D02*
X49058607Y-116036865D01*
X49058607Y-116036865D02*
X49058607Y-115179722D01*
X49058607Y-115179722D02*
X49201464Y-114894008D01*
X49201464Y-114894008D02*
X49344321Y-114751151D01*
X49344321Y-114751151D02*
X49630036Y-114608294D01*
X49630036Y-114608294D02*
X50201464Y-114608294D01*
X50201464Y-114608294D02*
X50487179Y-114751151D01*
X53058608Y-116608294D02*
X53058608Y-115036865D01*
X53058608Y-115036865D02*
X52915750Y-114751151D01*
X52915750Y-114751151D02*
X52630036Y-114608294D01*
X52630036Y-114608294D02*
X52058608Y-114608294D01*
X52058608Y-114608294D02*
X51772893Y-114751151D01*
X53058608Y-116465437D02*
X52772893Y-116608294D01*
X52772893Y-116608294D02*
X52058608Y-116608294D01*
X52058608Y-116608294D02*
X51772893Y-116465437D01*
X51772893Y-116465437D02*
X51630036Y-116179722D01*
X51630036Y-116179722D02*
X51630036Y-115894008D01*
X51630036Y-115894008D02*
X51772893Y-115608294D01*
X51772893Y-115608294D02*
X52058608Y-115465437D01*
X52058608Y-115465437D02*
X52772893Y-115465437D01*
X52772893Y-115465437D02*
X53058608Y-115322579D01*
X54487179Y-116608294D02*
X54487179Y-113608294D01*
X54772894Y-115465437D02*
X55630036Y-116608294D01*
X55630036Y-114608294D02*
X54487179Y-115751151D01*
X58058607Y-116465437D02*
X57772893Y-116608294D01*
X57772893Y-116608294D02*
X57201465Y-116608294D01*
X57201465Y-116608294D02*
X56915750Y-116465437D01*
X56915750Y-116465437D02*
X56772893Y-116179722D01*
X56772893Y-116179722D02*
X56772893Y-115036865D01*
X56772893Y-115036865D02*
X56915750Y-114751151D01*
X56915750Y-114751151D02*
X57201465Y-114608294D01*
X57201465Y-114608294D02*
X57772893Y-114608294D01*
X57772893Y-114608294D02*
X58058607Y-114751151D01*
X58058607Y-114751151D02*
X58201465Y-115036865D01*
X58201465Y-115036865D02*
X58201465Y-115322579D01*
X58201465Y-115322579D02*
X56772893Y-115608294D01*
X63487179Y-116322579D02*
X63344322Y-116465437D01*
X63344322Y-116465437D02*
X62915750Y-116608294D01*
X62915750Y-116608294D02*
X62630036Y-116608294D01*
X62630036Y-116608294D02*
X62201465Y-116465437D01*
X62201465Y-116465437D02*
X61915750Y-116179722D01*
X61915750Y-116179722D02*
X61772893Y-115894008D01*
X61772893Y-115894008D02*
X61630036Y-115322579D01*
X61630036Y-115322579D02*
X61630036Y-114894008D01*
X61630036Y-114894008D02*
X61772893Y-114322579D01*
X61772893Y-114322579D02*
X61915750Y-114036865D01*
X61915750Y-114036865D02*
X62201465Y-113751151D01*
X62201465Y-113751151D02*
X62630036Y-113608294D01*
X62630036Y-113608294D02*
X62915750Y-113608294D01*
X62915750Y-113608294D02*
X63344322Y-113751151D01*
X63344322Y-113751151D02*
X63487179Y-113894008D01*
X64772893Y-116608294D02*
X64772893Y-113608294D01*
X64772893Y-113608294D02*
X66487179Y-116608294D01*
X66487179Y-116608294D02*
X66487179Y-113608294D01*
X69630036Y-116322579D02*
X69487179Y-116465437D01*
X69487179Y-116465437D02*
X69058607Y-116608294D01*
X69058607Y-116608294D02*
X68772893Y-116608294D01*
X68772893Y-116608294D02*
X68344322Y-116465437D01*
X68344322Y-116465437D02*
X68058607Y-116179722D01*
X68058607Y-116179722D02*
X67915750Y-115894008D01*
X67915750Y-115894008D02*
X67772893Y-115322579D01*
X67772893Y-115322579D02*
X67772893Y-114894008D01*
X67772893Y-114894008D02*
X67915750Y-114322579D01*
X67915750Y-114322579D02*
X68058607Y-114036865D01*
X68058607Y-114036865D02*
X68344322Y-113751151D01*
X68344322Y-113751151D02*
X68772893Y-113608294D01*
X68772893Y-113608294D02*
X69058607Y-113608294D01*
X69058607Y-113608294D02*
X69487179Y-113751151D01*
X69487179Y-113751151D02*
X69630036Y-113894008D01*
X72915750Y-114608294D02*
X73630036Y-116608294D01*
X73630036Y-116608294D02*
X74344321Y-114608294D01*
X75344321Y-113894008D02*
X75487178Y-113751151D01*
X75487178Y-113751151D02*
X75772893Y-113608294D01*
X75772893Y-113608294D02*
X76487178Y-113608294D01*
X76487178Y-113608294D02*
X76772893Y-113751151D01*
X76772893Y-113751151D02*
X76915750Y-113894008D01*
X76915750Y-113894008D02*
X77058607Y-114179722D01*
X77058607Y-114179722D02*
X77058607Y-114465437D01*
X77058607Y-114465437D02*
X76915750Y-114894008D01*
X76915750Y-114894008D02*
X75201464Y-116608294D01*
X75201464Y-116608294D02*
X77058607Y-116608294D01*
D10*
X29322504Y-93955837D02*
X29465361Y-94003456D01*
X29465361Y-94003456D02*
X29703456Y-94003456D01*
X29703456Y-94003456D02*
X29798694Y-93955837D01*
X29798694Y-93955837D02*
X29846313Y-93908217D01*
X29846313Y-93908217D02*
X29893932Y-93812979D01*
X29893932Y-93812979D02*
X29893932Y-93717741D01*
X29893932Y-93717741D02*
X29846313Y-93622503D01*
X29846313Y-93622503D02*
X29798694Y-93574884D01*
X29798694Y-93574884D02*
X29703456Y-93527265D01*
X29703456Y-93527265D02*
X29512980Y-93479646D01*
X29512980Y-93479646D02*
X29417742Y-93432027D01*
X29417742Y-93432027D02*
X29370123Y-93384408D01*
X29370123Y-93384408D02*
X29322504Y-93289170D01*
X29322504Y-93289170D02*
X29322504Y-93193932D01*
X29322504Y-93193932D02*
X29370123Y-93098694D01*
X29370123Y-93098694D02*
X29417742Y-93051075D01*
X29417742Y-93051075D02*
X29512980Y-93003456D01*
X29512980Y-93003456D02*
X29751075Y-93003456D01*
X29751075Y-93003456D02*
X29893932Y-93051075D01*
X30179647Y-93003456D02*
X30751075Y-93003456D01*
X30465361Y-94003456D02*
X30465361Y-93003456D01*
X29274885Y-85383456D02*
X29893932Y-85383456D01*
X29893932Y-85383456D02*
X29560599Y-85764408D01*
X29560599Y-85764408D02*
X29703456Y-85764408D01*
X29703456Y-85764408D02*
X29798694Y-85812027D01*
X29798694Y-85812027D02*
X29846313Y-85859646D01*
X29846313Y-85859646D02*
X29893932Y-85954884D01*
X29893932Y-85954884D02*
X29893932Y-86192979D01*
X29893932Y-86192979D02*
X29846313Y-86288217D01*
X29846313Y-86288217D02*
X29798694Y-86335837D01*
X29798694Y-86335837D02*
X29703456Y-86383456D01*
X29703456Y-86383456D02*
X29417742Y-86383456D01*
X29417742Y-86383456D02*
X29322504Y-86335837D01*
X29322504Y-86335837D02*
X29274885Y-86288217D01*
X30179647Y-85383456D02*
X30512980Y-86383456D01*
X30512980Y-86383456D02*
X30846313Y-85383456D01*
X29846313Y-89193456D02*
X29370123Y-89193456D01*
X29370123Y-89193456D02*
X29322504Y-89669646D01*
X29322504Y-89669646D02*
X29370123Y-89622027D01*
X29370123Y-89622027D02*
X29465361Y-89574408D01*
X29465361Y-89574408D02*
X29703456Y-89574408D01*
X29703456Y-89574408D02*
X29798694Y-89622027D01*
X29798694Y-89622027D02*
X29846313Y-89669646D01*
X29846313Y-89669646D02*
X29893932Y-89764884D01*
X29893932Y-89764884D02*
X29893932Y-90002979D01*
X29893932Y-90002979D02*
X29846313Y-90098217D01*
X29846313Y-90098217D02*
X29798694Y-90145837D01*
X29798694Y-90145837D02*
X29703456Y-90193456D01*
X29703456Y-90193456D02*
X29465361Y-90193456D01*
X29465361Y-90193456D02*
X29370123Y-90145837D01*
X29370123Y-90145837D02*
X29322504Y-90098217D01*
X30179647Y-89193456D02*
X30512980Y-90193456D01*
X30512980Y-90193456D02*
X30846313Y-89193456D01*
X81392504Y-121022741D02*
X81868694Y-121022741D01*
X81297266Y-121308456D02*
X81630599Y-120308456D01*
X81630599Y-120308456D02*
X81963932Y-121308456D01*
X82297266Y-120308456D02*
X82297266Y-121117979D01*
X82297266Y-121117979D02*
X82344885Y-121213217D01*
X82344885Y-121213217D02*
X82392504Y-121260837D01*
X82392504Y-121260837D02*
X82487742Y-121308456D01*
X82487742Y-121308456D02*
X82678218Y-121308456D01*
X82678218Y-121308456D02*
X82773456Y-121260837D01*
X82773456Y-121260837D02*
X82821075Y-121213217D01*
X82821075Y-121213217D02*
X82868694Y-121117979D01*
X82868694Y-121117979D02*
X82868694Y-120308456D01*
X83249647Y-120308456D02*
X83916313Y-121308456D01*
X83916313Y-120308456D02*
X83249647Y-121308456D01*
X59850123Y-103163456D02*
X59850123Y-103972979D01*
X59850123Y-103972979D02*
X59897742Y-104068217D01*
X59897742Y-104068217D02*
X59945361Y-104115837D01*
X59945361Y-104115837D02*
X60040599Y-104163456D01*
X60040599Y-104163456D02*
X60231075Y-104163456D01*
X60231075Y-104163456D02*
X60326313Y-104115837D01*
X60326313Y-104115837D02*
X60373932Y-104068217D01*
X60373932Y-104068217D02*
X60421551Y-103972979D01*
X60421551Y-103972979D02*
X60421551Y-103163456D01*
X60897742Y-104163456D02*
X60897742Y-103163456D01*
X65565123Y-65428456D02*
X65565123Y-64428456D01*
X65565123Y-64428456D02*
X65898456Y-65142741D01*
X65898456Y-65142741D02*
X66231789Y-64428456D01*
X66231789Y-64428456D02*
X66231789Y-65428456D01*
X66850837Y-65428456D02*
X66755599Y-65380837D01*
X66755599Y-65380837D02*
X66707980Y-65333217D01*
X66707980Y-65333217D02*
X66660361Y-65237979D01*
X66660361Y-65237979D02*
X66660361Y-64952265D01*
X66660361Y-64952265D02*
X66707980Y-64857027D01*
X66707980Y-64857027D02*
X66755599Y-64809408D01*
X66755599Y-64809408D02*
X66850837Y-64761789D01*
X66850837Y-64761789D02*
X66993694Y-64761789D01*
X66993694Y-64761789D02*
X67088932Y-64809408D01*
X67088932Y-64809408D02*
X67136551Y-64857027D01*
X67136551Y-64857027D02*
X67184170Y-64952265D01*
X67184170Y-64952265D02*
X67184170Y-65237979D01*
X67184170Y-65237979D02*
X67136551Y-65333217D01*
X67136551Y-65333217D02*
X67088932Y-65380837D01*
X67088932Y-65380837D02*
X66993694Y-65428456D01*
X66993694Y-65428456D02*
X66850837Y-65428456D01*
X67469885Y-64761789D02*
X67850837Y-64761789D01*
X67612742Y-64428456D02*
X67612742Y-65285598D01*
X67612742Y-65285598D02*
X67660361Y-65380837D01*
X67660361Y-65380837D02*
X67755599Y-65428456D01*
X67755599Y-65428456D02*
X67850837Y-65428456D01*
X68327028Y-65428456D02*
X68231790Y-65380837D01*
X68231790Y-65380837D02*
X68184171Y-65333217D01*
X68184171Y-65333217D02*
X68136552Y-65237979D01*
X68136552Y-65237979D02*
X68136552Y-64952265D01*
X68136552Y-64952265D02*
X68184171Y-64857027D01*
X68184171Y-64857027D02*
X68231790Y-64809408D01*
X68231790Y-64809408D02*
X68327028Y-64761789D01*
X68327028Y-64761789D02*
X68469885Y-64761789D01*
X68469885Y-64761789D02*
X68565123Y-64809408D01*
X68565123Y-64809408D02*
X68612742Y-64857027D01*
X68612742Y-64857027D02*
X68660361Y-64952265D01*
X68660361Y-64952265D02*
X68660361Y-65237979D01*
X68660361Y-65237979D02*
X68612742Y-65333217D01*
X68612742Y-65333217D02*
X68565123Y-65380837D01*
X68565123Y-65380837D02*
X68469885Y-65428456D01*
X68469885Y-65428456D02*
X68327028Y-65428456D01*
X69088933Y-65428456D02*
X69088933Y-64761789D01*
X69088933Y-64952265D02*
X69136552Y-64857027D01*
X69136552Y-64857027D02*
X69184171Y-64809408D01*
X69184171Y-64809408D02*
X69279409Y-64761789D01*
X69279409Y-64761789D02*
X69374647Y-64761789D01*
X71041314Y-65333217D02*
X70993695Y-65380837D01*
X70993695Y-65380837D02*
X70850838Y-65428456D01*
X70850838Y-65428456D02*
X70755600Y-65428456D01*
X70755600Y-65428456D02*
X70612743Y-65380837D01*
X70612743Y-65380837D02*
X70517505Y-65285598D01*
X70517505Y-65285598D02*
X70469886Y-65190360D01*
X70469886Y-65190360D02*
X70422267Y-64999884D01*
X70422267Y-64999884D02*
X70422267Y-64857027D01*
X70422267Y-64857027D02*
X70469886Y-64666551D01*
X70469886Y-64666551D02*
X70517505Y-64571313D01*
X70517505Y-64571313D02*
X70612743Y-64476075D01*
X70612743Y-64476075D02*
X70755600Y-64428456D01*
X70755600Y-64428456D02*
X70850838Y-64428456D01*
X70850838Y-64428456D02*
X70993695Y-64476075D01*
X70993695Y-64476075D02*
X71041314Y-64523694D01*
X71612743Y-65428456D02*
X71517505Y-65380837D01*
X71517505Y-65380837D02*
X71469886Y-65333217D01*
X71469886Y-65333217D02*
X71422267Y-65237979D01*
X71422267Y-65237979D02*
X71422267Y-64952265D01*
X71422267Y-64952265D02*
X71469886Y-64857027D01*
X71469886Y-64857027D02*
X71517505Y-64809408D01*
X71517505Y-64809408D02*
X71612743Y-64761789D01*
X71612743Y-64761789D02*
X71755600Y-64761789D01*
X71755600Y-64761789D02*
X71850838Y-64809408D01*
X71850838Y-64809408D02*
X71898457Y-64857027D01*
X71898457Y-64857027D02*
X71946076Y-64952265D01*
X71946076Y-64952265D02*
X71946076Y-65237979D01*
X71946076Y-65237979D02*
X71898457Y-65333217D01*
X71898457Y-65333217D02*
X71850838Y-65380837D01*
X71850838Y-65380837D02*
X71755600Y-65428456D01*
X71755600Y-65428456D02*
X71612743Y-65428456D01*
X72374648Y-64761789D02*
X72374648Y-65428456D01*
X72374648Y-64857027D02*
X72422267Y-64809408D01*
X72422267Y-64809408D02*
X72517505Y-64761789D01*
X72517505Y-64761789D02*
X72660362Y-64761789D01*
X72660362Y-64761789D02*
X72755600Y-64809408D01*
X72755600Y-64809408D02*
X72803219Y-64904646D01*
X72803219Y-64904646D02*
X72803219Y-65428456D01*
X73136553Y-64761789D02*
X73517505Y-64761789D01*
X73279410Y-64428456D02*
X73279410Y-65285598D01*
X73279410Y-65285598D02*
X73327029Y-65380837D01*
X73327029Y-65380837D02*
X73422267Y-65428456D01*
X73422267Y-65428456D02*
X73517505Y-65428456D01*
X73850839Y-65428456D02*
X73850839Y-64761789D01*
X73850839Y-64952265D02*
X73898458Y-64857027D01*
X73898458Y-64857027D02*
X73946077Y-64809408D01*
X73946077Y-64809408D02*
X74041315Y-64761789D01*
X74041315Y-64761789D02*
X74136553Y-64761789D01*
X74612744Y-65428456D02*
X74517506Y-65380837D01*
X74517506Y-65380837D02*
X74469887Y-65333217D01*
X74469887Y-65333217D02*
X74422268Y-65237979D01*
X74422268Y-65237979D02*
X74422268Y-64952265D01*
X74422268Y-64952265D02*
X74469887Y-64857027D01*
X74469887Y-64857027D02*
X74517506Y-64809408D01*
X74517506Y-64809408D02*
X74612744Y-64761789D01*
X74612744Y-64761789D02*
X74755601Y-64761789D01*
X74755601Y-64761789D02*
X74850839Y-64809408D01*
X74850839Y-64809408D02*
X74898458Y-64857027D01*
X74898458Y-64857027D02*
X74946077Y-64952265D01*
X74946077Y-64952265D02*
X74946077Y-65237979D01*
X74946077Y-65237979D02*
X74898458Y-65333217D01*
X74898458Y-65333217D02*
X74850839Y-65380837D01*
X74850839Y-65380837D02*
X74755601Y-65428456D01*
X74755601Y-65428456D02*
X74612744Y-65428456D01*
X75517506Y-65428456D02*
X75422268Y-65380837D01*
X75422268Y-65380837D02*
X75374649Y-65285598D01*
X75374649Y-65285598D02*
X75374649Y-64428456D01*
X30005123Y-73318456D02*
X30005123Y-74127979D01*
X30005123Y-74127979D02*
X30052742Y-74223217D01*
X30052742Y-74223217D02*
X30100361Y-74270837D01*
X30100361Y-74270837D02*
X30195599Y-74318456D01*
X30195599Y-74318456D02*
X30386075Y-74318456D01*
X30386075Y-74318456D02*
X30481313Y-74270837D01*
X30481313Y-74270837D02*
X30528932Y-74223217D01*
X30528932Y-74223217D02*
X30576551Y-74127979D01*
X30576551Y-74127979D02*
X30576551Y-73318456D01*
X31005123Y-74270837D02*
X31147980Y-74318456D01*
X31147980Y-74318456D02*
X31386075Y-74318456D01*
X31386075Y-74318456D02*
X31481313Y-74270837D01*
X31481313Y-74270837D02*
X31528932Y-74223217D01*
X31528932Y-74223217D02*
X31576551Y-74127979D01*
X31576551Y-74127979D02*
X31576551Y-74032741D01*
X31576551Y-74032741D02*
X31528932Y-73937503D01*
X31528932Y-73937503D02*
X31481313Y-73889884D01*
X31481313Y-73889884D02*
X31386075Y-73842265D01*
X31386075Y-73842265D02*
X31195599Y-73794646D01*
X31195599Y-73794646D02*
X31100361Y-73747027D01*
X31100361Y-73747027D02*
X31052742Y-73699408D01*
X31052742Y-73699408D02*
X31005123Y-73604170D01*
X31005123Y-73604170D02*
X31005123Y-73508932D01*
X31005123Y-73508932D02*
X31052742Y-73413694D01*
X31052742Y-73413694D02*
X31100361Y-73366075D01*
X31100361Y-73366075D02*
X31195599Y-73318456D01*
X31195599Y-73318456D02*
X31433694Y-73318456D01*
X31433694Y-73318456D02*
X31576551Y-73366075D01*
X32338456Y-73794646D02*
X32481313Y-73842265D01*
X32481313Y-73842265D02*
X32528932Y-73889884D01*
X32528932Y-73889884D02*
X32576551Y-73985122D01*
X32576551Y-73985122D02*
X32576551Y-74127979D01*
X32576551Y-74127979D02*
X32528932Y-74223217D01*
X32528932Y-74223217D02*
X32481313Y-74270837D01*
X32481313Y-74270837D02*
X32386075Y-74318456D01*
X32386075Y-74318456D02*
X32005123Y-74318456D01*
X32005123Y-74318456D02*
X32005123Y-73318456D01*
X32005123Y-73318456D02*
X32338456Y-73318456D01*
X32338456Y-73318456D02*
X32433694Y-73366075D01*
X32433694Y-73366075D02*
X32481313Y-73413694D01*
X32481313Y-73413694D02*
X32528932Y-73508932D01*
X32528932Y-73508932D02*
X32528932Y-73604170D01*
X32528932Y-73604170D02*
X32481313Y-73699408D01*
X32481313Y-73699408D02*
X32433694Y-73747027D01*
X32433694Y-73747027D02*
X32338456Y-73794646D01*
X32338456Y-73794646D02*
X32005123Y-73794646D01*
X33767028Y-74318456D02*
X33767028Y-73318456D01*
X33767028Y-73318456D02*
X34147980Y-73318456D01*
X34147980Y-73318456D02*
X34243218Y-73366075D01*
X34243218Y-73366075D02*
X34290837Y-73413694D01*
X34290837Y-73413694D02*
X34338456Y-73508932D01*
X34338456Y-73508932D02*
X34338456Y-73651789D01*
X34338456Y-73651789D02*
X34290837Y-73747027D01*
X34290837Y-73747027D02*
X34243218Y-73794646D01*
X34243218Y-73794646D02*
X34147980Y-73842265D01*
X34147980Y-73842265D02*
X33767028Y-73842265D01*
X34909885Y-74318456D02*
X34814647Y-74270837D01*
X34814647Y-74270837D02*
X34767028Y-74223217D01*
X34767028Y-74223217D02*
X34719409Y-74127979D01*
X34719409Y-74127979D02*
X34719409Y-73842265D01*
X34719409Y-73842265D02*
X34767028Y-73747027D01*
X34767028Y-73747027D02*
X34814647Y-73699408D01*
X34814647Y-73699408D02*
X34909885Y-73651789D01*
X34909885Y-73651789D02*
X35052742Y-73651789D01*
X35052742Y-73651789D02*
X35147980Y-73699408D01*
X35147980Y-73699408D02*
X35195599Y-73747027D01*
X35195599Y-73747027D02*
X35243218Y-73842265D01*
X35243218Y-73842265D02*
X35243218Y-74127979D01*
X35243218Y-74127979D02*
X35195599Y-74223217D01*
X35195599Y-74223217D02*
X35147980Y-74270837D01*
X35147980Y-74270837D02*
X35052742Y-74318456D01*
X35052742Y-74318456D02*
X34909885Y-74318456D01*
X35576552Y-73651789D02*
X35767028Y-74318456D01*
X35767028Y-74318456D02*
X35957504Y-73842265D01*
X35957504Y-73842265D02*
X36147980Y-74318456D01*
X36147980Y-74318456D02*
X36338456Y-73651789D01*
X30005123Y-66174646D02*
X30338456Y-66174646D01*
X30481313Y-66698456D02*
X30005123Y-66698456D01*
X30005123Y-66698456D02*
X30005123Y-65698456D01*
X30005123Y-65698456D02*
X30481313Y-65698456D01*
X30814647Y-66698456D02*
X31338456Y-66031789D01*
X30814647Y-66031789D02*
X31338456Y-66698456D01*
X31576552Y-66031789D02*
X31957504Y-66031789D01*
X31719409Y-65698456D02*
X31719409Y-66555598D01*
X31719409Y-66555598D02*
X31767028Y-66650837D01*
X31767028Y-66650837D02*
X31862266Y-66698456D01*
X31862266Y-66698456D02*
X31957504Y-66698456D01*
X33052743Y-66698456D02*
X33052743Y-65698456D01*
X33052743Y-65698456D02*
X33433695Y-65698456D01*
X33433695Y-65698456D02*
X33528933Y-65746075D01*
X33528933Y-65746075D02*
X33576552Y-65793694D01*
X33576552Y-65793694D02*
X33624171Y-65888932D01*
X33624171Y-65888932D02*
X33624171Y-66031789D01*
X33624171Y-66031789D02*
X33576552Y-66127027D01*
X33576552Y-66127027D02*
X33528933Y-66174646D01*
X33528933Y-66174646D02*
X33433695Y-66222265D01*
X33433695Y-66222265D02*
X33052743Y-66222265D01*
X34195600Y-66698456D02*
X34100362Y-66650837D01*
X34100362Y-66650837D02*
X34052743Y-66603217D01*
X34052743Y-66603217D02*
X34005124Y-66507979D01*
X34005124Y-66507979D02*
X34005124Y-66222265D01*
X34005124Y-66222265D02*
X34052743Y-66127027D01*
X34052743Y-66127027D02*
X34100362Y-66079408D01*
X34100362Y-66079408D02*
X34195600Y-66031789D01*
X34195600Y-66031789D02*
X34338457Y-66031789D01*
X34338457Y-66031789D02*
X34433695Y-66079408D01*
X34433695Y-66079408D02*
X34481314Y-66127027D01*
X34481314Y-66127027D02*
X34528933Y-66222265D01*
X34528933Y-66222265D02*
X34528933Y-66507979D01*
X34528933Y-66507979D02*
X34481314Y-66603217D01*
X34481314Y-66603217D02*
X34433695Y-66650837D01*
X34433695Y-66650837D02*
X34338457Y-66698456D01*
X34338457Y-66698456D02*
X34195600Y-66698456D01*
X34862267Y-66031789D02*
X35052743Y-66698456D01*
X35052743Y-66698456D02*
X35243219Y-66222265D01*
X35243219Y-66222265D02*
X35433695Y-66698456D01*
X35433695Y-66698456D02*
X35624171Y-66031789D01*
X62278932Y-55586075D02*
X62183694Y-55538456D01*
X62183694Y-55538456D02*
X62040837Y-55538456D01*
X62040837Y-55538456D02*
X61897980Y-55586075D01*
X61897980Y-55586075D02*
X61802742Y-55681313D01*
X61802742Y-55681313D02*
X61755123Y-55776551D01*
X61755123Y-55776551D02*
X61707504Y-55967027D01*
X61707504Y-55967027D02*
X61707504Y-56109884D01*
X61707504Y-56109884D02*
X61755123Y-56300360D01*
X61755123Y-56300360D02*
X61802742Y-56395598D01*
X61802742Y-56395598D02*
X61897980Y-56490837D01*
X61897980Y-56490837D02*
X62040837Y-56538456D01*
X62040837Y-56538456D02*
X62136075Y-56538456D01*
X62136075Y-56538456D02*
X62278932Y-56490837D01*
X62278932Y-56490837D02*
X62326551Y-56443217D01*
X62326551Y-56443217D02*
X62326551Y-56109884D01*
X62326551Y-56109884D02*
X62136075Y-56109884D01*
X62755123Y-56538456D02*
X62755123Y-55538456D01*
X62755123Y-55538456D02*
X63326551Y-56538456D01*
X63326551Y-56538456D02*
X63326551Y-55538456D01*
X63802742Y-56538456D02*
X63802742Y-55538456D01*
X63802742Y-55538456D02*
X64040837Y-55538456D01*
X64040837Y-55538456D02*
X64183694Y-55586075D01*
X64183694Y-55586075D02*
X64278932Y-55681313D01*
X64278932Y-55681313D02*
X64326551Y-55776551D01*
X64326551Y-55776551D02*
X64374170Y-55967027D01*
X64374170Y-55967027D02*
X64374170Y-56109884D01*
X64374170Y-56109884D02*
X64326551Y-56300360D01*
X64326551Y-56300360D02*
X64278932Y-56395598D01*
X64278932Y-56395598D02*
X64183694Y-56490837D01*
X64183694Y-56490837D02*
X64040837Y-56538456D01*
X64040837Y-56538456D02*
X63802742Y-56538456D01*
X59103932Y-56538456D02*
X58532504Y-56538456D01*
X58818218Y-56538456D02*
X58818218Y-55538456D01*
X58818218Y-55538456D02*
X58722980Y-55681313D01*
X58722980Y-55681313D02*
X58627742Y-55776551D01*
X58627742Y-55776551D02*
X58532504Y-55824170D01*
X59484885Y-55633694D02*
X59532504Y-55586075D01*
X59532504Y-55586075D02*
X59627742Y-55538456D01*
X59627742Y-55538456D02*
X59865837Y-55538456D01*
X59865837Y-55538456D02*
X59961075Y-55586075D01*
X59961075Y-55586075D02*
X60008694Y-55633694D01*
X60008694Y-55633694D02*
X60056313Y-55728932D01*
X60056313Y-55728932D02*
X60056313Y-55824170D01*
X60056313Y-55824170D02*
X60008694Y-55967027D01*
X60008694Y-55967027D02*
X59437266Y-56538456D01*
X59437266Y-56538456D02*
X60056313Y-56538456D01*
X60342028Y-55538456D02*
X60675361Y-56538456D01*
X60675361Y-56538456D02*
X61008694Y-55538456D01*
D12*
X74048144Y-94895856D02*
X74048144Y-93895856D01*
X74048144Y-93895856D02*
X74286239Y-93895856D01*
X74286239Y-93895856D02*
X74429096Y-93943475D01*
X74429096Y-93943475D02*
X74524334Y-94038713D01*
X74524334Y-94038713D02*
X74571953Y-94133951D01*
X74571953Y-94133951D02*
X74619572Y-94324427D01*
X74619572Y-94324427D02*
X74619572Y-94467284D01*
X74619572Y-94467284D02*
X74571953Y-94657760D01*
X74571953Y-94657760D02*
X74524334Y-94752998D01*
X74524334Y-94752998D02*
X74429096Y-94848237D01*
X74429096Y-94848237D02*
X74286239Y-94895856D01*
X74286239Y-94895856D02*
X74048144Y-94895856D01*
X75476715Y-93895856D02*
X75286239Y-93895856D01*
X75286239Y-93895856D02*
X75191001Y-93943475D01*
X75191001Y-93943475D02*
X75143382Y-93991094D01*
X75143382Y-93991094D02*
X75048144Y-94133951D01*
X75048144Y-94133951D02*
X75000525Y-94324427D01*
X75000525Y-94324427D02*
X75000525Y-94705379D01*
X75000525Y-94705379D02*
X75048144Y-94800617D01*
X75048144Y-94800617D02*
X75095763Y-94848237D01*
X75095763Y-94848237D02*
X75191001Y-94895856D01*
X75191001Y-94895856D02*
X75381477Y-94895856D01*
X75381477Y-94895856D02*
X75476715Y-94848237D01*
X75476715Y-94848237D02*
X75524334Y-94800617D01*
X75524334Y-94800617D02*
X75571953Y-94705379D01*
X75571953Y-94705379D02*
X75571953Y-94467284D01*
X75571953Y-94467284D02*
X75524334Y-94372046D01*
X75524334Y-94372046D02*
X75476715Y-94324427D01*
X75476715Y-94324427D02*
X75381477Y-94276808D01*
X75381477Y-94276808D02*
X75191001Y-94276808D01*
X75191001Y-94276808D02*
X75095763Y-94324427D01*
X75095763Y-94324427D02*
X75048144Y-94372046D01*
X75048144Y-94372046D02*
X75000525Y-94467284D01*
X70921953Y-96795856D02*
X70350525Y-96795856D01*
X70636239Y-96795856D02*
X70636239Y-95795856D01*
X70636239Y-95795856D02*
X70541001Y-95938713D01*
X70541001Y-95938713D02*
X70445763Y-96033951D01*
X70445763Y-96033951D02*
X70350525Y-96081570D01*
X36352905Y-124065856D02*
X36352905Y-124780141D01*
X36352905Y-124780141D02*
X36305286Y-124922998D01*
X36305286Y-124922998D02*
X36210048Y-125018237D01*
X36210048Y-125018237D02*
X36067191Y-125065856D01*
X36067191Y-125065856D02*
X35971953Y-125065856D01*
X37352905Y-125065856D02*
X36781477Y-125065856D01*
X37067191Y-125065856D02*
X37067191Y-124065856D01*
X37067191Y-124065856D02*
X36971953Y-124208713D01*
X36971953Y-124208713D02*
X36876715Y-124303951D01*
X36876715Y-124303951D02*
X36781477Y-124351570D01*
X72817906Y-51993237D02*
X72960763Y-52040856D01*
X72960763Y-52040856D02*
X73198858Y-52040856D01*
X73198858Y-52040856D02*
X73294096Y-51993237D01*
X73294096Y-51993237D02*
X73341715Y-51945617D01*
X73341715Y-51945617D02*
X73389334Y-51850379D01*
X73389334Y-51850379D02*
X73389334Y-51755141D01*
X73389334Y-51755141D02*
X73341715Y-51659903D01*
X73341715Y-51659903D02*
X73294096Y-51612284D01*
X73294096Y-51612284D02*
X73198858Y-51564665D01*
X73198858Y-51564665D02*
X73008382Y-51517046D01*
X73008382Y-51517046D02*
X72913144Y-51469427D01*
X72913144Y-51469427D02*
X72865525Y-51421808D01*
X72865525Y-51421808D02*
X72817906Y-51326570D01*
X72817906Y-51326570D02*
X72817906Y-51231332D01*
X72817906Y-51231332D02*
X72865525Y-51136094D01*
X72865525Y-51136094D02*
X72913144Y-51088475D01*
X72913144Y-51088475D02*
X73008382Y-51040856D01*
X73008382Y-51040856D02*
X73246477Y-51040856D01*
X73246477Y-51040856D02*
X73389334Y-51088475D01*
X73722668Y-51040856D02*
X73960763Y-52040856D01*
X73960763Y-52040856D02*
X74151239Y-51326570D01*
X74151239Y-51326570D02*
X74341715Y-52040856D01*
X74341715Y-52040856D02*
X74579811Y-51040856D01*
X74913144Y-51136094D02*
X74960763Y-51088475D01*
X74960763Y-51088475D02*
X75056001Y-51040856D01*
X75056001Y-51040856D02*
X75294096Y-51040856D01*
X75294096Y-51040856D02*
X75389334Y-51088475D01*
X75389334Y-51088475D02*
X75436953Y-51136094D01*
X75436953Y-51136094D02*
X75484572Y-51231332D01*
X75484572Y-51231332D02*
X75484572Y-51326570D01*
X75484572Y-51326570D02*
X75436953Y-51469427D01*
X75436953Y-51469427D02*
X74865525Y-52040856D01*
X74865525Y-52040856D02*
X75484572Y-52040856D01*
X71701058Y-53491036D02*
X71939153Y-53491036D01*
X71843915Y-53729131D02*
X71939153Y-53491036D01*
X71939153Y-53491036D02*
X71843915Y-53252941D01*
X72129629Y-53633893D02*
X71939153Y-53491036D01*
X71939153Y-53491036D02*
X72129629Y-53348179D01*
X71701058Y-52221036D02*
X71939153Y-52221036D01*
X71843915Y-52459131D02*
X71939153Y-52221036D01*
X71939153Y-52221036D02*
X71843915Y-51982941D01*
X72129629Y-52363893D02*
X71939153Y-52221036D01*
X71939153Y-52221036D02*
X72129629Y-52078179D01*
X45930521Y-96003706D02*
X45597188Y-95527515D01*
X45359093Y-96003706D02*
X45359093Y-95003706D01*
X45359093Y-95003706D02*
X45740045Y-95003706D01*
X45740045Y-95003706D02*
X45835283Y-95051325D01*
X45835283Y-95051325D02*
X45882902Y-95098944D01*
X45882902Y-95098944D02*
X45930521Y-95194182D01*
X45930521Y-95194182D02*
X45930521Y-95337039D01*
X45930521Y-95337039D02*
X45882902Y-95432277D01*
X45882902Y-95432277D02*
X45835283Y-95479896D01*
X45835283Y-95479896D02*
X45740045Y-95527515D01*
X45740045Y-95527515D02*
X45359093Y-95527515D01*
X46882902Y-96003706D02*
X46311474Y-96003706D01*
X46597188Y-96003706D02*
X46597188Y-95003706D01*
X46597188Y-95003706D02*
X46501950Y-95146563D01*
X46501950Y-95146563D02*
X46406712Y-95241801D01*
X46406712Y-95241801D02*
X46311474Y-95289420D01*
X47835283Y-96003706D02*
X47263855Y-96003706D01*
X47549569Y-96003706D02*
X47549569Y-95003706D01*
X47549569Y-95003706D02*
X47454331Y-95146563D01*
X47454331Y-95146563D02*
X47359093Y-95241801D01*
X47359093Y-95241801D02*
X47263855Y-95289420D01*
X39853381Y-80615856D02*
X39520048Y-80139665D01*
X39281953Y-80615856D02*
X39281953Y-79615856D01*
X39281953Y-79615856D02*
X39662905Y-79615856D01*
X39662905Y-79615856D02*
X39758143Y-79663475D01*
X39758143Y-79663475D02*
X39805762Y-79711094D01*
X39805762Y-79711094D02*
X39853381Y-79806332D01*
X39853381Y-79806332D02*
X39853381Y-79949189D01*
X39853381Y-79949189D02*
X39805762Y-80044427D01*
X39805762Y-80044427D02*
X39758143Y-80092046D01*
X39758143Y-80092046D02*
X39662905Y-80139665D01*
X39662905Y-80139665D02*
X39281953Y-80139665D01*
X40805762Y-80615856D02*
X40234334Y-80615856D01*
X40520048Y-80615856D02*
X40520048Y-79615856D01*
X40520048Y-79615856D02*
X40424810Y-79758713D01*
X40424810Y-79758713D02*
X40329572Y-79853951D01*
X40329572Y-79853951D02*
X40234334Y-79901570D01*
X41424810Y-79615856D02*
X41520048Y-79615856D01*
X41520048Y-79615856D02*
X41615286Y-79663475D01*
X41615286Y-79663475D02*
X41662905Y-79711094D01*
X41662905Y-79711094D02*
X41710524Y-79806332D01*
X41710524Y-79806332D02*
X41758143Y-79996808D01*
X41758143Y-79996808D02*
X41758143Y-80234903D01*
X41758143Y-80234903D02*
X41710524Y-80425379D01*
X41710524Y-80425379D02*
X41662905Y-80520617D01*
X41662905Y-80520617D02*
X41615286Y-80568237D01*
X41615286Y-80568237D02*
X41520048Y-80615856D01*
X41520048Y-80615856D02*
X41424810Y-80615856D01*
X41424810Y-80615856D02*
X41329572Y-80568237D01*
X41329572Y-80568237D02*
X41281953Y-80520617D01*
X41281953Y-80520617D02*
X41234334Y-80425379D01*
X41234334Y-80425379D02*
X41186715Y-80234903D01*
X41186715Y-80234903D02*
X41186715Y-79996808D01*
X41186715Y-79996808D02*
X41234334Y-79806332D01*
X41234334Y-79806332D02*
X41281953Y-79711094D01*
X41281953Y-79711094D02*
X41329572Y-79663475D01*
X41329572Y-79663475D02*
X41424810Y-79615856D01*
X66467906Y-51993237D02*
X66610763Y-52040856D01*
X66610763Y-52040856D02*
X66848858Y-52040856D01*
X66848858Y-52040856D02*
X66944096Y-51993237D01*
X66944096Y-51993237D02*
X66991715Y-51945617D01*
X66991715Y-51945617D02*
X67039334Y-51850379D01*
X67039334Y-51850379D02*
X67039334Y-51755141D01*
X67039334Y-51755141D02*
X66991715Y-51659903D01*
X66991715Y-51659903D02*
X66944096Y-51612284D01*
X66944096Y-51612284D02*
X66848858Y-51564665D01*
X66848858Y-51564665D02*
X66658382Y-51517046D01*
X66658382Y-51517046D02*
X66563144Y-51469427D01*
X66563144Y-51469427D02*
X66515525Y-51421808D01*
X66515525Y-51421808D02*
X66467906Y-51326570D01*
X66467906Y-51326570D02*
X66467906Y-51231332D01*
X66467906Y-51231332D02*
X66515525Y-51136094D01*
X66515525Y-51136094D02*
X66563144Y-51088475D01*
X66563144Y-51088475D02*
X66658382Y-51040856D01*
X66658382Y-51040856D02*
X66896477Y-51040856D01*
X66896477Y-51040856D02*
X67039334Y-51088475D01*
X67372668Y-51040856D02*
X67610763Y-52040856D01*
X67610763Y-52040856D02*
X67801239Y-51326570D01*
X67801239Y-51326570D02*
X67991715Y-52040856D01*
X67991715Y-52040856D02*
X68229811Y-51040856D01*
X69134572Y-52040856D02*
X68563144Y-52040856D01*
X68848858Y-52040856D02*
X68848858Y-51040856D01*
X68848858Y-51040856D02*
X68753620Y-51183713D01*
X68753620Y-51183713D02*
X68658382Y-51278951D01*
X68658382Y-51278951D02*
X68563144Y-51326570D01*
X65351058Y-53491036D02*
X65589153Y-53491036D01*
X65493915Y-53729131D02*
X65589153Y-53491036D01*
X65589153Y-53491036D02*
X65493915Y-53252941D01*
X65779629Y-53633893D02*
X65589153Y-53491036D01*
X65589153Y-53491036D02*
X65779629Y-53348179D01*
X65351058Y-52221036D02*
X65589153Y-52221036D01*
X65493915Y-52459131D02*
X65589153Y-52221036D01*
X65589153Y-52221036D02*
X65493915Y-51982941D01*
X65779629Y-52363893D02*
X65589153Y-52221036D01*
X65589153Y-52221036D02*
X65779629Y-52078179D01*
X46044572Y-88235856D02*
X45711239Y-87759665D01*
X45473144Y-88235856D02*
X45473144Y-87235856D01*
X45473144Y-87235856D02*
X45854096Y-87235856D01*
X45854096Y-87235856D02*
X45949334Y-87283475D01*
X45949334Y-87283475D02*
X45996953Y-87331094D01*
X45996953Y-87331094D02*
X46044572Y-87426332D01*
X46044572Y-87426332D02*
X46044572Y-87569189D01*
X46044572Y-87569189D02*
X45996953Y-87664427D01*
X45996953Y-87664427D02*
X45949334Y-87712046D01*
X45949334Y-87712046D02*
X45854096Y-87759665D01*
X45854096Y-87759665D02*
X45473144Y-87759665D01*
X46520763Y-88235856D02*
X46711239Y-88235856D01*
X46711239Y-88235856D02*
X46806477Y-88188237D01*
X46806477Y-88188237D02*
X46854096Y-88140617D01*
X46854096Y-88140617D02*
X46949334Y-87997760D01*
X46949334Y-87997760D02*
X46996953Y-87807284D01*
X46996953Y-87807284D02*
X46996953Y-87426332D01*
X46996953Y-87426332D02*
X46949334Y-87331094D01*
X46949334Y-87331094D02*
X46901715Y-87283475D01*
X46901715Y-87283475D02*
X46806477Y-87235856D01*
X46806477Y-87235856D02*
X46616001Y-87235856D01*
X46616001Y-87235856D02*
X46520763Y-87283475D01*
X46520763Y-87283475D02*
X46473144Y-87331094D01*
X46473144Y-87331094D02*
X46425525Y-87426332D01*
X46425525Y-87426332D02*
X46425525Y-87664427D01*
X46425525Y-87664427D02*
X46473144Y-87759665D01*
X46473144Y-87759665D02*
X46520763Y-87807284D01*
X46520763Y-87807284D02*
X46616001Y-87854903D01*
X46616001Y-87854903D02*
X46806477Y-87854903D01*
X46806477Y-87854903D02*
X46901715Y-87807284D01*
X46901715Y-87807284D02*
X46949334Y-87759665D01*
X46949334Y-87759665D02*
X46996953Y-87664427D01*
X34019334Y-52075856D02*
X34019334Y-52885379D01*
X34019334Y-52885379D02*
X34066953Y-52980617D01*
X34066953Y-52980617D02*
X34114572Y-53028237D01*
X34114572Y-53028237D02*
X34209810Y-53075856D01*
X34209810Y-53075856D02*
X34400286Y-53075856D01*
X34400286Y-53075856D02*
X34495524Y-53028237D01*
X34495524Y-53028237D02*
X34543143Y-52980617D01*
X34543143Y-52980617D02*
X34590762Y-52885379D01*
X34590762Y-52885379D02*
X34590762Y-52075856D01*
X34971715Y-52075856D02*
X35590762Y-52075856D01*
X35590762Y-52075856D02*
X35257429Y-52456808D01*
X35257429Y-52456808D02*
X35400286Y-52456808D01*
X35400286Y-52456808D02*
X35495524Y-52504427D01*
X35495524Y-52504427D02*
X35543143Y-52552046D01*
X35543143Y-52552046D02*
X35590762Y-52647284D01*
X35590762Y-52647284D02*
X35590762Y-52885379D01*
X35590762Y-52885379D02*
X35543143Y-52980617D01*
X35543143Y-52980617D02*
X35495524Y-53028237D01*
X35495524Y-53028237D02*
X35400286Y-53075856D01*
X35400286Y-53075856D02*
X35114572Y-53075856D01*
X35114572Y-53075856D02*
X35019334Y-53028237D01*
X35019334Y-53028237D02*
X34971715Y-52980617D01*
X56821050Y-64019332D02*
X56821050Y-64733617D01*
X56821050Y-64733617D02*
X56773431Y-64876474D01*
X56773431Y-64876474D02*
X56678193Y-64971713D01*
X56678193Y-64971713D02*
X56535336Y-65019332D01*
X56535336Y-65019332D02*
X56440098Y-65019332D01*
X57725812Y-64352665D02*
X57725812Y-65019332D01*
X57487717Y-63971713D02*
X57249622Y-64685998D01*
X57249622Y-64685998D02*
X57868669Y-64685998D01*
X32773144Y-92200762D02*
X32773144Y-91200762D01*
X32773144Y-91200762D02*
X33011239Y-91200762D01*
X33011239Y-91200762D02*
X33154096Y-91248381D01*
X33154096Y-91248381D02*
X33249334Y-91343619D01*
X33249334Y-91343619D02*
X33296953Y-91438857D01*
X33296953Y-91438857D02*
X33344572Y-91629333D01*
X33344572Y-91629333D02*
X33344572Y-91772190D01*
X33344572Y-91772190D02*
X33296953Y-91962666D01*
X33296953Y-91962666D02*
X33249334Y-92057904D01*
X33249334Y-92057904D02*
X33154096Y-92153143D01*
X33154096Y-92153143D02*
X33011239Y-92200762D01*
X33011239Y-92200762D02*
X32773144Y-92200762D01*
X34249334Y-91200762D02*
X33773144Y-91200762D01*
X33773144Y-91200762D02*
X33725525Y-91676952D01*
X33725525Y-91676952D02*
X33773144Y-91629333D01*
X33773144Y-91629333D02*
X33868382Y-91581714D01*
X33868382Y-91581714D02*
X34106477Y-91581714D01*
X34106477Y-91581714D02*
X34201715Y-91629333D01*
X34201715Y-91629333D02*
X34249334Y-91676952D01*
X34249334Y-91676952D02*
X34296953Y-91772190D01*
X34296953Y-91772190D02*
X34296953Y-92010285D01*
X34296953Y-92010285D02*
X34249334Y-92105523D01*
X34249334Y-92105523D02*
X34201715Y-92153143D01*
X34201715Y-92153143D02*
X34106477Y-92200762D01*
X34106477Y-92200762D02*
X33868382Y-92200762D01*
X33868382Y-92200762D02*
X33773144Y-92153143D01*
X33773144Y-92153143D02*
X33725525Y-92105523D01*
X49687905Y-103110856D02*
X49687905Y-103825141D01*
X49687905Y-103825141D02*
X49640286Y-103967998D01*
X49640286Y-103967998D02*
X49545048Y-104063237D01*
X49545048Y-104063237D02*
X49402191Y-104110856D01*
X49402191Y-104110856D02*
X49306953Y-104110856D01*
X50640286Y-103110856D02*
X50164096Y-103110856D01*
X50164096Y-103110856D02*
X50116477Y-103587046D01*
X50116477Y-103587046D02*
X50164096Y-103539427D01*
X50164096Y-103539427D02*
X50259334Y-103491808D01*
X50259334Y-103491808D02*
X50497429Y-103491808D01*
X50497429Y-103491808D02*
X50592667Y-103539427D01*
X50592667Y-103539427D02*
X50640286Y-103587046D01*
X50640286Y-103587046D02*
X50687905Y-103682284D01*
X50687905Y-103682284D02*
X50687905Y-103920379D01*
X50687905Y-103920379D02*
X50640286Y-104015617D01*
X50640286Y-104015617D02*
X50592667Y-104063237D01*
X50592667Y-104063237D02*
X50497429Y-104110856D01*
X50497429Y-104110856D02*
X50259334Y-104110856D01*
X50259334Y-104110856D02*
X50164096Y-104063237D01*
X50164096Y-104063237D02*
X50116477Y-104015617D01*
X65598018Y-69455856D02*
X65598018Y-70265379D01*
X65598018Y-70265379D02*
X65645637Y-70360617D01*
X65645637Y-70360617D02*
X65693256Y-70408237D01*
X65693256Y-70408237D02*
X65788494Y-70455856D01*
X65788494Y-70455856D02*
X65978970Y-70455856D01*
X65978970Y-70455856D02*
X66074208Y-70408237D01*
X66074208Y-70408237D02*
X66121827Y-70360617D01*
X66121827Y-70360617D02*
X66169446Y-70265379D01*
X66169446Y-70265379D02*
X66169446Y-69455856D01*
X66598018Y-69551094D02*
X66645637Y-69503475D01*
X66645637Y-69503475D02*
X66740875Y-69455856D01*
X66740875Y-69455856D02*
X66978970Y-69455856D01*
X66978970Y-69455856D02*
X67074208Y-69503475D01*
X67074208Y-69503475D02*
X67121827Y-69551094D01*
X67121827Y-69551094D02*
X67169446Y-69646332D01*
X67169446Y-69646332D02*
X67169446Y-69741570D01*
X67169446Y-69741570D02*
X67121827Y-69884427D01*
X67121827Y-69884427D02*
X66550399Y-70455856D01*
X66550399Y-70455856D02*
X67169446Y-70455856D01*
X46044572Y-84330617D02*
X45996953Y-84378237D01*
X45996953Y-84378237D02*
X45854096Y-84425856D01*
X45854096Y-84425856D02*
X45758858Y-84425856D01*
X45758858Y-84425856D02*
X45616001Y-84378237D01*
X45616001Y-84378237D02*
X45520763Y-84282998D01*
X45520763Y-84282998D02*
X45473144Y-84187760D01*
X45473144Y-84187760D02*
X45425525Y-83997284D01*
X45425525Y-83997284D02*
X45425525Y-83854427D01*
X45425525Y-83854427D02*
X45473144Y-83663951D01*
X45473144Y-83663951D02*
X45520763Y-83568713D01*
X45520763Y-83568713D02*
X45616001Y-83473475D01*
X45616001Y-83473475D02*
X45758858Y-83425856D01*
X45758858Y-83425856D02*
X45854096Y-83425856D01*
X45854096Y-83425856D02*
X45996953Y-83473475D01*
X45996953Y-83473475D02*
X46044572Y-83521094D01*
X46996953Y-84425856D02*
X46425525Y-84425856D01*
X46711239Y-84425856D02*
X46711239Y-83425856D01*
X46711239Y-83425856D02*
X46616001Y-83568713D01*
X46616001Y-83568713D02*
X46520763Y-83663951D01*
X46520763Y-83663951D02*
X46425525Y-83711570D01*
X39694572Y-99795617D02*
X39646953Y-99843237D01*
X39646953Y-99843237D02*
X39504096Y-99890856D01*
X39504096Y-99890856D02*
X39408858Y-99890856D01*
X39408858Y-99890856D02*
X39266001Y-99843237D01*
X39266001Y-99843237D02*
X39170763Y-99747998D01*
X39170763Y-99747998D02*
X39123144Y-99652760D01*
X39123144Y-99652760D02*
X39075525Y-99462284D01*
X39075525Y-99462284D02*
X39075525Y-99319427D01*
X39075525Y-99319427D02*
X39123144Y-99128951D01*
X39123144Y-99128951D02*
X39170763Y-99033713D01*
X39170763Y-99033713D02*
X39266001Y-98938475D01*
X39266001Y-98938475D02*
X39408858Y-98890856D01*
X39408858Y-98890856D02*
X39504096Y-98890856D01*
X39504096Y-98890856D02*
X39646953Y-98938475D01*
X39646953Y-98938475D02*
X39694572Y-98986094D01*
X40075525Y-98986094D02*
X40123144Y-98938475D01*
X40123144Y-98938475D02*
X40218382Y-98890856D01*
X40218382Y-98890856D02*
X40456477Y-98890856D01*
X40456477Y-98890856D02*
X40551715Y-98938475D01*
X40551715Y-98938475D02*
X40599334Y-98986094D01*
X40599334Y-98986094D02*
X40646953Y-99081332D01*
X40646953Y-99081332D02*
X40646953Y-99176570D01*
X40646953Y-99176570D02*
X40599334Y-99319427D01*
X40599334Y-99319427D02*
X40027906Y-99890856D01*
X40027906Y-99890856D02*
X40646953Y-99890856D01*
X44396058Y-74967941D02*
X45205581Y-74967941D01*
X45205581Y-74967941D02*
X45300819Y-74920322D01*
X45300819Y-74920322D02*
X45348439Y-74872703D01*
X45348439Y-74872703D02*
X45396058Y-74777465D01*
X45396058Y-74777465D02*
X45396058Y-74586989D01*
X45396058Y-74586989D02*
X45348439Y-74491751D01*
X45348439Y-74491751D02*
X45300819Y-74444132D01*
X45300819Y-74444132D02*
X45205581Y-74396513D01*
X45205581Y-74396513D02*
X44396058Y-74396513D01*
X45396058Y-73396513D02*
X45396058Y-73967941D01*
X45396058Y-73682227D02*
X44396058Y-73682227D01*
X44396058Y-73682227D02*
X44538915Y-73777465D01*
X44538915Y-73777465D02*
X44634153Y-73872703D01*
X44634153Y-73872703D02*
X44681772Y-73967941D01*
X46044572Y-92045856D02*
X45711239Y-91569665D01*
X45473144Y-92045856D02*
X45473144Y-91045856D01*
X45473144Y-91045856D02*
X45854096Y-91045856D01*
X45854096Y-91045856D02*
X45949334Y-91093475D01*
X45949334Y-91093475D02*
X45996953Y-91141094D01*
X45996953Y-91141094D02*
X46044572Y-91236332D01*
X46044572Y-91236332D02*
X46044572Y-91379189D01*
X46044572Y-91379189D02*
X45996953Y-91474427D01*
X45996953Y-91474427D02*
X45949334Y-91522046D01*
X45949334Y-91522046D02*
X45854096Y-91569665D01*
X45854096Y-91569665D02*
X45473144Y-91569665D01*
X46901715Y-91045856D02*
X46711239Y-91045856D01*
X46711239Y-91045856D02*
X46616001Y-91093475D01*
X46616001Y-91093475D02*
X46568382Y-91141094D01*
X46568382Y-91141094D02*
X46473144Y-91283951D01*
X46473144Y-91283951D02*
X46425525Y-91474427D01*
X46425525Y-91474427D02*
X46425525Y-91855379D01*
X46425525Y-91855379D02*
X46473144Y-91950617D01*
X46473144Y-91950617D02*
X46520763Y-91998237D01*
X46520763Y-91998237D02*
X46616001Y-92045856D01*
X46616001Y-92045856D02*
X46806477Y-92045856D01*
X46806477Y-92045856D02*
X46901715Y-91998237D01*
X46901715Y-91998237D02*
X46949334Y-91950617D01*
X46949334Y-91950617D02*
X46996953Y-91855379D01*
X46996953Y-91855379D02*
X46996953Y-91617284D01*
X46996953Y-91617284D02*
X46949334Y-91522046D01*
X46949334Y-91522046D02*
X46901715Y-91474427D01*
X46901715Y-91474427D02*
X46806477Y-91426808D01*
X46806477Y-91426808D02*
X46616001Y-91426808D01*
X46616001Y-91426808D02*
X46520763Y-91474427D01*
X46520763Y-91474427D02*
X46473144Y-91522046D01*
X46473144Y-91522046D02*
X46425525Y-91617284D01*
X57307905Y-48500856D02*
X57307905Y-49215141D01*
X57307905Y-49215141D02*
X57260286Y-49357998D01*
X57260286Y-49357998D02*
X57165048Y-49453237D01*
X57165048Y-49453237D02*
X57022191Y-49500856D01*
X57022191Y-49500856D02*
X56926953Y-49500856D01*
X57688858Y-48500856D02*
X58307905Y-48500856D01*
X58307905Y-48500856D02*
X57974572Y-48881808D01*
X57974572Y-48881808D02*
X58117429Y-48881808D01*
X58117429Y-48881808D02*
X58212667Y-48929427D01*
X58212667Y-48929427D02*
X58260286Y-48977046D01*
X58260286Y-48977046D02*
X58307905Y-49072284D01*
X58307905Y-49072284D02*
X58307905Y-49310379D01*
X58307905Y-49310379D02*
X58260286Y-49405617D01*
X58260286Y-49405617D02*
X58212667Y-49453237D01*
X58212667Y-49453237D02*
X58117429Y-49500856D01*
X58117429Y-49500856D02*
X57831715Y-49500856D01*
X57831715Y-49500856D02*
X57736477Y-49453237D01*
X57736477Y-49453237D02*
X57688858Y-49405617D01*
X46044572Y-77060856D02*
X45711239Y-76584665D01*
X45473144Y-77060856D02*
X45473144Y-76060856D01*
X45473144Y-76060856D02*
X45854096Y-76060856D01*
X45854096Y-76060856D02*
X45949334Y-76108475D01*
X45949334Y-76108475D02*
X45996953Y-76156094D01*
X45996953Y-76156094D02*
X46044572Y-76251332D01*
X46044572Y-76251332D02*
X46044572Y-76394189D01*
X46044572Y-76394189D02*
X45996953Y-76489427D01*
X45996953Y-76489427D02*
X45949334Y-76537046D01*
X45949334Y-76537046D02*
X45854096Y-76584665D01*
X45854096Y-76584665D02*
X45473144Y-76584665D01*
X46901715Y-76394189D02*
X46901715Y-77060856D01*
X46663620Y-76013237D02*
X46425525Y-76727522D01*
X46425525Y-76727522D02*
X47044572Y-76727522D01*
X31503144Y-118715856D02*
X31503144Y-117715856D01*
X31503144Y-117715856D02*
X31741239Y-117715856D01*
X31741239Y-117715856D02*
X31884096Y-117763475D01*
X31884096Y-117763475D02*
X31979334Y-117858713D01*
X31979334Y-117858713D02*
X32026953Y-117953951D01*
X32026953Y-117953951D02*
X32074572Y-118144427D01*
X32074572Y-118144427D02*
X32074572Y-118287284D01*
X32074572Y-118287284D02*
X32026953Y-118477760D01*
X32026953Y-118477760D02*
X31979334Y-118572998D01*
X31979334Y-118572998D02*
X31884096Y-118668237D01*
X31884096Y-118668237D02*
X31741239Y-118715856D01*
X31741239Y-118715856D02*
X31503144Y-118715856D01*
X32931715Y-118049189D02*
X32931715Y-118715856D01*
X32693620Y-117668237D02*
X32455525Y-118382522D01*
X32455525Y-118382522D02*
X33074572Y-118382522D01*
X61324334Y-93585856D02*
X61324334Y-94395379D01*
X61324334Y-94395379D02*
X61371953Y-94490617D01*
X61371953Y-94490617D02*
X61419572Y-94538237D01*
X61419572Y-94538237D02*
X61514810Y-94585856D01*
X61514810Y-94585856D02*
X61705286Y-94585856D01*
X61705286Y-94585856D02*
X61800524Y-94538237D01*
X61800524Y-94538237D02*
X61848143Y-94490617D01*
X61848143Y-94490617D02*
X61895762Y-94395379D01*
X61895762Y-94395379D02*
X61895762Y-93585856D01*
X62800524Y-93585856D02*
X62610048Y-93585856D01*
X62610048Y-93585856D02*
X62514810Y-93633475D01*
X62514810Y-93633475D02*
X62467191Y-93681094D01*
X62467191Y-93681094D02*
X62371953Y-93823951D01*
X62371953Y-93823951D02*
X62324334Y-94014427D01*
X62324334Y-94014427D02*
X62324334Y-94395379D01*
X62324334Y-94395379D02*
X62371953Y-94490617D01*
X62371953Y-94490617D02*
X62419572Y-94538237D01*
X62419572Y-94538237D02*
X62514810Y-94585856D01*
X62514810Y-94585856D02*
X62705286Y-94585856D01*
X62705286Y-94585856D02*
X62800524Y-94538237D01*
X62800524Y-94538237D02*
X62848143Y-94490617D01*
X62848143Y-94490617D02*
X62895762Y-94395379D01*
X62895762Y-94395379D02*
X62895762Y-94157284D01*
X62895762Y-94157284D02*
X62848143Y-94062046D01*
X62848143Y-94062046D02*
X62800524Y-94014427D01*
X62800524Y-94014427D02*
X62705286Y-93966808D01*
X62705286Y-93966808D02*
X62514810Y-93966808D01*
X62514810Y-93966808D02*
X62419572Y-94014427D01*
X62419572Y-94014427D02*
X62371953Y-94062046D01*
X62371953Y-94062046D02*
X62324334Y-94157284D01*
X31503144Y-114905856D02*
X31503144Y-113905856D01*
X31503144Y-113905856D02*
X31741239Y-113905856D01*
X31741239Y-113905856D02*
X31884096Y-113953475D01*
X31884096Y-113953475D02*
X31979334Y-114048713D01*
X31979334Y-114048713D02*
X32026953Y-114143951D01*
X32026953Y-114143951D02*
X32074572Y-114334427D01*
X32074572Y-114334427D02*
X32074572Y-114477284D01*
X32074572Y-114477284D02*
X32026953Y-114667760D01*
X32026953Y-114667760D02*
X31979334Y-114762998D01*
X31979334Y-114762998D02*
X31884096Y-114858237D01*
X31884096Y-114858237D02*
X31741239Y-114905856D01*
X31741239Y-114905856D02*
X31503144Y-114905856D01*
X32407906Y-113905856D02*
X33026953Y-113905856D01*
X33026953Y-113905856D02*
X32693620Y-114286808D01*
X32693620Y-114286808D02*
X32836477Y-114286808D01*
X32836477Y-114286808D02*
X32931715Y-114334427D01*
X32931715Y-114334427D02*
X32979334Y-114382046D01*
X32979334Y-114382046D02*
X33026953Y-114477284D01*
X33026953Y-114477284D02*
X33026953Y-114715379D01*
X33026953Y-114715379D02*
X32979334Y-114810617D01*
X32979334Y-114810617D02*
X32931715Y-114858237D01*
X32931715Y-114858237D02*
X32836477Y-114905856D01*
X32836477Y-114905856D02*
X32550763Y-114905856D01*
X32550763Y-114905856D02*
X32455525Y-114858237D01*
X32455525Y-114858237D02*
X32407906Y-114810617D01*
X39694572Y-77060856D02*
X39361239Y-76584665D01*
X39123144Y-77060856D02*
X39123144Y-76060856D01*
X39123144Y-76060856D02*
X39504096Y-76060856D01*
X39504096Y-76060856D02*
X39599334Y-76108475D01*
X39599334Y-76108475D02*
X39646953Y-76156094D01*
X39646953Y-76156094D02*
X39694572Y-76251332D01*
X39694572Y-76251332D02*
X39694572Y-76394189D01*
X39694572Y-76394189D02*
X39646953Y-76489427D01*
X39646953Y-76489427D02*
X39599334Y-76537046D01*
X39599334Y-76537046D02*
X39504096Y-76584665D01*
X39504096Y-76584665D02*
X39123144Y-76584665D01*
X40027906Y-76060856D02*
X40646953Y-76060856D01*
X40646953Y-76060856D02*
X40313620Y-76441808D01*
X40313620Y-76441808D02*
X40456477Y-76441808D01*
X40456477Y-76441808D02*
X40551715Y-76489427D01*
X40551715Y-76489427D02*
X40599334Y-76537046D01*
X40599334Y-76537046D02*
X40646953Y-76632284D01*
X40646953Y-76632284D02*
X40646953Y-76870379D01*
X40646953Y-76870379D02*
X40599334Y-76965617D01*
X40599334Y-76965617D02*
X40551715Y-77013237D01*
X40551715Y-77013237D02*
X40456477Y-77060856D01*
X40456477Y-77060856D02*
X40170763Y-77060856D01*
X40170763Y-77060856D02*
X40075525Y-77013237D01*
X40075525Y-77013237D02*
X40027906Y-76965617D01*
X46044572Y-80615856D02*
X45711239Y-80139665D01*
X45473144Y-80615856D02*
X45473144Y-79615856D01*
X45473144Y-79615856D02*
X45854096Y-79615856D01*
X45854096Y-79615856D02*
X45949334Y-79663475D01*
X45949334Y-79663475D02*
X45996953Y-79711094D01*
X45996953Y-79711094D02*
X46044572Y-79806332D01*
X46044572Y-79806332D02*
X46044572Y-79949189D01*
X46044572Y-79949189D02*
X45996953Y-80044427D01*
X45996953Y-80044427D02*
X45949334Y-80092046D01*
X45949334Y-80092046D02*
X45854096Y-80139665D01*
X45854096Y-80139665D02*
X45473144Y-80139665D01*
X46949334Y-79615856D02*
X46473144Y-79615856D01*
X46473144Y-79615856D02*
X46425525Y-80092046D01*
X46425525Y-80092046D02*
X46473144Y-80044427D01*
X46473144Y-80044427D02*
X46568382Y-79996808D01*
X46568382Y-79996808D02*
X46806477Y-79996808D01*
X46806477Y-79996808D02*
X46901715Y-80044427D01*
X46901715Y-80044427D02*
X46949334Y-80092046D01*
X46949334Y-80092046D02*
X46996953Y-80187284D01*
X46996953Y-80187284D02*
X46996953Y-80425379D01*
X46996953Y-80425379D02*
X46949334Y-80520617D01*
X46949334Y-80520617D02*
X46901715Y-80568237D01*
X46901715Y-80568237D02*
X46806477Y-80615856D01*
X46806477Y-80615856D02*
X46568382Y-80615856D01*
X46568382Y-80615856D02*
X46473144Y-80568237D01*
X46473144Y-80568237D02*
X46425525Y-80520617D01*
X32773144Y-84425856D02*
X32773144Y-83425856D01*
X32773144Y-83425856D02*
X33011239Y-83425856D01*
X33011239Y-83425856D02*
X33154096Y-83473475D01*
X33154096Y-83473475D02*
X33249334Y-83568713D01*
X33249334Y-83568713D02*
X33296953Y-83663951D01*
X33296953Y-83663951D02*
X33344572Y-83854427D01*
X33344572Y-83854427D02*
X33344572Y-83997284D01*
X33344572Y-83997284D02*
X33296953Y-84187760D01*
X33296953Y-84187760D02*
X33249334Y-84282998D01*
X33249334Y-84282998D02*
X33154096Y-84378237D01*
X33154096Y-84378237D02*
X33011239Y-84425856D01*
X33011239Y-84425856D02*
X32773144Y-84425856D01*
X33725525Y-83521094D02*
X33773144Y-83473475D01*
X33773144Y-83473475D02*
X33868382Y-83425856D01*
X33868382Y-83425856D02*
X34106477Y-83425856D01*
X34106477Y-83425856D02*
X34201715Y-83473475D01*
X34201715Y-83473475D02*
X34249334Y-83521094D01*
X34249334Y-83521094D02*
X34296953Y-83616332D01*
X34296953Y-83616332D02*
X34296953Y-83711570D01*
X34296953Y-83711570D02*
X34249334Y-83854427D01*
X34249334Y-83854427D02*
X33677906Y-84425856D01*
X33677906Y-84425856D02*
X34296953Y-84425856D01*
X33344572Y-95760617D02*
X33296953Y-95808237D01*
X33296953Y-95808237D02*
X33154096Y-95855856D01*
X33154096Y-95855856D02*
X33058858Y-95855856D01*
X33058858Y-95855856D02*
X32916001Y-95808237D01*
X32916001Y-95808237D02*
X32820763Y-95712998D01*
X32820763Y-95712998D02*
X32773144Y-95617760D01*
X32773144Y-95617760D02*
X32725525Y-95427284D01*
X32725525Y-95427284D02*
X32725525Y-95284427D01*
X32725525Y-95284427D02*
X32773144Y-95093951D01*
X32773144Y-95093951D02*
X32820763Y-94998713D01*
X32820763Y-94998713D02*
X32916001Y-94903475D01*
X32916001Y-94903475D02*
X33058858Y-94855856D01*
X33058858Y-94855856D02*
X33154096Y-94855856D01*
X33154096Y-94855856D02*
X33296953Y-94903475D01*
X33296953Y-94903475D02*
X33344572Y-94951094D01*
X33677906Y-94855856D02*
X34296953Y-94855856D01*
X34296953Y-94855856D02*
X33963620Y-95236808D01*
X33963620Y-95236808D02*
X34106477Y-95236808D01*
X34106477Y-95236808D02*
X34201715Y-95284427D01*
X34201715Y-95284427D02*
X34249334Y-95332046D01*
X34249334Y-95332046D02*
X34296953Y-95427284D01*
X34296953Y-95427284D02*
X34296953Y-95665379D01*
X34296953Y-95665379D02*
X34249334Y-95760617D01*
X34249334Y-95760617D02*
X34201715Y-95808237D01*
X34201715Y-95808237D02*
X34106477Y-95855856D01*
X34106477Y-95855856D02*
X33820763Y-95855856D01*
X33820763Y-95855856D02*
X33725525Y-95808237D01*
X33725525Y-95808237D02*
X33677906Y-95760617D01*
X32773144Y-88235856D02*
X32773144Y-87235856D01*
X32773144Y-87235856D02*
X33011239Y-87235856D01*
X33011239Y-87235856D02*
X33154096Y-87283475D01*
X33154096Y-87283475D02*
X33249334Y-87378713D01*
X33249334Y-87378713D02*
X33296953Y-87473951D01*
X33296953Y-87473951D02*
X33344572Y-87664427D01*
X33344572Y-87664427D02*
X33344572Y-87807284D01*
X33344572Y-87807284D02*
X33296953Y-87997760D01*
X33296953Y-87997760D02*
X33249334Y-88092998D01*
X33249334Y-88092998D02*
X33154096Y-88188237D01*
X33154096Y-88188237D02*
X33011239Y-88235856D01*
X33011239Y-88235856D02*
X32773144Y-88235856D01*
X34296953Y-88235856D02*
X33725525Y-88235856D01*
X34011239Y-88235856D02*
X34011239Y-87235856D01*
X34011239Y-87235856D02*
X33916001Y-87378713D01*
X33916001Y-87378713D02*
X33820763Y-87473951D01*
X33820763Y-87473951D02*
X33725525Y-87521570D01*
X39694572Y-91950617D02*
X39646953Y-91998237D01*
X39646953Y-91998237D02*
X39504096Y-92045856D01*
X39504096Y-92045856D02*
X39408858Y-92045856D01*
X39408858Y-92045856D02*
X39266001Y-91998237D01*
X39266001Y-91998237D02*
X39170763Y-91902998D01*
X39170763Y-91902998D02*
X39123144Y-91807760D01*
X39123144Y-91807760D02*
X39075525Y-91617284D01*
X39075525Y-91617284D02*
X39075525Y-91474427D01*
X39075525Y-91474427D02*
X39123144Y-91283951D01*
X39123144Y-91283951D02*
X39170763Y-91188713D01*
X39170763Y-91188713D02*
X39266001Y-91093475D01*
X39266001Y-91093475D02*
X39408858Y-91045856D01*
X39408858Y-91045856D02*
X39504096Y-91045856D01*
X39504096Y-91045856D02*
X39646953Y-91093475D01*
X39646953Y-91093475D02*
X39694572Y-91141094D01*
X40551715Y-91379189D02*
X40551715Y-92045856D01*
X40313620Y-90998237D02*
X40075525Y-91712522D01*
X40075525Y-91712522D02*
X40694572Y-91712522D01*
X32539185Y-76957575D02*
X32491566Y-77005195D01*
X32491566Y-77005195D02*
X32348709Y-77052814D01*
X32348709Y-77052814D02*
X32253471Y-77052814D01*
X32253471Y-77052814D02*
X32110614Y-77005195D01*
X32110614Y-77005195D02*
X32015376Y-76909956D01*
X32015376Y-76909956D02*
X31967757Y-76814718D01*
X31967757Y-76814718D02*
X31920138Y-76624242D01*
X31920138Y-76624242D02*
X31920138Y-76481385D01*
X31920138Y-76481385D02*
X31967757Y-76290909D01*
X31967757Y-76290909D02*
X32015376Y-76195671D01*
X32015376Y-76195671D02*
X32110614Y-76100433D01*
X32110614Y-76100433D02*
X32253471Y-76052814D01*
X32253471Y-76052814D02*
X32348709Y-76052814D01*
X32348709Y-76052814D02*
X32491566Y-76100433D01*
X32491566Y-76100433D02*
X32539185Y-76148052D01*
X33396328Y-76052814D02*
X33205852Y-76052814D01*
X33205852Y-76052814D02*
X33110614Y-76100433D01*
X33110614Y-76100433D02*
X33062995Y-76148052D01*
X33062995Y-76148052D02*
X32967757Y-76290909D01*
X32967757Y-76290909D02*
X32920138Y-76481385D01*
X32920138Y-76481385D02*
X32920138Y-76862337D01*
X32920138Y-76862337D02*
X32967757Y-76957575D01*
X32967757Y-76957575D02*
X33015376Y-77005195D01*
X33015376Y-77005195D02*
X33110614Y-77052814D01*
X33110614Y-77052814D02*
X33301090Y-77052814D01*
X33301090Y-77052814D02*
X33396328Y-77005195D01*
X33396328Y-77005195D02*
X33443947Y-76957575D01*
X33443947Y-76957575D02*
X33491566Y-76862337D01*
X33491566Y-76862337D02*
X33491566Y-76624242D01*
X33491566Y-76624242D02*
X33443947Y-76529004D01*
X33443947Y-76529004D02*
X33396328Y-76481385D01*
X33396328Y-76481385D02*
X33301090Y-76433766D01*
X33301090Y-76433766D02*
X33110614Y-76433766D01*
X33110614Y-76433766D02*
X33015376Y-76481385D01*
X33015376Y-76481385D02*
X32967757Y-76529004D01*
X32967757Y-76529004D02*
X32920138Y-76624242D01*
X48684334Y-59310856D02*
X48684334Y-60120379D01*
X48684334Y-60120379D02*
X48731953Y-60215617D01*
X48731953Y-60215617D02*
X48779572Y-60263237D01*
X48779572Y-60263237D02*
X48874810Y-60310856D01*
X48874810Y-60310856D02*
X49065286Y-60310856D01*
X49065286Y-60310856D02*
X49160524Y-60263237D01*
X49160524Y-60263237D02*
X49208143Y-60215617D01*
X49208143Y-60215617D02*
X49255762Y-60120379D01*
X49255762Y-60120379D02*
X49255762Y-59310856D01*
X50208143Y-59310856D02*
X49731953Y-59310856D01*
X49731953Y-59310856D02*
X49684334Y-59787046D01*
X49684334Y-59787046D02*
X49731953Y-59739427D01*
X49731953Y-59739427D02*
X49827191Y-59691808D01*
X49827191Y-59691808D02*
X50065286Y-59691808D01*
X50065286Y-59691808D02*
X50160524Y-59739427D01*
X50160524Y-59739427D02*
X50208143Y-59787046D01*
X50208143Y-59787046D02*
X50255762Y-59882284D01*
X50255762Y-59882284D02*
X50255762Y-60120379D01*
X50255762Y-60120379D02*
X50208143Y-60215617D01*
X50208143Y-60215617D02*
X50160524Y-60263237D01*
X50160524Y-60263237D02*
X50065286Y-60310856D01*
X50065286Y-60310856D02*
X49827191Y-60310856D01*
X49827191Y-60310856D02*
X49731953Y-60263237D01*
X49731953Y-60263237D02*
X49684334Y-60215617D01*
X39694572Y-88235856D02*
X39361239Y-87759665D01*
X39123144Y-88235856D02*
X39123144Y-87235856D01*
X39123144Y-87235856D02*
X39504096Y-87235856D01*
X39504096Y-87235856D02*
X39599334Y-87283475D01*
X39599334Y-87283475D02*
X39646953Y-87331094D01*
X39646953Y-87331094D02*
X39694572Y-87426332D01*
X39694572Y-87426332D02*
X39694572Y-87569189D01*
X39694572Y-87569189D02*
X39646953Y-87664427D01*
X39646953Y-87664427D02*
X39599334Y-87712046D01*
X39599334Y-87712046D02*
X39504096Y-87759665D01*
X39504096Y-87759665D02*
X39123144Y-87759665D01*
X40646953Y-88235856D02*
X40075525Y-88235856D01*
X40361239Y-88235856D02*
X40361239Y-87235856D01*
X40361239Y-87235856D02*
X40266001Y-87378713D01*
X40266001Y-87378713D02*
X40170763Y-87473951D01*
X40170763Y-87473951D02*
X40075525Y-87521570D01*
X39694572Y-84425856D02*
X39361239Y-83949665D01*
X39123144Y-84425856D02*
X39123144Y-83425856D01*
X39123144Y-83425856D02*
X39504096Y-83425856D01*
X39504096Y-83425856D02*
X39599334Y-83473475D01*
X39599334Y-83473475D02*
X39646953Y-83521094D01*
X39646953Y-83521094D02*
X39694572Y-83616332D01*
X39694572Y-83616332D02*
X39694572Y-83759189D01*
X39694572Y-83759189D02*
X39646953Y-83854427D01*
X39646953Y-83854427D02*
X39599334Y-83902046D01*
X39599334Y-83902046D02*
X39504096Y-83949665D01*
X39504096Y-83949665D02*
X39123144Y-83949665D01*
X40075525Y-83521094D02*
X40123144Y-83473475D01*
X40123144Y-83473475D02*
X40218382Y-83425856D01*
X40218382Y-83425856D02*
X40456477Y-83425856D01*
X40456477Y-83425856D02*
X40551715Y-83473475D01*
X40551715Y-83473475D02*
X40599334Y-83521094D01*
X40599334Y-83521094D02*
X40646953Y-83616332D01*
X40646953Y-83616332D02*
X40646953Y-83711570D01*
X40646953Y-83711570D02*
X40599334Y-83854427D01*
X40599334Y-83854427D02*
X40027906Y-84425856D01*
X40027906Y-84425856D02*
X40646953Y-84425856D01*
X39694572Y-95760617D02*
X39646953Y-95808237D01*
X39646953Y-95808237D02*
X39504096Y-95855856D01*
X39504096Y-95855856D02*
X39408858Y-95855856D01*
X39408858Y-95855856D02*
X39266001Y-95808237D01*
X39266001Y-95808237D02*
X39170763Y-95712998D01*
X39170763Y-95712998D02*
X39123144Y-95617760D01*
X39123144Y-95617760D02*
X39075525Y-95427284D01*
X39075525Y-95427284D02*
X39075525Y-95284427D01*
X39075525Y-95284427D02*
X39123144Y-95093951D01*
X39123144Y-95093951D02*
X39170763Y-94998713D01*
X39170763Y-94998713D02*
X39266001Y-94903475D01*
X39266001Y-94903475D02*
X39408858Y-94855856D01*
X39408858Y-94855856D02*
X39504096Y-94855856D01*
X39504096Y-94855856D02*
X39646953Y-94903475D01*
X39646953Y-94903475D02*
X39694572Y-94951094D01*
X40266001Y-95284427D02*
X40170763Y-95236808D01*
X40170763Y-95236808D02*
X40123144Y-95189189D01*
X40123144Y-95189189D02*
X40075525Y-95093951D01*
X40075525Y-95093951D02*
X40075525Y-95046332D01*
X40075525Y-95046332D02*
X40123144Y-94951094D01*
X40123144Y-94951094D02*
X40170763Y-94903475D01*
X40170763Y-94903475D02*
X40266001Y-94855856D01*
X40266001Y-94855856D02*
X40456477Y-94855856D01*
X40456477Y-94855856D02*
X40551715Y-94903475D01*
X40551715Y-94903475D02*
X40599334Y-94951094D01*
X40599334Y-94951094D02*
X40646953Y-95046332D01*
X40646953Y-95046332D02*
X40646953Y-95093951D01*
X40646953Y-95093951D02*
X40599334Y-95189189D01*
X40599334Y-95189189D02*
X40551715Y-95236808D01*
X40551715Y-95236808D02*
X40456477Y-95284427D01*
X40456477Y-95284427D02*
X40266001Y-95284427D01*
X40266001Y-95284427D02*
X40170763Y-95332046D01*
X40170763Y-95332046D02*
X40123144Y-95379665D01*
X40123144Y-95379665D02*
X40075525Y-95474903D01*
X40075525Y-95474903D02*
X40075525Y-95665379D01*
X40075525Y-95665379D02*
X40123144Y-95760617D01*
X40123144Y-95760617D02*
X40170763Y-95808237D01*
X40170763Y-95808237D02*
X40266001Y-95855856D01*
X40266001Y-95855856D02*
X40456477Y-95855856D01*
X40456477Y-95855856D02*
X40551715Y-95808237D01*
X40551715Y-95808237D02*
X40599334Y-95760617D01*
X40599334Y-95760617D02*
X40646953Y-95665379D01*
X40646953Y-95665379D02*
X40646953Y-95474903D01*
X40646953Y-95474903D02*
X40599334Y-95379665D01*
X40599334Y-95379665D02*
X40551715Y-95332046D01*
X40551715Y-95332046D02*
X40456477Y-95284427D01*
X33344572Y-80520617D02*
X33296953Y-80568237D01*
X33296953Y-80568237D02*
X33154096Y-80615856D01*
X33154096Y-80615856D02*
X33058858Y-80615856D01*
X33058858Y-80615856D02*
X32916001Y-80568237D01*
X32916001Y-80568237D02*
X32820763Y-80472998D01*
X32820763Y-80472998D02*
X32773144Y-80377760D01*
X32773144Y-80377760D02*
X32725525Y-80187284D01*
X32725525Y-80187284D02*
X32725525Y-80044427D01*
X32725525Y-80044427D02*
X32773144Y-79853951D01*
X32773144Y-79853951D02*
X32820763Y-79758713D01*
X32820763Y-79758713D02*
X32916001Y-79663475D01*
X32916001Y-79663475D02*
X33058858Y-79615856D01*
X33058858Y-79615856D02*
X33154096Y-79615856D01*
X33154096Y-79615856D02*
X33296953Y-79663475D01*
X33296953Y-79663475D02*
X33344572Y-79711094D01*
X34249334Y-79615856D02*
X33773144Y-79615856D01*
X33773144Y-79615856D02*
X33725525Y-80092046D01*
X33725525Y-80092046D02*
X33773144Y-80044427D01*
X33773144Y-80044427D02*
X33868382Y-79996808D01*
X33868382Y-79996808D02*
X34106477Y-79996808D01*
X34106477Y-79996808D02*
X34201715Y-80044427D01*
X34201715Y-80044427D02*
X34249334Y-80092046D01*
X34249334Y-80092046D02*
X34296953Y-80187284D01*
X34296953Y-80187284D02*
X34296953Y-80425379D01*
X34296953Y-80425379D02*
X34249334Y-80520617D01*
X34249334Y-80520617D02*
X34201715Y-80568237D01*
X34201715Y-80568237D02*
X34106477Y-80615856D01*
X34106477Y-80615856D02*
X33868382Y-80615856D01*
X33868382Y-80615856D02*
X33773144Y-80568237D01*
X33773144Y-80568237D02*
X33725525Y-80520617D01*
X30169572Y-101475617D02*
X30121953Y-101523237D01*
X30121953Y-101523237D02*
X29979096Y-101570856D01*
X29979096Y-101570856D02*
X29883858Y-101570856D01*
X29883858Y-101570856D02*
X29741001Y-101523237D01*
X29741001Y-101523237D02*
X29645763Y-101427998D01*
X29645763Y-101427998D02*
X29598144Y-101332760D01*
X29598144Y-101332760D02*
X29550525Y-101142284D01*
X29550525Y-101142284D02*
X29550525Y-100999427D01*
X29550525Y-100999427D02*
X29598144Y-100808951D01*
X29598144Y-100808951D02*
X29645763Y-100713713D01*
X29645763Y-100713713D02*
X29741001Y-100618475D01*
X29741001Y-100618475D02*
X29883858Y-100570856D01*
X29883858Y-100570856D02*
X29979096Y-100570856D01*
X29979096Y-100570856D02*
X30121953Y-100618475D01*
X30121953Y-100618475D02*
X30169572Y-100666094D01*
X30502906Y-100570856D02*
X31169572Y-100570856D01*
X31169572Y-100570856D02*
X30741001Y-101570856D01*
X39226715Y-103475856D02*
X39226715Y-102475856D01*
X39226715Y-102475856D02*
X39464810Y-102475856D01*
X39464810Y-102475856D02*
X39607667Y-102523475D01*
X39607667Y-102523475D02*
X39702905Y-102618713D01*
X39702905Y-102618713D02*
X39750524Y-102713951D01*
X39750524Y-102713951D02*
X39798143Y-102904427D01*
X39798143Y-102904427D02*
X39798143Y-103047284D01*
X39798143Y-103047284D02*
X39750524Y-103237760D01*
X39750524Y-103237760D02*
X39702905Y-103332998D01*
X39702905Y-103332998D02*
X39607667Y-103428237D01*
X39607667Y-103428237D02*
X39464810Y-103475856D01*
X39464810Y-103475856D02*
X39226715Y-103475856D01*
X40131477Y-102475856D02*
X40798143Y-102475856D01*
X40798143Y-102475856D02*
X40369572Y-103475856D01*
X42417191Y-103475856D02*
X41941001Y-103475856D01*
X41941001Y-103475856D02*
X41941001Y-102475856D01*
X42750525Y-103475856D02*
X42750525Y-102809189D01*
X42750525Y-102475856D02*
X42702906Y-102523475D01*
X42702906Y-102523475D02*
X42750525Y-102571094D01*
X42750525Y-102571094D02*
X42798144Y-102523475D01*
X42798144Y-102523475D02*
X42750525Y-102475856D01*
X42750525Y-102475856D02*
X42750525Y-102571094D01*
X43226715Y-103475856D02*
X43226715Y-102809189D01*
X43226715Y-102904427D02*
X43274334Y-102856808D01*
X43274334Y-102856808D02*
X43369572Y-102809189D01*
X43369572Y-102809189D02*
X43512429Y-102809189D01*
X43512429Y-102809189D02*
X43607667Y-102856808D01*
X43607667Y-102856808D02*
X43655286Y-102952046D01*
X43655286Y-102952046D02*
X43655286Y-103475856D01*
X43655286Y-102952046D02*
X43702905Y-102856808D01*
X43702905Y-102856808D02*
X43798143Y-102809189D01*
X43798143Y-102809189D02*
X43941000Y-102809189D01*
X43941000Y-102809189D02*
X44036239Y-102856808D01*
X44036239Y-102856808D02*
X44083858Y-102952046D01*
X44083858Y-102952046D02*
X44083858Y-103475856D01*
X44560048Y-103475856D02*
X44560048Y-102809189D01*
X44560048Y-102475856D02*
X44512429Y-102523475D01*
X44512429Y-102523475D02*
X44560048Y-102571094D01*
X44560048Y-102571094D02*
X44607667Y-102523475D01*
X44607667Y-102523475D02*
X44560048Y-102475856D01*
X44560048Y-102475856D02*
X44560048Y-102571094D01*
X44893381Y-102809189D02*
X45274333Y-102809189D01*
X45036238Y-102475856D02*
X45036238Y-103332998D01*
X45036238Y-103332998D02*
X45083857Y-103428237D01*
X45083857Y-103428237D02*
X45179095Y-103475856D01*
X45179095Y-103475856D02*
X45274333Y-103475856D01*
X46893381Y-103475856D02*
X46321953Y-103475856D01*
X46607667Y-103475856D02*
X46607667Y-102475856D01*
X46607667Y-102475856D02*
X46512429Y-102618713D01*
X46512429Y-102618713D02*
X46417191Y-102713951D01*
X46417191Y-102713951D02*
X46321953Y-102761570D01*
X44941715Y-99920856D02*
X44941715Y-98920856D01*
X44941715Y-98920856D02*
X45179810Y-98920856D01*
X45179810Y-98920856D02*
X45322667Y-98968475D01*
X45322667Y-98968475D02*
X45417905Y-99063713D01*
X45417905Y-99063713D02*
X45465524Y-99158951D01*
X45465524Y-99158951D02*
X45513143Y-99349427D01*
X45513143Y-99349427D02*
X45513143Y-99492284D01*
X45513143Y-99492284D02*
X45465524Y-99682760D01*
X45465524Y-99682760D02*
X45417905Y-99777998D01*
X45417905Y-99777998D02*
X45322667Y-99873237D01*
X45322667Y-99873237D02*
X45179810Y-99920856D01*
X45179810Y-99920856D02*
X44941715Y-99920856D01*
X46084572Y-99349427D02*
X45989334Y-99301808D01*
X45989334Y-99301808D02*
X45941715Y-99254189D01*
X45941715Y-99254189D02*
X45894096Y-99158951D01*
X45894096Y-99158951D02*
X45894096Y-99111332D01*
X45894096Y-99111332D02*
X45941715Y-99016094D01*
X45941715Y-99016094D02*
X45989334Y-98968475D01*
X45989334Y-98968475D02*
X46084572Y-98920856D01*
X46084572Y-98920856D02*
X46275048Y-98920856D01*
X46275048Y-98920856D02*
X46370286Y-98968475D01*
X46370286Y-98968475D02*
X46417905Y-99016094D01*
X46417905Y-99016094D02*
X46465524Y-99111332D01*
X46465524Y-99111332D02*
X46465524Y-99158951D01*
X46465524Y-99158951D02*
X46417905Y-99254189D01*
X46417905Y-99254189D02*
X46370286Y-99301808D01*
X46370286Y-99301808D02*
X46275048Y-99349427D01*
X46275048Y-99349427D02*
X46084572Y-99349427D01*
X46084572Y-99349427D02*
X45989334Y-99397046D01*
X45989334Y-99397046D02*
X45941715Y-99444665D01*
X45941715Y-99444665D02*
X45894096Y-99539903D01*
X45894096Y-99539903D02*
X45894096Y-99730379D01*
X45894096Y-99730379D02*
X45941715Y-99825617D01*
X45941715Y-99825617D02*
X45989334Y-99873237D01*
X45989334Y-99873237D02*
X46084572Y-99920856D01*
X46084572Y-99920856D02*
X46275048Y-99920856D01*
X46275048Y-99920856D02*
X46370286Y-99873237D01*
X46370286Y-99873237D02*
X46417905Y-99825617D01*
X46417905Y-99825617D02*
X46465524Y-99730379D01*
X46465524Y-99730379D02*
X46465524Y-99539903D01*
X46465524Y-99539903D02*
X46417905Y-99444665D01*
X46417905Y-99444665D02*
X46370286Y-99397046D01*
X46370286Y-99397046D02*
X46275048Y-99349427D01*
X48132191Y-99920856D02*
X47656001Y-99920856D01*
X47656001Y-99920856D02*
X47656001Y-98920856D01*
X48465525Y-99920856D02*
X48465525Y-99254189D01*
X48465525Y-98920856D02*
X48417906Y-98968475D01*
X48417906Y-98968475D02*
X48465525Y-99016094D01*
X48465525Y-99016094D02*
X48513144Y-98968475D01*
X48513144Y-98968475D02*
X48465525Y-98920856D01*
X48465525Y-98920856D02*
X48465525Y-99016094D01*
X48941715Y-99920856D02*
X48941715Y-99254189D01*
X48941715Y-99349427D02*
X48989334Y-99301808D01*
X48989334Y-99301808D02*
X49084572Y-99254189D01*
X49084572Y-99254189D02*
X49227429Y-99254189D01*
X49227429Y-99254189D02*
X49322667Y-99301808D01*
X49322667Y-99301808D02*
X49370286Y-99397046D01*
X49370286Y-99397046D02*
X49370286Y-99920856D01*
X49370286Y-99397046D02*
X49417905Y-99301808D01*
X49417905Y-99301808D02*
X49513143Y-99254189D01*
X49513143Y-99254189D02*
X49656000Y-99254189D01*
X49656000Y-99254189D02*
X49751239Y-99301808D01*
X49751239Y-99301808D02*
X49798858Y-99397046D01*
X49798858Y-99397046D02*
X49798858Y-99920856D01*
X50275048Y-99920856D02*
X50275048Y-99254189D01*
X50275048Y-98920856D02*
X50227429Y-98968475D01*
X50227429Y-98968475D02*
X50275048Y-99016094D01*
X50275048Y-99016094D02*
X50322667Y-98968475D01*
X50322667Y-98968475D02*
X50275048Y-98920856D01*
X50275048Y-98920856D02*
X50275048Y-99016094D01*
X50608381Y-99254189D02*
X50989333Y-99254189D01*
X50751238Y-98920856D02*
X50751238Y-99777998D01*
X50751238Y-99777998D02*
X50798857Y-99873237D01*
X50798857Y-99873237D02*
X50894095Y-99920856D01*
X50894095Y-99920856D02*
X50989333Y-99920856D01*
X52275048Y-98920856D02*
X52370286Y-98920856D01*
X52370286Y-98920856D02*
X52465524Y-98968475D01*
X52465524Y-98968475D02*
X52513143Y-99016094D01*
X52513143Y-99016094D02*
X52560762Y-99111332D01*
X52560762Y-99111332D02*
X52608381Y-99301808D01*
X52608381Y-99301808D02*
X52608381Y-99539903D01*
X52608381Y-99539903D02*
X52560762Y-99730379D01*
X52560762Y-99730379D02*
X52513143Y-99825617D01*
X52513143Y-99825617D02*
X52465524Y-99873237D01*
X52465524Y-99873237D02*
X52370286Y-99920856D01*
X52370286Y-99920856D02*
X52275048Y-99920856D01*
X52275048Y-99920856D02*
X52179810Y-99873237D01*
X52179810Y-99873237D02*
X52132191Y-99825617D01*
X52132191Y-99825617D02*
X52084572Y-99730379D01*
X52084572Y-99730379D02*
X52036953Y-99539903D01*
X52036953Y-99539903D02*
X52036953Y-99301808D01*
X52036953Y-99301808D02*
X52084572Y-99111332D01*
X52084572Y-99111332D02*
X52132191Y-99016094D01*
X52132191Y-99016094D02*
X52179810Y-98968475D01*
X52179810Y-98968475D02*
X52275048Y-98920856D01*
D13*
X71136239Y-95191037D02*
X78436239Y-95191037D01*
X71136239Y-100691037D02*
X78436239Y-100691037D01*
X78436239Y-100691037D02*
X78436239Y-99541037D01*
X36531643Y-126572442D02*
X36531643Y-128642442D01*
X36531643Y-126572442D02*
X37401643Y-126572442D01*
X41401643Y-126042442D02*
X42001643Y-126042442D01*
X41701643Y-126342442D02*
X41401643Y-126042442D01*
X41701643Y-126342442D02*
X42001643Y-126042442D01*
X43401643Y-126572442D02*
X44271643Y-126572442D01*
X44271643Y-126572442D02*
X44271643Y-128642442D01*
D14*
X76983339Y-48753937D02*
X76617579Y-48753937D01*
X75393299Y-48753937D02*
X72909179Y-48753937D01*
X71684899Y-48753937D02*
X71319139Y-48753937D01*
X71319139Y-48753937D02*
X71319139Y-54418137D01*
X76983339Y-54418137D02*
X76983339Y-48753937D01*
X76617579Y-54418137D02*
X76983339Y-54418137D01*
X72909179Y-54418137D02*
X75393299Y-54418137D01*
X71319139Y-54418137D02*
X71684899Y-54418137D01*
D13*
X45935803Y-98041037D02*
X45481675Y-98041037D01*
X45935803Y-96571037D02*
X45481675Y-96571037D01*
X39585803Y-82801037D02*
X39131675Y-82801037D01*
X39585803Y-81331037D02*
X39131675Y-81331037D01*
D14*
X70633339Y-48753937D02*
X70267579Y-48753937D01*
X69043299Y-48753937D02*
X66559179Y-48753937D01*
X65334899Y-48753937D02*
X64969139Y-48753937D01*
X64969139Y-48753937D02*
X64969139Y-54418137D01*
X70633339Y-54418137D02*
X70633339Y-48753937D01*
X70267579Y-54418137D02*
X70633339Y-54418137D01*
X66559179Y-54418137D02*
X69043299Y-54418137D01*
X64969139Y-54418137D02*
X65334899Y-54418137D01*
D13*
X45751675Y-88951037D02*
X46205803Y-88951037D01*
X45751675Y-90421037D02*
X46205803Y-90421037D01*
X50028739Y-56341037D02*
X49548739Y-56341037D01*
X49788739Y-56011037D01*
X50028739Y-56341037D01*
G36*
X50028739Y-56341037D02*
G01*
X49548739Y-56341037D01*
X49788739Y-56011037D01*
X50028739Y-56341037D01*
G37*
X45726239Y-47421037D02*
X47226239Y-47421037D01*
X45726239Y-57821037D02*
X47226239Y-57821037D01*
X47226239Y-47421037D02*
X47226239Y-49231037D01*
X47226239Y-57821037D02*
X47226239Y-56011037D01*
X30296239Y-72581037D02*
X35496239Y-72581037D01*
X30296239Y-72581037D02*
X30296239Y-69981037D01*
X35496239Y-72581037D02*
X35496239Y-67381037D01*
X30296239Y-69981037D02*
X32896239Y-69981037D01*
X32896239Y-69981037D02*
X32896239Y-67381037D01*
X30296239Y-68711037D02*
X30296239Y-67381037D01*
X30296239Y-67381037D02*
X31626239Y-67381037D01*
X32896239Y-67381037D02*
X35496239Y-67381037D01*
D14*
X84162339Y-63600237D02*
X84162339Y-57351837D01*
X84162339Y-57351837D02*
X56400139Y-57351837D01*
X56400139Y-63600237D02*
X84162339Y-63600237D01*
X56400139Y-57351837D02*
X56400139Y-63600237D01*
D15*
X86321339Y-60773237D02*
G75*
G02*
X85559339Y-60773237I-381000J0D01*
G01*
X85559339Y-60773237D02*
G75*
G02*
X86321339Y-60773237I381000J0D01*
G01*
D13*
X31406239Y-92536037D02*
X31406239Y-94456037D01*
X31406239Y-94456037D02*
X34266239Y-94456037D01*
X34266239Y-92536037D02*
X31406239Y-92536037D01*
D14*
X72972339Y-110928037D02*
X72972339Y-104679637D01*
X72972339Y-104679637D02*
X45210139Y-104679637D01*
X45210139Y-110928037D02*
X72972339Y-110928037D01*
X45210139Y-104679637D02*
X45210139Y-110928037D01*
D15*
X75131339Y-108101037D02*
G75*
G02*
X74369339Y-108101037I-381000J0D01*
G01*
X74369339Y-108101037D02*
G75*
G02*
X75131339Y-108101037I381000J0D01*
G01*
D13*
X65635239Y-71697637D02*
X66585239Y-71697637D01*
X65635239Y-73097637D02*
X65635239Y-71697637D01*
X65635239Y-88697637D02*
X65635239Y-90097637D01*
X65635239Y-90097637D02*
X66585239Y-90097637D01*
X85085239Y-71697637D02*
X84585239Y-71697637D01*
X84585239Y-71197637D01*
X85085239Y-71697637D01*
G36*
X85085239Y-71697637D02*
G01*
X84585239Y-71697637D01*
X84585239Y-71197637D01*
X85085239Y-71697637D01*
G37*
X45717487Y-85141037D02*
X46239991Y-85141037D01*
X45717487Y-86611037D02*
X46239991Y-86611037D01*
X39367487Y-100381037D02*
X39889991Y-100381037D01*
X39367487Y-101851037D02*
X39889991Y-101851037D01*
X41821239Y-65956037D02*
X45581239Y-65956037D01*
X41821239Y-72776037D02*
X45581239Y-72776037D01*
X45581239Y-65956037D02*
X45581239Y-67216037D01*
X45581239Y-72776037D02*
X45581239Y-71516037D01*
X40541239Y-66056037D02*
X40301239Y-65726037D01*
X40781239Y-65726037D01*
X40541239Y-66056037D01*
G36*
X40541239Y-66056037D02*
G01*
X40301239Y-65726037D01*
X40781239Y-65726037D01*
X40541239Y-66056037D01*
G37*
X45481675Y-92761037D02*
X45935803Y-92761037D01*
X45481675Y-94231037D02*
X45935803Y-94231037D01*
X58321239Y-54556037D02*
X58321239Y-55196037D01*
X58321239Y-55196037D02*
X58721239Y-55196037D01*
X58561239Y-48216037D02*
X58561239Y-54956037D01*
X58561239Y-48216037D02*
X64341239Y-48216037D01*
X58561239Y-49336037D02*
X64341239Y-49336037D01*
X58561239Y-54436037D02*
X64341239Y-54436037D01*
X58561239Y-54956037D02*
X64341239Y-54956037D01*
X64341239Y-48216037D02*
X64341239Y-54956037D01*
X45730175Y-77521037D02*
X46184303Y-77521037D01*
X45730175Y-78991037D02*
X46184303Y-78991037D01*
X30231239Y-119316037D02*
X30231239Y-121016037D01*
X30231239Y-119316037D02*
X33491239Y-119316037D01*
X30231239Y-121016037D02*
X33491239Y-121016037D01*
X66396239Y-100721037D02*
X65916239Y-100721037D01*
X66156239Y-100391037D01*
X66396239Y-100721037D01*
G36*
X66396239Y-100721037D02*
G01*
X65916239Y-100721037D01*
X66156239Y-100391037D01*
X66396239Y-100721037D01*
G37*
D12*
X61031239Y-95316037D02*
X61031239Y-95491037D01*
X61031239Y-100566037D02*
X61031239Y-100391037D01*
X65681239Y-95316037D02*
X61031239Y-95316037D01*
X65681239Y-95316037D02*
X65681239Y-95491037D01*
X65681239Y-100566037D02*
X61031239Y-100566037D01*
X65681239Y-100566037D02*
X65681239Y-100391037D01*
D13*
X34251239Y-115506037D02*
X30991239Y-115506037D01*
X34251239Y-117206037D02*
X30991239Y-117206037D01*
X34251239Y-117206037D02*
X34251239Y-115506037D01*
X39131675Y-77521037D02*
X39585803Y-77521037D01*
X39131675Y-78991037D02*
X39585803Y-78991037D01*
X46438303Y-82801037D02*
X45984175Y-82801037D01*
X46438303Y-81331037D02*
X45984175Y-81331037D01*
X31406239Y-84916037D02*
X31406239Y-86836037D01*
X31406239Y-86836037D02*
X34266239Y-86836037D01*
X34266239Y-84916037D02*
X31406239Y-84916037D01*
X33539991Y-98041037D02*
X33017487Y-98041037D01*
X33539991Y-96571037D02*
X33017487Y-96571037D01*
X31406239Y-88726037D02*
X31406239Y-90646037D01*
X31406239Y-90646037D02*
X34266239Y-90646037D01*
X34266239Y-88726037D02*
X31406239Y-88726037D01*
X39889991Y-94231037D02*
X39367487Y-94231037D01*
X39889991Y-92761037D02*
X39367487Y-92761037D01*
X33539991Y-78991037D02*
X33017487Y-78991037D01*
X33539991Y-77521037D02*
X33017487Y-77521037D01*
X48366239Y-60651037D02*
X48126239Y-60321037D01*
X48606239Y-60321037D01*
X48366239Y-60651037D01*
G36*
X48366239Y-60651037D02*
G01*
X48126239Y-60321037D01*
X48606239Y-60321037D01*
X48366239Y-60651037D01*
G37*
X48746239Y-62921037D02*
X50146239Y-62921037D01*
X48736239Y-60601037D02*
X50146239Y-60601037D01*
X39818303Y-90421037D02*
X39364175Y-90421037D01*
X39818303Y-88951037D02*
X39364175Y-88951037D01*
X39818303Y-86611037D02*
X39364175Y-86611037D01*
X39818303Y-85141037D02*
X39364175Y-85141037D01*
X39889991Y-98041037D02*
X39367487Y-98041037D01*
X39889991Y-96571037D02*
X39367487Y-96571037D01*
X33539991Y-82801037D02*
X33017487Y-82801037D01*
X33539991Y-81331037D02*
X33017487Y-81331037D01*
X33539991Y-101851037D02*
X33017487Y-101851037D01*
X33539991Y-100381037D02*
X33017487Y-100381037D01*
X40471239Y-103966037D02*
X37611239Y-103966037D01*
X37611239Y-105886037D02*
X40471239Y-105886037D01*
X37611239Y-103966037D02*
X37611239Y-105886037D01*
X46576239Y-100156037D02*
X43716239Y-100156037D01*
X43716239Y-102076037D02*
X46576239Y-102076037D01*
X43716239Y-100156037D02*
X43716239Y-102076037D01*
%LPC*%
D16*
X72336239Y-96291037D03*
X72336239Y-99591037D03*
X77236239Y-99591037D03*
X77236239Y-96291037D03*
D17*
X41701643Y-127167442D03*
X41051643Y-127167442D03*
X40401643Y-127167442D03*
X39751643Y-127167442D03*
X39101643Y-127167442D03*
D18*
X36226643Y-129842442D03*
D19*
X36664143Y-129842442D03*
D20*
X38176643Y-126842442D03*
D21*
X40401643Y-129842442D03*
D20*
X42626643Y-126842442D03*
D19*
X44139143Y-129842442D03*
D18*
X44576643Y-129842442D03*
D22*
X76005439Y-48404687D03*
X76005439Y-54767387D03*
X72297039Y-48404687D03*
X72297039Y-54767387D03*
D23*
X46708739Y-97306037D03*
X44708739Y-97306037D03*
X40358739Y-82066037D03*
X38358739Y-82066037D03*
D22*
X69655439Y-48404687D03*
X69655439Y-54767387D03*
X65947039Y-48404687D03*
X65947039Y-54767387D03*
D24*
X44978739Y-89686037D03*
X46978739Y-89686037D03*
D25*
X50051239Y-50081037D03*
D26*
X40901239Y-52621037D03*
D25*
X50051239Y-52621037D03*
X50051239Y-55161037D03*
D27*
X31626239Y-68711037D03*
D28*
X31626239Y-71251037D03*
X34166239Y-68711037D03*
X34166239Y-71251037D03*
D29*
X81531239Y-60773237D03*
X79031239Y-60773237D03*
X76531239Y-60773237D03*
X74031239Y-60773237D03*
X71531239Y-60773237D03*
X69031239Y-60773237D03*
X66531239Y-60773237D03*
X64031239Y-60773237D03*
X61531239Y-60773237D03*
X59031239Y-60773237D03*
D30*
X32241239Y-93496037D03*
X34291239Y-93496037D03*
D29*
X70341239Y-108101037D03*
X67841239Y-108101037D03*
X65341239Y-108101037D03*
X62841239Y-108101037D03*
X60341239Y-108101037D03*
X57841239Y-108101037D03*
X55341239Y-108101037D03*
X52841239Y-108101037D03*
X50341239Y-108101037D03*
X47841239Y-108101037D03*
D31*
X32241239Y-50316037D03*
D32*
X83845239Y-72147637D03*
X82575239Y-72147637D03*
X81305239Y-72147637D03*
X80035239Y-72147637D03*
X78765239Y-72147637D03*
X77495239Y-72147637D03*
X76225239Y-72147637D03*
X74955239Y-72147637D03*
X73685239Y-72147637D03*
X72415239Y-72147637D03*
X71145239Y-72147637D03*
X69875239Y-72147637D03*
X68605239Y-72147637D03*
X67335239Y-72147637D03*
D16*
X66085239Y-73912637D03*
X66085239Y-75182637D03*
X66085239Y-76452637D03*
X66085239Y-77722637D03*
X66085239Y-78992637D03*
X66085239Y-80262637D03*
X66085239Y-81532637D03*
X66085239Y-82802637D03*
X66085239Y-84072637D03*
X66085239Y-85342637D03*
X66085239Y-86612637D03*
X66085239Y-87882637D03*
D32*
X67335239Y-89647637D03*
X68605239Y-89647637D03*
X69875239Y-89647637D03*
X71145239Y-89647637D03*
X72415239Y-89647637D03*
X73685239Y-89647637D03*
X74955239Y-89647637D03*
X76225239Y-89647637D03*
X77495239Y-89647637D03*
X78765239Y-89647637D03*
X80035239Y-89647637D03*
X81305239Y-89647637D03*
X82575239Y-89647637D03*
X83845239Y-89647637D03*
D33*
X79995239Y-78037637D03*
D34*
X79245239Y-78037637D03*
D33*
X78495239Y-78037637D03*
D34*
X77745239Y-78037637D03*
D33*
X76995239Y-78037637D03*
D34*
X79995239Y-78787637D03*
X78495239Y-78787637D03*
X76995239Y-78787637D03*
D33*
X79995239Y-79537637D03*
D34*
X79245239Y-79537637D03*
D33*
X78495239Y-79537637D03*
D34*
X77745239Y-79537637D03*
D33*
X76995239Y-79537637D03*
D34*
X79995239Y-80287637D03*
X78495239Y-80287637D03*
X76995239Y-80287637D03*
D33*
X79995239Y-81037637D03*
D34*
X79245239Y-81037637D03*
D33*
X78495239Y-81037637D03*
D34*
X77745239Y-81037637D03*
D33*
X76995239Y-81037637D03*
D35*
X52421239Y-123191037D03*
X77411239Y-123191037D03*
D36*
X69071239Y-124611037D03*
X66301239Y-124611037D03*
X63531239Y-124611037D03*
X60761239Y-124611037D03*
X70456239Y-121771037D03*
X67686239Y-121771037D03*
X64916239Y-121771037D03*
X62146239Y-121771037D03*
D37*
X59376239Y-121771037D03*
D38*
X44941239Y-85876037D03*
X47016239Y-85876037D03*
X38591239Y-101116037D03*
X40666239Y-101116037D03*
D31*
X81241239Y-108316037D03*
D39*
X55101239Y-52856037D03*
D40*
X55101239Y-55356037D03*
X55101239Y-57856037D03*
X55101239Y-60356037D03*
X55101239Y-62856037D03*
D41*
X40521239Y-67066037D03*
X40521239Y-69366037D03*
D42*
X46821239Y-69366037D03*
D41*
X40521239Y-71666037D03*
D24*
X44708739Y-93496037D03*
X46708739Y-93496037D03*
D43*
X60181239Y-51586037D03*
D44*
X62721239Y-51586037D03*
D24*
X44957239Y-78256037D03*
X46957239Y-78256037D03*
D45*
X30991239Y-120166037D03*
X33491239Y-120166037D03*
D46*
X62606239Y-97041037D03*
X62606239Y-98841037D03*
X64106239Y-97041037D03*
X64106239Y-98841037D03*
D47*
X60406239Y-99891037D03*
X60406239Y-99241037D03*
X60406239Y-98591037D03*
X60406239Y-97941037D03*
X60406239Y-97291037D03*
X60406239Y-96641037D03*
X60406239Y-95991037D03*
X66306239Y-95991037D03*
X66306239Y-96641037D03*
X66306239Y-97291037D03*
X66306239Y-97941037D03*
X66306239Y-98591037D03*
X66306239Y-99241037D03*
X66306239Y-99891037D03*
D48*
X30991239Y-116356037D03*
X33491239Y-116356037D03*
D24*
X38358739Y-78256037D03*
X40358739Y-78256037D03*
D31*
X81241239Y-50316037D03*
D23*
X47211239Y-82066037D03*
X45211239Y-82066037D03*
D31*
X32241239Y-108316037D03*
D30*
X32241239Y-85876037D03*
X34291239Y-85876037D03*
D49*
X34316239Y-97306037D03*
X32241239Y-97306037D03*
D30*
X32241239Y-89686037D03*
X34291239Y-89686037D03*
D49*
X40666239Y-93496037D03*
X38591239Y-93496037D03*
X34316239Y-78256037D03*
X32241239Y-78256037D03*
D50*
X50776239Y-61111037D03*
X50776239Y-62411037D03*
X48116239Y-62411037D03*
X48116239Y-61761037D03*
X48116239Y-61111037D03*
D23*
X40591239Y-89686037D03*
X38591239Y-89686037D03*
X40591239Y-85876037D03*
X38591239Y-85876037D03*
D49*
X40666239Y-97306037D03*
X38591239Y-97306037D03*
X34316239Y-82066037D03*
X32241239Y-82066037D03*
X34316239Y-101116037D03*
X32241239Y-101116037D03*
D30*
X40496239Y-104926037D03*
X38446239Y-104926037D03*
X46601239Y-101116037D03*
X44551239Y-101116037D03*
%LPD*%
M02*
