%TF.GenerationSoftware,KiCad,Pcbnew,8.0.5*%
%TF.CreationDate,2024-11-16T16:01:40-06:00*%
%TF.ProjectId,ControllerPCB,436f6e74-726f-46c6-9c65-725043422e6b,rev?*%
%TF.SameCoordinates,Original*%
%TF.FileFunction,Paste,Top*%
%TF.FilePolarity,Positive*%
%FSLAX46Y46*%
G04 Gerber Fmt 4.6, Leading zero omitted, Abs format (unit mm)*
G04 Created by KiCad (PCBNEW 8.0.5) date 2024-11-16 16:01:40*
%MOMM*%
%LPD*%
G01*
G04 APERTURE LIST*
G04 Aperture macros list*
%AMRoundRect*
0 Rectangle with rounded corners*
0 $1 Rounding radius*
0 $2 $3 $4 $5 $6 $7 $8 $9 X,Y pos of 4 corners*
0 Add a 4 corners polygon primitive as box body*
4,1,4,$2,$3,$4,$5,$6,$7,$8,$9,$2,$3,0*
0 Add four circle primitives for the rounded corners*
1,1,$1+$1,$2,$3*
1,1,$1+$1,$4,$5*
1,1,$1+$1,$6,$7*
1,1,$1+$1,$8,$9*
0 Add four rect primitives between the rounded corners*
20,1,$1+$1,$2,$3,$4,$5,0*
20,1,$1+$1,$4,$5,$6,$7,0*
20,1,$1+$1,$6,$7,$8,$9,0*
20,1,$1+$1,$8,$9,$2,$3,0*%
G04 Aperture macros list end*
%ADD10R,1.500000X0.900000*%
%ADD11R,0.300000X0.850000*%
%ADD12R,0.400000X1.350000*%
%ADD13R,2.900000X1.900000*%
%ADD14R,0.558800X0.952500*%
%ADD15RoundRect,0.250000X0.350000X0.450000X-0.350000X0.450000X-0.350000X-0.450000X0.350000X-0.450000X0*%
%ADD16RoundRect,0.250000X-0.350000X-0.450000X0.350000X-0.450000X0.350000X0.450000X-0.350000X0.450000X0*%
%ADD17RoundRect,0.250000X2.050000X0.300000X-2.050000X0.300000X-2.050000X-0.300000X2.050000X-0.300000X0*%
%ADD18RoundRect,0.250000X2.025000X2.375000X-2.025000X2.375000X-2.025000X-2.375000X2.025000X-2.375000X0*%
%ADD19RoundRect,0.250000X-0.325000X-0.450000X0.325000X-0.450000X0.325000X0.450000X-0.325000X0.450000X0*%
%ADD20R,0.900000X1.500000*%
%ADD21R,1.000000X1.000000*%
%ADD22RoundRect,0.250000X-0.337500X-0.475000X0.337500X-0.475000X0.337500X0.475000X-0.337500X0.475000X0*%
%ADD23RoundRect,0.375000X-0.625000X-0.375000X0.625000X-0.375000X0.625000X0.375000X-0.625000X0.375000X0*%
%ADD24RoundRect,0.500000X-0.500000X-1.400000X0.500000X-1.400000X0.500000X1.400000X-0.500000X1.400000X0*%
%ADD25RoundRect,0.250000X-0.250000X-0.250000X0.250000X-0.250000X0.250000X0.250000X-0.250000X0.250000X0*%
%ADD26R,1.100000X1.400000*%
%ADD27R,1.450000X0.450000*%
%ADD28RoundRect,0.250000X0.250000X0.250000X-0.250000X0.250000X-0.250000X-0.250000X0.250000X-0.250000X0*%
%ADD29RoundRect,0.250000X0.337500X0.475000X-0.337500X0.475000X-0.337500X-0.475000X0.337500X-0.475000X0*%
%ADD30RoundRect,0.100000X-0.650000X-0.100000X0.650000X-0.100000X0.650000X0.100000X-0.650000X0.100000X0*%
G04 APERTURE END LIST*
D10*
X72336239Y-96291037D03*
X72336239Y-99591037D03*
X77236239Y-99591037D03*
X77236239Y-96291037D03*
D11*
X36901643Y-129842442D03*
X43901643Y-129842442D03*
D12*
X41701643Y-127167442D03*
X41051643Y-127167442D03*
X40401643Y-127167442D03*
X39751643Y-127167442D03*
X39101643Y-127167442D03*
D13*
X40401643Y-129842442D03*
D14*
X76005439Y-48404687D03*
X76005439Y-54767387D03*
X72297039Y-48404687D03*
X72297039Y-54767387D03*
D15*
X46708739Y-97306037D03*
X44708739Y-97306037D03*
X40358739Y-82066037D03*
X38358739Y-82066037D03*
D14*
X69655439Y-48404687D03*
X69655439Y-54767387D03*
X65947039Y-48404687D03*
X65947039Y-54767387D03*
D16*
X44978739Y-89686037D03*
X46978739Y-89686037D03*
D17*
X50051239Y-50081037D03*
D18*
X38476239Y-49846037D03*
X38476239Y-55396037D03*
X43326239Y-49846037D03*
X43326239Y-55396037D03*
D17*
X50051239Y-52621037D03*
X50051239Y-55161037D03*
D19*
X32241239Y-93496037D03*
X34291239Y-93496037D03*
D20*
X83845239Y-72147637D03*
X82575239Y-72147637D03*
X81305239Y-72147637D03*
X80035239Y-72147637D03*
X78765239Y-72147637D03*
X77495239Y-72147637D03*
X76225239Y-72147637D03*
X74955239Y-72147637D03*
X73685239Y-72147637D03*
X72415239Y-72147637D03*
X71145239Y-72147637D03*
X69875239Y-72147637D03*
X68605239Y-72147637D03*
X67335239Y-72147637D03*
D10*
X66085239Y-73912637D03*
X66085239Y-75182637D03*
X66085239Y-76452637D03*
X66085239Y-77722637D03*
X66085239Y-78992637D03*
X66085239Y-80262637D03*
X66085239Y-81532637D03*
X66085239Y-82802637D03*
X66085239Y-84072637D03*
X66085239Y-85342637D03*
X66085239Y-86612637D03*
X66085239Y-87882637D03*
D20*
X67335239Y-89647637D03*
X68605239Y-89647637D03*
X69875239Y-89647637D03*
X71145239Y-89647637D03*
X72415239Y-89647637D03*
X73685239Y-89647637D03*
X74955239Y-89647637D03*
X76225239Y-89647637D03*
X77495239Y-89647637D03*
X78765239Y-89647637D03*
X80035239Y-89647637D03*
X81305239Y-89647637D03*
X82575239Y-89647637D03*
X83845239Y-89647637D03*
D21*
X79995239Y-78037637D03*
X78495239Y-78037637D03*
X76995239Y-78037637D03*
X79995239Y-79537637D03*
X78495239Y-79537637D03*
X76995239Y-79537637D03*
X79995239Y-81037637D03*
X78495239Y-81037637D03*
X76995239Y-81037637D03*
D22*
X44941239Y-85876037D03*
X47016239Y-85876037D03*
X38591239Y-101116037D03*
X40666239Y-101116037D03*
D23*
X40521239Y-67066037D03*
X40521239Y-69366037D03*
D24*
X46821239Y-69366037D03*
D23*
X40521239Y-71666037D03*
D16*
X44708739Y-93496037D03*
X46708739Y-93496037D03*
X44957239Y-78256037D03*
X46957239Y-78256037D03*
D25*
X30991239Y-120166037D03*
X33491239Y-120166037D03*
D26*
X62606239Y-97041037D03*
X62606239Y-98841037D03*
X64106239Y-97041037D03*
X64106239Y-98841037D03*
D27*
X60406239Y-99891037D03*
X60406239Y-99241037D03*
X60406239Y-98591037D03*
X60406239Y-97941037D03*
X60406239Y-97291037D03*
X60406239Y-96641037D03*
X60406239Y-95991037D03*
X66306239Y-95991037D03*
X66306239Y-96641037D03*
X66306239Y-97291037D03*
X66306239Y-97941037D03*
X66306239Y-98591037D03*
X66306239Y-99241037D03*
X66306239Y-99891037D03*
D28*
X30991239Y-116356037D03*
X33491239Y-116356037D03*
D16*
X38358739Y-78256037D03*
X40358739Y-78256037D03*
D15*
X47211239Y-82066037D03*
X45211239Y-82066037D03*
D19*
X32241239Y-85876037D03*
X34291239Y-85876037D03*
D29*
X34316239Y-97306037D03*
X32241239Y-97306037D03*
D19*
X32241239Y-89686037D03*
X34291239Y-89686037D03*
D29*
X40666239Y-93496037D03*
X38591239Y-93496037D03*
X34316239Y-78256037D03*
X32241239Y-78256037D03*
D30*
X50776239Y-61111037D03*
X50776239Y-62411037D03*
X48116239Y-62411037D03*
X48116239Y-61761037D03*
X48116239Y-61111037D03*
D15*
X40591239Y-89686037D03*
X38591239Y-89686037D03*
X40591239Y-85876037D03*
X38591239Y-85876037D03*
D29*
X40666239Y-97306037D03*
X38591239Y-97306037D03*
X34316239Y-82066037D03*
X32241239Y-82066037D03*
X34316239Y-101116037D03*
X32241239Y-101116037D03*
D19*
X40496239Y-104926037D03*
X38446239Y-104926037D03*
X46601239Y-101116037D03*
X44551239Y-101116037D03*
M02*
