%TF.GenerationSoftware,KiCad,Pcbnew,8.0.5*%
%TF.CreationDate,2024-10-10T20:56:25-06:00*%
%TF.ProjectId,PancakeCNCPCB,50616e63-616b-4654-934e-435043422e6b,rev?*%
%TF.SameCoordinates,Original*%
%TF.FileFunction,Drillmap*%
%TF.FilePolarity,Positive*%
%FSLAX45Y45*%
G04 Gerber Fmt 4.5, Leading zero omitted, Abs format (unit mm)*
G04 Created by KiCad (PCBNEW 8.0.5) date 2024-10-10 20:56:25*
%MOMM*%
%LPD*%
G01*
G04 APERTURE LIST*
%ADD10C,0.050000*%
%ADD11C,0.200000*%
%ADD12C,0.100000*%
G04 APERTURE END LIST*
D10*
X2300000Y-7100000D02*
X2300000Y-11100000D01*
X2800000Y-6600000D02*
X2300000Y-7100000D01*
X2800000Y-5100000D02*
X2800000Y-6600000D01*
X2800000Y-11600000D02*
X2300000Y-11100000D01*
X2800000Y-13100000D02*
X2800000Y-11600000D01*
X7300000Y-4600000D02*
X3300000Y-4600000D01*
X7300000Y-4600000D02*
G75*
G02*
X7800000Y-5100000I0J-500000D01*
G01*
X7800000Y-13100000D02*
X7800000Y-5100000D01*
X7800000Y-13100000D02*
G75*
G02*
X7300000Y-13600000I-500000J0D01*
G01*
X3300000Y-13600000D02*
X7300000Y-13600000D01*
X3300000Y-13600000D02*
G75*
G02*
X2800000Y-13100000I0J500000D01*
G01*
X2800000Y-5100000D02*
G75*
G02*
X3300000Y-4600000I500000J0D01*
G01*
D11*
D12*
X4555000Y-7879000D02*
X4585000Y-7909000D01*
X4585000Y-7879000D02*
X4555000Y-7909000D01*
D11*
X2558277Y-13913984D02*
X2558277Y-13713984D01*
X2558277Y-13713984D02*
X2605896Y-13713984D01*
X2605896Y-13713984D02*
X2634467Y-13723508D01*
X2634467Y-13723508D02*
X2653515Y-13742555D01*
X2653515Y-13742555D02*
X2663039Y-13761603D01*
X2663039Y-13761603D02*
X2672563Y-13799698D01*
X2672563Y-13799698D02*
X2672563Y-13828269D01*
X2672563Y-13828269D02*
X2663039Y-13866365D01*
X2663039Y-13866365D02*
X2653515Y-13885412D01*
X2653515Y-13885412D02*
X2634467Y-13904460D01*
X2634467Y-13904460D02*
X2605896Y-13913984D01*
X2605896Y-13913984D02*
X2558277Y-13913984D01*
X2758277Y-13913984D02*
X2758277Y-13780650D01*
X2758277Y-13818746D02*
X2767801Y-13799698D01*
X2767801Y-13799698D02*
X2777324Y-13790174D01*
X2777324Y-13790174D02*
X2796372Y-13780650D01*
X2796372Y-13780650D02*
X2815420Y-13780650D01*
X2882086Y-13913984D02*
X2882086Y-13780650D01*
X2882086Y-13713984D02*
X2872562Y-13723508D01*
X2872562Y-13723508D02*
X2882086Y-13733031D01*
X2882086Y-13733031D02*
X2891610Y-13723508D01*
X2891610Y-13723508D02*
X2882086Y-13713984D01*
X2882086Y-13713984D02*
X2882086Y-13733031D01*
X3005896Y-13913984D02*
X2986848Y-13904460D01*
X2986848Y-13904460D02*
X2977324Y-13885412D01*
X2977324Y-13885412D02*
X2977324Y-13713984D01*
X3110658Y-13913984D02*
X3091610Y-13904460D01*
X3091610Y-13904460D02*
X3082086Y-13885412D01*
X3082086Y-13885412D02*
X3082086Y-13713984D01*
X3339229Y-13913984D02*
X3339229Y-13713984D01*
X3339229Y-13713984D02*
X3405896Y-13856841D01*
X3405896Y-13856841D02*
X3472562Y-13713984D01*
X3472562Y-13713984D02*
X3472562Y-13913984D01*
X3653515Y-13913984D02*
X3653515Y-13809222D01*
X3653515Y-13809222D02*
X3643991Y-13790174D01*
X3643991Y-13790174D02*
X3624943Y-13780650D01*
X3624943Y-13780650D02*
X3586848Y-13780650D01*
X3586848Y-13780650D02*
X3567801Y-13790174D01*
X3653515Y-13904460D02*
X3634467Y-13913984D01*
X3634467Y-13913984D02*
X3586848Y-13913984D01*
X3586848Y-13913984D02*
X3567801Y-13904460D01*
X3567801Y-13904460D02*
X3558277Y-13885412D01*
X3558277Y-13885412D02*
X3558277Y-13866365D01*
X3558277Y-13866365D02*
X3567801Y-13847317D01*
X3567801Y-13847317D02*
X3586848Y-13837793D01*
X3586848Y-13837793D02*
X3634467Y-13837793D01*
X3634467Y-13837793D02*
X3653515Y-13828269D01*
X3748753Y-13780650D02*
X3748753Y-13980650D01*
X3748753Y-13790174D02*
X3767801Y-13780650D01*
X3767801Y-13780650D02*
X3805896Y-13780650D01*
X3805896Y-13780650D02*
X3824943Y-13790174D01*
X3824943Y-13790174D02*
X3834467Y-13799698D01*
X3834467Y-13799698D02*
X3843991Y-13818746D01*
X3843991Y-13818746D02*
X3843991Y-13875888D01*
X3843991Y-13875888D02*
X3834467Y-13894936D01*
X3834467Y-13894936D02*
X3824943Y-13904460D01*
X3824943Y-13904460D02*
X3805896Y-13913984D01*
X3805896Y-13913984D02*
X3767801Y-13913984D01*
X3767801Y-13913984D02*
X3748753Y-13904460D01*
X3929705Y-13894936D02*
X3939229Y-13904460D01*
X3939229Y-13904460D02*
X3929705Y-13913984D01*
X3929705Y-13913984D02*
X3920182Y-13904460D01*
X3920182Y-13904460D02*
X3929705Y-13894936D01*
X3929705Y-13894936D02*
X3929705Y-13913984D01*
X3929705Y-13790174D02*
X3939229Y-13799698D01*
X3939229Y-13799698D02*
X3929705Y-13809222D01*
X3929705Y-13809222D02*
X3920182Y-13799698D01*
X3920182Y-13799698D02*
X3929705Y-13790174D01*
X3929705Y-13790174D02*
X3929705Y-13809222D01*
D12*
X2267500Y-14227500D02*
X2297500Y-14257500D01*
X2297500Y-14227500D02*
X2267500Y-14257500D01*
D11*
X2596372Y-14133984D02*
X2615420Y-14133984D01*
X2615420Y-14133984D02*
X2634467Y-14143508D01*
X2634467Y-14143508D02*
X2643991Y-14153031D01*
X2643991Y-14153031D02*
X2653515Y-14172079D01*
X2653515Y-14172079D02*
X2663039Y-14210174D01*
X2663039Y-14210174D02*
X2663039Y-14257793D01*
X2663039Y-14257793D02*
X2653515Y-14295888D01*
X2653515Y-14295888D02*
X2643991Y-14314936D01*
X2643991Y-14314936D02*
X2634467Y-14324460D01*
X2634467Y-14324460D02*
X2615420Y-14333984D01*
X2615420Y-14333984D02*
X2596372Y-14333984D01*
X2596372Y-14333984D02*
X2577324Y-14324460D01*
X2577324Y-14324460D02*
X2567801Y-14314936D01*
X2567801Y-14314936D02*
X2558277Y-14295888D01*
X2558277Y-14295888D02*
X2548753Y-14257793D01*
X2548753Y-14257793D02*
X2548753Y-14210174D01*
X2548753Y-14210174D02*
X2558277Y-14172079D01*
X2558277Y-14172079D02*
X2567801Y-14153031D01*
X2567801Y-14153031D02*
X2577324Y-14143508D01*
X2577324Y-14143508D02*
X2596372Y-14133984D01*
X2748753Y-14314936D02*
X2758277Y-14324460D01*
X2758277Y-14324460D02*
X2748753Y-14333984D01*
X2748753Y-14333984D02*
X2739229Y-14324460D01*
X2739229Y-14324460D02*
X2748753Y-14314936D01*
X2748753Y-14314936D02*
X2748753Y-14333984D01*
X2824943Y-14133984D02*
X2948753Y-14133984D01*
X2948753Y-14133984D02*
X2882086Y-14210174D01*
X2882086Y-14210174D02*
X2910658Y-14210174D01*
X2910658Y-14210174D02*
X2929705Y-14219698D01*
X2929705Y-14219698D02*
X2939229Y-14229222D01*
X2939229Y-14229222D02*
X2948753Y-14248269D01*
X2948753Y-14248269D02*
X2948753Y-14295888D01*
X2948753Y-14295888D02*
X2939229Y-14314936D01*
X2939229Y-14314936D02*
X2929705Y-14324460D01*
X2929705Y-14324460D02*
X2910658Y-14333984D01*
X2910658Y-14333984D02*
X2853515Y-14333984D01*
X2853515Y-14333984D02*
X2834467Y-14324460D01*
X2834467Y-14324460D02*
X2824943Y-14314936D01*
X3072562Y-14133984D02*
X3091610Y-14133984D01*
X3091610Y-14133984D02*
X3110658Y-14143508D01*
X3110658Y-14143508D02*
X3120182Y-14153031D01*
X3120182Y-14153031D02*
X3129705Y-14172079D01*
X3129705Y-14172079D02*
X3139229Y-14210174D01*
X3139229Y-14210174D02*
X3139229Y-14257793D01*
X3139229Y-14257793D02*
X3129705Y-14295888D01*
X3129705Y-14295888D02*
X3120182Y-14314936D01*
X3120182Y-14314936D02*
X3110658Y-14324460D01*
X3110658Y-14324460D02*
X3091610Y-14333984D01*
X3091610Y-14333984D02*
X3072562Y-14333984D01*
X3072562Y-14333984D02*
X3053515Y-14324460D01*
X3053515Y-14324460D02*
X3043991Y-14314936D01*
X3043991Y-14314936D02*
X3034467Y-14295888D01*
X3034467Y-14295888D02*
X3024943Y-14257793D01*
X3024943Y-14257793D02*
X3024943Y-14210174D01*
X3024943Y-14210174D02*
X3034467Y-14172079D01*
X3034467Y-14172079D02*
X3043991Y-14153031D01*
X3043991Y-14153031D02*
X3053515Y-14143508D01*
X3053515Y-14143508D02*
X3072562Y-14133984D01*
X3263039Y-14133984D02*
X3282086Y-14133984D01*
X3282086Y-14133984D02*
X3301134Y-14143508D01*
X3301134Y-14143508D02*
X3310658Y-14153031D01*
X3310658Y-14153031D02*
X3320182Y-14172079D01*
X3320182Y-14172079D02*
X3329705Y-14210174D01*
X3329705Y-14210174D02*
X3329705Y-14257793D01*
X3329705Y-14257793D02*
X3320182Y-14295888D01*
X3320182Y-14295888D02*
X3310658Y-14314936D01*
X3310658Y-14314936D02*
X3301134Y-14324460D01*
X3301134Y-14324460D02*
X3282086Y-14333984D01*
X3282086Y-14333984D02*
X3263039Y-14333984D01*
X3263039Y-14333984D02*
X3243991Y-14324460D01*
X3243991Y-14324460D02*
X3234467Y-14314936D01*
X3234467Y-14314936D02*
X3224943Y-14295888D01*
X3224943Y-14295888D02*
X3215420Y-14257793D01*
X3215420Y-14257793D02*
X3215420Y-14210174D01*
X3215420Y-14210174D02*
X3224943Y-14172079D01*
X3224943Y-14172079D02*
X3234467Y-14153031D01*
X3234467Y-14153031D02*
X3243991Y-14143508D01*
X3243991Y-14143508D02*
X3263039Y-14133984D01*
X3415420Y-14333984D02*
X3415420Y-14200650D01*
X3415420Y-14219698D02*
X3424943Y-14210174D01*
X3424943Y-14210174D02*
X3443991Y-14200650D01*
X3443991Y-14200650D02*
X3472563Y-14200650D01*
X3472563Y-14200650D02*
X3491610Y-14210174D01*
X3491610Y-14210174D02*
X3501134Y-14229222D01*
X3501134Y-14229222D02*
X3501134Y-14333984D01*
X3501134Y-14229222D02*
X3510658Y-14210174D01*
X3510658Y-14210174D02*
X3529705Y-14200650D01*
X3529705Y-14200650D02*
X3558277Y-14200650D01*
X3558277Y-14200650D02*
X3577324Y-14210174D01*
X3577324Y-14210174D02*
X3586848Y-14229222D01*
X3586848Y-14229222D02*
X3586848Y-14333984D01*
X3682086Y-14333984D02*
X3682086Y-14200650D01*
X3682086Y-14219698D02*
X3691610Y-14210174D01*
X3691610Y-14210174D02*
X3710658Y-14200650D01*
X3710658Y-14200650D02*
X3739229Y-14200650D01*
X3739229Y-14200650D02*
X3758277Y-14210174D01*
X3758277Y-14210174D02*
X3767801Y-14229222D01*
X3767801Y-14229222D02*
X3767801Y-14333984D01*
X3767801Y-14229222D02*
X3777324Y-14210174D01*
X3777324Y-14210174D02*
X3796372Y-14200650D01*
X3796372Y-14200650D02*
X3824943Y-14200650D01*
X3824943Y-14200650D02*
X3843991Y-14210174D01*
X3843991Y-14210174D02*
X3853515Y-14229222D01*
X3853515Y-14229222D02*
X3853515Y-14333984D01*
X4243991Y-14124460D02*
X4072563Y-14381603D01*
X4501134Y-14133984D02*
X4520182Y-14133984D01*
X4520182Y-14133984D02*
X4539229Y-14143508D01*
X4539229Y-14143508D02*
X4548753Y-14153031D01*
X4548753Y-14153031D02*
X4558277Y-14172079D01*
X4558277Y-14172079D02*
X4567801Y-14210174D01*
X4567801Y-14210174D02*
X4567801Y-14257793D01*
X4567801Y-14257793D02*
X4558277Y-14295888D01*
X4558277Y-14295888D02*
X4548753Y-14314936D01*
X4548753Y-14314936D02*
X4539229Y-14324460D01*
X4539229Y-14324460D02*
X4520182Y-14333984D01*
X4520182Y-14333984D02*
X4501134Y-14333984D01*
X4501134Y-14333984D02*
X4482087Y-14324460D01*
X4482087Y-14324460D02*
X4472563Y-14314936D01*
X4472563Y-14314936D02*
X4463039Y-14295888D01*
X4463039Y-14295888D02*
X4453515Y-14257793D01*
X4453515Y-14257793D02*
X4453515Y-14210174D01*
X4453515Y-14210174D02*
X4463039Y-14172079D01*
X4463039Y-14172079D02*
X4472563Y-14153031D01*
X4472563Y-14153031D02*
X4482087Y-14143508D01*
X4482087Y-14143508D02*
X4501134Y-14133984D01*
X4653515Y-14314936D02*
X4663039Y-14324460D01*
X4663039Y-14324460D02*
X4653515Y-14333984D01*
X4653515Y-14333984D02*
X4643991Y-14324460D01*
X4643991Y-14324460D02*
X4653515Y-14314936D01*
X4653515Y-14314936D02*
X4653515Y-14333984D01*
X4786848Y-14133984D02*
X4805896Y-14133984D01*
X4805896Y-14133984D02*
X4824944Y-14143508D01*
X4824944Y-14143508D02*
X4834468Y-14153031D01*
X4834468Y-14153031D02*
X4843991Y-14172079D01*
X4843991Y-14172079D02*
X4853515Y-14210174D01*
X4853515Y-14210174D02*
X4853515Y-14257793D01*
X4853515Y-14257793D02*
X4843991Y-14295888D01*
X4843991Y-14295888D02*
X4834468Y-14314936D01*
X4834468Y-14314936D02*
X4824944Y-14324460D01*
X4824944Y-14324460D02*
X4805896Y-14333984D01*
X4805896Y-14333984D02*
X4786848Y-14333984D01*
X4786848Y-14333984D02*
X4767801Y-14324460D01*
X4767801Y-14324460D02*
X4758277Y-14314936D01*
X4758277Y-14314936D02*
X4748753Y-14295888D01*
X4748753Y-14295888D02*
X4739229Y-14257793D01*
X4739229Y-14257793D02*
X4739229Y-14210174D01*
X4739229Y-14210174D02*
X4748753Y-14172079D01*
X4748753Y-14172079D02*
X4758277Y-14153031D01*
X4758277Y-14153031D02*
X4767801Y-14143508D01*
X4767801Y-14143508D02*
X4786848Y-14133984D01*
X5043991Y-14333984D02*
X4929706Y-14333984D01*
X4986848Y-14333984D02*
X4986848Y-14133984D01*
X4986848Y-14133984D02*
X4967801Y-14162555D01*
X4967801Y-14162555D02*
X4948753Y-14181603D01*
X4948753Y-14181603D02*
X4929706Y-14191127D01*
X5234468Y-14333984D02*
X5120182Y-14333984D01*
X5177325Y-14333984D02*
X5177325Y-14133984D01*
X5177325Y-14133984D02*
X5158277Y-14162555D01*
X5158277Y-14162555D02*
X5139229Y-14181603D01*
X5139229Y-14181603D02*
X5120182Y-14191127D01*
X5348753Y-14219698D02*
X5329706Y-14210174D01*
X5329706Y-14210174D02*
X5320182Y-14200650D01*
X5320182Y-14200650D02*
X5310658Y-14181603D01*
X5310658Y-14181603D02*
X5310658Y-14172079D01*
X5310658Y-14172079D02*
X5320182Y-14153031D01*
X5320182Y-14153031D02*
X5329706Y-14143508D01*
X5329706Y-14143508D02*
X5348753Y-14133984D01*
X5348753Y-14133984D02*
X5386849Y-14133984D01*
X5386849Y-14133984D02*
X5405896Y-14143508D01*
X5405896Y-14143508D02*
X5415420Y-14153031D01*
X5415420Y-14153031D02*
X5424944Y-14172079D01*
X5424944Y-14172079D02*
X5424944Y-14181603D01*
X5424944Y-14181603D02*
X5415420Y-14200650D01*
X5415420Y-14200650D02*
X5405896Y-14210174D01*
X5405896Y-14210174D02*
X5386849Y-14219698D01*
X5386849Y-14219698D02*
X5348753Y-14219698D01*
X5348753Y-14219698D02*
X5329706Y-14229222D01*
X5329706Y-14229222D02*
X5320182Y-14238746D01*
X5320182Y-14238746D02*
X5310658Y-14257793D01*
X5310658Y-14257793D02*
X5310658Y-14295888D01*
X5310658Y-14295888D02*
X5320182Y-14314936D01*
X5320182Y-14314936D02*
X5329706Y-14324460D01*
X5329706Y-14324460D02*
X5348753Y-14333984D01*
X5348753Y-14333984D02*
X5386849Y-14333984D01*
X5386849Y-14333984D02*
X5405896Y-14324460D01*
X5405896Y-14324460D02*
X5415420Y-14314936D01*
X5415420Y-14314936D02*
X5424944Y-14295888D01*
X5424944Y-14295888D02*
X5424944Y-14257793D01*
X5424944Y-14257793D02*
X5415420Y-14238746D01*
X5415420Y-14238746D02*
X5405896Y-14229222D01*
X5405896Y-14229222D02*
X5386849Y-14219698D01*
X5501134Y-14133984D02*
X5501134Y-14172079D01*
X5577325Y-14133984D02*
X5577325Y-14172079D01*
X5872563Y-14410174D02*
X5863039Y-14400650D01*
X5863039Y-14400650D02*
X5843991Y-14372079D01*
X5843991Y-14372079D02*
X5834468Y-14353031D01*
X5834468Y-14353031D02*
X5824944Y-14324460D01*
X5824944Y-14324460D02*
X5815420Y-14276841D01*
X5815420Y-14276841D02*
X5815420Y-14238746D01*
X5815420Y-14238746D02*
X5824944Y-14191127D01*
X5824944Y-14191127D02*
X5834468Y-14162555D01*
X5834468Y-14162555D02*
X5843991Y-14143508D01*
X5843991Y-14143508D02*
X5863039Y-14114936D01*
X5863039Y-14114936D02*
X5872563Y-14105412D01*
X6053515Y-14333984D02*
X5939229Y-14333984D01*
X5996372Y-14333984D02*
X5996372Y-14133984D01*
X5996372Y-14133984D02*
X5977325Y-14162555D01*
X5977325Y-14162555D02*
X5958277Y-14181603D01*
X5958277Y-14181603D02*
X5939229Y-14191127D01*
X6291610Y-14333984D02*
X6291610Y-14133984D01*
X6377325Y-14333984D02*
X6377325Y-14229222D01*
X6377325Y-14229222D02*
X6367801Y-14210174D01*
X6367801Y-14210174D02*
X6348753Y-14200650D01*
X6348753Y-14200650D02*
X6320182Y-14200650D01*
X6320182Y-14200650D02*
X6301134Y-14210174D01*
X6301134Y-14210174D02*
X6291610Y-14219698D01*
X6501134Y-14333984D02*
X6482087Y-14324460D01*
X6482087Y-14324460D02*
X6472563Y-14314936D01*
X6472563Y-14314936D02*
X6463039Y-14295888D01*
X6463039Y-14295888D02*
X6463039Y-14238746D01*
X6463039Y-14238746D02*
X6472563Y-14219698D01*
X6472563Y-14219698D02*
X6482087Y-14210174D01*
X6482087Y-14210174D02*
X6501134Y-14200650D01*
X6501134Y-14200650D02*
X6529706Y-14200650D01*
X6529706Y-14200650D02*
X6548753Y-14210174D01*
X6548753Y-14210174D02*
X6558277Y-14219698D01*
X6558277Y-14219698D02*
X6567801Y-14238746D01*
X6567801Y-14238746D02*
X6567801Y-14295888D01*
X6567801Y-14295888D02*
X6558277Y-14314936D01*
X6558277Y-14314936D02*
X6548753Y-14324460D01*
X6548753Y-14324460D02*
X6529706Y-14333984D01*
X6529706Y-14333984D02*
X6501134Y-14333984D01*
X6682087Y-14333984D02*
X6663039Y-14324460D01*
X6663039Y-14324460D02*
X6653515Y-14305412D01*
X6653515Y-14305412D02*
X6653515Y-14133984D01*
X6834468Y-14324460D02*
X6815420Y-14333984D01*
X6815420Y-14333984D02*
X6777325Y-14333984D01*
X6777325Y-14333984D02*
X6758277Y-14324460D01*
X6758277Y-14324460D02*
X6748753Y-14305412D01*
X6748753Y-14305412D02*
X6748753Y-14229222D01*
X6748753Y-14229222D02*
X6758277Y-14210174D01*
X6758277Y-14210174D02*
X6777325Y-14200650D01*
X6777325Y-14200650D02*
X6815420Y-14200650D01*
X6815420Y-14200650D02*
X6834468Y-14210174D01*
X6834468Y-14210174D02*
X6843991Y-14229222D01*
X6843991Y-14229222D02*
X6843991Y-14248269D01*
X6843991Y-14248269D02*
X6748753Y-14267317D01*
X6910658Y-14410174D02*
X6920182Y-14400650D01*
X6920182Y-14400650D02*
X6939230Y-14372079D01*
X6939230Y-14372079D02*
X6948753Y-14353031D01*
X6948753Y-14353031D02*
X6958277Y-14324460D01*
X6958277Y-14324460D02*
X6967801Y-14276841D01*
X6967801Y-14276841D02*
X6967801Y-14238746D01*
X6967801Y-14238746D02*
X6958277Y-14191127D01*
X6958277Y-14191127D02*
X6948753Y-14162555D01*
X6948753Y-14162555D02*
X6939230Y-14143508D01*
X6939230Y-14143508D02*
X6920182Y-14114936D01*
X6920182Y-14114936D02*
X6910658Y-14105412D01*
M02*
