%TF.GenerationSoftware,KiCad,Pcbnew,8.0.5*%
%TF.CreationDate,2024-11-16T16:01:40-06:00*%
%TF.ProjectId,ControllerPCB,436f6e74-726f-46c6-9c65-725043422e6b,rev?*%
%TF.SameCoordinates,Original*%
%TF.FileFunction,Copper,L1,Top*%
%TF.FilePolarity,Positive*%
%FSLAX46Y46*%
G04 Gerber Fmt 4.6, Leading zero omitted, Abs format (unit mm)*
G04 Created by KiCad (PCBNEW 8.0.5) date 2024-11-16 16:01:40*
%MOMM*%
%LPD*%
G01*
G04 APERTURE LIST*
G04 Aperture macros list*
%AMRoundRect*
0 Rectangle with rounded corners*
0 $1 Rounding radius*
0 $2 $3 $4 $5 $6 $7 $8 $9 X,Y pos of 4 corners*
0 Add a 4 corners polygon primitive as box body*
4,1,4,$2,$3,$4,$5,$6,$7,$8,$9,$2,$3,0*
0 Add four circle primitives for the rounded corners*
1,1,$1+$1,$2,$3*
1,1,$1+$1,$4,$5*
1,1,$1+$1,$6,$7*
1,1,$1+$1,$8,$9*
0 Add four rect primitives between the rounded corners*
20,1,$1+$1,$2,$3,$4,$5,0*
20,1,$1+$1,$4,$5,$6,$7,0*
20,1,$1+$1,$6,$7,$8,$9,0*
20,1,$1+$1,$8,$9,$2,$3,0*%
G04 Aperture macros list end*
%TA.AperFunction,SMDPad,CuDef*%
%ADD10R,1.500000X0.900000*%
%TD*%
%TA.AperFunction,SMDPad,CuDef*%
%ADD11R,0.400000X1.350000*%
%TD*%
%TA.AperFunction,ComponentPad*%
%ADD12O,1.000000X1.900000*%
%TD*%
%TA.AperFunction,SMDPad,CuDef*%
%ADD13R,0.875000X1.900000*%
%TD*%
%TA.AperFunction,ComponentPad*%
%ADD14O,1.050000X1.250000*%
%TD*%
%TA.AperFunction,SMDPad,CuDef*%
%ADD15R,2.900000X1.900000*%
%TD*%
%TA.AperFunction,SMDPad,CuDef*%
%ADD16R,0.558800X0.952500*%
%TD*%
%TA.AperFunction,SMDPad,CuDef*%
%ADD17RoundRect,0.250000X0.350000X0.450000X-0.350000X0.450000X-0.350000X-0.450000X0.350000X-0.450000X0*%
%TD*%
%TA.AperFunction,SMDPad,CuDef*%
%ADD18RoundRect,0.250000X-0.350000X-0.450000X0.350000X-0.450000X0.350000X0.450000X-0.350000X0.450000X0*%
%TD*%
%TA.AperFunction,SMDPad,CuDef*%
%ADD19RoundRect,0.250000X2.050000X0.300000X-2.050000X0.300000X-2.050000X-0.300000X2.050000X-0.300000X0*%
%TD*%
%TA.AperFunction,SMDPad,CuDef*%
%ADD20RoundRect,0.250000X2.025000X2.375000X-2.025000X2.375000X-2.025000X-2.375000X2.025000X-2.375000X0*%
%TD*%
%TA.AperFunction,SMDPad,CuDef*%
%ADD21RoundRect,0.250002X4.449998X5.149998X-4.449998X5.149998X-4.449998X-5.149998X4.449998X-5.149998X0*%
%TD*%
%TA.AperFunction,ComponentPad*%
%ADD22R,1.700000X1.700000*%
%TD*%
%TA.AperFunction,ComponentPad*%
%ADD23O,1.700000X1.700000*%
%TD*%
%TA.AperFunction,ComponentPad*%
%ADD24C,1.651000*%
%TD*%
%TA.AperFunction,SMDPad,CuDef*%
%ADD25RoundRect,0.250000X-0.325000X-0.450000X0.325000X-0.450000X0.325000X0.450000X-0.325000X0.450000X0*%
%TD*%
%TA.AperFunction,WasherPad*%
%ADD26C,3.200000*%
%TD*%
%TA.AperFunction,SMDPad,CuDef*%
%ADD27R,0.900000X1.500000*%
%TD*%
%TA.AperFunction,SMDPad,CuDef*%
%ADD28R,1.000000X1.000000*%
%TD*%
%TA.AperFunction,ComponentPad*%
%ADD29C,0.600000*%
%TD*%
%TA.AperFunction,ComponentPad*%
%ADD30C,4.066000*%
%TD*%
%TA.AperFunction,ComponentPad*%
%ADD31C,1.575000*%
%TD*%
%TA.AperFunction,ComponentPad*%
%ADD32R,1.575000X1.575000*%
%TD*%
%TA.AperFunction,SMDPad,CuDef*%
%ADD33RoundRect,0.250000X-0.337500X-0.475000X0.337500X-0.475000X0.337500X0.475000X-0.337500X0.475000X0*%
%TD*%
%TA.AperFunction,ComponentPad*%
%ADD34RoundRect,0.250000X-0.725000X0.600000X-0.725000X-0.600000X0.725000X-0.600000X0.725000X0.600000X0*%
%TD*%
%TA.AperFunction,ComponentPad*%
%ADD35O,1.950000X1.700000*%
%TD*%
%TA.AperFunction,SMDPad,CuDef*%
%ADD36RoundRect,0.375000X-0.625000X-0.375000X0.625000X-0.375000X0.625000X0.375000X-0.625000X0.375000X0*%
%TD*%
%TA.AperFunction,SMDPad,CuDef*%
%ADD37RoundRect,0.500000X-0.500000X-1.400000X0.500000X-1.400000X0.500000X1.400000X-0.500000X1.400000X0*%
%TD*%
%TA.AperFunction,ComponentPad*%
%ADD38R,2.100000X2.100000*%
%TD*%
%TA.AperFunction,ComponentPad*%
%ADD39C,2.100000*%
%TD*%
%TA.AperFunction,SMDPad,CuDef*%
%ADD40RoundRect,0.250000X-0.250000X-0.250000X0.250000X-0.250000X0.250000X0.250000X-0.250000X0.250000X0*%
%TD*%
%TA.AperFunction,SMDPad,CuDef*%
%ADD41R,1.500000X1.800000*%
%TD*%
%TA.AperFunction,SMDPad,CuDef*%
%ADD42R,1.450000X0.450000*%
%TD*%
%TA.AperFunction,SMDPad,CuDef*%
%ADD43RoundRect,0.250000X0.250000X0.250000X-0.250000X0.250000X-0.250000X-0.250000X0.250000X-0.250000X0*%
%TD*%
%TA.AperFunction,SMDPad,CuDef*%
%ADD44RoundRect,0.250000X0.337500X0.475000X-0.337500X0.475000X-0.337500X-0.475000X0.337500X-0.475000X0*%
%TD*%
%TA.AperFunction,SMDPad,CuDef*%
%ADD45RoundRect,0.100000X-0.650000X-0.100000X0.650000X-0.100000X0.650000X0.100000X-0.650000X0.100000X0*%
%TD*%
%TA.AperFunction,ViaPad*%
%ADD46C,0.600000*%
%TD*%
%TA.AperFunction,ViaPad*%
%ADD47C,1.000000*%
%TD*%
%TA.AperFunction,ViaPad*%
%ADD48C,2.000000*%
%TD*%
%TA.AperFunction,Conductor*%
%ADD49C,0.200000*%
%TD*%
%TA.AperFunction,Conductor*%
%ADD50C,1.000000*%
%TD*%
%TA.AperFunction,Conductor*%
%ADD51C,0.800000*%
%TD*%
%TA.AperFunction,Conductor*%
%ADD52C,0.300000*%
%TD*%
%TA.AperFunction,Conductor*%
%ADD53C,1.500000*%
%TD*%
G04 APERTURE END LIST*
D10*
X72336239Y-96291037D03*
X72336239Y-99591037D03*
X77236239Y-99591037D03*
X77236239Y-96291037D03*
D11*
X41701643Y-127167442D03*
X41051643Y-127167442D03*
X40401643Y-127167442D03*
X39751643Y-127167442D03*
X39101643Y-127167442D03*
D12*
X36226643Y-129842442D03*
D13*
X36664143Y-129842442D03*
D14*
X38176643Y-126842442D03*
D15*
X40401643Y-129842442D03*
D14*
X42626643Y-126842442D03*
D13*
X44139143Y-129842442D03*
D12*
X44576643Y-129842442D03*
D16*
X76005439Y-48404687D03*
X76005439Y-54767387D03*
X72297039Y-48404687D03*
X72297039Y-54767387D03*
D17*
X46708739Y-97306037D03*
X44708739Y-97306037D03*
X40358739Y-82066037D03*
X38358739Y-82066037D03*
D16*
X69655439Y-48404687D03*
X69655439Y-54767387D03*
X65947039Y-48404687D03*
X65947039Y-54767387D03*
D18*
X44978739Y-89686037D03*
X46978739Y-89686037D03*
D19*
X50051239Y-50081037D03*
D20*
X38476239Y-49846037D03*
X38476239Y-55396037D03*
D21*
X40901239Y-52621037D03*
D20*
X43326239Y-49846037D03*
X43326239Y-55396037D03*
D19*
X50051239Y-52621037D03*
X50051239Y-55161037D03*
D22*
X31626239Y-68711037D03*
D23*
X31626239Y-71251037D03*
X34166239Y-68711037D03*
X34166239Y-71251037D03*
D24*
X81531239Y-60773237D03*
X79031239Y-60773237D03*
X76531239Y-60773237D03*
X74031239Y-60773237D03*
X71531239Y-60773237D03*
X69031239Y-60773237D03*
X66531239Y-60773237D03*
X64031239Y-60773237D03*
X61531239Y-60773237D03*
X59031239Y-60773237D03*
D25*
X32241239Y-93496037D03*
X34291239Y-93496037D03*
D24*
X70341239Y-108101037D03*
X67841239Y-108101037D03*
X65341239Y-108101037D03*
X62841239Y-108101037D03*
X60341239Y-108101037D03*
X57841239Y-108101037D03*
X55341239Y-108101037D03*
X52841239Y-108101037D03*
X50341239Y-108101037D03*
X47841239Y-108101037D03*
D26*
X32241239Y-50316037D03*
D27*
X83845239Y-72147637D03*
X82575239Y-72147637D03*
X81305239Y-72147637D03*
X80035239Y-72147637D03*
X78765239Y-72147637D03*
X77495239Y-72147637D03*
X76225239Y-72147637D03*
X74955239Y-72147637D03*
X73685239Y-72147637D03*
X72415239Y-72147637D03*
X71145239Y-72147637D03*
X69875239Y-72147637D03*
X68605239Y-72147637D03*
X67335239Y-72147637D03*
D10*
X66085239Y-73912637D03*
X66085239Y-75182637D03*
X66085239Y-76452637D03*
X66085239Y-77722637D03*
X66085239Y-78992637D03*
X66085239Y-80262637D03*
X66085239Y-81532637D03*
X66085239Y-82802637D03*
X66085239Y-84072637D03*
X66085239Y-85342637D03*
X66085239Y-86612637D03*
X66085239Y-87882637D03*
D27*
X67335239Y-89647637D03*
X68605239Y-89647637D03*
X69875239Y-89647637D03*
X71145239Y-89647637D03*
X72415239Y-89647637D03*
X73685239Y-89647637D03*
X74955239Y-89647637D03*
X76225239Y-89647637D03*
X77495239Y-89647637D03*
X78765239Y-89647637D03*
X80035239Y-89647637D03*
X81305239Y-89647637D03*
X82575239Y-89647637D03*
X83845239Y-89647637D03*
D28*
X79995239Y-78037637D03*
D29*
X79245239Y-78037637D03*
D28*
X78495239Y-78037637D03*
D29*
X77745239Y-78037637D03*
D28*
X76995239Y-78037637D03*
D29*
X79995239Y-78787637D03*
X78495239Y-78787637D03*
X76995239Y-78787637D03*
D28*
X79995239Y-79537637D03*
D29*
X79245239Y-79537637D03*
D28*
X78495239Y-79537637D03*
D29*
X77745239Y-79537637D03*
D28*
X76995239Y-79537637D03*
D29*
X79995239Y-80287637D03*
X78495239Y-80287637D03*
X76995239Y-80287637D03*
D28*
X79995239Y-81037637D03*
D29*
X79245239Y-81037637D03*
D28*
X78495239Y-81037637D03*
D29*
X77745239Y-81037637D03*
D28*
X76995239Y-81037637D03*
D30*
X52421239Y-123191037D03*
X77411239Y-123191037D03*
D31*
X69071239Y-124611037D03*
X66301239Y-124611037D03*
X63531239Y-124611037D03*
X60761239Y-124611037D03*
X70456239Y-121771037D03*
X67686239Y-121771037D03*
X64916239Y-121771037D03*
X62146239Y-121771037D03*
D32*
X59376239Y-121771037D03*
D33*
X44941239Y-85876037D03*
X47016239Y-85876037D03*
X38591239Y-101116037D03*
X40666239Y-101116037D03*
D26*
X81241239Y-108316037D03*
D34*
X55101239Y-52856037D03*
D35*
X55101239Y-55356037D03*
X55101239Y-57856037D03*
X55101239Y-60356037D03*
X55101239Y-62856037D03*
D36*
X40521239Y-67066037D03*
X40521239Y-69366037D03*
D37*
X46821239Y-69366037D03*
D36*
X40521239Y-71666037D03*
D18*
X44708739Y-93496037D03*
X46708739Y-93496037D03*
D38*
X60181239Y-51586037D03*
D39*
X62721239Y-51586037D03*
D18*
X44957239Y-78256037D03*
X46957239Y-78256037D03*
D40*
X30991239Y-120166037D03*
X33491239Y-120166037D03*
D41*
X62606239Y-97041037D03*
X62606239Y-98841037D03*
X64106239Y-97041037D03*
X64106239Y-98841037D03*
D42*
X60406239Y-99891037D03*
X60406239Y-99241037D03*
X60406239Y-98591037D03*
X60406239Y-97941037D03*
X60406239Y-97291037D03*
X60406239Y-96641037D03*
X60406239Y-95991037D03*
X66306239Y-95991037D03*
X66306239Y-96641037D03*
X66306239Y-97291037D03*
X66306239Y-97941037D03*
X66306239Y-98591037D03*
X66306239Y-99241037D03*
X66306239Y-99891037D03*
D43*
X30991239Y-116356037D03*
X33491239Y-116356037D03*
D18*
X38358739Y-78256037D03*
X40358739Y-78256037D03*
D26*
X81241239Y-50316037D03*
D17*
X47211239Y-82066037D03*
X45211239Y-82066037D03*
D26*
X32241239Y-108316037D03*
D25*
X32241239Y-85876037D03*
X34291239Y-85876037D03*
D44*
X34316239Y-97306037D03*
X32241239Y-97306037D03*
D25*
X32241239Y-89686037D03*
X34291239Y-89686037D03*
D44*
X40666239Y-93496037D03*
X38591239Y-93496037D03*
X34316239Y-78256037D03*
X32241239Y-78256037D03*
D45*
X50776239Y-61111037D03*
X50776239Y-62411037D03*
X48116239Y-62411037D03*
X48116239Y-61761037D03*
X48116239Y-61111037D03*
D17*
X40591239Y-89686037D03*
X38591239Y-89686037D03*
X40591239Y-85876037D03*
X38591239Y-85876037D03*
D44*
X40666239Y-97306037D03*
X38591239Y-97306037D03*
X34316239Y-82066037D03*
X32241239Y-82066037D03*
X34316239Y-101116037D03*
X32241239Y-101116037D03*
D25*
X40496239Y-104926037D03*
X38446239Y-104926037D03*
X46601239Y-101116037D03*
X44551239Y-101116037D03*
D46*
X54466239Y-113816037D03*
X74151239Y-74446037D03*
X59546239Y-90956037D03*
X70976239Y-75716037D03*
X37321239Y-103656037D03*
X48151239Y-96712064D03*
X41766239Y-78256037D03*
X41766239Y-103021037D03*
X49386239Y-78256037D03*
X69706239Y-101751037D03*
X58276239Y-96036037D03*
X78596239Y-98576037D03*
X74786239Y-97941037D03*
X58276239Y-97941037D03*
X51291239Y-59841037D03*
X37321239Y-83336037D03*
X33511239Y-118261037D03*
X35416239Y-120166037D03*
X39861239Y-106831037D03*
X68431239Y-73811037D03*
X40496239Y-108101037D03*
X67801239Y-74446037D03*
X60851239Y-70179564D03*
X61451239Y-78891037D03*
D47*
X83859979Y-92623591D03*
D46*
X72246239Y-84606037D03*
X74786239Y-56666037D03*
X76691239Y-73811037D03*
X58911239Y-112546037D03*
X62721239Y-84606037D03*
X64626239Y-92226037D03*
X63991239Y-81431037D03*
X69071239Y-94766037D03*
X63356239Y-78891037D03*
X46846239Y-64286037D03*
X58911239Y-73811037D03*
X74786239Y-103021037D03*
X62721239Y-106196037D03*
X81305239Y-98576037D03*
X56371239Y-83971037D03*
X56371239Y-101116037D03*
X57641239Y-103656037D03*
X53196239Y-89686037D03*
X48751239Y-86511037D03*
X43671239Y-80796037D03*
X36686239Y-92226037D03*
X34146239Y-98576037D03*
X67801239Y-95401037D03*
X67801239Y-100481037D03*
X70976239Y-56666037D03*
D48*
X82406239Y-75716037D03*
X81771239Y-69366037D03*
D46*
X79866239Y-74446037D03*
X53831239Y-80161037D03*
X67801239Y-85876037D03*
X67801239Y-83971037D03*
X41766239Y-123341037D03*
D48*
X37321239Y-66191037D03*
X43671239Y-69366037D03*
X50021239Y-69366037D03*
D46*
X68436239Y-78256037D03*
X68543004Y-76457802D03*
X69071239Y-75081037D03*
X70341239Y-74446037D03*
X30991239Y-118261037D03*
X38591239Y-99211037D03*
X38591239Y-95401037D03*
X44978739Y-87781037D03*
X34146239Y-76351037D03*
X38358739Y-80161037D03*
X43036239Y-97306037D03*
X44708739Y-95401037D03*
X36051239Y-103021037D03*
X32241239Y-80161037D03*
X32241239Y-83971037D03*
X32241239Y-99211037D03*
X32241239Y-95401037D03*
X32241239Y-91591037D03*
X32241239Y-87781037D03*
X75421239Y-82066037D03*
X75421239Y-84606037D03*
X74151239Y-87146037D03*
X80501239Y-84606037D03*
X80501239Y-85876037D03*
X80501239Y-87146037D03*
D49*
X53966739Y-107634839D02*
X53966739Y-113316537D01*
X53966739Y-113316537D02*
X54466239Y-113816037D01*
X48964768Y-115086037D02*
X58231239Y-115086037D01*
X58231239Y-115086037D02*
X64916239Y-121771037D01*
X74955239Y-73642037D02*
X74955239Y-72147637D01*
X46968739Y-103533537D02*
X50410739Y-106975537D01*
X44551239Y-101116037D02*
X46968739Y-103533537D01*
X46968739Y-103533537D02*
X59546239Y-90956037D01*
X74151239Y-74446037D02*
X74955239Y-73642037D01*
X70976239Y-75716037D02*
X73685239Y-73007037D01*
X38446239Y-104781037D02*
X37321239Y-103656037D01*
X38446239Y-104926037D02*
X38446239Y-104781037D01*
X73685239Y-73007037D02*
X73685239Y-72147637D01*
X38446239Y-104926037D02*
X38804768Y-104926037D01*
X38804768Y-104926037D02*
X48964768Y-115086037D01*
X50410739Y-106975537D02*
X53307437Y-106975537D01*
X53307437Y-106975537D02*
X53966739Y-107634839D01*
X48151239Y-96712064D02*
X48151239Y-99566037D01*
X40358739Y-78256037D02*
X41766239Y-78256037D01*
X48151239Y-99566037D02*
X46601239Y-101116037D01*
X46957239Y-78256037D02*
X49386239Y-78256037D01*
X41766239Y-103021037D02*
X41766239Y-103656037D01*
X41766239Y-103656037D02*
X40496239Y-104926037D01*
X69706239Y-101751037D02*
X71866239Y-99591037D01*
X71866239Y-99591037D02*
X72336239Y-99591037D01*
X58876239Y-97961037D02*
X58876239Y-96636037D01*
X59506239Y-98591037D02*
X58876239Y-97961037D01*
X58876239Y-96636037D02*
X58276239Y-96036037D01*
X60406239Y-98591037D02*
X59506239Y-98591037D01*
X60406239Y-99241037D02*
X59576239Y-99241037D01*
X59576239Y-99241037D02*
X58276239Y-97941037D01*
X77581239Y-99591037D02*
X78596239Y-98576037D01*
X77236239Y-99591037D02*
X77581239Y-99591037D01*
X60406239Y-99891037D02*
X61596239Y-101081037D01*
X61596239Y-101081037D02*
X68049768Y-101081037D01*
X68049768Y-101081037D02*
X72336239Y-96794566D01*
X72336239Y-96794566D02*
X72336239Y-96291037D01*
X74786239Y-97941037D02*
X76436239Y-96291037D01*
X76436239Y-96291037D02*
X77236239Y-96291037D01*
X50776239Y-60356037D02*
X51291239Y-59841037D01*
X50776239Y-61111037D02*
X50776239Y-60356037D01*
X48116239Y-61761037D02*
X50126239Y-61761037D01*
X50126239Y-61761037D02*
X50776239Y-61111037D01*
X51926239Y-66191037D02*
X51926239Y-63561037D01*
X51926239Y-63561037D02*
X50776239Y-62411037D01*
X46846239Y-64286037D02*
X46846239Y-63681037D01*
X46846239Y-63681037D02*
X48116239Y-62411037D01*
D50*
X39226239Y-66191037D02*
X39646239Y-66191037D01*
X37321239Y-66191037D02*
X39226239Y-66191037D01*
D51*
X38358739Y-82298537D02*
X37321239Y-83336037D01*
X38358739Y-82066037D02*
X38358739Y-82298537D01*
X38358739Y-82066037D02*
X38358739Y-83103537D01*
X38358739Y-83103537D02*
X40591239Y-85336037D01*
X40591239Y-85336037D02*
X40591239Y-85876037D01*
D49*
X33511239Y-116376037D02*
X33491239Y-116356037D01*
X41051643Y-125801441D02*
X35416239Y-120166037D01*
X41051643Y-127167442D02*
X41051643Y-125801441D01*
X33511239Y-118261037D02*
X33511239Y-116376037D01*
X42939364Y-128690058D02*
X42939364Y-127155163D01*
X42939364Y-127155163D02*
X42909486Y-127125285D01*
X72297039Y-54767387D02*
X71520789Y-53991137D01*
X71520789Y-53991137D02*
X66723289Y-53991137D01*
X66723289Y-53991137D02*
X65947039Y-54767387D01*
X65947039Y-54767387D02*
X63309889Y-54767387D01*
X63309889Y-54767387D02*
X62721239Y-55356037D01*
X35699082Y-113463880D02*
X35416239Y-113181037D01*
X35699082Y-117958194D02*
X35699082Y-113463880D01*
X33491239Y-120166037D02*
X35699082Y-117958194D01*
X35416239Y-113181037D02*
X40496239Y-108101037D01*
X39861239Y-106831037D02*
X33491239Y-113201037D01*
X33491239Y-113201037D02*
X33491239Y-116356037D01*
X68605239Y-73637037D02*
X68431239Y-73811037D01*
X68605239Y-72147637D02*
X68605239Y-73637037D01*
X67335239Y-72147637D02*
X67335239Y-73980037D01*
X67335239Y-73980037D02*
X67801239Y-74446037D01*
X60851239Y-70179564D02*
X70127166Y-70179564D01*
X70127166Y-70179564D02*
X71145239Y-71197637D01*
X71145239Y-71197637D02*
X71145239Y-72147637D01*
X63742710Y-82031037D02*
X65586839Y-82031037D01*
X61451239Y-78891037D02*
X61451239Y-79739566D01*
X61451239Y-79739566D02*
X63742710Y-82031037D01*
X65586839Y-82031037D02*
X66085239Y-81532637D01*
D51*
X83845239Y-89647637D02*
X83845239Y-92608851D01*
D49*
X83845239Y-92608851D02*
X83859979Y-92623591D01*
X80035239Y-89647637D02*
X80035239Y-87612037D01*
X80035239Y-87612037D02*
X80501239Y-87146037D01*
X78765239Y-89647637D02*
X78765239Y-87612037D01*
X78765239Y-87612037D02*
X80501239Y-85876037D01*
X77495239Y-89647637D02*
X77495239Y-87612037D01*
X77495239Y-87612037D02*
X80501239Y-84606037D01*
X72415239Y-84775037D02*
X72246239Y-84606037D01*
X72415239Y-89647637D02*
X72415239Y-84775037D01*
X73685239Y-89647637D02*
X73685239Y-87612037D01*
X73685239Y-87612037D02*
X74151239Y-87146037D01*
X74955239Y-89647637D02*
X74955239Y-85072037D01*
X74955239Y-85072037D02*
X75421239Y-84606037D01*
X76225239Y-89647637D02*
X76195239Y-89617637D01*
X76195239Y-89617637D02*
X76195239Y-82840037D01*
X76195239Y-82840037D02*
X75421239Y-82066037D01*
X67335239Y-88186035D02*
X76195239Y-79326035D01*
X67335239Y-89647637D02*
X67335239Y-88186035D01*
X76195239Y-79326035D02*
X76195239Y-74307037D01*
X76195239Y-74307037D02*
X76691239Y-73811037D01*
X74786239Y-56666037D02*
X76005439Y-55446837D01*
X76005439Y-55446837D02*
X76005439Y-54767387D01*
X62721239Y-84606037D02*
X63254639Y-84072637D01*
X66306239Y-98591037D02*
X67231239Y-98591037D01*
X63254639Y-84072637D02*
X66085239Y-84072637D01*
X67231239Y-98591037D02*
X68436239Y-97386037D01*
X65682709Y-92226037D02*
X64626239Y-92226037D01*
X68436239Y-97386037D02*
X68436239Y-94979567D01*
X68436239Y-94979567D02*
X65682709Y-92226037D01*
X66085239Y-80262637D02*
X65135239Y-80262637D01*
X63991239Y-81406637D02*
X63991239Y-81431037D01*
X65135239Y-80262637D02*
X63991239Y-81406637D01*
X69071239Y-94766037D02*
X69071239Y-97401037D01*
X69071239Y-97401037D02*
X67231239Y-99241037D01*
X67231239Y-99241037D02*
X66306239Y-99241037D01*
X65033639Y-78891037D02*
X63356239Y-78891037D01*
X65135239Y-78992637D02*
X65033639Y-78891037D01*
X66085239Y-78992637D02*
X65135239Y-78992637D01*
X66085239Y-73912637D02*
X59012839Y-73912637D01*
X59012839Y-73912637D02*
X58911239Y-73811037D01*
X62841239Y-108101037D02*
X62841239Y-106316037D01*
X74786239Y-103021037D02*
X79400239Y-103021037D01*
X79400239Y-103021037D02*
X82575239Y-99846037D01*
X62841239Y-106316037D02*
X62721239Y-106196037D01*
X82575239Y-99846037D02*
X82575239Y-89647637D01*
X81305239Y-98576037D02*
X81305239Y-89647637D01*
X55341239Y-108101037D02*
X55341239Y-102146037D01*
X55341239Y-102146037D02*
X56371239Y-101116037D01*
X46978739Y-89686037D02*
X54532489Y-82132287D01*
X54532489Y-82132287D02*
X61482139Y-75182637D01*
X56371239Y-83971037D02*
X54532489Y-82132287D01*
X52322139Y-87882637D02*
X51857489Y-88347287D01*
X51857489Y-88347287D02*
X46708739Y-93496037D01*
X53196239Y-89686037D02*
X51857489Y-88347287D01*
X57841239Y-108101037D02*
X57841239Y-103856037D01*
X57841239Y-103856037D02*
X57641239Y-103656037D01*
X52841239Y-108101037D02*
X51715739Y-109226537D01*
X51715739Y-109226537D02*
X46701739Y-109226537D01*
X46701739Y-109226537D02*
X42898739Y-105423537D01*
X42898739Y-105423537D02*
X42898739Y-101116037D01*
X48116239Y-85876037D02*
X48751239Y-86511037D01*
X34291239Y-93496037D02*
X35416239Y-93496037D01*
X35416239Y-93496037D02*
X36686239Y-92226037D01*
X44941239Y-82066037D02*
X45211239Y-82066037D01*
X43671239Y-80796037D02*
X44941239Y-82066037D01*
X34316239Y-97306037D02*
X34316239Y-98406037D01*
X34316239Y-98406037D02*
X34146239Y-98576037D01*
X65341239Y-108101037D02*
X65341239Y-106911037D01*
X65341239Y-106911037D02*
X60406239Y-101976037D01*
X60406239Y-101976037D02*
X60406239Y-99891037D01*
X67211239Y-95991037D02*
X67801239Y-95401037D01*
X66306239Y-95991037D02*
X67211239Y-95991037D01*
X67211239Y-99891037D02*
X67801239Y-100481037D01*
X66306239Y-99891037D02*
X67211239Y-99891037D01*
X40358739Y-82066037D02*
X43206239Y-82066037D01*
X43206239Y-82066037D02*
X47016239Y-85876037D01*
X40666239Y-101116037D02*
X42898739Y-101116037D01*
X42898739Y-101116037D02*
X46708739Y-97306037D01*
X40666239Y-93496037D02*
X40666239Y-91591037D01*
X34316239Y-97306037D02*
X34316239Y-96173793D01*
X40666239Y-91591037D02*
X40666239Y-89761037D01*
X34316239Y-96173793D02*
X38898995Y-91591037D01*
X38898995Y-91591037D02*
X40666239Y-91591037D01*
X70976239Y-56666037D02*
X70976239Y-56088187D01*
X70976239Y-56088187D02*
X69655439Y-54767387D01*
X81771239Y-69366037D02*
X81771239Y-70001037D01*
D51*
X81771239Y-70001037D02*
X82575239Y-70805037D01*
X82575239Y-70805037D02*
X82575239Y-72147637D01*
X82406239Y-75716037D02*
X83845239Y-74277037D01*
X83845239Y-74277037D02*
X83845239Y-72147637D01*
D49*
X79995239Y-78037637D02*
X80084639Y-78037637D01*
D51*
X80084639Y-78037637D02*
X82406239Y-75716037D01*
D49*
X81305239Y-73007037D02*
X81305239Y-72147637D01*
X47016239Y-85876037D02*
X48116239Y-85876037D01*
X79866239Y-74446037D02*
X81305239Y-73007037D01*
X48116239Y-85876037D02*
X53831239Y-80161037D01*
X61482139Y-75182637D02*
X66085239Y-75182637D01*
X66085239Y-87882637D02*
X52322139Y-87882637D01*
X67335239Y-89647637D02*
X54367139Y-89647637D01*
X54367139Y-89647637D02*
X46708739Y-97306037D01*
X67064639Y-86612637D02*
X67801239Y-85876037D01*
X66085239Y-86612637D02*
X67064639Y-86612637D01*
X67801239Y-84576637D02*
X67801239Y-83971037D01*
X67035239Y-85342637D02*
X67801239Y-84576637D01*
X66085239Y-85342637D02*
X67035239Y-85342637D01*
X42301643Y-127167442D02*
X42626643Y-126842442D01*
X38176643Y-126842442D02*
X38776643Y-126842442D01*
X38776643Y-126842442D02*
X39101643Y-127167442D01*
X33491239Y-120166037D02*
X34275238Y-120166037D01*
X34275238Y-120166037D02*
X40401643Y-126292442D01*
X40401643Y-126292442D02*
X40401643Y-127167442D01*
X44576643Y-129842442D02*
X43487678Y-128753477D01*
X43487678Y-128753477D02*
X43134547Y-128753477D01*
X42939364Y-128690058D02*
X41554027Y-128690058D01*
X43134547Y-128753477D02*
X42939364Y-128690058D01*
X41554027Y-128690058D02*
X40401643Y-129842442D01*
X36226643Y-129842442D02*
X36703780Y-129842442D01*
X36703780Y-129842442D02*
X37001643Y-129544579D01*
X37001643Y-129544579D02*
X37001643Y-129271388D01*
X37001643Y-129271388D02*
X37582973Y-128690058D01*
X37582973Y-128690058D02*
X39249259Y-128690058D01*
X39249259Y-128690058D02*
X40401643Y-129842442D01*
D50*
X41766239Y-123341037D02*
X41766239Y-123976037D01*
X41766239Y-123976037D02*
X41701643Y-124040633D01*
D52*
X41701643Y-124040633D02*
X41701643Y-127167442D01*
D50*
X34166239Y-68711037D02*
X34166239Y-71251037D01*
X34166239Y-71251037D02*
X40106239Y-71251037D01*
D49*
X40106239Y-71251037D02*
X40521239Y-71666037D01*
D50*
X39646239Y-66191037D02*
X40521239Y-67066037D01*
X43671239Y-69366037D02*
X40521239Y-69366037D01*
X46821239Y-69366037D02*
X43671239Y-69366037D01*
X46821239Y-69366037D02*
X50021239Y-69366037D01*
D53*
X58911239Y-55356037D02*
X55101239Y-55356037D01*
X62721239Y-55356037D02*
X58911239Y-55356037D01*
X58911239Y-55356037D02*
X59031239Y-55476037D01*
X59031239Y-55476037D02*
X59031239Y-60773237D01*
D49*
X67035239Y-82802637D02*
X66085239Y-82802637D01*
X68436239Y-78256037D02*
X68436239Y-81401637D01*
X68436239Y-81401637D02*
X67035239Y-82802637D01*
X68543004Y-76457802D02*
X67278169Y-77722637D01*
X67278169Y-77722637D02*
X66085239Y-77722637D01*
X69071239Y-75081037D02*
X67699639Y-76452637D01*
X67699639Y-76452637D02*
X66085239Y-76452637D01*
X69875239Y-72147637D02*
X69875239Y-73980037D01*
X69875239Y-73980037D02*
X70341239Y-74446037D01*
X30991239Y-118261037D02*
X30991239Y-116356037D01*
X30991239Y-120166037D02*
X30991239Y-118261037D01*
X44957239Y-78256037D02*
X43052239Y-80161037D01*
X43052239Y-80161037D02*
X38358739Y-80161037D01*
X38591239Y-101116037D02*
X38591239Y-99211037D01*
X38591239Y-97306037D02*
X38591239Y-99211037D01*
X38591239Y-95401037D02*
X38591239Y-93496037D01*
X44978739Y-87781037D02*
X44978739Y-85913537D01*
X44978739Y-89686037D02*
X44978739Y-87781037D01*
X44978739Y-85913537D02*
X44941239Y-85876037D01*
X38591239Y-97306037D02*
X38591239Y-95401037D01*
X40666239Y-89761037D02*
X40591239Y-89686037D01*
X34291239Y-89686037D02*
X38591239Y-89686037D01*
X34291239Y-85876037D02*
X38591239Y-85876037D01*
D51*
X34316239Y-76521037D02*
X34146239Y-76351037D01*
X34316239Y-78256037D02*
X34316239Y-76521037D01*
X34316239Y-82066037D02*
X34316239Y-78256037D01*
D49*
X48116239Y-82066037D02*
X47211239Y-82066037D01*
D51*
X38358739Y-80161037D02*
X38358739Y-82066037D01*
X43036239Y-97306037D02*
X44708739Y-97306037D01*
X44708739Y-95401037D02*
X44708739Y-93496037D01*
D49*
X36051239Y-102851037D02*
X36051239Y-103021037D01*
X34316239Y-101116037D02*
X36051239Y-102851037D01*
D51*
X44708739Y-97306037D02*
X44708739Y-95401037D01*
X40666239Y-97306037D02*
X43036239Y-97306037D01*
X38358739Y-78256037D02*
X38358739Y-80161037D01*
X32241239Y-80161037D02*
X32241239Y-83971037D01*
X32241239Y-83971037D02*
X32241239Y-87781037D01*
X32241239Y-99211037D02*
X32241239Y-101116037D01*
X32241239Y-95401037D02*
X32241239Y-99211037D01*
X32241239Y-91591037D02*
X32241239Y-95401037D01*
X32241239Y-87781037D02*
X32241239Y-91591037D01*
X32241239Y-78256037D02*
X32241239Y-80161037D01*
D49*
X48116239Y-82066037D02*
X61451239Y-68731037D01*
X61451239Y-68731037D02*
X69948639Y-68731037D01*
X69948639Y-68731037D02*
X72415239Y-71197637D01*
X72415239Y-71197637D02*
X72415239Y-72147637D01*
X80035239Y-72147637D02*
X80035239Y-62269237D01*
X80035239Y-62269237D02*
X81531239Y-60773237D01*
X78765239Y-72147637D02*
X78765239Y-61039237D01*
X78765239Y-61039237D02*
X79031239Y-60773237D01*
X77495239Y-72147637D02*
X77495239Y-61737237D01*
X77495239Y-61737237D02*
X76531239Y-60773237D01*
X76225239Y-72147637D02*
X76225239Y-62967237D01*
X76225239Y-62967237D02*
X74031239Y-60773237D01*
D53*
X62721239Y-51586037D02*
X62721239Y-55356037D01*
X50051239Y-50081037D02*
X58676239Y-50081037D01*
X58676239Y-50081037D02*
X60181239Y-51586037D01*
X50051239Y-55161037D02*
X54906239Y-55161037D01*
X54906239Y-55161037D02*
X55101239Y-55356037D01*
X50051239Y-52621037D02*
X54866239Y-52621037D01*
X54866239Y-52621037D02*
X55101239Y-52856037D01*
%TA.AperFunction,Conductor*%
G36*
X52504278Y-65575722D02*
G01*
X52550033Y-65628526D01*
X52561239Y-65680037D01*
X52561239Y-75592037D01*
X52541554Y-75659076D01*
X52488750Y-75704831D01*
X52437239Y-75716037D01*
X42525239Y-75716037D01*
X42458200Y-75696352D01*
X42412445Y-75643548D01*
X42401239Y-75592037D01*
X42401239Y-70824037D01*
X45321239Y-70824037D01*
X45331847Y-70943362D01*
X45331848Y-70943365D01*
X45387796Y-71138898D01*
X45481960Y-71319166D01*
X45610485Y-71476790D01*
X45768109Y-71605315D01*
X45948377Y-71699479D01*
X46143910Y-71755427D01*
X46143913Y-71755428D01*
X46263238Y-71766036D01*
X46263241Y-71766037D01*
X46571239Y-71766037D01*
X47071239Y-71766037D01*
X47379237Y-71766037D01*
X47379239Y-71766036D01*
X47498564Y-71755428D01*
X47498567Y-71755427D01*
X47694100Y-71699479D01*
X47874368Y-71605315D01*
X48031992Y-71476790D01*
X48160517Y-71319166D01*
X48254681Y-71138898D01*
X48310629Y-70943365D01*
X48310630Y-70943362D01*
X48321238Y-70824037D01*
X48321239Y-70824035D01*
X48321239Y-69616037D01*
X47071239Y-69616037D01*
X47071239Y-71766037D01*
X46571239Y-71766037D01*
X46571239Y-69616037D01*
X45321239Y-69616037D01*
X45321239Y-70824037D01*
X42401239Y-70824037D01*
X42401239Y-67908036D01*
X45321239Y-67908036D01*
X45321239Y-69116037D01*
X46571239Y-69116037D01*
X47071239Y-69116037D01*
X48321239Y-69116037D01*
X48321239Y-67908039D01*
X48321238Y-67908036D01*
X48310630Y-67788711D01*
X48310629Y-67788708D01*
X48254681Y-67593175D01*
X48160517Y-67412907D01*
X48031992Y-67255283D01*
X47874368Y-67126758D01*
X47694100Y-67032594D01*
X47498567Y-66976646D01*
X47498564Y-66976645D01*
X47379239Y-66966037D01*
X47071239Y-66966037D01*
X47071239Y-69116037D01*
X46571239Y-69116037D01*
X46571239Y-66966037D01*
X46263238Y-66966037D01*
X46143913Y-66976645D01*
X46143910Y-66976646D01*
X45948377Y-67032594D01*
X45768109Y-67126758D01*
X45610485Y-67255283D01*
X45481960Y-67412907D01*
X45387796Y-67593175D01*
X45331848Y-67788708D01*
X45331847Y-67788711D01*
X45321239Y-67908036D01*
X42401239Y-67908036D01*
X42401239Y-65680037D01*
X42420924Y-65612998D01*
X42473728Y-65567243D01*
X42525239Y-65556037D01*
X52437239Y-65556037D01*
X52504278Y-65575722D01*
G37*
%TD.AperFunction*%
%TA.AperFunction,Conductor*%
G36*
X35818608Y-46836222D02*
G01*
X35864363Y-46889026D01*
X35874307Y-46958184D01*
X35857108Y-47005634D01*
X35766882Y-47151912D01*
X35766880Y-47151917D01*
X35711733Y-47318338D01*
X35711262Y-47321258D01*
X35711091Y-47324626D01*
X35701239Y-47421052D01*
X35701239Y-49596037D01*
X46101238Y-49596037D01*
X46101238Y-47880572D01*
X65167139Y-47880572D01*
X65167139Y-48928807D01*
X65167140Y-48928813D01*
X65173547Y-48988420D01*
X65223841Y-49123265D01*
X65223845Y-49123272D01*
X65310091Y-49238481D01*
X65310094Y-49238484D01*
X65425303Y-49324730D01*
X65425310Y-49324734D01*
X65468984Y-49341023D01*
X65560156Y-49375028D01*
X65619766Y-49381437D01*
X66274311Y-49381436D01*
X66333922Y-49375028D01*
X66468770Y-49324733D01*
X66583985Y-49238483D01*
X66670235Y-49123268D01*
X66720530Y-48988420D01*
X66726939Y-48928810D01*
X66726938Y-47880572D01*
X68875539Y-47880572D01*
X68875539Y-48928807D01*
X68875540Y-48928813D01*
X68881947Y-48988420D01*
X68932241Y-49123265D01*
X68932245Y-49123272D01*
X69018491Y-49238481D01*
X69018494Y-49238484D01*
X69133703Y-49324730D01*
X69133710Y-49324734D01*
X69177384Y-49341023D01*
X69268556Y-49375028D01*
X69328166Y-49381437D01*
X69982711Y-49381436D01*
X70042322Y-49375028D01*
X70177170Y-49324733D01*
X70292385Y-49238483D01*
X70378635Y-49123268D01*
X70428930Y-48988420D01*
X70435339Y-48928810D01*
X70435338Y-47880572D01*
X71517139Y-47880572D01*
X71517139Y-48928807D01*
X71517140Y-48928813D01*
X71523547Y-48988420D01*
X71573841Y-49123265D01*
X71573845Y-49123272D01*
X71660091Y-49238481D01*
X71660094Y-49238484D01*
X71775303Y-49324730D01*
X71775310Y-49324734D01*
X71818984Y-49341023D01*
X71910156Y-49375028D01*
X71969766Y-49381437D01*
X72624311Y-49381436D01*
X72683922Y-49375028D01*
X72818770Y-49324733D01*
X72933985Y-49238483D01*
X73020235Y-49123268D01*
X73070530Y-48988420D01*
X73076939Y-48928810D01*
X73076938Y-47880572D01*
X75225539Y-47880572D01*
X75225539Y-48928807D01*
X75225540Y-48928813D01*
X75231947Y-48988420D01*
X75282241Y-49123265D01*
X75282245Y-49123272D01*
X75368491Y-49238481D01*
X75368494Y-49238484D01*
X75483703Y-49324730D01*
X75483710Y-49324734D01*
X75527384Y-49341023D01*
X75618556Y-49375028D01*
X75678166Y-49381437D01*
X76332711Y-49381436D01*
X76392322Y-49375028D01*
X76527170Y-49324733D01*
X76642385Y-49238483D01*
X76728635Y-49123268D01*
X76778930Y-48988420D01*
X76785339Y-48928810D01*
X76785338Y-47880565D01*
X76778930Y-47820954D01*
X76728635Y-47686106D01*
X76728634Y-47686105D01*
X76728632Y-47686101D01*
X76642386Y-47570892D01*
X76642383Y-47570889D01*
X76527174Y-47484643D01*
X76527167Y-47484639D01*
X76392325Y-47434347D01*
X76392324Y-47434346D01*
X76392322Y-47434346D01*
X76332712Y-47427937D01*
X76332702Y-47427937D01*
X75678168Y-47427937D01*
X75678162Y-47427938D01*
X75618555Y-47434345D01*
X75483710Y-47484639D01*
X75483703Y-47484643D01*
X75368494Y-47570889D01*
X75368491Y-47570892D01*
X75282245Y-47686101D01*
X75282241Y-47686108D01*
X75231947Y-47820954D01*
X75225540Y-47880553D01*
X75225540Y-47880560D01*
X75225539Y-47880572D01*
X73076938Y-47880572D01*
X73076938Y-47880565D01*
X73070530Y-47820954D01*
X73020235Y-47686106D01*
X73020234Y-47686105D01*
X73020232Y-47686101D01*
X72933986Y-47570892D01*
X72933983Y-47570889D01*
X72818774Y-47484643D01*
X72818767Y-47484639D01*
X72683925Y-47434347D01*
X72683924Y-47434346D01*
X72683922Y-47434346D01*
X72624312Y-47427937D01*
X72624302Y-47427937D01*
X71969768Y-47427937D01*
X71969762Y-47427938D01*
X71910155Y-47434345D01*
X71775310Y-47484639D01*
X71775303Y-47484643D01*
X71660094Y-47570889D01*
X71660091Y-47570892D01*
X71573845Y-47686101D01*
X71573841Y-47686108D01*
X71523547Y-47820954D01*
X71517140Y-47880553D01*
X71517140Y-47880560D01*
X71517139Y-47880572D01*
X70435338Y-47880572D01*
X70435338Y-47880565D01*
X70428930Y-47820954D01*
X70378635Y-47686106D01*
X70378634Y-47686105D01*
X70378632Y-47686101D01*
X70292386Y-47570892D01*
X70292383Y-47570889D01*
X70177174Y-47484643D01*
X70177167Y-47484639D01*
X70042325Y-47434347D01*
X70042324Y-47434346D01*
X70042322Y-47434346D01*
X69982712Y-47427937D01*
X69982702Y-47427937D01*
X69328168Y-47427937D01*
X69328162Y-47427938D01*
X69268555Y-47434345D01*
X69133710Y-47484639D01*
X69133703Y-47484643D01*
X69018494Y-47570889D01*
X69018491Y-47570892D01*
X68932245Y-47686101D01*
X68932241Y-47686108D01*
X68881947Y-47820954D01*
X68875540Y-47880553D01*
X68875540Y-47880560D01*
X68875539Y-47880572D01*
X66726938Y-47880572D01*
X66726938Y-47880565D01*
X66720530Y-47820954D01*
X66670235Y-47686106D01*
X66670234Y-47686105D01*
X66670232Y-47686101D01*
X66583986Y-47570892D01*
X66583983Y-47570889D01*
X66468774Y-47484643D01*
X66468767Y-47484639D01*
X66333925Y-47434347D01*
X66333924Y-47434346D01*
X66333922Y-47434346D01*
X66274312Y-47427937D01*
X66274302Y-47427937D01*
X65619768Y-47427937D01*
X65619762Y-47427938D01*
X65560155Y-47434345D01*
X65425310Y-47484639D01*
X65425303Y-47484643D01*
X65310094Y-47570889D01*
X65310091Y-47570892D01*
X65223845Y-47686101D01*
X65223841Y-47686108D01*
X65173547Y-47820954D01*
X65167140Y-47880553D01*
X65167140Y-47880560D01*
X65167139Y-47880572D01*
X46101238Y-47880572D01*
X46101238Y-47421065D01*
X46101237Y-47421050D01*
X46090744Y-47318339D01*
X46035597Y-47151917D01*
X46035595Y-47151912D01*
X45945370Y-47005634D01*
X45926930Y-46938241D01*
X45947853Y-46871578D01*
X46001495Y-46826808D01*
X46050909Y-46816537D01*
X77837239Y-46816537D01*
X77904278Y-46836222D01*
X77950033Y-46889026D01*
X77961239Y-46940537D01*
X77961239Y-57812037D01*
X77941554Y-57879076D01*
X77888750Y-57924831D01*
X77837239Y-57936037D01*
X60405739Y-57936037D01*
X60338700Y-57916352D01*
X60292945Y-57863548D01*
X60281739Y-57812037D01*
X60281739Y-56730537D01*
X60301424Y-56663498D01*
X60354228Y-56617743D01*
X60405739Y-56606537D01*
X62819661Y-56606537D01*
X63014065Y-56575746D01*
X63201264Y-56514921D01*
X63376644Y-56425561D01*
X63535885Y-56309865D01*
X63675067Y-56170683D01*
X63790763Y-56011442D01*
X63880123Y-55836062D01*
X63940948Y-55648863D01*
X63951399Y-55582879D01*
X63968883Y-55472489D01*
X63998812Y-55409354D01*
X64058124Y-55372423D01*
X64091356Y-55367887D01*
X65093706Y-55367887D01*
X65160745Y-55387572D01*
X65206500Y-55440376D01*
X65209888Y-55448554D01*
X65223841Y-55485965D01*
X65223845Y-55485972D01*
X65310091Y-55601181D01*
X65310094Y-55601184D01*
X65425303Y-55687430D01*
X65425310Y-55687434D01*
X65470257Y-55704198D01*
X65560156Y-55737728D01*
X65619766Y-55744137D01*
X66274311Y-55744136D01*
X66333922Y-55737728D01*
X66468770Y-55687433D01*
X66583985Y-55601183D01*
X66670235Y-55485968D01*
X66720530Y-55351120D01*
X66726939Y-55291510D01*
X66726938Y-54888083D01*
X66746622Y-54821045D01*
X66763257Y-54800403D01*
X66935705Y-54627956D01*
X66997028Y-54594471D01*
X67023386Y-54591637D01*
X68751539Y-54591637D01*
X68818578Y-54611322D01*
X68864333Y-54664126D01*
X68875539Y-54715637D01*
X68875539Y-55291507D01*
X68875540Y-55291513D01*
X68881947Y-55351120D01*
X68932241Y-55485965D01*
X68932245Y-55485972D01*
X69018491Y-55601181D01*
X69018494Y-55601184D01*
X69133703Y-55687430D01*
X69133710Y-55687434D01*
X69178657Y-55704198D01*
X69268556Y-55737728D01*
X69328166Y-55744137D01*
X69731591Y-55744136D01*
X69798630Y-55763820D01*
X69819272Y-55780455D01*
X70222542Y-56183725D01*
X70256027Y-56245048D01*
X70251903Y-56312360D01*
X70190871Y-56486779D01*
X70190869Y-56486787D01*
X70170674Y-56666033D01*
X70170674Y-56666040D01*
X70190869Y-56845286D01*
X70190870Y-56845291D01*
X70250450Y-57015560D01*
X70333804Y-57148216D01*
X70346423Y-57168299D01*
X70473977Y-57295853D01*
X70626717Y-57391826D01*
X70796984Y-57451405D01*
X70796989Y-57451406D01*
X70976235Y-57471602D01*
X70976239Y-57471602D01*
X70976243Y-57471602D01*
X71155488Y-57451406D01*
X71155491Y-57451405D01*
X71155494Y-57451405D01*
X71325761Y-57391826D01*
X71478501Y-57295853D01*
X71606055Y-57168299D01*
X71702028Y-57015559D01*
X71761607Y-56845292D01*
X71761608Y-56845286D01*
X71781804Y-56666040D01*
X71781804Y-56666033D01*
X73980674Y-56666033D01*
X73980674Y-56666040D01*
X74000869Y-56845286D01*
X74000870Y-56845291D01*
X74060450Y-57015560D01*
X74143804Y-57148216D01*
X74156423Y-57168299D01*
X74283977Y-57295853D01*
X74436717Y-57391826D01*
X74606984Y-57451405D01*
X74606989Y-57451406D01*
X74786235Y-57471602D01*
X74786239Y-57471602D01*
X74786243Y-57471602D01*
X74965488Y-57451406D01*
X74965491Y-57451405D01*
X74965494Y-57451405D01*
X75135761Y-57391826D01*
X75288501Y-57295853D01*
X75416055Y-57168299D01*
X75512028Y-57015559D01*
X75571607Y-56845292D01*
X75581400Y-56758366D01*
X75608465Y-56693955D01*
X75616929Y-56684580D01*
X76363945Y-55937565D01*
X76363950Y-55937561D01*
X76374153Y-55927357D01*
X76374155Y-55927357D01*
X76485959Y-55815553D01*
X76538382Y-55724753D01*
X76565016Y-55678622D01*
X76565016Y-55678621D01*
X76569080Y-55671583D01*
X76570835Y-55672596D01*
X76603968Y-55629940D01*
X76642385Y-55601183D01*
X76728635Y-55485968D01*
X76778930Y-55351120D01*
X76785339Y-55291510D01*
X76785338Y-54243265D01*
X76778930Y-54183654D01*
X76776158Y-54176223D01*
X76728636Y-54048808D01*
X76728632Y-54048801D01*
X76642386Y-53933592D01*
X76642383Y-53933589D01*
X76527174Y-53847343D01*
X76527167Y-53847339D01*
X76392325Y-53797047D01*
X76392324Y-53797046D01*
X76392322Y-53797046D01*
X76332712Y-53790637D01*
X76332702Y-53790637D01*
X75678168Y-53790637D01*
X75678162Y-53790638D01*
X75618555Y-53797045D01*
X75483710Y-53847339D01*
X75483703Y-53847343D01*
X75368494Y-53933589D01*
X75368491Y-53933592D01*
X75282245Y-54048801D01*
X75282241Y-54048808D01*
X75231947Y-54183654D01*
X75225540Y-54243253D01*
X75225540Y-54243260D01*
X75225539Y-54243272D01*
X75225539Y-55291507D01*
X75225540Y-55291523D01*
X75227545Y-55310173D01*
X75215136Y-55378932D01*
X75191936Y-55411103D01*
X74767704Y-55835335D01*
X74706381Y-55868820D01*
X74693907Y-55870874D01*
X74606989Y-55880667D01*
X74436717Y-55940247D01*
X74283976Y-56036221D01*
X74156423Y-56163774D01*
X74060450Y-56316513D01*
X74000870Y-56486782D01*
X74000869Y-56486787D01*
X73980674Y-56666033D01*
X71781804Y-56666033D01*
X71761608Y-56486787D01*
X71761607Y-56486782D01*
X71702027Y-56316513D01*
X71646949Y-56228857D01*
X71606055Y-56163775D01*
X71606053Y-56163773D01*
X71606052Y-56163771D01*
X71603789Y-56160933D01*
X71602898Y-56158752D01*
X71602350Y-56157879D01*
X71602503Y-56157782D01*
X71577383Y-56096246D01*
X71576739Y-56083624D01*
X71576739Y-56009134D01*
X71576739Y-56009130D01*
X71576012Y-56006414D01*
X71535816Y-55856402D01*
X71523653Y-55835335D01*
X71491919Y-55780370D01*
X71491918Y-55780369D01*
X71483990Y-55766637D01*
X71467519Y-55698737D01*
X71470396Y-55690422D01*
X71405171Y-55666097D01*
X71391798Y-55654509D01*
X71340636Y-55603347D01*
X71340613Y-55603326D01*
X70540605Y-54803318D01*
X70507120Y-54741995D01*
X70512104Y-54672303D01*
X70553976Y-54616370D01*
X70619440Y-54591953D01*
X70628286Y-54591637D01*
X71220692Y-54591637D01*
X71287731Y-54611322D01*
X71308373Y-54627956D01*
X71480820Y-54800403D01*
X71514305Y-54861726D01*
X71517139Y-54888084D01*
X71517139Y-55291507D01*
X71517140Y-55291513D01*
X71523547Y-55351120D01*
X71573841Y-55485965D01*
X71573843Y-55485969D01*
X71578744Y-55492515D01*
X71603163Y-55557979D01*
X71597384Y-55584546D01*
X71614846Y-55582879D01*
X71665687Y-55605370D01*
X71763538Y-55678622D01*
X71775307Y-55687432D01*
X71775310Y-55687434D01*
X71820257Y-55704198D01*
X71910156Y-55737728D01*
X71969766Y-55744137D01*
X72624311Y-55744136D01*
X72683922Y-55737728D01*
X72818770Y-55687433D01*
X72933985Y-55601183D01*
X73020235Y-55485968D01*
X73070530Y-55351120D01*
X73076939Y-55291510D01*
X73076938Y-54243265D01*
X73070530Y-54183654D01*
X73067758Y-54176223D01*
X73020236Y-54048808D01*
X73020232Y-54048801D01*
X72933986Y-53933592D01*
X72933983Y-53933589D01*
X72818774Y-53847343D01*
X72818767Y-53847339D01*
X72683921Y-53797045D01*
X72683922Y-53797045D01*
X72624322Y-53790638D01*
X72624320Y-53790637D01*
X72624312Y-53790637D01*
X72624304Y-53790637D01*
X72220886Y-53790637D01*
X72153847Y-53770952D01*
X72133205Y-53754318D01*
X72008379Y-53629492D01*
X72008377Y-53629489D01*
X71889506Y-53510618D01*
X71889505Y-53510617D01*
X71802693Y-53460497D01*
X71802693Y-53460496D01*
X71802689Y-53460495D01*
X71752574Y-53431560D01*
X71599846Y-53390636D01*
X71441732Y-53390636D01*
X71434136Y-53390636D01*
X71434120Y-53390637D01*
X66802346Y-53390637D01*
X66644231Y-53390637D01*
X66491504Y-53431560D01*
X66491503Y-53431560D01*
X66491501Y-53431561D01*
X66491498Y-53431562D01*
X66441385Y-53460496D01*
X66441384Y-53460497D01*
X66397978Y-53485557D01*
X66354574Y-53510616D01*
X66354571Y-53510618D01*
X66259797Y-53605393D01*
X66242769Y-53622421D01*
X66242767Y-53622423D01*
X66174469Y-53690721D01*
X66110871Y-53754319D01*
X66049548Y-53787803D01*
X66023190Y-53790637D01*
X65619768Y-53790637D01*
X65619762Y-53790638D01*
X65560155Y-53797045D01*
X65425310Y-53847339D01*
X65425303Y-53847343D01*
X65310094Y-53933589D01*
X65310091Y-53933592D01*
X65223845Y-54048801D01*
X65223841Y-54048808D01*
X65209888Y-54086220D01*
X65168017Y-54142154D01*
X65102552Y-54166571D01*
X65093706Y-54166887D01*
X64095739Y-54166887D01*
X64028700Y-54147202D01*
X63982945Y-54094398D01*
X63971739Y-54042887D01*
X63971739Y-52547849D01*
X63990012Y-52483059D01*
X64107016Y-52292126D01*
X64200408Y-52066656D01*
X64200407Y-52066656D01*
X64200411Y-52066649D01*
X64257385Y-51829339D01*
X64276533Y-51586037D01*
X64257385Y-51342735D01*
X64200411Y-51105425D01*
X64184019Y-51065851D01*
X64107016Y-50879947D01*
X63979501Y-50671863D01*
X63979500Y-50671860D01*
X63861616Y-50533836D01*
X63820998Y-50486278D01*
X63698302Y-50381486D01*
X63635415Y-50327775D01*
X63635412Y-50327774D01*
X63427328Y-50200259D01*
X63201857Y-50106867D01*
X63201860Y-50106867D01*
X63096231Y-50081507D01*
X62964541Y-50049891D01*
X62964539Y-50049890D01*
X62964536Y-50049890D01*
X62721239Y-50030743D01*
X62477941Y-50049890D01*
X62477937Y-50049891D01*
X62301540Y-50092241D01*
X62240619Y-50106867D01*
X62015149Y-50200259D01*
X61830381Y-50313486D01*
X61762935Y-50331731D01*
X61696333Y-50310615D01*
X61666325Y-50282070D01*
X61588786Y-50178492D01*
X61588783Y-50178489D01*
X61473574Y-50092243D01*
X61473567Y-50092239D01*
X61338721Y-50041945D01*
X61338722Y-50041945D01*
X61279122Y-50035538D01*
X61279120Y-50035537D01*
X61279112Y-50035537D01*
X61279104Y-50035537D01*
X60450575Y-50035537D01*
X60383536Y-50015852D01*
X60362894Y-49999218D01*
X59490887Y-49127211D01*
X59490885Y-49127209D01*
X59331644Y-49011513D01*
X59331634Y-49011508D01*
X59156269Y-48922154D01*
X58969065Y-48861327D01*
X58774661Y-48830537D01*
X58774656Y-48830537D01*
X49952822Y-48830537D01*
X49952817Y-48830537D01*
X49758412Y-48861327D01*
X49571206Y-48922155D01*
X49395840Y-49011508D01*
X49394615Y-49012260D01*
X49394057Y-49012417D01*
X49391493Y-49013724D01*
X49391233Y-49013213D01*
X49329818Y-49030537D01*
X47951237Y-49030537D01*
X47951220Y-49030538D01*
X47848442Y-49041037D01*
X47848439Y-49041038D01*
X47681907Y-49096222D01*
X47681902Y-49096224D01*
X47532581Y-49188326D01*
X47408528Y-49312379D01*
X47316426Y-49461700D01*
X47316424Y-49461705D01*
X47288588Y-49545707D01*
X47261240Y-49628240D01*
X47261240Y-49628241D01*
X47261239Y-49628241D01*
X47250739Y-49731020D01*
X47250739Y-50431038D01*
X47250740Y-50431056D01*
X47261239Y-50533833D01*
X47261240Y-50533836D01*
X47306977Y-50671858D01*
X47316425Y-50700371D01*
X47408527Y-50849693D01*
X47532583Y-50973749D01*
X47681905Y-51065851D01*
X47848442Y-51121036D01*
X47951230Y-51131537D01*
X49329816Y-51131536D01*
X49391233Y-51148857D01*
X49391493Y-51148349D01*
X49394049Y-51149651D01*
X49394604Y-51149808D01*
X49395825Y-51150556D01*
X49395832Y-51150559D01*
X49395834Y-51150561D01*
X49471363Y-51189045D01*
X49571209Y-51239919D01*
X49571211Y-51239919D01*
X49571214Y-51239921D01*
X49758413Y-51300746D01*
X49872425Y-51318803D01*
X49908794Y-51324564D01*
X49971929Y-51354493D01*
X50008860Y-51413805D01*
X50007862Y-51483667D01*
X49969252Y-51541900D01*
X49905289Y-51570014D01*
X49889396Y-51571037D01*
X47951267Y-51571037D01*
X47951251Y-51571038D01*
X47848541Y-51581531D01*
X47682119Y-51636678D01*
X47682114Y-51636680D01*
X47532893Y-51728721D01*
X47408923Y-51852691D01*
X47316882Y-52001912D01*
X47316880Y-52001917D01*
X47261733Y-52168339D01*
X47261732Y-52168346D01*
X47251239Y-52271050D01*
X47251239Y-52371037D01*
X52851238Y-52371037D01*
X52851238Y-52271065D01*
X52851237Y-52271050D01*
X52840744Y-52168339D01*
X52785597Y-52001917D01*
X52785595Y-52001912D01*
X52693554Y-51852691D01*
X52569584Y-51728721D01*
X52420363Y-51636680D01*
X52420358Y-51636678D01*
X52253936Y-51581531D01*
X52253929Y-51581530D01*
X52228134Y-51578895D01*
X52163443Y-51552499D01*
X52123291Y-51495318D01*
X52120428Y-51425507D01*
X52155762Y-51365230D01*
X52218075Y-51333625D01*
X52240737Y-51331537D01*
X54013395Y-51331537D01*
X54080434Y-51351222D01*
X54126189Y-51404026D01*
X54136133Y-51473184D01*
X54107108Y-51536740D01*
X54062628Y-51566415D01*
X54063660Y-51568629D01*
X54057114Y-51571680D01*
X53907893Y-51663721D01*
X53783923Y-51787691D01*
X53691882Y-51936912D01*
X53691880Y-51936917D01*
X53636733Y-52103339D01*
X53636732Y-52103346D01*
X53626239Y-52206050D01*
X53626239Y-52606037D01*
X54697093Y-52606037D01*
X54658609Y-52672694D01*
X54626239Y-52793502D01*
X54626239Y-52918572D01*
X54658609Y-53039380D01*
X54697093Y-53106037D01*
X53626240Y-53106037D01*
X53626240Y-53506023D01*
X53636733Y-53608734D01*
X53682727Y-53747533D01*
X53685129Y-53817361D01*
X53649397Y-53877403D01*
X53586877Y-53908596D01*
X53565021Y-53910537D01*
X52240733Y-53910537D01*
X52173694Y-53890852D01*
X52127939Y-53838048D01*
X52117995Y-53768890D01*
X52147020Y-53705334D01*
X52205798Y-53667560D01*
X52228131Y-53663179D01*
X52253936Y-53660542D01*
X52420358Y-53605395D01*
X52420363Y-53605393D01*
X52569584Y-53513352D01*
X52693554Y-53389382D01*
X52785595Y-53240161D01*
X52785597Y-53240156D01*
X52840744Y-53073734D01*
X52840745Y-53073727D01*
X52851238Y-52971023D01*
X52851239Y-52971010D01*
X52851239Y-52871037D01*
X47251240Y-52871037D01*
X47251240Y-52971023D01*
X47261733Y-53073734D01*
X47316880Y-53240156D01*
X47316882Y-53240161D01*
X47408923Y-53389382D01*
X47532893Y-53513352D01*
X47682114Y-53605393D01*
X47682119Y-53605395D01*
X47848541Y-53660542D01*
X47848548Y-53660543D01*
X47951258Y-53671036D01*
X49889396Y-53671036D01*
X49956435Y-53690721D01*
X50002190Y-53743524D01*
X50012134Y-53812683D01*
X49983109Y-53876239D01*
X49924331Y-53914013D01*
X49908795Y-53917509D01*
X49758411Y-53941328D01*
X49571206Y-54002155D01*
X49395840Y-54091508D01*
X49394615Y-54092260D01*
X49394057Y-54092417D01*
X49391493Y-54093724D01*
X49391233Y-54093213D01*
X49329818Y-54110537D01*
X47951237Y-54110537D01*
X47951220Y-54110538D01*
X47848442Y-54121037D01*
X47848439Y-54121038D01*
X47681907Y-54176222D01*
X47681902Y-54176224D01*
X47532581Y-54268326D01*
X47408528Y-54392379D01*
X47316426Y-54541700D01*
X47316424Y-54541705D01*
X47291683Y-54616370D01*
X47261240Y-54708240D01*
X47261240Y-54708241D01*
X47261239Y-54708241D01*
X47250739Y-54811020D01*
X47250739Y-55511038D01*
X47250740Y-55511056D01*
X47261239Y-55613833D01*
X47261240Y-55613836D01*
X47311874Y-55766637D01*
X47316425Y-55780371D01*
X47408527Y-55929693D01*
X47532583Y-56053749D01*
X47681905Y-56145851D01*
X47848442Y-56201036D01*
X47951230Y-56211537D01*
X49329816Y-56211536D01*
X49391233Y-56228857D01*
X49391493Y-56228349D01*
X49394049Y-56229651D01*
X49394604Y-56229808D01*
X49395825Y-56230556D01*
X49395832Y-56230559D01*
X49395834Y-56230561D01*
X49424267Y-56245048D01*
X49571209Y-56319919D01*
X49571211Y-56319919D01*
X49571214Y-56319921D01*
X49671556Y-56352524D01*
X49758412Y-56380746D01*
X49952817Y-56411537D01*
X49952822Y-56411537D01*
X54091112Y-56411537D01*
X54158151Y-56431222D01*
X54163985Y-56435209D01*
X54261034Y-56505719D01*
X54303698Y-56561047D01*
X54309677Y-56630660D01*
X54277072Y-56692456D01*
X54261032Y-56706354D01*
X54096453Y-56825927D01*
X54096448Y-56825931D01*
X53946129Y-56976250D01*
X53821190Y-57148216D01*
X53724683Y-57337622D01*
X53658992Y-57539797D01*
X53625739Y-57749750D01*
X53625739Y-57812037D01*
X53606054Y-57879076D01*
X53553250Y-57924831D01*
X53501739Y-57936037D01*
X52561239Y-57936037D01*
X52561239Y-63047439D01*
X52541554Y-63114478D01*
X52488750Y-63160233D01*
X52419592Y-63170177D01*
X52356036Y-63141152D01*
X52349558Y-63135120D01*
X52032072Y-62817634D01*
X51998587Y-62756311D01*
X52003571Y-62686619D01*
X52005154Y-62682593D01*
X52011283Y-62667799D01*
X52026739Y-62550398D01*
X52026738Y-62271677D01*
X52026738Y-62271675D01*
X52026738Y-62271673D01*
X52011285Y-62154283D01*
X52011283Y-62154276D01*
X52011283Y-62154275D01*
X51950775Y-62008196D01*
X51854521Y-61882755D01*
X51824099Y-61859411D01*
X51782897Y-61802986D01*
X51778742Y-61733240D01*
X51812953Y-61672319D01*
X51824090Y-61662668D01*
X51854521Y-61639319D01*
X51950775Y-61513878D01*
X52011283Y-61367799D01*
X52026739Y-61250398D01*
X52026738Y-60971677D01*
X52026738Y-60971675D01*
X52026738Y-60971673D01*
X52011285Y-60854283D01*
X52011283Y-60854276D01*
X52011283Y-60854275D01*
X51950775Y-60708196D01*
X51854521Y-60582755D01*
X51854518Y-60582753D01*
X51849573Y-60576308D01*
X51850969Y-60575236D01*
X51822256Y-60522652D01*
X51827240Y-60452960D01*
X51855741Y-60408613D01*
X51861466Y-60402888D01*
X51921055Y-60343299D01*
X52017028Y-60190559D01*
X52076607Y-60020292D01*
X52080322Y-59987319D01*
X52096804Y-59841040D01*
X52096804Y-59841033D01*
X52076608Y-59661787D01*
X52076607Y-59661782D01*
X52017027Y-59491513D01*
X51921054Y-59338774D01*
X51793501Y-59211221D01*
X51640762Y-59115248D01*
X51470493Y-59055668D01*
X51470488Y-59055667D01*
X51291243Y-59035472D01*
X51291235Y-59035472D01*
X51111989Y-59055667D01*
X51111984Y-59055668D01*
X50941715Y-59115248D01*
X50788976Y-59211221D01*
X50661423Y-59338774D01*
X50565449Y-59491515D01*
X50505869Y-59661787D01*
X50496076Y-59748705D01*
X50469009Y-59813119D01*
X50460538Y-59822501D01*
X50407526Y-59875514D01*
X50407525Y-59875515D01*
X50295720Y-59987319D01*
X50295718Y-59987321D01*
X50276687Y-60020286D01*
X50265424Y-60039794D01*
X50216662Y-60124252D01*
X50175738Y-60276980D01*
X50175738Y-60276982D01*
X50175738Y-60290094D01*
X50156053Y-60357133D01*
X50103249Y-60402888D01*
X50067922Y-60413033D01*
X49969485Y-60425991D01*
X49969476Y-60425993D01*
X49823399Y-60486500D01*
X49697957Y-60582755D01*
X49601702Y-60708197D01*
X49560800Y-60806945D01*
X49516959Y-60861348D01*
X49450665Y-60883413D01*
X49382966Y-60866134D01*
X49335355Y-60814997D01*
X49331678Y-60806945D01*
X49290775Y-60708197D01*
X49290775Y-60708196D01*
X49194521Y-60582755D01*
X49069080Y-60486501D01*
X49031302Y-60470853D01*
X48923001Y-60425993D01*
X48922999Y-60425992D01*
X48805609Y-60410538D01*
X48805606Y-60410537D01*
X48805600Y-60410537D01*
X48805593Y-60410537D01*
X47426875Y-60410537D01*
X47309485Y-60425990D01*
X47309476Y-60425993D01*
X47163399Y-60486500D01*
X47037957Y-60582755D01*
X46941702Y-60708197D01*
X46881195Y-60854274D01*
X46881194Y-60854276D01*
X46865739Y-60971675D01*
X46865739Y-61250400D01*
X46881192Y-61367790D01*
X46881196Y-61367802D01*
X46889805Y-61388587D01*
X46897272Y-61458056D01*
X46889805Y-61483487D01*
X46881196Y-61504271D01*
X46881194Y-61504276D01*
X46865739Y-61621675D01*
X46865739Y-61900400D01*
X46881192Y-62017790D01*
X46881196Y-62017802D01*
X46889805Y-62038587D01*
X46897272Y-62108056D01*
X46889805Y-62133487D01*
X46881196Y-62154271D01*
X46881194Y-62154276D01*
X46865739Y-62271675D01*
X46865739Y-62550400D01*
X46881192Y-62667790D01*
X46881196Y-62667802D01*
X46887284Y-62682499D01*
X46894754Y-62751968D01*
X46863480Y-62814448D01*
X46860405Y-62817634D01*
X46477525Y-63200515D01*
X46365720Y-63312319D01*
X46365714Y-63312327D01*
X46329850Y-63374447D01*
X46329850Y-63374448D01*
X46286663Y-63449248D01*
X46286662Y-63449249D01*
X46277892Y-63481980D01*
X46245738Y-63601980D01*
X46245738Y-63601982D01*
X46245738Y-63703626D01*
X46226053Y-63770665D01*
X46218684Y-63780940D01*
X46216423Y-63783774D01*
X46120450Y-63936513D01*
X46060870Y-64106782D01*
X46060869Y-64106786D01*
X46053081Y-64175920D01*
X46026015Y-64240334D01*
X45968421Y-64279889D01*
X45929861Y-64286037D01*
X37321239Y-64286037D01*
X37321239Y-64566537D01*
X37301554Y-64633576D01*
X37248750Y-64679331D01*
X37201964Y-64689508D01*
X37202015Y-64690113D01*
X37197448Y-64690491D01*
X37197239Y-64690537D01*
X37196904Y-64690537D01*
X36951622Y-64731466D01*
X36716436Y-64812206D01*
X36716427Y-64812209D01*
X36497732Y-64930561D01*
X36301496Y-65083298D01*
X36133072Y-65266254D01*
X35997065Y-65474430D01*
X35897175Y-65702155D01*
X35836131Y-65943212D01*
X35836129Y-65943224D01*
X35815596Y-66191031D01*
X35815596Y-66191042D01*
X35836129Y-66438849D01*
X35836131Y-66438861D01*
X35897175Y-66679918D01*
X35997065Y-66907643D01*
X36133072Y-67115819D01*
X36133075Y-67115822D01*
X36301495Y-67298775D01*
X36497730Y-67451511D01*
X36497732Y-67451512D01*
X36655703Y-67537002D01*
X36716429Y-67569865D01*
X36951625Y-67650608D01*
X37196904Y-67691537D01*
X37197239Y-67691537D01*
X37197373Y-67691576D01*
X37202015Y-67691961D01*
X37201935Y-67692916D01*
X37264278Y-67711222D01*
X37310033Y-67764026D01*
X37321239Y-67815537D01*
X37321239Y-70126537D01*
X37301554Y-70193576D01*
X37248750Y-70239331D01*
X37197239Y-70250537D01*
X35290739Y-70250537D01*
X35223700Y-70230852D01*
X35177945Y-70178048D01*
X35166739Y-70126537D01*
X35166739Y-69671795D01*
X35186424Y-69604756D01*
X35203058Y-69584114D01*
X35204734Y-69582438D01*
X35340274Y-69388867D01*
X35440142Y-69174700D01*
X35501302Y-68946445D01*
X35521898Y-68711037D01*
X35501302Y-68475629D01*
X35440142Y-68247374D01*
X35340274Y-68033208D01*
X35257738Y-67915333D01*
X35204733Y-67839634D01*
X35037641Y-67672543D01*
X35037634Y-67672538D01*
X34844073Y-67537004D01*
X34844069Y-67537002D01*
X34844067Y-67537001D01*
X34629902Y-67437134D01*
X34629898Y-67437133D01*
X34629894Y-67437131D01*
X34401652Y-67375975D01*
X34401642Y-67375973D01*
X34166240Y-67355378D01*
X34166238Y-67355378D01*
X33930835Y-67375973D01*
X33930825Y-67375975D01*
X33702583Y-67437131D01*
X33702574Y-67437135D01*
X33488410Y-67537001D01*
X33488408Y-67537002D01*
X33294839Y-67672540D01*
X33172912Y-67794467D01*
X33111589Y-67827951D01*
X33041897Y-67822967D01*
X32985964Y-67781095D01*
X32969049Y-67750118D01*
X32920036Y-67618708D01*
X32920032Y-67618701D01*
X32833786Y-67503492D01*
X32833783Y-67503489D01*
X32718574Y-67417243D01*
X32718567Y-67417239D01*
X32583721Y-67366945D01*
X32583722Y-67366945D01*
X32524122Y-67360538D01*
X32524120Y-67360537D01*
X32524112Y-67360537D01*
X32524103Y-67360537D01*
X30728368Y-67360537D01*
X30728362Y-67360538D01*
X30668755Y-67366945D01*
X30533910Y-67417239D01*
X30533903Y-67417243D01*
X30418694Y-67503489D01*
X30418691Y-67503492D01*
X30332445Y-67618701D01*
X30332441Y-67618708D01*
X30282147Y-67753554D01*
X30275740Y-67813153D01*
X30275739Y-67813172D01*
X30275739Y-69608907D01*
X30275740Y-69608913D01*
X30282147Y-69668520D01*
X30332441Y-69803365D01*
X30332445Y-69803372D01*
X30418691Y-69918581D01*
X30418694Y-69918584D01*
X30533903Y-70004830D01*
X30533910Y-70004834D01*
X30665320Y-70053847D01*
X30721254Y-70095718D01*
X30745671Y-70161182D01*
X30730819Y-70229455D01*
X30709669Y-70257710D01*
X30587742Y-70379637D01*
X30452204Y-70573206D01*
X30452203Y-70573208D01*
X30352337Y-70787372D01*
X30352333Y-70787381D01*
X30291177Y-71015623D01*
X30291175Y-71015633D01*
X30270580Y-71251036D01*
X30270580Y-71251037D01*
X30291175Y-71486440D01*
X30291177Y-71486450D01*
X30352333Y-71714692D01*
X30352335Y-71714696D01*
X30352336Y-71714700D01*
X30356239Y-71723069D01*
X30452204Y-71928867D01*
X30452206Y-71928871D01*
X30560520Y-72083558D01*
X30587744Y-72122438D01*
X30754838Y-72289532D01*
X30833669Y-72344730D01*
X30948404Y-72425069D01*
X30948406Y-72425070D01*
X30948409Y-72425072D01*
X31162576Y-72524940D01*
X31390831Y-72586100D01*
X31579157Y-72602576D01*
X31626238Y-72606696D01*
X31626239Y-72606696D01*
X31626240Y-72606696D01*
X31665473Y-72603263D01*
X31861647Y-72586100D01*
X32089902Y-72524940D01*
X32304069Y-72425072D01*
X32497640Y-72289532D01*
X32664734Y-72122438D01*
X32794664Y-71936879D01*
X32849241Y-71893254D01*
X32918739Y-71886060D01*
X32981094Y-71917583D01*
X32997814Y-71936879D01*
X33127739Y-72122432D01*
X33127744Y-72122438D01*
X33294838Y-72289532D01*
X33373669Y-72344730D01*
X33488404Y-72425069D01*
X33488406Y-72425070D01*
X33488409Y-72425072D01*
X33702576Y-72524940D01*
X33930831Y-72586100D01*
X34119157Y-72602576D01*
X34166238Y-72606696D01*
X34166239Y-72606696D01*
X34166240Y-72606696D01*
X34205473Y-72603263D01*
X34401647Y-72586100D01*
X34629902Y-72524940D01*
X34844069Y-72425072D01*
X35037640Y-72289532D01*
X35039316Y-72287856D01*
X35040234Y-72287354D01*
X35041783Y-72286055D01*
X35042044Y-72286366D01*
X35100639Y-72254371D01*
X35126997Y-72251537D01*
X37197239Y-72251537D01*
X37264278Y-72271222D01*
X37310033Y-72324026D01*
X37321239Y-72375537D01*
X37321239Y-75592037D01*
X37301554Y-75659076D01*
X37248750Y-75704831D01*
X37197239Y-75716037D01*
X34836102Y-75716037D01*
X34769063Y-75696352D01*
X34748421Y-75679718D01*
X34720280Y-75651577D01*
X34720273Y-75651571D01*
X34572787Y-75553025D01*
X34408905Y-75485142D01*
X34408897Y-75485140D01*
X34234935Y-75450537D01*
X34234931Y-75450537D01*
X34057547Y-75450537D01*
X34057542Y-75450537D01*
X33883580Y-75485140D01*
X33883572Y-75485142D01*
X33719690Y-75553025D01*
X33572204Y-75651571D01*
X33572197Y-75651577D01*
X33544057Y-75679718D01*
X33482734Y-75713203D01*
X33456376Y-75716037D01*
X28865739Y-75716037D01*
X28798700Y-75696352D01*
X28752945Y-75643548D01*
X28741739Y-75592037D01*
X28741739Y-57821023D01*
X35701240Y-57821023D01*
X35711733Y-57923734D01*
X35766880Y-58090156D01*
X35766882Y-58090161D01*
X35858923Y-58239382D01*
X35982893Y-58363352D01*
X36132114Y-58455393D01*
X36132119Y-58455395D01*
X36298541Y-58510542D01*
X36298549Y-58510543D01*
X36383193Y-58519191D01*
X36390502Y-58521036D01*
X36394934Y-58521036D01*
X36407549Y-58521679D01*
X36414701Y-58522410D01*
X36422659Y-58521036D01*
X38226238Y-58521036D01*
X38726239Y-58521036D01*
X40651239Y-58521036D01*
X41151239Y-58521036D01*
X43076238Y-58521036D01*
X43576239Y-58521036D01*
X45401211Y-58521036D01*
X45401225Y-58521035D01*
X45503936Y-58510542D01*
X45670358Y-58455395D01*
X45670363Y-58455393D01*
X45819584Y-58363352D01*
X45943554Y-58239382D01*
X46035595Y-58090161D01*
X46035597Y-58090156D01*
X46090744Y-57923734D01*
X46090745Y-57923727D01*
X46101238Y-57821023D01*
X46101239Y-57821010D01*
X46101239Y-55646037D01*
X43576239Y-55646037D01*
X43576239Y-58521036D01*
X43076238Y-58521036D01*
X43076239Y-58521035D01*
X43076239Y-55646037D01*
X41151239Y-55646037D01*
X41151239Y-58521036D01*
X40651239Y-58521036D01*
X40651239Y-55646037D01*
X38726239Y-55646037D01*
X38726239Y-58521036D01*
X38226238Y-58521036D01*
X38226239Y-58521035D01*
X38226239Y-55646037D01*
X35701240Y-55646037D01*
X35701240Y-57821023D01*
X28741739Y-57821023D01*
X28741739Y-55146037D01*
X35701239Y-55146037D01*
X38226239Y-55146037D01*
X38726239Y-55146037D01*
X40651239Y-55146037D01*
X41151239Y-55146037D01*
X43076239Y-55146037D01*
X43576239Y-55146037D01*
X46101238Y-55146037D01*
X46101238Y-52871037D01*
X43576239Y-52871037D01*
X43576239Y-55146037D01*
X43076239Y-55146037D01*
X43076239Y-52871037D01*
X41151239Y-52871037D01*
X41151239Y-55146037D01*
X40651239Y-55146037D01*
X40651239Y-52871037D01*
X38726239Y-52871037D01*
X38726239Y-55146037D01*
X38226239Y-55146037D01*
X38226239Y-52871037D01*
X35701239Y-52871037D01*
X35701239Y-55146037D01*
X28741739Y-55146037D01*
X28741739Y-50319088D01*
X28741814Y-50316037D01*
X30135831Y-50316037D01*
X30155440Y-50602717D01*
X30213905Y-50884071D01*
X30213906Y-50884074D01*
X30310133Y-51154830D01*
X30310132Y-51154830D01*
X30442337Y-51409972D01*
X30608051Y-51644737D01*
X30686488Y-51728721D01*
X30804186Y-51854745D01*
X31027092Y-52036092D01*
X31244573Y-52168346D01*
X31272621Y-52185402D01*
X31459476Y-52266563D01*
X31536181Y-52299881D01*
X31812881Y-52377408D01*
X32063159Y-52411808D01*
X32097560Y-52416537D01*
X32097561Y-52416537D01*
X32384918Y-52416537D01*
X32415609Y-52412318D01*
X32669597Y-52377408D01*
X32692336Y-52371037D01*
X35701239Y-52371037D01*
X38226239Y-52371037D01*
X38726239Y-52371037D01*
X43076239Y-52371037D01*
X43576239Y-52371037D01*
X46101238Y-52371037D01*
X46101238Y-52277150D01*
X46101239Y-52277129D01*
X46101239Y-50096037D01*
X43576239Y-50096037D01*
X43576239Y-52371037D01*
X43076239Y-52371037D01*
X43076239Y-50096037D01*
X38726239Y-50096037D01*
X38726239Y-52371037D01*
X38226239Y-52371037D01*
X38226239Y-50096037D01*
X35701239Y-50096037D01*
X35701239Y-52371037D01*
X32692336Y-52371037D01*
X32946297Y-52299881D01*
X33162284Y-52206065D01*
X33209856Y-52185402D01*
X33209859Y-52185400D01*
X33209864Y-52185398D01*
X33455386Y-52036092D01*
X33678292Y-51854745D01*
X33874428Y-51644735D01*
X34040140Y-51409973D01*
X34172343Y-51154834D01*
X34268573Y-50884069D01*
X34327037Y-50602723D01*
X34346647Y-50316037D01*
X34327037Y-50029351D01*
X34268573Y-49748005D01*
X34226008Y-49628240D01*
X34172344Y-49477243D01*
X34172345Y-49477243D01*
X34040140Y-49222101D01*
X33874426Y-48987336D01*
X33795793Y-48903142D01*
X33678292Y-48777329D01*
X33455386Y-48595982D01*
X33455385Y-48595981D01*
X33209856Y-48446671D01*
X32946302Y-48332195D01*
X32946300Y-48332194D01*
X32946297Y-48332193D01*
X32816817Y-48295914D01*
X32669603Y-48254667D01*
X32669598Y-48254666D01*
X32669597Y-48254666D01*
X32527257Y-48235101D01*
X32384918Y-48215537D01*
X32384917Y-48215537D01*
X32097561Y-48215537D01*
X32097560Y-48215537D01*
X31812881Y-48254666D01*
X31812874Y-48254667D01*
X31605100Y-48312882D01*
X31536181Y-48332193D01*
X31536178Y-48332193D01*
X31536175Y-48332195D01*
X31536174Y-48332195D01*
X31272621Y-48446671D01*
X31027092Y-48595981D01*
X30804189Y-48777326D01*
X30608051Y-48987336D01*
X30442337Y-49222101D01*
X30310133Y-49477243D01*
X30213906Y-49747999D01*
X30213905Y-49748002D01*
X30155440Y-50029356D01*
X30135831Y-50316037D01*
X28741814Y-50316037D01*
X28741888Y-50313004D01*
X28755519Y-50035537D01*
X28758291Y-49979106D01*
X28759484Y-49966999D01*
X28808087Y-49639345D01*
X28810461Y-49627410D01*
X28851969Y-49461703D01*
X28890949Y-49306085D01*
X28894474Y-49294464D01*
X29006077Y-48982554D01*
X29010719Y-48971347D01*
X29152359Y-48671874D01*
X29158083Y-48661166D01*
X29328385Y-48377036D01*
X29335128Y-48366943D01*
X29532472Y-48100856D01*
X29540175Y-48091471D01*
X29762645Y-47846013D01*
X29771215Y-47837443D01*
X30016673Y-47614974D01*
X30026058Y-47607271D01*
X30292145Y-47409927D01*
X30302238Y-47403184D01*
X30586376Y-47232879D01*
X30597068Y-47227163D01*
X30896558Y-47085515D01*
X30907765Y-47080874D01*
X31219651Y-46969278D01*
X31231287Y-46965748D01*
X31552622Y-46885258D01*
X31564532Y-46882889D01*
X31892203Y-46834283D01*
X31904305Y-46833091D01*
X32238261Y-46816685D01*
X32244317Y-46816537D01*
X35751569Y-46816537D01*
X35818608Y-46836222D01*
G37*
%TD.AperFunction*%
%TA.AperFunction,Conductor*%
G36*
X58173942Y-51351222D02*
G01*
X58194584Y-51367856D01*
X58594420Y-51767692D01*
X58627905Y-51829015D01*
X58630739Y-51855373D01*
X58630739Y-52683907D01*
X58630740Y-52683913D01*
X58637147Y-52743520D01*
X58687441Y-52878365D01*
X58687445Y-52878372D01*
X58773691Y-52993581D01*
X58773694Y-52993584D01*
X58888903Y-53079830D01*
X58888910Y-53079834D01*
X59023756Y-53130128D01*
X59023755Y-53130128D01*
X59028992Y-53130691D01*
X59083366Y-53136537D01*
X61279111Y-53136536D01*
X61333484Y-53130691D01*
X61402243Y-53143096D01*
X61453381Y-53190706D01*
X61470739Y-53253980D01*
X61470739Y-53981537D01*
X61451054Y-54048576D01*
X61398250Y-54094331D01*
X61346739Y-54105537D01*
X56528993Y-54105537D01*
X56461954Y-54085852D01*
X56416199Y-54033048D01*
X56406255Y-53963890D01*
X56423454Y-53916440D01*
X56510595Y-53775161D01*
X56510597Y-53775156D01*
X56565744Y-53608734D01*
X56565745Y-53608727D01*
X56576238Y-53506023D01*
X56576239Y-53506010D01*
X56576239Y-53106037D01*
X55505385Y-53106037D01*
X55543869Y-53039380D01*
X55576239Y-52918572D01*
X55576239Y-52793502D01*
X55543869Y-52672694D01*
X55505385Y-52606037D01*
X56576238Y-52606037D01*
X56576238Y-52206065D01*
X56576237Y-52206050D01*
X56565744Y-52103339D01*
X56510597Y-51936917D01*
X56510595Y-51936912D01*
X56418554Y-51787691D01*
X56294584Y-51663721D01*
X56145363Y-51571680D01*
X56138818Y-51568629D01*
X56139940Y-51566221D01*
X56092639Y-51533476D01*
X56065812Y-51468961D01*
X56078123Y-51400185D01*
X56125663Y-51348982D01*
X56189083Y-51331537D01*
X58106903Y-51331537D01*
X58173942Y-51351222D01*
G37*
%TD.AperFunction*%
M02*
