%TF.GenerationSoftware,KiCad,Pcbnew,8.0.5*%
%TF.CreationDate,2024-11-16T16:01:40-06:00*%
%TF.ProjectId,ControllerPCB,436f6e74-726f-46c6-9c65-725043422e6b,rev?*%
%TF.SameCoordinates,Original*%
%TF.FileFunction,Copper,L4,Bot*%
%TF.FilePolarity,Positive*%
%FSLAX46Y46*%
G04 Gerber Fmt 4.6, Leading zero omitted, Abs format (unit mm)*
G04 Created by KiCad (PCBNEW 8.0.5) date 2024-11-16 16:01:40*
%MOMM*%
%LPD*%
G01*
G04 APERTURE LIST*
G04 Aperture macros list*
%AMRoundRect*
0 Rectangle with rounded corners*
0 $1 Rounding radius*
0 $2 $3 $4 $5 $6 $7 $8 $9 X,Y pos of 4 corners*
0 Add a 4 corners polygon primitive as box body*
4,1,4,$2,$3,$4,$5,$6,$7,$8,$9,$2,$3,0*
0 Add four circle primitives for the rounded corners*
1,1,$1+$1,$2,$3*
1,1,$1+$1,$4,$5*
1,1,$1+$1,$6,$7*
1,1,$1+$1,$8,$9*
0 Add four rect primitives between the rounded corners*
20,1,$1+$1,$2,$3,$4,$5,0*
20,1,$1+$1,$4,$5,$6,$7,0*
20,1,$1+$1,$6,$7,$8,$9,0*
20,1,$1+$1,$8,$9,$2,$3,0*%
G04 Aperture macros list end*
%TA.AperFunction,ComponentPad*%
%ADD10O,1.000000X1.900000*%
%TD*%
%TA.AperFunction,ComponentPad*%
%ADD11O,1.050000X1.250000*%
%TD*%
%TA.AperFunction,SMDPad,CuDef*%
%ADD12R,1.500000X1.500000*%
%TD*%
%TA.AperFunction,ComponentPad*%
%ADD13R,1.700000X1.700000*%
%TD*%
%TA.AperFunction,ComponentPad*%
%ADD14O,1.700000X1.700000*%
%TD*%
%TA.AperFunction,ComponentPad*%
%ADD15C,1.651000*%
%TD*%
%TA.AperFunction,WasherPad*%
%ADD16C,3.200000*%
%TD*%
%TA.AperFunction,ComponentPad*%
%ADD17C,0.600000*%
%TD*%
%TA.AperFunction,ComponentPad*%
%ADD18C,4.066000*%
%TD*%
%TA.AperFunction,ComponentPad*%
%ADD19C,1.575000*%
%TD*%
%TA.AperFunction,ComponentPad*%
%ADD20R,1.575000X1.575000*%
%TD*%
%TA.AperFunction,ComponentPad*%
%ADD21RoundRect,0.250000X-0.725000X0.600000X-0.725000X-0.600000X0.725000X-0.600000X0.725000X0.600000X0*%
%TD*%
%TA.AperFunction,ComponentPad*%
%ADD22O,1.950000X1.700000*%
%TD*%
%TA.AperFunction,ComponentPad*%
%ADD23R,2.100000X2.100000*%
%TD*%
%TA.AperFunction,ComponentPad*%
%ADD24C,2.100000*%
%TD*%
%TA.AperFunction,ViaPad*%
%ADD25C,0.600000*%
%TD*%
%TA.AperFunction,ViaPad*%
%ADD26C,1.000000*%
%TD*%
%TA.AperFunction,ViaPad*%
%ADD27C,2.000000*%
%TD*%
%TA.AperFunction,Conductor*%
%ADD28C,1.500000*%
%TD*%
%TA.AperFunction,Conductor*%
%ADD29C,0.200000*%
%TD*%
%TA.AperFunction,Conductor*%
%ADD30C,1.000000*%
%TD*%
%TA.AperFunction,Conductor*%
%ADD31C,0.800000*%
%TD*%
G04 APERTURE END LIST*
D10*
X36226643Y-129842442D03*
D11*
X38176643Y-126842442D03*
X42626643Y-126842442D03*
D10*
X44576643Y-129842442D03*
D12*
X69551239Y-85876037D03*
X69551239Y-83336037D03*
X83041239Y-80796037D03*
X74151239Y-80796037D03*
X74151239Y-83336037D03*
X74151239Y-85876037D03*
X83041239Y-85876037D03*
D13*
X31626239Y-68711037D03*
D14*
X31626239Y-71251037D03*
X34166239Y-68711037D03*
X34166239Y-71251037D03*
D15*
X81531239Y-60773237D03*
X79031239Y-60773237D03*
X76531239Y-60773237D03*
X74031239Y-60773237D03*
X71531239Y-60773237D03*
X69031239Y-60773237D03*
X66531239Y-60773237D03*
X64031239Y-60773237D03*
X61531239Y-60773237D03*
X59031239Y-60773237D03*
D12*
X83041239Y-83336037D03*
D15*
X70341239Y-108101037D03*
X67841239Y-108101037D03*
X65341239Y-108101037D03*
X62841239Y-108101037D03*
X60341239Y-108101037D03*
X57841239Y-108101037D03*
X55341239Y-108101037D03*
X52841239Y-108101037D03*
X50341239Y-108101037D03*
X47841239Y-108101037D03*
D16*
X32241239Y-50316037D03*
D17*
X79245239Y-78037637D03*
X77745239Y-78037637D03*
X79995239Y-78787637D03*
X78495239Y-78787637D03*
X76995239Y-78787637D03*
X79245239Y-79537637D03*
X77745239Y-79537637D03*
X79995239Y-80287637D03*
X78495239Y-80287637D03*
X76995239Y-80287637D03*
X79245239Y-81037637D03*
X77745239Y-81037637D03*
D18*
X52421239Y-123191037D03*
X77411239Y-123191037D03*
D19*
X69071239Y-124611037D03*
X66301239Y-124611037D03*
X63531239Y-124611037D03*
X60761239Y-124611037D03*
X70456239Y-121771037D03*
X67686239Y-121771037D03*
X64916239Y-121771037D03*
X62146239Y-121771037D03*
D20*
X59376239Y-121771037D03*
D16*
X81241239Y-108316037D03*
D21*
X55101239Y-52856037D03*
D22*
X55101239Y-55356037D03*
X55101239Y-57856037D03*
X55101239Y-60356037D03*
X55101239Y-62856037D03*
D12*
X74151239Y-78256037D03*
D23*
X60181239Y-51586037D03*
D24*
X62721239Y-51586037D03*
D16*
X81241239Y-50316037D03*
X32241239Y-108316037D03*
D25*
X54466239Y-113816037D03*
X74151239Y-74446037D03*
X59546239Y-90956037D03*
X70976239Y-75716037D03*
X37321239Y-103656037D03*
X48151239Y-96712064D03*
X41766239Y-78256037D03*
X41766239Y-103021037D03*
X49386239Y-78256037D03*
X69706239Y-101751037D03*
X58276239Y-96036037D03*
X78596239Y-98576037D03*
X74786239Y-97941037D03*
X58276239Y-97941037D03*
X51291239Y-59841037D03*
X37321239Y-83336037D03*
X33511239Y-118261037D03*
X35416239Y-120166037D03*
X39861239Y-106831037D03*
X68431239Y-73811037D03*
X40496239Y-108101037D03*
X67801239Y-74446037D03*
X60851239Y-70179564D03*
X61451239Y-78891037D03*
D26*
X83859979Y-92623591D03*
D25*
X72246239Y-84606037D03*
X74786239Y-56666037D03*
X76691239Y-73811037D03*
X58911239Y-112546037D03*
X62721239Y-84606037D03*
X64626239Y-92226037D03*
X63991239Y-81431037D03*
X69071239Y-94766037D03*
X63356239Y-78891037D03*
X46846239Y-64286037D03*
X58911239Y-73811037D03*
X74786239Y-103021037D03*
X62721239Y-106196037D03*
X81305239Y-98576037D03*
X56371239Y-83971037D03*
X56371239Y-101116037D03*
X57641239Y-103656037D03*
X53196239Y-89686037D03*
X48751239Y-86511037D03*
X43671239Y-80796037D03*
X36686239Y-92226037D03*
X34146239Y-98576037D03*
X67801239Y-95401037D03*
X67801239Y-100481037D03*
X70976239Y-56666037D03*
D27*
X82406239Y-75716037D03*
X81771239Y-69366037D03*
D25*
X79866239Y-74446037D03*
X53831239Y-80161037D03*
X67801239Y-85876037D03*
X67801239Y-83971037D03*
X41766239Y-123341037D03*
D27*
X37321239Y-66191037D03*
X43671239Y-69366037D03*
X50021239Y-69366037D03*
D25*
X68436239Y-78256037D03*
X68543004Y-76457802D03*
X69071239Y-75081037D03*
X70341239Y-74446037D03*
X30991239Y-118261037D03*
X38591239Y-99211037D03*
X38591239Y-95401037D03*
X44978739Y-87781037D03*
X34146239Y-76351037D03*
X38358739Y-80161037D03*
X43036239Y-97306037D03*
X44708739Y-95401037D03*
X36051239Y-103021037D03*
X32241239Y-80161037D03*
X32241239Y-83971037D03*
X32241239Y-99211037D03*
X32241239Y-95401037D03*
X32241239Y-91591037D03*
X32241239Y-87781037D03*
X75421239Y-82066037D03*
X75421239Y-84606037D03*
X74151239Y-87146037D03*
X80501239Y-84606037D03*
X80501239Y-85876037D03*
X80501239Y-87146037D03*
D28*
X59546239Y-127786037D02*
X65261239Y-127786037D01*
X54466239Y-118896037D02*
X55404239Y-119834037D01*
X55404239Y-123644037D02*
X59546239Y-127786037D01*
X66301239Y-126746037D02*
X66301239Y-124611037D01*
X55404239Y-119834037D02*
X55404239Y-123644037D01*
X65261239Y-127786037D02*
X66301239Y-126746037D01*
D29*
X49634768Y-77656037D02*
X49986239Y-78007508D01*
X42366239Y-77656037D02*
X49634768Y-77656037D01*
X41766239Y-78256037D02*
X42366239Y-77656037D01*
X49986239Y-84427508D02*
X48151239Y-86262508D01*
X48151239Y-86262508D02*
X48151239Y-96712064D01*
X49986239Y-78007508D02*
X49986239Y-84427508D01*
X49386239Y-78256037D02*
X41766239Y-85876037D01*
X41766239Y-85876037D02*
X41766239Y-103021037D01*
X57676239Y-102421037D02*
X59215739Y-103960537D01*
X59215739Y-103960537D02*
X59215739Y-112241537D01*
X59215739Y-112241537D02*
X58911239Y-112546037D01*
X58276239Y-96036037D02*
X57676239Y-96636037D01*
X57676239Y-96636037D02*
X57676239Y-102421037D01*
X58276239Y-97941037D02*
X74786239Y-97941037D01*
X35416239Y-120166037D02*
X33511239Y-118261037D01*
X55101239Y-64429564D02*
X60851239Y-70179564D01*
X55101239Y-62856037D02*
X55101239Y-64429564D01*
X61451239Y-66706037D02*
X61451239Y-78891037D01*
X55101239Y-60356037D02*
X61451239Y-66706037D01*
X83041239Y-85876037D02*
X81771239Y-85876037D01*
X81771239Y-85876037D02*
X80501239Y-87146037D01*
X83041239Y-83336037D02*
X80501239Y-85876037D01*
X83041239Y-80796037D02*
X80501239Y-83336037D01*
X80501239Y-83336037D02*
X80501239Y-84606037D01*
X74151239Y-78256037D02*
X72246239Y-80161037D01*
X72246239Y-80161037D02*
X72246239Y-84606037D01*
X74151239Y-85876037D02*
X74151239Y-87146037D01*
X74151239Y-83336037D02*
X75421239Y-84606037D01*
X74151239Y-80796037D02*
X75421239Y-82066037D01*
X75156739Y-57036537D02*
X74786239Y-56666037D01*
X76691239Y-73811037D02*
X75156739Y-72276537D01*
X75156739Y-72276537D02*
X75156739Y-57036537D01*
X64626239Y-92226037D02*
X64626239Y-91591037D01*
X64626239Y-91591037D02*
X62721239Y-89686037D01*
X62721239Y-89686037D02*
X62721239Y-84606037D01*
X63991239Y-81431037D02*
X63991239Y-89686037D01*
X63991239Y-89686037D02*
X69071239Y-94766037D01*
X63356239Y-78891037D02*
X63356239Y-66689935D01*
X63356239Y-66689935D02*
X55101239Y-58434935D01*
X55101239Y-58434935D02*
X55101239Y-57856037D01*
X58911239Y-73811037D02*
X49386239Y-64286037D01*
X49386239Y-64286037D02*
X46846239Y-64286037D01*
X62721239Y-106196037D02*
X65896239Y-103021037D01*
X65896239Y-103021037D02*
X74786239Y-103021037D01*
X60341239Y-108101037D02*
X61466739Y-106975537D01*
X72905739Y-106975537D02*
X81305239Y-98576037D01*
X61466739Y-106975537D02*
X72905739Y-106975537D01*
X56371239Y-101116037D02*
X56371239Y-83971037D01*
X57641239Y-103656037D02*
X53196239Y-99211037D01*
X53196239Y-99211037D02*
X53196239Y-89686037D01*
X48751239Y-106511037D02*
X50341239Y-108101037D01*
X48751239Y-86511037D02*
X48751239Y-106511037D01*
X36686239Y-92226037D02*
X36686239Y-87781037D01*
X36686239Y-87781037D02*
X43671239Y-80796037D01*
D28*
X34146239Y-98576037D02*
X54466239Y-118896037D01*
X55101239Y-52856037D02*
X54126239Y-52856037D01*
X54126239Y-52856037D02*
X38591239Y-68391037D01*
X34146239Y-82605770D02*
X34146239Y-98576037D01*
X38591239Y-68391037D02*
X38591239Y-78160770D01*
X38591239Y-78160770D02*
X34146239Y-82605770D01*
X54466239Y-118896037D02*
X55713672Y-118896037D01*
X55713672Y-118896037D02*
X65341239Y-109268470D01*
X65341239Y-109268470D02*
X65341239Y-108101037D01*
X60181239Y-51586037D02*
X57006239Y-48411037D01*
X49576239Y-48411037D02*
X32971239Y-65016037D01*
X57006239Y-48411037D02*
X49576239Y-48411037D01*
D29*
X72905739Y-71490537D02*
X72905739Y-58595537D01*
X72905739Y-58595537D02*
X70976239Y-56666037D01*
X75861239Y-74446037D02*
X72905739Y-71490537D01*
X70146239Y-80161037D02*
X75861239Y-74446037D01*
X53831239Y-80161037D02*
X70146239Y-80161037D01*
X75861239Y-74446037D02*
X79866239Y-74446037D01*
X67801239Y-85876037D02*
X69551239Y-85876037D01*
X68436239Y-83336037D02*
X69551239Y-83336037D01*
X67801239Y-83971037D02*
X68436239Y-83336037D01*
D30*
X41766239Y-111911037D02*
X41766239Y-123341037D01*
X29701239Y-103021037D02*
X32876239Y-103021037D01*
X32876239Y-103021037D02*
X34146239Y-104291037D01*
X34146239Y-104291037D02*
X41766239Y-111911037D01*
X31626239Y-73791037D02*
X29701239Y-75716037D01*
X29701239Y-75716037D02*
X29701239Y-103021037D01*
X31626239Y-71251037D02*
X31626239Y-73791037D01*
D28*
X32971239Y-65016037D02*
X31626239Y-66361037D01*
D31*
X34146239Y-76351037D02*
X36686239Y-73811037D01*
X36686239Y-73811037D02*
X36686239Y-68731037D01*
X36686239Y-68731037D02*
X32971239Y-65016037D01*
D28*
X31626239Y-66361037D02*
X31626239Y-68711037D01*
D29*
X64031239Y-73851037D02*
X68436239Y-78256037D01*
X64031239Y-60773237D02*
X64031239Y-73851037D01*
X66531239Y-74446037D02*
X68543004Y-76457802D01*
X66531239Y-60773237D02*
X66531239Y-74446037D01*
X69031239Y-75041037D02*
X69071239Y-75081037D01*
X69031239Y-60773237D02*
X69031239Y-75041037D01*
X70341239Y-74446037D02*
X71611239Y-74446037D01*
X71611239Y-74446037D02*
X71531239Y-74366037D01*
X71531239Y-74366037D02*
X71531239Y-60773237D01*
M02*
