%TF.GenerationSoftware,KiCad,Pcbnew,8.0.5*%
%TF.CreationDate,2024-10-10T20:32:43-06:00*%
%TF.ProjectId,PancakeCNCPCB,50616e63-616b-4654-934e-435043422e6b,rev?*%
%TF.SameCoordinates,Original*%
%TF.FileFunction,Copper,L3,Inr*%
%TF.FilePolarity,Positive*%
%FSLAX46Y46*%
G04 Gerber Fmt 4.6, Leading zero omitted, Abs format (unit mm)*
G04 Created by KiCad (PCBNEW 8.0.5) date 2024-10-10 20:32:43*
%MOMM*%
%LPD*%
G01*
G04 APERTURE LIST*
G04 Aperture macros list*
%AMRoundRect*
0 Rectangle with rounded corners*
0 $1 Rounding radius*
0 $2 $3 $4 $5 $6 $7 $8 $9 X,Y pos of 4 corners*
0 Add a 4 corners polygon primitive as box body*
4,1,4,$2,$3,$4,$5,$6,$7,$8,$9,$2,$3,0*
0 Add four circle primitives for the rounded corners*
1,1,$1+$1,$2,$3*
1,1,$1+$1,$4,$5*
1,1,$1+$1,$6,$7*
1,1,$1+$1,$8,$9*
0 Add four rect primitives between the rounded corners*
20,1,$1+$1,$2,$3,$4,$5,0*
20,1,$1+$1,$4,$5,$6,$7,0*
20,1,$1+$1,$6,$7,$8,$9,0*
20,1,$1+$1,$8,$9,$2,$3,0*%
G04 Aperture macros list end*
%TA.AperFunction,ComponentPad*%
%ADD10C,0.600000*%
%TD*%
%TA.AperFunction,ComponentPad*%
%ADD11O,1.900000X1.000000*%
%TD*%
%TA.AperFunction,ComponentPad*%
%ADD12O,1.250000X1.050000*%
%TD*%
%TA.AperFunction,ComponentPad*%
%ADD13R,1.700000X1.700000*%
%TD*%
%TA.AperFunction,ComponentPad*%
%ADD14O,1.700000X1.700000*%
%TD*%
%TA.AperFunction,ComponentPad*%
%ADD15C,1.651000*%
%TD*%
%TA.AperFunction,ComponentPad*%
%ADD16R,1.575000X1.575000*%
%TD*%
%TA.AperFunction,ComponentPad*%
%ADD17C,1.575000*%
%TD*%
%TA.AperFunction,ComponentPad*%
%ADD18C,4.066000*%
%TD*%
%TA.AperFunction,ComponentPad*%
%ADD19RoundRect,0.250000X-0.600000X-0.725000X0.600000X-0.725000X0.600000X0.725000X-0.600000X0.725000X0*%
%TD*%
%TA.AperFunction,ComponentPad*%
%ADD20O,1.700000X1.950000*%
%TD*%
%TA.AperFunction,ComponentPad*%
%ADD21R,2.100000X2.100000*%
%TD*%
%TA.AperFunction,ComponentPad*%
%ADD22C,2.100000*%
%TD*%
%TA.AperFunction,ViaPad*%
%ADD23C,1.800000*%
%TD*%
%TA.AperFunction,ViaPad*%
%ADD24C,0.600000*%
%TD*%
%TA.AperFunction,ViaPad*%
%ADD25C,1.200000*%
%TD*%
%TA.AperFunction,Conductor*%
%ADD26C,0.200000*%
%TD*%
G04 APERTURE END LIST*
D10*
%TO.N,GND*%
%TO.C,U2*%
X50140000Y-52590000D03*
X50140000Y-54090000D03*
X50890000Y-51840000D03*
X50890000Y-53340000D03*
X50890000Y-54840000D03*
X51640000Y-52590000D03*
X51640000Y-54090000D03*
X52390000Y-51840000D03*
X52390000Y-53340000D03*
X52390000Y-54840000D03*
X53140000Y-52590000D03*
X53140000Y-54090000D03*
%TD*%
D11*
%TO.N,GND*%
%TO.C,J1*%
X31000000Y-64430000D03*
D12*
X34000000Y-62480000D03*
X34000000Y-58030000D03*
D11*
X31000000Y-56080000D03*
%TD*%
D13*
%TO.N,+12V*%
%TO.C,J7*%
X44430000Y-128470000D03*
D14*
%TO.N,VBUS*%
X41890000Y-128470000D03*
%TO.N,Net-(J7-Pin_b1)*%
X44430000Y-131010000D03*
X41890000Y-131010000D03*
%TD*%
D15*
%TO.N,Net-(J4-Pin_1)*%
%TO.C,J4*%
X33000000Y-71320000D03*
%TO.N,Net-(J4-Pin_2)*%
X33000000Y-73820000D03*
%TO.N,Net-(J4-Pin_3)*%
X33000000Y-76320000D03*
%TO.N,Net-(J4-Pin_4)*%
X33000000Y-78820000D03*
%TO.N,Net-(J4-Pin_5)*%
X33000000Y-81320000D03*
%TO.N,Net-(J4-Pin_6)*%
X33000000Y-83820000D03*
%TO.N,Net-(J4-Pin_7)*%
X33000000Y-86320000D03*
%TO.N,Net-(J4-Pin_8)*%
X33000000Y-88820000D03*
%TO.N,+3.3V*%
X33000000Y-91320000D03*
%TO.N,GND*%
X33000000Y-93820000D03*
%TD*%
%TO.N,Net-(J5-Pin_10)*%
%TO.C,J5*%
X33000000Y-123110000D03*
%TO.N,Net-(J5-Pin_9)*%
X33000000Y-120610000D03*
%TO.N,Net-(J5-Pin_8)*%
X33000000Y-118110000D03*
%TO.N,Net-(J5-Pin_7)*%
X33000000Y-115610000D03*
%TO.N,Net-(J5-Pin_6)*%
X33000000Y-113110000D03*
%TO.N,Net-(J5-Pin_5)*%
X33000000Y-110610000D03*
%TO.N,Net-(J5-Pin_4)*%
X33000000Y-108110000D03*
%TO.N,+5V*%
X33000000Y-105610000D03*
%TO.N,+3.3V*%
X33000000Y-103110000D03*
%TO.N,GND*%
X33000000Y-100610000D03*
%TD*%
D16*
%TO.N,Net-(U2-IO15)*%
%TO.C,J2*%
X65727500Y-80815000D03*
D17*
%TO.N,GND*%
X65727500Y-83585000D03*
%TO.N,Net-(U2-IO16)*%
X65727500Y-86355000D03*
%TO.N,GND*%
X65727500Y-89125000D03*
%TO.N,unconnected-(J2-Pad5)*%
X65727500Y-91895000D03*
%TO.N,unconnected-(J2-Pad6)*%
X68567500Y-82200000D03*
%TO.N,Net-(U6-B2)*%
X68567500Y-84970000D03*
%TO.N,+5V*%
X68567500Y-87740000D03*
%TO.N,GND*%
X68567500Y-90510000D03*
D18*
%TO.N,N/C*%
X67147500Y-98850000D03*
X67147500Y-73860000D03*
%TD*%
D19*
%TO.N,Net-(J6-Pin_1)*%
%TO.C,J6*%
X45780000Y-110390000D03*
D20*
%TO.N,Net-(J6-Pin_2)*%
X48280000Y-110390000D03*
%TO.N,Net-(J6-Pin_3)*%
X50780000Y-110390000D03*
%TO.N,+5V*%
X53280000Y-110390000D03*
%TO.N,GND*%
X55780000Y-110390000D03*
%TD*%
D21*
%TO.N,+12V*%
%TO.C,J3*%
X63480000Y-129740000D03*
D22*
%TO.N,GND*%
X66020000Y-129740000D03*
%TD*%
D23*
%TO.N,+3.3V*%
X45700000Y-114500000D03*
D24*
%TO.N,Net-(D4-A2)*%
X42490000Y-61096857D03*
X35540000Y-59890000D03*
%TO.N,GND*%
X57130000Y-48460000D03*
X40620000Y-48460000D03*
%TO.N,+3.3V*%
X41890000Y-49730000D03*
%TO.N,Net-(D3-A1)*%
X47300000Y-73646471D03*
%TO.N,Net-(D4-A2)*%
X42490000Y-63935834D03*
X41410616Y-74760854D03*
%TO.N,Net-(J5-Pin_9)*%
X59670000Y-62430000D03*
X44272510Y-71898961D03*
%TO.N,Net-(J5-Pin_7)*%
X46970000Y-63030000D03*
X41890000Y-71320000D03*
%TO.N,Net-(U2-IO15)*%
X60940000Y-76400000D03*
X57130000Y-75130000D03*
X58400000Y-67510000D03*
X58400000Y-57350000D03*
%TO.N,Net-(U2-IO16)*%
X57130000Y-73860000D03*
%TO.N,Net-(U2-IO15)*%
X62210000Y-80210000D03*
%TO.N,Net-(U2-IO17)*%
X49510000Y-58620000D03*
X48364265Y-72044265D03*
%TO.N,Net-(SW1A-D)*%
X46970000Y-51000000D03*
X45123909Y-73018016D03*
X47394265Y-70474265D03*
X45630000Y-67908446D03*
%TO.N,+5V*%
X54590000Y-87830000D03*
%TO.N,Net-(U6-B2)*%
X60940000Y-86560000D03*
%TO.N,Net-(U2-IO21)*%
X43160000Y-90370000D03*
X46970000Y-54810000D03*
%TO.N,Net-(U2-IO12)*%
X52050000Y-67510000D03*
X43160000Y-89100000D03*
%TO.N,Net-(J6-Pin_3)*%
X46970000Y-58620000D03*
X48240000Y-96720000D03*
%TO.N,Net-(J6-Pin_2)*%
X52050000Y-64499998D03*
%TO.N,Net-(J6-Pin_1)*%
X51233620Y-64176418D03*
%TO.N,Net-(SW1A-D)*%
X43160000Y-85290000D03*
X41890000Y-87830000D03*
%TO.N,Net-(U2-IO3)*%
X44430000Y-67510000D03*
X63480000Y-108230000D03*
X38080000Y-92910000D03*
X60940000Y-95450000D03*
%TO.N,Net-(J5-Pin_9)*%
X57730000Y-88870389D03*
X50780000Y-103070000D03*
%TO.N,Net-(J5-Pin_8)*%
X44430000Y-80210000D03*
X40630243Y-95439756D03*
%TO.N,Net-(J5-Pin_7)*%
X50780000Y-85290000D03*
X40620000Y-96720000D03*
%TO.N,Net-(J5-Pin_6)*%
X44430000Y-101800000D03*
X57130000Y-76400000D03*
%TO.N,Net-(J5-Pin_5)*%
X55860000Y-53540000D03*
X39350000Y-104340000D03*
D23*
%TO.N,GND*%
X38080000Y-124660000D03*
%TO.N,Net-(J7-Pin_b1)*%
X46970000Y-119580000D03*
%TO.N,+3.3V*%
X40728859Y-124768859D03*
D24*
%TO.N,GND*%
X74910000Y-118310000D03*
%TO.N,+3.3V*%
X60940000Y-110690000D03*
%TO.N,GND*%
X60940000Y-111960000D03*
%TO.N,+3.3V*%
X73640000Y-108150000D03*
%TO.N,GND*%
X71100000Y-108150000D03*
X67290000Y-120850000D03*
X74910000Y-123390000D03*
%TO.N,+3.3V*%
X74910000Y-120850000D03*
D25*
%TO.N,+12V*%
X50780000Y-114500000D03*
D24*
%TO.N,GND*%
X52050000Y-99260000D03*
X44430000Y-76400000D03*
X46386762Y-92430021D03*
%TO.N,+3.3V*%
X46235542Y-88563124D03*
%TO.N,GND*%
X30460000Y-62430000D03*
X41890000Y-82750000D03*
%TO.N,+3.3V*%
X48240000Y-82750000D03*
%TO.N,GND*%
X59670000Y-82750000D03*
X50780000Y-75130000D03*
%TO.N,+3.3V*%
X58400000Y-77670000D03*
X58400000Y-75130000D03*
%TO.N,GND*%
X54590000Y-77670000D03*
%TO.N,+3.3V*%
X53320000Y-75130000D03*
X48240000Y-76400000D03*
%TO.N,Net-(J4-Pin_8)*%
X54590000Y-67510000D03*
X39350000Y-82750000D03*
%TO.N,Net-(J4-Pin_5)*%
X53308185Y-63576418D03*
X39350000Y-75130000D03*
%TO.N,Net-(J4-Pin_6)*%
X39350000Y-77670000D03*
X48240000Y-68780000D03*
%TO.N,Net-(J4-Pin_7)*%
X49510000Y-70050000D03*
X39350000Y-80210000D03*
%TO.N,Net-(D3-A1)*%
X35540000Y-61895000D03*
X48240000Y-62430000D03*
D25*
%TO.N,VBUS*%
X30460000Y-66240000D03*
D24*
%TO.N,Net-(J5-Pin_8)*%
X45700000Y-77670000D03*
X53320000Y-70050000D03*
%TO.N,Net-(J5-Pin_4)*%
X55860000Y-49730000D03*
X38080000Y-103070000D03*
%TD*%
D26*
%TO.N,Net-(D3-A1)*%
X47300000Y-73646471D02*
X46618530Y-72965001D01*
X46618530Y-72965001D02*
X46618530Y-64229999D01*
X48240000Y-62608529D02*
X48240000Y-62430000D01*
X46618530Y-64229999D02*
X48240000Y-62608529D01*
%TO.N,+5V*%
X71100000Y-94180000D02*
X71100000Y-87830000D01*
X60940000Y-94180000D02*
X71100000Y-94180000D01*
X54590000Y-87830000D02*
X60940000Y-94180000D01*
X69740000Y-87740000D02*
X68567500Y-87740000D01*
X71100000Y-87830000D02*
X69830000Y-87830000D01*
X69830000Y-87830000D02*
X69740000Y-87740000D01*
%TO.N,Net-(U2-IO12)*%
X43160000Y-89100000D02*
X52050000Y-80210000D01*
X52050000Y-80210000D02*
X52050000Y-67510000D01*
%TD*%
%TA.AperFunction,Conductor*%
%TO.N,GND*%
G36*
X73002702Y-46500617D02*
G01*
X73386771Y-46517386D01*
X73397506Y-46518326D01*
X73775971Y-46568152D01*
X73786597Y-46570025D01*
X74159284Y-46652648D01*
X74169710Y-46655442D01*
X74533765Y-46770227D01*
X74543911Y-46773920D01*
X74896578Y-46920000D01*
X74906369Y-46924566D01*
X75244942Y-47100816D01*
X75254310Y-47106224D01*
X75576244Y-47311318D01*
X75585105Y-47317523D01*
X75887930Y-47549889D01*
X75896217Y-47556843D01*
X76177635Y-47814715D01*
X76185284Y-47822364D01*
X76443156Y-48103782D01*
X76450110Y-48112069D01*
X76682476Y-48414894D01*
X76688681Y-48423755D01*
X76893775Y-48745689D01*
X76899183Y-48755057D01*
X77075430Y-49093623D01*
X77080002Y-49103427D01*
X77226075Y-49456078D01*
X77229775Y-49466244D01*
X77344554Y-49830278D01*
X77347354Y-49840727D01*
X77429971Y-50213389D01*
X77431849Y-50224042D01*
X77481671Y-50602473D01*
X77482614Y-50613249D01*
X77499382Y-50997297D01*
X77499500Y-51002706D01*
X77499500Y-130997293D01*
X77499382Y-131002702D01*
X77482614Y-131386750D01*
X77481671Y-131397526D01*
X77431849Y-131775957D01*
X77429971Y-131786610D01*
X77347354Y-132159272D01*
X77344554Y-132169721D01*
X77229775Y-132533755D01*
X77226075Y-132543921D01*
X77080002Y-132896572D01*
X77075430Y-132906376D01*
X76899183Y-133244942D01*
X76893775Y-133254310D01*
X76688681Y-133576244D01*
X76682476Y-133585105D01*
X76450110Y-133887930D01*
X76443156Y-133896217D01*
X76185284Y-134177635D01*
X76177635Y-134185284D01*
X75896217Y-134443156D01*
X75887930Y-134450110D01*
X75585105Y-134682476D01*
X75576244Y-134688681D01*
X75254310Y-134893775D01*
X75244942Y-134899183D01*
X74906376Y-135075430D01*
X74896572Y-135080002D01*
X74543921Y-135226075D01*
X74533755Y-135229775D01*
X74169721Y-135344554D01*
X74159272Y-135347354D01*
X73786610Y-135429971D01*
X73775957Y-135431849D01*
X73397526Y-135481671D01*
X73386750Y-135482614D01*
X73002703Y-135499382D01*
X72997294Y-135499500D01*
X33002706Y-135499500D01*
X32997297Y-135499382D01*
X32613249Y-135482614D01*
X32602473Y-135481671D01*
X32224042Y-135431849D01*
X32213389Y-135429971D01*
X31840727Y-135347354D01*
X31830278Y-135344554D01*
X31466244Y-135229775D01*
X31456078Y-135226075D01*
X31103427Y-135080002D01*
X31093623Y-135075430D01*
X30755057Y-134899183D01*
X30745689Y-134893775D01*
X30423755Y-134688681D01*
X30414894Y-134682476D01*
X30112069Y-134450110D01*
X30103782Y-134443156D01*
X29822364Y-134185284D01*
X29814715Y-134177635D01*
X29556843Y-133896217D01*
X29549889Y-133887930D01*
X29317523Y-133585105D01*
X29311318Y-133576244D01*
X29106224Y-133254310D01*
X29100816Y-133244942D01*
X28924569Y-132906376D01*
X28919997Y-132896572D01*
X28773920Y-132543911D01*
X28770224Y-132533755D01*
X28655442Y-132169710D01*
X28652648Y-132159284D01*
X28570025Y-131786597D01*
X28568152Y-131775971D01*
X28518326Y-131397506D01*
X28517386Y-131386771D01*
X28500618Y-131002702D01*
X28500500Y-130997293D01*
X28500500Y-130878711D01*
X31149500Y-130878711D01*
X31149500Y-131121288D01*
X31181161Y-131361785D01*
X31243947Y-131596104D01*
X31336773Y-131820205D01*
X31336776Y-131820212D01*
X31458064Y-132030289D01*
X31458066Y-132030292D01*
X31458067Y-132030293D01*
X31605733Y-132222736D01*
X31605739Y-132222743D01*
X31777256Y-132394260D01*
X31777262Y-132394265D01*
X31969711Y-132541936D01*
X32179788Y-132663224D01*
X32403900Y-132756054D01*
X32638211Y-132818838D01*
X32818586Y-132842584D01*
X32878711Y-132850500D01*
X32878712Y-132850500D01*
X33121289Y-132850500D01*
X33169388Y-132844167D01*
X33361789Y-132818838D01*
X33596100Y-132756054D01*
X33820212Y-132663224D01*
X34030289Y-132541936D01*
X34222738Y-132394265D01*
X34394265Y-132222738D01*
X34541936Y-132030289D01*
X34663224Y-131820212D01*
X34756054Y-131596100D01*
X34818838Y-131361789D01*
X34850500Y-131121288D01*
X34850500Y-130878712D01*
X34818838Y-130638211D01*
X34756054Y-130403900D01*
X34663224Y-130179788D01*
X34541936Y-129969711D01*
X34394265Y-129777262D01*
X34394260Y-129777256D01*
X34222743Y-129605739D01*
X34222736Y-129605733D01*
X34030293Y-129458067D01*
X34030292Y-129458066D01*
X34030289Y-129458064D01*
X33848458Y-129353084D01*
X33820214Y-129336777D01*
X33820205Y-129336773D01*
X33596104Y-129243947D01*
X33478944Y-129212554D01*
X33361789Y-129181162D01*
X33361788Y-129181161D01*
X33361785Y-129181161D01*
X33121289Y-129149500D01*
X33121288Y-129149500D01*
X32878712Y-129149500D01*
X32878711Y-129149500D01*
X32638214Y-129181161D01*
X32403895Y-129243947D01*
X32179794Y-129336773D01*
X32179785Y-129336777D01*
X31969706Y-129458067D01*
X31777263Y-129605733D01*
X31777256Y-129605739D01*
X31605739Y-129777256D01*
X31605733Y-129777263D01*
X31458067Y-129969706D01*
X31336777Y-130179785D01*
X31336773Y-130179794D01*
X31243947Y-130403895D01*
X31181161Y-130638214D01*
X31149500Y-130878711D01*
X28500500Y-130878711D01*
X28500500Y-128469999D01*
X40534341Y-128469999D01*
X40534341Y-128470000D01*
X40554936Y-128705403D01*
X40554938Y-128705413D01*
X40616094Y-128933655D01*
X40616096Y-128933659D01*
X40616097Y-128933663D01*
X40700499Y-129114663D01*
X40715965Y-129147830D01*
X40715967Y-129147834D01*
X40822439Y-129299890D01*
X40848264Y-129336773D01*
X40851501Y-129341395D01*
X40851506Y-129341402D01*
X41018597Y-129508493D01*
X41018603Y-129508498D01*
X41204158Y-129638425D01*
X41247783Y-129693002D01*
X41254977Y-129762500D01*
X41223454Y-129824855D01*
X41204158Y-129841575D01*
X41018597Y-129971505D01*
X40851505Y-130138597D01*
X40715965Y-130332169D01*
X40715964Y-130332171D01*
X40616098Y-130546335D01*
X40616094Y-130546344D01*
X40554938Y-130774586D01*
X40554936Y-130774596D01*
X40534341Y-131009999D01*
X40534341Y-131010000D01*
X40554936Y-131245403D01*
X40554938Y-131245413D01*
X40616094Y-131473655D01*
X40616096Y-131473659D01*
X40616097Y-131473663D01*
X40696004Y-131645023D01*
X40715965Y-131687830D01*
X40715967Y-131687834D01*
X40808655Y-131820205D01*
X40851505Y-131881401D01*
X41018599Y-132048495D01*
X41115384Y-132116265D01*
X41212165Y-132184032D01*
X41212167Y-132184033D01*
X41212170Y-132184035D01*
X41426337Y-132283903D01*
X41654592Y-132345063D01*
X41842918Y-132361539D01*
X41889999Y-132365659D01*
X41890000Y-132365659D01*
X41890001Y-132365659D01*
X41929234Y-132362226D01*
X42125408Y-132345063D01*
X42353663Y-132283903D01*
X42567830Y-132184035D01*
X42761401Y-132048495D01*
X42928495Y-131881401D01*
X43058425Y-131695842D01*
X43113002Y-131652217D01*
X43182500Y-131645023D01*
X43244855Y-131676546D01*
X43261575Y-131695842D01*
X43391500Y-131881395D01*
X43391505Y-131881401D01*
X43558599Y-132048495D01*
X43655384Y-132116265D01*
X43752165Y-132184032D01*
X43752167Y-132184033D01*
X43752170Y-132184035D01*
X43966337Y-132283903D01*
X44194592Y-132345063D01*
X44382918Y-132361539D01*
X44429999Y-132365659D01*
X44430000Y-132365659D01*
X44430001Y-132365659D01*
X44469234Y-132362226D01*
X44665408Y-132345063D01*
X44893663Y-132283903D01*
X45107830Y-132184035D01*
X45301401Y-132048495D01*
X45468495Y-131881401D01*
X45604035Y-131687830D01*
X45703903Y-131473663D01*
X45765063Y-131245408D01*
X45785659Y-131010000D01*
X45785020Y-131002702D01*
X45775815Y-130897483D01*
X45765063Y-130774592D01*
X45703903Y-130546337D01*
X45604035Y-130332171D01*
X45598424Y-130324158D01*
X45468496Y-130138600D01*
X45407604Y-130077708D01*
X45346567Y-130016671D01*
X45313084Y-129955351D01*
X45318068Y-129885659D01*
X45359939Y-129829725D01*
X45390915Y-129812810D01*
X45522331Y-129763796D01*
X45637546Y-129677546D01*
X45723796Y-129562331D01*
X45774091Y-129427483D01*
X45780500Y-129367873D01*
X45780500Y-128642135D01*
X61929500Y-128642135D01*
X61929500Y-130837870D01*
X61929501Y-130837876D01*
X61935908Y-130897483D01*
X61986202Y-131032328D01*
X61986206Y-131032335D01*
X62072452Y-131147544D01*
X62072455Y-131147547D01*
X62187664Y-131233793D01*
X62187671Y-131233797D01*
X62322517Y-131284091D01*
X62322516Y-131284091D01*
X62329444Y-131284835D01*
X62382127Y-131290500D01*
X64577872Y-131290499D01*
X64637483Y-131284091D01*
X64772331Y-131233796D01*
X64887546Y-131147546D01*
X64965387Y-131043562D01*
X65021319Y-131001694D01*
X65091010Y-130996710D01*
X65129442Y-131012149D01*
X65314138Y-131125331D01*
X65539542Y-131218696D01*
X65776780Y-131275651D01*
X65776779Y-131275651D01*
X66020000Y-131294792D01*
X66263219Y-131275651D01*
X66500457Y-131218696D01*
X66725861Y-131125331D01*
X66927941Y-131001495D01*
X66927941Y-131001494D01*
X66805158Y-130878711D01*
X71149500Y-130878711D01*
X71149500Y-131121288D01*
X71181161Y-131361785D01*
X71243947Y-131596104D01*
X71336773Y-131820205D01*
X71336776Y-131820212D01*
X71458064Y-132030289D01*
X71458066Y-132030292D01*
X71458067Y-132030293D01*
X71605733Y-132222736D01*
X71605739Y-132222743D01*
X71777256Y-132394260D01*
X71777262Y-132394265D01*
X71969711Y-132541936D01*
X72179788Y-132663224D01*
X72403900Y-132756054D01*
X72638211Y-132818838D01*
X72818586Y-132842584D01*
X72878711Y-132850500D01*
X72878712Y-132850500D01*
X73121289Y-132850500D01*
X73169388Y-132844167D01*
X73361789Y-132818838D01*
X73596100Y-132756054D01*
X73820212Y-132663224D01*
X74030289Y-132541936D01*
X74222738Y-132394265D01*
X74394265Y-132222738D01*
X74541936Y-132030289D01*
X74663224Y-131820212D01*
X74756054Y-131596100D01*
X74818838Y-131361789D01*
X74850500Y-131121288D01*
X74850500Y-130878712D01*
X74818838Y-130638211D01*
X74756054Y-130403900D01*
X74663224Y-130179788D01*
X74541936Y-129969711D01*
X74394265Y-129777262D01*
X74394260Y-129777256D01*
X74222743Y-129605739D01*
X74222736Y-129605733D01*
X74030293Y-129458067D01*
X74030292Y-129458066D01*
X74030289Y-129458064D01*
X73848458Y-129353084D01*
X73820214Y-129336777D01*
X73820205Y-129336773D01*
X73596104Y-129243947D01*
X73478944Y-129212554D01*
X73361789Y-129181162D01*
X73361788Y-129181161D01*
X73361785Y-129181161D01*
X73121289Y-129149500D01*
X73121288Y-129149500D01*
X72878712Y-129149500D01*
X72878711Y-129149500D01*
X72638214Y-129181161D01*
X72403895Y-129243947D01*
X72179794Y-129336773D01*
X72179785Y-129336777D01*
X71969706Y-129458067D01*
X71777263Y-129605733D01*
X71777256Y-129605739D01*
X71605739Y-129777256D01*
X71605733Y-129777263D01*
X71458067Y-129969706D01*
X71336777Y-130179785D01*
X71336773Y-130179794D01*
X71243947Y-130403895D01*
X71181161Y-130638214D01*
X71149500Y-130878711D01*
X66805158Y-130878711D01*
X66190234Y-130263787D01*
X66232292Y-130252518D01*
X66357708Y-130180110D01*
X66460110Y-130077708D01*
X66532518Y-129952292D01*
X66543787Y-129910234D01*
X67281494Y-130647941D01*
X67281495Y-130647941D01*
X67405331Y-130445861D01*
X67498696Y-130220457D01*
X67555651Y-129983219D01*
X67574792Y-129740000D01*
X67555651Y-129496780D01*
X67498696Y-129259542D01*
X67405331Y-129034138D01*
X67281494Y-128832057D01*
X66543787Y-129569764D01*
X66532518Y-129527708D01*
X66460110Y-129402292D01*
X66357708Y-129299890D01*
X66232292Y-129227482D01*
X66190234Y-129216212D01*
X66927941Y-128478504D01*
X66725861Y-128354668D01*
X66500457Y-128261303D01*
X66263219Y-128204348D01*
X66263220Y-128204348D01*
X66020000Y-128185207D01*
X65776780Y-128204348D01*
X65539542Y-128261303D01*
X65314140Y-128354667D01*
X65129441Y-128467851D01*
X65061996Y-128486095D01*
X64995393Y-128464978D01*
X64965385Y-128436434D01*
X64887546Y-128332454D01*
X64864709Y-128315358D01*
X64772335Y-128246206D01*
X64772328Y-128246202D01*
X64637482Y-128195908D01*
X64637483Y-128195908D01*
X64577883Y-128189501D01*
X64577881Y-128189500D01*
X64577873Y-128189500D01*
X64577864Y-128189500D01*
X62382129Y-128189500D01*
X62382123Y-128189501D01*
X62322516Y-128195908D01*
X62187671Y-128246202D01*
X62187664Y-128246206D01*
X62072455Y-128332452D01*
X62072452Y-128332455D01*
X61986206Y-128447664D01*
X61986202Y-128447671D01*
X61935908Y-128582517D01*
X61929501Y-128642116D01*
X61929500Y-128642135D01*
X45780500Y-128642135D01*
X45780499Y-127572128D01*
X45774091Y-127512517D01*
X45772810Y-127509083D01*
X45723797Y-127377671D01*
X45723793Y-127377664D01*
X45637547Y-127262455D01*
X45637544Y-127262452D01*
X45522335Y-127176206D01*
X45522328Y-127176202D01*
X45387482Y-127125908D01*
X45387483Y-127125908D01*
X45327883Y-127119501D01*
X45327881Y-127119500D01*
X45327873Y-127119500D01*
X45327864Y-127119500D01*
X43532129Y-127119500D01*
X43532123Y-127119501D01*
X43472516Y-127125908D01*
X43337671Y-127176202D01*
X43337664Y-127176206D01*
X43222455Y-127262452D01*
X43222452Y-127262455D01*
X43136206Y-127377664D01*
X43136203Y-127377669D01*
X43087189Y-127509083D01*
X43045317Y-127565016D01*
X42979853Y-127589433D01*
X42911580Y-127574581D01*
X42883326Y-127553430D01*
X42761402Y-127431506D01*
X42761395Y-127431501D01*
X42567834Y-127295967D01*
X42567830Y-127295965D01*
X42567828Y-127295964D01*
X42353663Y-127196097D01*
X42353659Y-127196096D01*
X42353655Y-127196094D01*
X42125413Y-127134938D01*
X42125403Y-127134936D01*
X41890001Y-127114341D01*
X41889999Y-127114341D01*
X41654596Y-127134936D01*
X41654586Y-127134938D01*
X41426344Y-127196094D01*
X41426335Y-127196098D01*
X41212171Y-127295964D01*
X41212169Y-127295965D01*
X41018597Y-127431505D01*
X40851505Y-127598597D01*
X40715965Y-127792169D01*
X40715964Y-127792171D01*
X40616098Y-128006335D01*
X40616094Y-128006344D01*
X40554938Y-128234586D01*
X40554936Y-128234596D01*
X40534341Y-128469999D01*
X28500500Y-128469999D01*
X28500500Y-124768852D01*
X39323559Y-124768852D01*
X39323559Y-124768865D01*
X39342723Y-125000156D01*
X39342725Y-125000167D01*
X39399701Y-125225159D01*
X39492934Y-125437707D01*
X39619875Y-125632006D01*
X39619878Y-125632010D01*
X39619880Y-125632012D01*
X39777075Y-125802772D01*
X39777078Y-125802774D01*
X39777081Y-125802777D01*
X39960224Y-125945323D01*
X39960230Y-125945327D01*
X39960233Y-125945329D01*
X40164356Y-126055795D01*
X40278346Y-126094927D01*
X40383874Y-126131156D01*
X40383876Y-126131156D01*
X40383878Y-126131157D01*
X40612810Y-126169359D01*
X40612811Y-126169359D01*
X40844907Y-126169359D01*
X40844908Y-126169359D01*
X41073840Y-126131157D01*
X41293362Y-126055795D01*
X41497485Y-125945329D01*
X41680643Y-125802772D01*
X41837838Y-125632012D01*
X41964783Y-125437708D01*
X42058016Y-125225159D01*
X42114993Y-125000164D01*
X42134159Y-124768859D01*
X42134159Y-124768852D01*
X42114994Y-124537561D01*
X42114992Y-124537550D01*
X42058016Y-124312558D01*
X41964783Y-124100010D01*
X41837842Y-123905711D01*
X41837839Y-123905708D01*
X41837838Y-123905706D01*
X41680643Y-123734946D01*
X41680638Y-123734942D01*
X41680636Y-123734940D01*
X41497493Y-123592394D01*
X41497487Y-123592390D01*
X41293363Y-123481923D01*
X41293354Y-123481920D01*
X41073843Y-123406561D01*
X40902141Y-123377909D01*
X40844908Y-123368359D01*
X40612810Y-123368359D01*
X40567023Y-123375999D01*
X40383874Y-123406561D01*
X40164363Y-123481920D01*
X40164354Y-123481923D01*
X39960230Y-123592390D01*
X39960224Y-123592394D01*
X39777081Y-123734940D01*
X39777078Y-123734943D01*
X39619875Y-123905711D01*
X39492934Y-124100010D01*
X39399701Y-124312558D01*
X39342725Y-124537550D01*
X39342723Y-124537561D01*
X39323559Y-124768852D01*
X28500500Y-124768852D01*
X28500500Y-115934110D01*
X28500500Y-115934108D01*
X28466392Y-115806814D01*
X28400500Y-115692686D01*
X28307314Y-115599500D01*
X28036319Y-115328505D01*
X28002834Y-115267182D01*
X28000000Y-115240824D01*
X28000000Y-103109999D01*
X31668935Y-103109999D01*
X31668935Y-103110000D01*
X31689156Y-103341132D01*
X31689158Y-103341142D01*
X31749205Y-103565243D01*
X31749207Y-103565247D01*
X31749208Y-103565251D01*
X31790103Y-103652950D01*
X31847263Y-103775532D01*
X31847264Y-103775533D01*
X31980345Y-103965592D01*
X32144408Y-104129655D01*
X32328311Y-104258426D01*
X32371936Y-104313002D01*
X32379128Y-104382501D01*
X32347606Y-104444855D01*
X32328310Y-104461575D01*
X32144406Y-104590345D01*
X31980345Y-104754406D01*
X31847266Y-104944463D01*
X31847264Y-104944467D01*
X31749209Y-105154747D01*
X31749205Y-105154756D01*
X31689158Y-105378857D01*
X31689156Y-105378867D01*
X31668935Y-105609999D01*
X31668935Y-105610000D01*
X31689156Y-105841132D01*
X31689158Y-105841142D01*
X31749205Y-106065243D01*
X31749207Y-106065247D01*
X31749208Y-106065251D01*
X31798236Y-106170392D01*
X31847263Y-106275532D01*
X31847264Y-106275533D01*
X31980345Y-106465592D01*
X32144408Y-106629655D01*
X32328311Y-106758426D01*
X32371936Y-106813002D01*
X32379128Y-106882501D01*
X32347606Y-106944855D01*
X32328310Y-106961575D01*
X32144406Y-107090345D01*
X31980345Y-107254406D01*
X31847266Y-107444463D01*
X31847264Y-107444467D01*
X31749209Y-107654747D01*
X31749205Y-107654756D01*
X31689158Y-107878857D01*
X31689156Y-107878867D01*
X31668935Y-108109999D01*
X31668935Y-108110000D01*
X31689156Y-108341132D01*
X31689158Y-108341142D01*
X31749205Y-108565243D01*
X31749207Y-108565247D01*
X31749208Y-108565251D01*
X31789782Y-108652262D01*
X31847263Y-108775532D01*
X31847264Y-108775533D01*
X31980345Y-108965592D01*
X32144408Y-109129655D01*
X32328311Y-109258426D01*
X32371936Y-109313002D01*
X32379128Y-109382501D01*
X32347606Y-109444855D01*
X32328310Y-109461575D01*
X32144406Y-109590345D01*
X31980345Y-109754406D01*
X31847266Y-109944463D01*
X31847264Y-109944467D01*
X31749209Y-110154747D01*
X31749205Y-110154756D01*
X31689158Y-110378857D01*
X31689156Y-110378867D01*
X31668935Y-110609999D01*
X31668935Y-110610000D01*
X31689156Y-110841132D01*
X31689158Y-110841142D01*
X31749205Y-111065243D01*
X31749207Y-111065247D01*
X31749208Y-111065251D01*
X31749507Y-111065892D01*
X31847263Y-111275532D01*
X31847264Y-111275533D01*
X31980345Y-111465592D01*
X32144408Y-111629655D01*
X32328311Y-111758426D01*
X32371936Y-111813002D01*
X32379128Y-111882501D01*
X32347606Y-111944855D01*
X32328310Y-111961575D01*
X32144406Y-112090345D01*
X31980345Y-112254406D01*
X31847266Y-112444463D01*
X31847264Y-112444467D01*
X31749209Y-112654747D01*
X31749205Y-112654756D01*
X31689158Y-112878857D01*
X31689156Y-112878867D01*
X31668935Y-113109999D01*
X31668935Y-113110000D01*
X31689156Y-113341132D01*
X31689158Y-113341142D01*
X31749205Y-113565243D01*
X31749207Y-113565247D01*
X31749208Y-113565251D01*
X31773813Y-113618017D01*
X31847263Y-113775532D01*
X31847264Y-113775533D01*
X31980345Y-113965592D01*
X32144408Y-114129655D01*
X32328311Y-114258426D01*
X32371936Y-114313002D01*
X32379128Y-114382501D01*
X32347606Y-114444855D01*
X32328310Y-114461575D01*
X32144406Y-114590345D01*
X31980345Y-114754406D01*
X31847266Y-114944463D01*
X31847264Y-114944467D01*
X31749209Y-115154747D01*
X31749205Y-115154756D01*
X31689158Y-115378857D01*
X31689156Y-115378867D01*
X31668935Y-115609999D01*
X31668935Y-115610000D01*
X31689156Y-115841132D01*
X31689158Y-115841142D01*
X31749205Y-116065243D01*
X31749207Y-116065247D01*
X31749208Y-116065251D01*
X31798236Y-116170392D01*
X31847263Y-116275532D01*
X31847264Y-116275533D01*
X31980345Y-116465592D01*
X32144408Y-116629655D01*
X32328311Y-116758426D01*
X32371936Y-116813002D01*
X32379128Y-116882501D01*
X32347606Y-116944855D01*
X32328310Y-116961575D01*
X32144406Y-117090345D01*
X31980345Y-117254406D01*
X31847266Y-117444463D01*
X31847264Y-117444467D01*
X31749209Y-117654747D01*
X31749205Y-117654756D01*
X31689158Y-117878857D01*
X31689156Y-117878867D01*
X31668935Y-118109999D01*
X31668935Y-118110000D01*
X31689156Y-118341132D01*
X31689158Y-118341142D01*
X31749205Y-118565243D01*
X31749207Y-118565247D01*
X31749208Y-118565251D01*
X31798236Y-118670392D01*
X31847263Y-118775532D01*
X31847264Y-118775533D01*
X31980345Y-118965592D01*
X32144408Y-119129655D01*
X32328311Y-119258426D01*
X32371936Y-119313002D01*
X32379128Y-119382501D01*
X32347606Y-119444855D01*
X32328310Y-119461575D01*
X32144406Y-119590345D01*
X31980345Y-119754406D01*
X31847266Y-119944463D01*
X31847264Y-119944467D01*
X31749209Y-120154747D01*
X31749205Y-120154756D01*
X31689158Y-120378857D01*
X31689156Y-120378867D01*
X31668935Y-120609999D01*
X31668935Y-120610000D01*
X31689156Y-120841132D01*
X31689158Y-120841142D01*
X31749205Y-121065243D01*
X31749207Y-121065247D01*
X31749208Y-121065251D01*
X31798236Y-121170392D01*
X31847263Y-121275532D01*
X31847264Y-121275533D01*
X31980345Y-121465592D01*
X32144408Y-121629655D01*
X32328311Y-121758426D01*
X32371936Y-121813002D01*
X32379128Y-121882501D01*
X32347606Y-121944855D01*
X32328310Y-121961575D01*
X32144406Y-122090345D01*
X31980345Y-122254406D01*
X31847266Y-122444463D01*
X31847264Y-122444467D01*
X31749209Y-122654747D01*
X31749205Y-122654756D01*
X31689158Y-122878857D01*
X31689156Y-122878867D01*
X31668935Y-123109999D01*
X31668935Y-123110000D01*
X31689156Y-123341132D01*
X31689158Y-123341142D01*
X31749205Y-123565243D01*
X31749207Y-123565247D01*
X31749208Y-123565251D01*
X31761865Y-123592394D01*
X31847263Y-123775532D01*
X31847264Y-123775533D01*
X31980345Y-123965592D01*
X32144408Y-124129655D01*
X32334467Y-124262736D01*
X32544749Y-124360792D01*
X32768863Y-124420843D01*
X32953772Y-124437020D01*
X32999999Y-124441065D01*
X33000000Y-124441065D01*
X33000001Y-124441065D01*
X33038522Y-124437694D01*
X33231137Y-124420843D01*
X33455251Y-124360792D01*
X33665533Y-124262736D01*
X33855592Y-124129655D01*
X34019655Y-123965592D01*
X34152736Y-123775533D01*
X34250792Y-123565251D01*
X34310843Y-123341137D01*
X34331065Y-123110000D01*
X34310843Y-122878863D01*
X34250792Y-122654749D01*
X34152736Y-122444468D01*
X34152734Y-122444465D01*
X34152733Y-122444463D01*
X34019654Y-122254406D01*
X33855596Y-122090349D01*
X33855592Y-122090345D01*
X33671688Y-121961573D01*
X33628064Y-121906998D01*
X33620872Y-121837499D01*
X33652394Y-121775145D01*
X33671685Y-121758427D01*
X33855592Y-121629655D01*
X34019655Y-121465592D01*
X34152736Y-121275533D01*
X34250792Y-121065251D01*
X34310843Y-120841137D01*
X34331065Y-120610000D01*
X34310843Y-120378863D01*
X34250792Y-120154749D01*
X34152736Y-119944468D01*
X34152734Y-119944465D01*
X34152733Y-119944463D01*
X34019654Y-119754406D01*
X33855596Y-119590349D01*
X33855592Y-119590345D01*
X33840808Y-119579993D01*
X45564700Y-119579993D01*
X45564700Y-119580006D01*
X45583864Y-119811297D01*
X45583866Y-119811308D01*
X45640842Y-120036300D01*
X45734075Y-120248848D01*
X45861016Y-120443147D01*
X45861019Y-120443151D01*
X45861021Y-120443153D01*
X46018216Y-120613913D01*
X46018219Y-120613915D01*
X46018222Y-120613918D01*
X46201365Y-120756464D01*
X46201371Y-120756468D01*
X46201374Y-120756470D01*
X46405497Y-120866936D01*
X46519487Y-120906068D01*
X46625015Y-120942297D01*
X46625017Y-120942297D01*
X46625019Y-120942298D01*
X46853951Y-120980500D01*
X46853952Y-120980500D01*
X47086048Y-120980500D01*
X47086049Y-120980500D01*
X47314981Y-120942298D01*
X47534503Y-120866936D01*
X47565805Y-120849996D01*
X74104435Y-120849996D01*
X74104435Y-120850003D01*
X74124630Y-121029249D01*
X74124631Y-121029254D01*
X74184211Y-121199523D01*
X74231971Y-121275532D01*
X74280184Y-121352262D01*
X74407738Y-121479816D01*
X74560478Y-121575789D01*
X74714404Y-121629650D01*
X74730745Y-121635368D01*
X74730750Y-121635369D01*
X74909996Y-121655565D01*
X74910000Y-121655565D01*
X74910004Y-121655565D01*
X75089249Y-121635369D01*
X75089252Y-121635368D01*
X75089255Y-121635368D01*
X75259522Y-121575789D01*
X75412262Y-121479816D01*
X75539816Y-121352262D01*
X75635789Y-121199522D01*
X75695368Y-121029255D01*
X75695369Y-121029249D01*
X75715565Y-120850003D01*
X75715565Y-120849996D01*
X75695369Y-120670750D01*
X75695368Y-120670745D01*
X75635788Y-120500476D01*
X75596582Y-120438080D01*
X75539816Y-120347738D01*
X75412262Y-120220184D01*
X75259523Y-120124211D01*
X75089254Y-120064631D01*
X75089249Y-120064630D01*
X74910004Y-120044435D01*
X74909996Y-120044435D01*
X74730750Y-120064630D01*
X74730745Y-120064631D01*
X74560476Y-120124211D01*
X74407737Y-120220184D01*
X74280184Y-120347737D01*
X74184211Y-120500476D01*
X74124631Y-120670745D01*
X74124630Y-120670750D01*
X74104435Y-120849996D01*
X47565805Y-120849996D01*
X47738626Y-120756470D01*
X47921784Y-120613913D01*
X48078979Y-120443153D01*
X48205924Y-120248849D01*
X48299157Y-120036300D01*
X48356134Y-119811305D01*
X48360849Y-119754406D01*
X48375300Y-119580006D01*
X48375300Y-119579993D01*
X48356135Y-119348702D01*
X48356133Y-119348691D01*
X48299157Y-119123699D01*
X48205924Y-118911151D01*
X48078983Y-118716852D01*
X48078980Y-118716849D01*
X48078979Y-118716847D01*
X47921784Y-118546087D01*
X47921779Y-118546083D01*
X47921777Y-118546081D01*
X47738634Y-118403535D01*
X47738628Y-118403531D01*
X47534504Y-118293064D01*
X47534495Y-118293061D01*
X47314984Y-118217702D01*
X47143282Y-118189050D01*
X47086049Y-118179500D01*
X46853951Y-118179500D01*
X46808164Y-118187140D01*
X46625015Y-118217702D01*
X46405504Y-118293061D01*
X46405495Y-118293064D01*
X46201371Y-118403531D01*
X46201365Y-118403535D01*
X46018222Y-118546081D01*
X46018219Y-118546084D01*
X46018216Y-118546086D01*
X46018216Y-118546087D01*
X45959267Y-118610122D01*
X45861016Y-118716852D01*
X45734075Y-118911151D01*
X45640842Y-119123699D01*
X45583866Y-119348691D01*
X45583864Y-119348702D01*
X45564700Y-119579993D01*
X33840808Y-119579993D01*
X33671688Y-119461573D01*
X33628064Y-119406998D01*
X33620872Y-119337499D01*
X33652394Y-119275145D01*
X33671685Y-119258427D01*
X33855592Y-119129655D01*
X34019655Y-118965592D01*
X34152736Y-118775533D01*
X34250792Y-118565251D01*
X34310843Y-118341137D01*
X34331065Y-118110000D01*
X34310843Y-117878863D01*
X34250792Y-117654749D01*
X34152736Y-117444468D01*
X34152734Y-117444465D01*
X34152733Y-117444463D01*
X34019654Y-117254406D01*
X33855596Y-117090349D01*
X33855592Y-117090345D01*
X33671688Y-116961573D01*
X33628064Y-116906998D01*
X33620872Y-116837499D01*
X33652394Y-116775145D01*
X33671685Y-116758427D01*
X33855592Y-116629655D01*
X34019655Y-116465592D01*
X34152736Y-116275533D01*
X34250792Y-116065251D01*
X34310843Y-115841137D01*
X34331065Y-115610000D01*
X34310843Y-115378863D01*
X34250792Y-115154749D01*
X34152736Y-114944468D01*
X34152734Y-114944465D01*
X34152733Y-114944463D01*
X34019654Y-114754406D01*
X33855596Y-114590349D01*
X33855592Y-114590345D01*
X33726557Y-114499993D01*
X44294700Y-114499993D01*
X44294700Y-114500006D01*
X44313864Y-114731297D01*
X44313866Y-114731308D01*
X44370842Y-114956300D01*
X44464075Y-115168848D01*
X44591016Y-115363147D01*
X44591019Y-115363151D01*
X44591021Y-115363153D01*
X44748216Y-115533913D01*
X44748219Y-115533915D01*
X44748222Y-115533918D01*
X44931365Y-115676464D01*
X44931371Y-115676468D01*
X44931374Y-115676470D01*
X45135497Y-115786936D01*
X45193394Y-115806812D01*
X45355015Y-115862297D01*
X45355017Y-115862297D01*
X45355019Y-115862298D01*
X45583951Y-115900500D01*
X45583952Y-115900500D01*
X45816048Y-115900500D01*
X45816049Y-115900500D01*
X46044981Y-115862298D01*
X46264503Y-115786936D01*
X46468626Y-115676470D01*
X46651784Y-115533913D01*
X46808979Y-115363153D01*
X46935924Y-115168849D01*
X47029157Y-114956300D01*
X47086134Y-114731305D01*
X47086135Y-114731297D01*
X47105300Y-114500006D01*
X47105300Y-114499999D01*
X49674785Y-114499999D01*
X49674785Y-114500000D01*
X49693602Y-114703082D01*
X49749417Y-114899247D01*
X49749422Y-114899260D01*
X49840327Y-115081821D01*
X49963237Y-115244581D01*
X50113958Y-115381980D01*
X50113960Y-115381982D01*
X50213141Y-115443392D01*
X50287363Y-115489348D01*
X50477544Y-115563024D01*
X50678024Y-115600500D01*
X50678026Y-115600500D01*
X50881974Y-115600500D01*
X50881976Y-115600500D01*
X51082456Y-115563024D01*
X51272637Y-115489348D01*
X51446041Y-115381981D01*
X51596764Y-115244579D01*
X51719673Y-115081821D01*
X51810582Y-114899250D01*
X51866397Y-114703083D01*
X51885215Y-114500000D01*
X51881654Y-114461575D01*
X51866397Y-114296917D01*
X51858366Y-114268691D01*
X51810582Y-114100750D01*
X51719673Y-113918179D01*
X51596764Y-113755421D01*
X51596762Y-113755418D01*
X51446041Y-113618019D01*
X51446039Y-113618017D01*
X51272642Y-113510655D01*
X51272635Y-113510651D01*
X51157585Y-113466081D01*
X51082456Y-113436976D01*
X50881976Y-113399500D01*
X50678024Y-113399500D01*
X50477544Y-113436976D01*
X50477541Y-113436976D01*
X50477541Y-113436977D01*
X50287364Y-113510651D01*
X50287357Y-113510655D01*
X50113960Y-113618017D01*
X50113958Y-113618019D01*
X49963237Y-113755418D01*
X49840327Y-113918178D01*
X49749422Y-114100739D01*
X49749417Y-114100752D01*
X49693602Y-114296917D01*
X49674785Y-114499999D01*
X47105300Y-114499999D01*
X47105300Y-114499993D01*
X47086135Y-114268702D01*
X47086133Y-114268691D01*
X47029157Y-114043699D01*
X46935924Y-113831151D01*
X46808983Y-113636852D01*
X46808980Y-113636849D01*
X46808979Y-113636847D01*
X46651784Y-113466087D01*
X46651779Y-113466083D01*
X46651777Y-113466081D01*
X46468634Y-113323535D01*
X46468628Y-113323531D01*
X46264504Y-113213064D01*
X46264495Y-113213061D01*
X46044984Y-113137702D01*
X45873282Y-113109050D01*
X45816049Y-113099500D01*
X45583951Y-113099500D01*
X45538164Y-113107140D01*
X45355015Y-113137702D01*
X45135504Y-113213061D01*
X45135495Y-113213064D01*
X44931371Y-113323531D01*
X44931365Y-113323535D01*
X44748222Y-113466081D01*
X44748219Y-113466084D01*
X44748216Y-113466086D01*
X44748216Y-113466087D01*
X44689267Y-113530122D01*
X44591016Y-113636852D01*
X44464075Y-113831151D01*
X44370842Y-114043699D01*
X44313866Y-114268691D01*
X44313864Y-114268702D01*
X44294700Y-114499993D01*
X33726557Y-114499993D01*
X33671688Y-114461573D01*
X33628064Y-114406998D01*
X33620872Y-114337499D01*
X33652394Y-114275145D01*
X33671685Y-114258427D01*
X33855592Y-114129655D01*
X34019655Y-113965592D01*
X34152736Y-113775533D01*
X34250792Y-113565251D01*
X34310843Y-113341137D01*
X34331065Y-113110000D01*
X34310843Y-112878863D01*
X34250792Y-112654749D01*
X34152736Y-112444468D01*
X34152734Y-112444465D01*
X34152733Y-112444463D01*
X34019654Y-112254406D01*
X33855596Y-112090349D01*
X33855592Y-112090345D01*
X33671688Y-111961573D01*
X33628064Y-111906998D01*
X33620872Y-111837499D01*
X33652394Y-111775145D01*
X33671685Y-111758427D01*
X33855592Y-111629655D01*
X34019655Y-111465592D01*
X34152736Y-111275533D01*
X34250792Y-111065251D01*
X34310843Y-110841137D01*
X34331065Y-110610000D01*
X34310843Y-110378863D01*
X34250792Y-110154749D01*
X34152736Y-109944468D01*
X34152734Y-109944465D01*
X34152733Y-109944463D01*
X34019654Y-109754406D01*
X33880230Y-109614983D01*
X44429500Y-109614983D01*
X44429500Y-111165001D01*
X44429501Y-111165018D01*
X44440000Y-111267796D01*
X44440001Y-111267799D01*
X44485894Y-111406294D01*
X44495186Y-111434334D01*
X44587288Y-111583656D01*
X44711344Y-111707712D01*
X44860666Y-111799814D01*
X45027203Y-111854999D01*
X45129991Y-111865500D01*
X46430008Y-111865499D01*
X46532797Y-111854999D01*
X46699334Y-111799814D01*
X46848656Y-111707712D01*
X46972712Y-111583656D01*
X47064814Y-111434334D01*
X47064814Y-111434331D01*
X47068178Y-111428879D01*
X47120126Y-111382154D01*
X47189088Y-111370931D01*
X47253170Y-111398774D01*
X47261398Y-111406294D01*
X47400213Y-111545109D01*
X47572179Y-111670048D01*
X47572181Y-111670049D01*
X47572184Y-111670051D01*
X47761588Y-111766557D01*
X47963757Y-111832246D01*
X48173713Y-111865500D01*
X48173714Y-111865500D01*
X48386286Y-111865500D01*
X48386287Y-111865500D01*
X48596243Y-111832246D01*
X48798412Y-111766557D01*
X48987816Y-111670051D01*
X49043424Y-111629650D01*
X49159786Y-111545109D01*
X49159788Y-111545106D01*
X49159792Y-111545104D01*
X49310104Y-111394792D01*
X49429683Y-111230204D01*
X49485011Y-111187540D01*
X49554624Y-111181561D01*
X49616420Y-111214166D01*
X49630313Y-111230199D01*
X49732560Y-111370931D01*
X49749896Y-111394792D01*
X49900213Y-111545109D01*
X50072179Y-111670048D01*
X50072181Y-111670049D01*
X50072184Y-111670051D01*
X50261588Y-111766557D01*
X50463757Y-111832246D01*
X50673713Y-111865500D01*
X50673714Y-111865500D01*
X50886286Y-111865500D01*
X50886287Y-111865500D01*
X51096243Y-111832246D01*
X51298412Y-111766557D01*
X51487816Y-111670051D01*
X51543424Y-111629650D01*
X51659786Y-111545109D01*
X51659788Y-111545106D01*
X51659792Y-111545104D01*
X51810104Y-111394792D01*
X51929683Y-111230204D01*
X51985011Y-111187540D01*
X52054624Y-111181561D01*
X52116420Y-111214166D01*
X52130313Y-111230199D01*
X52232560Y-111370931D01*
X52249896Y-111394792D01*
X52400213Y-111545109D01*
X52572179Y-111670048D01*
X52572181Y-111670049D01*
X52572184Y-111670051D01*
X52761588Y-111766557D01*
X52963757Y-111832246D01*
X53173713Y-111865500D01*
X53173714Y-111865500D01*
X53386286Y-111865500D01*
X53386287Y-111865500D01*
X53596243Y-111832246D01*
X53798412Y-111766557D01*
X53987816Y-111670051D01*
X54043424Y-111629650D01*
X54159786Y-111545109D01*
X54159788Y-111545106D01*
X54159792Y-111545104D01*
X54310104Y-111394792D01*
X54429991Y-111229779D01*
X54485320Y-111187115D01*
X54554933Y-111181136D01*
X54616729Y-111213741D01*
X54630627Y-111229781D01*
X54750272Y-111394459D01*
X54750276Y-111394464D01*
X54900535Y-111544723D01*
X54900540Y-111544727D01*
X55072442Y-111669620D01*
X55261782Y-111766095D01*
X55463871Y-111831757D01*
X55530000Y-111842231D01*
X55530000Y-110794145D01*
X55596657Y-110832630D01*
X55717465Y-110865000D01*
X55842535Y-110865000D01*
X55963343Y-110832630D01*
X56030000Y-110794145D01*
X56030000Y-111842230D01*
X56096126Y-111831757D01*
X56096129Y-111831757D01*
X56298217Y-111766095D01*
X56487557Y-111669620D01*
X56659459Y-111544727D01*
X56659464Y-111544723D01*
X56809723Y-111394464D01*
X56809727Y-111394459D01*
X56934620Y-111222557D01*
X57031095Y-111033217D01*
X57096757Y-110831130D01*
X57096757Y-110831127D01*
X57119111Y-110689996D01*
X60134435Y-110689996D01*
X60134435Y-110690003D01*
X60154630Y-110869249D01*
X60154631Y-110869254D01*
X60214211Y-111039523D01*
X60230378Y-111065252D01*
X60310184Y-111192262D01*
X60437738Y-111319816D01*
X60519087Y-111370931D01*
X60575366Y-111406294D01*
X60590478Y-111415789D01*
X60732807Y-111465592D01*
X60760745Y-111475368D01*
X60760750Y-111475369D01*
X60939996Y-111495565D01*
X60940000Y-111495565D01*
X60940004Y-111495565D01*
X61119249Y-111475369D01*
X61119252Y-111475368D01*
X61119255Y-111475368D01*
X61289522Y-111415789D01*
X61442262Y-111319816D01*
X61569816Y-111192262D01*
X61665789Y-111039522D01*
X61725368Y-110869255D01*
X61725369Y-110869249D01*
X61745565Y-110690003D01*
X61745565Y-110689996D01*
X61725369Y-110510750D01*
X61725368Y-110510745D01*
X61665788Y-110340476D01*
X61626582Y-110278080D01*
X61569816Y-110187738D01*
X61442262Y-110060184D01*
X61362244Y-110009905D01*
X61289523Y-109964211D01*
X61119254Y-109904631D01*
X61119249Y-109904630D01*
X60940004Y-109884435D01*
X60939996Y-109884435D01*
X60760750Y-109904630D01*
X60760745Y-109904631D01*
X60590476Y-109964211D01*
X60437737Y-110060184D01*
X60310184Y-110187737D01*
X60214211Y-110340476D01*
X60154631Y-110510745D01*
X60154630Y-110510750D01*
X60134435Y-110689996D01*
X57119111Y-110689996D01*
X57127030Y-110640000D01*
X56184146Y-110640000D01*
X56222630Y-110573343D01*
X56255000Y-110452535D01*
X56255000Y-110327465D01*
X56222630Y-110206657D01*
X56184146Y-110140000D01*
X57127030Y-110140000D01*
X57096757Y-109948872D01*
X57096757Y-109948869D01*
X57031095Y-109746782D01*
X56934620Y-109557442D01*
X56809727Y-109385540D01*
X56809723Y-109385535D01*
X56659464Y-109235276D01*
X56659459Y-109235272D01*
X56487557Y-109110379D01*
X56298215Y-109013903D01*
X56096124Y-108948241D01*
X56030000Y-108937768D01*
X56030000Y-109985854D01*
X55963343Y-109947370D01*
X55842535Y-109915000D01*
X55717465Y-109915000D01*
X55596657Y-109947370D01*
X55530000Y-109985854D01*
X55530000Y-108937768D01*
X55529999Y-108937768D01*
X55463875Y-108948241D01*
X55261784Y-109013903D01*
X55072442Y-109110379D01*
X54900540Y-109235272D01*
X54900535Y-109235276D01*
X54750276Y-109385535D01*
X54750272Y-109385540D01*
X54630627Y-109550218D01*
X54575297Y-109592884D01*
X54505684Y-109598863D01*
X54443889Y-109566257D01*
X54429991Y-109550218D01*
X54310109Y-109385214D01*
X54310105Y-109385209D01*
X54159786Y-109234890D01*
X53987820Y-109109951D01*
X53798414Y-109013444D01*
X53798413Y-109013443D01*
X53798412Y-109013443D01*
X53596243Y-108947754D01*
X53596241Y-108947753D01*
X53596240Y-108947753D01*
X53434957Y-108922208D01*
X53386287Y-108914500D01*
X53173713Y-108914500D01*
X53125042Y-108922208D01*
X52963760Y-108947753D01*
X52761585Y-109013444D01*
X52572179Y-109109951D01*
X52400213Y-109234890D01*
X52249894Y-109385209D01*
X52249890Y-109385214D01*
X52130318Y-109549793D01*
X52074989Y-109592459D01*
X52005375Y-109598438D01*
X51943580Y-109565833D01*
X51929682Y-109549793D01*
X51810109Y-109385214D01*
X51810105Y-109385209D01*
X51659786Y-109234890D01*
X51487820Y-109109951D01*
X51298414Y-109013444D01*
X51298413Y-109013443D01*
X51298412Y-109013443D01*
X51096243Y-108947754D01*
X51096241Y-108947753D01*
X51096240Y-108947753D01*
X50934957Y-108922208D01*
X50886287Y-108914500D01*
X50673713Y-108914500D01*
X50625042Y-108922208D01*
X50463760Y-108947753D01*
X50261585Y-109013444D01*
X50072179Y-109109951D01*
X49900213Y-109234890D01*
X49749894Y-109385209D01*
X49749890Y-109385214D01*
X49630318Y-109549793D01*
X49574989Y-109592459D01*
X49505375Y-109598438D01*
X49443580Y-109565833D01*
X49429682Y-109549793D01*
X49310109Y-109385214D01*
X49310105Y-109385209D01*
X49159786Y-109234890D01*
X48987820Y-109109951D01*
X48798414Y-109013444D01*
X48798413Y-109013443D01*
X48798412Y-109013443D01*
X48596243Y-108947754D01*
X48596241Y-108947753D01*
X48596240Y-108947753D01*
X48434957Y-108922208D01*
X48386287Y-108914500D01*
X48173713Y-108914500D01*
X48125042Y-108922208D01*
X47963760Y-108947753D01*
X47761585Y-109013444D01*
X47572179Y-109109951D01*
X47400215Y-109234889D01*
X47261398Y-109373706D01*
X47200075Y-109407190D01*
X47130383Y-109402206D01*
X47074450Y-109360334D01*
X47068178Y-109351120D01*
X46972712Y-109196344D01*
X46848657Y-109072289D01*
X46848656Y-109072288D01*
X46699334Y-108980186D01*
X46532797Y-108925001D01*
X46532795Y-108925000D01*
X46430010Y-108914500D01*
X45129998Y-108914500D01*
X45129981Y-108914501D01*
X45027203Y-108925000D01*
X45027200Y-108925001D01*
X44860668Y-108980185D01*
X44860663Y-108980187D01*
X44711342Y-109072289D01*
X44587289Y-109196342D01*
X44495187Y-109345663D01*
X44495185Y-109345668D01*
X44474799Y-109407190D01*
X44440001Y-109512203D01*
X44440001Y-109512204D01*
X44440000Y-109512204D01*
X44429500Y-109614983D01*
X33880230Y-109614983D01*
X33855596Y-109590349D01*
X33855592Y-109590345D01*
X33671688Y-109461573D01*
X33628064Y-109406998D01*
X33620872Y-109337499D01*
X33652394Y-109275145D01*
X33671685Y-109258427D01*
X33855592Y-109129655D01*
X34019655Y-108965592D01*
X34152736Y-108775533D01*
X34250792Y-108565251D01*
X34310843Y-108341137D01*
X34320567Y-108229996D01*
X62674435Y-108229996D01*
X62674435Y-108230003D01*
X62694630Y-108409249D01*
X62694631Y-108409254D01*
X62754211Y-108579523D01*
X62850184Y-108732262D01*
X62977738Y-108859816D01*
X63003159Y-108875789D01*
X63130121Y-108955565D01*
X63130478Y-108955789D01*
X63295244Y-109013443D01*
X63300745Y-109015368D01*
X63300750Y-109015369D01*
X63479996Y-109035565D01*
X63480000Y-109035565D01*
X63480004Y-109035565D01*
X63659249Y-109015369D01*
X63659252Y-109015368D01*
X63659255Y-109015368D01*
X63829522Y-108955789D01*
X63982262Y-108859816D01*
X64109816Y-108732262D01*
X64205789Y-108579522D01*
X64265368Y-108409255D01*
X64265369Y-108409249D01*
X64285565Y-108230003D01*
X64285565Y-108229996D01*
X64276551Y-108149996D01*
X72834435Y-108149996D01*
X72834435Y-108150003D01*
X72854630Y-108329249D01*
X72854631Y-108329254D01*
X72914211Y-108499523D01*
X72955506Y-108565243D01*
X73010184Y-108652262D01*
X73137738Y-108779816D01*
X73228080Y-108836582D01*
X73265055Y-108859815D01*
X73290478Y-108875789D01*
X73401108Y-108914500D01*
X73460745Y-108935368D01*
X73460750Y-108935369D01*
X73639996Y-108955565D01*
X73640000Y-108955565D01*
X73640004Y-108955565D01*
X73819249Y-108935369D01*
X73819252Y-108935368D01*
X73819255Y-108935368D01*
X73989522Y-108875789D01*
X74142262Y-108779816D01*
X74269816Y-108652262D01*
X74365789Y-108499522D01*
X74425368Y-108329255D01*
X74436551Y-108230003D01*
X74445565Y-108150003D01*
X74445565Y-108149996D01*
X74425369Y-107970750D01*
X74425368Y-107970745D01*
X74393782Y-107880478D01*
X74365789Y-107800478D01*
X74269816Y-107647738D01*
X74142262Y-107520184D01*
X74116841Y-107504211D01*
X73989523Y-107424211D01*
X73819254Y-107364631D01*
X73819249Y-107364630D01*
X73640004Y-107344435D01*
X73639996Y-107344435D01*
X73460750Y-107364630D01*
X73460745Y-107364631D01*
X73290476Y-107424211D01*
X73137737Y-107520184D01*
X73010184Y-107647737D01*
X72914211Y-107800476D01*
X72854631Y-107970745D01*
X72854630Y-107970750D01*
X72834435Y-108149996D01*
X64276551Y-108149996D01*
X64265369Y-108050750D01*
X64265368Y-108050745D01*
X64205789Y-107880478D01*
X64204770Y-107878857D01*
X64109815Y-107727737D01*
X63982262Y-107600184D01*
X63829523Y-107504211D01*
X63659254Y-107444631D01*
X63659249Y-107444630D01*
X63480004Y-107424435D01*
X63479996Y-107424435D01*
X63300750Y-107444630D01*
X63300745Y-107444631D01*
X63130476Y-107504211D01*
X62977737Y-107600184D01*
X62850184Y-107727737D01*
X62754211Y-107880476D01*
X62694631Y-108050745D01*
X62694630Y-108050750D01*
X62674435Y-108229996D01*
X34320567Y-108229996D01*
X34331065Y-108110000D01*
X34310843Y-107878863D01*
X34250792Y-107654749D01*
X34152736Y-107444468D01*
X34152734Y-107444465D01*
X34152733Y-107444463D01*
X34019654Y-107254406D01*
X33855596Y-107090349D01*
X33855592Y-107090345D01*
X33671688Y-106961573D01*
X33628064Y-106906998D01*
X33620872Y-106837499D01*
X33652394Y-106775145D01*
X33671685Y-106758427D01*
X33855592Y-106629655D01*
X34019655Y-106465592D01*
X34152736Y-106275533D01*
X34250792Y-106065251D01*
X34310843Y-105841137D01*
X34331065Y-105610000D01*
X34310843Y-105378863D01*
X34250792Y-105154749D01*
X34152736Y-104944468D01*
X34152734Y-104944465D01*
X34152733Y-104944463D01*
X34019654Y-104754406D01*
X33855596Y-104590349D01*
X33855592Y-104590345D01*
X33671688Y-104461573D01*
X33628064Y-104406998D01*
X33620872Y-104337499D01*
X33652394Y-104275145D01*
X33671685Y-104258427D01*
X33855592Y-104129655D01*
X34019655Y-103965592D01*
X34152736Y-103775533D01*
X34250792Y-103565251D01*
X34310843Y-103341137D01*
X34331065Y-103110000D01*
X34327565Y-103069996D01*
X37274435Y-103069996D01*
X37274435Y-103070003D01*
X37294630Y-103249249D01*
X37294631Y-103249254D01*
X37354211Y-103419523D01*
X37354212Y-103419524D01*
X37450184Y-103572262D01*
X37577738Y-103699816D01*
X37730478Y-103795789D01*
X37900745Y-103855368D01*
X37900750Y-103855369D01*
X38079996Y-103875565D01*
X38080000Y-103875565D01*
X38080004Y-103875565D01*
X38259249Y-103855369D01*
X38259252Y-103855368D01*
X38259255Y-103855368D01*
X38429522Y-103795789D01*
X38493352Y-103755681D01*
X38560587Y-103736681D01*
X38627423Y-103757048D01*
X38672637Y-103810315D01*
X38681876Y-103879571D01*
X38664318Y-103926647D01*
X38624211Y-103990476D01*
X38564631Y-104160745D01*
X38564630Y-104160750D01*
X38544435Y-104339996D01*
X38544435Y-104340003D01*
X38564630Y-104519249D01*
X38564631Y-104519254D01*
X38624211Y-104689523D01*
X38720184Y-104842262D01*
X38847738Y-104969816D01*
X39000478Y-105065789D01*
X39170745Y-105125368D01*
X39170750Y-105125369D01*
X39349996Y-105145565D01*
X39350000Y-105145565D01*
X39350004Y-105145565D01*
X39529249Y-105125369D01*
X39529252Y-105125368D01*
X39529255Y-105125368D01*
X39699522Y-105065789D01*
X39852262Y-104969816D01*
X39979816Y-104842262D01*
X40075789Y-104689522D01*
X40135368Y-104519255D01*
X40143751Y-104444855D01*
X40155565Y-104340003D01*
X40155565Y-104339996D01*
X40135369Y-104160750D01*
X40135368Y-104160745D01*
X40075788Y-103990476D01*
X39990894Y-103855369D01*
X39979816Y-103837738D01*
X39852262Y-103710184D01*
X39699523Y-103614211D01*
X39529254Y-103554631D01*
X39529249Y-103554630D01*
X39350004Y-103534435D01*
X39349996Y-103534435D01*
X39170750Y-103554630D01*
X39170745Y-103554631D01*
X39000476Y-103614211D01*
X38936647Y-103654318D01*
X38869410Y-103673318D01*
X38802575Y-103652950D01*
X38757361Y-103599682D01*
X38748124Y-103530426D01*
X38765681Y-103483353D01*
X38805789Y-103419522D01*
X38865368Y-103249255D01*
X38881058Y-103110000D01*
X38885565Y-103070003D01*
X38885565Y-103069996D01*
X49974435Y-103069996D01*
X49974435Y-103070003D01*
X49994630Y-103249249D01*
X49994631Y-103249254D01*
X50054211Y-103419523D01*
X50054212Y-103419524D01*
X50150184Y-103572262D01*
X50277738Y-103699816D01*
X50430478Y-103795789D01*
X50600745Y-103855368D01*
X50600750Y-103855369D01*
X50779996Y-103875565D01*
X50780000Y-103875565D01*
X50780004Y-103875565D01*
X50959249Y-103855369D01*
X50959252Y-103855368D01*
X50959255Y-103855368D01*
X51129522Y-103795789D01*
X51282262Y-103699816D01*
X51409816Y-103572262D01*
X51505789Y-103419522D01*
X51565368Y-103249255D01*
X51581058Y-103110000D01*
X51585565Y-103070003D01*
X51585565Y-103069996D01*
X51565369Y-102890750D01*
X51565368Y-102890745D01*
X51505788Y-102720476D01*
X51420894Y-102585369D01*
X51409816Y-102567738D01*
X51282262Y-102440184D01*
X51129523Y-102344211D01*
X50959254Y-102284631D01*
X50959249Y-102284630D01*
X50780004Y-102264435D01*
X50779996Y-102264435D01*
X50600750Y-102284630D01*
X50600745Y-102284631D01*
X50430476Y-102344211D01*
X50277737Y-102440184D01*
X50150184Y-102567737D01*
X50054211Y-102720476D01*
X49994631Y-102890745D01*
X49994630Y-102890750D01*
X49974435Y-103069996D01*
X38885565Y-103069996D01*
X38865369Y-102890750D01*
X38865368Y-102890745D01*
X38805788Y-102720476D01*
X38720894Y-102585369D01*
X38709816Y-102567738D01*
X38582262Y-102440184D01*
X38429523Y-102344211D01*
X38259254Y-102284631D01*
X38259249Y-102284630D01*
X38080004Y-102264435D01*
X38079996Y-102264435D01*
X37900750Y-102284630D01*
X37900745Y-102284631D01*
X37730476Y-102344211D01*
X37577737Y-102440184D01*
X37450184Y-102567737D01*
X37354211Y-102720476D01*
X37294631Y-102890745D01*
X37294630Y-102890750D01*
X37274435Y-103069996D01*
X34327565Y-103069996D01*
X34310843Y-102878863D01*
X34250792Y-102654749D01*
X34152736Y-102444468D01*
X34152734Y-102444465D01*
X34152733Y-102444463D01*
X34019654Y-102254406D01*
X33855596Y-102090349D01*
X33855595Y-102090348D01*
X33855592Y-102090345D01*
X33671251Y-101961267D01*
X33627627Y-101906692D01*
X33620435Y-101837193D01*
X33639239Y-101799996D01*
X43624435Y-101799996D01*
X43624435Y-101800003D01*
X43644630Y-101979249D01*
X43644631Y-101979254D01*
X43704211Y-102149523D01*
X43770114Y-102254406D01*
X43800184Y-102302262D01*
X43927738Y-102429816D01*
X44080478Y-102525789D01*
X44250745Y-102585368D01*
X44250750Y-102585369D01*
X44429996Y-102605565D01*
X44430000Y-102605565D01*
X44430004Y-102605565D01*
X44609249Y-102585369D01*
X44609252Y-102585368D01*
X44609255Y-102585368D01*
X44779522Y-102525789D01*
X44932262Y-102429816D01*
X45059816Y-102302262D01*
X45155789Y-102149522D01*
X45215368Y-101979255D01*
X45217846Y-101957264D01*
X45235565Y-101800003D01*
X45235565Y-101799996D01*
X45215369Y-101620750D01*
X45215368Y-101620745D01*
X45155788Y-101450476D01*
X45095030Y-101353781D01*
X45059816Y-101297738D01*
X44932262Y-101170184D01*
X44888288Y-101142553D01*
X44779523Y-101074211D01*
X44609254Y-101014631D01*
X44609249Y-101014630D01*
X44430004Y-100994435D01*
X44429996Y-100994435D01*
X44250750Y-101014630D01*
X44250745Y-101014631D01*
X44080476Y-101074211D01*
X43927737Y-101170184D01*
X43800184Y-101297737D01*
X43704211Y-101450476D01*
X43644631Y-101620745D01*
X43644630Y-101620750D01*
X43624435Y-101799996D01*
X33639239Y-101799996D01*
X33651957Y-101774839D01*
X33671252Y-101758120D01*
X33743780Y-101707333D01*
X33187789Y-101151342D01*
X33220591Y-101142553D01*
X33350909Y-101067313D01*
X33457313Y-100960909D01*
X33532553Y-100830591D01*
X33541342Y-100797789D01*
X34097333Y-101353780D01*
X34152300Y-101275283D01*
X34152302Y-101275279D01*
X34250317Y-101065085D01*
X34250321Y-101065074D01*
X34310348Y-100841051D01*
X34310349Y-100841044D01*
X34330563Y-100610001D01*
X34330563Y-100609998D01*
X34310349Y-100378955D01*
X34310348Y-100378948D01*
X34250318Y-100154917D01*
X34152300Y-99944719D01*
X34097333Y-99866217D01*
X33541341Y-100422209D01*
X33532553Y-100389409D01*
X33457313Y-100259091D01*
X33350909Y-100152687D01*
X33220591Y-100077447D01*
X33187789Y-100068657D01*
X33743781Y-99512665D01*
X33665281Y-99457699D01*
X33455080Y-99359681D01*
X33455074Y-99359678D01*
X33231051Y-99299651D01*
X33231044Y-99299650D01*
X33000002Y-99279437D01*
X32999998Y-99279437D01*
X32768955Y-99299650D01*
X32768948Y-99299651D01*
X32544917Y-99359681D01*
X32334715Y-99457701D01*
X32256218Y-99512664D01*
X32256217Y-99512665D01*
X32812210Y-100068657D01*
X32779409Y-100077447D01*
X32649091Y-100152687D01*
X32542687Y-100259091D01*
X32467447Y-100389409D01*
X32458657Y-100422209D01*
X31902665Y-99866217D01*
X31902664Y-99866218D01*
X31847701Y-99944715D01*
X31749681Y-100154917D01*
X31689651Y-100378948D01*
X31689650Y-100378955D01*
X31669437Y-100609998D01*
X31669437Y-100610001D01*
X31689650Y-100841044D01*
X31689651Y-100841051D01*
X31749678Y-101065074D01*
X31749681Y-101065080D01*
X31847699Y-101275281D01*
X31902665Y-101353781D01*
X32458657Y-100797789D01*
X32467447Y-100830591D01*
X32542687Y-100960909D01*
X32649091Y-101067313D01*
X32779409Y-101142553D01*
X32812210Y-101151342D01*
X32256218Y-101707333D01*
X32328747Y-101758119D01*
X32372371Y-101812696D01*
X32379564Y-101882195D01*
X32348042Y-101944549D01*
X32328747Y-101961269D01*
X32144403Y-102090348D01*
X31980345Y-102254406D01*
X31847266Y-102444463D01*
X31847264Y-102444467D01*
X31749209Y-102654747D01*
X31749205Y-102654756D01*
X31689158Y-102878857D01*
X31689156Y-102878867D01*
X31668935Y-103109999D01*
X28000000Y-103109999D01*
X28000000Y-98849994D01*
X64608991Y-98849994D01*
X64608991Y-98850005D01*
X64629006Y-99168149D01*
X64629007Y-99168156D01*
X64629008Y-99168160D01*
X64684240Y-99457699D01*
X64688744Y-99481306D01*
X64787254Y-99784488D01*
X64787256Y-99784493D01*
X64922986Y-100072932D01*
X64922989Y-100072938D01*
X65093799Y-100342093D01*
X65297008Y-100587730D01*
X65529391Y-100805953D01*
X65529401Y-100805961D01*
X65787287Y-100993326D01*
X65787292Y-100993328D01*
X65787299Y-100993334D01*
X66066655Y-101146912D01*
X66066660Y-101146914D01*
X66066662Y-101146915D01*
X66066663Y-101146916D01*
X66363054Y-101264265D01*
X66363057Y-101264266D01*
X66671827Y-101343544D01*
X66671831Y-101343545D01*
X66738182Y-101351927D01*
X66988094Y-101383499D01*
X66988103Y-101383499D01*
X66988106Y-101383500D01*
X66988108Y-101383500D01*
X67306892Y-101383500D01*
X67306894Y-101383500D01*
X67306897Y-101383499D01*
X67306905Y-101383499D01*
X67495626Y-101359657D01*
X67623169Y-101343545D01*
X67931942Y-101264266D01*
X67931945Y-101264265D01*
X68228336Y-101146916D01*
X68228337Y-101146915D01*
X68228335Y-101146915D01*
X68228345Y-101146912D01*
X68507701Y-100993334D01*
X68765607Y-100805955D01*
X68997993Y-100587729D01*
X69201197Y-100342098D01*
X69372012Y-100072936D01*
X69507746Y-99784487D01*
X69606257Y-99481302D01*
X69665992Y-99168160D01*
X69686009Y-98850000D01*
X69665992Y-98531840D01*
X69606257Y-98218698D01*
X69507746Y-97915513D01*
X69372012Y-97627064D01*
X69201197Y-97357902D01*
X68997993Y-97112271D01*
X68765607Y-96894045D01*
X68765604Y-96894043D01*
X68765598Y-96894038D01*
X68507712Y-96706673D01*
X68507705Y-96706668D01*
X68507701Y-96706666D01*
X68228345Y-96553088D01*
X68228342Y-96553086D01*
X68228337Y-96553084D01*
X68228336Y-96553083D01*
X67931945Y-96435734D01*
X67931942Y-96435733D01*
X67623172Y-96356455D01*
X67623159Y-96356453D01*
X67306905Y-96316500D01*
X67306894Y-96316500D01*
X66988106Y-96316500D01*
X66988094Y-96316500D01*
X66671840Y-96356453D01*
X66671827Y-96356455D01*
X66363057Y-96435733D01*
X66363054Y-96435734D01*
X66066663Y-96553083D01*
X66066662Y-96553084D01*
X65787299Y-96706666D01*
X65787287Y-96706673D01*
X65529401Y-96894038D01*
X65529391Y-96894046D01*
X65297008Y-97112269D01*
X65093799Y-97357906D01*
X64922989Y-97627061D01*
X64922986Y-97627067D01*
X64787256Y-97915506D01*
X64787254Y-97915511D01*
X64688744Y-98218693D01*
X64629007Y-98531843D01*
X64629006Y-98531850D01*
X64608991Y-98849994D01*
X28000000Y-98849994D01*
X28000000Y-96719996D01*
X39814435Y-96719996D01*
X39814435Y-96720003D01*
X39834630Y-96899249D01*
X39834631Y-96899254D01*
X39894211Y-97069523D01*
X39921072Y-97112271D01*
X39990184Y-97222262D01*
X40117738Y-97349816D01*
X40270478Y-97445789D01*
X40440745Y-97505368D01*
X40440750Y-97505369D01*
X40619996Y-97525565D01*
X40620000Y-97525565D01*
X40620004Y-97525565D01*
X40799249Y-97505369D01*
X40799252Y-97505368D01*
X40799255Y-97505368D01*
X40969522Y-97445789D01*
X41122262Y-97349816D01*
X41249816Y-97222262D01*
X41345789Y-97069522D01*
X41405368Y-96899255D01*
X41425565Y-96720000D01*
X41425565Y-96719996D01*
X47434435Y-96719996D01*
X47434435Y-96720003D01*
X47454630Y-96899249D01*
X47454631Y-96899254D01*
X47514211Y-97069523D01*
X47541072Y-97112271D01*
X47610184Y-97222262D01*
X47737738Y-97349816D01*
X47890478Y-97445789D01*
X48060745Y-97505368D01*
X48060750Y-97505369D01*
X48239996Y-97525565D01*
X48240000Y-97525565D01*
X48240004Y-97525565D01*
X48419249Y-97505369D01*
X48419252Y-97505368D01*
X48419255Y-97505368D01*
X48589522Y-97445789D01*
X48742262Y-97349816D01*
X48869816Y-97222262D01*
X48965789Y-97069522D01*
X49025368Y-96899255D01*
X49045565Y-96720000D01*
X49044063Y-96706673D01*
X49025369Y-96540750D01*
X49025368Y-96540745D01*
X48965788Y-96370476D01*
X48880894Y-96235369D01*
X48869816Y-96217738D01*
X48742262Y-96090184D01*
X48730982Y-96083096D01*
X48589523Y-95994211D01*
X48419254Y-95934631D01*
X48419249Y-95934630D01*
X48240004Y-95914435D01*
X48239996Y-95914435D01*
X48060750Y-95934630D01*
X48060745Y-95934631D01*
X47890476Y-95994211D01*
X47737737Y-96090184D01*
X47610184Y-96217737D01*
X47514211Y-96370476D01*
X47454631Y-96540745D01*
X47454630Y-96540750D01*
X47434435Y-96719996D01*
X41425565Y-96719996D01*
X41424063Y-96706673D01*
X41405369Y-96540750D01*
X41405368Y-96540745D01*
X41345788Y-96370476D01*
X41260894Y-96235369D01*
X41249816Y-96217738D01*
X41204758Y-96172680D01*
X41171273Y-96111357D01*
X41176257Y-96041665D01*
X41204754Y-95997322D01*
X41260059Y-95942018D01*
X41356032Y-95789278D01*
X41415611Y-95619011D01*
X41415612Y-95619005D01*
X41435808Y-95439759D01*
X41435808Y-95439752D01*
X41415612Y-95260506D01*
X41415611Y-95260501D01*
X41370068Y-95130348D01*
X41356032Y-95090234D01*
X41260059Y-94937494D01*
X41132505Y-94809940D01*
X41102658Y-94791186D01*
X40979766Y-94713967D01*
X40809497Y-94654387D01*
X40809492Y-94654386D01*
X40630247Y-94634191D01*
X40630239Y-94634191D01*
X40450993Y-94654386D01*
X40450988Y-94654387D01*
X40280719Y-94713967D01*
X40127980Y-94809940D01*
X40000427Y-94937493D01*
X39904454Y-95090232D01*
X39844874Y-95260501D01*
X39844873Y-95260506D01*
X39824678Y-95439752D01*
X39824678Y-95439759D01*
X39844873Y-95619005D01*
X39844874Y-95619010D01*
X39904454Y-95789279D01*
X40000427Y-95942018D01*
X40045484Y-95987075D01*
X40078969Y-96048398D01*
X40073985Y-96118090D01*
X40045485Y-96162437D01*
X39990183Y-96217739D01*
X39894211Y-96370476D01*
X39834631Y-96540745D01*
X39834630Y-96540750D01*
X39814435Y-96719996D01*
X28000000Y-96719996D01*
X28000000Y-71319999D01*
X31668935Y-71319999D01*
X31668935Y-71320000D01*
X31689156Y-71551132D01*
X31689158Y-71551142D01*
X31749205Y-71775243D01*
X31749207Y-71775247D01*
X31749208Y-71775251D01*
X31771130Y-71822262D01*
X31847263Y-71985532D01*
X31847264Y-71985533D01*
X31980345Y-72175592D01*
X32144408Y-72339655D01*
X32328311Y-72468426D01*
X32371936Y-72523002D01*
X32379128Y-72592501D01*
X32347606Y-72654855D01*
X32328310Y-72671575D01*
X32144406Y-72800345D01*
X31980345Y-72964406D01*
X31847266Y-73154463D01*
X31847264Y-73154467D01*
X31749209Y-73364747D01*
X31749205Y-73364756D01*
X31689158Y-73588857D01*
X31689156Y-73588867D01*
X31668935Y-73819999D01*
X31668935Y-73820000D01*
X31689156Y-74051132D01*
X31689158Y-74051142D01*
X31749205Y-74275243D01*
X31749207Y-74275247D01*
X31749208Y-74275251D01*
X31781561Y-74344632D01*
X31847263Y-74485532D01*
X31851306Y-74491306D01*
X31980345Y-74675592D01*
X32144408Y-74839655D01*
X32328311Y-74968426D01*
X32371936Y-75023002D01*
X32379128Y-75092501D01*
X32347606Y-75154855D01*
X32328310Y-75171575D01*
X32144406Y-75300345D01*
X31980345Y-75464406D01*
X31847266Y-75654463D01*
X31847264Y-75654467D01*
X31749209Y-75864747D01*
X31749205Y-75864756D01*
X31689158Y-76088857D01*
X31689156Y-76088867D01*
X31668935Y-76319999D01*
X31668935Y-76320000D01*
X31689156Y-76551132D01*
X31689158Y-76551142D01*
X31749205Y-76775243D01*
X31749207Y-76775247D01*
X31749208Y-76775251D01*
X31788926Y-76860426D01*
X31847263Y-76985532D01*
X31847264Y-76985533D01*
X31980345Y-77175592D01*
X32144408Y-77339655D01*
X32328311Y-77468426D01*
X32371936Y-77523002D01*
X32379128Y-77592501D01*
X32347606Y-77654855D01*
X32328310Y-77671575D01*
X32144406Y-77800345D01*
X31980345Y-77964406D01*
X31847266Y-78154463D01*
X31847264Y-78154467D01*
X31749209Y-78364747D01*
X31749205Y-78364756D01*
X31689158Y-78588857D01*
X31689156Y-78588867D01*
X31668935Y-78819999D01*
X31668935Y-78820000D01*
X31689156Y-79051132D01*
X31689158Y-79051142D01*
X31749205Y-79275243D01*
X31749207Y-79275247D01*
X31749208Y-79275251D01*
X31798236Y-79380392D01*
X31847263Y-79485532D01*
X31847264Y-79485533D01*
X31980345Y-79675592D01*
X32144408Y-79839655D01*
X32328311Y-79968426D01*
X32371936Y-80023002D01*
X32379128Y-80092501D01*
X32347606Y-80154855D01*
X32328310Y-80171575D01*
X32144406Y-80300345D01*
X31980345Y-80464406D01*
X31847266Y-80654463D01*
X31847264Y-80654467D01*
X31749209Y-80864747D01*
X31749205Y-80864756D01*
X31689158Y-81088857D01*
X31689156Y-81088867D01*
X31668935Y-81319999D01*
X31668935Y-81320000D01*
X31689156Y-81551132D01*
X31689158Y-81551142D01*
X31749205Y-81775243D01*
X31749207Y-81775247D01*
X31749208Y-81775251D01*
X31781652Y-81844828D01*
X31847263Y-81985532D01*
X31847264Y-81985533D01*
X31980345Y-82175592D01*
X32144408Y-82339655D01*
X32328311Y-82468426D01*
X32371936Y-82523002D01*
X32379128Y-82592501D01*
X32347606Y-82654855D01*
X32328310Y-82671575D01*
X32144406Y-82800345D01*
X31980345Y-82964406D01*
X31847266Y-83154463D01*
X31847264Y-83154467D01*
X31749209Y-83364747D01*
X31749205Y-83364756D01*
X31689158Y-83588857D01*
X31689156Y-83588867D01*
X31668935Y-83819999D01*
X31668935Y-83820000D01*
X31689156Y-84051132D01*
X31689158Y-84051142D01*
X31749205Y-84275243D01*
X31749207Y-84275247D01*
X31749208Y-84275251D01*
X31771726Y-84323540D01*
X31847263Y-84485532D01*
X31860637Y-84504632D01*
X31980345Y-84675592D01*
X32144408Y-84839655D01*
X32328311Y-84968426D01*
X32371936Y-85023002D01*
X32379128Y-85092501D01*
X32347606Y-85154855D01*
X32328310Y-85171575D01*
X32144406Y-85300345D01*
X31980345Y-85464406D01*
X31847266Y-85654463D01*
X31847264Y-85654467D01*
X31749209Y-85864747D01*
X31749205Y-85864756D01*
X31689158Y-86088857D01*
X31689156Y-86088867D01*
X31668935Y-86319999D01*
X31668935Y-86320000D01*
X31689156Y-86551132D01*
X31689158Y-86551142D01*
X31749205Y-86775243D01*
X31749207Y-86775247D01*
X31749208Y-86775251D01*
X31798236Y-86880392D01*
X31847263Y-86985532D01*
X31847264Y-86985533D01*
X31980345Y-87175592D01*
X32144408Y-87339655D01*
X32328311Y-87468426D01*
X32371936Y-87523002D01*
X32379128Y-87592501D01*
X32347606Y-87654855D01*
X32328310Y-87671575D01*
X32144406Y-87800345D01*
X31980345Y-87964406D01*
X31847266Y-88154463D01*
X31847264Y-88154467D01*
X31749209Y-88364747D01*
X31749205Y-88364756D01*
X31689158Y-88588857D01*
X31689156Y-88588867D01*
X31668935Y-88819999D01*
X31668935Y-88820000D01*
X31689156Y-89051132D01*
X31689158Y-89051142D01*
X31749205Y-89275243D01*
X31749207Y-89275247D01*
X31749208Y-89275251D01*
X31783361Y-89348492D01*
X31847263Y-89485532D01*
X31847264Y-89485533D01*
X31980345Y-89675592D01*
X32144408Y-89839655D01*
X32328311Y-89968426D01*
X32371936Y-90023002D01*
X32379128Y-90092501D01*
X32347606Y-90154855D01*
X32328310Y-90171575D01*
X32144406Y-90300345D01*
X31980345Y-90464406D01*
X31847266Y-90654463D01*
X31847264Y-90654467D01*
X31749209Y-90864747D01*
X31749205Y-90864756D01*
X31689158Y-91088857D01*
X31689156Y-91088867D01*
X31668935Y-91319999D01*
X31668935Y-91320000D01*
X31689156Y-91551132D01*
X31689158Y-91551142D01*
X31749205Y-91775243D01*
X31749207Y-91775247D01*
X31749208Y-91775251D01*
X31798236Y-91880392D01*
X31847263Y-91985532D01*
X31847264Y-91985533D01*
X31980345Y-92175592D01*
X32144408Y-92339655D01*
X32328748Y-92468731D01*
X32372372Y-92523307D01*
X32379564Y-92592806D01*
X32348042Y-92655160D01*
X32328746Y-92671880D01*
X32256218Y-92722664D01*
X32256217Y-92722665D01*
X32812210Y-93278657D01*
X32779409Y-93287447D01*
X32649091Y-93362687D01*
X32542687Y-93469091D01*
X32467447Y-93599409D01*
X32458657Y-93632209D01*
X31902665Y-93076217D01*
X31902664Y-93076218D01*
X31847701Y-93154715D01*
X31749681Y-93364917D01*
X31689651Y-93588948D01*
X31689650Y-93588955D01*
X31669437Y-93819998D01*
X31669437Y-93820001D01*
X31689650Y-94051044D01*
X31689651Y-94051051D01*
X31749678Y-94275074D01*
X31749681Y-94275080D01*
X31847699Y-94485281D01*
X31902665Y-94563781D01*
X32458657Y-94007789D01*
X32467447Y-94040591D01*
X32542687Y-94170909D01*
X32649091Y-94277313D01*
X32779409Y-94352553D01*
X32812210Y-94361342D01*
X32256218Y-94917333D01*
X32334718Y-94972301D01*
X32544919Y-95070318D01*
X32544925Y-95070321D01*
X32768948Y-95130348D01*
X32768955Y-95130349D01*
X32999998Y-95150563D01*
X33000002Y-95150563D01*
X33231044Y-95130349D01*
X33231051Y-95130348D01*
X33455074Y-95070321D01*
X33455085Y-95070317D01*
X33665279Y-94972302D01*
X33665283Y-94972300D01*
X33743780Y-94917333D01*
X33187789Y-94361342D01*
X33220591Y-94352553D01*
X33350909Y-94277313D01*
X33457313Y-94170909D01*
X33532553Y-94040591D01*
X33541342Y-94007789D01*
X34097333Y-94563780D01*
X34152300Y-94485283D01*
X34152302Y-94485279D01*
X34250317Y-94275085D01*
X34250321Y-94275074D01*
X34310348Y-94051051D01*
X34310349Y-94051044D01*
X34330563Y-93820001D01*
X34330563Y-93819998D01*
X34310349Y-93588955D01*
X34310348Y-93588948D01*
X34250318Y-93364917D01*
X34152300Y-93154719D01*
X34097333Y-93076217D01*
X33541341Y-93632209D01*
X33532553Y-93599409D01*
X33457313Y-93469091D01*
X33350909Y-93362687D01*
X33220591Y-93287447D01*
X33187789Y-93278657D01*
X33556450Y-92909996D01*
X37274435Y-92909996D01*
X37274435Y-92910003D01*
X37294630Y-93089249D01*
X37294631Y-93089254D01*
X37354211Y-93259523D01*
X37371757Y-93287447D01*
X37450184Y-93412262D01*
X37577738Y-93539816D01*
X37730478Y-93635789D01*
X37900745Y-93695368D01*
X37900750Y-93695369D01*
X38079996Y-93715565D01*
X38080000Y-93715565D01*
X38080004Y-93715565D01*
X38259249Y-93695369D01*
X38259252Y-93695368D01*
X38259255Y-93695368D01*
X38429522Y-93635789D01*
X38582262Y-93539816D01*
X38709816Y-93412262D01*
X38805789Y-93259522D01*
X38865368Y-93089255D01*
X38885565Y-92910000D01*
X38882797Y-92885434D01*
X38865369Y-92730750D01*
X38865368Y-92730745D01*
X38805788Y-92560476D01*
X38709815Y-92407737D01*
X38582262Y-92280184D01*
X38429523Y-92184211D01*
X38259254Y-92124631D01*
X38259249Y-92124630D01*
X38080004Y-92104435D01*
X38079996Y-92104435D01*
X37900750Y-92124630D01*
X37900745Y-92124631D01*
X37730476Y-92184211D01*
X37577737Y-92280184D01*
X37450184Y-92407737D01*
X37354211Y-92560476D01*
X37294631Y-92730745D01*
X37294630Y-92730750D01*
X37274435Y-92909996D01*
X33556450Y-92909996D01*
X33743781Y-92722665D01*
X33671252Y-92671880D01*
X33627628Y-92617303D01*
X33620435Y-92547804D01*
X33651957Y-92485450D01*
X33671248Y-92468734D01*
X33855592Y-92339655D01*
X34019655Y-92175592D01*
X34152736Y-91985533D01*
X34250792Y-91775251D01*
X34310843Y-91551137D01*
X34331065Y-91320000D01*
X34310843Y-91088863D01*
X34250792Y-90864749D01*
X34152736Y-90654468D01*
X34152734Y-90654465D01*
X34152733Y-90654463D01*
X34019654Y-90464406D01*
X33855596Y-90300349D01*
X33855592Y-90300345D01*
X33671688Y-90171573D01*
X33628064Y-90116998D01*
X33620872Y-90047499D01*
X33652394Y-89985145D01*
X33671685Y-89968427D01*
X33855592Y-89839655D01*
X34019655Y-89675592D01*
X34152736Y-89485533D01*
X34250792Y-89275251D01*
X34310843Y-89051137D01*
X34331065Y-88820000D01*
X34329546Y-88802643D01*
X34319791Y-88691139D01*
X34310843Y-88588863D01*
X34256611Y-88386466D01*
X34250794Y-88364756D01*
X34250793Y-88364755D01*
X34250792Y-88364749D01*
X34152736Y-88154468D01*
X34152734Y-88154465D01*
X34152733Y-88154463D01*
X34019654Y-87964406D01*
X33885243Y-87829996D01*
X41084435Y-87829996D01*
X41084435Y-87830003D01*
X41104630Y-88009249D01*
X41104631Y-88009254D01*
X41164211Y-88179523D01*
X41202572Y-88240573D01*
X41260184Y-88332262D01*
X41387738Y-88459816D01*
X41476648Y-88515682D01*
X41538426Y-88554500D01*
X41540478Y-88555789D01*
X41666826Y-88600000D01*
X41710745Y-88615368D01*
X41710750Y-88615369D01*
X41889996Y-88635565D01*
X41890000Y-88635565D01*
X41890004Y-88635565D01*
X42069249Y-88615369D01*
X42069252Y-88615368D01*
X42069255Y-88615368D01*
X42239522Y-88555789D01*
X42241574Y-88554500D01*
X42260074Y-88542875D01*
X42303352Y-88515681D01*
X42370587Y-88496681D01*
X42437423Y-88517048D01*
X42482637Y-88570315D01*
X42491876Y-88639571D01*
X42474318Y-88686647D01*
X42434211Y-88750476D01*
X42374631Y-88920745D01*
X42374630Y-88920750D01*
X42354435Y-89099996D01*
X42354435Y-89100003D01*
X42374630Y-89279249D01*
X42374631Y-89279254D01*
X42434211Y-89449523D01*
X42530184Y-89602262D01*
X42530185Y-89602263D01*
X42575241Y-89647320D01*
X42608725Y-89708643D01*
X42603740Y-89778335D01*
X42575241Y-89822680D01*
X42530184Y-89867737D01*
X42434211Y-90020476D01*
X42374631Y-90190745D01*
X42374630Y-90190750D01*
X42354435Y-90369996D01*
X42354435Y-90370003D01*
X42374630Y-90549249D01*
X42374631Y-90549254D01*
X42434211Y-90719523D01*
X42469256Y-90775296D01*
X42530184Y-90872262D01*
X42657738Y-90999816D01*
X42713733Y-91035000D01*
X42799461Y-91088867D01*
X42810478Y-91095789D01*
X42980745Y-91155368D01*
X42980750Y-91155369D01*
X43159996Y-91175565D01*
X43160000Y-91175565D01*
X43160004Y-91175565D01*
X43339249Y-91155369D01*
X43339252Y-91155368D01*
X43339255Y-91155368D01*
X43509522Y-91095789D01*
X43662262Y-90999816D01*
X43789816Y-90872262D01*
X43885789Y-90719522D01*
X43945368Y-90549255D01*
X43945369Y-90549249D01*
X43965565Y-90370003D01*
X43965565Y-90369996D01*
X43945369Y-90190750D01*
X43945368Y-90190745D01*
X43933367Y-90156447D01*
X43885789Y-90020478D01*
X43789816Y-89867738D01*
X43744758Y-89822680D01*
X43711274Y-89761358D01*
X43716258Y-89691666D01*
X43744759Y-89647319D01*
X43789816Y-89602262D01*
X43885789Y-89449522D01*
X43945368Y-89279255D01*
X43955161Y-89192329D01*
X43982226Y-89127918D01*
X43990690Y-89118543D01*
X44546113Y-88563120D01*
X45429977Y-88563120D01*
X45429977Y-88563127D01*
X45450172Y-88742373D01*
X45450173Y-88742378D01*
X45509753Y-88912647D01*
X45568087Y-89005484D01*
X45605726Y-89065386D01*
X45733280Y-89192940D01*
X45735155Y-89194118D01*
X45870647Y-89279254D01*
X45886020Y-89288913D01*
X45996701Y-89327642D01*
X46056287Y-89348492D01*
X46056292Y-89348493D01*
X46235538Y-89368689D01*
X46235542Y-89368689D01*
X46235546Y-89368689D01*
X46414791Y-89348493D01*
X46414794Y-89348492D01*
X46414797Y-89348492D01*
X46585064Y-89288913D01*
X46737804Y-89192940D01*
X46865358Y-89065386D01*
X46961331Y-88912646D01*
X47020910Y-88742379D01*
X47022256Y-88730433D01*
X47041107Y-88563127D01*
X47041107Y-88563120D01*
X47020911Y-88383874D01*
X47020910Y-88383869D01*
X46996682Y-88314630D01*
X46961331Y-88213602D01*
X46865358Y-88060862D01*
X46737804Y-87933308D01*
X46701539Y-87910521D01*
X46585065Y-87837335D01*
X46564091Y-87829996D01*
X53784435Y-87829996D01*
X53784435Y-87830003D01*
X53804630Y-88009249D01*
X53804631Y-88009254D01*
X53864211Y-88179523D01*
X53902572Y-88240573D01*
X53960184Y-88332262D01*
X54087738Y-88459816D01*
X54240478Y-88555789D01*
X54410745Y-88615368D01*
X54497669Y-88625161D01*
X54562080Y-88652226D01*
X54571465Y-88660700D01*
X60455139Y-94544374D01*
X60455160Y-94544397D01*
X60507855Y-94597092D01*
X60541340Y-94658415D01*
X60536356Y-94728107D01*
X60494484Y-94784040D01*
X60486147Y-94789766D01*
X60437739Y-94820182D01*
X60310184Y-94947737D01*
X60214211Y-95100476D01*
X60154631Y-95270745D01*
X60154630Y-95270750D01*
X60134435Y-95449996D01*
X60134435Y-95450003D01*
X60154630Y-95629249D01*
X60154631Y-95629254D01*
X60214211Y-95799523D01*
X60286416Y-95914435D01*
X60310184Y-95952262D01*
X60437738Y-96079816D01*
X60590478Y-96175789D01*
X60710364Y-96217739D01*
X60760745Y-96235368D01*
X60760750Y-96235369D01*
X60939996Y-96255565D01*
X60940000Y-96255565D01*
X60940004Y-96255565D01*
X61119249Y-96235369D01*
X61119252Y-96235368D01*
X61119255Y-96235368D01*
X61289522Y-96175789D01*
X61442262Y-96079816D01*
X61569816Y-95952262D01*
X61665789Y-95799522D01*
X61725368Y-95629255D01*
X61725369Y-95629249D01*
X61745565Y-95450003D01*
X61745565Y-95449996D01*
X61725369Y-95270750D01*
X61725368Y-95270745D01*
X61665788Y-95100476D01*
X61584101Y-94970472D01*
X61565101Y-94903235D01*
X61585469Y-94836400D01*
X61638737Y-94791186D01*
X61689095Y-94780500D01*
X71179055Y-94780500D01*
X71179057Y-94780500D01*
X71331784Y-94739577D01*
X71468716Y-94660520D01*
X71580520Y-94548716D01*
X71659577Y-94411784D01*
X71700500Y-94259057D01*
X71700500Y-87750943D01*
X71659577Y-87598216D01*
X71659573Y-87598209D01*
X71580524Y-87461290D01*
X71580518Y-87461282D01*
X71468717Y-87349481D01*
X71468709Y-87349475D01*
X71331790Y-87270426D01*
X71331786Y-87270424D01*
X71331784Y-87270423D01*
X71179057Y-87229500D01*
X71179056Y-87229500D01*
X70090013Y-87229500D01*
X70028018Y-87212889D01*
X70021904Y-87209360D01*
X69971785Y-87180423D01*
X69819057Y-87139499D01*
X69819054Y-87139499D01*
X69783933Y-87139499D01*
X69716894Y-87119814D01*
X69682359Y-87086624D01*
X69557934Y-86908927D01*
X69398573Y-86749566D01*
X69213960Y-86620298D01*
X69213956Y-86620296D01*
X69009711Y-86525055D01*
X69009700Y-86525051D01*
X68903605Y-86496623D01*
X68822063Y-86474774D01*
X68762405Y-86438410D01*
X68731876Y-86375563D01*
X68740171Y-86306187D01*
X68784656Y-86252310D01*
X68822062Y-86235226D01*
X69009705Y-86184947D01*
X69213960Y-86089702D01*
X69398573Y-85960434D01*
X69557934Y-85801073D01*
X69687202Y-85616460D01*
X69782447Y-85412205D01*
X69840778Y-85194513D01*
X69860420Y-84970000D01*
X69840778Y-84745487D01*
X69782447Y-84527795D01*
X69687202Y-84323540D01*
X69557934Y-84138927D01*
X69398573Y-83979566D01*
X69213960Y-83850298D01*
X69213956Y-83850296D01*
X69009711Y-83755055D01*
X69009700Y-83755051D01*
X68903605Y-83726623D01*
X68822063Y-83704774D01*
X68762405Y-83668410D01*
X68731876Y-83605563D01*
X68740171Y-83536187D01*
X68784656Y-83482310D01*
X68822062Y-83465226D01*
X69009705Y-83414947D01*
X69213960Y-83319702D01*
X69398573Y-83190434D01*
X69557934Y-83031073D01*
X69687202Y-82846460D01*
X69782447Y-82642205D01*
X69840778Y-82424513D01*
X69860420Y-82200000D01*
X69858275Y-82175487D01*
X69846973Y-82046296D01*
X69840778Y-81975487D01*
X69782447Y-81757795D01*
X69687202Y-81553540D01*
X69557934Y-81368927D01*
X69398573Y-81209566D01*
X69226192Y-81088863D01*
X69213966Y-81080302D01*
X69213963Y-81080300D01*
X69213960Y-81080298D01*
X69213956Y-81080296D01*
X69009711Y-80985055D01*
X69009700Y-80985051D01*
X68792014Y-80926722D01*
X68792007Y-80926721D01*
X68567502Y-80907080D01*
X68567498Y-80907080D01*
X68342992Y-80926721D01*
X68342985Y-80926722D01*
X68125299Y-80985051D01*
X68125288Y-80985055D01*
X67921043Y-81080296D01*
X67921033Y-81080302D01*
X67736426Y-81209566D01*
X67577066Y-81368926D01*
X67447802Y-81553533D01*
X67447796Y-81553543D01*
X67352555Y-81757788D01*
X67352551Y-81757799D01*
X67294222Y-81975485D01*
X67294221Y-81975492D01*
X67274580Y-82199997D01*
X67274580Y-82200002D01*
X67294221Y-82424507D01*
X67294222Y-82424514D01*
X67352551Y-82642200D01*
X67352555Y-82642211D01*
X67426294Y-82800345D01*
X67447798Y-82846460D01*
X67577066Y-83031073D01*
X67736427Y-83190434D01*
X67921040Y-83319702D01*
X68017640Y-83364747D01*
X68125288Y-83414944D01*
X68125290Y-83414944D01*
X68125295Y-83414947D01*
X68312934Y-83465225D01*
X68372594Y-83501590D01*
X68403123Y-83564437D01*
X68394828Y-83633813D01*
X68350343Y-83687691D01*
X68312935Y-83704774D01*
X68274451Y-83715086D01*
X68125299Y-83755051D01*
X68125288Y-83755055D01*
X67921043Y-83850296D01*
X67921033Y-83850302D01*
X67736426Y-83979566D01*
X67577066Y-84138926D01*
X67447802Y-84323533D01*
X67447796Y-84323543D01*
X67352555Y-84527788D01*
X67352551Y-84527799D01*
X67294222Y-84745485D01*
X67294221Y-84745492D01*
X67274580Y-84969997D01*
X67274580Y-84970002D01*
X67294221Y-85194507D01*
X67294222Y-85194514D01*
X67352551Y-85412200D01*
X67352555Y-85412211D01*
X67447796Y-85616456D01*
X67447802Y-85616466D01*
X67544410Y-85754435D01*
X67577066Y-85801073D01*
X67736427Y-85960434D01*
X67921040Y-86089702D01*
X68008515Y-86130492D01*
X68125288Y-86184944D01*
X68125290Y-86184944D01*
X68125295Y-86184947D01*
X68312934Y-86235225D01*
X68372594Y-86271590D01*
X68403123Y-86334437D01*
X68394828Y-86403813D01*
X68350343Y-86457691D01*
X68312935Y-86474774D01*
X68274451Y-86485086D01*
X68125299Y-86525051D01*
X68125288Y-86525055D01*
X67921043Y-86620296D01*
X67921033Y-86620302D01*
X67736426Y-86749566D01*
X67577066Y-86908926D01*
X67447802Y-87093533D01*
X67447796Y-87093543D01*
X67352555Y-87297788D01*
X67352551Y-87297799D01*
X67294222Y-87515485D01*
X67294221Y-87515492D01*
X67274580Y-87739997D01*
X67274580Y-87740002D01*
X67294221Y-87964507D01*
X67294222Y-87964514D01*
X67352551Y-88182200D01*
X67352555Y-88182211D01*
X67447796Y-88386456D01*
X67447802Y-88386466D01*
X67492419Y-88450185D01*
X67577066Y-88571073D01*
X67736427Y-88730434D01*
X67921040Y-88859702D01*
X68034580Y-88912646D01*
X68125288Y-88954944D01*
X68125290Y-88954944D01*
X68125295Y-88954947D01*
X68313902Y-89005484D01*
X68373561Y-89041849D01*
X68404090Y-89104696D01*
X68395795Y-89174072D01*
X68351310Y-89227950D01*
X68313900Y-89245034D01*
X68125474Y-89295521D01*
X68125465Y-89295525D01*
X67921287Y-89390735D01*
X67851002Y-89439948D01*
X67851001Y-89439949D01*
X68417677Y-90006624D01*
X68364858Y-90020778D01*
X68245143Y-90089896D01*
X68147396Y-90187643D01*
X68078278Y-90307358D01*
X68064125Y-90360177D01*
X67497449Y-89793501D01*
X67497448Y-89793502D01*
X67448235Y-89863787D01*
X67353025Y-90067965D01*
X67353021Y-90067974D01*
X67294718Y-90285568D01*
X67294716Y-90285578D01*
X67275082Y-90509999D01*
X67275082Y-90510000D01*
X67294716Y-90734421D01*
X67294718Y-90734431D01*
X67353021Y-90952025D01*
X67353025Y-90952034D01*
X67448232Y-91156207D01*
X67448233Y-91156209D01*
X67497449Y-91226497D01*
X68064124Y-90659822D01*
X68078278Y-90712642D01*
X68147396Y-90832357D01*
X68245143Y-90930104D01*
X68364858Y-90999222D01*
X68417677Y-91013375D01*
X67851001Y-91580049D01*
X67921291Y-91629267D01*
X68125465Y-91724474D01*
X68125474Y-91724478D01*
X68343068Y-91782781D01*
X68343078Y-91782783D01*
X68567499Y-91802418D01*
X68567501Y-91802418D01*
X68791921Y-91782783D01*
X68791931Y-91782781D01*
X69009525Y-91724478D01*
X69009534Y-91724474D01*
X69213708Y-91629267D01*
X69213712Y-91629265D01*
X69283997Y-91580050D01*
X68717322Y-91013375D01*
X68770142Y-90999222D01*
X68889857Y-90930104D01*
X68987604Y-90832357D01*
X69056722Y-90712642D01*
X69070875Y-90659822D01*
X69637550Y-91226497D01*
X69686765Y-91156212D01*
X69686767Y-91156208D01*
X69781974Y-90952034D01*
X69781978Y-90952025D01*
X69840281Y-90734431D01*
X69840283Y-90734421D01*
X69859918Y-90510000D01*
X69859918Y-90509999D01*
X69840283Y-90285578D01*
X69840281Y-90285568D01*
X69781978Y-90067974D01*
X69781974Y-90067965D01*
X69686767Y-89863791D01*
X69637549Y-89793501D01*
X69070874Y-90360176D01*
X69056722Y-90307358D01*
X68987604Y-90187643D01*
X68889857Y-90089896D01*
X68770142Y-90020778D01*
X68717322Y-90006624D01*
X69283997Y-89439949D01*
X69283997Y-89439948D01*
X69213709Y-89390733D01*
X69213707Y-89390732D01*
X69009534Y-89295525D01*
X69009525Y-89295521D01*
X68821099Y-89245034D01*
X68761438Y-89208669D01*
X68730909Y-89145823D01*
X68739203Y-89076447D01*
X68783689Y-89022569D01*
X68821097Y-89005484D01*
X69009705Y-88954947D01*
X69213960Y-88859702D01*
X69398573Y-88730434D01*
X69557934Y-88571073D01*
X69621505Y-88480284D01*
X69676080Y-88436660D01*
X69742844Y-88429749D01*
X69742885Y-88429439D01*
X69744185Y-88429610D01*
X69745579Y-88429466D01*
X69749054Y-88430251D01*
X69750941Y-88430499D01*
X69750942Y-88430500D01*
X69750943Y-88430500D01*
X70375500Y-88430500D01*
X70442539Y-88450185D01*
X70488294Y-88502989D01*
X70499500Y-88554500D01*
X70499500Y-93455500D01*
X70479815Y-93522539D01*
X70427011Y-93568294D01*
X70375500Y-93579500D01*
X61240097Y-93579500D01*
X61173058Y-93559815D01*
X61152416Y-93543181D01*
X57479285Y-89870050D01*
X57445800Y-89808727D01*
X57450784Y-89739035D01*
X57492656Y-89683102D01*
X57558120Y-89658685D01*
X57580850Y-89659149D01*
X57729997Y-89675954D01*
X57730000Y-89675954D01*
X57730004Y-89675954D01*
X57909249Y-89655758D01*
X57909252Y-89655757D01*
X57909255Y-89655757D01*
X58079522Y-89596178D01*
X58232262Y-89500205D01*
X58359816Y-89372651D01*
X58455789Y-89219911D01*
X58515368Y-89049644D01*
X58515369Y-89049638D01*
X58535565Y-88870392D01*
X58535565Y-88870385D01*
X58515369Y-88691139D01*
X58515368Y-88691134D01*
X58504719Y-88660700D01*
X58455789Y-88520867D01*
X58453389Y-88517048D01*
X58416582Y-88458469D01*
X58359816Y-88368127D01*
X58232262Y-88240573D01*
X58139380Y-88182211D01*
X58079523Y-88144600D01*
X57909254Y-88085020D01*
X57909249Y-88085019D01*
X57730004Y-88064824D01*
X57729996Y-88064824D01*
X57550750Y-88085019D01*
X57550745Y-88085020D01*
X57380476Y-88144600D01*
X57227737Y-88240573D01*
X57100184Y-88368126D01*
X57004211Y-88520865D01*
X56944631Y-88691134D01*
X56944630Y-88691139D01*
X56924435Y-88870385D01*
X56924435Y-88870392D01*
X56941239Y-89019539D01*
X56929184Y-89088361D01*
X56881835Y-89139740D01*
X56814225Y-89157364D01*
X56747819Y-89135637D01*
X56730338Y-89121103D01*
X55420700Y-87811465D01*
X55387215Y-87750142D01*
X55385163Y-87737686D01*
X55375368Y-87650745D01*
X55315789Y-87480478D01*
X55219816Y-87327738D01*
X55092262Y-87200184D01*
X54939523Y-87104211D01*
X54769254Y-87044631D01*
X54769249Y-87044630D01*
X54590004Y-87024435D01*
X54589996Y-87024435D01*
X54410750Y-87044630D01*
X54410745Y-87044631D01*
X54240476Y-87104211D01*
X54087737Y-87200184D01*
X53960184Y-87327737D01*
X53864211Y-87480476D01*
X53804631Y-87650745D01*
X53804630Y-87650750D01*
X53784435Y-87829996D01*
X46564091Y-87829996D01*
X46414796Y-87777755D01*
X46414791Y-87777754D01*
X46235546Y-87757559D01*
X46235538Y-87757559D01*
X46056292Y-87777754D01*
X46056287Y-87777755D01*
X45886018Y-87837335D01*
X45733279Y-87933308D01*
X45605726Y-88060861D01*
X45509753Y-88213600D01*
X45450173Y-88383869D01*
X45450172Y-88383874D01*
X45429977Y-88563120D01*
X44546113Y-88563120D01*
X46549238Y-86559996D01*
X60134435Y-86559996D01*
X60134435Y-86560003D01*
X60154630Y-86739249D01*
X60154631Y-86739254D01*
X60214211Y-86909523D01*
X60271983Y-87001466D01*
X60310184Y-87062262D01*
X60437738Y-87189816D01*
X60590478Y-87285789D01*
X60744404Y-87339650D01*
X60760745Y-87345368D01*
X60760750Y-87345369D01*
X60939996Y-87365565D01*
X60940000Y-87365565D01*
X60940004Y-87365565D01*
X61119249Y-87345369D01*
X61119252Y-87345368D01*
X61119255Y-87345368D01*
X61289522Y-87285789D01*
X61442262Y-87189816D01*
X61569816Y-87062262D01*
X61665789Y-86909522D01*
X61725368Y-86739255D01*
X61738771Y-86620298D01*
X61745565Y-86560003D01*
X61745565Y-86559996D01*
X61725369Y-86380750D01*
X61725368Y-86380745D01*
X61716358Y-86354997D01*
X64434580Y-86354997D01*
X64434580Y-86355002D01*
X64454221Y-86579507D01*
X64454222Y-86579514D01*
X64512551Y-86797200D01*
X64512555Y-86797211D01*
X64607796Y-87001456D01*
X64607802Y-87001466D01*
X64679745Y-87104211D01*
X64737066Y-87186073D01*
X64896427Y-87345434D01*
X65081040Y-87474702D01*
X65203924Y-87532003D01*
X65285288Y-87569944D01*
X65285290Y-87569944D01*
X65285295Y-87569947D01*
X65473902Y-87620484D01*
X65533561Y-87656849D01*
X65564090Y-87719696D01*
X65555795Y-87789072D01*
X65511310Y-87842950D01*
X65473900Y-87860034D01*
X65285474Y-87910521D01*
X65285465Y-87910525D01*
X65081287Y-88005735D01*
X65011002Y-88054948D01*
X65011001Y-88054949D01*
X65577677Y-88621624D01*
X65524858Y-88635778D01*
X65405143Y-88704896D01*
X65307396Y-88802643D01*
X65238278Y-88922358D01*
X65224125Y-88975177D01*
X64657449Y-88408501D01*
X64657448Y-88408502D01*
X64608235Y-88478787D01*
X64513025Y-88682965D01*
X64513021Y-88682974D01*
X64454718Y-88900568D01*
X64454716Y-88900578D01*
X64435082Y-89124999D01*
X64435082Y-89125000D01*
X64454716Y-89349421D01*
X64454718Y-89349431D01*
X64513021Y-89567025D01*
X64513025Y-89567034D01*
X64608232Y-89771207D01*
X64608233Y-89771209D01*
X64657449Y-89841497D01*
X65224124Y-89274822D01*
X65238278Y-89327642D01*
X65307396Y-89447357D01*
X65405143Y-89545104D01*
X65524858Y-89614222D01*
X65577677Y-89628375D01*
X65011001Y-90195049D01*
X65081291Y-90244267D01*
X65285465Y-90339474D01*
X65285476Y-90339479D01*
X65473899Y-90389965D01*
X65533560Y-90426329D01*
X65564090Y-90489176D01*
X65555796Y-90558552D01*
X65511311Y-90612430D01*
X65473901Y-90629515D01*
X65285300Y-90680051D01*
X65285288Y-90680055D01*
X65081043Y-90775296D01*
X65081033Y-90775302D01*
X64896426Y-90904566D01*
X64737066Y-91063926D01*
X64607802Y-91248533D01*
X64607796Y-91248543D01*
X64512555Y-91452788D01*
X64512551Y-91452799D01*
X64454222Y-91670485D01*
X64454221Y-91670492D01*
X64434580Y-91894997D01*
X64434580Y-91895002D01*
X64454221Y-92119507D01*
X64454222Y-92119514D01*
X64512551Y-92337200D01*
X64512555Y-92337211D01*
X64607796Y-92541456D01*
X64607802Y-92541466D01*
X64643751Y-92592806D01*
X64737066Y-92726073D01*
X64896427Y-92885434D01*
X65081040Y-93014702D01*
X65203924Y-93072003D01*
X65285288Y-93109944D01*
X65285290Y-93109944D01*
X65285295Y-93109947D01*
X65502987Y-93168278D01*
X65663353Y-93182308D01*
X65727498Y-93187920D01*
X65727500Y-93187920D01*
X65727502Y-93187920D01*
X65783628Y-93183009D01*
X65952013Y-93168278D01*
X66169705Y-93109947D01*
X66373960Y-93014702D01*
X66558573Y-92885434D01*
X66717934Y-92726073D01*
X66847202Y-92541460D01*
X66942447Y-92337205D01*
X67000778Y-92119513D01*
X67020420Y-91895000D01*
X67000778Y-91670487D01*
X66942447Y-91452795D01*
X66847202Y-91248540D01*
X66717934Y-91063927D01*
X66558573Y-90904566D01*
X66373960Y-90775298D01*
X66373956Y-90775296D01*
X66169711Y-90680055D01*
X66169699Y-90680051D01*
X65981098Y-90629515D01*
X65921438Y-90593150D01*
X65890909Y-90530302D01*
X65899204Y-90460927D01*
X65943689Y-90407049D01*
X65981100Y-90389965D01*
X66169523Y-90339479D01*
X66169534Y-90339474D01*
X66373708Y-90244267D01*
X66373712Y-90244265D01*
X66443997Y-90195050D01*
X65877322Y-89628375D01*
X65930142Y-89614222D01*
X66049857Y-89545104D01*
X66147604Y-89447357D01*
X66216722Y-89327642D01*
X66230875Y-89274822D01*
X66797550Y-89841497D01*
X66846765Y-89771212D01*
X66846767Y-89771208D01*
X66941974Y-89567034D01*
X66941978Y-89567025D01*
X67000281Y-89349431D01*
X67000283Y-89349421D01*
X67019918Y-89125000D01*
X67019918Y-89124999D01*
X67000283Y-88900578D01*
X67000281Y-88900568D01*
X66941978Y-88682974D01*
X66941974Y-88682965D01*
X66846767Y-88478791D01*
X66797549Y-88408501D01*
X66230874Y-88975176D01*
X66216722Y-88922358D01*
X66147604Y-88802643D01*
X66049857Y-88704896D01*
X65930142Y-88635778D01*
X65877322Y-88621624D01*
X66443997Y-88054949D01*
X66443997Y-88054948D01*
X66373709Y-88005733D01*
X66373707Y-88005732D01*
X66169534Y-87910525D01*
X66169525Y-87910521D01*
X65981099Y-87860034D01*
X65921438Y-87823669D01*
X65890909Y-87760823D01*
X65899203Y-87691447D01*
X65943689Y-87637569D01*
X65981097Y-87620484D01*
X66169705Y-87569947D01*
X66373960Y-87474702D01*
X66558573Y-87345434D01*
X66717934Y-87186073D01*
X66847202Y-87001460D01*
X66942447Y-86797205D01*
X67000778Y-86579513D01*
X67015509Y-86411128D01*
X67020420Y-86355002D01*
X67020420Y-86354997D01*
X67007776Y-86210476D01*
X67000778Y-86130487D01*
X66942447Y-85912795D01*
X66847202Y-85708540D01*
X66717934Y-85523927D01*
X66558573Y-85364566D01*
X66466856Y-85300345D01*
X66373966Y-85235302D01*
X66373963Y-85235300D01*
X66373960Y-85235298D01*
X66373956Y-85235296D01*
X66169711Y-85140055D01*
X66169699Y-85140051D01*
X65981098Y-85089515D01*
X65921438Y-85053150D01*
X65890909Y-84990302D01*
X65899204Y-84920927D01*
X65943689Y-84867049D01*
X65981100Y-84849965D01*
X66169523Y-84799479D01*
X66169534Y-84799474D01*
X66373708Y-84704267D01*
X66373712Y-84704265D01*
X66443997Y-84655050D01*
X65877322Y-84088375D01*
X65930142Y-84074222D01*
X66049857Y-84005104D01*
X66147604Y-83907357D01*
X66216722Y-83787642D01*
X66230875Y-83734822D01*
X66797550Y-84301497D01*
X66846765Y-84231212D01*
X66846767Y-84231208D01*
X66941974Y-84027034D01*
X66941978Y-84027025D01*
X67000281Y-83809431D01*
X67000283Y-83809421D01*
X67019918Y-83585000D01*
X67019918Y-83584999D01*
X67000283Y-83360578D01*
X67000281Y-83360568D01*
X66941978Y-83142974D01*
X66941974Y-83142965D01*
X66846767Y-82938791D01*
X66797549Y-82868501D01*
X66230874Y-83435176D01*
X66216722Y-83382358D01*
X66147604Y-83262643D01*
X66049857Y-83164896D01*
X65930142Y-83095778D01*
X65877322Y-83081624D01*
X66443997Y-82514949D01*
X66443997Y-82514948D01*
X66373709Y-82465733D01*
X66373707Y-82465732D01*
X66169534Y-82370525D01*
X66169525Y-82370521D01*
X66080897Y-82346774D01*
X66021236Y-82310409D01*
X65990707Y-82247562D01*
X65999002Y-82178187D01*
X66043487Y-82124309D01*
X66110039Y-82103034D01*
X66112967Y-82102999D01*
X66562872Y-82102999D01*
X66622483Y-82096591D01*
X66757331Y-82046296D01*
X66872546Y-81960046D01*
X66958796Y-81844831D01*
X67009091Y-81709983D01*
X67015500Y-81650373D01*
X67015499Y-79979628D01*
X67009091Y-79920017D01*
X67005318Y-79909902D01*
X66958797Y-79785171D01*
X66958793Y-79785164D01*
X66872547Y-79669955D01*
X66872544Y-79669952D01*
X66757335Y-79583706D01*
X66757328Y-79583702D01*
X66622482Y-79533408D01*
X66622483Y-79533408D01*
X66562883Y-79527001D01*
X66562881Y-79527000D01*
X66562873Y-79527000D01*
X66562864Y-79527000D01*
X64892129Y-79527000D01*
X64892123Y-79527001D01*
X64832516Y-79533408D01*
X64697671Y-79583702D01*
X64697664Y-79583706D01*
X64582455Y-79669952D01*
X64582452Y-79669955D01*
X64496206Y-79785164D01*
X64496202Y-79785171D01*
X64445908Y-79920017D01*
X64441474Y-79961264D01*
X64439501Y-79979623D01*
X64439500Y-79979635D01*
X64439500Y-81650370D01*
X64439501Y-81650376D01*
X64445908Y-81709983D01*
X64496202Y-81844828D01*
X64496206Y-81844835D01*
X64582452Y-81960044D01*
X64582455Y-81960047D01*
X64697664Y-82046293D01*
X64697671Y-82046297D01*
X64832517Y-82096591D01*
X64832516Y-82096591D01*
X64839444Y-82097335D01*
X64892127Y-82103000D01*
X65342009Y-82102999D01*
X65409046Y-82122683D01*
X65454801Y-82175487D01*
X65464745Y-82244646D01*
X65435720Y-82308202D01*
X65376942Y-82345976D01*
X65374101Y-82346774D01*
X65285472Y-82370522D01*
X65285465Y-82370525D01*
X65081287Y-82465735D01*
X65011002Y-82514948D01*
X65011001Y-82514949D01*
X65577677Y-83081624D01*
X65524858Y-83095778D01*
X65405143Y-83164896D01*
X65307396Y-83262643D01*
X65238278Y-83382358D01*
X65224125Y-83435177D01*
X64657449Y-82868501D01*
X64657448Y-82868502D01*
X64608235Y-82938787D01*
X64513025Y-83142965D01*
X64513021Y-83142974D01*
X64454718Y-83360568D01*
X64454716Y-83360578D01*
X64435082Y-83584999D01*
X64435082Y-83585000D01*
X64454716Y-83809421D01*
X64454718Y-83809431D01*
X64513021Y-84027025D01*
X64513025Y-84027034D01*
X64608232Y-84231207D01*
X64608233Y-84231209D01*
X64657449Y-84301497D01*
X65224124Y-83734822D01*
X65238278Y-83787642D01*
X65307396Y-83907357D01*
X65405143Y-84005104D01*
X65524858Y-84074222D01*
X65577677Y-84088375D01*
X65011001Y-84655049D01*
X65081291Y-84704267D01*
X65285465Y-84799474D01*
X65285476Y-84799479D01*
X65473899Y-84849965D01*
X65533560Y-84886329D01*
X65564090Y-84949176D01*
X65555796Y-85018552D01*
X65511311Y-85072430D01*
X65473901Y-85089515D01*
X65285300Y-85140051D01*
X65285288Y-85140055D01*
X65081043Y-85235296D01*
X65081033Y-85235302D01*
X64896426Y-85364566D01*
X64737066Y-85523926D01*
X64607802Y-85708533D01*
X64607796Y-85708543D01*
X64512555Y-85912788D01*
X64512551Y-85912799D01*
X64454222Y-86130485D01*
X64454221Y-86130492D01*
X64434580Y-86354997D01*
X61716358Y-86354997D01*
X61684139Y-86262920D01*
X61665789Y-86210478D01*
X61649747Y-86184948D01*
X61589897Y-86089697D01*
X61569816Y-86057738D01*
X61442262Y-85930184D01*
X61289523Y-85834211D01*
X61119254Y-85774631D01*
X61119249Y-85774630D01*
X60940004Y-85754435D01*
X60939996Y-85754435D01*
X60760750Y-85774630D01*
X60760745Y-85774631D01*
X60590476Y-85834211D01*
X60437737Y-85930184D01*
X60310184Y-86057737D01*
X60214211Y-86210476D01*
X60154631Y-86380745D01*
X60154630Y-86380750D01*
X60134435Y-86559996D01*
X46549238Y-86559996D01*
X47819238Y-85289996D01*
X49974435Y-85289996D01*
X49974435Y-85290003D01*
X49994630Y-85469249D01*
X49994631Y-85469254D01*
X50054211Y-85639523D01*
X50126416Y-85754435D01*
X50150184Y-85792262D01*
X50277738Y-85919816D01*
X50430478Y-86015789D01*
X50600745Y-86075368D01*
X50600750Y-86075369D01*
X50779996Y-86095565D01*
X50780000Y-86095565D01*
X50780004Y-86095565D01*
X50959249Y-86075369D01*
X50959252Y-86075368D01*
X50959255Y-86075368D01*
X51129522Y-86015789D01*
X51282262Y-85919816D01*
X51409816Y-85792262D01*
X51505789Y-85639522D01*
X51565368Y-85469255D01*
X51565914Y-85464408D01*
X51585565Y-85290003D01*
X51585565Y-85289996D01*
X51565369Y-85110750D01*
X51565368Y-85110745D01*
X51523223Y-84990302D01*
X51505789Y-84940478D01*
X51409816Y-84787738D01*
X51282262Y-84660184D01*
X51274090Y-84655049D01*
X51129523Y-84564211D01*
X50959254Y-84504631D01*
X50959249Y-84504630D01*
X50780004Y-84484435D01*
X50779996Y-84484435D01*
X50600750Y-84504630D01*
X50600745Y-84504631D01*
X50430476Y-84564211D01*
X50277737Y-84660184D01*
X50150184Y-84787737D01*
X50054211Y-84940476D01*
X49994631Y-85110745D01*
X49994630Y-85110750D01*
X49974435Y-85289996D01*
X47819238Y-85289996D01*
X52530520Y-80578716D01*
X52609577Y-80441784D01*
X52650501Y-80289057D01*
X52650501Y-80209996D01*
X61404435Y-80209996D01*
X61404435Y-80210003D01*
X61424630Y-80389249D01*
X61424631Y-80389254D01*
X61484211Y-80559523D01*
X61580184Y-80712262D01*
X61707738Y-80839816D01*
X61860478Y-80935789D01*
X62001272Y-80985055D01*
X62030745Y-80995368D01*
X62030750Y-80995369D01*
X62209996Y-81015565D01*
X62210000Y-81015565D01*
X62210004Y-81015565D01*
X62389249Y-80995369D01*
X62389252Y-80995368D01*
X62389255Y-80995368D01*
X62559522Y-80935789D01*
X62712262Y-80839816D01*
X62839816Y-80712262D01*
X62935789Y-80559522D01*
X62995368Y-80389255D01*
X62995369Y-80389249D01*
X63015565Y-80210003D01*
X63015565Y-80209996D01*
X62995369Y-80030750D01*
X62995368Y-80030745D01*
X62973561Y-79968425D01*
X62935789Y-79860478D01*
X62839816Y-79707738D01*
X62712262Y-79580184D01*
X62559523Y-79484211D01*
X62389254Y-79424631D01*
X62389249Y-79424630D01*
X62210004Y-79404435D01*
X62209996Y-79404435D01*
X62030750Y-79424630D01*
X62030745Y-79424631D01*
X61860476Y-79484211D01*
X61707737Y-79580184D01*
X61580184Y-79707737D01*
X61484211Y-79860476D01*
X61424631Y-80030745D01*
X61424630Y-80030750D01*
X61404435Y-80209996D01*
X52650501Y-80209996D01*
X52650501Y-80130942D01*
X52650501Y-80123347D01*
X52650500Y-80123329D01*
X52650500Y-75879094D01*
X52670185Y-75812055D01*
X52722989Y-75766300D01*
X52792147Y-75756356D01*
X52840471Y-75774100D01*
X52878193Y-75797802D01*
X52970475Y-75855788D01*
X53140745Y-75915368D01*
X53140750Y-75915369D01*
X53319996Y-75935565D01*
X53320000Y-75935565D01*
X53320004Y-75935565D01*
X53499249Y-75915369D01*
X53499252Y-75915368D01*
X53499255Y-75915368D01*
X53669522Y-75855789D01*
X53822262Y-75759816D01*
X53949816Y-75632262D01*
X54045789Y-75479522D01*
X54105368Y-75309255D01*
X54105369Y-75309249D01*
X54125565Y-75130003D01*
X54125565Y-75129996D01*
X54105369Y-74950750D01*
X54105368Y-74950745D01*
X54045788Y-74780476D01*
X54006582Y-74718080D01*
X53949816Y-74627738D01*
X53822262Y-74500184D01*
X53808126Y-74491302D01*
X53669523Y-74404211D01*
X53499254Y-74344631D01*
X53499249Y-74344630D01*
X53320004Y-74324435D01*
X53319996Y-74324435D01*
X53140750Y-74344630D01*
X53140745Y-74344631D01*
X52970476Y-74404211D01*
X52840472Y-74485899D01*
X52773235Y-74504899D01*
X52706400Y-74484531D01*
X52661186Y-74431263D01*
X52650500Y-74380905D01*
X52650500Y-73859996D01*
X56324435Y-73859996D01*
X56324435Y-73860003D01*
X56344630Y-74039249D01*
X56344631Y-74039254D01*
X56404211Y-74209523D01*
X56500184Y-74362262D01*
X56500185Y-74362263D01*
X56545241Y-74407320D01*
X56578725Y-74468643D01*
X56573740Y-74538335D01*
X56545241Y-74582680D01*
X56500184Y-74627737D01*
X56404211Y-74780476D01*
X56344631Y-74950745D01*
X56344630Y-74950750D01*
X56324435Y-75129996D01*
X56324435Y-75130003D01*
X56344630Y-75309249D01*
X56344631Y-75309254D01*
X56404211Y-75479523D01*
X56500184Y-75632262D01*
X56500185Y-75632263D01*
X56545241Y-75677320D01*
X56578725Y-75738643D01*
X56573740Y-75808335D01*
X56545241Y-75852680D01*
X56500184Y-75897737D01*
X56404211Y-76050476D01*
X56344631Y-76220745D01*
X56344630Y-76220750D01*
X56324435Y-76399996D01*
X56324435Y-76400003D01*
X56344630Y-76579249D01*
X56344631Y-76579254D01*
X56404211Y-76749523D01*
X56420378Y-76775252D01*
X56500184Y-76902262D01*
X56627738Y-77029816D01*
X56780478Y-77125789D01*
X56922807Y-77175592D01*
X56950745Y-77185368D01*
X56950750Y-77185369D01*
X57129996Y-77205565D01*
X57130000Y-77205565D01*
X57130004Y-77205565D01*
X57309249Y-77185369D01*
X57309252Y-77185368D01*
X57309255Y-77185368D01*
X57479522Y-77125789D01*
X57543352Y-77085681D01*
X57610587Y-77066681D01*
X57677423Y-77087048D01*
X57722637Y-77140315D01*
X57731876Y-77209571D01*
X57714318Y-77256647D01*
X57674211Y-77320476D01*
X57614631Y-77490745D01*
X57614630Y-77490750D01*
X57594435Y-77669996D01*
X57594435Y-77670003D01*
X57614630Y-77849249D01*
X57614631Y-77849254D01*
X57674211Y-78019523D01*
X57759000Y-78154463D01*
X57770184Y-78172262D01*
X57897738Y-78299816D01*
X58050478Y-78395789D01*
X58220745Y-78455368D01*
X58220750Y-78455369D01*
X58399996Y-78475565D01*
X58400000Y-78475565D01*
X58400004Y-78475565D01*
X58579249Y-78455369D01*
X58579252Y-78455368D01*
X58579255Y-78455368D01*
X58749522Y-78395789D01*
X58902262Y-78299816D01*
X59029816Y-78172262D01*
X59125789Y-78019522D01*
X59185368Y-77849255D01*
X59185369Y-77849249D01*
X59205565Y-77670003D01*
X59205565Y-77669996D01*
X59185369Y-77490750D01*
X59185368Y-77490745D01*
X59132499Y-77339655D01*
X59125789Y-77320478D01*
X59029816Y-77167738D01*
X58902262Y-77040184D01*
X58749523Y-76944211D01*
X58579254Y-76884631D01*
X58579249Y-76884630D01*
X58400004Y-76864435D01*
X58399996Y-76864435D01*
X58220750Y-76884630D01*
X58220745Y-76884631D01*
X58050476Y-76944211D01*
X57986647Y-76984318D01*
X57919410Y-77003318D01*
X57852575Y-76982950D01*
X57807361Y-76929682D01*
X57798124Y-76860426D01*
X57815681Y-76813353D01*
X57855789Y-76749522D01*
X57915368Y-76579255D01*
X57935565Y-76400000D01*
X57935565Y-76399996D01*
X60134435Y-76399996D01*
X60134435Y-76400003D01*
X60154630Y-76579249D01*
X60154631Y-76579254D01*
X60214211Y-76749523D01*
X60230378Y-76775252D01*
X60310184Y-76902262D01*
X60437738Y-77029816D01*
X60590478Y-77125789D01*
X60732807Y-77175592D01*
X60760745Y-77185368D01*
X60760750Y-77185369D01*
X60939996Y-77205565D01*
X60940000Y-77205565D01*
X60940004Y-77205565D01*
X61119249Y-77185369D01*
X61119252Y-77185368D01*
X61119255Y-77185368D01*
X61289522Y-77125789D01*
X61442262Y-77029816D01*
X61569816Y-76902262D01*
X61665789Y-76749522D01*
X61725368Y-76579255D01*
X61745565Y-76400000D01*
X61736551Y-76320000D01*
X61725369Y-76220750D01*
X61725368Y-76220745D01*
X61665788Y-76050476D01*
X61580894Y-75915369D01*
X61569816Y-75897738D01*
X61442262Y-75770184D01*
X61434012Y-75765000D01*
X61289523Y-75674211D01*
X61119254Y-75614631D01*
X61119249Y-75614630D01*
X60940004Y-75594435D01*
X60939996Y-75594435D01*
X60760750Y-75614630D01*
X60760745Y-75614631D01*
X60590476Y-75674211D01*
X60437737Y-75770184D01*
X60310184Y-75897737D01*
X60214211Y-76050476D01*
X60154631Y-76220745D01*
X60154630Y-76220750D01*
X60134435Y-76399996D01*
X57935565Y-76399996D01*
X57926551Y-76320000D01*
X57915369Y-76220750D01*
X57915368Y-76220745D01*
X57855788Y-76050475D01*
X57815682Y-75986648D01*
X57796681Y-75919411D01*
X57817048Y-75852576D01*
X57870316Y-75807361D01*
X57939572Y-75798123D01*
X57986648Y-75815682D01*
X58050475Y-75855788D01*
X58220745Y-75915368D01*
X58220750Y-75915369D01*
X58399996Y-75935565D01*
X58400000Y-75935565D01*
X58400004Y-75935565D01*
X58579249Y-75915369D01*
X58579252Y-75915368D01*
X58579255Y-75915368D01*
X58749522Y-75855789D01*
X58902262Y-75759816D01*
X59029816Y-75632262D01*
X59125789Y-75479522D01*
X59185368Y-75309255D01*
X59185369Y-75309249D01*
X59205565Y-75130003D01*
X59205565Y-75129996D01*
X59185369Y-74950750D01*
X59185368Y-74950745D01*
X59125788Y-74780476D01*
X59086582Y-74718080D01*
X59029816Y-74627738D01*
X58902262Y-74500184D01*
X58888126Y-74491302D01*
X58749523Y-74404211D01*
X58579254Y-74344631D01*
X58579249Y-74344630D01*
X58400004Y-74324435D01*
X58399996Y-74324435D01*
X58220750Y-74344630D01*
X58220745Y-74344631D01*
X58050476Y-74404211D01*
X57986647Y-74444318D01*
X57919410Y-74463318D01*
X57852575Y-74442950D01*
X57807361Y-74389682D01*
X57798124Y-74320426D01*
X57815681Y-74273353D01*
X57855789Y-74209522D01*
X57915368Y-74039255D01*
X57915840Y-74035065D01*
X57935565Y-73860003D01*
X57935565Y-73859996D01*
X57935565Y-73859994D01*
X64608991Y-73859994D01*
X64608991Y-73860005D01*
X64629006Y-74178149D01*
X64629007Y-74178156D01*
X64647727Y-74276287D01*
X64687712Y-74485899D01*
X64688744Y-74491306D01*
X64787254Y-74794488D01*
X64787256Y-74794493D01*
X64922986Y-75082932D01*
X64922989Y-75082938D01*
X65093799Y-75352093D01*
X65093802Y-75352097D01*
X65093803Y-75352098D01*
X65297007Y-75597729D01*
X65447064Y-75738643D01*
X65529391Y-75815953D01*
X65529401Y-75815961D01*
X65787287Y-76003326D01*
X65787292Y-76003328D01*
X65787299Y-76003334D01*
X66066655Y-76156912D01*
X66066660Y-76156914D01*
X66066662Y-76156915D01*
X66066663Y-76156916D01*
X66363054Y-76274265D01*
X66363057Y-76274266D01*
X66541177Y-76319999D01*
X66671831Y-76353545D01*
X66738182Y-76361927D01*
X66988094Y-76393499D01*
X66988103Y-76393499D01*
X66988106Y-76393500D01*
X66988108Y-76393500D01*
X67306892Y-76393500D01*
X67306894Y-76393500D01*
X67306897Y-76393499D01*
X67306905Y-76393499D01*
X67495626Y-76369657D01*
X67623169Y-76353545D01*
X67931942Y-76274266D01*
X67931945Y-76274265D01*
X68228336Y-76156916D01*
X68228337Y-76156915D01*
X68228335Y-76156915D01*
X68228345Y-76156912D01*
X68507701Y-76003334D01*
X68765607Y-75815955D01*
X68997993Y-75597729D01*
X69201197Y-75352098D01*
X69372012Y-75082936D01*
X69507746Y-74794487D01*
X69606257Y-74491302D01*
X69665992Y-74178160D01*
X69665993Y-74178149D01*
X69686009Y-73860005D01*
X69686009Y-73859994D01*
X69665993Y-73541850D01*
X69665992Y-73541843D01*
X69665992Y-73541840D01*
X69606257Y-73228698D01*
X69507746Y-72925513D01*
X69505472Y-72920681D01*
X69414209Y-72726738D01*
X69372012Y-72637064D01*
X69329452Y-72570000D01*
X69201200Y-72367906D01*
X69138593Y-72292227D01*
X68997993Y-72122271D01*
X68765607Y-71904045D01*
X68765604Y-71904043D01*
X68765598Y-71904038D01*
X68507712Y-71716673D01*
X68507705Y-71716668D01*
X68507701Y-71716666D01*
X68228345Y-71563088D01*
X68228342Y-71563086D01*
X68228337Y-71563084D01*
X68228336Y-71563083D01*
X67931945Y-71445734D01*
X67931942Y-71445733D01*
X67623172Y-71366455D01*
X67623159Y-71366453D01*
X67306905Y-71326500D01*
X67306894Y-71326500D01*
X66988106Y-71326500D01*
X66988094Y-71326500D01*
X66671840Y-71366453D01*
X66671827Y-71366455D01*
X66363057Y-71445733D01*
X66363054Y-71445734D01*
X66066663Y-71563083D01*
X66066662Y-71563084D01*
X65787299Y-71716666D01*
X65787287Y-71716673D01*
X65529401Y-71904038D01*
X65529391Y-71904046D01*
X65297008Y-72122269D01*
X65093799Y-72367906D01*
X64922989Y-72637061D01*
X64922986Y-72637067D01*
X64787256Y-72925506D01*
X64787254Y-72925511D01*
X64688744Y-73228693D01*
X64629007Y-73541843D01*
X64629006Y-73541850D01*
X64608991Y-73859994D01*
X57935565Y-73859994D01*
X57915369Y-73680750D01*
X57915368Y-73680745D01*
X57883215Y-73588857D01*
X57855789Y-73510478D01*
X57759816Y-73357738D01*
X57632262Y-73230184D01*
X57597219Y-73208165D01*
X57479523Y-73134211D01*
X57309254Y-73074631D01*
X57309249Y-73074630D01*
X57130004Y-73054435D01*
X57129996Y-73054435D01*
X56950750Y-73074630D01*
X56950745Y-73074631D01*
X56780476Y-73134211D01*
X56627737Y-73230184D01*
X56500184Y-73357737D01*
X56404211Y-73510476D01*
X56344631Y-73680745D01*
X56344630Y-73680750D01*
X56324435Y-73859996D01*
X52650500Y-73859996D01*
X52650500Y-70799094D01*
X52670185Y-70732055D01*
X52722989Y-70686300D01*
X52792147Y-70676356D01*
X52840471Y-70694100D01*
X52878193Y-70717802D01*
X52970475Y-70775788D01*
X53140745Y-70835368D01*
X53140750Y-70835369D01*
X53319996Y-70855565D01*
X53320000Y-70855565D01*
X53320004Y-70855565D01*
X53499249Y-70835369D01*
X53499252Y-70835368D01*
X53499255Y-70835368D01*
X53669522Y-70775789D01*
X53822262Y-70679816D01*
X53949816Y-70552262D01*
X54045789Y-70399522D01*
X54105368Y-70229255D01*
X54105369Y-70229249D01*
X54125565Y-70050003D01*
X54125565Y-70049996D01*
X54105369Y-69870750D01*
X54105368Y-69870745D01*
X54045788Y-69700476D01*
X54005681Y-69636647D01*
X53949816Y-69547738D01*
X53822262Y-69420184D01*
X53669523Y-69324211D01*
X53499254Y-69264631D01*
X53499249Y-69264630D01*
X53320004Y-69244435D01*
X53319996Y-69244435D01*
X53140750Y-69264630D01*
X53140745Y-69264631D01*
X52970476Y-69324211D01*
X52840472Y-69405899D01*
X52773235Y-69424899D01*
X52706400Y-69404531D01*
X52661186Y-69351263D01*
X52650500Y-69300905D01*
X52650500Y-68092412D01*
X52670185Y-68025373D01*
X52677555Y-68015097D01*
X52679810Y-68012267D01*
X52679816Y-68012262D01*
X52775789Y-67859522D01*
X52835368Y-67689255D01*
X52855565Y-67510000D01*
X52855565Y-67509996D01*
X53784435Y-67509996D01*
X53784435Y-67510003D01*
X53804630Y-67689249D01*
X53804631Y-67689254D01*
X53864211Y-67859523D01*
X53936416Y-67974435D01*
X53960184Y-68012262D01*
X54087738Y-68139816D01*
X54104239Y-68150184D01*
X54236228Y-68233119D01*
X54240478Y-68235789D01*
X54388974Y-68287750D01*
X54410745Y-68295368D01*
X54410750Y-68295369D01*
X54589996Y-68315565D01*
X54590000Y-68315565D01*
X54590004Y-68315565D01*
X54769249Y-68295369D01*
X54769252Y-68295368D01*
X54769255Y-68295368D01*
X54939522Y-68235789D01*
X55092262Y-68139816D01*
X55219816Y-68012262D01*
X55315789Y-67859522D01*
X55375368Y-67689255D01*
X55395565Y-67510000D01*
X55395565Y-67509996D01*
X57594435Y-67509996D01*
X57594435Y-67510003D01*
X57614630Y-67689249D01*
X57614631Y-67689254D01*
X57674211Y-67859523D01*
X57746416Y-67974435D01*
X57770184Y-68012262D01*
X57897738Y-68139816D01*
X57914239Y-68150184D01*
X58046228Y-68233119D01*
X58050478Y-68235789D01*
X58198974Y-68287750D01*
X58220745Y-68295368D01*
X58220750Y-68295369D01*
X58399996Y-68315565D01*
X58400000Y-68315565D01*
X58400004Y-68315565D01*
X58579249Y-68295369D01*
X58579252Y-68295368D01*
X58579255Y-68295368D01*
X58749522Y-68235789D01*
X58902262Y-68139816D01*
X59029816Y-68012262D01*
X59125789Y-67859522D01*
X59185368Y-67689255D01*
X59205565Y-67510000D01*
X59186467Y-67340500D01*
X59185369Y-67330750D01*
X59185368Y-67330745D01*
X59154624Y-67242885D01*
X59125789Y-67160478D01*
X59115502Y-67144107D01*
X59029815Y-67007737D01*
X58902262Y-66880184D01*
X58749523Y-66784211D01*
X58579254Y-66724631D01*
X58579249Y-66724630D01*
X58400004Y-66704435D01*
X58399996Y-66704435D01*
X58220750Y-66724630D01*
X58220745Y-66724631D01*
X58050476Y-66784211D01*
X57897737Y-66880184D01*
X57770184Y-67007737D01*
X57674211Y-67160476D01*
X57614631Y-67330745D01*
X57614630Y-67330750D01*
X57594435Y-67509996D01*
X55395565Y-67509996D01*
X55376467Y-67340500D01*
X55375369Y-67330750D01*
X55375368Y-67330745D01*
X55344624Y-67242885D01*
X55315789Y-67160478D01*
X55305502Y-67144107D01*
X55219815Y-67007737D01*
X55092262Y-66880184D01*
X54939523Y-66784211D01*
X54769254Y-66724631D01*
X54769249Y-66724630D01*
X54590004Y-66704435D01*
X54589996Y-66704435D01*
X54410750Y-66724630D01*
X54410745Y-66724631D01*
X54240476Y-66784211D01*
X54087737Y-66880184D01*
X53960184Y-67007737D01*
X53864211Y-67160476D01*
X53804631Y-67330745D01*
X53804630Y-67330750D01*
X53784435Y-67509996D01*
X52855565Y-67509996D01*
X52836467Y-67340500D01*
X52835369Y-67330750D01*
X52835368Y-67330745D01*
X52804624Y-67242885D01*
X52775789Y-67160478D01*
X52765502Y-67144107D01*
X52679815Y-67007737D01*
X52552262Y-66880184D01*
X52399523Y-66784211D01*
X52229254Y-66724631D01*
X52229249Y-66724630D01*
X52050004Y-66704435D01*
X52049996Y-66704435D01*
X51870750Y-66724630D01*
X51870745Y-66724631D01*
X51700476Y-66784211D01*
X51547737Y-66880184D01*
X51420184Y-67007737D01*
X51324211Y-67160476D01*
X51264631Y-67330745D01*
X51264630Y-67330750D01*
X51244435Y-67509996D01*
X51244435Y-67510003D01*
X51264630Y-67689249D01*
X51264631Y-67689254D01*
X51324211Y-67859523D01*
X51384515Y-67955496D01*
X51409106Y-67994632D01*
X51420185Y-68012263D01*
X51422445Y-68015097D01*
X51423334Y-68017275D01*
X51423889Y-68018158D01*
X51423734Y-68018255D01*
X51448855Y-68079783D01*
X51449500Y-68092412D01*
X51449500Y-79909902D01*
X51429815Y-79976941D01*
X51413181Y-79997583D01*
X49092908Y-82317855D01*
X49031585Y-82351340D01*
X48961893Y-82346356D01*
X48905960Y-82304484D01*
X48900234Y-82296147D01*
X48869817Y-82247739D01*
X48742262Y-82120184D01*
X48589523Y-82024211D01*
X48419254Y-81964631D01*
X48419249Y-81964630D01*
X48240004Y-81944435D01*
X48239996Y-81944435D01*
X48060750Y-81964630D01*
X48060745Y-81964631D01*
X47890476Y-82024211D01*
X47737737Y-82120184D01*
X47610184Y-82247737D01*
X47514211Y-82400476D01*
X47454631Y-82570745D01*
X47454630Y-82570750D01*
X47434435Y-82749996D01*
X47434435Y-82750003D01*
X47454630Y-82929249D01*
X47454631Y-82929254D01*
X47514211Y-83099523D01*
X47610184Y-83252262D01*
X47737739Y-83379817D01*
X47786147Y-83410234D01*
X47832437Y-83462569D01*
X47843085Y-83531622D01*
X47814710Y-83595470D01*
X47807855Y-83602908D01*
X43141465Y-88269298D01*
X43080142Y-88302783D01*
X43067668Y-88304837D01*
X42980750Y-88314630D01*
X42810477Y-88374210D01*
X42746647Y-88414318D01*
X42679410Y-88433318D01*
X42612575Y-88412950D01*
X42567361Y-88359682D01*
X42558124Y-88290426D01*
X42575681Y-88243353D01*
X42602875Y-88200074D01*
X42615788Y-88179524D01*
X42615789Y-88179522D01*
X42675368Y-88009255D01*
X42680421Y-87964408D01*
X42695565Y-87830003D01*
X42695565Y-87829996D01*
X42675369Y-87650750D01*
X42675368Y-87650745D01*
X42674379Y-87647920D01*
X42615789Y-87480478D01*
X42612160Y-87474703D01*
X42530935Y-87345434D01*
X42519816Y-87327738D01*
X42392262Y-87200184D01*
X42239523Y-87104211D01*
X42069254Y-87044631D01*
X42069249Y-87044630D01*
X41890004Y-87024435D01*
X41889996Y-87024435D01*
X41710750Y-87044630D01*
X41710745Y-87044631D01*
X41540476Y-87104211D01*
X41387737Y-87200184D01*
X41260184Y-87327737D01*
X41164211Y-87480476D01*
X41104631Y-87650745D01*
X41104630Y-87650750D01*
X41084435Y-87829996D01*
X33885243Y-87829996D01*
X33855596Y-87800349D01*
X33855592Y-87800345D01*
X33671688Y-87671573D01*
X33628064Y-87616998D01*
X33620872Y-87547499D01*
X33652394Y-87485145D01*
X33671685Y-87468427D01*
X33855592Y-87339655D01*
X34019655Y-87175592D01*
X34152736Y-86985533D01*
X34250792Y-86775251D01*
X34310843Y-86551137D01*
X34331065Y-86320000D01*
X34310843Y-86088863D01*
X34250792Y-85864749D01*
X34152736Y-85654468D01*
X34152734Y-85654465D01*
X34152733Y-85654463D01*
X34019654Y-85464406D01*
X33855596Y-85300349D01*
X33855592Y-85300345D01*
X33840812Y-85289996D01*
X42354435Y-85289996D01*
X42354435Y-85290003D01*
X42374630Y-85469249D01*
X42374631Y-85469254D01*
X42434211Y-85639523D01*
X42506416Y-85754435D01*
X42530184Y-85792262D01*
X42657738Y-85919816D01*
X42810478Y-86015789D01*
X42980745Y-86075368D01*
X42980750Y-86075369D01*
X43159996Y-86095565D01*
X43160000Y-86095565D01*
X43160004Y-86095565D01*
X43339249Y-86075369D01*
X43339252Y-86075368D01*
X43339255Y-86075368D01*
X43509522Y-86015789D01*
X43662262Y-85919816D01*
X43789816Y-85792262D01*
X43885789Y-85639522D01*
X43945368Y-85469255D01*
X43945914Y-85464408D01*
X43965565Y-85290003D01*
X43965565Y-85289996D01*
X43945369Y-85110750D01*
X43945368Y-85110745D01*
X43903223Y-84990302D01*
X43885789Y-84940478D01*
X43789816Y-84787738D01*
X43662262Y-84660184D01*
X43654090Y-84655049D01*
X43509523Y-84564211D01*
X43339254Y-84504631D01*
X43339249Y-84504630D01*
X43160004Y-84484435D01*
X43159996Y-84484435D01*
X42980750Y-84504630D01*
X42980745Y-84504631D01*
X42810476Y-84564211D01*
X42657737Y-84660184D01*
X42530184Y-84787737D01*
X42434211Y-84940476D01*
X42374631Y-85110745D01*
X42374630Y-85110750D01*
X42354435Y-85289996D01*
X33840812Y-85289996D01*
X33671688Y-85171573D01*
X33628064Y-85116998D01*
X33620872Y-85047499D01*
X33652394Y-84985145D01*
X33671685Y-84968427D01*
X33855592Y-84839655D01*
X34019655Y-84675592D01*
X34152736Y-84485533D01*
X34250792Y-84275251D01*
X34310843Y-84051137D01*
X34331065Y-83820000D01*
X34330139Y-83809421D01*
X34320984Y-83704775D01*
X34310843Y-83588863D01*
X34255510Y-83382358D01*
X34250794Y-83364756D01*
X34250793Y-83364755D01*
X34250792Y-83364749D01*
X34152736Y-83154468D01*
X34152734Y-83154465D01*
X34152733Y-83154463D01*
X34019654Y-82964406D01*
X33855596Y-82800349D01*
X33855592Y-82800345D01*
X33783687Y-82749996D01*
X38544435Y-82749996D01*
X38544435Y-82750003D01*
X38564630Y-82929249D01*
X38564631Y-82929254D01*
X38624211Y-83099523D01*
X38665288Y-83164896D01*
X38720184Y-83252262D01*
X38847738Y-83379816D01*
X38847740Y-83379817D01*
X38996481Y-83473278D01*
X39000478Y-83475789D01*
X39115057Y-83515882D01*
X39170745Y-83535368D01*
X39170750Y-83535369D01*
X39349996Y-83555565D01*
X39350000Y-83555565D01*
X39350004Y-83555565D01*
X39529249Y-83535369D01*
X39529252Y-83535368D01*
X39529255Y-83535368D01*
X39699522Y-83475789D01*
X39852262Y-83379816D01*
X39979816Y-83252262D01*
X40075789Y-83099522D01*
X40135368Y-82929255D01*
X40142213Y-82868502D01*
X40155565Y-82750003D01*
X40155565Y-82749996D01*
X40135369Y-82570750D01*
X40135368Y-82570745D01*
X40087323Y-82433441D01*
X40075789Y-82400478D01*
X40056966Y-82370522D01*
X40010233Y-82296147D01*
X39979816Y-82247738D01*
X39852262Y-82120184D01*
X39734672Y-82046297D01*
X39699523Y-82024211D01*
X39529254Y-81964631D01*
X39529249Y-81964630D01*
X39350004Y-81944435D01*
X39349996Y-81944435D01*
X39170750Y-81964630D01*
X39170745Y-81964631D01*
X39000476Y-82024211D01*
X38847737Y-82120184D01*
X38720184Y-82247737D01*
X38624211Y-82400476D01*
X38564631Y-82570745D01*
X38564630Y-82570750D01*
X38544435Y-82749996D01*
X33783687Y-82749996D01*
X33671688Y-82671573D01*
X33628064Y-82616998D01*
X33620872Y-82547499D01*
X33652394Y-82485145D01*
X33671685Y-82468427D01*
X33855592Y-82339655D01*
X34019655Y-82175592D01*
X34152736Y-81985533D01*
X34250792Y-81775251D01*
X34310843Y-81551137D01*
X34331065Y-81320000D01*
X34310843Y-81088863D01*
X34250792Y-80864749D01*
X34152736Y-80654468D01*
X34152734Y-80654465D01*
X34152733Y-80654463D01*
X34019654Y-80464406D01*
X33855596Y-80300349D01*
X33855592Y-80300345D01*
X33726561Y-80209996D01*
X38544435Y-80209996D01*
X38544435Y-80210003D01*
X38564630Y-80389249D01*
X38564631Y-80389254D01*
X38624211Y-80559523D01*
X38720184Y-80712262D01*
X38847738Y-80839816D01*
X39000478Y-80935789D01*
X39141272Y-80985055D01*
X39170745Y-80995368D01*
X39170750Y-80995369D01*
X39349996Y-81015565D01*
X39350000Y-81015565D01*
X39350004Y-81015565D01*
X39529249Y-80995369D01*
X39529252Y-80995368D01*
X39529255Y-80995368D01*
X39699522Y-80935789D01*
X39852262Y-80839816D01*
X39979816Y-80712262D01*
X40075789Y-80559522D01*
X40135368Y-80389255D01*
X40135369Y-80389249D01*
X40155565Y-80210003D01*
X40155565Y-80209996D01*
X43624435Y-80209996D01*
X43624435Y-80210003D01*
X43644630Y-80389249D01*
X43644631Y-80389254D01*
X43704211Y-80559523D01*
X43800184Y-80712262D01*
X43927738Y-80839816D01*
X44080478Y-80935789D01*
X44221272Y-80985055D01*
X44250745Y-80995368D01*
X44250750Y-80995369D01*
X44429996Y-81015565D01*
X44430000Y-81015565D01*
X44430004Y-81015565D01*
X44609249Y-80995369D01*
X44609252Y-80995368D01*
X44609255Y-80995368D01*
X44779522Y-80935789D01*
X44932262Y-80839816D01*
X45059816Y-80712262D01*
X45155789Y-80559522D01*
X45215368Y-80389255D01*
X45215369Y-80389249D01*
X45235565Y-80210003D01*
X45235565Y-80209996D01*
X45215369Y-80030750D01*
X45215368Y-80030745D01*
X45193561Y-79968425D01*
X45155789Y-79860478D01*
X45059816Y-79707738D01*
X44932262Y-79580184D01*
X44779523Y-79484211D01*
X44609254Y-79424631D01*
X44609249Y-79424630D01*
X44430004Y-79404435D01*
X44429996Y-79404435D01*
X44250750Y-79424630D01*
X44250745Y-79424631D01*
X44080476Y-79484211D01*
X43927737Y-79580184D01*
X43800184Y-79707737D01*
X43704211Y-79860476D01*
X43644631Y-80030745D01*
X43644630Y-80030750D01*
X43624435Y-80209996D01*
X40155565Y-80209996D01*
X40135369Y-80030750D01*
X40135368Y-80030745D01*
X40113561Y-79968425D01*
X40075789Y-79860478D01*
X39979816Y-79707738D01*
X39852262Y-79580184D01*
X39699523Y-79484211D01*
X39529254Y-79424631D01*
X39529249Y-79424630D01*
X39350004Y-79404435D01*
X39349996Y-79404435D01*
X39170750Y-79424630D01*
X39170745Y-79424631D01*
X39000476Y-79484211D01*
X38847737Y-79580184D01*
X38720184Y-79707737D01*
X38624211Y-79860476D01*
X38564631Y-80030745D01*
X38564630Y-80030750D01*
X38544435Y-80209996D01*
X33726561Y-80209996D01*
X33671688Y-80171573D01*
X33628064Y-80116998D01*
X33620872Y-80047499D01*
X33652394Y-79985145D01*
X33671685Y-79968427D01*
X33855592Y-79839655D01*
X34019655Y-79675592D01*
X34152736Y-79485533D01*
X34250792Y-79275251D01*
X34310843Y-79051137D01*
X34331065Y-78820000D01*
X34310843Y-78588863D01*
X34250792Y-78364749D01*
X34152736Y-78154468D01*
X34152734Y-78154465D01*
X34152733Y-78154463D01*
X34019654Y-77964406D01*
X33855596Y-77800349D01*
X33855592Y-77800345D01*
X33671688Y-77671573D01*
X33670427Y-77669996D01*
X38544435Y-77669996D01*
X38544435Y-77670003D01*
X38564630Y-77849249D01*
X38564631Y-77849254D01*
X38624211Y-78019523D01*
X38709000Y-78154463D01*
X38720184Y-78172262D01*
X38847738Y-78299816D01*
X39000478Y-78395789D01*
X39170745Y-78455368D01*
X39170750Y-78455369D01*
X39349996Y-78475565D01*
X39350000Y-78475565D01*
X39350004Y-78475565D01*
X39529249Y-78455369D01*
X39529252Y-78455368D01*
X39529255Y-78455368D01*
X39699522Y-78395789D01*
X39852262Y-78299816D01*
X39979816Y-78172262D01*
X40075789Y-78019522D01*
X40135368Y-77849255D01*
X40135369Y-77849249D01*
X40155565Y-77670003D01*
X40155565Y-77669996D01*
X44894435Y-77669996D01*
X44894435Y-77670003D01*
X44914630Y-77849249D01*
X44914631Y-77849254D01*
X44974211Y-78019523D01*
X45059000Y-78154463D01*
X45070184Y-78172262D01*
X45197738Y-78299816D01*
X45350478Y-78395789D01*
X45520745Y-78455368D01*
X45520750Y-78455369D01*
X45699996Y-78475565D01*
X45700000Y-78475565D01*
X45700004Y-78475565D01*
X45879249Y-78455369D01*
X45879252Y-78455368D01*
X45879255Y-78455368D01*
X46049522Y-78395789D01*
X46202262Y-78299816D01*
X46329816Y-78172262D01*
X46425789Y-78019522D01*
X46485368Y-77849255D01*
X46485369Y-77849249D01*
X46505565Y-77670003D01*
X46505565Y-77669996D01*
X46485369Y-77490750D01*
X46485368Y-77490745D01*
X46432499Y-77339655D01*
X46425789Y-77320478D01*
X46329816Y-77167738D01*
X46202262Y-77040184D01*
X46049523Y-76944211D01*
X45879254Y-76884631D01*
X45879249Y-76884630D01*
X45700004Y-76864435D01*
X45699996Y-76864435D01*
X45520750Y-76884630D01*
X45520745Y-76884631D01*
X45350476Y-76944211D01*
X45197737Y-77040184D01*
X45070184Y-77167737D01*
X44974211Y-77320476D01*
X44914631Y-77490745D01*
X44914630Y-77490750D01*
X44894435Y-77669996D01*
X40155565Y-77669996D01*
X40135369Y-77490750D01*
X40135368Y-77490745D01*
X40082499Y-77339655D01*
X40075789Y-77320478D01*
X39979816Y-77167738D01*
X39852262Y-77040184D01*
X39699523Y-76944211D01*
X39529254Y-76884631D01*
X39529249Y-76884630D01*
X39350004Y-76864435D01*
X39349996Y-76864435D01*
X39170750Y-76884630D01*
X39170745Y-76884631D01*
X39000476Y-76944211D01*
X38847737Y-77040184D01*
X38720184Y-77167737D01*
X38624211Y-77320476D01*
X38564631Y-77490745D01*
X38564630Y-77490750D01*
X38544435Y-77669996D01*
X33670427Y-77669996D01*
X33628064Y-77616998D01*
X33620872Y-77547499D01*
X33652394Y-77485145D01*
X33671685Y-77468427D01*
X33855592Y-77339655D01*
X34019655Y-77175592D01*
X34152736Y-76985533D01*
X34250792Y-76775251D01*
X34310843Y-76551137D01*
X34324066Y-76399996D01*
X47434435Y-76399996D01*
X47434435Y-76400003D01*
X47454630Y-76579249D01*
X47454631Y-76579254D01*
X47514211Y-76749523D01*
X47530378Y-76775252D01*
X47610184Y-76902262D01*
X47737738Y-77029816D01*
X47890478Y-77125789D01*
X48032807Y-77175592D01*
X48060745Y-77185368D01*
X48060750Y-77185369D01*
X48239996Y-77205565D01*
X48240000Y-77205565D01*
X48240004Y-77205565D01*
X48419249Y-77185369D01*
X48419252Y-77185368D01*
X48419255Y-77185368D01*
X48589522Y-77125789D01*
X48742262Y-77029816D01*
X48869816Y-76902262D01*
X48965789Y-76749522D01*
X49025368Y-76579255D01*
X49045565Y-76400000D01*
X49036551Y-76320000D01*
X49025369Y-76220750D01*
X49025368Y-76220745D01*
X48965788Y-76050476D01*
X48880894Y-75915369D01*
X48869816Y-75897738D01*
X48742262Y-75770184D01*
X48734012Y-75765000D01*
X48589523Y-75674211D01*
X48419254Y-75614631D01*
X48419249Y-75614630D01*
X48240004Y-75594435D01*
X48239996Y-75594435D01*
X48060750Y-75614630D01*
X48060745Y-75614631D01*
X47890476Y-75674211D01*
X47737737Y-75770184D01*
X47610184Y-75897737D01*
X47514211Y-76050476D01*
X47454631Y-76220745D01*
X47454630Y-76220750D01*
X47434435Y-76399996D01*
X34324066Y-76399996D01*
X34331065Y-76320000D01*
X34310843Y-76088863D01*
X34250792Y-75864749D01*
X34152736Y-75654468D01*
X34152734Y-75654465D01*
X34152733Y-75654463D01*
X34019654Y-75464406D01*
X33855596Y-75300349D01*
X33855592Y-75300345D01*
X33671688Y-75171573D01*
X33638454Y-75129996D01*
X38544435Y-75129996D01*
X38544435Y-75130003D01*
X38564630Y-75309249D01*
X38564631Y-75309254D01*
X38624211Y-75479523D01*
X38628685Y-75486643D01*
X38720184Y-75632262D01*
X38847738Y-75759816D01*
X38930876Y-75812055D01*
X38995364Y-75852576D01*
X39000478Y-75855789D01*
X39170745Y-75915368D01*
X39170750Y-75915369D01*
X39349996Y-75935565D01*
X39350000Y-75935565D01*
X39350004Y-75935565D01*
X39529249Y-75915369D01*
X39529252Y-75915368D01*
X39529255Y-75915368D01*
X39699522Y-75855789D01*
X39852262Y-75759816D01*
X39979816Y-75632262D01*
X40075789Y-75479522D01*
X40135368Y-75309255D01*
X40135369Y-75309249D01*
X40155565Y-75130003D01*
X40155565Y-75129996D01*
X40135369Y-74950750D01*
X40135368Y-74950745D01*
X40075788Y-74780476D01*
X40063456Y-74760850D01*
X40605051Y-74760850D01*
X40605051Y-74760857D01*
X40625246Y-74940103D01*
X40625247Y-74940108D01*
X40684827Y-75110377D01*
X40697159Y-75130003D01*
X40780800Y-75263116D01*
X40908354Y-75390670D01*
X40998696Y-75447436D01*
X41049762Y-75479523D01*
X41061094Y-75486643D01*
X41231361Y-75546222D01*
X41231366Y-75546223D01*
X41410612Y-75566419D01*
X41410616Y-75566419D01*
X41410620Y-75566419D01*
X41589865Y-75546223D01*
X41589868Y-75546222D01*
X41589871Y-75546222D01*
X41760138Y-75486643D01*
X41912878Y-75390670D01*
X42040432Y-75263116D01*
X42136405Y-75110376D01*
X42195984Y-74940109D01*
X42195985Y-74940103D01*
X42216181Y-74760857D01*
X42216181Y-74760850D01*
X42195985Y-74581604D01*
X42195984Y-74581599D01*
X42180845Y-74538335D01*
X42136405Y-74411332D01*
X42122801Y-74389682D01*
X42079285Y-74320426D01*
X42040432Y-74258592D01*
X41912878Y-74131038D01*
X41760139Y-74035065D01*
X41589870Y-73975485D01*
X41589865Y-73975484D01*
X41410620Y-73955289D01*
X41410612Y-73955289D01*
X41231366Y-73975484D01*
X41231361Y-73975485D01*
X41061092Y-74035065D01*
X40908353Y-74131038D01*
X40780800Y-74258591D01*
X40684827Y-74411330D01*
X40625247Y-74581599D01*
X40625246Y-74581604D01*
X40605051Y-74760850D01*
X40063456Y-74760850D01*
X40036582Y-74718080D01*
X39979816Y-74627738D01*
X39852262Y-74500184D01*
X39838126Y-74491302D01*
X39699523Y-74404211D01*
X39529254Y-74344631D01*
X39529249Y-74344630D01*
X39350004Y-74324435D01*
X39349996Y-74324435D01*
X39170750Y-74344630D01*
X39170745Y-74344631D01*
X39000476Y-74404211D01*
X38847737Y-74500184D01*
X38720184Y-74627737D01*
X38624211Y-74780476D01*
X38564631Y-74950745D01*
X38564630Y-74950750D01*
X38544435Y-75129996D01*
X33638454Y-75129996D01*
X33628064Y-75116998D01*
X33620872Y-75047499D01*
X33652394Y-74985145D01*
X33671685Y-74968427D01*
X33855592Y-74839655D01*
X34019655Y-74675592D01*
X34152736Y-74485533D01*
X34250792Y-74275251D01*
X34310843Y-74051137D01*
X34331065Y-73820000D01*
X34310843Y-73588863D01*
X34250792Y-73364749D01*
X34152736Y-73154468D01*
X34152734Y-73154465D01*
X34152733Y-73154463D01*
X34019654Y-72964406D01*
X33855596Y-72800349D01*
X33855592Y-72800345D01*
X33671688Y-72671573D01*
X33628064Y-72616998D01*
X33620872Y-72547499D01*
X33652394Y-72485145D01*
X33671685Y-72468427D01*
X33855592Y-72339655D01*
X34019655Y-72175592D01*
X34152736Y-71985533D01*
X34250792Y-71775251D01*
X34310843Y-71551137D01*
X34331065Y-71320000D01*
X34331065Y-71319996D01*
X41084435Y-71319996D01*
X41084435Y-71320003D01*
X41104630Y-71499249D01*
X41104631Y-71499254D01*
X41164211Y-71669523D01*
X41260184Y-71822262D01*
X41387738Y-71949816D01*
X41444580Y-71985532D01*
X41538052Y-72044265D01*
X41540478Y-72045789D01*
X41633149Y-72078216D01*
X41710745Y-72105368D01*
X41710750Y-72105369D01*
X41889996Y-72125565D01*
X41890000Y-72125565D01*
X41890004Y-72125565D01*
X42069249Y-72105369D01*
X42069252Y-72105368D01*
X42069255Y-72105368D01*
X42239522Y-72045789D01*
X42392262Y-71949816D01*
X42443121Y-71898957D01*
X43466945Y-71898957D01*
X43466945Y-71898964D01*
X43487140Y-72078210D01*
X43487141Y-72078215D01*
X43546721Y-72248484D01*
X43634511Y-72388200D01*
X43642694Y-72401223D01*
X43770248Y-72528777D01*
X43798497Y-72546527D01*
X43913475Y-72618773D01*
X43922988Y-72624750D01*
X44037742Y-72664904D01*
X44093255Y-72684329D01*
X44093260Y-72684330D01*
X44229427Y-72699672D01*
X44293841Y-72726738D01*
X44333396Y-72784333D01*
X44338764Y-72836775D01*
X44318344Y-73018012D01*
X44318344Y-73018019D01*
X44338539Y-73197265D01*
X44338540Y-73197270D01*
X44398120Y-73367539D01*
X44451559Y-73452586D01*
X44494093Y-73520278D01*
X44621647Y-73647832D01*
X44774387Y-73743805D01*
X44944654Y-73803384D01*
X44944659Y-73803385D01*
X45123905Y-73823581D01*
X45123909Y-73823581D01*
X45123913Y-73823581D01*
X45303158Y-73803385D01*
X45303161Y-73803384D01*
X45303164Y-73803384D01*
X45473431Y-73743805D01*
X45626171Y-73647832D01*
X45753725Y-73520278D01*
X45849698Y-73367538D01*
X45850672Y-73364756D01*
X45876588Y-73290690D01*
X45917309Y-73233913D01*
X45982262Y-73208165D01*
X46050823Y-73221621D01*
X46101017Y-73269644D01*
X46138005Y-73333710D01*
X46138011Y-73333718D01*
X46256879Y-73452586D01*
X46256885Y-73452591D01*
X46469298Y-73665004D01*
X46502783Y-73726327D01*
X46504837Y-73738801D01*
X46514630Y-73825720D01*
X46574210Y-73995992D01*
X46601394Y-74039255D01*
X46670184Y-74148733D01*
X46797738Y-74276287D01*
X46950478Y-74372260D01*
X47119099Y-74431263D01*
X47120745Y-74431839D01*
X47120750Y-74431840D01*
X47299996Y-74452036D01*
X47300000Y-74452036D01*
X47300004Y-74452036D01*
X47479249Y-74431840D01*
X47479252Y-74431839D01*
X47479255Y-74431839D01*
X47649522Y-74372260D01*
X47802262Y-74276287D01*
X47929816Y-74148733D01*
X48025789Y-73995993D01*
X48085368Y-73825726D01*
X48086013Y-73820000D01*
X48105565Y-73646474D01*
X48105565Y-73646467D01*
X48085369Y-73467221D01*
X48085368Y-73467216D01*
X48077777Y-73445521D01*
X48025789Y-73296949D01*
X47929816Y-73144209D01*
X47802262Y-73016655D01*
X47649521Y-72920681D01*
X47479249Y-72861101D01*
X47392330Y-72851308D01*
X47327916Y-72824241D01*
X47318533Y-72815769D01*
X47255349Y-72752585D01*
X47221864Y-72691262D01*
X47219030Y-72664904D01*
X47219030Y-72044261D01*
X47558700Y-72044261D01*
X47558700Y-72044268D01*
X47578895Y-72223514D01*
X47578896Y-72223519D01*
X47638476Y-72393788D01*
X47643148Y-72401223D01*
X47734449Y-72546527D01*
X47862003Y-72674081D01*
X48014743Y-72770054D01*
X48145389Y-72815769D01*
X48185010Y-72829633D01*
X48185015Y-72829634D01*
X48364261Y-72849830D01*
X48364265Y-72849830D01*
X48364269Y-72849830D01*
X48543514Y-72829634D01*
X48543517Y-72829633D01*
X48543520Y-72829633D01*
X48713787Y-72770054D01*
X48866527Y-72674081D01*
X48994081Y-72546527D01*
X49090054Y-72393787D01*
X49149633Y-72223520D01*
X49149634Y-72223514D01*
X49169830Y-72044268D01*
X49169830Y-72044261D01*
X49149634Y-71865015D01*
X49149633Y-71865010D01*
X49118222Y-71775243D01*
X49090054Y-71694743D01*
X48994081Y-71542003D01*
X48866527Y-71414449D01*
X48838278Y-71396699D01*
X48713788Y-71318476D01*
X48543519Y-71258896D01*
X48543514Y-71258895D01*
X48364269Y-71238700D01*
X48364261Y-71238700D01*
X48185015Y-71258895D01*
X48185007Y-71258897D01*
X48013926Y-71318761D01*
X47944147Y-71322322D01*
X47906514Y-71300764D01*
X47900831Y-71362504D01*
X47866399Y-71408997D01*
X47866927Y-71409525D01*
X47863385Y-71413066D01*
X47862880Y-71413749D01*
X47862005Y-71414446D01*
X47734449Y-71542002D01*
X47638476Y-71694741D01*
X47578896Y-71865010D01*
X47578895Y-71865015D01*
X47558700Y-72044261D01*
X47219030Y-72044261D01*
X47219030Y-71398841D01*
X47238715Y-71331802D01*
X47291519Y-71286047D01*
X47356913Y-71275621D01*
X47394265Y-71279830D01*
X47394268Y-71279830D01*
X47573514Y-71259634D01*
X47573516Y-71259633D01*
X47573520Y-71259633D01*
X47573523Y-71259631D01*
X47573527Y-71259631D01*
X47744602Y-71199769D01*
X47814381Y-71196207D01*
X47852014Y-71217763D01*
X47857698Y-71156024D01*
X47892133Y-71109535D01*
X47891603Y-71109005D01*
X47895162Y-71105445D01*
X47895665Y-71104767D01*
X47896514Y-71104089D01*
X47896527Y-71104081D01*
X48024081Y-70976527D01*
X48120054Y-70823787D01*
X48179633Y-70653520D01*
X48179634Y-70653514D01*
X48199830Y-70474268D01*
X48199830Y-70474261D01*
X48179634Y-70295015D01*
X48179633Y-70295010D01*
X48120053Y-70124741D01*
X48024080Y-69972002D01*
X47896527Y-69844449D01*
X47743788Y-69748476D01*
X47573519Y-69688896D01*
X47573514Y-69688895D01*
X47394269Y-69668700D01*
X47394261Y-69668700D01*
X47356913Y-69672908D01*
X47288091Y-69660853D01*
X47236712Y-69613504D01*
X47219030Y-69549688D01*
X47219030Y-69015756D01*
X47238715Y-68948717D01*
X47291519Y-68902962D01*
X47360677Y-68893018D01*
X47424233Y-68922043D01*
X47460072Y-68974802D01*
X47514210Y-69129521D01*
X47514211Y-69129522D01*
X47610184Y-69282262D01*
X47737738Y-69409816D01*
X47890478Y-69505789D01*
X48015934Y-69549688D01*
X48060745Y-69565368D01*
X48060750Y-69565369D01*
X48239996Y-69585565D01*
X48240000Y-69585565D01*
X48240004Y-69585565D01*
X48419249Y-69565369D01*
X48419252Y-69565368D01*
X48419255Y-69565368D01*
X48589522Y-69505789D01*
X48653352Y-69465681D01*
X48720587Y-69446681D01*
X48787423Y-69467048D01*
X48832637Y-69520315D01*
X48841876Y-69589571D01*
X48824318Y-69636647D01*
X48784211Y-69700476D01*
X48724631Y-69870745D01*
X48724630Y-69870750D01*
X48704435Y-70049996D01*
X48704435Y-70050003D01*
X48724630Y-70229249D01*
X48724631Y-70229254D01*
X48784211Y-70399523D01*
X48831175Y-70474265D01*
X48880184Y-70552262D01*
X49007738Y-70679816D01*
X49160478Y-70775789D01*
X49297651Y-70823788D01*
X49330745Y-70835368D01*
X49330750Y-70835369D01*
X49509996Y-70855565D01*
X49510000Y-70855565D01*
X49510004Y-70855565D01*
X49689249Y-70835369D01*
X49689252Y-70835368D01*
X49689255Y-70835368D01*
X49859522Y-70775789D01*
X50012262Y-70679816D01*
X50139816Y-70552262D01*
X50235789Y-70399522D01*
X50295368Y-70229255D01*
X50295369Y-70229249D01*
X50315565Y-70050003D01*
X50315565Y-70049996D01*
X50295369Y-69870750D01*
X50295368Y-69870745D01*
X50235788Y-69700476D01*
X50195681Y-69636647D01*
X50139816Y-69547738D01*
X50012262Y-69420184D01*
X49859523Y-69324211D01*
X49689254Y-69264631D01*
X49689249Y-69264630D01*
X49510004Y-69244435D01*
X49509996Y-69244435D01*
X49330750Y-69264630D01*
X49330745Y-69264631D01*
X49160476Y-69324211D01*
X49096647Y-69364318D01*
X49029410Y-69383318D01*
X48962575Y-69362950D01*
X48917361Y-69309682D01*
X48908124Y-69240426D01*
X48925681Y-69193353D01*
X48965789Y-69129522D01*
X49025368Y-68959255D01*
X49025369Y-68959249D01*
X49045565Y-68780003D01*
X49045565Y-68779996D01*
X49025369Y-68600750D01*
X49025368Y-68600745D01*
X48965788Y-68430476D01*
X48880894Y-68295369D01*
X48869816Y-68277738D01*
X48742262Y-68150184D01*
X48589523Y-68054211D01*
X48419254Y-67994631D01*
X48419249Y-67994630D01*
X48240004Y-67974435D01*
X48239996Y-67974435D01*
X48060750Y-67994630D01*
X48060745Y-67994631D01*
X47890476Y-68054211D01*
X47737737Y-68150184D01*
X47610184Y-68277737D01*
X47514211Y-68430477D01*
X47460072Y-68585198D01*
X47419350Y-68641974D01*
X47354397Y-68667721D01*
X47285835Y-68654265D01*
X47235433Y-68605877D01*
X47219030Y-68544243D01*
X47219030Y-64530095D01*
X47238715Y-64463056D01*
X47255344Y-64442419D01*
X47521349Y-64176414D01*
X50428055Y-64176414D01*
X50428055Y-64176421D01*
X50448250Y-64355667D01*
X50448251Y-64355672D01*
X50507831Y-64525941D01*
X50593086Y-64661622D01*
X50603804Y-64678680D01*
X50731358Y-64806234D01*
X50884098Y-64902207D01*
X51054365Y-64961786D01*
X51054370Y-64961787D01*
X51233617Y-64981983D01*
X51233620Y-64981983D01*
X51323729Y-64971829D01*
X51392547Y-64983882D01*
X51425292Y-65007368D01*
X51547738Y-65129814D01*
X51570527Y-65144133D01*
X51670177Y-65206748D01*
X51700478Y-65225787D01*
X51841544Y-65275148D01*
X51870745Y-65285366D01*
X51870750Y-65285367D01*
X52049996Y-65305563D01*
X52050000Y-65305563D01*
X52050004Y-65305563D01*
X52229249Y-65285367D01*
X52229252Y-65285366D01*
X52229255Y-65285366D01*
X52399522Y-65225787D01*
X52552262Y-65129814D01*
X52679816Y-65002260D01*
X52775789Y-64849520D01*
X52835368Y-64679253D01*
X52836404Y-64670060D01*
X52855565Y-64500001D01*
X52855565Y-64499995D01*
X52850229Y-64452637D01*
X52862283Y-64383815D01*
X52909632Y-64332435D01*
X52977243Y-64314811D01*
X53014404Y-64321712D01*
X53128922Y-64361784D01*
X53128928Y-64361785D01*
X53128930Y-64361786D01*
X53128931Y-64361786D01*
X53128935Y-64361787D01*
X53308181Y-64381983D01*
X53308185Y-64381983D01*
X53308189Y-64381983D01*
X53487434Y-64361787D01*
X53487437Y-64361786D01*
X53487440Y-64361786D01*
X53657707Y-64302207D01*
X53810447Y-64206234D01*
X53938001Y-64078680D01*
X54033974Y-63925940D01*
X54093553Y-63755673D01*
X54093554Y-63755667D01*
X54113750Y-63576421D01*
X54113750Y-63576414D01*
X54093554Y-63397168D01*
X54093553Y-63397163D01*
X54051216Y-63276170D01*
X54033974Y-63226896D01*
X54026730Y-63215368D01*
X53985949Y-63150465D01*
X53938001Y-63074156D01*
X53810447Y-62946602D01*
X53787625Y-62932262D01*
X53657708Y-62850629D01*
X53487439Y-62791049D01*
X53487434Y-62791048D01*
X53308189Y-62770853D01*
X53308181Y-62770853D01*
X53128935Y-62791048D01*
X53128930Y-62791049D01*
X52958661Y-62850629D01*
X52805922Y-62946602D01*
X52678369Y-63074155D01*
X52582396Y-63226894D01*
X52522816Y-63397163D01*
X52522815Y-63397168D01*
X52505979Y-63546602D01*
X52502620Y-63576418D01*
X52504791Y-63595686D01*
X52507956Y-63623780D01*
X52495900Y-63692602D01*
X52448550Y-63743981D01*
X52380939Y-63761604D01*
X52343780Y-63754704D01*
X52229254Y-63714629D01*
X52229249Y-63714628D01*
X52050004Y-63694433D01*
X52049996Y-63694433D01*
X51959890Y-63704585D01*
X51891068Y-63692530D01*
X51858326Y-63669046D01*
X51735882Y-63546602D01*
X51583143Y-63450629D01*
X51412874Y-63391049D01*
X51412869Y-63391048D01*
X51233624Y-63370853D01*
X51233616Y-63370853D01*
X51054370Y-63391048D01*
X51054365Y-63391049D01*
X50884096Y-63450629D01*
X50731357Y-63546602D01*
X50603804Y-63674155D01*
X50507831Y-63826894D01*
X50448251Y-63997163D01*
X50448250Y-63997168D01*
X50428055Y-64176414D01*
X47521349Y-64176414D01*
X48496370Y-63201392D01*
X48543092Y-63172034D01*
X48589522Y-63155789D01*
X48742262Y-63059816D01*
X48869816Y-62932262D01*
X48965789Y-62779522D01*
X49025368Y-62609255D01*
X49025369Y-62609249D01*
X49045565Y-62430003D01*
X49045565Y-62429996D01*
X58864435Y-62429996D01*
X58864435Y-62430003D01*
X58884630Y-62609249D01*
X58884631Y-62609254D01*
X58944211Y-62779523D01*
X59040184Y-62932262D01*
X59167738Y-63059816D01*
X59190560Y-63074156D01*
X59312006Y-63150466D01*
X59320478Y-63155789D01*
X59366898Y-63172032D01*
X59490745Y-63215368D01*
X59490750Y-63215369D01*
X59669996Y-63235565D01*
X59670000Y-63235565D01*
X59670004Y-63235565D01*
X59849249Y-63215369D01*
X59849252Y-63215368D01*
X59849255Y-63215368D01*
X60019522Y-63155789D01*
X60172262Y-63059816D01*
X60299816Y-62932262D01*
X60395789Y-62779522D01*
X60455368Y-62609255D01*
X60455369Y-62609249D01*
X60475565Y-62430003D01*
X60475565Y-62429996D01*
X60455369Y-62250750D01*
X60455368Y-62250745D01*
X60395788Y-62080476D01*
X60356582Y-62018080D01*
X60299816Y-61927738D01*
X60172262Y-61800184D01*
X60019523Y-61704211D01*
X59849254Y-61644631D01*
X59849249Y-61644630D01*
X59670004Y-61624435D01*
X59669996Y-61624435D01*
X59490750Y-61644630D01*
X59490745Y-61644631D01*
X59320476Y-61704211D01*
X59167737Y-61800184D01*
X59040184Y-61927737D01*
X58944211Y-62080476D01*
X58884631Y-62250745D01*
X58884630Y-62250750D01*
X58864435Y-62429996D01*
X49045565Y-62429996D01*
X49025369Y-62250750D01*
X49025368Y-62250745D01*
X48965788Y-62080476D01*
X48926582Y-62018080D01*
X48869816Y-61927738D01*
X48742262Y-61800184D01*
X48589523Y-61704211D01*
X48419254Y-61644631D01*
X48419249Y-61644630D01*
X48240004Y-61624435D01*
X48239996Y-61624435D01*
X48060750Y-61644630D01*
X48060745Y-61644631D01*
X47890476Y-61704211D01*
X47737737Y-61800184D01*
X47610184Y-61927737D01*
X47514210Y-62080478D01*
X47464181Y-62223456D01*
X47423459Y-62280232D01*
X47358507Y-62305980D01*
X47306184Y-62299543D01*
X47149262Y-62244633D01*
X47149249Y-62244630D01*
X46970004Y-62224435D01*
X46969996Y-62224435D01*
X46790750Y-62244630D01*
X46790745Y-62244631D01*
X46620476Y-62304211D01*
X46467737Y-62400184D01*
X46340184Y-62527737D01*
X46244211Y-62680476D01*
X46184631Y-62850745D01*
X46184630Y-62850750D01*
X46164435Y-63029996D01*
X46164435Y-63030003D01*
X46184630Y-63209249D01*
X46184631Y-63209254D01*
X46244211Y-63379524D01*
X46310541Y-63485086D01*
X46316923Y-63495243D01*
X46336520Y-63526430D01*
X46355521Y-63593667D01*
X46335154Y-63660502D01*
X46319209Y-63680084D01*
X46249816Y-63749477D01*
X46138011Y-63861281D01*
X46138009Y-63861284D01*
X46100682Y-63925938D01*
X46100681Y-63925940D01*
X46058953Y-63998213D01*
X46058953Y-63998214D01*
X46018029Y-64150942D01*
X46018029Y-64150944D01*
X46018029Y-64319045D01*
X46018030Y-64319058D01*
X46018030Y-67021369D01*
X45998345Y-67088408D01*
X45945541Y-67134163D01*
X45876383Y-67144107D01*
X45853076Y-67138411D01*
X45809257Y-67123078D01*
X45809249Y-67123076D01*
X45630004Y-67102881D01*
X45629996Y-67102881D01*
X45450750Y-67123076D01*
X45450745Y-67123077D01*
X45283024Y-67181766D01*
X45213245Y-67185327D01*
X45152617Y-67150598D01*
X45137078Y-67130700D01*
X45059816Y-67007738D01*
X44932262Y-66880184D01*
X44779523Y-66784211D01*
X44609254Y-66724631D01*
X44609249Y-66724630D01*
X44430004Y-66704435D01*
X44429996Y-66704435D01*
X44250750Y-66724630D01*
X44250745Y-66724631D01*
X44080476Y-66784211D01*
X43927737Y-66880184D01*
X43800184Y-67007737D01*
X43704211Y-67160476D01*
X43644631Y-67330745D01*
X43644630Y-67330750D01*
X43624435Y-67509996D01*
X43624435Y-67510003D01*
X43644630Y-67689249D01*
X43644631Y-67689254D01*
X43704211Y-67859523D01*
X43776416Y-67974435D01*
X43800184Y-68012262D01*
X43927738Y-68139816D01*
X43944239Y-68150184D01*
X44076228Y-68233119D01*
X44080478Y-68235789D01*
X44228974Y-68287750D01*
X44250745Y-68295368D01*
X44250750Y-68295369D01*
X44429996Y-68315565D01*
X44430000Y-68315565D01*
X44430004Y-68315565D01*
X44609249Y-68295369D01*
X44609251Y-68295368D01*
X44609255Y-68295368D01*
X44609258Y-68295366D01*
X44609262Y-68295366D01*
X44776975Y-68236681D01*
X44846754Y-68233119D01*
X44907381Y-68267847D01*
X44922924Y-68287750D01*
X45000184Y-68410708D01*
X45127738Y-68538262D01*
X45137257Y-68544243D01*
X45235346Y-68605877D01*
X45280478Y-68634235D01*
X45406926Y-68678481D01*
X45450745Y-68693814D01*
X45450750Y-68693815D01*
X45629996Y-68714011D01*
X45630000Y-68714011D01*
X45630004Y-68714011D01*
X45809249Y-68693815D01*
X45809252Y-68693814D01*
X45809255Y-68693814D01*
X45809256Y-68693813D01*
X45809259Y-68693813D01*
X45853074Y-68678481D01*
X45922853Y-68674918D01*
X45983480Y-68709646D01*
X46015708Y-68771639D01*
X46018030Y-68795522D01*
X46018030Y-72505979D01*
X45998345Y-72573018D01*
X45945541Y-72618773D01*
X45876383Y-72628717D01*
X45812827Y-72599692D01*
X45789036Y-72571951D01*
X45753724Y-72515753D01*
X45626171Y-72388200D01*
X45473432Y-72292227D01*
X45303163Y-72232647D01*
X45303159Y-72232646D01*
X45166990Y-72217304D01*
X45102576Y-72190237D01*
X45063021Y-72132642D01*
X45057654Y-72080200D01*
X45057879Y-72078210D01*
X45078075Y-71898961D01*
X45074250Y-71865015D01*
X45057879Y-71719711D01*
X45057878Y-71719706D01*
X45003075Y-71563088D01*
X44998299Y-71549439D01*
X44902326Y-71396699D01*
X44774772Y-71269145D01*
X44759631Y-71259631D01*
X44622033Y-71173172D01*
X44451764Y-71113592D01*
X44451759Y-71113591D01*
X44272514Y-71093396D01*
X44272506Y-71093396D01*
X44093260Y-71113591D01*
X44093255Y-71113592D01*
X43922986Y-71173172D01*
X43770247Y-71269145D01*
X43642694Y-71396698D01*
X43546721Y-71549437D01*
X43487141Y-71719706D01*
X43487140Y-71719711D01*
X43466945Y-71898957D01*
X42443121Y-71898957D01*
X42519816Y-71822262D01*
X42615789Y-71669522D01*
X42675368Y-71499255D01*
X42679071Y-71466392D01*
X42695565Y-71320003D01*
X42695565Y-71319996D01*
X42675369Y-71140750D01*
X42675368Y-71140745D01*
X42649176Y-71065892D01*
X42615789Y-70970478D01*
X42519816Y-70817738D01*
X42392262Y-70690184D01*
X42386081Y-70686300D01*
X42239523Y-70594211D01*
X42069254Y-70534631D01*
X42069249Y-70534630D01*
X41890004Y-70514435D01*
X41889996Y-70514435D01*
X41710750Y-70534630D01*
X41710745Y-70534631D01*
X41540476Y-70594211D01*
X41387737Y-70690184D01*
X41260184Y-70817737D01*
X41164211Y-70970476D01*
X41104631Y-71140745D01*
X41104630Y-71140750D01*
X41084435Y-71319996D01*
X34331065Y-71319996D01*
X34328094Y-71286047D01*
X34316719Y-71156024D01*
X34310843Y-71088863D01*
X34250792Y-70864749D01*
X34152736Y-70654468D01*
X34152734Y-70654465D01*
X34152733Y-70654463D01*
X34019654Y-70464406D01*
X33855596Y-70300349D01*
X33855592Y-70300345D01*
X33665533Y-70167264D01*
X33665534Y-70167264D01*
X33665532Y-70167263D01*
X33560392Y-70118236D01*
X33455251Y-70069208D01*
X33455247Y-70069207D01*
X33455243Y-70069205D01*
X33231142Y-70009158D01*
X33231132Y-70009156D01*
X33000001Y-69988935D01*
X32999999Y-69988935D01*
X32768867Y-70009156D01*
X32768857Y-70009158D01*
X32544756Y-70069205D01*
X32544747Y-70069209D01*
X32334467Y-70167264D01*
X32334463Y-70167266D01*
X32144406Y-70300345D01*
X31980345Y-70464406D01*
X31847266Y-70654463D01*
X31847264Y-70654467D01*
X31749209Y-70864747D01*
X31749205Y-70864756D01*
X31689158Y-71088857D01*
X31689156Y-71088867D01*
X31668935Y-71319999D01*
X28000000Y-71319999D01*
X28000000Y-66759176D01*
X28019685Y-66692137D01*
X28036319Y-66671495D01*
X28068567Y-66639247D01*
X28400500Y-66307314D01*
X28439364Y-66239999D01*
X29354785Y-66239999D01*
X29354785Y-66240000D01*
X29373602Y-66443082D01*
X29429417Y-66639247D01*
X29429422Y-66639260D01*
X29520327Y-66821821D01*
X29643237Y-66984581D01*
X29793958Y-67121980D01*
X29793960Y-67121982D01*
X29856134Y-67160478D01*
X29967363Y-67229348D01*
X30157544Y-67303024D01*
X30358024Y-67340500D01*
X30358026Y-67340500D01*
X30561974Y-67340500D01*
X30561976Y-67340500D01*
X30762456Y-67303024D01*
X30952637Y-67229348D01*
X31126041Y-67121981D01*
X31276764Y-66984579D01*
X31399673Y-66821821D01*
X31490582Y-66639250D01*
X31546397Y-66443083D01*
X31565215Y-66240000D01*
X31546397Y-66036917D01*
X31490582Y-65840750D01*
X31399673Y-65658179D01*
X31377432Y-65628727D01*
X31352740Y-65563365D01*
X31367305Y-65495031D01*
X31416503Y-65445418D01*
X31476386Y-65430000D01*
X31548492Y-65430000D01*
X31548495Y-65429999D01*
X31741681Y-65391572D01*
X31741693Y-65391569D01*
X31923671Y-65316192D01*
X31923684Y-65316185D01*
X32087462Y-65206751D01*
X32087466Y-65206748D01*
X32226748Y-65067466D01*
X32226751Y-65067462D01*
X32336185Y-64903684D01*
X32336192Y-64903671D01*
X32411569Y-64721692D01*
X32411569Y-64721690D01*
X32419862Y-64680000D01*
X31516988Y-64680000D01*
X31534205Y-64670060D01*
X31590060Y-64614205D01*
X31629556Y-64545796D01*
X31650000Y-64469496D01*
X31650000Y-64390504D01*
X31629556Y-64314204D01*
X31590060Y-64245795D01*
X31534205Y-64189940D01*
X31516988Y-64180000D01*
X32419862Y-64180000D01*
X32411569Y-64138309D01*
X32411569Y-64138307D01*
X32336192Y-63956328D01*
X32336185Y-63956315D01*
X32322497Y-63935830D01*
X41684435Y-63935830D01*
X41684435Y-63935837D01*
X41704630Y-64115083D01*
X41704631Y-64115088D01*
X41764211Y-64285357D01*
X41808394Y-64355673D01*
X41860184Y-64438096D01*
X41987738Y-64565650D01*
X42140478Y-64661623D01*
X42277463Y-64709556D01*
X42310745Y-64721202D01*
X42310750Y-64721203D01*
X42489996Y-64741399D01*
X42490000Y-64741399D01*
X42490004Y-64741399D01*
X42669249Y-64721203D01*
X42669252Y-64721202D01*
X42669255Y-64721202D01*
X42839522Y-64661623D01*
X42992262Y-64565650D01*
X43119816Y-64438096D01*
X43215789Y-64285356D01*
X43275368Y-64115089D01*
X43275369Y-64115083D01*
X43295565Y-63935837D01*
X43295565Y-63935830D01*
X43275369Y-63756584D01*
X43275368Y-63756579D01*
X43260022Y-63712723D01*
X43215789Y-63586312D01*
X43119816Y-63433572D01*
X42992262Y-63306018D01*
X42839523Y-63210045D01*
X42669254Y-63150465D01*
X42669249Y-63150464D01*
X42490004Y-63130269D01*
X42489996Y-63130269D01*
X42310750Y-63150464D01*
X42310745Y-63150465D01*
X42140476Y-63210045D01*
X41987737Y-63306018D01*
X41860184Y-63433571D01*
X41764211Y-63586310D01*
X41704631Y-63756579D01*
X41704630Y-63756584D01*
X41684435Y-63935830D01*
X32322497Y-63935830D01*
X32226751Y-63792537D01*
X32226748Y-63792533D01*
X32087466Y-63653251D01*
X32087462Y-63653248D01*
X31923684Y-63543814D01*
X31923671Y-63543807D01*
X31741693Y-63468430D01*
X31741681Y-63468427D01*
X31548495Y-63430000D01*
X31250000Y-63430000D01*
X31250000Y-64130000D01*
X30750000Y-64130000D01*
X30750000Y-63430000D01*
X30451504Y-63430000D01*
X30258318Y-63468427D01*
X30258306Y-63468430D01*
X30076328Y-63543807D01*
X30076315Y-63543814D01*
X29912537Y-63653248D01*
X29912533Y-63653251D01*
X29773251Y-63792533D01*
X29773248Y-63792537D01*
X29663814Y-63956315D01*
X29663807Y-63956328D01*
X29588430Y-64138307D01*
X29588430Y-64138309D01*
X29580138Y-64180000D01*
X30483012Y-64180000D01*
X30465795Y-64189940D01*
X30409940Y-64245795D01*
X30370444Y-64314204D01*
X30350000Y-64390504D01*
X30350000Y-64469496D01*
X30370444Y-64545796D01*
X30409940Y-64614205D01*
X30465795Y-64670060D01*
X30483012Y-64680000D01*
X29580138Y-64680000D01*
X29588430Y-64721690D01*
X29588430Y-64721692D01*
X29663807Y-64903671D01*
X29663814Y-64903684D01*
X29773248Y-65067462D01*
X29773251Y-65067466D01*
X29849918Y-65144133D01*
X29883403Y-65205456D01*
X29878419Y-65275148D01*
X29836547Y-65331081D01*
X29827517Y-65337240D01*
X29793956Y-65358020D01*
X29643237Y-65495418D01*
X29520327Y-65658178D01*
X29429422Y-65840739D01*
X29429417Y-65840752D01*
X29373602Y-66036917D01*
X29354785Y-66239999D01*
X28439364Y-66239999D01*
X28466392Y-66193186D01*
X28500500Y-66065892D01*
X28500500Y-65934107D01*
X28500500Y-62230000D01*
X32904647Y-62230000D01*
X33690382Y-62230000D01*
X33639936Y-62280446D01*
X33597149Y-62354555D01*
X33575000Y-62437213D01*
X33575000Y-62522787D01*
X33597149Y-62605445D01*
X33639936Y-62679554D01*
X33690382Y-62730000D01*
X32904647Y-62730000D01*
X32914387Y-62778974D01*
X32914390Y-62778983D01*
X32991652Y-62965513D01*
X32991659Y-62965526D01*
X33103829Y-63133399D01*
X33103832Y-63133403D01*
X33246596Y-63276167D01*
X33246600Y-63276170D01*
X33414473Y-63388340D01*
X33414486Y-63388347D01*
X33601016Y-63465609D01*
X33601025Y-63465612D01*
X33750000Y-63495244D01*
X33750000Y-62768674D01*
X33774555Y-62782851D01*
X33857213Y-62805000D01*
X34142787Y-62805000D01*
X34225445Y-62782851D01*
X34250000Y-62768674D01*
X34250000Y-63495243D01*
X34398974Y-63465612D01*
X34398983Y-63465609D01*
X34585513Y-63388347D01*
X34585526Y-63388340D01*
X34753399Y-63276170D01*
X34753403Y-63276167D01*
X34896167Y-63133403D01*
X34896170Y-63133399D01*
X35008340Y-62965526D01*
X35008347Y-62965513D01*
X35085609Y-62778983D01*
X35085610Y-62778979D01*
X35094005Y-62736772D01*
X35126389Y-62674860D01*
X35187104Y-62640284D01*
X35256578Y-62643919D01*
X35360737Y-62680366D01*
X35360743Y-62680367D01*
X35360745Y-62680368D01*
X35360746Y-62680368D01*
X35360750Y-62680369D01*
X35539996Y-62700565D01*
X35540000Y-62700565D01*
X35540004Y-62700565D01*
X35719249Y-62680369D01*
X35719252Y-62680368D01*
X35719255Y-62680368D01*
X35889522Y-62620789D01*
X36042262Y-62524816D01*
X36169816Y-62397262D01*
X36265789Y-62244522D01*
X36325368Y-62074255D01*
X36334356Y-61994486D01*
X36345565Y-61895003D01*
X36345565Y-61894996D01*
X36325369Y-61715750D01*
X36325368Y-61715745D01*
X36274950Y-61571659D01*
X36265789Y-61545478D01*
X36169816Y-61392738D01*
X36042262Y-61265184D01*
X35889523Y-61169211D01*
X35719254Y-61109631D01*
X35719249Y-61109630D01*
X35605844Y-61096853D01*
X41684435Y-61096853D01*
X41684435Y-61096860D01*
X41704630Y-61276106D01*
X41704631Y-61276111D01*
X41764211Y-61446380D01*
X41842925Y-61571652D01*
X41860184Y-61599119D01*
X41987738Y-61726673D01*
X42140478Y-61822646D01*
X42310745Y-61882225D01*
X42310750Y-61882226D01*
X42489996Y-61902422D01*
X42490000Y-61902422D01*
X42490004Y-61902422D01*
X42669249Y-61882226D01*
X42669252Y-61882225D01*
X42669255Y-61882225D01*
X42839522Y-61822646D01*
X42992262Y-61726673D01*
X43119816Y-61599119D01*
X43215789Y-61446379D01*
X43275368Y-61276112D01*
X43275369Y-61276106D01*
X43295565Y-61096860D01*
X43295565Y-61096853D01*
X43275369Y-60917607D01*
X43275368Y-60917602D01*
X43215788Y-60747333D01*
X43119815Y-60594594D01*
X42992262Y-60467041D01*
X42839523Y-60371068D01*
X42669254Y-60311488D01*
X42669249Y-60311487D01*
X42490004Y-60291292D01*
X42489996Y-60291292D01*
X42310750Y-60311487D01*
X42310745Y-60311488D01*
X42140476Y-60371068D01*
X41987737Y-60467041D01*
X41860184Y-60594594D01*
X41764211Y-60747333D01*
X41704631Y-60917602D01*
X41704630Y-60917607D01*
X41684435Y-61096853D01*
X35605844Y-61096853D01*
X35540004Y-61089435D01*
X35539996Y-61089435D01*
X35360750Y-61109630D01*
X35360745Y-61109631D01*
X35190476Y-61169211D01*
X35037737Y-61265184D01*
X34910184Y-61392737D01*
X34814212Y-61545475D01*
X34811193Y-61551746D01*
X34808470Y-61550435D01*
X34775520Y-61596310D01*
X34710549Y-61622012D01*
X34641997Y-61608508D01*
X34630377Y-61601628D01*
X34585526Y-61571659D01*
X34585513Y-61571652D01*
X34398986Y-61494391D01*
X34398976Y-61494388D01*
X34250000Y-61464754D01*
X34250000Y-62191325D01*
X34225445Y-62177149D01*
X34142787Y-62155000D01*
X33857213Y-62155000D01*
X33774555Y-62177149D01*
X33750000Y-62191325D01*
X33750000Y-61464755D01*
X33749999Y-61464754D01*
X33601023Y-61494388D01*
X33601013Y-61494391D01*
X33414486Y-61571652D01*
X33414473Y-61571659D01*
X33246600Y-61683829D01*
X33246596Y-61683832D01*
X33103832Y-61826596D01*
X33103829Y-61826600D01*
X32991659Y-61994473D01*
X32991652Y-61994486D01*
X32914390Y-62181016D01*
X32914387Y-62181025D01*
X32904647Y-62230000D01*
X28500500Y-62230000D01*
X28500500Y-59889996D01*
X34734435Y-59889996D01*
X34734435Y-59890003D01*
X34754630Y-60069249D01*
X34754631Y-60069254D01*
X34814211Y-60239523D01*
X34859430Y-60311488D01*
X34910184Y-60392262D01*
X35037738Y-60519816D01*
X35190478Y-60615789D01*
X35360745Y-60675368D01*
X35360750Y-60675369D01*
X35539996Y-60695565D01*
X35540000Y-60695565D01*
X35540004Y-60695565D01*
X35719249Y-60675369D01*
X35719252Y-60675368D01*
X35719255Y-60675368D01*
X35889522Y-60615789D01*
X36042262Y-60519816D01*
X36169816Y-60392262D01*
X36265789Y-60239522D01*
X36325368Y-60069255D01*
X36345565Y-59890000D01*
X36325368Y-59710745D01*
X36265789Y-59540478D01*
X36169816Y-59387738D01*
X36042262Y-59260184D01*
X35889523Y-59164211D01*
X35719254Y-59104631D01*
X35719249Y-59104630D01*
X35540004Y-59084435D01*
X35539996Y-59084435D01*
X35360750Y-59104630D01*
X35360745Y-59104631D01*
X35190476Y-59164211D01*
X35037737Y-59260184D01*
X34910184Y-59387737D01*
X34814211Y-59540476D01*
X34754631Y-59710745D01*
X34754630Y-59710750D01*
X34734435Y-59889996D01*
X28500500Y-59889996D01*
X28500500Y-57780000D01*
X32904647Y-57780000D01*
X33690382Y-57780000D01*
X33639936Y-57830446D01*
X33597149Y-57904555D01*
X33575000Y-57987213D01*
X33575000Y-58072787D01*
X33597149Y-58155445D01*
X33639936Y-58229554D01*
X33690382Y-58280000D01*
X32904647Y-58280000D01*
X32914387Y-58328974D01*
X32914390Y-58328983D01*
X32991652Y-58515513D01*
X32991659Y-58515526D01*
X33103829Y-58683399D01*
X33103832Y-58683403D01*
X33246596Y-58826167D01*
X33246600Y-58826170D01*
X33414473Y-58938340D01*
X33414486Y-58938347D01*
X33601016Y-59015609D01*
X33601025Y-59015612D01*
X33750000Y-59045244D01*
X33750000Y-58318674D01*
X33774555Y-58332851D01*
X33857213Y-58355000D01*
X34142787Y-58355000D01*
X34225445Y-58332851D01*
X34250000Y-58318674D01*
X34250000Y-59045243D01*
X34398974Y-59015612D01*
X34398983Y-59015609D01*
X34585513Y-58938347D01*
X34585526Y-58938340D01*
X34753399Y-58826170D01*
X34753403Y-58826167D01*
X34896167Y-58683403D01*
X34896170Y-58683399D01*
X34938535Y-58619996D01*
X46164435Y-58619996D01*
X46164435Y-58620003D01*
X46184630Y-58799249D01*
X46184631Y-58799254D01*
X46244211Y-58969523D01*
X46291790Y-59045244D01*
X46340184Y-59122262D01*
X46467738Y-59249816D01*
X46620478Y-59345789D01*
X46790745Y-59405368D01*
X46790750Y-59405369D01*
X46969996Y-59425565D01*
X46970000Y-59425565D01*
X46970004Y-59425565D01*
X47149249Y-59405369D01*
X47149252Y-59405368D01*
X47149255Y-59405368D01*
X47319522Y-59345789D01*
X47472262Y-59249816D01*
X47599816Y-59122262D01*
X47695789Y-58969522D01*
X47755368Y-58799255D01*
X47755369Y-58799249D01*
X47775565Y-58620003D01*
X47775565Y-58619996D01*
X48704435Y-58619996D01*
X48704435Y-58620003D01*
X48724630Y-58799249D01*
X48724631Y-58799254D01*
X48784211Y-58969523D01*
X48831790Y-59045244D01*
X48880184Y-59122262D01*
X49007738Y-59249816D01*
X49160478Y-59345789D01*
X49330745Y-59405368D01*
X49330750Y-59405369D01*
X49509996Y-59425565D01*
X49510000Y-59425565D01*
X49510004Y-59425565D01*
X49689249Y-59405369D01*
X49689252Y-59405368D01*
X49689255Y-59405368D01*
X49859522Y-59345789D01*
X50012262Y-59249816D01*
X50139816Y-59122262D01*
X50235789Y-58969522D01*
X50295368Y-58799255D01*
X50295369Y-58799249D01*
X50315565Y-58620003D01*
X50315565Y-58619996D01*
X50295369Y-58440750D01*
X50295368Y-58440745D01*
X50235789Y-58270478D01*
X50139816Y-58117738D01*
X50012262Y-57990184D01*
X50007534Y-57987213D01*
X49859523Y-57894211D01*
X49689254Y-57834631D01*
X49689249Y-57834630D01*
X49510004Y-57814435D01*
X49509996Y-57814435D01*
X49330750Y-57834630D01*
X49330745Y-57834631D01*
X49160476Y-57894211D01*
X49007737Y-57990184D01*
X48880184Y-58117737D01*
X48784211Y-58270476D01*
X48724631Y-58440745D01*
X48724630Y-58440750D01*
X48704435Y-58619996D01*
X47775565Y-58619996D01*
X47755369Y-58440750D01*
X47755368Y-58440745D01*
X47695789Y-58270478D01*
X47599816Y-58117738D01*
X47472262Y-57990184D01*
X47467534Y-57987213D01*
X47319523Y-57894211D01*
X47149254Y-57834631D01*
X47149249Y-57834630D01*
X46970004Y-57814435D01*
X46969996Y-57814435D01*
X46790750Y-57834630D01*
X46790745Y-57834631D01*
X46620476Y-57894211D01*
X46467737Y-57990184D01*
X46340184Y-58117737D01*
X46244211Y-58270476D01*
X46184631Y-58440745D01*
X46184630Y-58440750D01*
X46164435Y-58619996D01*
X34938535Y-58619996D01*
X35008340Y-58515526D01*
X35008347Y-58515513D01*
X35085609Y-58328983D01*
X35085612Y-58328974D01*
X35095353Y-58280000D01*
X34309618Y-58280000D01*
X34360064Y-58229554D01*
X34402851Y-58155445D01*
X34425000Y-58072787D01*
X34425000Y-57987213D01*
X34402851Y-57904555D01*
X34360064Y-57830446D01*
X34309618Y-57780000D01*
X35095353Y-57780000D01*
X35085612Y-57731025D01*
X35085609Y-57731016D01*
X35008347Y-57544486D01*
X35008340Y-57544473D01*
X34896170Y-57376600D01*
X34896167Y-57376596D01*
X34869567Y-57349996D01*
X57594435Y-57349996D01*
X57594435Y-57350003D01*
X57614630Y-57529249D01*
X57614631Y-57529254D01*
X57674211Y-57699523D01*
X57746416Y-57814435D01*
X57770184Y-57852262D01*
X57897738Y-57979816D01*
X58050478Y-58075789D01*
X58220745Y-58135368D01*
X58220750Y-58135369D01*
X58399996Y-58155565D01*
X58400000Y-58155565D01*
X58400004Y-58155565D01*
X58579249Y-58135369D01*
X58579252Y-58135368D01*
X58579255Y-58135368D01*
X58749522Y-58075789D01*
X58902262Y-57979816D01*
X59029816Y-57852262D01*
X59125789Y-57699522D01*
X59185368Y-57529255D01*
X59202568Y-57376600D01*
X59205565Y-57350003D01*
X59205565Y-57349996D01*
X59185369Y-57170750D01*
X59185368Y-57170745D01*
X59153615Y-57080000D01*
X59125789Y-57000478D01*
X59029816Y-56847738D01*
X58902262Y-56720184D01*
X58897930Y-56717462D01*
X58749523Y-56624211D01*
X58579254Y-56564631D01*
X58579249Y-56564630D01*
X58400004Y-56544435D01*
X58399996Y-56544435D01*
X58220750Y-56564630D01*
X58220745Y-56564631D01*
X58050476Y-56624211D01*
X57897737Y-56720184D01*
X57770184Y-56847737D01*
X57674211Y-57000476D01*
X57614631Y-57170745D01*
X57614630Y-57170750D01*
X57594435Y-57349996D01*
X34869567Y-57349996D01*
X34753403Y-57233832D01*
X34753399Y-57233829D01*
X34585526Y-57121659D01*
X34585513Y-57121652D01*
X34398986Y-57044391D01*
X34398976Y-57044388D01*
X34250000Y-57014754D01*
X34250000Y-57741325D01*
X34225445Y-57727149D01*
X34142787Y-57705000D01*
X33857213Y-57705000D01*
X33774555Y-57727149D01*
X33750000Y-57741325D01*
X33750000Y-57014755D01*
X33749999Y-57014754D01*
X33601023Y-57044388D01*
X33601013Y-57044391D01*
X33414486Y-57121652D01*
X33414473Y-57121659D01*
X33246600Y-57233829D01*
X33246596Y-57233832D01*
X33103832Y-57376596D01*
X33103829Y-57376600D01*
X32991659Y-57544473D01*
X32991652Y-57544486D01*
X32914390Y-57731016D01*
X32914387Y-57731025D01*
X32904647Y-57780000D01*
X28500500Y-57780000D01*
X28500500Y-55830000D01*
X29580138Y-55830000D01*
X30483012Y-55830000D01*
X30465795Y-55839940D01*
X30409940Y-55895795D01*
X30370444Y-55964204D01*
X30350000Y-56040504D01*
X30350000Y-56119496D01*
X30370444Y-56195796D01*
X30409940Y-56264205D01*
X30465795Y-56320060D01*
X30483012Y-56330000D01*
X29580138Y-56330000D01*
X29588430Y-56371690D01*
X29588430Y-56371692D01*
X29663807Y-56553671D01*
X29663814Y-56553684D01*
X29773248Y-56717462D01*
X29773251Y-56717466D01*
X29912533Y-56856748D01*
X29912537Y-56856751D01*
X30076315Y-56966185D01*
X30076328Y-56966192D01*
X30258306Y-57041569D01*
X30258318Y-57041572D01*
X30451504Y-57079999D01*
X30451508Y-57080000D01*
X30750000Y-57080000D01*
X30750000Y-56380000D01*
X31250000Y-56380000D01*
X31250000Y-57080000D01*
X31548492Y-57080000D01*
X31548495Y-57079999D01*
X31741681Y-57041572D01*
X31741693Y-57041569D01*
X31923671Y-56966192D01*
X31923684Y-56966185D01*
X32087462Y-56856751D01*
X32087466Y-56856748D01*
X32226748Y-56717466D01*
X32226751Y-56717462D01*
X32336185Y-56553684D01*
X32336192Y-56553671D01*
X32411569Y-56371692D01*
X32411569Y-56371690D01*
X32419862Y-56330000D01*
X31516988Y-56330000D01*
X31534205Y-56320060D01*
X31590060Y-56264205D01*
X31629556Y-56195796D01*
X31650000Y-56119496D01*
X31650000Y-56040504D01*
X31629556Y-55964204D01*
X31590060Y-55895795D01*
X31534205Y-55839940D01*
X31516988Y-55830000D01*
X32419862Y-55830000D01*
X32411569Y-55788309D01*
X32411569Y-55788307D01*
X32336192Y-55606328D01*
X32336185Y-55606315D01*
X32226751Y-55442537D01*
X32226748Y-55442533D01*
X32087466Y-55303251D01*
X32087462Y-55303248D01*
X31923684Y-55193814D01*
X31923671Y-55193807D01*
X31741693Y-55118430D01*
X31741681Y-55118427D01*
X31548495Y-55080000D01*
X31250000Y-55080000D01*
X31250000Y-55780000D01*
X30750000Y-55780000D01*
X30750000Y-55080000D01*
X30451504Y-55080000D01*
X30258318Y-55118427D01*
X30258306Y-55118430D01*
X30076328Y-55193807D01*
X30076315Y-55193814D01*
X29912537Y-55303248D01*
X29912533Y-55303251D01*
X29773251Y-55442533D01*
X29773248Y-55442537D01*
X29663814Y-55606315D01*
X29663807Y-55606328D01*
X29588430Y-55788307D01*
X29588430Y-55788309D01*
X29580138Y-55830000D01*
X28500500Y-55830000D01*
X28500500Y-54809996D01*
X46164435Y-54809996D01*
X46164435Y-54810003D01*
X46184630Y-54989249D01*
X46184631Y-54989254D01*
X46244211Y-55159523D01*
X46271597Y-55203107D01*
X46340184Y-55312262D01*
X46467738Y-55439816D01*
X46620478Y-55535789D01*
X46680124Y-55556660D01*
X46790745Y-55595368D01*
X46790750Y-55595369D01*
X46969996Y-55615565D01*
X46970000Y-55615565D01*
X46970004Y-55615565D01*
X47149249Y-55595369D01*
X47149252Y-55595368D01*
X47149255Y-55595368D01*
X47259876Y-55556660D01*
X50526892Y-55556660D01*
X50526892Y-55556661D01*
X50540692Y-55565333D01*
X50540691Y-55565333D01*
X50710861Y-55624878D01*
X50889997Y-55645062D01*
X50890003Y-55645062D01*
X51069138Y-55624878D01*
X51069141Y-55624877D01*
X51239305Y-55565334D01*
X51239306Y-55565334D01*
X51253106Y-55556661D01*
X51253106Y-55556660D01*
X52026892Y-55556660D01*
X52026892Y-55556661D01*
X52040692Y-55565333D01*
X52040691Y-55565333D01*
X52210861Y-55624878D01*
X52389997Y-55645062D01*
X52390003Y-55645062D01*
X52569138Y-55624878D01*
X52569141Y-55624877D01*
X52739305Y-55565334D01*
X52739306Y-55565334D01*
X52753106Y-55556661D01*
X52753106Y-55556660D01*
X52390001Y-55193553D01*
X52390000Y-55193553D01*
X52026892Y-55556660D01*
X51253106Y-55556660D01*
X50890001Y-55193553D01*
X50890000Y-55193553D01*
X50526892Y-55556660D01*
X47259876Y-55556660D01*
X47319522Y-55535789D01*
X47472262Y-55439816D01*
X47599816Y-55312262D01*
X47695789Y-55159522D01*
X47755368Y-54989255D01*
X47755369Y-54989249D01*
X47775565Y-54810003D01*
X47775565Y-54809996D01*
X47775189Y-54806660D01*
X49776892Y-54806660D01*
X49776892Y-54806661D01*
X49790692Y-54815333D01*
X49790691Y-54815333D01*
X49960858Y-54874877D01*
X49992246Y-54878413D01*
X50056661Y-54905479D01*
X50096217Y-54963073D01*
X50101585Y-54987747D01*
X50105123Y-55019142D01*
X50164664Y-55189303D01*
X50173338Y-55203107D01*
X50536446Y-54840000D01*
X50506609Y-54810163D01*
X50740000Y-54810163D01*
X50740000Y-54869837D01*
X50762836Y-54924968D01*
X50805032Y-54967164D01*
X50860163Y-54990000D01*
X50919837Y-54990000D01*
X50974968Y-54967164D01*
X51017164Y-54924968D01*
X51040000Y-54869837D01*
X51040000Y-54840000D01*
X51243553Y-54840000D01*
X51606659Y-55203106D01*
X51626120Y-55200914D01*
X51653883Y-55200915D01*
X51673338Y-55203107D01*
X52036446Y-54840000D01*
X52006609Y-54810163D01*
X52240000Y-54810163D01*
X52240000Y-54869837D01*
X52262836Y-54924968D01*
X52305032Y-54967164D01*
X52360163Y-54990000D01*
X52419837Y-54990000D01*
X52474968Y-54967164D01*
X52517164Y-54924968D01*
X52540000Y-54869837D01*
X52540000Y-54840000D01*
X52743553Y-54840000D01*
X53106660Y-55203106D01*
X53106661Y-55203106D01*
X53115334Y-55189306D01*
X53115334Y-55189305D01*
X53174876Y-55019143D01*
X53178413Y-54987753D01*
X53205479Y-54923339D01*
X53263073Y-54883782D01*
X53287753Y-54878413D01*
X53319143Y-54874876D01*
X53489305Y-54815334D01*
X53489306Y-54815334D01*
X53503106Y-54806661D01*
X53503106Y-54806660D01*
X53140000Y-54443553D01*
X53097109Y-54486446D01*
X53097107Y-54486447D01*
X52743553Y-54840000D01*
X52540000Y-54840000D01*
X52540000Y-54810163D01*
X52517164Y-54755032D01*
X52474968Y-54712836D01*
X52419837Y-54690000D01*
X52360163Y-54690000D01*
X52305032Y-54712836D01*
X52262836Y-54755032D01*
X52240000Y-54810163D01*
X52006609Y-54810163D01*
X51682892Y-54486446D01*
X51640000Y-54443553D01*
X51597108Y-54486446D01*
X51597107Y-54486447D01*
X51243553Y-54840000D01*
X51040000Y-54840000D01*
X51040000Y-54810163D01*
X51017164Y-54755032D01*
X50974968Y-54712836D01*
X50919837Y-54690000D01*
X50860163Y-54690000D01*
X50805032Y-54712836D01*
X50762836Y-54755032D01*
X50740000Y-54810163D01*
X50506609Y-54810163D01*
X50139999Y-54443553D01*
X50139998Y-54443553D01*
X49776892Y-54806660D01*
X47775189Y-54806660D01*
X47755369Y-54630750D01*
X47755368Y-54630745D01*
X47704876Y-54486447D01*
X47695789Y-54460478D01*
X47691157Y-54453107D01*
X47610894Y-54325369D01*
X47599816Y-54307738D01*
X47472262Y-54180184D01*
X47463961Y-54174968D01*
X47328731Y-54089997D01*
X49334938Y-54089997D01*
X49334938Y-54090002D01*
X49355121Y-54269138D01*
X49414665Y-54439304D01*
X49423338Y-54453107D01*
X49786446Y-54090000D01*
X49786446Y-54089999D01*
X49756610Y-54060163D01*
X49990000Y-54060163D01*
X49990000Y-54119837D01*
X50012836Y-54174968D01*
X50055032Y-54217164D01*
X50110163Y-54240000D01*
X50169837Y-54240000D01*
X50224968Y-54217164D01*
X50267164Y-54174968D01*
X50290000Y-54119837D01*
X50290000Y-54089999D01*
X50493553Y-54089999D01*
X50890000Y-54486446D01*
X51286446Y-54090000D01*
X51256609Y-54060163D01*
X51490000Y-54060163D01*
X51490000Y-54119837D01*
X51512836Y-54174968D01*
X51555032Y-54217164D01*
X51610163Y-54240000D01*
X51669837Y-54240000D01*
X51724968Y-54217164D01*
X51767164Y-54174968D01*
X51790000Y-54119837D01*
X51790000Y-54089999D01*
X51993553Y-54089999D01*
X52390000Y-54486446D01*
X52786446Y-54090000D01*
X52756609Y-54060163D01*
X52990000Y-54060163D01*
X52990000Y-54119837D01*
X53012836Y-54174968D01*
X53055032Y-54217164D01*
X53110163Y-54240000D01*
X53169837Y-54240000D01*
X53224968Y-54217164D01*
X53267164Y-54174968D01*
X53290000Y-54119837D01*
X53290000Y-54090000D01*
X53493553Y-54090000D01*
X53856660Y-54453106D01*
X53856661Y-54453106D01*
X53865334Y-54439306D01*
X53865334Y-54439305D01*
X53924877Y-54269141D01*
X53924878Y-54269138D01*
X53945062Y-54090002D01*
X53945062Y-54089997D01*
X53924878Y-53910861D01*
X53865333Y-53740692D01*
X53856661Y-53726892D01*
X53856660Y-53726892D01*
X53493553Y-54090000D01*
X53290000Y-54090000D01*
X53290000Y-54060163D01*
X53267164Y-54005032D01*
X53224968Y-53962836D01*
X53169837Y-53940000D01*
X53110163Y-53940000D01*
X53055032Y-53962836D01*
X53012836Y-54005032D01*
X52990000Y-54060163D01*
X52756609Y-54060163D01*
X52432892Y-53736446D01*
X52390000Y-53693553D01*
X52347108Y-53736446D01*
X52347107Y-53736447D01*
X51993553Y-54089999D01*
X51790000Y-54089999D01*
X51790000Y-54060163D01*
X51767164Y-54005032D01*
X51724968Y-53962836D01*
X51669837Y-53940000D01*
X51610163Y-53940000D01*
X51555032Y-53962836D01*
X51512836Y-54005032D01*
X51490000Y-54060163D01*
X51256609Y-54060163D01*
X50932892Y-53736446D01*
X50890000Y-53693553D01*
X50847108Y-53736446D01*
X50847107Y-53736447D01*
X50493553Y-54089999D01*
X50290000Y-54089999D01*
X50290000Y-54060163D01*
X50267164Y-54005032D01*
X50224968Y-53962836D01*
X50169837Y-53940000D01*
X50110163Y-53940000D01*
X50055032Y-53962836D01*
X50012836Y-54005032D01*
X49990000Y-54060163D01*
X49756610Y-54060163D01*
X49423338Y-53726891D01*
X49423337Y-53726891D01*
X49414667Y-53740691D01*
X49414662Y-53740701D01*
X49355122Y-53910858D01*
X49355121Y-53910861D01*
X49334938Y-54089997D01*
X47328731Y-54089997D01*
X47319523Y-54084211D01*
X47149254Y-54024631D01*
X47149249Y-54024630D01*
X46970004Y-54004435D01*
X46969996Y-54004435D01*
X46790750Y-54024630D01*
X46790745Y-54024631D01*
X46620476Y-54084211D01*
X46467737Y-54180184D01*
X46340184Y-54307737D01*
X46244211Y-54460476D01*
X46184631Y-54630745D01*
X46184630Y-54630750D01*
X46164435Y-54809996D01*
X28500500Y-54809996D01*
X28500500Y-53373338D01*
X49776891Y-53373338D01*
X50139998Y-53736446D01*
X50139999Y-53736446D01*
X50415869Y-53460577D01*
X50536446Y-53340000D01*
X50506609Y-53310163D01*
X50740000Y-53310163D01*
X50740000Y-53369837D01*
X50762836Y-53424968D01*
X50805032Y-53467164D01*
X50860163Y-53490000D01*
X50919837Y-53490000D01*
X50974968Y-53467164D01*
X51017164Y-53424968D01*
X51040000Y-53369837D01*
X51040000Y-53339999D01*
X51243553Y-53339999D01*
X51640000Y-53736446D01*
X52036446Y-53340000D01*
X52006609Y-53310163D01*
X52240000Y-53310163D01*
X52240000Y-53369837D01*
X52262836Y-53424968D01*
X52305032Y-53467164D01*
X52360163Y-53490000D01*
X52419837Y-53490000D01*
X52474968Y-53467164D01*
X52517164Y-53424968D01*
X52540000Y-53369837D01*
X52540000Y-53339999D01*
X52743553Y-53339999D01*
X53140000Y-53736446D01*
X53140001Y-53736446D01*
X53336450Y-53539996D01*
X55054435Y-53539996D01*
X55054435Y-53540003D01*
X55074630Y-53719249D01*
X55074631Y-53719254D01*
X55134211Y-53889523D01*
X55147617Y-53910858D01*
X55230184Y-54042262D01*
X55357738Y-54169816D01*
X55510478Y-54265789D01*
X55680745Y-54325368D01*
X55680750Y-54325369D01*
X55859996Y-54345565D01*
X55860000Y-54345565D01*
X55860004Y-54345565D01*
X56039249Y-54325369D01*
X56039252Y-54325368D01*
X56039255Y-54325368D01*
X56209522Y-54265789D01*
X56362262Y-54169816D01*
X56489816Y-54042262D01*
X56585789Y-53889522D01*
X56645368Y-53719255D01*
X56665565Y-53540000D01*
X56659931Y-53490000D01*
X56645369Y-53360750D01*
X56645368Y-53360745D01*
X56585788Y-53190476D01*
X56489815Y-53037737D01*
X56362262Y-52910184D01*
X56209523Y-52814211D01*
X56039254Y-52754631D01*
X56039249Y-52754630D01*
X55860004Y-52734435D01*
X55859996Y-52734435D01*
X55680750Y-52754630D01*
X55680745Y-52754631D01*
X55510476Y-52814211D01*
X55357737Y-52910184D01*
X55230184Y-53037737D01*
X55134211Y-53190476D01*
X55074631Y-53360745D01*
X55074630Y-53360750D01*
X55054435Y-53539996D01*
X53336450Y-53539996D01*
X53503107Y-53373338D01*
X53500915Y-53353883D01*
X53500914Y-53326120D01*
X53503106Y-53306659D01*
X53140000Y-52943553D01*
X53097109Y-52986446D01*
X53097107Y-52986447D01*
X52743553Y-53339999D01*
X52540000Y-53339999D01*
X52540000Y-53310163D01*
X52517164Y-53255032D01*
X52474968Y-53212836D01*
X52419837Y-53190000D01*
X52360163Y-53190000D01*
X52305032Y-53212836D01*
X52262836Y-53255032D01*
X52240000Y-53310163D01*
X52006609Y-53310163D01*
X51682892Y-52986446D01*
X51640000Y-52943553D01*
X51597108Y-52986446D01*
X51597107Y-52986447D01*
X51243553Y-53339999D01*
X51040000Y-53339999D01*
X51040000Y-53310163D01*
X51017164Y-53255032D01*
X50974968Y-53212836D01*
X50919837Y-53190000D01*
X50860163Y-53190000D01*
X50805032Y-53212836D01*
X50762836Y-53255032D01*
X50740000Y-53310163D01*
X50506609Y-53310163D01*
X50139999Y-52943553D01*
X50139998Y-52943553D01*
X49776892Y-53306660D01*
X49779084Y-53326120D01*
X49779083Y-53353884D01*
X49776891Y-53373338D01*
X28500500Y-53373338D01*
X28500500Y-51002706D01*
X28500618Y-50997297D01*
X28503377Y-50934108D01*
X28505796Y-50878711D01*
X31149500Y-50878711D01*
X31149500Y-51121288D01*
X31181161Y-51361785D01*
X31243947Y-51596104D01*
X31336773Y-51820205D01*
X31336776Y-51820212D01*
X31458064Y-52030289D01*
X31458066Y-52030292D01*
X31458067Y-52030293D01*
X31605733Y-52222736D01*
X31605739Y-52222743D01*
X31777256Y-52394260D01*
X31777262Y-52394265D01*
X31969711Y-52541936D01*
X32179788Y-52663224D01*
X32310011Y-52717164D01*
X32400464Y-52754631D01*
X32403900Y-52756054D01*
X32638211Y-52818838D01*
X32818586Y-52842584D01*
X32878711Y-52850500D01*
X32878712Y-52850500D01*
X33121289Y-52850500D01*
X33169388Y-52844167D01*
X33361789Y-52818838D01*
X33596100Y-52756054D01*
X33820212Y-52663224D01*
X33947045Y-52589997D01*
X49334938Y-52589997D01*
X49334938Y-52590002D01*
X49355121Y-52769138D01*
X49414665Y-52939304D01*
X49423338Y-52953107D01*
X49786446Y-52590000D01*
X49786446Y-52589999D01*
X49756610Y-52560163D01*
X49990000Y-52560163D01*
X49990000Y-52619837D01*
X50012836Y-52674968D01*
X50055032Y-52717164D01*
X50110163Y-52740000D01*
X50169837Y-52740000D01*
X50224968Y-52717164D01*
X50267164Y-52674968D01*
X50290000Y-52619837D01*
X50290000Y-52589999D01*
X50493553Y-52589999D01*
X50890000Y-52986446D01*
X51286446Y-52590000D01*
X51256609Y-52560163D01*
X51490000Y-52560163D01*
X51490000Y-52619837D01*
X51512836Y-52674968D01*
X51555032Y-52717164D01*
X51610163Y-52740000D01*
X51669837Y-52740000D01*
X51724968Y-52717164D01*
X51767164Y-52674968D01*
X51790000Y-52619837D01*
X51790000Y-52589999D01*
X51993553Y-52589999D01*
X52390000Y-52986446D01*
X52786446Y-52590000D01*
X52756609Y-52560163D01*
X52990000Y-52560163D01*
X52990000Y-52619837D01*
X53012836Y-52674968D01*
X53055032Y-52717164D01*
X53110163Y-52740000D01*
X53169837Y-52740000D01*
X53224968Y-52717164D01*
X53267164Y-52674968D01*
X53290000Y-52619837D01*
X53290000Y-52590000D01*
X53493553Y-52590000D01*
X53856660Y-52953106D01*
X53856661Y-52953106D01*
X53865334Y-52939306D01*
X53865334Y-52939305D01*
X53924877Y-52769141D01*
X53924878Y-52769138D01*
X53945062Y-52590002D01*
X53945062Y-52589997D01*
X53924878Y-52410861D01*
X53865333Y-52240692D01*
X53856661Y-52226892D01*
X53856660Y-52226892D01*
X53493553Y-52590000D01*
X53290000Y-52590000D01*
X53290000Y-52560163D01*
X53267164Y-52505032D01*
X53224968Y-52462836D01*
X53169837Y-52440000D01*
X53110163Y-52440000D01*
X53055032Y-52462836D01*
X53012836Y-52505032D01*
X52990000Y-52560163D01*
X52756609Y-52560163D01*
X52432892Y-52236446D01*
X52390000Y-52193553D01*
X52347108Y-52236446D01*
X52347107Y-52236447D01*
X51993553Y-52589999D01*
X51790000Y-52589999D01*
X51790000Y-52560163D01*
X51767164Y-52505032D01*
X51724968Y-52462836D01*
X51669837Y-52440000D01*
X51610163Y-52440000D01*
X51555032Y-52462836D01*
X51512836Y-52505032D01*
X51490000Y-52560163D01*
X51256609Y-52560163D01*
X50932892Y-52236446D01*
X50890000Y-52193553D01*
X50847108Y-52236446D01*
X50847107Y-52236447D01*
X50493553Y-52589999D01*
X50290000Y-52589999D01*
X50290000Y-52560163D01*
X50267164Y-52505032D01*
X50224968Y-52462836D01*
X50169837Y-52440000D01*
X50110163Y-52440000D01*
X50055032Y-52462836D01*
X50012836Y-52505032D01*
X49990000Y-52560163D01*
X49756610Y-52560163D01*
X49423338Y-52226891D01*
X49423337Y-52226891D01*
X49414667Y-52240691D01*
X49414662Y-52240701D01*
X49355122Y-52410858D01*
X49355121Y-52410861D01*
X49334938Y-52589997D01*
X33947045Y-52589997D01*
X34030289Y-52541936D01*
X34222738Y-52394265D01*
X34394265Y-52222738D01*
X34541936Y-52030289D01*
X34632552Y-51873337D01*
X49776891Y-51873337D01*
X49776891Y-51873338D01*
X50139998Y-52236446D01*
X50139999Y-52236446D01*
X50415868Y-51960577D01*
X50536446Y-51839998D01*
X50506611Y-51810163D01*
X50740000Y-51810163D01*
X50740000Y-51869837D01*
X50762836Y-51924968D01*
X50805032Y-51967164D01*
X50860163Y-51990000D01*
X50919837Y-51990000D01*
X50974968Y-51967164D01*
X51017164Y-51924968D01*
X51040000Y-51869837D01*
X51040000Y-51839998D01*
X51243553Y-51839998D01*
X51243553Y-51839999D01*
X51640000Y-52236446D01*
X51915868Y-51960577D01*
X52036446Y-51839998D01*
X52006611Y-51810163D01*
X52240000Y-51810163D01*
X52240000Y-51869837D01*
X52262836Y-51924968D01*
X52305032Y-51967164D01*
X52360163Y-51990000D01*
X52419837Y-51990000D01*
X52474968Y-51967164D01*
X52517164Y-51924968D01*
X52540000Y-51869837D01*
X52540000Y-51839998D01*
X52743553Y-51839998D01*
X52743553Y-51839999D01*
X53140000Y-52236446D01*
X53140001Y-52236446D01*
X53503107Y-51873338D01*
X53489303Y-51864664D01*
X53319142Y-51805123D01*
X53287747Y-51801585D01*
X53223334Y-51774516D01*
X53183780Y-51716920D01*
X53178413Y-51692246D01*
X53174877Y-51660858D01*
X53115333Y-51490692D01*
X53106661Y-51476892D01*
X53106660Y-51476892D01*
X52743553Y-51839998D01*
X52540000Y-51839998D01*
X52540000Y-51810163D01*
X52517164Y-51755032D01*
X52474968Y-51712836D01*
X52419837Y-51690000D01*
X52360163Y-51690000D01*
X52305032Y-51712836D01*
X52262836Y-51755032D01*
X52240000Y-51810163D01*
X52006611Y-51810163D01*
X51673338Y-51476891D01*
X51653884Y-51479083D01*
X51626120Y-51479084D01*
X51606660Y-51476892D01*
X51243553Y-51839998D01*
X51040000Y-51839998D01*
X51040000Y-51810163D01*
X51017164Y-51755032D01*
X50974968Y-51712836D01*
X50919837Y-51690000D01*
X50860163Y-51690000D01*
X50805032Y-51712836D01*
X50762836Y-51755032D01*
X50740000Y-51810163D01*
X50506611Y-51810163D01*
X50173338Y-51476891D01*
X50173337Y-51476891D01*
X50164667Y-51490691D01*
X50164662Y-51490701D01*
X50105123Y-51660857D01*
X50101585Y-51692253D01*
X50074516Y-51756666D01*
X50016920Y-51796219D01*
X49992253Y-51801585D01*
X49960857Y-51805123D01*
X49790701Y-51864662D01*
X49790691Y-51864667D01*
X49776891Y-51873337D01*
X34632552Y-51873337D01*
X34663224Y-51820212D01*
X34756054Y-51596100D01*
X34818838Y-51361789D01*
X34850500Y-51121288D01*
X34850500Y-50999996D01*
X46164435Y-50999996D01*
X46164435Y-51000003D01*
X46184630Y-51179249D01*
X46184631Y-51179254D01*
X46244211Y-51349523D01*
X46324242Y-51476891D01*
X46340184Y-51502262D01*
X46467738Y-51629816D01*
X46620478Y-51725789D01*
X46759732Y-51774516D01*
X46790745Y-51785368D01*
X46790750Y-51785369D01*
X46969996Y-51805565D01*
X46970000Y-51805565D01*
X46970004Y-51805565D01*
X47149249Y-51785369D01*
X47149252Y-51785368D01*
X47149255Y-51785368D01*
X47319522Y-51725789D01*
X47472262Y-51629816D01*
X47599816Y-51502262D01*
X47695789Y-51349522D01*
X47755368Y-51179255D01*
X47755369Y-51179249D01*
X47761669Y-51123337D01*
X50526891Y-51123337D01*
X50526891Y-51123338D01*
X50890000Y-51486446D01*
X50890001Y-51486446D01*
X51253107Y-51123338D01*
X51253105Y-51123337D01*
X52026891Y-51123337D01*
X52026891Y-51123338D01*
X52390000Y-51486446D01*
X52390001Y-51486446D01*
X52753107Y-51123338D01*
X52739304Y-51114665D01*
X52569138Y-51055121D01*
X52390003Y-51034938D01*
X52389997Y-51034938D01*
X52210861Y-51055121D01*
X52210858Y-51055122D01*
X52040701Y-51114662D01*
X52040691Y-51114667D01*
X52026891Y-51123337D01*
X51253105Y-51123337D01*
X51239304Y-51114665D01*
X51069138Y-51055121D01*
X50890003Y-51034938D01*
X50889997Y-51034938D01*
X50710861Y-51055121D01*
X50710858Y-51055122D01*
X50540701Y-51114662D01*
X50540691Y-51114667D01*
X50526891Y-51123337D01*
X47761669Y-51123337D01*
X47775565Y-51000003D01*
X47775565Y-50999996D01*
X47761900Y-50878711D01*
X71149500Y-50878711D01*
X71149500Y-51121288D01*
X71181161Y-51361785D01*
X71243947Y-51596104D01*
X71336773Y-51820205D01*
X71336776Y-51820212D01*
X71458064Y-52030289D01*
X71458066Y-52030292D01*
X71458067Y-52030293D01*
X71605733Y-52222736D01*
X71605739Y-52222743D01*
X71777256Y-52394260D01*
X71777262Y-52394265D01*
X71969711Y-52541936D01*
X72179788Y-52663224D01*
X72310011Y-52717164D01*
X72400464Y-52754631D01*
X72403900Y-52756054D01*
X72638211Y-52818838D01*
X72818586Y-52842584D01*
X72878711Y-52850500D01*
X72878712Y-52850500D01*
X73121289Y-52850500D01*
X73169388Y-52844167D01*
X73361789Y-52818838D01*
X73596100Y-52756054D01*
X73820212Y-52663224D01*
X74030289Y-52541936D01*
X74222738Y-52394265D01*
X74394265Y-52222738D01*
X74541936Y-52030289D01*
X74663224Y-51820212D01*
X74756054Y-51596100D01*
X74818838Y-51361789D01*
X74850500Y-51121288D01*
X74850500Y-50878712D01*
X74818838Y-50638211D01*
X74756054Y-50403900D01*
X74663224Y-50179788D01*
X74541936Y-49969711D01*
X74394265Y-49777262D01*
X74394260Y-49777256D01*
X74222743Y-49605739D01*
X74222736Y-49605733D01*
X74030293Y-49458067D01*
X74030292Y-49458066D01*
X74030289Y-49458064D01*
X73820212Y-49336776D01*
X73820205Y-49336773D01*
X73596104Y-49243947D01*
X73361785Y-49181161D01*
X73121289Y-49149500D01*
X73121288Y-49149500D01*
X72878712Y-49149500D01*
X72878711Y-49149500D01*
X72638214Y-49181161D01*
X72403895Y-49243947D01*
X72179794Y-49336773D01*
X72179785Y-49336777D01*
X71969706Y-49458067D01*
X71777263Y-49605733D01*
X71777256Y-49605739D01*
X71605739Y-49777256D01*
X71605733Y-49777263D01*
X71458067Y-49969706D01*
X71336777Y-50179785D01*
X71336773Y-50179794D01*
X71243947Y-50403895D01*
X71181161Y-50638214D01*
X71149500Y-50878711D01*
X47761900Y-50878711D01*
X47755369Y-50820750D01*
X47755368Y-50820745D01*
X47695788Y-50650476D01*
X47610894Y-50515369D01*
X47599816Y-50497738D01*
X47472262Y-50370184D01*
X47319523Y-50274211D01*
X47149254Y-50214631D01*
X47149249Y-50214630D01*
X46970004Y-50194435D01*
X46969996Y-50194435D01*
X46790750Y-50214630D01*
X46790745Y-50214631D01*
X46620476Y-50274211D01*
X46467737Y-50370184D01*
X46340184Y-50497737D01*
X46244211Y-50650476D01*
X46184631Y-50820745D01*
X46184630Y-50820750D01*
X46164435Y-50999996D01*
X34850500Y-50999996D01*
X34850500Y-50878712D01*
X34818838Y-50638211D01*
X34756054Y-50403900D01*
X34663224Y-50179788D01*
X34541936Y-49969711D01*
X34394265Y-49777262D01*
X34394260Y-49777256D01*
X34347000Y-49729996D01*
X41084435Y-49729996D01*
X41084435Y-49730003D01*
X41104630Y-49909249D01*
X41104631Y-49909254D01*
X41164211Y-50079523D01*
X41227210Y-50179785D01*
X41260184Y-50232262D01*
X41387738Y-50359816D01*
X41540478Y-50455789D01*
X41710745Y-50515368D01*
X41710750Y-50515369D01*
X41889996Y-50535565D01*
X41890000Y-50535565D01*
X41890004Y-50535565D01*
X42069249Y-50515369D01*
X42069252Y-50515368D01*
X42069255Y-50515368D01*
X42239522Y-50455789D01*
X42392262Y-50359816D01*
X42519816Y-50232262D01*
X42615789Y-50079522D01*
X42675368Y-49909255D01*
X42679763Y-49870248D01*
X42695565Y-49730003D01*
X42695565Y-49729996D01*
X55054435Y-49729996D01*
X55054435Y-49730003D01*
X55074630Y-49909249D01*
X55074631Y-49909254D01*
X55134211Y-50079523D01*
X55197210Y-50179785D01*
X55230184Y-50232262D01*
X55357738Y-50359816D01*
X55510478Y-50455789D01*
X55680745Y-50515368D01*
X55680750Y-50515369D01*
X55859996Y-50535565D01*
X55860000Y-50535565D01*
X55860004Y-50535565D01*
X56039249Y-50515369D01*
X56039252Y-50515368D01*
X56039255Y-50515368D01*
X56209522Y-50455789D01*
X56362262Y-50359816D01*
X56489816Y-50232262D01*
X56585789Y-50079522D01*
X56645368Y-49909255D01*
X56649763Y-49870248D01*
X56665565Y-49730003D01*
X56665565Y-49729996D01*
X56645369Y-49550750D01*
X56645368Y-49550745D01*
X56613993Y-49461080D01*
X56585789Y-49380478D01*
X56489816Y-49227738D01*
X56362262Y-49100184D01*
X56351820Y-49093623D01*
X56209523Y-49004211D01*
X56039254Y-48944631D01*
X56039249Y-48944630D01*
X55860004Y-48924435D01*
X55859996Y-48924435D01*
X55680750Y-48944630D01*
X55680745Y-48944631D01*
X55510476Y-49004211D01*
X55357737Y-49100184D01*
X55230184Y-49227737D01*
X55134211Y-49380476D01*
X55074631Y-49550745D01*
X55074630Y-49550750D01*
X55054435Y-49729996D01*
X42695565Y-49729996D01*
X42675369Y-49550750D01*
X42675368Y-49550745D01*
X42643993Y-49461080D01*
X42615789Y-49380478D01*
X42519816Y-49227738D01*
X42392262Y-49100184D01*
X42381820Y-49093623D01*
X42239523Y-49004211D01*
X42069254Y-48944631D01*
X42069249Y-48944630D01*
X41890004Y-48924435D01*
X41889996Y-48924435D01*
X41710750Y-48944630D01*
X41710745Y-48944631D01*
X41540476Y-49004211D01*
X41387737Y-49100184D01*
X41260184Y-49227737D01*
X41164211Y-49380476D01*
X41104631Y-49550745D01*
X41104630Y-49550750D01*
X41084435Y-49729996D01*
X34347000Y-49729996D01*
X34222743Y-49605739D01*
X34222736Y-49605733D01*
X34030293Y-49458067D01*
X34030292Y-49458066D01*
X34030289Y-49458064D01*
X33820212Y-49336776D01*
X33820205Y-49336773D01*
X33596104Y-49243947D01*
X33361785Y-49181161D01*
X33121289Y-49149500D01*
X33121288Y-49149500D01*
X32878712Y-49149500D01*
X32878711Y-49149500D01*
X32638214Y-49181161D01*
X32403895Y-49243947D01*
X32179794Y-49336773D01*
X32179785Y-49336777D01*
X31969706Y-49458067D01*
X31777263Y-49605733D01*
X31777256Y-49605739D01*
X31605739Y-49777256D01*
X31605733Y-49777263D01*
X31458067Y-49969706D01*
X31336777Y-50179785D01*
X31336773Y-50179794D01*
X31243947Y-50403895D01*
X31181161Y-50638214D01*
X31149500Y-50878711D01*
X28505796Y-50878711D01*
X28517386Y-50613226D01*
X28518326Y-50602495D01*
X28568152Y-50224025D01*
X28570025Y-50213405D01*
X28652649Y-49840709D01*
X28655440Y-49830295D01*
X28770230Y-49466227D01*
X28773917Y-49456095D01*
X28920003Y-49103412D01*
X28924561Y-49093638D01*
X29100822Y-48755045D01*
X29106217Y-48745700D01*
X29311325Y-48423744D01*
X29317515Y-48414905D01*
X29549896Y-48112060D01*
X29556834Y-48103791D01*
X29814726Y-47822352D01*
X29822352Y-47814726D01*
X30103791Y-47556834D01*
X30112060Y-47549896D01*
X30414905Y-47317515D01*
X30423744Y-47311325D01*
X30745700Y-47106217D01*
X30755045Y-47100822D01*
X31093638Y-46924561D01*
X31103412Y-46920003D01*
X31456095Y-46773917D01*
X31466227Y-46770230D01*
X31830295Y-46655440D01*
X31840709Y-46652649D01*
X32213405Y-46570025D01*
X32224025Y-46568152D01*
X32602495Y-46518326D01*
X32613226Y-46517386D01*
X32997297Y-46500617D01*
X33002706Y-46500500D01*
X33065892Y-46500500D01*
X72934108Y-46500500D01*
X72997294Y-46500500D01*
X73002702Y-46500617D01*
G37*
%TD.AperFunction*%
%TD*%
M02*
