M48
; DRILL file {KiCad 8.0.5} date 2024-11-16T15:57:53-0600
; FORMAT={-:-/ absolute / metric / decimal}
; #@! TF.CreationDate,2024-11-16T15:57:53-06:00
; #@! TF.GenerationSoftware,Kicad,Pcbnew,8.0.5
; #@! TF.FileFunction,Plated,1,4,PTH
FMAT,2
METRIC
; #@! TA.AperFunction,Plated,PTH,ComponentDrill
T1C0.200
; #@! TA.AperFunction,Plated,PTH,ViaDrill
T2C0.300
; #@! TA.AperFunction,Plated,PTH,ViaDrill
T3C0.500
; #@! TA.AperFunction,Plated,PTH,ComponentDrill
T4C0.600
; #@! TA.AperFunction,Plated,PTH,ComponentDrill
T5C0.650
; #@! TA.AperFunction,Plated,PTH,ComponentDrill
T6C0.950
; #@! TA.AperFunction,Plated,PTH,ViaDrill
T7C1.000
; #@! TA.AperFunction,Plated,PTH,ComponentDrill
T8C1.000
; #@! TA.AperFunction,Plated,PTH,ComponentDrill
T9C1.050
; #@! TA.AperFunction,Plated,PTH,ComponentDrill
T10C1.100
; #@! TA.AperFunction,Plated,PTH,ComponentDrill
T11C1.143
; #@! TA.AperFunction,Plated,PTH,ComponentDrill
T12C3.050
%
G90
G05
T1
X76.995Y-78.788
X76.995Y-80.288
X77.745Y-78.038
X77.745Y-79.538
X77.745Y-81.038
X78.495Y-78.788
X78.495Y-80.288
X79.245Y-78.038
X79.245Y-79.538
X79.245Y-81.038
X79.995Y-78.788
X79.995Y-80.288
T2
X30.991Y-118.261
X32.241Y-80.161
X32.241Y-83.971
X32.241Y-87.781
X32.241Y-91.591
X32.241Y-95.401
X32.241Y-99.211
X33.511Y-118.261
X34.146Y-76.351
X34.146Y-98.576
X35.416Y-120.166
X36.051Y-103.021
X36.686Y-92.226
X37.321Y-83.336
X37.321Y-103.656
X38.359Y-80.161
X38.591Y-95.401
X38.591Y-99.211
X39.861Y-106.831
X40.496Y-108.101
X41.766Y-78.256
X41.766Y-103.021
X41.766Y-123.341
X43.036Y-97.306
X43.671Y-80.796
X44.709Y-95.401
X44.979Y-87.781
X46.846Y-64.286
X48.151Y-96.712
X48.751Y-86.511
X49.386Y-78.256
X51.291Y-59.841
X53.196Y-89.686
X53.831Y-80.161
X54.466Y-113.816
X56.371Y-83.971
X56.371Y-101.116
X57.641Y-103.656
X58.276Y-96.036
X58.276Y-97.941
X58.911Y-73.811
X58.911Y-112.546
X59.546Y-90.956
X60.851Y-70.18
X61.451Y-78.891
X62.721Y-84.606
X62.721Y-106.196
X63.356Y-78.891
X63.991Y-81.431
X64.626Y-92.226
X67.801Y-74.446
X67.801Y-83.971
X67.801Y-85.876
X67.801Y-95.401
X67.801Y-100.481
X68.431Y-73.811
X68.436Y-78.256
X68.543Y-76.458
X69.071Y-75.081
X69.071Y-94.766
X69.706Y-101.751
X70.341Y-74.446
X70.976Y-56.666
X70.976Y-75.716
X72.246Y-84.606
X74.151Y-74.446
X74.151Y-87.146
X74.786Y-56.666
X74.786Y-97.941
X74.786Y-103.021
X75.421Y-82.066
X75.421Y-84.606
X76.691Y-73.811
X78.596Y-98.576
X79.866Y-74.446
X80.501Y-84.606
X80.501Y-85.876
X80.501Y-87.146
X81.305Y-98.576
T3
X83.86Y-92.624
T6
X55.101Y-52.856
X55.101Y-55.356
X55.101Y-57.856
X55.101Y-60.356
X55.101Y-62.856
T7
X37.321Y-66.191
X43.671Y-69.366
X50.021Y-69.366
X81.771Y-69.366
X82.406Y-75.716
T8
X31.626Y-68.711
X31.626Y-71.251
X34.166Y-68.711
X34.166Y-71.251
T9
X59.376Y-121.771
X60.761Y-124.611
X62.146Y-121.771
X63.531Y-124.611
X64.916Y-121.771
X66.301Y-124.611
X67.686Y-121.771
X69.071Y-124.611
X70.456Y-121.771
T10
X60.181Y-51.586
X62.721Y-51.586
T11
X47.841Y-108.101
X50.341Y-108.101
X52.841Y-108.101
X55.341Y-108.101
X57.841Y-108.101
X59.031Y-60.773
X60.341Y-108.101
X61.531Y-60.773
X62.841Y-108.101
X64.031Y-60.773
X65.341Y-108.101
X66.531Y-60.773
X67.841Y-108.101
X69.031Y-60.773
X70.341Y-108.101
X71.531Y-60.773
X74.031Y-60.773
X76.531Y-60.773
X79.031Y-60.773
X81.531Y-60.773
T12
X52.421Y-123.191
X77.411Y-123.191
T4
X36.227Y-129.492G85X36.227Y-130.192
G05
X44.577Y-129.492G85X44.577Y-130.192
G05
T5
X38.177Y-126.742G85X38.177Y-126.942
G05
X42.627Y-126.742G85X42.627Y-126.942
G05
M30
