%TF.GenerationSoftware,KiCad,Pcbnew,8.0.5*%
%TF.CreationDate,2024-10-10T20:32:44-06:00*%
%TF.ProjectId,PancakeCNCPCB,50616e63-616b-4654-934e-435043422e6b,rev?*%
%TF.SameCoordinates,Original*%
%TF.FileFunction,Legend,Top*%
%TF.FilePolarity,Positive*%
%FSLAX46Y46*%
G04 Gerber Fmt 4.6, Leading zero omitted, Abs format (unit mm)*
G04 Created by KiCad (PCBNEW 8.0.5) date 2024-10-10 20:32:44*
%MOMM*%
%LPD*%
G01*
G04 APERTURE LIST*
%ADD10C,0.300000*%
%ADD11C,0.150000*%
%ADD12C,0.120000*%
%ADD13C,0.152400*%
%ADD14C,0.508000*%
%ADD15C,0.127000*%
%ADD16C,0.200000*%
G04 APERTURE END LIST*
D10*
X27377149Y-105452573D02*
X24377149Y-105452573D01*
X24377149Y-105452573D02*
X24377149Y-104309716D01*
X24377149Y-104309716D02*
X24520006Y-104024001D01*
X24520006Y-104024001D02*
X24662863Y-103881144D01*
X24662863Y-103881144D02*
X24948577Y-103738287D01*
X24948577Y-103738287D02*
X25377149Y-103738287D01*
X25377149Y-103738287D02*
X25662863Y-103881144D01*
X25662863Y-103881144D02*
X25805720Y-104024001D01*
X25805720Y-104024001D02*
X25948577Y-104309716D01*
X25948577Y-104309716D02*
X25948577Y-105452573D01*
X27377149Y-101166859D02*
X25805720Y-101166859D01*
X25805720Y-101166859D02*
X25520006Y-101309716D01*
X25520006Y-101309716D02*
X25377149Y-101595430D01*
X25377149Y-101595430D02*
X25377149Y-102166859D01*
X25377149Y-102166859D02*
X25520006Y-102452573D01*
X27234292Y-101166859D02*
X27377149Y-101452573D01*
X27377149Y-101452573D02*
X27377149Y-102166859D01*
X27377149Y-102166859D02*
X27234292Y-102452573D01*
X27234292Y-102452573D02*
X26948577Y-102595430D01*
X26948577Y-102595430D02*
X26662863Y-102595430D01*
X26662863Y-102595430D02*
X26377149Y-102452573D01*
X26377149Y-102452573D02*
X26234292Y-102166859D01*
X26234292Y-102166859D02*
X26234292Y-101452573D01*
X26234292Y-101452573D02*
X26091434Y-101166859D01*
X25377149Y-99738287D02*
X27377149Y-99738287D01*
X25662863Y-99738287D02*
X25520006Y-99595430D01*
X25520006Y-99595430D02*
X25377149Y-99309715D01*
X25377149Y-99309715D02*
X25377149Y-98881144D01*
X25377149Y-98881144D02*
X25520006Y-98595430D01*
X25520006Y-98595430D02*
X25805720Y-98452573D01*
X25805720Y-98452573D02*
X27377149Y-98452573D01*
X27234292Y-95738287D02*
X27377149Y-96024001D01*
X27377149Y-96024001D02*
X27377149Y-96595429D01*
X27377149Y-96595429D02*
X27234292Y-96881144D01*
X27234292Y-96881144D02*
X27091434Y-97024001D01*
X27091434Y-97024001D02*
X26805720Y-97166858D01*
X26805720Y-97166858D02*
X25948577Y-97166858D01*
X25948577Y-97166858D02*
X25662863Y-97024001D01*
X25662863Y-97024001D02*
X25520006Y-96881144D01*
X25520006Y-96881144D02*
X25377149Y-96595429D01*
X25377149Y-96595429D02*
X25377149Y-96024001D01*
X25377149Y-96024001D02*
X25520006Y-95738287D01*
X27377149Y-93166858D02*
X25805720Y-93166858D01*
X25805720Y-93166858D02*
X25520006Y-93309715D01*
X25520006Y-93309715D02*
X25377149Y-93595429D01*
X25377149Y-93595429D02*
X25377149Y-94166858D01*
X25377149Y-94166858D02*
X25520006Y-94452572D01*
X27234292Y-93166858D02*
X27377149Y-93452572D01*
X27377149Y-93452572D02*
X27377149Y-94166858D01*
X27377149Y-94166858D02*
X27234292Y-94452572D01*
X27234292Y-94452572D02*
X26948577Y-94595429D01*
X26948577Y-94595429D02*
X26662863Y-94595429D01*
X26662863Y-94595429D02*
X26377149Y-94452572D01*
X26377149Y-94452572D02*
X26234292Y-94166858D01*
X26234292Y-94166858D02*
X26234292Y-93452572D01*
X26234292Y-93452572D02*
X26091434Y-93166858D01*
X27377149Y-91738286D02*
X24377149Y-91738286D01*
X26234292Y-91452572D02*
X27377149Y-90595429D01*
X25377149Y-90595429D02*
X26520006Y-91738286D01*
X27234292Y-88166858D02*
X27377149Y-88452572D01*
X27377149Y-88452572D02*
X27377149Y-89024001D01*
X27377149Y-89024001D02*
X27234292Y-89309715D01*
X27234292Y-89309715D02*
X26948577Y-89452572D01*
X26948577Y-89452572D02*
X25805720Y-89452572D01*
X25805720Y-89452572D02*
X25520006Y-89309715D01*
X25520006Y-89309715D02*
X25377149Y-89024001D01*
X25377149Y-89024001D02*
X25377149Y-88452572D01*
X25377149Y-88452572D02*
X25520006Y-88166858D01*
X25520006Y-88166858D02*
X25805720Y-88024001D01*
X25805720Y-88024001D02*
X26091434Y-88024001D01*
X26091434Y-88024001D02*
X26377149Y-89452572D01*
X27091434Y-82738286D02*
X27234292Y-82881143D01*
X27234292Y-82881143D02*
X27377149Y-83309715D01*
X27377149Y-83309715D02*
X27377149Y-83595429D01*
X27377149Y-83595429D02*
X27234292Y-84024000D01*
X27234292Y-84024000D02*
X26948577Y-84309715D01*
X26948577Y-84309715D02*
X26662863Y-84452572D01*
X26662863Y-84452572D02*
X26091434Y-84595429D01*
X26091434Y-84595429D02*
X25662863Y-84595429D01*
X25662863Y-84595429D02*
X25091434Y-84452572D01*
X25091434Y-84452572D02*
X24805720Y-84309715D01*
X24805720Y-84309715D02*
X24520006Y-84024000D01*
X24520006Y-84024000D02*
X24377149Y-83595429D01*
X24377149Y-83595429D02*
X24377149Y-83309715D01*
X24377149Y-83309715D02*
X24520006Y-82881143D01*
X24520006Y-82881143D02*
X24662863Y-82738286D01*
X27377149Y-81452572D02*
X24377149Y-81452572D01*
X24377149Y-81452572D02*
X27377149Y-79738286D01*
X27377149Y-79738286D02*
X24377149Y-79738286D01*
X27091434Y-76595429D02*
X27234292Y-76738286D01*
X27234292Y-76738286D02*
X27377149Y-77166858D01*
X27377149Y-77166858D02*
X27377149Y-77452572D01*
X27377149Y-77452572D02*
X27234292Y-77881143D01*
X27234292Y-77881143D02*
X26948577Y-78166858D01*
X26948577Y-78166858D02*
X26662863Y-78309715D01*
X26662863Y-78309715D02*
X26091434Y-78452572D01*
X26091434Y-78452572D02*
X25662863Y-78452572D01*
X25662863Y-78452572D02*
X25091434Y-78309715D01*
X25091434Y-78309715D02*
X24805720Y-78166858D01*
X24805720Y-78166858D02*
X24520006Y-77881143D01*
X24520006Y-77881143D02*
X24377149Y-77452572D01*
X24377149Y-77452572D02*
X24377149Y-77166858D01*
X24377149Y-77166858D02*
X24520006Y-76738286D01*
X24520006Y-76738286D02*
X24662863Y-76595429D01*
D11*
X38726779Y-50110668D02*
X38726779Y-50920191D01*
X38726779Y-50920191D02*
X38774398Y-51015429D01*
X38774398Y-51015429D02*
X38822017Y-51063049D01*
X38822017Y-51063049D02*
X38917255Y-51110668D01*
X38917255Y-51110668D02*
X39107731Y-51110668D01*
X39107731Y-51110668D02*
X39202969Y-51063049D01*
X39202969Y-51063049D02*
X39250588Y-51015429D01*
X39250588Y-51015429D02*
X39298207Y-50920191D01*
X39298207Y-50920191D02*
X39298207Y-50110668D01*
X39726779Y-50205906D02*
X39774398Y-50158287D01*
X39774398Y-50158287D02*
X39869636Y-50110668D01*
X39869636Y-50110668D02*
X40107731Y-50110668D01*
X40107731Y-50110668D02*
X40202969Y-50158287D01*
X40202969Y-50158287D02*
X40250588Y-50205906D01*
X40250588Y-50205906D02*
X40298207Y-50301144D01*
X40298207Y-50301144D02*
X40298207Y-50396382D01*
X40298207Y-50396382D02*
X40250588Y-50539239D01*
X40250588Y-50539239D02*
X39679160Y-51110668D01*
X39679160Y-51110668D02*
X40298207Y-51110668D01*
X32666666Y-54264819D02*
X32666666Y-54979104D01*
X32666666Y-54979104D02*
X32619047Y-55121961D01*
X32619047Y-55121961D02*
X32523809Y-55217200D01*
X32523809Y-55217200D02*
X32380952Y-55264819D01*
X32380952Y-55264819D02*
X32285714Y-55264819D01*
X33666666Y-55264819D02*
X33095238Y-55264819D01*
X33380952Y-55264819D02*
X33380952Y-54264819D01*
X33380952Y-54264819D02*
X33285714Y-54407676D01*
X33285714Y-54407676D02*
X33190476Y-54502914D01*
X33190476Y-54502914D02*
X33095238Y-54550533D01*
X73395947Y-109678256D02*
X73062614Y-109202065D01*
X72824519Y-109678256D02*
X72824519Y-108678256D01*
X72824519Y-108678256D02*
X73205471Y-108678256D01*
X73205471Y-108678256D02*
X73300709Y-108725875D01*
X73300709Y-108725875D02*
X73348328Y-108773494D01*
X73348328Y-108773494D02*
X73395947Y-108868732D01*
X73395947Y-108868732D02*
X73395947Y-109011589D01*
X73395947Y-109011589D02*
X73348328Y-109106827D01*
X73348328Y-109106827D02*
X73300709Y-109154446D01*
X73300709Y-109154446D02*
X73205471Y-109202065D01*
X73205471Y-109202065D02*
X72824519Y-109202065D01*
X73776900Y-108773494D02*
X73824519Y-108725875D01*
X73824519Y-108725875D02*
X73919757Y-108678256D01*
X73919757Y-108678256D02*
X74157852Y-108678256D01*
X74157852Y-108678256D02*
X74253090Y-108725875D01*
X74253090Y-108725875D02*
X74300709Y-108773494D01*
X74300709Y-108773494D02*
X74348328Y-108868732D01*
X74348328Y-108868732D02*
X74348328Y-108963970D01*
X74348328Y-108963970D02*
X74300709Y-109106827D01*
X74300709Y-109106827D02*
X73729281Y-109678256D01*
X73729281Y-109678256D02*
X74348328Y-109678256D01*
X43096667Y-98397200D02*
X43239524Y-98444819D01*
X43239524Y-98444819D02*
X43477619Y-98444819D01*
X43477619Y-98444819D02*
X43572857Y-98397200D01*
X43572857Y-98397200D02*
X43620476Y-98349580D01*
X43620476Y-98349580D02*
X43668095Y-98254342D01*
X43668095Y-98254342D02*
X43668095Y-98159104D01*
X43668095Y-98159104D02*
X43620476Y-98063866D01*
X43620476Y-98063866D02*
X43572857Y-98016247D01*
X43572857Y-98016247D02*
X43477619Y-97968628D01*
X43477619Y-97968628D02*
X43287143Y-97921009D01*
X43287143Y-97921009D02*
X43191905Y-97873390D01*
X43191905Y-97873390D02*
X43144286Y-97825771D01*
X43144286Y-97825771D02*
X43096667Y-97730533D01*
X43096667Y-97730533D02*
X43096667Y-97635295D01*
X43096667Y-97635295D02*
X43144286Y-97540057D01*
X43144286Y-97540057D02*
X43191905Y-97492438D01*
X43191905Y-97492438D02*
X43287143Y-97444819D01*
X43287143Y-97444819D02*
X43525238Y-97444819D01*
X43525238Y-97444819D02*
X43668095Y-97492438D01*
X44001429Y-97444819D02*
X44239524Y-98444819D01*
X44239524Y-98444819D02*
X44430000Y-97730533D01*
X44430000Y-97730533D02*
X44620476Y-98444819D01*
X44620476Y-98444819D02*
X44858572Y-97444819D01*
X45763333Y-98444819D02*
X45191905Y-98444819D01*
X45477619Y-98444819D02*
X45477619Y-97444819D01*
X45477619Y-97444819D02*
X45382381Y-97587676D01*
X45382381Y-97587676D02*
X45287143Y-97682914D01*
X45287143Y-97682914D02*
X45191905Y-97730533D01*
X69090433Y-109610975D02*
X69090433Y-108610975D01*
X69090433Y-108610975D02*
X69328528Y-108610975D01*
X69328528Y-108610975D02*
X69471385Y-108658594D01*
X69471385Y-108658594D02*
X69566623Y-108753832D01*
X69566623Y-108753832D02*
X69614242Y-108849070D01*
X69614242Y-108849070D02*
X69661861Y-109039546D01*
X69661861Y-109039546D02*
X69661861Y-109182403D01*
X69661861Y-109182403D02*
X69614242Y-109372879D01*
X69614242Y-109372879D02*
X69566623Y-109468117D01*
X69566623Y-109468117D02*
X69471385Y-109563356D01*
X69471385Y-109563356D02*
X69328528Y-109610975D01*
X69328528Y-109610975D02*
X69090433Y-109610975D01*
X70614242Y-109610975D02*
X70042814Y-109610975D01*
X70328528Y-109610975D02*
X70328528Y-108610975D01*
X70328528Y-108610975D02*
X70233290Y-108753832D01*
X70233290Y-108753832D02*
X70138052Y-108849070D01*
X70138052Y-108849070D02*
X70042814Y-108896689D01*
X42743333Y-77744819D02*
X42410000Y-77268628D01*
X42171905Y-77744819D02*
X42171905Y-76744819D01*
X42171905Y-76744819D02*
X42552857Y-76744819D01*
X42552857Y-76744819D02*
X42648095Y-76792438D01*
X42648095Y-76792438D02*
X42695714Y-76840057D01*
X42695714Y-76840057D02*
X42743333Y-76935295D01*
X42743333Y-76935295D02*
X42743333Y-77078152D01*
X42743333Y-77078152D02*
X42695714Y-77173390D01*
X42695714Y-77173390D02*
X42648095Y-77221009D01*
X42648095Y-77221009D02*
X42552857Y-77268628D01*
X42552857Y-77268628D02*
X42171905Y-77268628D01*
X43314762Y-77173390D02*
X43219524Y-77125771D01*
X43219524Y-77125771D02*
X43171905Y-77078152D01*
X43171905Y-77078152D02*
X43124286Y-76982914D01*
X43124286Y-76982914D02*
X43124286Y-76935295D01*
X43124286Y-76935295D02*
X43171905Y-76840057D01*
X43171905Y-76840057D02*
X43219524Y-76792438D01*
X43219524Y-76792438D02*
X43314762Y-76744819D01*
X43314762Y-76744819D02*
X43505238Y-76744819D01*
X43505238Y-76744819D02*
X43600476Y-76792438D01*
X43600476Y-76792438D02*
X43648095Y-76840057D01*
X43648095Y-76840057D02*
X43695714Y-76935295D01*
X43695714Y-76935295D02*
X43695714Y-76982914D01*
X43695714Y-76982914D02*
X43648095Y-77078152D01*
X43648095Y-77078152D02*
X43600476Y-77125771D01*
X43600476Y-77125771D02*
X43505238Y-77173390D01*
X43505238Y-77173390D02*
X43314762Y-77173390D01*
X43314762Y-77173390D02*
X43219524Y-77221009D01*
X43219524Y-77221009D02*
X43171905Y-77268628D01*
X43171905Y-77268628D02*
X43124286Y-77363866D01*
X43124286Y-77363866D02*
X43124286Y-77554342D01*
X43124286Y-77554342D02*
X43171905Y-77649580D01*
X43171905Y-77649580D02*
X43219524Y-77697200D01*
X43219524Y-77697200D02*
X43314762Y-77744819D01*
X43314762Y-77744819D02*
X43505238Y-77744819D01*
X43505238Y-77744819D02*
X43600476Y-77697200D01*
X43600476Y-77697200D02*
X43648095Y-77649580D01*
X43648095Y-77649580D02*
X43695714Y-77554342D01*
X43695714Y-77554342D02*
X43695714Y-77363866D01*
X43695714Y-77363866D02*
X43648095Y-77268628D01*
X43648095Y-77268628D02*
X43600476Y-77221009D01*
X43600476Y-77221009D02*
X43505238Y-77173390D01*
X49093333Y-82824819D02*
X48760000Y-82348628D01*
X48521905Y-82824819D02*
X48521905Y-81824819D01*
X48521905Y-81824819D02*
X48902857Y-81824819D01*
X48902857Y-81824819D02*
X48998095Y-81872438D01*
X48998095Y-81872438D02*
X49045714Y-81920057D01*
X49045714Y-81920057D02*
X49093333Y-82015295D01*
X49093333Y-82015295D02*
X49093333Y-82158152D01*
X49093333Y-82158152D02*
X49045714Y-82253390D01*
X49045714Y-82253390D02*
X48998095Y-82301009D01*
X48998095Y-82301009D02*
X48902857Y-82348628D01*
X48902857Y-82348628D02*
X48521905Y-82348628D01*
X49569524Y-82824819D02*
X49760000Y-82824819D01*
X49760000Y-82824819D02*
X49855238Y-82777200D01*
X49855238Y-82777200D02*
X49902857Y-82729580D01*
X49902857Y-82729580D02*
X49998095Y-82586723D01*
X49998095Y-82586723D02*
X50045714Y-82396247D01*
X50045714Y-82396247D02*
X50045714Y-82015295D01*
X50045714Y-82015295D02*
X49998095Y-81920057D01*
X49998095Y-81920057D02*
X49950476Y-81872438D01*
X49950476Y-81872438D02*
X49855238Y-81824819D01*
X49855238Y-81824819D02*
X49664762Y-81824819D01*
X49664762Y-81824819D02*
X49569524Y-81872438D01*
X49569524Y-81872438D02*
X49521905Y-81920057D01*
X49521905Y-81920057D02*
X49474286Y-82015295D01*
X49474286Y-82015295D02*
X49474286Y-82253390D01*
X49474286Y-82253390D02*
X49521905Y-82348628D01*
X49521905Y-82348628D02*
X49569524Y-82396247D01*
X49569524Y-82396247D02*
X49664762Y-82443866D01*
X49664762Y-82443866D02*
X49855238Y-82443866D01*
X49855238Y-82443866D02*
X49950476Y-82396247D01*
X49950476Y-82396247D02*
X49998095Y-82348628D01*
X49998095Y-82348628D02*
X50045714Y-82253390D01*
X73648095Y-55156819D02*
X74219523Y-55156819D01*
X73933809Y-56156819D02*
X73933809Y-55156819D01*
X74552857Y-56156819D02*
X74552857Y-55156819D01*
X74552857Y-55156819D02*
X74933809Y-55156819D01*
X74933809Y-55156819D02*
X75029047Y-55204438D01*
X75029047Y-55204438D02*
X75076666Y-55252057D01*
X75076666Y-55252057D02*
X75124285Y-55347295D01*
X75124285Y-55347295D02*
X75124285Y-55490152D01*
X75124285Y-55490152D02*
X75076666Y-55585390D01*
X75076666Y-55585390D02*
X75029047Y-55633009D01*
X75029047Y-55633009D02*
X74933809Y-55680628D01*
X74933809Y-55680628D02*
X74552857Y-55680628D01*
X75505238Y-55252057D02*
X75552857Y-55204438D01*
X75552857Y-55204438D02*
X75648095Y-55156819D01*
X75648095Y-55156819D02*
X75886190Y-55156819D01*
X75886190Y-55156819D02*
X75981428Y-55204438D01*
X75981428Y-55204438D02*
X76029047Y-55252057D01*
X76029047Y-55252057D02*
X76076666Y-55347295D01*
X76076666Y-55347295D02*
X76076666Y-55442533D01*
X76076666Y-55442533D02*
X76029047Y-55585390D01*
X76029047Y-55585390D02*
X75457619Y-56156819D01*
X75457619Y-56156819D02*
X76076666Y-56156819D01*
X52558095Y-134274819D02*
X52558095Y-135084342D01*
X52558095Y-135084342D02*
X52605714Y-135179580D01*
X52605714Y-135179580D02*
X52653333Y-135227200D01*
X52653333Y-135227200D02*
X52748571Y-135274819D01*
X52748571Y-135274819D02*
X52939047Y-135274819D01*
X52939047Y-135274819D02*
X53034285Y-135227200D01*
X53034285Y-135227200D02*
X53081904Y-135179580D01*
X53081904Y-135179580D02*
X53129523Y-135084342D01*
X53129523Y-135084342D02*
X53129523Y-134274819D01*
X53510476Y-134274819D02*
X54129523Y-134274819D01*
X54129523Y-134274819D02*
X53796190Y-134655771D01*
X53796190Y-134655771D02*
X53939047Y-134655771D01*
X53939047Y-134655771D02*
X54034285Y-134703390D01*
X54034285Y-134703390D02*
X54081904Y-134751009D01*
X54081904Y-134751009D02*
X54129523Y-134846247D01*
X54129523Y-134846247D02*
X54129523Y-135084342D01*
X54129523Y-135084342D02*
X54081904Y-135179580D01*
X54081904Y-135179580D02*
X54034285Y-135227200D01*
X54034285Y-135227200D02*
X53939047Y-135274819D01*
X53939047Y-135274819D02*
X53653333Y-135274819D01*
X53653333Y-135274819D02*
X53558095Y-135227200D01*
X53558095Y-135227200D02*
X53510476Y-135179580D01*
X42826666Y-125154819D02*
X42826666Y-125869104D01*
X42826666Y-125869104D02*
X42779047Y-126011961D01*
X42779047Y-126011961D02*
X42683809Y-126107200D01*
X42683809Y-126107200D02*
X42540952Y-126154819D01*
X42540952Y-126154819D02*
X42445714Y-126154819D01*
X43207619Y-125154819D02*
X43874285Y-125154819D01*
X43874285Y-125154819D02*
X43445714Y-126154819D01*
X30126666Y-66964819D02*
X30126666Y-67679104D01*
X30126666Y-67679104D02*
X30079047Y-67821961D01*
X30079047Y-67821961D02*
X29983809Y-67917200D01*
X29983809Y-67917200D02*
X29840952Y-67964819D01*
X29840952Y-67964819D02*
X29745714Y-67964819D01*
X31031428Y-67298152D02*
X31031428Y-67964819D01*
X30793333Y-66917200D02*
X30555238Y-67631485D01*
X30555238Y-67631485D02*
X31174285Y-67631485D01*
X53620837Y-77644725D02*
X53620837Y-76644725D01*
X53620837Y-76644725D02*
X53858932Y-76644725D01*
X53858932Y-76644725D02*
X54001789Y-76692344D01*
X54001789Y-76692344D02*
X54097027Y-76787582D01*
X54097027Y-76787582D02*
X54144646Y-76882820D01*
X54144646Y-76882820D02*
X54192265Y-77073296D01*
X54192265Y-77073296D02*
X54192265Y-77216153D01*
X54192265Y-77216153D02*
X54144646Y-77406629D01*
X54144646Y-77406629D02*
X54097027Y-77501867D01*
X54097027Y-77501867D02*
X54001789Y-77597106D01*
X54001789Y-77597106D02*
X53858932Y-77644725D01*
X53858932Y-77644725D02*
X53620837Y-77644725D01*
X55097027Y-76644725D02*
X54620837Y-76644725D01*
X54620837Y-76644725D02*
X54573218Y-77120915D01*
X54573218Y-77120915D02*
X54620837Y-77073296D01*
X54620837Y-77073296D02*
X54716075Y-77025677D01*
X54716075Y-77025677D02*
X54954170Y-77025677D01*
X54954170Y-77025677D02*
X55049408Y-77073296D01*
X55049408Y-77073296D02*
X55097027Y-77120915D01*
X55097027Y-77120915D02*
X55144646Y-77216153D01*
X55144646Y-77216153D02*
X55144646Y-77454248D01*
X55144646Y-77454248D02*
X55097027Y-77549486D01*
X55097027Y-77549486D02*
X55049408Y-77597106D01*
X55049408Y-77597106D02*
X54954170Y-77644725D01*
X54954170Y-77644725D02*
X54716075Y-77644725D01*
X54716075Y-77644725D02*
X54620837Y-77597106D01*
X54620837Y-77597106D02*
X54573218Y-77549486D01*
X73648095Y-60236819D02*
X74219523Y-60236819D01*
X73933809Y-61236819D02*
X73933809Y-60236819D01*
X74552857Y-61236819D02*
X74552857Y-60236819D01*
X74552857Y-60236819D02*
X74933809Y-60236819D01*
X74933809Y-60236819D02*
X75029047Y-60284438D01*
X75029047Y-60284438D02*
X75076666Y-60332057D01*
X75076666Y-60332057D02*
X75124285Y-60427295D01*
X75124285Y-60427295D02*
X75124285Y-60570152D01*
X75124285Y-60570152D02*
X75076666Y-60665390D01*
X75076666Y-60665390D02*
X75029047Y-60713009D01*
X75029047Y-60713009D02*
X74933809Y-60760628D01*
X74933809Y-60760628D02*
X74552857Y-60760628D01*
X76076666Y-61236819D02*
X75505238Y-61236819D01*
X75790952Y-61236819D02*
X75790952Y-60236819D01*
X75790952Y-60236819D02*
X75695714Y-60379676D01*
X75695714Y-60379676D02*
X75600476Y-60474914D01*
X75600476Y-60474914D02*
X75505238Y-60522533D01*
X69663333Y-119939580D02*
X69615714Y-119987200D01*
X69615714Y-119987200D02*
X69472857Y-120034819D01*
X69472857Y-120034819D02*
X69377619Y-120034819D01*
X69377619Y-120034819D02*
X69234762Y-119987200D01*
X69234762Y-119987200D02*
X69139524Y-119891961D01*
X69139524Y-119891961D02*
X69091905Y-119796723D01*
X69091905Y-119796723D02*
X69044286Y-119606247D01*
X69044286Y-119606247D02*
X69044286Y-119463390D01*
X69044286Y-119463390D02*
X69091905Y-119272914D01*
X69091905Y-119272914D02*
X69139524Y-119177676D01*
X69139524Y-119177676D02*
X69234762Y-119082438D01*
X69234762Y-119082438D02*
X69377619Y-119034819D01*
X69377619Y-119034819D02*
X69472857Y-119034819D01*
X69472857Y-119034819D02*
X69615714Y-119082438D01*
X69615714Y-119082438D02*
X69663333Y-119130057D01*
X70234762Y-119463390D02*
X70139524Y-119415771D01*
X70139524Y-119415771D02*
X70091905Y-119368152D01*
X70091905Y-119368152D02*
X70044286Y-119272914D01*
X70044286Y-119272914D02*
X70044286Y-119225295D01*
X70044286Y-119225295D02*
X70091905Y-119130057D01*
X70091905Y-119130057D02*
X70139524Y-119082438D01*
X70139524Y-119082438D02*
X70234762Y-119034819D01*
X70234762Y-119034819D02*
X70425238Y-119034819D01*
X70425238Y-119034819D02*
X70520476Y-119082438D01*
X70520476Y-119082438D02*
X70568095Y-119130057D01*
X70568095Y-119130057D02*
X70615714Y-119225295D01*
X70615714Y-119225295D02*
X70615714Y-119272914D01*
X70615714Y-119272914D02*
X70568095Y-119368152D01*
X70568095Y-119368152D02*
X70520476Y-119415771D01*
X70520476Y-119415771D02*
X70425238Y-119463390D01*
X70425238Y-119463390D02*
X70234762Y-119463390D01*
X70234762Y-119463390D02*
X70139524Y-119511009D01*
X70139524Y-119511009D02*
X70091905Y-119558628D01*
X70091905Y-119558628D02*
X70044286Y-119653866D01*
X70044286Y-119653866D02*
X70044286Y-119844342D01*
X70044286Y-119844342D02*
X70091905Y-119939580D01*
X70091905Y-119939580D02*
X70139524Y-119987200D01*
X70139524Y-119987200D02*
X70234762Y-120034819D01*
X70234762Y-120034819D02*
X70425238Y-120034819D01*
X70425238Y-120034819D02*
X70520476Y-119987200D01*
X70520476Y-119987200D02*
X70568095Y-119939580D01*
X70568095Y-119939580D02*
X70615714Y-119844342D01*
X70615714Y-119844342D02*
X70615714Y-119653866D01*
X70615714Y-119653866D02*
X70568095Y-119558628D01*
X70568095Y-119558628D02*
X70520476Y-119511009D01*
X70520476Y-119511009D02*
X70425238Y-119463390D01*
X29829273Y-96724887D02*
X29829273Y-97439172D01*
X29829273Y-97439172D02*
X29781654Y-97582029D01*
X29781654Y-97582029D02*
X29686416Y-97677268D01*
X29686416Y-97677268D02*
X29543559Y-97724887D01*
X29543559Y-97724887D02*
X29448321Y-97724887D01*
X30781654Y-96724887D02*
X30305464Y-96724887D01*
X30305464Y-96724887D02*
X30257845Y-97201077D01*
X30257845Y-97201077D02*
X30305464Y-97153458D01*
X30305464Y-97153458D02*
X30400702Y-97105839D01*
X30400702Y-97105839D02*
X30638797Y-97105839D01*
X30638797Y-97105839D02*
X30734035Y-97153458D01*
X30734035Y-97153458D02*
X30781654Y-97201077D01*
X30781654Y-97201077D02*
X30829273Y-97296315D01*
X30829273Y-97296315D02*
X30829273Y-97534410D01*
X30829273Y-97534410D02*
X30781654Y-97629648D01*
X30781654Y-97629648D02*
X30734035Y-97677268D01*
X30734035Y-97677268D02*
X30638797Y-97724887D01*
X30638797Y-97724887D02*
X30400702Y-97724887D01*
X30400702Y-97724887D02*
X30305464Y-97677268D01*
X30305464Y-97677268D02*
X30257845Y-97629648D01*
X65853333Y-114859580D02*
X65805714Y-114907200D01*
X65805714Y-114907200D02*
X65662857Y-114954819D01*
X65662857Y-114954819D02*
X65567619Y-114954819D01*
X65567619Y-114954819D02*
X65424762Y-114907200D01*
X65424762Y-114907200D02*
X65329524Y-114811961D01*
X65329524Y-114811961D02*
X65281905Y-114716723D01*
X65281905Y-114716723D02*
X65234286Y-114526247D01*
X65234286Y-114526247D02*
X65234286Y-114383390D01*
X65234286Y-114383390D02*
X65281905Y-114192914D01*
X65281905Y-114192914D02*
X65329524Y-114097676D01*
X65329524Y-114097676D02*
X65424762Y-114002438D01*
X65424762Y-114002438D02*
X65567619Y-113954819D01*
X65567619Y-113954819D02*
X65662857Y-113954819D01*
X65662857Y-113954819D02*
X65805714Y-114002438D01*
X65805714Y-114002438D02*
X65853333Y-114050057D01*
X66186667Y-113954819D02*
X66805714Y-113954819D01*
X66805714Y-113954819D02*
X66472381Y-114335771D01*
X66472381Y-114335771D02*
X66615238Y-114335771D01*
X66615238Y-114335771D02*
X66710476Y-114383390D01*
X66710476Y-114383390D02*
X66758095Y-114431009D01*
X66758095Y-114431009D02*
X66805714Y-114526247D01*
X66805714Y-114526247D02*
X66805714Y-114764342D01*
X66805714Y-114764342D02*
X66758095Y-114859580D01*
X66758095Y-114859580D02*
X66710476Y-114907200D01*
X66710476Y-114907200D02*
X66615238Y-114954819D01*
X66615238Y-114954819D02*
X66329524Y-114954819D01*
X66329524Y-114954819D02*
X66234286Y-114907200D01*
X66234286Y-114907200D02*
X66186667Y-114859580D01*
X69496666Y-68234819D02*
X69496666Y-68949104D01*
X69496666Y-68949104D02*
X69449047Y-69091961D01*
X69449047Y-69091961D02*
X69353809Y-69187200D01*
X69353809Y-69187200D02*
X69210952Y-69234819D01*
X69210952Y-69234819D02*
X69115714Y-69234819D01*
X69925238Y-68330057D02*
X69972857Y-68282438D01*
X69972857Y-68282438D02*
X70068095Y-68234819D01*
X70068095Y-68234819D02*
X70306190Y-68234819D01*
X70306190Y-68234819D02*
X70401428Y-68282438D01*
X70401428Y-68282438D02*
X70449047Y-68330057D01*
X70449047Y-68330057D02*
X70496666Y-68425295D01*
X70496666Y-68425295D02*
X70496666Y-68520533D01*
X70496666Y-68520533D02*
X70449047Y-68663390D01*
X70449047Y-68663390D02*
X69877619Y-69234819D01*
X69877619Y-69234819D02*
X70496666Y-69234819D01*
X42780833Y-82699580D02*
X42733214Y-82747200D01*
X42733214Y-82747200D02*
X42590357Y-82794819D01*
X42590357Y-82794819D02*
X42495119Y-82794819D01*
X42495119Y-82794819D02*
X42352262Y-82747200D01*
X42352262Y-82747200D02*
X42257024Y-82651961D01*
X42257024Y-82651961D02*
X42209405Y-82556723D01*
X42209405Y-82556723D02*
X42161786Y-82366247D01*
X42161786Y-82366247D02*
X42161786Y-82223390D01*
X42161786Y-82223390D02*
X42209405Y-82032914D01*
X42209405Y-82032914D02*
X42257024Y-81937676D01*
X42257024Y-81937676D02*
X42352262Y-81842438D01*
X42352262Y-81842438D02*
X42495119Y-81794819D01*
X42495119Y-81794819D02*
X42590357Y-81794819D01*
X42590357Y-81794819D02*
X42733214Y-81842438D01*
X42733214Y-81842438D02*
X42780833Y-81890057D01*
X43733214Y-82794819D02*
X43161786Y-82794819D01*
X43447500Y-82794819D02*
X43447500Y-81794819D01*
X43447500Y-81794819D02*
X43352262Y-81937676D01*
X43352262Y-81937676D02*
X43257024Y-82032914D01*
X43257024Y-82032914D02*
X43161786Y-82080533D01*
X49093333Y-77744819D02*
X48760000Y-77268628D01*
X48521905Y-77744819D02*
X48521905Y-76744819D01*
X48521905Y-76744819D02*
X48902857Y-76744819D01*
X48902857Y-76744819D02*
X48998095Y-76792438D01*
X48998095Y-76792438D02*
X49045714Y-76840057D01*
X49045714Y-76840057D02*
X49093333Y-76935295D01*
X49093333Y-76935295D02*
X49093333Y-77078152D01*
X49093333Y-77078152D02*
X49045714Y-77173390D01*
X49045714Y-77173390D02*
X48998095Y-77221009D01*
X48998095Y-77221009D02*
X48902857Y-77268628D01*
X48902857Y-77268628D02*
X48521905Y-77268628D01*
X49426667Y-76744819D02*
X50093333Y-76744819D01*
X50093333Y-76744819D02*
X49664762Y-77744819D01*
X60560833Y-82699580D02*
X60513214Y-82747200D01*
X60513214Y-82747200D02*
X60370357Y-82794819D01*
X60370357Y-82794819D02*
X60275119Y-82794819D01*
X60275119Y-82794819D02*
X60132262Y-82747200D01*
X60132262Y-82747200D02*
X60037024Y-82651961D01*
X60037024Y-82651961D02*
X59989405Y-82556723D01*
X59989405Y-82556723D02*
X59941786Y-82366247D01*
X59941786Y-82366247D02*
X59941786Y-82223390D01*
X59941786Y-82223390D02*
X59989405Y-82032914D01*
X59989405Y-82032914D02*
X60037024Y-81937676D01*
X60037024Y-81937676D02*
X60132262Y-81842438D01*
X60132262Y-81842438D02*
X60275119Y-81794819D01*
X60275119Y-81794819D02*
X60370357Y-81794819D01*
X60370357Y-81794819D02*
X60513214Y-81842438D01*
X60513214Y-81842438D02*
X60560833Y-81890057D01*
X60941786Y-81890057D02*
X60989405Y-81842438D01*
X60989405Y-81842438D02*
X61084643Y-81794819D01*
X61084643Y-81794819D02*
X61322738Y-81794819D01*
X61322738Y-81794819D02*
X61417976Y-81842438D01*
X61417976Y-81842438D02*
X61465595Y-81890057D01*
X61465595Y-81890057D02*
X61513214Y-81985295D01*
X61513214Y-81985295D02*
X61513214Y-82080533D01*
X61513214Y-82080533D02*
X61465595Y-82223390D01*
X61465595Y-82223390D02*
X60894167Y-82794819D01*
X60894167Y-82794819D02*
X61513214Y-82794819D01*
X62043333Y-114859580D02*
X61995714Y-114907200D01*
X61995714Y-114907200D02*
X61852857Y-114954819D01*
X61852857Y-114954819D02*
X61757619Y-114954819D01*
X61757619Y-114954819D02*
X61614762Y-114907200D01*
X61614762Y-114907200D02*
X61519524Y-114811961D01*
X61519524Y-114811961D02*
X61471905Y-114716723D01*
X61471905Y-114716723D02*
X61424286Y-114526247D01*
X61424286Y-114526247D02*
X61424286Y-114383390D01*
X61424286Y-114383390D02*
X61471905Y-114192914D01*
X61471905Y-114192914D02*
X61519524Y-114097676D01*
X61519524Y-114097676D02*
X61614762Y-114002438D01*
X61614762Y-114002438D02*
X61757619Y-113954819D01*
X61757619Y-113954819D02*
X61852857Y-113954819D01*
X61852857Y-113954819D02*
X61995714Y-114002438D01*
X61995714Y-114002438D02*
X62043333Y-114050057D01*
X62900476Y-114288152D02*
X62900476Y-114954819D01*
X62662381Y-113907200D02*
X62424286Y-114621485D01*
X62424286Y-114621485D02*
X63043333Y-114621485D01*
X50446666Y-107044819D02*
X50446666Y-107759104D01*
X50446666Y-107759104D02*
X50399047Y-107901961D01*
X50399047Y-107901961D02*
X50303809Y-107997200D01*
X50303809Y-107997200D02*
X50160952Y-108044819D01*
X50160952Y-108044819D02*
X50065714Y-108044819D01*
X51351428Y-107044819D02*
X51160952Y-107044819D01*
X51160952Y-107044819D02*
X51065714Y-107092438D01*
X51065714Y-107092438D02*
X51018095Y-107140057D01*
X51018095Y-107140057D02*
X50922857Y-107282914D01*
X50922857Y-107282914D02*
X50875238Y-107473390D01*
X50875238Y-107473390D02*
X50875238Y-107854342D01*
X50875238Y-107854342D02*
X50922857Y-107949580D01*
X50922857Y-107949580D02*
X50970476Y-107997200D01*
X50970476Y-107997200D02*
X51065714Y-108044819D01*
X51065714Y-108044819D02*
X51256190Y-108044819D01*
X51256190Y-108044819D02*
X51351428Y-107997200D01*
X51351428Y-107997200D02*
X51399047Y-107949580D01*
X51399047Y-107949580D02*
X51446666Y-107854342D01*
X51446666Y-107854342D02*
X51446666Y-107616247D01*
X51446666Y-107616247D02*
X51399047Y-107521009D01*
X51399047Y-107521009D02*
X51351428Y-107473390D01*
X51351428Y-107473390D02*
X51256190Y-107425771D01*
X51256190Y-107425771D02*
X51065714Y-107425771D01*
X51065714Y-107425771D02*
X50970476Y-107473390D01*
X50970476Y-107473390D02*
X50922857Y-107521009D01*
X50922857Y-107521009D02*
X50875238Y-107616247D01*
X46208095Y-116494819D02*
X46208095Y-117304342D01*
X46208095Y-117304342D02*
X46255714Y-117399580D01*
X46255714Y-117399580D02*
X46303333Y-117447200D01*
X46303333Y-117447200D02*
X46398571Y-117494819D01*
X46398571Y-117494819D02*
X46589047Y-117494819D01*
X46589047Y-117494819D02*
X46684285Y-117447200D01*
X46684285Y-117447200D02*
X46731904Y-117399580D01*
X46731904Y-117399580D02*
X46779523Y-117304342D01*
X46779523Y-117304342D02*
X46779523Y-116494819D01*
X47779523Y-117494819D02*
X47208095Y-117494819D01*
X47493809Y-117494819D02*
X47493809Y-116494819D01*
X47493809Y-116494819D02*
X47398571Y-116637676D01*
X47398571Y-116637676D02*
X47303333Y-116732914D01*
X47303333Y-116732914D02*
X47208095Y-116780533D01*
X55796667Y-98397200D02*
X55939524Y-98444819D01*
X55939524Y-98444819D02*
X56177619Y-98444819D01*
X56177619Y-98444819D02*
X56272857Y-98397200D01*
X56272857Y-98397200D02*
X56320476Y-98349580D01*
X56320476Y-98349580D02*
X56368095Y-98254342D01*
X56368095Y-98254342D02*
X56368095Y-98159104D01*
X56368095Y-98159104D02*
X56320476Y-98063866D01*
X56320476Y-98063866D02*
X56272857Y-98016247D01*
X56272857Y-98016247D02*
X56177619Y-97968628D01*
X56177619Y-97968628D02*
X55987143Y-97921009D01*
X55987143Y-97921009D02*
X55891905Y-97873390D01*
X55891905Y-97873390D02*
X55844286Y-97825771D01*
X55844286Y-97825771D02*
X55796667Y-97730533D01*
X55796667Y-97730533D02*
X55796667Y-97635295D01*
X55796667Y-97635295D02*
X55844286Y-97540057D01*
X55844286Y-97540057D02*
X55891905Y-97492438D01*
X55891905Y-97492438D02*
X55987143Y-97444819D01*
X55987143Y-97444819D02*
X56225238Y-97444819D01*
X56225238Y-97444819D02*
X56368095Y-97492438D01*
X56701429Y-97444819D02*
X56939524Y-98444819D01*
X56939524Y-98444819D02*
X57130000Y-97730533D01*
X57130000Y-97730533D02*
X57320476Y-98444819D01*
X57320476Y-98444819D02*
X57558572Y-97444819D01*
X57891905Y-97540057D02*
X57939524Y-97492438D01*
X57939524Y-97492438D02*
X58034762Y-97444819D01*
X58034762Y-97444819D02*
X58272857Y-97444819D01*
X58272857Y-97444819D02*
X58368095Y-97492438D01*
X58368095Y-97492438D02*
X58415714Y-97540057D01*
X58415714Y-97540057D02*
X58463333Y-97635295D01*
X58463333Y-97635295D02*
X58463333Y-97730533D01*
X58463333Y-97730533D02*
X58415714Y-97873390D01*
X58415714Y-97873390D02*
X57844286Y-98444819D01*
X57844286Y-98444819D02*
X58463333Y-98444819D01*
X73648095Y-65316819D02*
X74219523Y-65316819D01*
X73933809Y-66316819D02*
X73933809Y-65316819D01*
X74552857Y-66316819D02*
X74552857Y-65316819D01*
X74552857Y-65316819D02*
X74933809Y-65316819D01*
X74933809Y-65316819D02*
X75029047Y-65364438D01*
X75029047Y-65364438D02*
X75076666Y-65412057D01*
X75076666Y-65412057D02*
X75124285Y-65507295D01*
X75124285Y-65507295D02*
X75124285Y-65650152D01*
X75124285Y-65650152D02*
X75076666Y-65745390D01*
X75076666Y-65745390D02*
X75029047Y-65793009D01*
X75029047Y-65793009D02*
X74933809Y-65840628D01*
X74933809Y-65840628D02*
X74552857Y-65840628D01*
X75457619Y-65316819D02*
X76076666Y-65316819D01*
X76076666Y-65316819D02*
X75743333Y-65697771D01*
X75743333Y-65697771D02*
X75886190Y-65697771D01*
X75886190Y-65697771D02*
X75981428Y-65745390D01*
X75981428Y-65745390D02*
X76029047Y-65793009D01*
X76029047Y-65793009D02*
X76076666Y-65888247D01*
X76076666Y-65888247D02*
X76076666Y-66126342D01*
X76076666Y-66126342D02*
X76029047Y-66221580D01*
X76029047Y-66221580D02*
X75981428Y-66269200D01*
X75981428Y-66269200D02*
X75886190Y-66316819D01*
X75886190Y-66316819D02*
X75600476Y-66316819D01*
X75600476Y-66316819D02*
X75505238Y-66269200D01*
X75505238Y-66269200D02*
X75457619Y-66221580D01*
X69663333Y-114954819D02*
X69330000Y-114478628D01*
X69091905Y-114954819D02*
X69091905Y-113954819D01*
X69091905Y-113954819D02*
X69472857Y-113954819D01*
X69472857Y-113954819D02*
X69568095Y-114002438D01*
X69568095Y-114002438D02*
X69615714Y-114050057D01*
X69615714Y-114050057D02*
X69663333Y-114145295D01*
X69663333Y-114145295D02*
X69663333Y-114288152D01*
X69663333Y-114288152D02*
X69615714Y-114383390D01*
X69615714Y-114383390D02*
X69568095Y-114431009D01*
X69568095Y-114431009D02*
X69472857Y-114478628D01*
X69472857Y-114478628D02*
X69091905Y-114478628D01*
X70615714Y-114954819D02*
X70044286Y-114954819D01*
X70330000Y-114954819D02*
X70330000Y-113954819D01*
X70330000Y-113954819D02*
X70234762Y-114097676D01*
X70234762Y-114097676D02*
X70139524Y-114192914D01*
X70139524Y-114192914D02*
X70044286Y-114240533D01*
X60523333Y-72664819D02*
X60190000Y-72188628D01*
X59951905Y-72664819D02*
X59951905Y-71664819D01*
X59951905Y-71664819D02*
X60332857Y-71664819D01*
X60332857Y-71664819D02*
X60428095Y-71712438D01*
X60428095Y-71712438D02*
X60475714Y-71760057D01*
X60475714Y-71760057D02*
X60523333Y-71855295D01*
X60523333Y-71855295D02*
X60523333Y-71998152D01*
X60523333Y-71998152D02*
X60475714Y-72093390D01*
X60475714Y-72093390D02*
X60428095Y-72141009D01*
X60428095Y-72141009D02*
X60332857Y-72188628D01*
X60332857Y-72188628D02*
X59951905Y-72188628D01*
X61380476Y-71664819D02*
X61190000Y-71664819D01*
X61190000Y-71664819D02*
X61094762Y-71712438D01*
X61094762Y-71712438D02*
X61047143Y-71760057D01*
X61047143Y-71760057D02*
X60951905Y-71902914D01*
X60951905Y-71902914D02*
X60904286Y-72093390D01*
X60904286Y-72093390D02*
X60904286Y-72474342D01*
X60904286Y-72474342D02*
X60951905Y-72569580D01*
X60951905Y-72569580D02*
X60999524Y-72617200D01*
X60999524Y-72617200D02*
X61094762Y-72664819D01*
X61094762Y-72664819D02*
X61285238Y-72664819D01*
X61285238Y-72664819D02*
X61380476Y-72617200D01*
X61380476Y-72617200D02*
X61428095Y-72569580D01*
X61428095Y-72569580D02*
X61475714Y-72474342D01*
X61475714Y-72474342D02*
X61475714Y-72236247D01*
X61475714Y-72236247D02*
X61428095Y-72141009D01*
X61428095Y-72141009D02*
X61380476Y-72093390D01*
X61380476Y-72093390D02*
X61285238Y-72045771D01*
X61285238Y-72045771D02*
X61094762Y-72045771D01*
X61094762Y-72045771D02*
X60999524Y-72093390D01*
X60999524Y-72093390D02*
X60951905Y-72141009D01*
X60951905Y-72141009D02*
X60904286Y-72236247D01*
X64416666Y-124824819D02*
X64416666Y-125539104D01*
X64416666Y-125539104D02*
X64369047Y-125681961D01*
X64369047Y-125681961D02*
X64273809Y-125777200D01*
X64273809Y-125777200D02*
X64130952Y-125824819D01*
X64130952Y-125824819D02*
X64035714Y-125824819D01*
X64797619Y-124824819D02*
X65416666Y-124824819D01*
X65416666Y-124824819D02*
X65083333Y-125205771D01*
X65083333Y-125205771D02*
X65226190Y-125205771D01*
X65226190Y-125205771D02*
X65321428Y-125253390D01*
X65321428Y-125253390D02*
X65369047Y-125301009D01*
X65369047Y-125301009D02*
X65416666Y-125396247D01*
X65416666Y-125396247D02*
X65416666Y-125634342D01*
X65416666Y-125634342D02*
X65369047Y-125729580D01*
X65369047Y-125729580D02*
X65321428Y-125777200D01*
X65321428Y-125777200D02*
X65226190Y-125824819D01*
X65226190Y-125824819D02*
X64940476Y-125824819D01*
X64940476Y-125824819D02*
X64845238Y-125777200D01*
X64845238Y-125777200D02*
X64797619Y-125729580D01*
X62043333Y-119939580D02*
X61995714Y-119987200D01*
X61995714Y-119987200D02*
X61852857Y-120034819D01*
X61852857Y-120034819D02*
X61757619Y-120034819D01*
X61757619Y-120034819D02*
X61614762Y-119987200D01*
X61614762Y-119987200D02*
X61519524Y-119891961D01*
X61519524Y-119891961D02*
X61471905Y-119796723D01*
X61471905Y-119796723D02*
X61424286Y-119606247D01*
X61424286Y-119606247D02*
X61424286Y-119463390D01*
X61424286Y-119463390D02*
X61471905Y-119272914D01*
X61471905Y-119272914D02*
X61519524Y-119177676D01*
X61519524Y-119177676D02*
X61614762Y-119082438D01*
X61614762Y-119082438D02*
X61757619Y-119034819D01*
X61757619Y-119034819D02*
X61852857Y-119034819D01*
X61852857Y-119034819D02*
X61995714Y-119082438D01*
X61995714Y-119082438D02*
X62043333Y-119130057D01*
X62948095Y-119034819D02*
X62471905Y-119034819D01*
X62471905Y-119034819D02*
X62424286Y-119511009D01*
X62424286Y-119511009D02*
X62471905Y-119463390D01*
X62471905Y-119463390D02*
X62567143Y-119415771D01*
X62567143Y-119415771D02*
X62805238Y-119415771D01*
X62805238Y-119415771D02*
X62900476Y-119463390D01*
X62900476Y-119463390D02*
X62948095Y-119511009D01*
X62948095Y-119511009D02*
X62995714Y-119606247D01*
X62995714Y-119606247D02*
X62995714Y-119844342D01*
X62995714Y-119844342D02*
X62948095Y-119939580D01*
X62948095Y-119939580D02*
X62900476Y-119987200D01*
X62900476Y-119987200D02*
X62805238Y-120034819D01*
X62805238Y-120034819D02*
X62567143Y-120034819D01*
X62567143Y-120034819D02*
X62471905Y-119987200D01*
X62471905Y-119987200D02*
X62424286Y-119939580D01*
X54713333Y-72664819D02*
X54380000Y-72188628D01*
X54141905Y-72664819D02*
X54141905Y-71664819D01*
X54141905Y-71664819D02*
X54522857Y-71664819D01*
X54522857Y-71664819D02*
X54618095Y-71712438D01*
X54618095Y-71712438D02*
X54665714Y-71760057D01*
X54665714Y-71760057D02*
X54713333Y-71855295D01*
X54713333Y-71855295D02*
X54713333Y-71998152D01*
X54713333Y-71998152D02*
X54665714Y-72093390D01*
X54665714Y-72093390D02*
X54618095Y-72141009D01*
X54618095Y-72141009D02*
X54522857Y-72188628D01*
X54522857Y-72188628D02*
X54141905Y-72188628D01*
X55570476Y-71998152D02*
X55570476Y-72664819D01*
X55332381Y-71617200D02*
X55094286Y-72331485D01*
X55094286Y-72331485D02*
X55713333Y-72331485D01*
X42712221Y-72403887D02*
X42712221Y-71403887D01*
X42712221Y-71403887D02*
X42950316Y-71403887D01*
X42950316Y-71403887D02*
X43093173Y-71451506D01*
X43093173Y-71451506D02*
X43188411Y-71546744D01*
X43188411Y-71546744D02*
X43236030Y-71641982D01*
X43236030Y-71641982D02*
X43283649Y-71832458D01*
X43283649Y-71832458D02*
X43283649Y-71975315D01*
X43283649Y-71975315D02*
X43236030Y-72165791D01*
X43236030Y-72165791D02*
X43188411Y-72261029D01*
X43188411Y-72261029D02*
X43093173Y-72356268D01*
X43093173Y-72356268D02*
X42950316Y-72403887D01*
X42950316Y-72403887D02*
X42712221Y-72403887D01*
X44140792Y-71737220D02*
X44140792Y-72403887D01*
X43902697Y-71356268D02*
X43664602Y-72070553D01*
X43664602Y-72070553D02*
X44283649Y-72070553D01*
X50018095Y-86274819D02*
X50018095Y-87084342D01*
X50018095Y-87084342D02*
X50065714Y-87179580D01*
X50065714Y-87179580D02*
X50113333Y-87227200D01*
X50113333Y-87227200D02*
X50208571Y-87274819D01*
X50208571Y-87274819D02*
X50399047Y-87274819D01*
X50399047Y-87274819D02*
X50494285Y-87227200D01*
X50494285Y-87227200D02*
X50541904Y-87179580D01*
X50541904Y-87179580D02*
X50589523Y-87084342D01*
X50589523Y-87084342D02*
X50589523Y-86274819D01*
X51494285Y-86274819D02*
X51303809Y-86274819D01*
X51303809Y-86274819D02*
X51208571Y-86322438D01*
X51208571Y-86322438D02*
X51160952Y-86370057D01*
X51160952Y-86370057D02*
X51065714Y-86512914D01*
X51065714Y-86512914D02*
X51018095Y-86703390D01*
X51018095Y-86703390D02*
X51018095Y-87084342D01*
X51018095Y-87084342D02*
X51065714Y-87179580D01*
X51065714Y-87179580D02*
X51113333Y-87227200D01*
X51113333Y-87227200D02*
X51208571Y-87274819D01*
X51208571Y-87274819D02*
X51399047Y-87274819D01*
X51399047Y-87274819D02*
X51494285Y-87227200D01*
X51494285Y-87227200D02*
X51541904Y-87179580D01*
X51541904Y-87179580D02*
X51589523Y-87084342D01*
X51589523Y-87084342D02*
X51589523Y-86846247D01*
X51589523Y-86846247D02*
X51541904Y-86751009D01*
X51541904Y-86751009D02*
X51494285Y-86703390D01*
X51494285Y-86703390D02*
X51399047Y-86655771D01*
X51399047Y-86655771D02*
X51208571Y-86655771D01*
X51208571Y-86655771D02*
X51113333Y-86703390D01*
X51113333Y-86703390D02*
X51065714Y-86751009D01*
X51065714Y-86751009D02*
X51018095Y-86846247D01*
X72901905Y-114954819D02*
X72901905Y-113954819D01*
X72901905Y-113954819D02*
X73140000Y-113954819D01*
X73140000Y-113954819D02*
X73282857Y-114002438D01*
X73282857Y-114002438D02*
X73378095Y-114097676D01*
X73378095Y-114097676D02*
X73425714Y-114192914D01*
X73425714Y-114192914D02*
X73473333Y-114383390D01*
X73473333Y-114383390D02*
X73473333Y-114526247D01*
X73473333Y-114526247D02*
X73425714Y-114716723D01*
X73425714Y-114716723D02*
X73378095Y-114811961D01*
X73378095Y-114811961D02*
X73282857Y-114907200D01*
X73282857Y-114907200D02*
X73140000Y-114954819D01*
X73140000Y-114954819D02*
X72901905Y-114954819D01*
X73854286Y-114050057D02*
X73901905Y-114002438D01*
X73901905Y-114002438D02*
X73997143Y-113954819D01*
X73997143Y-113954819D02*
X74235238Y-113954819D01*
X74235238Y-113954819D02*
X74330476Y-114002438D01*
X74330476Y-114002438D02*
X74378095Y-114050057D01*
X74378095Y-114050057D02*
X74425714Y-114145295D01*
X74425714Y-114145295D02*
X74425714Y-114240533D01*
X74425714Y-114240533D02*
X74378095Y-114383390D01*
X74378095Y-114383390D02*
X73806667Y-114954819D01*
X73806667Y-114954819D02*
X74425714Y-114954819D01*
X65853333Y-119939580D02*
X65805714Y-119987200D01*
X65805714Y-119987200D02*
X65662857Y-120034819D01*
X65662857Y-120034819D02*
X65567619Y-120034819D01*
X65567619Y-120034819D02*
X65424762Y-119987200D01*
X65424762Y-119987200D02*
X65329524Y-119891961D01*
X65329524Y-119891961D02*
X65281905Y-119796723D01*
X65281905Y-119796723D02*
X65234286Y-119606247D01*
X65234286Y-119606247D02*
X65234286Y-119463390D01*
X65234286Y-119463390D02*
X65281905Y-119272914D01*
X65281905Y-119272914D02*
X65329524Y-119177676D01*
X65329524Y-119177676D02*
X65424762Y-119082438D01*
X65424762Y-119082438D02*
X65567619Y-119034819D01*
X65567619Y-119034819D02*
X65662857Y-119034819D01*
X65662857Y-119034819D02*
X65805714Y-119082438D01*
X65805714Y-119082438D02*
X65853333Y-119130057D01*
X66710476Y-119034819D02*
X66520000Y-119034819D01*
X66520000Y-119034819D02*
X66424762Y-119082438D01*
X66424762Y-119082438D02*
X66377143Y-119130057D01*
X66377143Y-119130057D02*
X66281905Y-119272914D01*
X66281905Y-119272914D02*
X66234286Y-119463390D01*
X66234286Y-119463390D02*
X66234286Y-119844342D01*
X66234286Y-119844342D02*
X66281905Y-119939580D01*
X66281905Y-119939580D02*
X66329524Y-119987200D01*
X66329524Y-119987200D02*
X66424762Y-120034819D01*
X66424762Y-120034819D02*
X66615238Y-120034819D01*
X66615238Y-120034819D02*
X66710476Y-119987200D01*
X66710476Y-119987200D02*
X66758095Y-119939580D01*
X66758095Y-119939580D02*
X66805714Y-119844342D01*
X66805714Y-119844342D02*
X66805714Y-119606247D01*
X66805714Y-119606247D02*
X66758095Y-119511009D01*
X66758095Y-119511009D02*
X66710476Y-119463390D01*
X66710476Y-119463390D02*
X66615238Y-119415771D01*
X66615238Y-119415771D02*
X66424762Y-119415771D01*
X66424762Y-119415771D02*
X66329524Y-119463390D01*
X66329524Y-119463390D02*
X66281905Y-119511009D01*
X66281905Y-119511009D02*
X66234286Y-119606247D01*
X48771905Y-72464819D02*
X48771905Y-71464819D01*
X48771905Y-71464819D02*
X49010000Y-71464819D01*
X49010000Y-71464819D02*
X49152857Y-71512438D01*
X49152857Y-71512438D02*
X49248095Y-71607676D01*
X49248095Y-71607676D02*
X49295714Y-71702914D01*
X49295714Y-71702914D02*
X49343333Y-71893390D01*
X49343333Y-71893390D02*
X49343333Y-72036247D01*
X49343333Y-72036247D02*
X49295714Y-72226723D01*
X49295714Y-72226723D02*
X49248095Y-72321961D01*
X49248095Y-72321961D02*
X49152857Y-72417200D01*
X49152857Y-72417200D02*
X49010000Y-72464819D01*
X49010000Y-72464819D02*
X48771905Y-72464819D01*
X49676667Y-71464819D02*
X50295714Y-71464819D01*
X50295714Y-71464819D02*
X49962381Y-71845771D01*
X49962381Y-71845771D02*
X50105238Y-71845771D01*
X50105238Y-71845771D02*
X50200476Y-71893390D01*
X50200476Y-71893390D02*
X50248095Y-71941009D01*
X50248095Y-71941009D02*
X50295714Y-72036247D01*
X50295714Y-72036247D02*
X50295714Y-72274342D01*
X50295714Y-72274342D02*
X50248095Y-72369580D01*
X50248095Y-72369580D02*
X50200476Y-72417200D01*
X50200476Y-72417200D02*
X50105238Y-72464819D01*
X50105238Y-72464819D02*
X49819524Y-72464819D01*
X49819524Y-72464819D02*
X49724286Y-72417200D01*
X49724286Y-72417200D02*
X49676667Y-72369580D01*
X62718095Y-108874819D02*
X62718095Y-109684342D01*
X62718095Y-109684342D02*
X62765714Y-109779580D01*
X62765714Y-109779580D02*
X62813333Y-109827200D01*
X62813333Y-109827200D02*
X62908571Y-109874819D01*
X62908571Y-109874819D02*
X63099047Y-109874819D01*
X63099047Y-109874819D02*
X63194285Y-109827200D01*
X63194285Y-109827200D02*
X63241904Y-109779580D01*
X63241904Y-109779580D02*
X63289523Y-109684342D01*
X63289523Y-109684342D02*
X63289523Y-108874819D01*
X64241904Y-108874819D02*
X63765714Y-108874819D01*
X63765714Y-108874819D02*
X63718095Y-109351009D01*
X63718095Y-109351009D02*
X63765714Y-109303390D01*
X63765714Y-109303390D02*
X63860952Y-109255771D01*
X63860952Y-109255771D02*
X64099047Y-109255771D01*
X64099047Y-109255771D02*
X64194285Y-109303390D01*
X64194285Y-109303390D02*
X64241904Y-109351009D01*
X64241904Y-109351009D02*
X64289523Y-109446247D01*
X64289523Y-109446247D02*
X64289523Y-109684342D01*
X64289523Y-109684342D02*
X64241904Y-109779580D01*
X64241904Y-109779580D02*
X64194285Y-109827200D01*
X64194285Y-109827200D02*
X64099047Y-109874819D01*
X64099047Y-109874819D02*
X63860952Y-109874819D01*
X63860952Y-109874819D02*
X63765714Y-109827200D01*
X63765714Y-109827200D02*
X63718095Y-109779580D01*
X60523333Y-77744819D02*
X60190000Y-77268628D01*
X59951905Y-77744819D02*
X59951905Y-76744819D01*
X59951905Y-76744819D02*
X60332857Y-76744819D01*
X60332857Y-76744819D02*
X60428095Y-76792438D01*
X60428095Y-76792438D02*
X60475714Y-76840057D01*
X60475714Y-76840057D02*
X60523333Y-76935295D01*
X60523333Y-76935295D02*
X60523333Y-77078152D01*
X60523333Y-77078152D02*
X60475714Y-77173390D01*
X60475714Y-77173390D02*
X60428095Y-77221009D01*
X60428095Y-77221009D02*
X60332857Y-77268628D01*
X60332857Y-77268628D02*
X59951905Y-77268628D01*
X60856667Y-76744819D02*
X61475714Y-76744819D01*
X61475714Y-76744819D02*
X61142381Y-77125771D01*
X61142381Y-77125771D02*
X61285238Y-77125771D01*
X61285238Y-77125771D02*
X61380476Y-77173390D01*
X61380476Y-77173390D02*
X61428095Y-77221009D01*
X61428095Y-77221009D02*
X61475714Y-77316247D01*
X61475714Y-77316247D02*
X61475714Y-77554342D01*
X61475714Y-77554342D02*
X61428095Y-77649580D01*
X61428095Y-77649580D02*
X61380476Y-77697200D01*
X61380476Y-77697200D02*
X61285238Y-77744819D01*
X61285238Y-77744819D02*
X60999524Y-77744819D01*
X60999524Y-77744819D02*
X60904286Y-77697200D01*
X60904286Y-77697200D02*
X60856667Y-77649580D01*
X73473333Y-119939580D02*
X73425714Y-119987200D01*
X73425714Y-119987200D02*
X73282857Y-120034819D01*
X73282857Y-120034819D02*
X73187619Y-120034819D01*
X73187619Y-120034819D02*
X73044762Y-119987200D01*
X73044762Y-119987200D02*
X72949524Y-119891961D01*
X72949524Y-119891961D02*
X72901905Y-119796723D01*
X72901905Y-119796723D02*
X72854286Y-119606247D01*
X72854286Y-119606247D02*
X72854286Y-119463390D01*
X72854286Y-119463390D02*
X72901905Y-119272914D01*
X72901905Y-119272914D02*
X72949524Y-119177676D01*
X72949524Y-119177676D02*
X73044762Y-119082438D01*
X73044762Y-119082438D02*
X73187619Y-119034819D01*
X73187619Y-119034819D02*
X73282857Y-119034819D01*
X73282857Y-119034819D02*
X73425714Y-119082438D01*
X73425714Y-119082438D02*
X73473333Y-119130057D01*
X73806667Y-119034819D02*
X74473333Y-119034819D01*
X74473333Y-119034819D02*
X74044762Y-120034819D01*
X54713333Y-82824819D02*
X54380000Y-82348628D01*
X54141905Y-82824819D02*
X54141905Y-81824819D01*
X54141905Y-81824819D02*
X54522857Y-81824819D01*
X54522857Y-81824819D02*
X54618095Y-81872438D01*
X54618095Y-81872438D02*
X54665714Y-81920057D01*
X54665714Y-81920057D02*
X54713333Y-82015295D01*
X54713333Y-82015295D02*
X54713333Y-82158152D01*
X54713333Y-82158152D02*
X54665714Y-82253390D01*
X54665714Y-82253390D02*
X54618095Y-82301009D01*
X54618095Y-82301009D02*
X54522857Y-82348628D01*
X54522857Y-82348628D02*
X54141905Y-82348628D01*
X55618095Y-81824819D02*
X55141905Y-81824819D01*
X55141905Y-81824819D02*
X55094286Y-82301009D01*
X55094286Y-82301009D02*
X55141905Y-82253390D01*
X55141905Y-82253390D02*
X55237143Y-82205771D01*
X55237143Y-82205771D02*
X55475238Y-82205771D01*
X55475238Y-82205771D02*
X55570476Y-82253390D01*
X55570476Y-82253390D02*
X55618095Y-82301009D01*
X55618095Y-82301009D02*
X55665714Y-82396247D01*
X55665714Y-82396247D02*
X55665714Y-82634342D01*
X55665714Y-82634342D02*
X55618095Y-82729580D01*
X55618095Y-82729580D02*
X55570476Y-82777200D01*
X55570476Y-82777200D02*
X55475238Y-82824819D01*
X55475238Y-82824819D02*
X55237143Y-82824819D01*
X55237143Y-82824819D02*
X55141905Y-82777200D01*
X55141905Y-82777200D02*
X55094286Y-82729580D01*
D12*
%TO.C,U2*%
X43800000Y-66200000D02*
X43800000Y-65250000D01*
X45200000Y-66200000D02*
X43800000Y-66200000D01*
X60800000Y-66200000D02*
X62200000Y-66200000D01*
X62200000Y-66200000D02*
X62200000Y-65250000D01*
X43800000Y-47250000D02*
X43300000Y-47250000D01*
X43800000Y-46750000D01*
X43800000Y-47250000D01*
G36*
X43800000Y-47250000D02*
G01*
X43300000Y-47250000D01*
X43800000Y-46750000D01*
X43800000Y-47250000D01*
G37*
%TO.C,J1*%
X34800000Y-61255000D02*
X34800000Y-61855000D01*
X34500000Y-61555000D02*
X34800000Y-61855000D01*
X34500000Y-61555000D02*
X34800000Y-61255000D01*
X34270000Y-64125000D02*
X32200000Y-64125000D01*
X34270000Y-63255000D02*
X34270000Y-64125000D01*
X34270000Y-56385000D02*
X34270000Y-57255000D01*
X34270000Y-56385000D02*
X32200000Y-56385000D01*
X29800000Y-64125000D02*
X29550000Y-64125000D01*
X29800000Y-56385000D02*
X29550000Y-56385000D01*
%TO.C,R2*%
X72905000Y-111462936D02*
X72905000Y-111917064D01*
X74375000Y-111462936D02*
X74375000Y-111917064D01*
D13*
%TO.C,SW1*%
X41597900Y-98967900D02*
X41597900Y-99333660D01*
X41597900Y-100557940D02*
X41597900Y-103042060D01*
X41597900Y-104266340D02*
X41597900Y-104632100D01*
X41597900Y-104632100D02*
X47262100Y-104632100D01*
X47262100Y-98967900D02*
X41597900Y-98967900D01*
X47262100Y-99333660D02*
X47262100Y-98967900D01*
X47262100Y-103042060D02*
X47262100Y-100557940D01*
X47262100Y-104632100D02*
X47262100Y-104266340D01*
D12*
%TO.C,D1*%
X68870000Y-109855000D02*
X68870000Y-112715000D01*
X70790000Y-109855000D02*
X68870000Y-109855000D01*
X70790000Y-112715000D02*
X70790000Y-109855000D01*
%TO.C,R8*%
X42682936Y-78205000D02*
X43137064Y-78205000D01*
X42682936Y-79675000D02*
X43137064Y-79675000D01*
%TO.C,R9*%
X49032936Y-83285000D02*
X49487064Y-83285000D01*
X49032936Y-84755000D02*
X49487064Y-84755000D01*
%TO.C,TP2*%
X73960000Y-56400000D02*
X75860000Y-56400000D01*
X73960000Y-58300000D02*
X73960000Y-56400000D01*
X75860000Y-56400000D02*
X75860000Y-58300000D01*
X75860000Y-58300000D02*
X73960000Y-58300000D01*
%TO.C,U3*%
X48120000Y-122375000D02*
X49930000Y-122375000D01*
X48120000Y-123875000D02*
X48120000Y-122375000D01*
X58520000Y-122375000D02*
X56710000Y-122375000D01*
X58520000Y-123875000D02*
X58520000Y-122375000D01*
X57040000Y-120052500D02*
X56710000Y-119812500D01*
X57040000Y-119572500D01*
X57040000Y-120052500D01*
G36*
X57040000Y-120052500D02*
G01*
X56710000Y-119812500D01*
X57040000Y-119572500D01*
X57040000Y-120052500D01*
G37*
%TO.C,J7*%
X40560000Y-127140000D02*
X40560000Y-132340000D01*
X40560000Y-127140000D02*
X43160000Y-127140000D01*
X40560000Y-132340000D02*
X45760000Y-132340000D01*
X43160000Y-127140000D02*
X43160000Y-129740000D01*
X43160000Y-129740000D02*
X45760000Y-129740000D01*
X44430000Y-127140000D02*
X45760000Y-127140000D01*
X45760000Y-127140000D02*
X45760000Y-128470000D01*
X45760000Y-129740000D02*
X45760000Y-132340000D01*
D13*
%TO.C,J4*%
X29578600Y-68688900D02*
X29578600Y-96451100D01*
X29578600Y-96451100D02*
X35827000Y-96451100D01*
X35827000Y-68688900D02*
X29578600Y-68688900D01*
X35827000Y-96451100D02*
X35827000Y-68688900D01*
D14*
X33381000Y-66910900D02*
G75*
G02*
X32619000Y-66910900I-381000J0D01*
G01*
X32619000Y-66910900D02*
G75*
G02*
X33381000Y-66910900I381000J0D01*
G01*
D12*
%TO.C,D5*%
X52995000Y-77980000D02*
X52995000Y-79900000D01*
X52995000Y-79900000D02*
X55855000Y-79900000D01*
X55855000Y-77980000D02*
X52995000Y-77980000D01*
%TO.C,TP1*%
X73960000Y-61480000D02*
X75860000Y-61480000D01*
X73960000Y-63380000D02*
X73960000Y-61480000D01*
X75860000Y-61480000D02*
X75860000Y-63380000D01*
X75860000Y-63380000D02*
X73960000Y-63380000D01*
%TO.C,C8*%
X69095000Y-121858748D02*
X69095000Y-122381252D01*
X70565000Y-121858748D02*
X70565000Y-122381252D01*
D14*
%TO.C,J5*%
X33381000Y-96200900D02*
G75*
G02*
X32619000Y-96200900I-381000J0D01*
G01*
X32619000Y-96200900D02*
G75*
G02*
X33381000Y-96200900I381000J0D01*
G01*
D13*
X35827000Y-125741100D02*
X35827000Y-97978900D01*
X35827000Y-97978900D02*
X29578600Y-97978900D01*
X29578600Y-125741100D02*
X35827000Y-125741100D01*
X29578600Y-97978900D02*
X29578600Y-125741100D01*
D12*
%TO.C,C3*%
X65285000Y-116546248D02*
X65285000Y-117068752D01*
X66755000Y-116546248D02*
X66755000Y-117068752D01*
D15*
%TO.C,J2*%
X64147500Y-70950000D02*
X64147500Y-101760000D01*
X64147500Y-101760000D02*
X76647500Y-101760000D01*
X76647500Y-70950000D02*
X64147500Y-70950000D01*
X76647500Y-101760000D02*
X76647500Y-70950000D01*
X76727500Y-99155000D02*
X81827500Y-99155000D01*
X81827500Y-73555000D02*
X76727500Y-73555000D01*
X82447500Y-98455000D02*
X82447500Y-74255000D01*
X81827500Y-73555000D02*
G75*
G02*
X82447500Y-74255000I-40000J-660000D01*
G01*
X82447500Y-98455000D02*
G75*
G02*
X81827500Y-99155000I-660000J-40000D01*
G01*
D16*
X63577500Y-80515000D02*
G75*
G02*
X63377500Y-80515000I-100000J0D01*
G01*
X63377500Y-80515000D02*
G75*
G02*
X63577500Y-80515000I100000J0D01*
G01*
D12*
%TO.C,C1*%
X42686248Y-83285000D02*
X43208752Y-83285000D01*
X42686248Y-84755000D02*
X43208752Y-84755000D01*
%TO.C,R7*%
X49032936Y-78205000D02*
X49487064Y-78205000D01*
X49032936Y-79675000D02*
X49487064Y-79675000D01*
%TO.C,C2*%
X60466248Y-83285000D02*
X60988752Y-83285000D01*
X60466248Y-84755000D02*
X60988752Y-84755000D01*
%TO.C,C4*%
X61475000Y-116546248D02*
X61475000Y-117068752D01*
X62945000Y-116546248D02*
X62945000Y-117068752D01*
%TO.C,J6*%
X58390000Y-112700000D02*
X58390000Y-108680000D01*
X58390000Y-111200000D02*
X57390000Y-111200000D01*
X58390000Y-108680000D02*
X43170000Y-108680000D01*
X57890000Y-110390000D02*
X58390000Y-110390000D01*
X57890000Y-109180000D02*
X57890000Y-110390000D01*
X57390000Y-111200000D02*
X57390000Y-112700000D01*
X44170000Y-111200000D02*
X44170000Y-112700000D01*
X43670000Y-110390000D02*
X43670000Y-109180000D01*
X43670000Y-109180000D02*
X57890000Y-109180000D01*
X43170000Y-112700000D02*
X58390000Y-112700000D01*
X43170000Y-111200000D02*
X44170000Y-111200000D01*
X43170000Y-110390000D02*
X43670000Y-110390000D01*
X43170000Y-108680000D02*
X43170000Y-112700000D01*
X42870000Y-113000000D02*
X45370000Y-113000000D01*
X42870000Y-110500000D02*
X42870000Y-113000000D01*
%TO.C,U1*%
X38720000Y-116400000D02*
X39980000Y-116400000D01*
X38720000Y-120160000D02*
X38720000Y-116400000D01*
X45540000Y-116400000D02*
X44280000Y-116400000D01*
X45540000Y-120160000D02*
X45540000Y-116400000D01*
X38820000Y-121440000D02*
X38490000Y-121680000D01*
X38490000Y-121200000D01*
X38820000Y-121440000D01*
G36*
X38820000Y-121440000D02*
G01*
X38490000Y-121680000D01*
X38490000Y-121200000D01*
X38820000Y-121440000D01*
G37*
D13*
%TO.C,SW2*%
X54297900Y-98967900D02*
X54297900Y-99333660D01*
X54297900Y-100557940D02*
X54297900Y-103042060D01*
X54297900Y-104266340D02*
X54297900Y-104632100D01*
X54297900Y-104632100D02*
X59962100Y-104632100D01*
X59962100Y-98967900D02*
X54297900Y-98967900D01*
X59962100Y-99333660D02*
X59962100Y-98967900D01*
X59962100Y-103042060D02*
X59962100Y-100557940D01*
X59962100Y-104632100D02*
X59962100Y-104266340D01*
D12*
%TO.C,TP3*%
X73960000Y-66560000D02*
X75860000Y-66560000D01*
X73960000Y-68460000D02*
X73960000Y-66560000D01*
X75860000Y-66560000D02*
X75860000Y-68460000D01*
X75860000Y-68460000D02*
X73960000Y-68460000D01*
%TO.C,R1*%
X69095000Y-116617936D02*
X69095000Y-117072064D01*
X70565000Y-116617936D02*
X70565000Y-117072064D01*
%TO.C,R6*%
X60462936Y-73125000D02*
X60917064Y-73125000D01*
X60462936Y-74595000D02*
X60917064Y-74595000D01*
%TO.C,J3*%
X61620000Y-132710000D02*
X61620000Y-133350000D01*
X61620000Y-133350000D02*
X62020000Y-133350000D01*
X61860000Y-126370000D02*
X61860000Y-133110000D01*
X61860000Y-126370000D02*
X67640000Y-126370000D01*
X61860000Y-127490000D02*
X67640000Y-127490000D01*
X61860000Y-132590000D02*
X67640000Y-132590000D01*
X61860000Y-133110000D02*
X67640000Y-133110000D01*
X67640000Y-126370000D02*
X67640000Y-133110000D01*
%TO.C,C5*%
X61475000Y-122148752D02*
X61475000Y-121626248D01*
X62945000Y-122148752D02*
X62945000Y-121626248D01*
%TO.C,R4*%
X54652936Y-73125000D02*
X55107064Y-73125000D01*
X54652936Y-74595000D02*
X55107064Y-74595000D01*
%TO.C,D4*%
X45170000Y-73010000D02*
X41910000Y-73010000D01*
X45170000Y-74710000D02*
X41910000Y-74710000D01*
X45170000Y-74710000D02*
X45170000Y-73010000D01*
D11*
%TO.C,U6*%
X48455000Y-87745000D02*
X48455000Y-87920000D01*
X48455000Y-87745000D02*
X53105000Y-87745000D01*
X48455000Y-92995000D02*
X48455000Y-92820000D01*
X48455000Y-92995000D02*
X53105000Y-92995000D01*
X53105000Y-87745000D02*
X53105000Y-87920000D01*
X53105000Y-92995000D02*
X53105000Y-92820000D01*
D12*
X47980000Y-87920000D02*
X47740000Y-87590000D01*
X48220000Y-87590000D01*
X47980000Y-87920000D01*
G36*
X47980000Y-87920000D02*
G01*
X47740000Y-87590000D01*
X48220000Y-87590000D01*
X47980000Y-87920000D01*
G37*
%TO.C,D2*%
X72680000Y-115795000D02*
X72680000Y-118655000D01*
X72680000Y-118655000D02*
X74600000Y-118655000D01*
X74600000Y-118655000D02*
X74600000Y-115795000D01*
%TO.C,C6*%
X65285000Y-122148752D02*
X65285000Y-121626248D01*
X66755000Y-122148752D02*
X66755000Y-121626248D01*
%TO.C,D3*%
X47520000Y-73010000D02*
X47520000Y-74710000D01*
X47520000Y-73010000D02*
X50780000Y-73010000D01*
X47520000Y-74710000D02*
X50780000Y-74710000D01*
%TO.C,U5*%
X64240000Y-110180000D02*
X62840000Y-110180000D01*
X64250000Y-112500000D02*
X62840000Y-112500000D01*
X64860000Y-112780000D02*
X64380000Y-112780000D01*
X64620000Y-112450000D01*
X64860000Y-112780000D01*
G36*
X64860000Y-112780000D02*
G01*
X64380000Y-112780000D01*
X64620000Y-112450000D01*
X64860000Y-112780000D01*
G37*
%TO.C,R3*%
X60462936Y-78205000D02*
X60917064Y-78205000D01*
X60462936Y-79675000D02*
X60917064Y-79675000D01*
%TO.C,C7*%
X72905000Y-121858748D02*
X72905000Y-122381252D01*
X74375000Y-121858748D02*
X74375000Y-122381252D01*
%TO.C,R5*%
X54652936Y-83285000D02*
X55107064Y-83285000D01*
X54652936Y-84755000D02*
X55107064Y-84755000D01*
%TD*%
M02*
