%TF.GenerationSoftware,KiCad,Pcbnew,8.0.5*%
%TF.CreationDate,2024-11-16T16:01:40-06:00*%
%TF.ProjectId,ControllerPCB,436f6e74-726f-46c6-9c65-725043422e6b,rev?*%
%TF.SameCoordinates,Original*%
%TF.FileFunction,Copper,L3,Inr*%
%TF.FilePolarity,Positive*%
%FSLAX46Y46*%
G04 Gerber Fmt 4.6, Leading zero omitted, Abs format (unit mm)*
G04 Created by KiCad (PCBNEW 8.0.5) date 2024-11-16 16:01:40*
%MOMM*%
%LPD*%
G01*
G04 APERTURE LIST*
G04 Aperture macros list*
%AMRoundRect*
0 Rectangle with rounded corners*
0 $1 Rounding radius*
0 $2 $3 $4 $5 $6 $7 $8 $9 X,Y pos of 4 corners*
0 Add a 4 corners polygon primitive as box body*
4,1,4,$2,$3,$4,$5,$6,$7,$8,$9,$2,$3,0*
0 Add four circle primitives for the rounded corners*
1,1,$1+$1,$2,$3*
1,1,$1+$1,$4,$5*
1,1,$1+$1,$6,$7*
1,1,$1+$1,$8,$9*
0 Add four rect primitives between the rounded corners*
20,1,$1+$1,$2,$3,$4,$5,0*
20,1,$1+$1,$4,$5,$6,$7,0*
20,1,$1+$1,$6,$7,$8,$9,0*
20,1,$1+$1,$8,$9,$2,$3,0*%
G04 Aperture macros list end*
%TA.AperFunction,ComponentPad*%
%ADD10O,1.000000X1.900000*%
%TD*%
%TA.AperFunction,ComponentPad*%
%ADD11O,1.050000X1.250000*%
%TD*%
%TA.AperFunction,ComponentPad*%
%ADD12R,1.700000X1.700000*%
%TD*%
%TA.AperFunction,ComponentPad*%
%ADD13O,1.700000X1.700000*%
%TD*%
%TA.AperFunction,ComponentPad*%
%ADD14C,1.651000*%
%TD*%
%TA.AperFunction,ComponentPad*%
%ADD15C,0.600000*%
%TD*%
%TA.AperFunction,ComponentPad*%
%ADD16C,4.066000*%
%TD*%
%TA.AperFunction,ComponentPad*%
%ADD17C,1.575000*%
%TD*%
%TA.AperFunction,ComponentPad*%
%ADD18R,1.575000X1.575000*%
%TD*%
%TA.AperFunction,ComponentPad*%
%ADD19RoundRect,0.250000X-0.725000X0.600000X-0.725000X-0.600000X0.725000X-0.600000X0.725000X0.600000X0*%
%TD*%
%TA.AperFunction,ComponentPad*%
%ADD20O,1.950000X1.700000*%
%TD*%
%TA.AperFunction,ComponentPad*%
%ADD21R,2.100000X2.100000*%
%TD*%
%TA.AperFunction,ComponentPad*%
%ADD22C,2.100000*%
%TD*%
%TA.AperFunction,ViaPad*%
%ADD23C,0.600000*%
%TD*%
%TA.AperFunction,ViaPad*%
%ADD24C,1.000000*%
%TD*%
%TA.AperFunction,ViaPad*%
%ADD25C,2.000000*%
%TD*%
%TA.AperFunction,Conductor*%
%ADD26C,0.200000*%
%TD*%
G04 APERTURE END LIST*
D10*
X36226643Y-129842442D03*
D11*
X38176643Y-126842442D03*
X42626643Y-126842442D03*
D10*
X44576643Y-129842442D03*
D12*
X31626239Y-68711037D03*
D13*
X31626239Y-71251037D03*
X34166239Y-68711037D03*
X34166239Y-71251037D03*
D14*
X81531239Y-60773237D03*
X79031239Y-60773237D03*
X76531239Y-60773237D03*
X74031239Y-60773237D03*
X71531239Y-60773237D03*
X69031239Y-60773237D03*
X66531239Y-60773237D03*
X64031239Y-60773237D03*
X61531239Y-60773237D03*
X59031239Y-60773237D03*
X70341239Y-108101037D03*
X67841239Y-108101037D03*
X65341239Y-108101037D03*
X62841239Y-108101037D03*
X60341239Y-108101037D03*
X57841239Y-108101037D03*
X55341239Y-108101037D03*
X52841239Y-108101037D03*
X50341239Y-108101037D03*
X47841239Y-108101037D03*
D15*
X79245239Y-78037637D03*
X77745239Y-78037637D03*
X79995239Y-78787637D03*
X78495239Y-78787637D03*
X76995239Y-78787637D03*
X79245239Y-79537637D03*
X77745239Y-79537637D03*
X79995239Y-80287637D03*
X78495239Y-80287637D03*
X76995239Y-80287637D03*
X79245239Y-81037637D03*
X77745239Y-81037637D03*
D16*
X52421239Y-123191037D03*
X77411239Y-123191037D03*
D17*
X69071239Y-124611037D03*
X66301239Y-124611037D03*
X63531239Y-124611037D03*
X60761239Y-124611037D03*
X70456239Y-121771037D03*
X67686239Y-121771037D03*
X64916239Y-121771037D03*
X62146239Y-121771037D03*
D18*
X59376239Y-121771037D03*
D19*
X55101239Y-52856037D03*
D20*
X55101239Y-55356037D03*
X55101239Y-57856037D03*
X55101239Y-60356037D03*
X55101239Y-62856037D03*
D21*
X60181239Y-51586037D03*
D22*
X62721239Y-51586037D03*
D23*
X54466239Y-113816037D03*
X74151239Y-74446037D03*
X59546239Y-90956037D03*
X70976239Y-75716037D03*
X37321239Y-103656037D03*
X48151239Y-96712064D03*
X41766239Y-78256037D03*
X41766239Y-103021037D03*
X49386239Y-78256037D03*
X69706239Y-101751037D03*
X58276239Y-96036037D03*
X78596239Y-98576037D03*
X74786239Y-97941037D03*
X58276239Y-97941037D03*
X51291239Y-59841037D03*
X37321239Y-83336037D03*
X33511239Y-118261037D03*
X35416239Y-120166037D03*
X39861239Y-106831037D03*
X68431239Y-73811037D03*
X40496239Y-108101037D03*
X67801239Y-74446037D03*
X60851239Y-70179564D03*
X61451239Y-78891037D03*
D24*
X83859979Y-92623591D03*
D23*
X72246239Y-84606037D03*
X74786239Y-56666037D03*
X76691239Y-73811037D03*
X58911239Y-112546037D03*
X62721239Y-84606037D03*
X64626239Y-92226037D03*
X63991239Y-81431037D03*
X69071239Y-94766037D03*
X63356239Y-78891037D03*
X46846239Y-64286037D03*
X58911239Y-73811037D03*
X74786239Y-103021037D03*
X62721239Y-106196037D03*
X81305239Y-98576037D03*
X56371239Y-83971037D03*
X56371239Y-101116037D03*
X57641239Y-103656037D03*
X53196239Y-89686037D03*
X48751239Y-86511037D03*
X43671239Y-80796037D03*
X36686239Y-92226037D03*
X34146239Y-98576037D03*
X67801239Y-95401037D03*
X67801239Y-100481037D03*
X70976239Y-56666037D03*
D25*
X82406239Y-75716037D03*
X81771239Y-69366037D03*
D23*
X79866239Y-74446037D03*
X53831239Y-80161037D03*
X67801239Y-85876037D03*
X67801239Y-83971037D03*
X41766239Y-123341037D03*
D25*
X37321239Y-66191037D03*
X43671239Y-69366037D03*
X50021239Y-69366037D03*
D23*
X68436239Y-78256037D03*
X68543004Y-76457802D03*
X69071239Y-75081037D03*
X70341239Y-74446037D03*
X30991239Y-118261037D03*
X38591239Y-99211037D03*
X38591239Y-95401037D03*
X44978739Y-87781037D03*
X34146239Y-76351037D03*
X38358739Y-80161037D03*
X43036239Y-97306037D03*
X44708739Y-95401037D03*
X36051239Y-103021037D03*
X32241239Y-80161037D03*
X32241239Y-83971037D03*
X32241239Y-99211037D03*
X32241239Y-95401037D03*
X32241239Y-91591037D03*
X32241239Y-87781037D03*
X75421239Y-82066037D03*
X75421239Y-84606037D03*
X74151239Y-87146037D03*
X80501239Y-84606037D03*
X80501239Y-85876037D03*
X80501239Y-87146037D03*
D26*
X39861239Y-106617508D02*
X39861239Y-106831037D01*
X67166239Y-80161037D02*
X66317710Y-80161037D01*
X68431239Y-73811037D02*
X67587710Y-73811037D01*
X67166239Y-74232508D02*
X67166239Y-80161037D01*
X66317710Y-80161037D02*
X39861239Y-106617508D01*
X67587710Y-73811037D02*
X67166239Y-74232508D01*
X40496239Y-107679566D02*
X40496239Y-108101037D01*
X67801239Y-80374566D02*
X40496239Y-107679566D01*
X67801239Y-74446037D02*
X67801239Y-80374566D01*
%TA.AperFunction,Conductor*%
G36*
X81244265Y-46816686D02*
G01*
X81427592Y-46825693D01*
X81578158Y-46833092D01*
X81590266Y-46834284D01*
X81917932Y-46882893D01*
X81929838Y-46885261D01*
X82251175Y-46965755D01*
X82262809Y-46969285D01*
X82574684Y-47080879D01*
X82585920Y-47085533D01*
X82885360Y-47227161D01*
X82896079Y-47232890D01*
X82962410Y-47272648D01*
X83180201Y-47403190D01*
X83190319Y-47409951D01*
X83456358Y-47607263D01*
X83456372Y-47607273D01*
X83465778Y-47614993D01*
X83711203Y-47837437D01*
X83719808Y-47846042D01*
X83942247Y-48091471D01*
X83949967Y-48100877D01*
X84147288Y-48366940D01*
X84154048Y-48377058D01*
X84324335Y-48661170D01*
X84330071Y-48671902D01*
X84471689Y-48971335D01*
X84476346Y-48982578D01*
X84587935Y-49294458D01*
X84591467Y-49306103D01*
X84671947Y-49627410D01*
X84674321Y-49639345D01*
X84722920Y-49966995D01*
X84724113Y-49979105D01*
X84740589Y-50314541D01*
X84740738Y-50320624D01*
X84740738Y-50391911D01*
X84740739Y-50391924D01*
X84740739Y-127312985D01*
X84740590Y-127319070D01*
X84724186Y-127652967D01*
X84722993Y-127665076D01*
X84674392Y-127992727D01*
X84672018Y-128004663D01*
X84591532Y-128325978D01*
X84588000Y-128337622D01*
X84476408Y-128649503D01*
X84471751Y-128660746D01*
X84330125Y-128960189D01*
X84324388Y-128970921D01*
X84154102Y-129255026D01*
X84147342Y-129265144D01*
X83950015Y-129531209D01*
X83942295Y-129540615D01*
X83719851Y-129786045D01*
X83711246Y-129794650D01*
X83465816Y-130017094D01*
X83456410Y-130024814D01*
X83190346Y-130222141D01*
X83180228Y-130228901D01*
X82896123Y-130399187D01*
X82885391Y-130404924D01*
X82585938Y-130546555D01*
X82574705Y-130551208D01*
X82364443Y-130626440D01*
X82262831Y-130662798D01*
X82251187Y-130666330D01*
X81929869Y-130746816D01*
X81917933Y-130749190D01*
X81590276Y-130797793D01*
X81578167Y-130798986D01*
X81263305Y-130814454D01*
X81244311Y-130815388D01*
X81238229Y-130815537D01*
X45627942Y-130815537D01*
X45560903Y-130795852D01*
X45515148Y-130743048D01*
X45505204Y-130673890D01*
X45513381Y-130644085D01*
X45538212Y-130584135D01*
X45538215Y-130584123D01*
X45576642Y-130390937D01*
X45576643Y-130390934D01*
X45576643Y-130092442D01*
X44876643Y-130092442D01*
X44876643Y-129592442D01*
X45576643Y-129592442D01*
X45576643Y-129293950D01*
X45576642Y-129293946D01*
X45538215Y-129100760D01*
X45538212Y-129100748D01*
X45462835Y-128918770D01*
X45462828Y-128918757D01*
X45353394Y-128754979D01*
X45353391Y-128754975D01*
X45214109Y-128615693D01*
X45214105Y-128615690D01*
X45050327Y-128506256D01*
X45050314Y-128506249D01*
X44868334Y-128430871D01*
X44868326Y-128430869D01*
X44826643Y-128422577D01*
X44826643Y-129325453D01*
X44816703Y-129308237D01*
X44760848Y-129252382D01*
X44692439Y-129212886D01*
X44616139Y-129192442D01*
X44537147Y-129192442D01*
X44460847Y-129212886D01*
X44392438Y-129252382D01*
X44336583Y-129308237D01*
X44326643Y-129325453D01*
X44326643Y-128422578D01*
X44326642Y-128422577D01*
X44284959Y-128430869D01*
X44284951Y-128430871D01*
X44102971Y-128506249D01*
X44102958Y-128506256D01*
X43939180Y-128615690D01*
X43939176Y-128615693D01*
X43799894Y-128754975D01*
X43799891Y-128754979D01*
X43690457Y-128918757D01*
X43690450Y-128918770D01*
X43615073Y-129100748D01*
X43615070Y-129100760D01*
X43576643Y-129293946D01*
X43576643Y-129592442D01*
X44276643Y-129592442D01*
X44276643Y-130092442D01*
X43576643Y-130092442D01*
X43576643Y-130390937D01*
X43615070Y-130584123D01*
X43615073Y-130584135D01*
X43639905Y-130644085D01*
X43647374Y-130713554D01*
X43616098Y-130776033D01*
X43556009Y-130811685D01*
X43525344Y-130815537D01*
X37277942Y-130815537D01*
X37210903Y-130795852D01*
X37165148Y-130743048D01*
X37155204Y-130673890D01*
X37163381Y-130644085D01*
X37188212Y-130584135D01*
X37188215Y-130584123D01*
X37226642Y-130390937D01*
X37226643Y-130390934D01*
X37226643Y-130092442D01*
X36526643Y-130092442D01*
X36526643Y-129592442D01*
X37226643Y-129592442D01*
X37226643Y-129293950D01*
X37226642Y-129293946D01*
X37188215Y-129100760D01*
X37188212Y-129100748D01*
X37112835Y-128918770D01*
X37112828Y-128918757D01*
X37003394Y-128754979D01*
X37003391Y-128754975D01*
X36864109Y-128615693D01*
X36864105Y-128615690D01*
X36700327Y-128506256D01*
X36700314Y-128506249D01*
X36518334Y-128430871D01*
X36518326Y-128430869D01*
X36476643Y-128422577D01*
X36476643Y-129325453D01*
X36466703Y-129308237D01*
X36410848Y-129252382D01*
X36342439Y-129212886D01*
X36266139Y-129192442D01*
X36187147Y-129192442D01*
X36110847Y-129212886D01*
X36042438Y-129252382D01*
X35986583Y-129308237D01*
X35976643Y-129325453D01*
X35976643Y-128422578D01*
X35976642Y-128422577D01*
X35934959Y-128430869D01*
X35934951Y-128430871D01*
X35752971Y-128506249D01*
X35752958Y-128506256D01*
X35589180Y-128615690D01*
X35589176Y-128615693D01*
X35449894Y-128754975D01*
X35449891Y-128754979D01*
X35340457Y-128918757D01*
X35340450Y-128918770D01*
X35265073Y-129100748D01*
X35265070Y-129100760D01*
X35226643Y-129293946D01*
X35226643Y-129592442D01*
X35926643Y-129592442D01*
X35926643Y-130092442D01*
X35226643Y-130092442D01*
X35226643Y-130390937D01*
X35265070Y-130584123D01*
X35265073Y-130584135D01*
X35289905Y-130644085D01*
X35297374Y-130713554D01*
X35266098Y-130776033D01*
X35206009Y-130811685D01*
X35175344Y-130815537D01*
X32244290Y-130815537D01*
X32238207Y-130815388D01*
X32218139Y-130814402D01*
X31904310Y-130798984D01*
X31892200Y-130797791D01*
X31564547Y-130749188D01*
X31552613Y-130746814D01*
X31231290Y-130666327D01*
X31219645Y-130662794D01*
X30907783Y-130551208D01*
X30896540Y-130546552D01*
X30655401Y-130432502D01*
X30597084Y-130404920D01*
X30586361Y-130399187D01*
X30302251Y-130228899D01*
X30292133Y-130222139D01*
X30026069Y-130024812D01*
X30016663Y-130017092D01*
X29981326Y-129985065D01*
X29771227Y-129794641D01*
X29762636Y-129786050D01*
X29540185Y-129540613D01*
X29532465Y-129531207D01*
X29432275Y-129396117D01*
X29335136Y-129265140D01*
X29328378Y-129255025D01*
X29303121Y-129212886D01*
X29158085Y-128970908D01*
X29152355Y-128960187D01*
X29132766Y-128918770D01*
X29015417Y-128670653D01*
X29010728Y-128660738D01*
X29006072Y-128649497D01*
X28894482Y-128337626D01*
X28890949Y-128325980D01*
X28890948Y-128325978D01*
X28810463Y-128004662D01*
X28808090Y-127992730D01*
X28799941Y-127937794D01*
X28759487Y-127665072D01*
X28758295Y-127652967D01*
X28751396Y-127512533D01*
X28741887Y-127318974D01*
X28741739Y-127312918D01*
X28741739Y-126592442D01*
X37161399Y-126592442D01*
X37887969Y-126592442D01*
X37873792Y-126616997D01*
X37851643Y-126699655D01*
X37851643Y-126985229D01*
X37873792Y-127067887D01*
X37887969Y-127092442D01*
X37161399Y-127092442D01*
X37191030Y-127241416D01*
X37191033Y-127241425D01*
X37268295Y-127427955D01*
X37268302Y-127427968D01*
X37380472Y-127595841D01*
X37380475Y-127595845D01*
X37523239Y-127738609D01*
X37523243Y-127738612D01*
X37691116Y-127850782D01*
X37691129Y-127850789D01*
X37877659Y-127928051D01*
X37877668Y-127928054D01*
X37926643Y-127937795D01*
X37926643Y-127152060D01*
X37977089Y-127202506D01*
X38051198Y-127245293D01*
X38133856Y-127267442D01*
X38219430Y-127267442D01*
X38302088Y-127245293D01*
X38376197Y-127202506D01*
X38426643Y-127152060D01*
X38426643Y-127937794D01*
X38475617Y-127928054D01*
X38475626Y-127928051D01*
X38662156Y-127850789D01*
X38662169Y-127850782D01*
X38830042Y-127738612D01*
X38830046Y-127738609D01*
X38972810Y-127595845D01*
X38972813Y-127595841D01*
X39084983Y-127427968D01*
X39084990Y-127427955D01*
X39162252Y-127241425D01*
X39162255Y-127241416D01*
X39191887Y-127092442D01*
X38465317Y-127092442D01*
X38479494Y-127067887D01*
X38501643Y-126985229D01*
X38501643Y-126699655D01*
X38479494Y-126616997D01*
X38465317Y-126592442D01*
X39191887Y-126592442D01*
X41611399Y-126592442D01*
X42337969Y-126592442D01*
X42323792Y-126616997D01*
X42301643Y-126699655D01*
X42301643Y-126985229D01*
X42323792Y-127067887D01*
X42337969Y-127092442D01*
X41611399Y-127092442D01*
X41641030Y-127241416D01*
X41641033Y-127241425D01*
X41718295Y-127427955D01*
X41718302Y-127427968D01*
X41830472Y-127595841D01*
X41830475Y-127595845D01*
X41973239Y-127738609D01*
X41973243Y-127738612D01*
X42141116Y-127850782D01*
X42141129Y-127850789D01*
X42327659Y-127928051D01*
X42327668Y-127928054D01*
X42376643Y-127937795D01*
X42376643Y-127152060D01*
X42427089Y-127202506D01*
X42501198Y-127245293D01*
X42583856Y-127267442D01*
X42669430Y-127267442D01*
X42752088Y-127245293D01*
X42826197Y-127202506D01*
X42876643Y-127152060D01*
X42876643Y-127937794D01*
X42925617Y-127928054D01*
X42925626Y-127928051D01*
X43112156Y-127850789D01*
X43112169Y-127850782D01*
X43280042Y-127738612D01*
X43280046Y-127738609D01*
X43422810Y-127595845D01*
X43422813Y-127595841D01*
X43534983Y-127427968D01*
X43534990Y-127427955D01*
X43612252Y-127241425D01*
X43612255Y-127241416D01*
X43641887Y-127092442D01*
X42915317Y-127092442D01*
X42929494Y-127067887D01*
X42951643Y-126985229D01*
X42951643Y-126699655D01*
X42929494Y-126616997D01*
X42915317Y-126592442D01*
X43641887Y-126592442D01*
X43612255Y-126443467D01*
X43612252Y-126443458D01*
X43534990Y-126256928D01*
X43534983Y-126256915D01*
X43422813Y-126089042D01*
X43422810Y-126089038D01*
X43280046Y-125946274D01*
X43280042Y-125946271D01*
X43112169Y-125834101D01*
X43112156Y-125834094D01*
X42925627Y-125756832D01*
X42925620Y-125756830D01*
X42876643Y-125747087D01*
X42876643Y-126532824D01*
X42826197Y-126482378D01*
X42752088Y-126439591D01*
X42669430Y-126417442D01*
X42583856Y-126417442D01*
X42501198Y-126439591D01*
X42427089Y-126482378D01*
X42376643Y-126532824D01*
X42376643Y-125747088D01*
X42376642Y-125747087D01*
X42327665Y-125756830D01*
X42327658Y-125756832D01*
X42141129Y-125834094D01*
X42141116Y-125834101D01*
X41973243Y-125946271D01*
X41973239Y-125946274D01*
X41830475Y-126089038D01*
X41830472Y-126089042D01*
X41718302Y-126256915D01*
X41718295Y-126256928D01*
X41641033Y-126443458D01*
X41641030Y-126443467D01*
X41611399Y-126592442D01*
X39191887Y-126592442D01*
X39162255Y-126443467D01*
X39162252Y-126443458D01*
X39084990Y-126256928D01*
X39084983Y-126256915D01*
X38972813Y-126089042D01*
X38972810Y-126089038D01*
X38830046Y-125946274D01*
X38830042Y-125946271D01*
X38662169Y-125834101D01*
X38662156Y-125834094D01*
X38475627Y-125756832D01*
X38475620Y-125756830D01*
X38426643Y-125747087D01*
X38426643Y-126532824D01*
X38376197Y-126482378D01*
X38302088Y-126439591D01*
X38219430Y-126417442D01*
X38133856Y-126417442D01*
X38051198Y-126439591D01*
X37977089Y-126482378D01*
X37926643Y-126532824D01*
X37926643Y-125747088D01*
X37926642Y-125747087D01*
X37877665Y-125756830D01*
X37877658Y-125756832D01*
X37691129Y-125834094D01*
X37691116Y-125834101D01*
X37523243Y-125946271D01*
X37523239Y-125946274D01*
X37380475Y-126089038D01*
X37380472Y-126089042D01*
X37268302Y-126256915D01*
X37268295Y-126256928D01*
X37191033Y-126443458D01*
X37191030Y-126443467D01*
X37161399Y-126592442D01*
X28741739Y-126592442D01*
X28741739Y-123341033D01*
X40960674Y-123341033D01*
X40960674Y-123341040D01*
X40980869Y-123520286D01*
X40980870Y-123520291D01*
X41040450Y-123690560D01*
X41096626Y-123779963D01*
X41136423Y-123843299D01*
X41263977Y-123970853D01*
X41416717Y-124066826D01*
X41471619Y-124086037D01*
X41586984Y-124126405D01*
X41586989Y-124126406D01*
X41766235Y-124146602D01*
X41766239Y-124146602D01*
X41766243Y-124146602D01*
X41945488Y-124126406D01*
X41945491Y-124126405D01*
X41945494Y-124126405D01*
X42115761Y-124066826D01*
X42268501Y-123970853D01*
X42396055Y-123843299D01*
X42492028Y-123690559D01*
X42551607Y-123520292D01*
X42552858Y-123509193D01*
X42571804Y-123341040D01*
X42571804Y-123341033D01*
X42554903Y-123191031D01*
X49882730Y-123191031D01*
X49882730Y-123191042D01*
X49902745Y-123509186D01*
X49902746Y-123509193D01*
X49902747Y-123509197D01*
X49954398Y-123779963D01*
X49962483Y-123822343D01*
X50060993Y-124125525D01*
X50060995Y-124125530D01*
X50196725Y-124413969D01*
X50196728Y-124413975D01*
X50367538Y-124683130D01*
X50367541Y-124683134D01*
X50367542Y-124683135D01*
X50450743Y-124783708D01*
X50570747Y-124928767D01*
X50803130Y-125146990D01*
X50803140Y-125146998D01*
X51061026Y-125334363D01*
X51061031Y-125334365D01*
X51061038Y-125334371D01*
X51340394Y-125487949D01*
X51340399Y-125487951D01*
X51340401Y-125487952D01*
X51340402Y-125487953D01*
X51636793Y-125605302D01*
X51636796Y-125605303D01*
X51931954Y-125681086D01*
X51945570Y-125684582D01*
X52011921Y-125692964D01*
X52261833Y-125724536D01*
X52261842Y-125724536D01*
X52261845Y-125724537D01*
X52261847Y-125724537D01*
X52580631Y-125724537D01*
X52580633Y-125724537D01*
X52580636Y-125724536D01*
X52580644Y-125724536D01*
X52769365Y-125700694D01*
X52896908Y-125684582D01*
X53205681Y-125605303D01*
X53215360Y-125601471D01*
X53502075Y-125487953D01*
X53502076Y-125487952D01*
X53502074Y-125487952D01*
X53502084Y-125487949D01*
X53781440Y-125334371D01*
X54039346Y-125146992D01*
X54271732Y-124928766D01*
X54474936Y-124683135D01*
X54520693Y-124611034D01*
X59468319Y-124611034D01*
X59468319Y-124611039D01*
X59487960Y-124835544D01*
X59487961Y-124835551D01*
X59546290Y-125053237D01*
X59546294Y-125053248D01*
X59641419Y-125257244D01*
X59641537Y-125257497D01*
X59770805Y-125442110D01*
X59930166Y-125601471D01*
X60114779Y-125730739D01*
X60149838Y-125747087D01*
X60319027Y-125825981D01*
X60319029Y-125825981D01*
X60319034Y-125825984D01*
X60536726Y-125884315D01*
X60697092Y-125898345D01*
X60761237Y-125903957D01*
X60761239Y-125903957D01*
X60761241Y-125903957D01*
X60817367Y-125899046D01*
X60985752Y-125884315D01*
X61203444Y-125825984D01*
X61407699Y-125730739D01*
X61592312Y-125601471D01*
X61751673Y-125442110D01*
X61880941Y-125257497D01*
X61976186Y-125053242D01*
X62026464Y-124865600D01*
X62062829Y-124805942D01*
X62125676Y-124775413D01*
X62195052Y-124783708D01*
X62248929Y-124828193D01*
X62266012Y-124865599D01*
X62287862Y-124947142D01*
X62316290Y-125053237D01*
X62316294Y-125053248D01*
X62411419Y-125257244D01*
X62411537Y-125257497D01*
X62540805Y-125442110D01*
X62700166Y-125601471D01*
X62884779Y-125730739D01*
X62919838Y-125747087D01*
X63089027Y-125825981D01*
X63089029Y-125825981D01*
X63089034Y-125825984D01*
X63306726Y-125884315D01*
X63467092Y-125898345D01*
X63531237Y-125903957D01*
X63531239Y-125903957D01*
X63531241Y-125903957D01*
X63587367Y-125899046D01*
X63755752Y-125884315D01*
X63973444Y-125825984D01*
X64177699Y-125730739D01*
X64362312Y-125601471D01*
X64521673Y-125442110D01*
X64650941Y-125257497D01*
X64746186Y-125053242D01*
X64796464Y-124865600D01*
X64832829Y-124805942D01*
X64895676Y-124775413D01*
X64965052Y-124783708D01*
X65018929Y-124828193D01*
X65036012Y-124865599D01*
X65057862Y-124947142D01*
X65086290Y-125053237D01*
X65086294Y-125053248D01*
X65181419Y-125257244D01*
X65181537Y-125257497D01*
X65310805Y-125442110D01*
X65470166Y-125601471D01*
X65654779Y-125730739D01*
X65689838Y-125747087D01*
X65859027Y-125825981D01*
X65859029Y-125825981D01*
X65859034Y-125825984D01*
X66076726Y-125884315D01*
X66237092Y-125898345D01*
X66301237Y-125903957D01*
X66301239Y-125903957D01*
X66301241Y-125903957D01*
X66357367Y-125899046D01*
X66525752Y-125884315D01*
X66743444Y-125825984D01*
X66947699Y-125730739D01*
X67132312Y-125601471D01*
X67291673Y-125442110D01*
X67420941Y-125257497D01*
X67516186Y-125053242D01*
X67566723Y-124864634D01*
X67603088Y-124804975D01*
X67665935Y-124774446D01*
X67735311Y-124782741D01*
X67789188Y-124827226D01*
X67806273Y-124864636D01*
X67856760Y-125053062D01*
X67856764Y-125053071D01*
X67951971Y-125257244D01*
X67951972Y-125257246D01*
X68001188Y-125327534D01*
X68567863Y-124760859D01*
X68582017Y-124813679D01*
X68651135Y-124933394D01*
X68748882Y-125031141D01*
X68868597Y-125100259D01*
X68921416Y-125114412D01*
X68354740Y-125681086D01*
X68425030Y-125730304D01*
X68629204Y-125825511D01*
X68629213Y-125825515D01*
X68846807Y-125883818D01*
X68846817Y-125883820D01*
X69071238Y-125903455D01*
X69071240Y-125903455D01*
X69295660Y-125883820D01*
X69295670Y-125883818D01*
X69513264Y-125825515D01*
X69513273Y-125825511D01*
X69717447Y-125730304D01*
X69717451Y-125730302D01*
X69787736Y-125681087D01*
X69221061Y-125114412D01*
X69273881Y-125100259D01*
X69393596Y-125031141D01*
X69491343Y-124933394D01*
X69560461Y-124813679D01*
X69574614Y-124760859D01*
X70141289Y-125327534D01*
X70190504Y-125257249D01*
X70190506Y-125257245D01*
X70285713Y-125053071D01*
X70285717Y-125053062D01*
X70344020Y-124835468D01*
X70344022Y-124835458D01*
X70363657Y-124611037D01*
X70363657Y-124611036D01*
X70344022Y-124386615D01*
X70344020Y-124386605D01*
X70285717Y-124169011D01*
X70285713Y-124169002D01*
X70190506Y-123964828D01*
X70141288Y-123894538D01*
X69574613Y-124461213D01*
X69560461Y-124408395D01*
X69491343Y-124288680D01*
X69393596Y-124190933D01*
X69273881Y-124121815D01*
X69221061Y-124107661D01*
X69787736Y-123540986D01*
X69787736Y-123540985D01*
X69717448Y-123491770D01*
X69717446Y-123491769D01*
X69513273Y-123396562D01*
X69513264Y-123396558D01*
X69295670Y-123338255D01*
X69295660Y-123338253D01*
X69071240Y-123318619D01*
X69071238Y-123318619D01*
X68846817Y-123338253D01*
X68846807Y-123338255D01*
X68629213Y-123396558D01*
X68629204Y-123396562D01*
X68425026Y-123491772D01*
X68354741Y-123540985D01*
X68354740Y-123540986D01*
X68921416Y-124107661D01*
X68868597Y-124121815D01*
X68748882Y-124190933D01*
X68651135Y-124288680D01*
X68582017Y-124408395D01*
X68567864Y-124461214D01*
X68001188Y-123894538D01*
X68001187Y-123894539D01*
X67951974Y-123964824D01*
X67856764Y-124169002D01*
X67856760Y-124169011D01*
X67806273Y-124357437D01*
X67769908Y-124417098D01*
X67707061Y-124447627D01*
X67637686Y-124439332D01*
X67583808Y-124394847D01*
X67566723Y-124357438D01*
X67548299Y-124288680D01*
X67516186Y-124168832D01*
X67420941Y-123964577D01*
X67291673Y-123779964D01*
X67132312Y-123620603D01*
X66989045Y-123520286D01*
X66947705Y-123491339D01*
X66947702Y-123491337D01*
X66947699Y-123491335D01*
X66947695Y-123491333D01*
X66743450Y-123396092D01*
X66743439Y-123396088D01*
X66525753Y-123337759D01*
X66525746Y-123337758D01*
X66301241Y-123318117D01*
X66301237Y-123318117D01*
X66076731Y-123337758D01*
X66076724Y-123337759D01*
X65859038Y-123396088D01*
X65859027Y-123396092D01*
X65654782Y-123491333D01*
X65654772Y-123491339D01*
X65470165Y-123620603D01*
X65310805Y-123779963D01*
X65181541Y-123964570D01*
X65181535Y-123964580D01*
X65086294Y-124168825D01*
X65086290Y-124168836D01*
X65036014Y-124356471D01*
X64999649Y-124416131D01*
X64936802Y-124446660D01*
X64867426Y-124438365D01*
X64813548Y-124393880D01*
X64796464Y-124356471D01*
X64778299Y-124288680D01*
X64746186Y-124168832D01*
X64650941Y-123964577D01*
X64521673Y-123779964D01*
X64362312Y-123620603D01*
X64219045Y-123520286D01*
X64177705Y-123491339D01*
X64177702Y-123491337D01*
X64177699Y-123491335D01*
X64177695Y-123491333D01*
X63973450Y-123396092D01*
X63973439Y-123396088D01*
X63755753Y-123337759D01*
X63755746Y-123337758D01*
X63531241Y-123318117D01*
X63531237Y-123318117D01*
X63306731Y-123337758D01*
X63306724Y-123337759D01*
X63089038Y-123396088D01*
X63089027Y-123396092D01*
X62884782Y-123491333D01*
X62884772Y-123491339D01*
X62700165Y-123620603D01*
X62540805Y-123779963D01*
X62411541Y-123964570D01*
X62411535Y-123964580D01*
X62316294Y-124168825D01*
X62316290Y-124168836D01*
X62266014Y-124356471D01*
X62229649Y-124416131D01*
X62166802Y-124446660D01*
X62097426Y-124438365D01*
X62043548Y-124393880D01*
X62026464Y-124356471D01*
X62008299Y-124288680D01*
X61976186Y-124168832D01*
X61880941Y-123964577D01*
X61751673Y-123779964D01*
X61592312Y-123620603D01*
X61449045Y-123520286D01*
X61407705Y-123491339D01*
X61407702Y-123491337D01*
X61407699Y-123491335D01*
X61407695Y-123491333D01*
X61203450Y-123396092D01*
X61203439Y-123396088D01*
X60985753Y-123337759D01*
X60985746Y-123337758D01*
X60761241Y-123318117D01*
X60761237Y-123318117D01*
X60536731Y-123337758D01*
X60536724Y-123337759D01*
X60319038Y-123396088D01*
X60319027Y-123396092D01*
X60114782Y-123491333D01*
X60114772Y-123491339D01*
X59930165Y-123620603D01*
X59770805Y-123779963D01*
X59641541Y-123964570D01*
X59641535Y-123964580D01*
X59546294Y-124168825D01*
X59546290Y-124168836D01*
X59487961Y-124386522D01*
X59487960Y-124386529D01*
X59468319Y-124611034D01*
X54520693Y-124611034D01*
X54645751Y-124413973D01*
X54781485Y-124125524D01*
X54879996Y-123822339D01*
X54939731Y-123509197D01*
X54939732Y-123509186D01*
X54959748Y-123191042D01*
X54959748Y-123191031D01*
X74872730Y-123191031D01*
X74872730Y-123191042D01*
X74892745Y-123509186D01*
X74892746Y-123509193D01*
X74892747Y-123509197D01*
X74944398Y-123779963D01*
X74952483Y-123822343D01*
X75050993Y-124125525D01*
X75050995Y-124125530D01*
X75186725Y-124413969D01*
X75186728Y-124413975D01*
X75357538Y-124683130D01*
X75357541Y-124683134D01*
X75357542Y-124683135D01*
X75440743Y-124783708D01*
X75560747Y-124928767D01*
X75793130Y-125146990D01*
X75793140Y-125146998D01*
X76051026Y-125334363D01*
X76051031Y-125334365D01*
X76051038Y-125334371D01*
X76330394Y-125487949D01*
X76330399Y-125487951D01*
X76330401Y-125487952D01*
X76330402Y-125487953D01*
X76626793Y-125605302D01*
X76626796Y-125605303D01*
X76921954Y-125681086D01*
X76935570Y-125684582D01*
X77001921Y-125692964D01*
X77251833Y-125724536D01*
X77251842Y-125724536D01*
X77251845Y-125724537D01*
X77251847Y-125724537D01*
X77570631Y-125724537D01*
X77570633Y-125724537D01*
X77570636Y-125724536D01*
X77570644Y-125724536D01*
X77759365Y-125700694D01*
X77886908Y-125684582D01*
X78195681Y-125605303D01*
X78205360Y-125601471D01*
X78492075Y-125487953D01*
X78492076Y-125487952D01*
X78492074Y-125487952D01*
X78492084Y-125487949D01*
X78771440Y-125334371D01*
X79029346Y-125146992D01*
X79261732Y-124928766D01*
X79464936Y-124683135D01*
X79635751Y-124413973D01*
X79771485Y-124125524D01*
X79869996Y-123822339D01*
X79929731Y-123509197D01*
X79929732Y-123509186D01*
X79949748Y-123191042D01*
X79949748Y-123191031D01*
X79929732Y-122872887D01*
X79929731Y-122872880D01*
X79929731Y-122872877D01*
X79869996Y-122559735D01*
X79771485Y-122256550D01*
X79751103Y-122213237D01*
X79692872Y-122089490D01*
X79635751Y-121968101D01*
X79510689Y-121771034D01*
X79464939Y-121698943D01*
X79389396Y-121607627D01*
X79261732Y-121453308D01*
X79223583Y-121417484D01*
X79029347Y-121235083D01*
X79029337Y-121235075D01*
X78771451Y-121047710D01*
X78771444Y-121047705D01*
X78771440Y-121047703D01*
X78492084Y-120894125D01*
X78492081Y-120894123D01*
X78492076Y-120894121D01*
X78492075Y-120894120D01*
X78195684Y-120776771D01*
X78195681Y-120776770D01*
X77886911Y-120697492D01*
X77886898Y-120697490D01*
X77570644Y-120657537D01*
X77570633Y-120657537D01*
X77251845Y-120657537D01*
X77251833Y-120657537D01*
X76935579Y-120697490D01*
X76935566Y-120697492D01*
X76626796Y-120776770D01*
X76626793Y-120776771D01*
X76330402Y-120894120D01*
X76330401Y-120894121D01*
X76051038Y-121047703D01*
X76051026Y-121047710D01*
X75793140Y-121235075D01*
X75793130Y-121235083D01*
X75560747Y-121453306D01*
X75357538Y-121698943D01*
X75186728Y-121968098D01*
X75186725Y-121968104D01*
X75050995Y-122256543D01*
X75050993Y-122256548D01*
X74952483Y-122559730D01*
X74892746Y-122872880D01*
X74892745Y-122872887D01*
X74872730Y-123191031D01*
X54959748Y-123191031D01*
X54939732Y-122872887D01*
X54939731Y-122872880D01*
X54939731Y-122872877D01*
X54879996Y-122559735D01*
X54781485Y-122256550D01*
X54761103Y-122213237D01*
X54702872Y-122089490D01*
X54645751Y-121968101D01*
X54520689Y-121771034D01*
X54474939Y-121698943D01*
X54399396Y-121607627D01*
X54271732Y-121453308D01*
X54233583Y-121417484D01*
X54039347Y-121235083D01*
X54039337Y-121235075D01*
X53781451Y-121047710D01*
X53781444Y-121047705D01*
X53781440Y-121047703D01*
X53577657Y-120935672D01*
X58088239Y-120935672D01*
X58088239Y-122606407D01*
X58088240Y-122606413D01*
X58094647Y-122666020D01*
X58144941Y-122800865D01*
X58144945Y-122800872D01*
X58231191Y-122916081D01*
X58231194Y-122916084D01*
X58346403Y-123002330D01*
X58346410Y-123002334D01*
X58481256Y-123052628D01*
X58481255Y-123052628D01*
X58488183Y-123053372D01*
X58540866Y-123059037D01*
X60211611Y-123059036D01*
X60271222Y-123052628D01*
X60406070Y-123002333D01*
X60521285Y-122916083D01*
X60607535Y-122800868D01*
X60657830Y-122666020D01*
X60664239Y-122606410D01*
X60664238Y-122156526D01*
X60683922Y-122089490D01*
X60736726Y-122043735D01*
X60805885Y-122033791D01*
X60869441Y-122062816D01*
X60907215Y-122121594D01*
X60908013Y-122124435D01*
X60931761Y-122213064D01*
X60931764Y-122213071D01*
X61026971Y-122417244D01*
X61026972Y-122417246D01*
X61076188Y-122487534D01*
X61642863Y-121920859D01*
X61657017Y-121973679D01*
X61726135Y-122093394D01*
X61823882Y-122191141D01*
X61943597Y-122260259D01*
X61996416Y-122274412D01*
X61429740Y-122841086D01*
X61500030Y-122890304D01*
X61704204Y-122985511D01*
X61704213Y-122985515D01*
X61921807Y-123043818D01*
X61921817Y-123043820D01*
X62146238Y-123063455D01*
X62146240Y-123063455D01*
X62370660Y-123043820D01*
X62370670Y-123043818D01*
X62588264Y-122985515D01*
X62588273Y-122985511D01*
X62792447Y-122890304D01*
X62792451Y-122890302D01*
X62862736Y-122841087D01*
X62296061Y-122274412D01*
X62348881Y-122260259D01*
X62468596Y-122191141D01*
X62566343Y-122093394D01*
X62635461Y-121973679D01*
X62649614Y-121920859D01*
X63216289Y-122487534D01*
X63265504Y-122417249D01*
X63265506Y-122417245D01*
X63360713Y-122213071D01*
X63360718Y-122213060D01*
X63411204Y-122024637D01*
X63447568Y-121964976D01*
X63510415Y-121934446D01*
X63579790Y-121942740D01*
X63633669Y-121987225D01*
X63650754Y-122024635D01*
X63701290Y-122213236D01*
X63701294Y-122213248D01*
X63796535Y-122417493D01*
X63796541Y-122417503D01*
X63896130Y-122559730D01*
X63925805Y-122602110D01*
X64085166Y-122761471D01*
X64269779Y-122890739D01*
X64324130Y-122916083D01*
X64474027Y-122985981D01*
X64474029Y-122985981D01*
X64474034Y-122985984D01*
X64691726Y-123044315D01*
X64852092Y-123058345D01*
X64916237Y-123063957D01*
X64916239Y-123063957D01*
X64916241Y-123063957D01*
X64972499Y-123059035D01*
X65140752Y-123044315D01*
X65358444Y-122985984D01*
X65562699Y-122890739D01*
X65747312Y-122761471D01*
X65906673Y-122602110D01*
X66035941Y-122417497D01*
X66131186Y-122213242D01*
X66181723Y-122024634D01*
X66218088Y-121964975D01*
X66280935Y-121934446D01*
X66350311Y-121942741D01*
X66404188Y-121987226D01*
X66421273Y-122024636D01*
X66471760Y-122213062D01*
X66471764Y-122213071D01*
X66566971Y-122417244D01*
X66566972Y-122417246D01*
X66616188Y-122487534D01*
X67182863Y-121920859D01*
X67197017Y-121973679D01*
X67266135Y-122093394D01*
X67363882Y-122191141D01*
X67483597Y-122260259D01*
X67536416Y-122274412D01*
X66969740Y-122841086D01*
X67040030Y-122890304D01*
X67244204Y-122985511D01*
X67244213Y-122985515D01*
X67461807Y-123043818D01*
X67461817Y-123043820D01*
X67686238Y-123063455D01*
X67686240Y-123063455D01*
X67910660Y-123043820D01*
X67910670Y-123043818D01*
X68128264Y-122985515D01*
X68128273Y-122985511D01*
X68332447Y-122890304D01*
X68332451Y-122890302D01*
X68402736Y-122841087D01*
X67836061Y-122274412D01*
X67888881Y-122260259D01*
X68008596Y-122191141D01*
X68106343Y-122093394D01*
X68175461Y-121973679D01*
X68189614Y-121920859D01*
X68756289Y-122487534D01*
X68805504Y-122417249D01*
X68805506Y-122417245D01*
X68900713Y-122213071D01*
X68900718Y-122213060D01*
X68951204Y-122024637D01*
X68987568Y-121964976D01*
X69050415Y-121934446D01*
X69119790Y-121942740D01*
X69173669Y-121987225D01*
X69190754Y-122024635D01*
X69241290Y-122213236D01*
X69241294Y-122213248D01*
X69336535Y-122417493D01*
X69336541Y-122417503D01*
X69436130Y-122559730D01*
X69465805Y-122602110D01*
X69625166Y-122761471D01*
X69809779Y-122890739D01*
X69864130Y-122916083D01*
X70014027Y-122985981D01*
X70014029Y-122985981D01*
X70014034Y-122985984D01*
X70231726Y-123044315D01*
X70392092Y-123058345D01*
X70456237Y-123063957D01*
X70456239Y-123063957D01*
X70456241Y-123063957D01*
X70512499Y-123059035D01*
X70680752Y-123044315D01*
X70898444Y-122985984D01*
X71102699Y-122890739D01*
X71287312Y-122761471D01*
X71446673Y-122602110D01*
X71575941Y-122417497D01*
X71671186Y-122213242D01*
X71729517Y-121995550D01*
X71749159Y-121771037D01*
X71729517Y-121546524D01*
X71671186Y-121328832D01*
X71575941Y-121124577D01*
X71446673Y-120939964D01*
X71287312Y-120780603D01*
X71126926Y-120668299D01*
X71102705Y-120651339D01*
X71102702Y-120651337D01*
X71102699Y-120651335D01*
X71102695Y-120651333D01*
X70898450Y-120556092D01*
X70898439Y-120556088D01*
X70680753Y-120497759D01*
X70680746Y-120497758D01*
X70456241Y-120478117D01*
X70456237Y-120478117D01*
X70231731Y-120497758D01*
X70231724Y-120497759D01*
X70014038Y-120556088D01*
X70014027Y-120556092D01*
X69809782Y-120651333D01*
X69809772Y-120651339D01*
X69625165Y-120780603D01*
X69465805Y-120939963D01*
X69336541Y-121124570D01*
X69336535Y-121124580D01*
X69241294Y-121328825D01*
X69241290Y-121328837D01*
X69190754Y-121517438D01*
X69154388Y-121577098D01*
X69091541Y-121607627D01*
X69022166Y-121599332D01*
X68968288Y-121554846D01*
X68951204Y-121517436D01*
X68900718Y-121329013D01*
X68900713Y-121329002D01*
X68805506Y-121124828D01*
X68756288Y-121054538D01*
X68189613Y-121621213D01*
X68175461Y-121568395D01*
X68106343Y-121448680D01*
X68008596Y-121350933D01*
X67888881Y-121281815D01*
X67836061Y-121267661D01*
X68402736Y-120700986D01*
X68402736Y-120700985D01*
X68332448Y-120651770D01*
X68332446Y-120651769D01*
X68128273Y-120556562D01*
X68128264Y-120556558D01*
X67910670Y-120498255D01*
X67910660Y-120498253D01*
X67686240Y-120478619D01*
X67686238Y-120478619D01*
X67461817Y-120498253D01*
X67461807Y-120498255D01*
X67244213Y-120556558D01*
X67244204Y-120556562D01*
X67040026Y-120651772D01*
X66969741Y-120700985D01*
X66969740Y-120700986D01*
X67536416Y-121267661D01*
X67483597Y-121281815D01*
X67363882Y-121350933D01*
X67266135Y-121448680D01*
X67197017Y-121568395D01*
X67182864Y-121621214D01*
X66616188Y-121054538D01*
X66616187Y-121054539D01*
X66566974Y-121124824D01*
X66471764Y-121329002D01*
X66471760Y-121329011D01*
X66421273Y-121517437D01*
X66384908Y-121577098D01*
X66322061Y-121607627D01*
X66252686Y-121599332D01*
X66198808Y-121554847D01*
X66181723Y-121517438D01*
X66181722Y-121517436D01*
X66131186Y-121328832D01*
X66035941Y-121124577D01*
X65906673Y-120939964D01*
X65747312Y-120780603D01*
X65586926Y-120668299D01*
X65562705Y-120651339D01*
X65562702Y-120651337D01*
X65562699Y-120651335D01*
X65562695Y-120651333D01*
X65358450Y-120556092D01*
X65358439Y-120556088D01*
X65140753Y-120497759D01*
X65140746Y-120497758D01*
X64916241Y-120478117D01*
X64916237Y-120478117D01*
X64691731Y-120497758D01*
X64691724Y-120497759D01*
X64474038Y-120556088D01*
X64474027Y-120556092D01*
X64269782Y-120651333D01*
X64269772Y-120651339D01*
X64085165Y-120780603D01*
X63925805Y-120939963D01*
X63796541Y-121124570D01*
X63796535Y-121124580D01*
X63701294Y-121328825D01*
X63701290Y-121328837D01*
X63650754Y-121517438D01*
X63614388Y-121577098D01*
X63551541Y-121607627D01*
X63482166Y-121599332D01*
X63428288Y-121554846D01*
X63411204Y-121517436D01*
X63360718Y-121329013D01*
X63360713Y-121329002D01*
X63265506Y-121124828D01*
X63216288Y-121054538D01*
X62649613Y-121621213D01*
X62635461Y-121568395D01*
X62566343Y-121448680D01*
X62468596Y-121350933D01*
X62348881Y-121281815D01*
X62296061Y-121267661D01*
X62862736Y-120700986D01*
X62862736Y-120700985D01*
X62792448Y-120651770D01*
X62792446Y-120651769D01*
X62588273Y-120556562D01*
X62588264Y-120556558D01*
X62370670Y-120498255D01*
X62370660Y-120498253D01*
X62146240Y-120478619D01*
X62146238Y-120478619D01*
X61921817Y-120498253D01*
X61921807Y-120498255D01*
X61704213Y-120556558D01*
X61704204Y-120556562D01*
X61500026Y-120651772D01*
X61429741Y-120700985D01*
X61429740Y-120700986D01*
X61996416Y-121267661D01*
X61943597Y-121281815D01*
X61823882Y-121350933D01*
X61726135Y-121448680D01*
X61657017Y-121568395D01*
X61642864Y-121621214D01*
X61076188Y-121054538D01*
X61076187Y-121054539D01*
X61026974Y-121124824D01*
X60931764Y-121329002D01*
X60931761Y-121329008D01*
X60908013Y-121417640D01*
X60871648Y-121477300D01*
X60808801Y-121507829D01*
X60739425Y-121499534D01*
X60685548Y-121455049D01*
X60664273Y-121388497D01*
X60664238Y-121385546D01*
X60664238Y-120935666D01*
X60664237Y-120935660D01*
X60664236Y-120935653D01*
X60657830Y-120876054D01*
X60607535Y-120741206D01*
X60607534Y-120741205D01*
X60607532Y-120741201D01*
X60521286Y-120625992D01*
X60521283Y-120625989D01*
X60406074Y-120539743D01*
X60406067Y-120539739D01*
X60271221Y-120489445D01*
X60271222Y-120489445D01*
X60211622Y-120483038D01*
X60211620Y-120483037D01*
X60211612Y-120483037D01*
X60211603Y-120483037D01*
X58540868Y-120483037D01*
X58540862Y-120483038D01*
X58481255Y-120489445D01*
X58346410Y-120539739D01*
X58346403Y-120539743D01*
X58231194Y-120625989D01*
X58231191Y-120625992D01*
X58144945Y-120741201D01*
X58144941Y-120741208D01*
X58094647Y-120876054D01*
X58088240Y-120935653D01*
X58088240Y-120935660D01*
X58088239Y-120935672D01*
X53577657Y-120935672D01*
X53502084Y-120894125D01*
X53502081Y-120894123D01*
X53502076Y-120894121D01*
X53502075Y-120894120D01*
X53205684Y-120776771D01*
X53205681Y-120776770D01*
X52896911Y-120697492D01*
X52896898Y-120697490D01*
X52580644Y-120657537D01*
X52580633Y-120657537D01*
X52261845Y-120657537D01*
X52261833Y-120657537D01*
X51945579Y-120697490D01*
X51945566Y-120697492D01*
X51636796Y-120776770D01*
X51636793Y-120776771D01*
X51340402Y-120894120D01*
X51340401Y-120894121D01*
X51061038Y-121047703D01*
X51061026Y-121047710D01*
X50803140Y-121235075D01*
X50803130Y-121235083D01*
X50570747Y-121453306D01*
X50367538Y-121698943D01*
X50196728Y-121968098D01*
X50196725Y-121968104D01*
X50060995Y-122256543D01*
X50060993Y-122256548D01*
X49962483Y-122559730D01*
X49902746Y-122872880D01*
X49902745Y-122872887D01*
X49882730Y-123191031D01*
X42554903Y-123191031D01*
X42551608Y-123161787D01*
X42551607Y-123161782D01*
X42492028Y-122991515D01*
X42488553Y-122985985D01*
X42452821Y-122929117D01*
X42396055Y-122838775D01*
X42268501Y-122711221D01*
X42115762Y-122615248D01*
X41945493Y-122555668D01*
X41945488Y-122555667D01*
X41766243Y-122535472D01*
X41766235Y-122535472D01*
X41586989Y-122555667D01*
X41586984Y-122555668D01*
X41416715Y-122615248D01*
X41263976Y-122711221D01*
X41136423Y-122838774D01*
X41040450Y-122991513D01*
X40980870Y-123161782D01*
X40980869Y-123161787D01*
X40960674Y-123341033D01*
X28741739Y-123341033D01*
X28741739Y-120166033D01*
X34610674Y-120166033D01*
X34610674Y-120166040D01*
X34630869Y-120345286D01*
X34630870Y-120345291D01*
X34690450Y-120515560D01*
X34776037Y-120651770D01*
X34786423Y-120668299D01*
X34913977Y-120795853D01*
X35066717Y-120891826D01*
X35191999Y-120935664D01*
X35236984Y-120951405D01*
X35236989Y-120951406D01*
X35416235Y-120971602D01*
X35416239Y-120971602D01*
X35416243Y-120971602D01*
X35595488Y-120951406D01*
X35595491Y-120951405D01*
X35595494Y-120951405D01*
X35765761Y-120891826D01*
X35918501Y-120795853D01*
X36046055Y-120668299D01*
X36142028Y-120515559D01*
X36201607Y-120345292D01*
X36221804Y-120166037D01*
X36201607Y-119986782D01*
X36142028Y-119816515D01*
X36046055Y-119663775D01*
X35918501Y-119536221D01*
X35765762Y-119440248D01*
X35595493Y-119380668D01*
X35595488Y-119380667D01*
X35416243Y-119360472D01*
X35416235Y-119360472D01*
X35236989Y-119380667D01*
X35236984Y-119380668D01*
X35066715Y-119440248D01*
X34913976Y-119536221D01*
X34786423Y-119663774D01*
X34690450Y-119816513D01*
X34630870Y-119986782D01*
X34630869Y-119986787D01*
X34610674Y-120166033D01*
X28741739Y-120166033D01*
X28741739Y-118261033D01*
X32705674Y-118261033D01*
X32705674Y-118261040D01*
X32725869Y-118440286D01*
X32725870Y-118440291D01*
X32785450Y-118610560D01*
X32881423Y-118763299D01*
X33008977Y-118890853D01*
X33161717Y-118986826D01*
X33331984Y-119046405D01*
X33331989Y-119046406D01*
X33511235Y-119066602D01*
X33511239Y-119066602D01*
X33511243Y-119066602D01*
X33690488Y-119046406D01*
X33690491Y-119046405D01*
X33690494Y-119046405D01*
X33860761Y-118986826D01*
X34013501Y-118890853D01*
X34141055Y-118763299D01*
X34237028Y-118610559D01*
X34296607Y-118440292D01*
X34316804Y-118261037D01*
X34296607Y-118081782D01*
X34237028Y-117911515D01*
X34141055Y-117758775D01*
X34013501Y-117631221D01*
X33860762Y-117535248D01*
X33690493Y-117475668D01*
X33690488Y-117475667D01*
X33511243Y-117455472D01*
X33511235Y-117455472D01*
X33331989Y-117475667D01*
X33331984Y-117475668D01*
X33161715Y-117535248D01*
X33008976Y-117631221D01*
X32881423Y-117758774D01*
X32785450Y-117911513D01*
X32725870Y-118081782D01*
X32725869Y-118081787D01*
X32705674Y-118261033D01*
X28741739Y-118261033D01*
X28741739Y-113816033D01*
X53660674Y-113816033D01*
X53660674Y-113816040D01*
X53680869Y-113995286D01*
X53680870Y-113995291D01*
X53740450Y-114165560D01*
X53836423Y-114318299D01*
X53963977Y-114445853D01*
X54116717Y-114541826D01*
X54286984Y-114601405D01*
X54286989Y-114601406D01*
X54466235Y-114621602D01*
X54466239Y-114621602D01*
X54466243Y-114621602D01*
X54645488Y-114601406D01*
X54645491Y-114601405D01*
X54645494Y-114601405D01*
X54815761Y-114541826D01*
X54968501Y-114445853D01*
X55096055Y-114318299D01*
X55192028Y-114165559D01*
X55251607Y-113995292D01*
X55271804Y-113816037D01*
X55251607Y-113636782D01*
X55192028Y-113466515D01*
X55096055Y-113313775D01*
X54968501Y-113186221D01*
X54815762Y-113090248D01*
X54645493Y-113030668D01*
X54645488Y-113030667D01*
X54466243Y-113010472D01*
X54466235Y-113010472D01*
X54286989Y-113030667D01*
X54286984Y-113030668D01*
X54116715Y-113090248D01*
X53963976Y-113186221D01*
X53836423Y-113313774D01*
X53740450Y-113466513D01*
X53680870Y-113636782D01*
X53680869Y-113636787D01*
X53660674Y-113816033D01*
X28741739Y-113816033D01*
X28741739Y-112546033D01*
X58105674Y-112546033D01*
X58105674Y-112546040D01*
X58125869Y-112725286D01*
X58125870Y-112725291D01*
X58185450Y-112895560D01*
X58257655Y-113010472D01*
X58281423Y-113048299D01*
X58408977Y-113175853D01*
X58561717Y-113271826D01*
X58731984Y-113331405D01*
X58731989Y-113331406D01*
X58911235Y-113351602D01*
X58911239Y-113351602D01*
X58911243Y-113351602D01*
X59090488Y-113331406D01*
X59090491Y-113331405D01*
X59090494Y-113331405D01*
X59260761Y-113271826D01*
X59413501Y-113175853D01*
X59541055Y-113048299D01*
X59637028Y-112895559D01*
X59696607Y-112725292D01*
X59716804Y-112546037D01*
X59696607Y-112366782D01*
X59637028Y-112196515D01*
X59541055Y-112043775D01*
X59413501Y-111916221D01*
X59260762Y-111820248D01*
X59090493Y-111760668D01*
X59090488Y-111760667D01*
X58911243Y-111740472D01*
X58911235Y-111740472D01*
X58731989Y-111760667D01*
X58731984Y-111760668D01*
X58561715Y-111820248D01*
X58408976Y-111916221D01*
X58281423Y-112043774D01*
X58185450Y-112196513D01*
X58125870Y-112366782D01*
X58125869Y-112366787D01*
X58105674Y-112546033D01*
X28741739Y-112546033D01*
X28741739Y-108188495D01*
X30620739Y-108188495D01*
X30620739Y-108443578D01*
X30660640Y-108695505D01*
X30739464Y-108938097D01*
X30855263Y-109165364D01*
X31005191Y-109371722D01*
X31185554Y-109552085D01*
X31391912Y-109702013D01*
X31499289Y-109756724D01*
X31619178Y-109817811D01*
X31619180Y-109817811D01*
X31619183Y-109817813D01*
X31749215Y-109860063D01*
X31861770Y-109896635D01*
X32113698Y-109936537D01*
X32113703Y-109936537D01*
X32368780Y-109936537D01*
X32620707Y-109896635D01*
X32863295Y-109817813D01*
X33090566Y-109702013D01*
X33296924Y-109552085D01*
X33477287Y-109371722D01*
X33627215Y-109165364D01*
X33743015Y-108938093D01*
X33821837Y-108695505D01*
X33825475Y-108672537D01*
X33861739Y-108443578D01*
X33861739Y-108188495D01*
X33821837Y-107936568D01*
X33743013Y-107693976D01*
X33659227Y-107529537D01*
X33627215Y-107466710D01*
X33477287Y-107260352D01*
X33296924Y-107079989D01*
X33090566Y-106930061D01*
X33082174Y-106925785D01*
X32896214Y-106831033D01*
X39055674Y-106831033D01*
X39055674Y-106831040D01*
X39075869Y-107010286D01*
X39075870Y-107010291D01*
X39135450Y-107180560D01*
X39185585Y-107260349D01*
X39231423Y-107333299D01*
X39358977Y-107460853D01*
X39511717Y-107556826D01*
X39681984Y-107616405D01*
X39685877Y-107617767D01*
X39742653Y-107658489D01*
X39768401Y-107723441D01*
X39761965Y-107775764D01*
X39710870Y-107921782D01*
X39710869Y-107921787D01*
X39690674Y-108101033D01*
X39690674Y-108101040D01*
X39710869Y-108280286D01*
X39710870Y-108280291D01*
X39770450Y-108450560D01*
X39866423Y-108603299D01*
X39993977Y-108730853D01*
X40146717Y-108826826D01*
X40316984Y-108886405D01*
X40316989Y-108886406D01*
X40496235Y-108906602D01*
X40496239Y-108906602D01*
X40496243Y-108906602D01*
X40675488Y-108886406D01*
X40675491Y-108886405D01*
X40675494Y-108886405D01*
X40845761Y-108826826D01*
X40998501Y-108730853D01*
X41126055Y-108603299D01*
X41222028Y-108450559D01*
X41281607Y-108280292D01*
X41281608Y-108280286D01*
X41301804Y-108101040D01*
X41301804Y-108101036D01*
X46510174Y-108101036D01*
X46510174Y-108101037D01*
X46530395Y-108332169D01*
X46530397Y-108332179D01*
X46590444Y-108556280D01*
X46590446Y-108556284D01*
X46590447Y-108556288D01*
X46639475Y-108661429D01*
X46688502Y-108766569D01*
X46688503Y-108766570D01*
X46821584Y-108956629D01*
X46985647Y-109120692D01*
X47175706Y-109253773D01*
X47385988Y-109351829D01*
X47610102Y-109411880D01*
X47795011Y-109428057D01*
X47841238Y-109432102D01*
X47841239Y-109432102D01*
X47841240Y-109432102D01*
X47879761Y-109428731D01*
X48072376Y-109411880D01*
X48296490Y-109351829D01*
X48506772Y-109253773D01*
X48696831Y-109120692D01*
X48860894Y-108956629D01*
X48989665Y-108772725D01*
X49044241Y-108729101D01*
X49113740Y-108721909D01*
X49176094Y-108753431D01*
X49192811Y-108772722D01*
X49321584Y-108956629D01*
X49485647Y-109120692D01*
X49675706Y-109253773D01*
X49885988Y-109351829D01*
X50110102Y-109411880D01*
X50295011Y-109428057D01*
X50341238Y-109432102D01*
X50341239Y-109432102D01*
X50341240Y-109432102D01*
X50379761Y-109428731D01*
X50572376Y-109411880D01*
X50796490Y-109351829D01*
X51006772Y-109253773D01*
X51196831Y-109120692D01*
X51360894Y-108956629D01*
X51489665Y-108772725D01*
X51544241Y-108729101D01*
X51613740Y-108721909D01*
X51676094Y-108753431D01*
X51692811Y-108772722D01*
X51821584Y-108956629D01*
X51985647Y-109120692D01*
X52175706Y-109253773D01*
X52385988Y-109351829D01*
X52610102Y-109411880D01*
X52795011Y-109428057D01*
X52841238Y-109432102D01*
X52841239Y-109432102D01*
X52841240Y-109432102D01*
X52879761Y-109428731D01*
X53072376Y-109411880D01*
X53296490Y-109351829D01*
X53506772Y-109253773D01*
X53696831Y-109120692D01*
X53860894Y-108956629D01*
X53989665Y-108772725D01*
X54044241Y-108729101D01*
X54113740Y-108721909D01*
X54176094Y-108753431D01*
X54192811Y-108772722D01*
X54321584Y-108956629D01*
X54485647Y-109120692D01*
X54675706Y-109253773D01*
X54885988Y-109351829D01*
X55110102Y-109411880D01*
X55295011Y-109428057D01*
X55341238Y-109432102D01*
X55341239Y-109432102D01*
X55341240Y-109432102D01*
X55379761Y-109428731D01*
X55572376Y-109411880D01*
X55796490Y-109351829D01*
X56006772Y-109253773D01*
X56196831Y-109120692D01*
X56360894Y-108956629D01*
X56489665Y-108772725D01*
X56544241Y-108729101D01*
X56613740Y-108721909D01*
X56676094Y-108753431D01*
X56692811Y-108772722D01*
X56821584Y-108956629D01*
X56985647Y-109120692D01*
X57175706Y-109253773D01*
X57385988Y-109351829D01*
X57610102Y-109411880D01*
X57795011Y-109428057D01*
X57841238Y-109432102D01*
X57841239Y-109432102D01*
X57841240Y-109432102D01*
X57879761Y-109428731D01*
X58072376Y-109411880D01*
X58296490Y-109351829D01*
X58506772Y-109253773D01*
X58696831Y-109120692D01*
X58860894Y-108956629D01*
X58989665Y-108772725D01*
X59044241Y-108729101D01*
X59113740Y-108721909D01*
X59176094Y-108753431D01*
X59192811Y-108772722D01*
X59321584Y-108956629D01*
X59485647Y-109120692D01*
X59675706Y-109253773D01*
X59885988Y-109351829D01*
X60110102Y-109411880D01*
X60295011Y-109428057D01*
X60341238Y-109432102D01*
X60341239Y-109432102D01*
X60341240Y-109432102D01*
X60379761Y-109428731D01*
X60572376Y-109411880D01*
X60796490Y-109351829D01*
X61006772Y-109253773D01*
X61196831Y-109120692D01*
X61360894Y-108956629D01*
X61489665Y-108772725D01*
X61544241Y-108729101D01*
X61613740Y-108721909D01*
X61676094Y-108753431D01*
X61692811Y-108772722D01*
X61821584Y-108956629D01*
X61985647Y-109120692D01*
X62175706Y-109253773D01*
X62385988Y-109351829D01*
X62610102Y-109411880D01*
X62795011Y-109428057D01*
X62841238Y-109432102D01*
X62841239Y-109432102D01*
X62841240Y-109432102D01*
X62879761Y-109428731D01*
X63072376Y-109411880D01*
X63296490Y-109351829D01*
X63506772Y-109253773D01*
X63696831Y-109120692D01*
X63860894Y-108956629D01*
X63989665Y-108772725D01*
X64044241Y-108729101D01*
X64113740Y-108721909D01*
X64176094Y-108753431D01*
X64192811Y-108772722D01*
X64321584Y-108956629D01*
X64485647Y-109120692D01*
X64675706Y-109253773D01*
X64885988Y-109351829D01*
X65110102Y-109411880D01*
X65295011Y-109428057D01*
X65341238Y-109432102D01*
X65341239Y-109432102D01*
X65341240Y-109432102D01*
X65379761Y-109428731D01*
X65572376Y-109411880D01*
X65796490Y-109351829D01*
X66006772Y-109253773D01*
X66196831Y-109120692D01*
X66360894Y-108956629D01*
X66489665Y-108772725D01*
X66544241Y-108729101D01*
X66613740Y-108721909D01*
X66676094Y-108753431D01*
X66692811Y-108772722D01*
X66821584Y-108956629D01*
X66985647Y-109120692D01*
X67175706Y-109253773D01*
X67385988Y-109351829D01*
X67610102Y-109411880D01*
X67795011Y-109428057D01*
X67841238Y-109432102D01*
X67841239Y-109432102D01*
X67841240Y-109432102D01*
X67879761Y-109428731D01*
X68072376Y-109411880D01*
X68296490Y-109351829D01*
X68506772Y-109253773D01*
X68696831Y-109120692D01*
X68860894Y-108956629D01*
X68989970Y-108772288D01*
X69044546Y-108728665D01*
X69114044Y-108721472D01*
X69176399Y-108752994D01*
X69193119Y-108772289D01*
X69243904Y-108844818D01*
X69799896Y-108288826D01*
X69808686Y-108321628D01*
X69883926Y-108451946D01*
X69990330Y-108558350D01*
X70120648Y-108633590D01*
X70153449Y-108642379D01*
X69597457Y-109198370D01*
X69675957Y-109253338D01*
X69886158Y-109351355D01*
X69886164Y-109351358D01*
X70110187Y-109411385D01*
X70110194Y-109411386D01*
X70341237Y-109431600D01*
X70341241Y-109431600D01*
X70572283Y-109411386D01*
X70572290Y-109411385D01*
X70796313Y-109351358D01*
X70796324Y-109351354D01*
X71006518Y-109253339D01*
X71006522Y-109253337D01*
X71085019Y-109198370D01*
X70529028Y-108642379D01*
X70561830Y-108633590D01*
X70692148Y-108558350D01*
X70798552Y-108451946D01*
X70873792Y-108321628D01*
X70882581Y-108288826D01*
X71438572Y-108844817D01*
X71493539Y-108766320D01*
X71493541Y-108766316D01*
X71591556Y-108556122D01*
X71591560Y-108556111D01*
X71651587Y-108332088D01*
X71651588Y-108332081D01*
X71664184Y-108188107D01*
X79615739Y-108188107D01*
X79615739Y-108443966D01*
X79655765Y-108696677D01*
X79734827Y-108940009D01*
X79734828Y-108940012D01*
X79813772Y-109094947D01*
X79826890Y-109120692D01*
X79850989Y-109167987D01*
X80001371Y-109374972D01*
X80001375Y-109374977D01*
X80182298Y-109555900D01*
X80182303Y-109555904D01*
X80362846Y-109687075D01*
X80389292Y-109706289D01*
X80538319Y-109782222D01*
X80617263Y-109822447D01*
X80617266Y-109822448D01*
X80738932Y-109861979D01*
X80860600Y-109901511D01*
X81113309Y-109941537D01*
X81113310Y-109941537D01*
X81369168Y-109941537D01*
X81369169Y-109941537D01*
X81621878Y-109901511D01*
X81865214Y-109822447D01*
X82093186Y-109706289D01*
X82300181Y-109555899D01*
X82481101Y-109374979D01*
X82631491Y-109167984D01*
X82747649Y-108940012D01*
X82826713Y-108696676D01*
X82866739Y-108443967D01*
X82866739Y-108188107D01*
X82826713Y-107935398D01*
X82747649Y-107692062D01*
X82747649Y-107692061D01*
X82707424Y-107613117D01*
X82631491Y-107464090D01*
X82553871Y-107357255D01*
X82481106Y-107257101D01*
X82481102Y-107257096D01*
X82300179Y-107076173D01*
X82300174Y-107076169D01*
X82093189Y-106925787D01*
X82093188Y-106925786D01*
X82093186Y-106925785D01*
X82012272Y-106884557D01*
X81865214Y-106809626D01*
X81865211Y-106809625D01*
X81621879Y-106730563D01*
X81495523Y-106710550D01*
X81369169Y-106690537D01*
X81113309Y-106690537D01*
X81064303Y-106698299D01*
X80860598Y-106730563D01*
X80617266Y-106809625D01*
X80617263Y-106809626D01*
X80389288Y-106925787D01*
X80182303Y-107076169D01*
X80182298Y-107076173D01*
X80001375Y-107257096D01*
X80001371Y-107257101D01*
X79850989Y-107464086D01*
X79734828Y-107692061D01*
X79734827Y-107692064D01*
X79655765Y-107935396D01*
X79615739Y-108188107D01*
X71664184Y-108188107D01*
X71671802Y-108101038D01*
X71671802Y-108101035D01*
X71651588Y-107869992D01*
X71651587Y-107869985D01*
X71591557Y-107645954D01*
X71493539Y-107435756D01*
X71438572Y-107357254D01*
X70882580Y-107913246D01*
X70873792Y-107880446D01*
X70798552Y-107750128D01*
X70692148Y-107643724D01*
X70561830Y-107568484D01*
X70529028Y-107559694D01*
X71085020Y-107003702D01*
X71006520Y-106948736D01*
X70796319Y-106850718D01*
X70796313Y-106850715D01*
X70572290Y-106790688D01*
X70572283Y-106790687D01*
X70341241Y-106770474D01*
X70341237Y-106770474D01*
X70110194Y-106790687D01*
X70110187Y-106790688D01*
X69886156Y-106850718D01*
X69675954Y-106948738D01*
X69597457Y-107003701D01*
X69597456Y-107003702D01*
X70153449Y-107559694D01*
X70120648Y-107568484D01*
X69990330Y-107643724D01*
X69883926Y-107750128D01*
X69808686Y-107880446D01*
X69799896Y-107913246D01*
X69243904Y-107357254D01*
X69243903Y-107357255D01*
X69193119Y-107429783D01*
X69138542Y-107473408D01*
X69069044Y-107480601D01*
X69006689Y-107449079D01*
X68989969Y-107429783D01*
X68860893Y-107245443D01*
X68696835Y-107081386D01*
X68696834Y-107081385D01*
X68696831Y-107081382D01*
X68530354Y-106964813D01*
X68506771Y-106948300D01*
X68370072Y-106884557D01*
X68296490Y-106850245D01*
X68296486Y-106850244D01*
X68296482Y-106850242D01*
X68072381Y-106790195D01*
X68072371Y-106790193D01*
X67841240Y-106769972D01*
X67841238Y-106769972D01*
X67610106Y-106790193D01*
X67610096Y-106790195D01*
X67385995Y-106850242D01*
X67385986Y-106850246D01*
X67175706Y-106948301D01*
X67175702Y-106948303D01*
X66985645Y-107081382D01*
X66821584Y-107245443D01*
X66692814Y-107429347D01*
X66638237Y-107472972D01*
X66568739Y-107480165D01*
X66506384Y-107448643D01*
X66489664Y-107429347D01*
X66360893Y-107245443D01*
X66196835Y-107081386D01*
X66196834Y-107081385D01*
X66196831Y-107081382D01*
X66030354Y-106964813D01*
X66006771Y-106948300D01*
X65870072Y-106884557D01*
X65796490Y-106850245D01*
X65796486Y-106850244D01*
X65796482Y-106850242D01*
X65572381Y-106790195D01*
X65572371Y-106790193D01*
X65341240Y-106769972D01*
X65341238Y-106769972D01*
X65110106Y-106790193D01*
X65110096Y-106790195D01*
X64885995Y-106850242D01*
X64885986Y-106850246D01*
X64675706Y-106948301D01*
X64675702Y-106948303D01*
X64485645Y-107081382D01*
X64321584Y-107245443D01*
X64192814Y-107429347D01*
X64138237Y-107472972D01*
X64068739Y-107480165D01*
X64006384Y-107448643D01*
X63989664Y-107429347D01*
X63860893Y-107245443D01*
X63696835Y-107081386D01*
X63696834Y-107081385D01*
X63696831Y-107081382D01*
X63530354Y-106964813D01*
X63506771Y-106948300D01*
X63390575Y-106894117D01*
X63338136Y-106847944D01*
X63318984Y-106780751D01*
X63339200Y-106713870D01*
X63347150Y-106704090D01*
X63346714Y-106703742D01*
X63351050Y-106698303D01*
X63351055Y-106698299D01*
X63447028Y-106545559D01*
X63506607Y-106375292D01*
X63511848Y-106328775D01*
X63526804Y-106196040D01*
X63526804Y-106196033D01*
X63506608Y-106016787D01*
X63506607Y-106016782D01*
X63447027Y-105846513D01*
X63351054Y-105693774D01*
X63223501Y-105566221D01*
X63070762Y-105470248D01*
X62900493Y-105410668D01*
X62900488Y-105410667D01*
X62721243Y-105390472D01*
X62721235Y-105390472D01*
X62541989Y-105410667D01*
X62541984Y-105410668D01*
X62371715Y-105470248D01*
X62218976Y-105566221D01*
X62091423Y-105693774D01*
X61995450Y-105846513D01*
X61935870Y-106016782D01*
X61935869Y-106016787D01*
X61915674Y-106196033D01*
X61915674Y-106196040D01*
X61935869Y-106375286D01*
X61935870Y-106375291D01*
X61995450Y-106545560D01*
X62091423Y-106698299D01*
X62168681Y-106775557D01*
X62202166Y-106836880D01*
X62197182Y-106906572D01*
X62155310Y-106962505D01*
X62152124Y-106964813D01*
X61985642Y-107081385D01*
X61821584Y-107245443D01*
X61692814Y-107429347D01*
X61638237Y-107472972D01*
X61568739Y-107480165D01*
X61506384Y-107448643D01*
X61489664Y-107429347D01*
X61360893Y-107245443D01*
X61196835Y-107081386D01*
X61196834Y-107081385D01*
X61196831Y-107081382D01*
X61030354Y-106964813D01*
X61006771Y-106948300D01*
X60870072Y-106884557D01*
X60796490Y-106850245D01*
X60796486Y-106850244D01*
X60796482Y-106850242D01*
X60572381Y-106790195D01*
X60572371Y-106790193D01*
X60341240Y-106769972D01*
X60341238Y-106769972D01*
X60110106Y-106790193D01*
X60110096Y-106790195D01*
X59885995Y-106850242D01*
X59885986Y-106850246D01*
X59675706Y-106948301D01*
X59675702Y-106948303D01*
X59485645Y-107081382D01*
X59321584Y-107245443D01*
X59192814Y-107429347D01*
X59138237Y-107472972D01*
X59068739Y-107480165D01*
X59006384Y-107448643D01*
X58989664Y-107429347D01*
X58860893Y-107245443D01*
X58696835Y-107081386D01*
X58696834Y-107081385D01*
X58696831Y-107081382D01*
X58530354Y-106964813D01*
X58506771Y-106948300D01*
X58370072Y-106884557D01*
X58296490Y-106850245D01*
X58296486Y-106850244D01*
X58296482Y-106850242D01*
X58072381Y-106790195D01*
X58072371Y-106790193D01*
X57841240Y-106769972D01*
X57841238Y-106769972D01*
X57610106Y-106790193D01*
X57610096Y-106790195D01*
X57385995Y-106850242D01*
X57385986Y-106850246D01*
X57175706Y-106948301D01*
X57175702Y-106948303D01*
X56985645Y-107081382D01*
X56821584Y-107245443D01*
X56692814Y-107429347D01*
X56638237Y-107472972D01*
X56568739Y-107480165D01*
X56506384Y-107448643D01*
X56489664Y-107429347D01*
X56360893Y-107245443D01*
X56196835Y-107081386D01*
X56196834Y-107081385D01*
X56196831Y-107081382D01*
X56030354Y-106964813D01*
X56006771Y-106948300D01*
X55870072Y-106884557D01*
X55796490Y-106850245D01*
X55796486Y-106850244D01*
X55796482Y-106850242D01*
X55572381Y-106790195D01*
X55572371Y-106790193D01*
X55341240Y-106769972D01*
X55341238Y-106769972D01*
X55110106Y-106790193D01*
X55110096Y-106790195D01*
X54885995Y-106850242D01*
X54885986Y-106850246D01*
X54675706Y-106948301D01*
X54675702Y-106948303D01*
X54485645Y-107081382D01*
X54321584Y-107245443D01*
X54192814Y-107429347D01*
X54138237Y-107472972D01*
X54068739Y-107480165D01*
X54006384Y-107448643D01*
X53989664Y-107429347D01*
X53860893Y-107245443D01*
X53696835Y-107081386D01*
X53696834Y-107081385D01*
X53696831Y-107081382D01*
X53530354Y-106964813D01*
X53506771Y-106948300D01*
X53370072Y-106884557D01*
X53296490Y-106850245D01*
X53296486Y-106850244D01*
X53296482Y-106850242D01*
X53072381Y-106790195D01*
X53072371Y-106790193D01*
X52841240Y-106769972D01*
X52841238Y-106769972D01*
X52610106Y-106790193D01*
X52610096Y-106790195D01*
X52385995Y-106850242D01*
X52385986Y-106850246D01*
X52175706Y-106948301D01*
X52175702Y-106948303D01*
X51985645Y-107081382D01*
X51821584Y-107245443D01*
X51692814Y-107429347D01*
X51638237Y-107472972D01*
X51568739Y-107480165D01*
X51506384Y-107448643D01*
X51489664Y-107429347D01*
X51360893Y-107245443D01*
X51196835Y-107081386D01*
X51196834Y-107081385D01*
X51196831Y-107081382D01*
X51030354Y-106964813D01*
X51006771Y-106948300D01*
X50870072Y-106884557D01*
X50796490Y-106850245D01*
X50796486Y-106850244D01*
X50796482Y-106850242D01*
X50572381Y-106790195D01*
X50572371Y-106790193D01*
X50341240Y-106769972D01*
X50341238Y-106769972D01*
X50110106Y-106790193D01*
X50110096Y-106790195D01*
X49885995Y-106850242D01*
X49885986Y-106850246D01*
X49675706Y-106948301D01*
X49675702Y-106948303D01*
X49485645Y-107081382D01*
X49321584Y-107245443D01*
X49192814Y-107429347D01*
X49138237Y-107472972D01*
X49068739Y-107480165D01*
X49006384Y-107448643D01*
X48989664Y-107429347D01*
X48860893Y-107245443D01*
X48696835Y-107081386D01*
X48696834Y-107081385D01*
X48696831Y-107081382D01*
X48530354Y-106964813D01*
X48506771Y-106948300D01*
X48370072Y-106884557D01*
X48296490Y-106850245D01*
X48296486Y-106850244D01*
X48296482Y-106850242D01*
X48072381Y-106790195D01*
X48072371Y-106790193D01*
X47841240Y-106769972D01*
X47841238Y-106769972D01*
X47610106Y-106790193D01*
X47610096Y-106790195D01*
X47385995Y-106850242D01*
X47385986Y-106850246D01*
X47175706Y-106948301D01*
X47175702Y-106948303D01*
X46985645Y-107081382D01*
X46821584Y-107245443D01*
X46688505Y-107435500D01*
X46688503Y-107435504D01*
X46590448Y-107645784D01*
X46590444Y-107645793D01*
X46530397Y-107869894D01*
X46530395Y-107869904D01*
X46510174Y-108101036D01*
X41301804Y-108101036D01*
X41301804Y-108101033D01*
X41281608Y-107921787D01*
X41281607Y-107921785D01*
X41281607Y-107921782D01*
X41261108Y-107863202D01*
X41257546Y-107793427D01*
X41290467Y-107734571D01*
X45369005Y-103656033D01*
X56835674Y-103656033D01*
X56835674Y-103656040D01*
X56855869Y-103835286D01*
X56855870Y-103835291D01*
X56915450Y-104005560D01*
X57011423Y-104158299D01*
X57138977Y-104285853D01*
X57291717Y-104381826D01*
X57461984Y-104441405D01*
X57461989Y-104441406D01*
X57641235Y-104461602D01*
X57641239Y-104461602D01*
X57641243Y-104461602D01*
X57820488Y-104441406D01*
X57820491Y-104441405D01*
X57820494Y-104441405D01*
X57990761Y-104381826D01*
X58143501Y-104285853D01*
X58271055Y-104158299D01*
X58367028Y-104005559D01*
X58426607Y-103835292D01*
X58429862Y-103806403D01*
X58446804Y-103656040D01*
X58446804Y-103656033D01*
X58426608Y-103476787D01*
X58426607Y-103476782D01*
X58367027Y-103306513D01*
X58327821Y-103244117D01*
X58271055Y-103153775D01*
X58143501Y-103026221D01*
X58135244Y-103021033D01*
X73980674Y-103021033D01*
X73980674Y-103021040D01*
X74000869Y-103200286D01*
X74000870Y-103200291D01*
X74060450Y-103370560D01*
X74156423Y-103523299D01*
X74283977Y-103650853D01*
X74436717Y-103746826D01*
X74460966Y-103755311D01*
X74606984Y-103806405D01*
X74606989Y-103806406D01*
X74786235Y-103826602D01*
X74786239Y-103826602D01*
X74786243Y-103826602D01*
X74965488Y-103806406D01*
X74965491Y-103806405D01*
X74965494Y-103806405D01*
X75135761Y-103746826D01*
X75288501Y-103650853D01*
X75416055Y-103523299D01*
X75512028Y-103370559D01*
X75571607Y-103200292D01*
X75576848Y-103153775D01*
X75591804Y-103021040D01*
X75591804Y-103021033D01*
X75571608Y-102841787D01*
X75571607Y-102841782D01*
X75567634Y-102830427D01*
X75512028Y-102671515D01*
X75416055Y-102518775D01*
X75288501Y-102391221D01*
X75135762Y-102295248D01*
X74965493Y-102235668D01*
X74965488Y-102235667D01*
X74786243Y-102215472D01*
X74786235Y-102215472D01*
X74606989Y-102235667D01*
X74606984Y-102235668D01*
X74436715Y-102295248D01*
X74283976Y-102391221D01*
X74156423Y-102518774D01*
X74060450Y-102671513D01*
X74000870Y-102841782D01*
X74000869Y-102841787D01*
X73980674Y-103021033D01*
X58135244Y-103021033D01*
X57990762Y-102930248D01*
X57820493Y-102870668D01*
X57820488Y-102870667D01*
X57641243Y-102850472D01*
X57641235Y-102850472D01*
X57461989Y-102870667D01*
X57461984Y-102870668D01*
X57291715Y-102930248D01*
X57138976Y-103026221D01*
X57011423Y-103153774D01*
X56915450Y-103306513D01*
X56855870Y-103476782D01*
X56855869Y-103476787D01*
X56835674Y-103656033D01*
X45369005Y-103656033D01*
X47909005Y-101116033D01*
X55565674Y-101116033D01*
X55565674Y-101116040D01*
X55585869Y-101295286D01*
X55585870Y-101295291D01*
X55645450Y-101465560D01*
X55741423Y-101618299D01*
X55868977Y-101745853D01*
X56021717Y-101841826D01*
X56191984Y-101901405D01*
X56191989Y-101901406D01*
X56371235Y-101921602D01*
X56371239Y-101921602D01*
X56371243Y-101921602D01*
X56550488Y-101901406D01*
X56550491Y-101901405D01*
X56550494Y-101901405D01*
X56720761Y-101841826D01*
X56865257Y-101751033D01*
X68900674Y-101751033D01*
X68900674Y-101751040D01*
X68920869Y-101930286D01*
X68920870Y-101930291D01*
X68980450Y-102100560D01*
X69052655Y-102215472D01*
X69076423Y-102253299D01*
X69203977Y-102380853D01*
X69356717Y-102476826D01*
X69526984Y-102536405D01*
X69526989Y-102536406D01*
X69706235Y-102556602D01*
X69706239Y-102556602D01*
X69706243Y-102556602D01*
X69885488Y-102536406D01*
X69885491Y-102536405D01*
X69885494Y-102536405D01*
X70055761Y-102476826D01*
X70208501Y-102380853D01*
X70336055Y-102253299D01*
X70432028Y-102100559D01*
X70491607Y-101930292D01*
X70511804Y-101751037D01*
X70496848Y-101618299D01*
X70491608Y-101571787D01*
X70491607Y-101571782D01*
X70432027Y-101401513D01*
X70392821Y-101339117D01*
X70336055Y-101248775D01*
X70208501Y-101121221D01*
X70055762Y-101025248D01*
X69885493Y-100965668D01*
X69885488Y-100965667D01*
X69706243Y-100945472D01*
X69706235Y-100945472D01*
X69526989Y-100965667D01*
X69526984Y-100965668D01*
X69356715Y-101025248D01*
X69203976Y-101121221D01*
X69076423Y-101248774D01*
X68980450Y-101401513D01*
X68920870Y-101571782D01*
X68920869Y-101571787D01*
X68900674Y-101751033D01*
X56865257Y-101751033D01*
X56873501Y-101745853D01*
X57001055Y-101618299D01*
X57097028Y-101465559D01*
X57156607Y-101295292D01*
X57161848Y-101248775D01*
X57176804Y-101116040D01*
X57176804Y-101116033D01*
X57156608Y-100936787D01*
X57156607Y-100936782D01*
X57097027Y-100766513D01*
X57057821Y-100704117D01*
X57001055Y-100613775D01*
X56873501Y-100486221D01*
X56865244Y-100481033D01*
X66995674Y-100481033D01*
X66995674Y-100481040D01*
X67015869Y-100660286D01*
X67015870Y-100660291D01*
X67075450Y-100830560D01*
X67147655Y-100945472D01*
X67171423Y-100983299D01*
X67298977Y-101110853D01*
X67451717Y-101206826D01*
X67621984Y-101266405D01*
X67621989Y-101266406D01*
X67801235Y-101286602D01*
X67801239Y-101286602D01*
X67801243Y-101286602D01*
X67980488Y-101266406D01*
X67980491Y-101266405D01*
X67980494Y-101266405D01*
X68150761Y-101206826D01*
X68303501Y-101110853D01*
X68431055Y-100983299D01*
X68527028Y-100830559D01*
X68586607Y-100660292D01*
X68591848Y-100613775D01*
X68606804Y-100481040D01*
X68606804Y-100481033D01*
X68586608Y-100301787D01*
X68586607Y-100301782D01*
X68527027Y-100131513D01*
X68431054Y-99978774D01*
X68303501Y-99851221D01*
X68150762Y-99755248D01*
X67980493Y-99695668D01*
X67980488Y-99695667D01*
X67801243Y-99675472D01*
X67801235Y-99675472D01*
X67621989Y-99695667D01*
X67621984Y-99695668D01*
X67451715Y-99755248D01*
X67298976Y-99851221D01*
X67171423Y-99978774D01*
X67075450Y-100131513D01*
X67015870Y-100301782D01*
X67015869Y-100301787D01*
X66995674Y-100481033D01*
X56865244Y-100481033D01*
X56720762Y-100390248D01*
X56550493Y-100330668D01*
X56550488Y-100330667D01*
X56371243Y-100310472D01*
X56371235Y-100310472D01*
X56191989Y-100330667D01*
X56191984Y-100330668D01*
X56021715Y-100390248D01*
X55868976Y-100486221D01*
X55741423Y-100613774D01*
X55645450Y-100766513D01*
X55585870Y-100936782D01*
X55585869Y-100936787D01*
X55565674Y-101116033D01*
X47909005Y-101116033D01*
X51084005Y-97941033D01*
X57470674Y-97941033D01*
X57470674Y-97941040D01*
X57490869Y-98120286D01*
X57490870Y-98120291D01*
X57550450Y-98290560D01*
X57646423Y-98443299D01*
X57773977Y-98570853D01*
X57926717Y-98666826D01*
X58096984Y-98726405D01*
X58096989Y-98726406D01*
X58276235Y-98746602D01*
X58276239Y-98746602D01*
X58276243Y-98746602D01*
X58455488Y-98726406D01*
X58455491Y-98726405D01*
X58455494Y-98726405D01*
X58625761Y-98666826D01*
X58778501Y-98570853D01*
X58906055Y-98443299D01*
X59002028Y-98290559D01*
X59061607Y-98120292D01*
X59066848Y-98073775D01*
X59081804Y-97941040D01*
X59081804Y-97941033D01*
X73980674Y-97941033D01*
X73980674Y-97941040D01*
X74000869Y-98120286D01*
X74000870Y-98120291D01*
X74060450Y-98290560D01*
X74156423Y-98443299D01*
X74283977Y-98570853D01*
X74436717Y-98666826D01*
X74606984Y-98726405D01*
X74606989Y-98726406D01*
X74786235Y-98746602D01*
X74786239Y-98746602D01*
X74786243Y-98746602D01*
X74965488Y-98726406D01*
X74965491Y-98726405D01*
X74965494Y-98726405D01*
X75135761Y-98666826D01*
X75280257Y-98576033D01*
X80499674Y-98576033D01*
X80499674Y-98576040D01*
X80519869Y-98755286D01*
X80519870Y-98755291D01*
X80579450Y-98925560D01*
X80675423Y-99078299D01*
X80802977Y-99205853D01*
X80955717Y-99301826D01*
X81125984Y-99361405D01*
X81125989Y-99361406D01*
X81305235Y-99381602D01*
X81305239Y-99381602D01*
X81305243Y-99381602D01*
X81484488Y-99361406D01*
X81484491Y-99361405D01*
X81484494Y-99361405D01*
X81654761Y-99301826D01*
X81807501Y-99205853D01*
X81935055Y-99078299D01*
X82031028Y-98925559D01*
X82090607Y-98755292D01*
X82110804Y-98576037D01*
X82095848Y-98443299D01*
X82090608Y-98396787D01*
X82090607Y-98396782D01*
X82031027Y-98226513D01*
X81991821Y-98164117D01*
X81935055Y-98073775D01*
X81807501Y-97946221D01*
X81654762Y-97850248D01*
X81484493Y-97790668D01*
X81484488Y-97790667D01*
X81305243Y-97770472D01*
X81305235Y-97770472D01*
X81125989Y-97790667D01*
X81125984Y-97790668D01*
X80955715Y-97850248D01*
X80802976Y-97946221D01*
X80675423Y-98073774D01*
X80579450Y-98226513D01*
X80519870Y-98396782D01*
X80519869Y-98396787D01*
X80499674Y-98576033D01*
X75280257Y-98576033D01*
X75288501Y-98570853D01*
X75416055Y-98443299D01*
X75512028Y-98290559D01*
X75571607Y-98120292D01*
X75576848Y-98073775D01*
X75591804Y-97941040D01*
X75591804Y-97941033D01*
X75571608Y-97761787D01*
X75571607Y-97761782D01*
X75512027Y-97591513D01*
X75452912Y-97497432D01*
X75416055Y-97438775D01*
X75288501Y-97311221D01*
X75135762Y-97215248D01*
X74965493Y-97155668D01*
X74965488Y-97155667D01*
X74786243Y-97135472D01*
X74786235Y-97135472D01*
X74606989Y-97155667D01*
X74606984Y-97155668D01*
X74436715Y-97215248D01*
X74283976Y-97311221D01*
X74156423Y-97438774D01*
X74060450Y-97591513D01*
X74000870Y-97761782D01*
X74000869Y-97761787D01*
X73980674Y-97941033D01*
X59081804Y-97941033D01*
X59061608Y-97761787D01*
X59061607Y-97761782D01*
X59002027Y-97591513D01*
X58942912Y-97497432D01*
X58906055Y-97438775D01*
X58778501Y-97311221D01*
X58625762Y-97215248D01*
X58455493Y-97155668D01*
X58455488Y-97155667D01*
X58276243Y-97135472D01*
X58276235Y-97135472D01*
X58096989Y-97155667D01*
X58096984Y-97155668D01*
X57926715Y-97215248D01*
X57773976Y-97311221D01*
X57646423Y-97438774D01*
X57550450Y-97591513D01*
X57490870Y-97761782D01*
X57490869Y-97761787D01*
X57470674Y-97941033D01*
X51084005Y-97941033D01*
X52989005Y-96036033D01*
X57470674Y-96036033D01*
X57470674Y-96036040D01*
X57490869Y-96215286D01*
X57490870Y-96215291D01*
X57550450Y-96385560D01*
X57600450Y-96465134D01*
X57646423Y-96538299D01*
X57773977Y-96665853D01*
X57926717Y-96761826D01*
X58096984Y-96821405D01*
X58096989Y-96821406D01*
X58276235Y-96841602D01*
X58276239Y-96841602D01*
X58276243Y-96841602D01*
X58455488Y-96821406D01*
X58455491Y-96821405D01*
X58455494Y-96821405D01*
X58625761Y-96761826D01*
X58778501Y-96665853D01*
X58906055Y-96538299D01*
X59002028Y-96385559D01*
X59061607Y-96215292D01*
X59071575Y-96126825D01*
X59081804Y-96036040D01*
X59081804Y-96036033D01*
X59061608Y-95856787D01*
X59061607Y-95856782D01*
X59002027Y-95686513D01*
X58962821Y-95624117D01*
X58906055Y-95533775D01*
X58778501Y-95406221D01*
X58625762Y-95310248D01*
X58455493Y-95250668D01*
X58455488Y-95250667D01*
X58276243Y-95230472D01*
X58276235Y-95230472D01*
X58096989Y-95250667D01*
X58096984Y-95250668D01*
X57926715Y-95310248D01*
X57773976Y-95406221D01*
X57646423Y-95533774D01*
X57550450Y-95686513D01*
X57490870Y-95856782D01*
X57490869Y-95856787D01*
X57470674Y-96036033D01*
X52989005Y-96036033D01*
X54259005Y-94766033D01*
X68265674Y-94766033D01*
X68265674Y-94766040D01*
X68285869Y-94945286D01*
X68285870Y-94945291D01*
X68345450Y-95115560D01*
X68417655Y-95230472D01*
X68441423Y-95268299D01*
X68568977Y-95395853D01*
X68721717Y-95491826D01*
X68891984Y-95551405D01*
X68891989Y-95551406D01*
X69071235Y-95571602D01*
X69071239Y-95571602D01*
X69071243Y-95571602D01*
X69250488Y-95551406D01*
X69250491Y-95551405D01*
X69250494Y-95551405D01*
X69420761Y-95491826D01*
X69573501Y-95395853D01*
X69701055Y-95268299D01*
X69797028Y-95115559D01*
X69856607Y-94945292D01*
X69861848Y-94898775D01*
X69876804Y-94766040D01*
X69876804Y-94766033D01*
X69856608Y-94586787D01*
X69856607Y-94586782D01*
X69797027Y-94416513D01*
X69701054Y-94263774D01*
X69573501Y-94136221D01*
X69420762Y-94040248D01*
X69250493Y-93980668D01*
X69250488Y-93980667D01*
X69071243Y-93960472D01*
X69071235Y-93960472D01*
X68891989Y-93980667D01*
X68891984Y-93980668D01*
X68721715Y-94040248D01*
X68568976Y-94136221D01*
X68441423Y-94263774D01*
X68345450Y-94416513D01*
X68285870Y-94586782D01*
X68285869Y-94586787D01*
X68265674Y-94766033D01*
X54259005Y-94766033D01*
X56799005Y-92226033D01*
X63820674Y-92226033D01*
X63820674Y-92226040D01*
X63840869Y-92405286D01*
X63840870Y-92405291D01*
X63900450Y-92575560D01*
X63996423Y-92728299D01*
X64123977Y-92855853D01*
X64276717Y-92951826D01*
X64446984Y-93011405D01*
X64446989Y-93011406D01*
X64626235Y-93031602D01*
X64626239Y-93031602D01*
X64626243Y-93031602D01*
X64805488Y-93011406D01*
X64805491Y-93011405D01*
X64805494Y-93011405D01*
X64975761Y-92951826D01*
X65128501Y-92855853D01*
X65256055Y-92728299D01*
X65352028Y-92575559D01*
X65411607Y-92405292D01*
X65431804Y-92226037D01*
X65411607Y-92046782D01*
X65352028Y-91876515D01*
X65256055Y-91723775D01*
X65128501Y-91596221D01*
X64975762Y-91500248D01*
X64805493Y-91440668D01*
X64805488Y-91440667D01*
X64626243Y-91420472D01*
X64626235Y-91420472D01*
X64446989Y-91440667D01*
X64446984Y-91440668D01*
X64276715Y-91500248D01*
X64123976Y-91596221D01*
X63996423Y-91723774D01*
X63900450Y-91876513D01*
X63840870Y-92046782D01*
X63840869Y-92046787D01*
X63820674Y-92226033D01*
X56799005Y-92226033D01*
X58069005Y-90956033D01*
X58740674Y-90956033D01*
X58740674Y-90956040D01*
X58760869Y-91135286D01*
X58760870Y-91135291D01*
X58820450Y-91305560D01*
X58892655Y-91420472D01*
X58916423Y-91458299D01*
X59043977Y-91585853D01*
X59196717Y-91681826D01*
X59366984Y-91741405D01*
X59366989Y-91741406D01*
X59546235Y-91761602D01*
X59546239Y-91761602D01*
X59546243Y-91761602D01*
X59725488Y-91741406D01*
X59725491Y-91741405D01*
X59725494Y-91741405D01*
X59895761Y-91681826D01*
X60048501Y-91585853D01*
X60176055Y-91458299D01*
X60272028Y-91305559D01*
X60331607Y-91135292D01*
X60351804Y-90956037D01*
X60331607Y-90776782D01*
X60272028Y-90606515D01*
X60176055Y-90453775D01*
X60048501Y-90326221D01*
X60036484Y-90318670D01*
X59895762Y-90230248D01*
X59725493Y-90170668D01*
X59725488Y-90170667D01*
X59546243Y-90150472D01*
X59546235Y-90150472D01*
X59366989Y-90170667D01*
X59366984Y-90170668D01*
X59196715Y-90230248D01*
X59047121Y-90324245D01*
X58979884Y-90343245D01*
X58913049Y-90322877D01*
X58909478Y-90318670D01*
X58933137Y-90382101D01*
X58918285Y-90450374D01*
X58914447Y-90456919D01*
X58820450Y-90606513D01*
X58760870Y-90776782D01*
X58760869Y-90776787D01*
X58740674Y-90956033D01*
X58069005Y-90956033D01*
X58721774Y-90303264D01*
X58783095Y-90269781D01*
X58852787Y-90274765D01*
X58906066Y-90314650D01*
X58867835Y-90269609D01*
X58858598Y-90200353D01*
X58888269Y-90137097D01*
X58893452Y-90131586D01*
X61879006Y-87146033D01*
X73345674Y-87146033D01*
X73345674Y-87146040D01*
X73365869Y-87325286D01*
X73365870Y-87325291D01*
X73425450Y-87495560D01*
X73521423Y-87648299D01*
X73648977Y-87775853D01*
X73801717Y-87871826D01*
X73971984Y-87931405D01*
X73971989Y-87931406D01*
X74151235Y-87951602D01*
X74151239Y-87951602D01*
X74151243Y-87951602D01*
X74330488Y-87931406D01*
X74330491Y-87931405D01*
X74330494Y-87931405D01*
X74500761Y-87871826D01*
X74653501Y-87775853D01*
X74781055Y-87648299D01*
X74877028Y-87495559D01*
X74936607Y-87325292D01*
X74956804Y-87146037D01*
X74941848Y-87013299D01*
X74936608Y-86966787D01*
X74936607Y-86966782D01*
X74877027Y-86796513D01*
X74837821Y-86734117D01*
X74781055Y-86643775D01*
X74653501Y-86516221D01*
X74500762Y-86420248D01*
X74330493Y-86360668D01*
X74330488Y-86360667D01*
X74151243Y-86340472D01*
X74151235Y-86340472D01*
X73971989Y-86360667D01*
X73971984Y-86360668D01*
X73801715Y-86420248D01*
X73648976Y-86516221D01*
X73521423Y-86643774D01*
X73425450Y-86796513D01*
X73365870Y-86966782D01*
X73365869Y-86966787D01*
X73345674Y-87146033D01*
X61879006Y-87146033D01*
X63149006Y-85876033D01*
X66995674Y-85876033D01*
X66995674Y-85876040D01*
X67015869Y-86055286D01*
X67015870Y-86055291D01*
X67075450Y-86225560D01*
X67147655Y-86340472D01*
X67171423Y-86378299D01*
X67298977Y-86505853D01*
X67389319Y-86562619D01*
X67446770Y-86598718D01*
X67451717Y-86601826D01*
X67621984Y-86661405D01*
X67621989Y-86661406D01*
X67801235Y-86681602D01*
X67801239Y-86681602D01*
X67801243Y-86681602D01*
X67980488Y-86661406D01*
X67980491Y-86661405D01*
X67980494Y-86661405D01*
X68150761Y-86601826D01*
X68303501Y-86505853D01*
X68431055Y-86378299D01*
X68527028Y-86225559D01*
X68586607Y-86055292D01*
X68591848Y-86008775D01*
X68606804Y-85876040D01*
X68606804Y-85876033D01*
X68586608Y-85696787D01*
X68586607Y-85696782D01*
X68527027Y-85526513D01*
X68442133Y-85391406D01*
X68431055Y-85373775D01*
X68303501Y-85246221D01*
X68295251Y-85241037D01*
X68150762Y-85150248D01*
X67980493Y-85090668D01*
X67980488Y-85090667D01*
X67801243Y-85070472D01*
X67801235Y-85070472D01*
X67621989Y-85090667D01*
X67621984Y-85090668D01*
X67451715Y-85150248D01*
X67298976Y-85246221D01*
X67171423Y-85373774D01*
X67075450Y-85526513D01*
X67015870Y-85696782D01*
X67015869Y-85696787D01*
X66995674Y-85876033D01*
X63149006Y-85876033D01*
X65054006Y-83971033D01*
X66995674Y-83971033D01*
X66995674Y-83971040D01*
X67015869Y-84150286D01*
X67015870Y-84150291D01*
X67075450Y-84320560D01*
X67171423Y-84473299D01*
X67298977Y-84600853D01*
X67451717Y-84696826D01*
X67621984Y-84756405D01*
X67621989Y-84756406D01*
X67801235Y-84776602D01*
X67801239Y-84776602D01*
X67801243Y-84776602D01*
X67980488Y-84756406D01*
X67980491Y-84756405D01*
X67980494Y-84756405D01*
X68150761Y-84696826D01*
X68295257Y-84606033D01*
X71440674Y-84606033D01*
X71440674Y-84606040D01*
X71460869Y-84785286D01*
X71460870Y-84785291D01*
X71520450Y-84955560D01*
X71592655Y-85070472D01*
X71616423Y-85108299D01*
X71743977Y-85235853D01*
X71834319Y-85292619D01*
X71891770Y-85328718D01*
X71896717Y-85331826D01*
X72066984Y-85391405D01*
X72066989Y-85391406D01*
X72246235Y-85411602D01*
X72246239Y-85411602D01*
X72246243Y-85411602D01*
X72425488Y-85391406D01*
X72425491Y-85391405D01*
X72425494Y-85391405D01*
X72595761Y-85331826D01*
X72748501Y-85235853D01*
X72876055Y-85108299D01*
X72972028Y-84955559D01*
X73031607Y-84785292D01*
X73051804Y-84606037D01*
X73051804Y-84606033D01*
X74615674Y-84606033D01*
X74615674Y-84606040D01*
X74635869Y-84785286D01*
X74635870Y-84785291D01*
X74695450Y-84955560D01*
X74767655Y-85070472D01*
X74791423Y-85108299D01*
X74918977Y-85235853D01*
X75009319Y-85292619D01*
X75066770Y-85328718D01*
X75071717Y-85331826D01*
X75241984Y-85391405D01*
X75241989Y-85391406D01*
X75421235Y-85411602D01*
X75421239Y-85411602D01*
X75421243Y-85411602D01*
X75600488Y-85391406D01*
X75600491Y-85391405D01*
X75600494Y-85391405D01*
X75770761Y-85331826D01*
X75923501Y-85235853D01*
X76051055Y-85108299D01*
X76147028Y-84955559D01*
X76206607Y-84785292D01*
X76226804Y-84606037D01*
X76226804Y-84606033D01*
X79695674Y-84606033D01*
X79695674Y-84606040D01*
X79715869Y-84785286D01*
X79715870Y-84785291D01*
X79775450Y-84955560D01*
X79871423Y-85108299D01*
X79871424Y-85108300D01*
X79916480Y-85153357D01*
X79949964Y-85214680D01*
X79944979Y-85284372D01*
X79916480Y-85328717D01*
X79871423Y-85373774D01*
X79775450Y-85526513D01*
X79715870Y-85696782D01*
X79715869Y-85696787D01*
X79695674Y-85876033D01*
X79695674Y-85876040D01*
X79715869Y-86055286D01*
X79715870Y-86055291D01*
X79775450Y-86225560D01*
X79871423Y-86378299D01*
X79871424Y-86378300D01*
X79916480Y-86423357D01*
X79949964Y-86484680D01*
X79944979Y-86554372D01*
X79916480Y-86598717D01*
X79871423Y-86643774D01*
X79775450Y-86796513D01*
X79715870Y-86966782D01*
X79715869Y-86966787D01*
X79695674Y-87146033D01*
X79695674Y-87146040D01*
X79715869Y-87325286D01*
X79715870Y-87325291D01*
X79775450Y-87495560D01*
X79871423Y-87648299D01*
X79998977Y-87775853D01*
X80151717Y-87871826D01*
X80321984Y-87931405D01*
X80321989Y-87931406D01*
X80501235Y-87951602D01*
X80501239Y-87951602D01*
X80501243Y-87951602D01*
X80680488Y-87931406D01*
X80680491Y-87931405D01*
X80680494Y-87931405D01*
X80850761Y-87871826D01*
X81003501Y-87775853D01*
X81131055Y-87648299D01*
X81227028Y-87495559D01*
X81286607Y-87325292D01*
X81306804Y-87146037D01*
X81291848Y-87013299D01*
X81286608Y-86966787D01*
X81286607Y-86966782D01*
X81227027Y-86796513D01*
X81187821Y-86734117D01*
X81131055Y-86643775D01*
X81085997Y-86598717D01*
X81052513Y-86537395D01*
X81057497Y-86467703D01*
X81085998Y-86423356D01*
X81089106Y-86420248D01*
X81131055Y-86378299D01*
X81227028Y-86225559D01*
X81286607Y-86055292D01*
X81291848Y-86008775D01*
X81306804Y-85876040D01*
X81306804Y-85876033D01*
X81286608Y-85696787D01*
X81286607Y-85696782D01*
X81227027Y-85526513D01*
X81142133Y-85391406D01*
X81131055Y-85373775D01*
X81085997Y-85328717D01*
X81052513Y-85267395D01*
X81057497Y-85197703D01*
X81085998Y-85153356D01*
X81089106Y-85150248D01*
X81131055Y-85108299D01*
X81227028Y-84955559D01*
X81286607Y-84785292D01*
X81306804Y-84606037D01*
X81291848Y-84473299D01*
X81286608Y-84426787D01*
X81286607Y-84426782D01*
X81227027Y-84256513D01*
X81187821Y-84194117D01*
X81131055Y-84103775D01*
X81003501Y-83976221D01*
X80850762Y-83880248D01*
X80680493Y-83820668D01*
X80680488Y-83820667D01*
X80501243Y-83800472D01*
X80501235Y-83800472D01*
X80321989Y-83820667D01*
X80321984Y-83820668D01*
X80151715Y-83880248D01*
X79998976Y-83976221D01*
X79871423Y-84103774D01*
X79775450Y-84256513D01*
X79715870Y-84426782D01*
X79715869Y-84426787D01*
X79695674Y-84606033D01*
X76226804Y-84606033D01*
X76211848Y-84473299D01*
X76206608Y-84426787D01*
X76206607Y-84426782D01*
X76147027Y-84256513D01*
X76107821Y-84194117D01*
X76051055Y-84103775D01*
X75923501Y-83976221D01*
X75770762Y-83880248D01*
X75600493Y-83820668D01*
X75600488Y-83820667D01*
X75421243Y-83800472D01*
X75421235Y-83800472D01*
X75241989Y-83820667D01*
X75241984Y-83820668D01*
X75071715Y-83880248D01*
X74918976Y-83976221D01*
X74791423Y-84103774D01*
X74695450Y-84256513D01*
X74635870Y-84426782D01*
X74635869Y-84426787D01*
X74615674Y-84606033D01*
X73051804Y-84606033D01*
X73036848Y-84473299D01*
X73031608Y-84426787D01*
X73031607Y-84426782D01*
X72972027Y-84256513D01*
X72932821Y-84194117D01*
X72876055Y-84103775D01*
X72748501Y-83976221D01*
X72595762Y-83880248D01*
X72425493Y-83820668D01*
X72425488Y-83820667D01*
X72246243Y-83800472D01*
X72246235Y-83800472D01*
X72066989Y-83820667D01*
X72066984Y-83820668D01*
X71896715Y-83880248D01*
X71743976Y-83976221D01*
X71616423Y-84103774D01*
X71520450Y-84256513D01*
X71460870Y-84426782D01*
X71460869Y-84426787D01*
X71440674Y-84606033D01*
X68295257Y-84606033D01*
X68303501Y-84600853D01*
X68431055Y-84473299D01*
X68527028Y-84320559D01*
X68586607Y-84150292D01*
X68591848Y-84103775D01*
X68606804Y-83971040D01*
X68606804Y-83971033D01*
X68586608Y-83791787D01*
X68586607Y-83791782D01*
X68527027Y-83621513D01*
X68487821Y-83559117D01*
X68431055Y-83468775D01*
X68303501Y-83341221D01*
X68150762Y-83245248D01*
X67980493Y-83185668D01*
X67980488Y-83185667D01*
X67801243Y-83165472D01*
X67801235Y-83165472D01*
X67621989Y-83185667D01*
X67621984Y-83185668D01*
X67451715Y-83245248D01*
X67298976Y-83341221D01*
X67171423Y-83468774D01*
X67075450Y-83621513D01*
X67015870Y-83791782D01*
X67015869Y-83791787D01*
X66995674Y-83971033D01*
X65054006Y-83971033D01*
X66959006Y-82066033D01*
X74615674Y-82066033D01*
X74615674Y-82066040D01*
X74635869Y-82245286D01*
X74635870Y-82245291D01*
X74695450Y-82415560D01*
X74767655Y-82530472D01*
X74791423Y-82568299D01*
X74918977Y-82695853D01*
X75071717Y-82791826D01*
X75241984Y-82851405D01*
X75241989Y-82851406D01*
X75421235Y-82871602D01*
X75421239Y-82871602D01*
X75421243Y-82871602D01*
X75600488Y-82851406D01*
X75600491Y-82851405D01*
X75600494Y-82851405D01*
X75770761Y-82791826D01*
X75923501Y-82695853D01*
X76051055Y-82568299D01*
X76147028Y-82415559D01*
X76206607Y-82245292D01*
X76226804Y-82066037D01*
X76211848Y-81933299D01*
X76206608Y-81886787D01*
X76206607Y-81886782D01*
X76169438Y-81780559D01*
X76160249Y-81754297D01*
X77382131Y-81754297D01*
X77382131Y-81754298D01*
X77395931Y-81762970D01*
X77395930Y-81762970D01*
X77566100Y-81822515D01*
X77745236Y-81842699D01*
X77745242Y-81842699D01*
X77924377Y-81822515D01*
X77924380Y-81822514D01*
X78094544Y-81762971D01*
X78094545Y-81762971D01*
X78108345Y-81754298D01*
X78108345Y-81754297D01*
X78882131Y-81754297D01*
X78882131Y-81754298D01*
X78895931Y-81762970D01*
X78895930Y-81762970D01*
X79066100Y-81822515D01*
X79245236Y-81842699D01*
X79245242Y-81842699D01*
X79424377Y-81822515D01*
X79424380Y-81822514D01*
X79594544Y-81762971D01*
X79594545Y-81762971D01*
X79608345Y-81754298D01*
X79608345Y-81754297D01*
X79245240Y-81391190D01*
X79245239Y-81391190D01*
X78882131Y-81754297D01*
X78108345Y-81754297D01*
X77745240Y-81391190D01*
X77745239Y-81391190D01*
X77382131Y-81754297D01*
X76160249Y-81754297D01*
X76147028Y-81716515D01*
X76051055Y-81563775D01*
X75923501Y-81436221D01*
X75770762Y-81340248D01*
X75600493Y-81280668D01*
X75600488Y-81280667D01*
X75421243Y-81260472D01*
X75421235Y-81260472D01*
X75241989Y-81280667D01*
X75241984Y-81280668D01*
X75071715Y-81340248D01*
X74918976Y-81436221D01*
X74791423Y-81563774D01*
X74695450Y-81716513D01*
X74635870Y-81886782D01*
X74635869Y-81886787D01*
X74615674Y-82066033D01*
X66959006Y-82066033D01*
X68020742Y-81004297D01*
X76632131Y-81004297D01*
X76632131Y-81004298D01*
X76645931Y-81012970D01*
X76645930Y-81012970D01*
X76816097Y-81072514D01*
X76847485Y-81076050D01*
X76911900Y-81103116D01*
X76951456Y-81160710D01*
X76956824Y-81185384D01*
X76960362Y-81216779D01*
X77019903Y-81386940D01*
X77028577Y-81400744D01*
X77391685Y-81037637D01*
X77371794Y-81017746D01*
X77645239Y-81017746D01*
X77645239Y-81057528D01*
X77660463Y-81094282D01*
X77688594Y-81122413D01*
X77725348Y-81137637D01*
X77765130Y-81137637D01*
X77801884Y-81122413D01*
X77830015Y-81094282D01*
X77845239Y-81057528D01*
X77845239Y-81037637D01*
X78098792Y-81037637D01*
X78461898Y-81400743D01*
X78481359Y-81398551D01*
X78509122Y-81398552D01*
X78528577Y-81400744D01*
X78891685Y-81037637D01*
X78871794Y-81017746D01*
X79145239Y-81017746D01*
X79145239Y-81057528D01*
X79160463Y-81094282D01*
X79188594Y-81122413D01*
X79225348Y-81137637D01*
X79265130Y-81137637D01*
X79301884Y-81122413D01*
X79330015Y-81094282D01*
X79345239Y-81057528D01*
X79345239Y-81037636D01*
X79598792Y-81037636D01*
X79598792Y-81037637D01*
X79961899Y-81400743D01*
X79961900Y-81400743D01*
X79970573Y-81386943D01*
X79970573Y-81386942D01*
X80030115Y-81216780D01*
X80033652Y-81185390D01*
X80060718Y-81120976D01*
X80118312Y-81081419D01*
X80142992Y-81076050D01*
X80174382Y-81072513D01*
X80344544Y-81012971D01*
X80344545Y-81012971D01*
X80358345Y-81004298D01*
X80358345Y-81004297D01*
X79995239Y-80641190D01*
X79952348Y-80684083D01*
X79952346Y-80684084D01*
X79598792Y-81037636D01*
X79345239Y-81037636D01*
X79345239Y-81017746D01*
X79330015Y-80980992D01*
X79301884Y-80952861D01*
X79265130Y-80937637D01*
X79225348Y-80937637D01*
X79188594Y-80952861D01*
X79160463Y-80980992D01*
X79145239Y-81017746D01*
X78871794Y-81017746D01*
X78538131Y-80684083D01*
X78495239Y-80641190D01*
X78452347Y-80684083D01*
X78452346Y-80684084D01*
X78098792Y-81037637D01*
X77845239Y-81037637D01*
X77845239Y-81017746D01*
X77830015Y-80980992D01*
X77801884Y-80952861D01*
X77765130Y-80937637D01*
X77725348Y-80937637D01*
X77688594Y-80952861D01*
X77660463Y-80980992D01*
X77645239Y-81017746D01*
X77371794Y-81017746D01*
X76995238Y-80641190D01*
X76995237Y-80641190D01*
X76632131Y-81004297D01*
X68020742Y-81004297D01*
X68159745Y-80865294D01*
X68159750Y-80865290D01*
X68169953Y-80855086D01*
X68169955Y-80855086D01*
X68281759Y-80743282D01*
X68338115Y-80645669D01*
X68360816Y-80606351D01*
X68401739Y-80453624D01*
X68401739Y-80295509D01*
X68401739Y-80287634D01*
X76190177Y-80287634D01*
X76190177Y-80287639D01*
X76210360Y-80466775D01*
X76269904Y-80636941D01*
X76278577Y-80650744D01*
X76641685Y-80287637D01*
X76641685Y-80287636D01*
X76621795Y-80267746D01*
X76895239Y-80267746D01*
X76895239Y-80307528D01*
X76910463Y-80344282D01*
X76938594Y-80372413D01*
X76975348Y-80387637D01*
X77015130Y-80387637D01*
X77051884Y-80372413D01*
X77080015Y-80344282D01*
X77095239Y-80307528D01*
X77095239Y-80287637D01*
X77348792Y-80287637D01*
X77401448Y-80340292D01*
X77745239Y-80684083D01*
X78141685Y-80287637D01*
X78121794Y-80267746D01*
X78395239Y-80267746D01*
X78395239Y-80307528D01*
X78410463Y-80344282D01*
X78438594Y-80372413D01*
X78475348Y-80387637D01*
X78515130Y-80387637D01*
X78551884Y-80372413D01*
X78580015Y-80344282D01*
X78595239Y-80307528D01*
X78595239Y-80287637D01*
X78848792Y-80287637D01*
X78901448Y-80340292D01*
X79245239Y-80684083D01*
X79641685Y-80287637D01*
X79621794Y-80267746D01*
X79895239Y-80267746D01*
X79895239Y-80307528D01*
X79910463Y-80344282D01*
X79938594Y-80372413D01*
X79975348Y-80387637D01*
X80015130Y-80387637D01*
X80051884Y-80372413D01*
X80080015Y-80344282D01*
X80095239Y-80307528D01*
X80095239Y-80287637D01*
X80348791Y-80287637D01*
X80711899Y-80650743D01*
X80711900Y-80650743D01*
X80720573Y-80636943D01*
X80720573Y-80636942D01*
X80780116Y-80466778D01*
X80780117Y-80466775D01*
X80800301Y-80287639D01*
X80800301Y-80287634D01*
X80780117Y-80108498D01*
X80720572Y-79938329D01*
X80711900Y-79924529D01*
X80711899Y-79924529D01*
X80348791Y-80287637D01*
X80095239Y-80287637D01*
X80095239Y-80267746D01*
X80080015Y-80230992D01*
X80051884Y-80202861D01*
X80015130Y-80187637D01*
X79975348Y-80187637D01*
X79938594Y-80202861D01*
X79910463Y-80230992D01*
X79895239Y-80267746D01*
X79621794Y-80267746D01*
X79288131Y-79934083D01*
X79245239Y-79891190D01*
X79202347Y-79934083D01*
X79202346Y-79934084D01*
X78848792Y-80287637D01*
X78595239Y-80287637D01*
X78595239Y-80267746D01*
X78580015Y-80230992D01*
X78551884Y-80202861D01*
X78515130Y-80187637D01*
X78475348Y-80187637D01*
X78438594Y-80202861D01*
X78410463Y-80230992D01*
X78395239Y-80267746D01*
X78121794Y-80267746D01*
X77788131Y-79934083D01*
X77745239Y-79891190D01*
X77702347Y-79934083D01*
X77702346Y-79934084D01*
X77348792Y-80287637D01*
X77095239Y-80287637D01*
X77095239Y-80267746D01*
X77080015Y-80230992D01*
X77051884Y-80202861D01*
X77015130Y-80187637D01*
X76975348Y-80187637D01*
X76938594Y-80202861D01*
X76910463Y-80230992D01*
X76895239Y-80267746D01*
X76621795Y-80267746D01*
X76278577Y-79924528D01*
X76278576Y-79924528D01*
X76269906Y-79938328D01*
X76269901Y-79938338D01*
X76210361Y-80108495D01*
X76210360Y-80108498D01*
X76190177Y-80287634D01*
X68401739Y-80287634D01*
X68401739Y-79570975D01*
X76632130Y-79570975D01*
X76995237Y-79934083D01*
X76995238Y-79934083D01*
X77327862Y-79601460D01*
X77391685Y-79537637D01*
X77371794Y-79517746D01*
X77645239Y-79517746D01*
X77645239Y-79557528D01*
X77660463Y-79594282D01*
X77688594Y-79622413D01*
X77725348Y-79637637D01*
X77765130Y-79637637D01*
X77801884Y-79622413D01*
X77830015Y-79594282D01*
X77845239Y-79557528D01*
X77845239Y-79537636D01*
X78098792Y-79537636D01*
X78495239Y-79934083D01*
X78891685Y-79537637D01*
X78871794Y-79517746D01*
X79145239Y-79517746D01*
X79145239Y-79557528D01*
X79160463Y-79594282D01*
X79188594Y-79622413D01*
X79225348Y-79637637D01*
X79265130Y-79637637D01*
X79301884Y-79622413D01*
X79330015Y-79594282D01*
X79345239Y-79557528D01*
X79345239Y-79537636D01*
X79598792Y-79537636D01*
X79995239Y-79934083D01*
X79995240Y-79934083D01*
X80358346Y-79570975D01*
X80356154Y-79551520D01*
X80356153Y-79523757D01*
X80358345Y-79504296D01*
X79995239Y-79141190D01*
X79952348Y-79184083D01*
X79952346Y-79184084D01*
X79598792Y-79537636D01*
X79345239Y-79537636D01*
X79345239Y-79517746D01*
X79330015Y-79480992D01*
X79301884Y-79452861D01*
X79265130Y-79437637D01*
X79225348Y-79437637D01*
X79188594Y-79452861D01*
X79160463Y-79480992D01*
X79145239Y-79517746D01*
X78871794Y-79517746D01*
X78538131Y-79184083D01*
X78495239Y-79141190D01*
X78452347Y-79184083D01*
X78452346Y-79184084D01*
X78098792Y-79537636D01*
X77845239Y-79537636D01*
X77845239Y-79517746D01*
X77830015Y-79480992D01*
X77801884Y-79452861D01*
X77765130Y-79437637D01*
X77725348Y-79437637D01*
X77688594Y-79452861D01*
X77660463Y-79480992D01*
X77645239Y-79517746D01*
X77371794Y-79517746D01*
X76995238Y-79141190D01*
X76995237Y-79141190D01*
X76632131Y-79504297D01*
X76634323Y-79523757D01*
X76634322Y-79551521D01*
X76632130Y-79570975D01*
X68401739Y-79570975D01*
X68401739Y-79176302D01*
X68421424Y-79109263D01*
X68474228Y-79063508D01*
X68511855Y-79053082D01*
X68529491Y-79051095D01*
X68615489Y-79041406D01*
X68615492Y-79041405D01*
X68615494Y-79041405D01*
X68785761Y-78981826D01*
X68938501Y-78885853D01*
X69036720Y-78787634D01*
X76190177Y-78787634D01*
X76190177Y-78787639D01*
X76210360Y-78966775D01*
X76269904Y-79136941D01*
X76278577Y-79150744D01*
X76641685Y-78787637D01*
X76641685Y-78787636D01*
X76621795Y-78767746D01*
X76895239Y-78767746D01*
X76895239Y-78807528D01*
X76910463Y-78844282D01*
X76938594Y-78872413D01*
X76975348Y-78887637D01*
X77015130Y-78887637D01*
X77051884Y-78872413D01*
X77080015Y-78844282D01*
X77095239Y-78807528D01*
X77095239Y-78787636D01*
X77348792Y-78787636D01*
X77745239Y-79184083D01*
X78141685Y-78787637D01*
X78121794Y-78767746D01*
X78395239Y-78767746D01*
X78395239Y-78807528D01*
X78410463Y-78844282D01*
X78438594Y-78872413D01*
X78475348Y-78887637D01*
X78515130Y-78887637D01*
X78551884Y-78872413D01*
X78580015Y-78844282D01*
X78595239Y-78807528D01*
X78595239Y-78787636D01*
X78848792Y-78787636D01*
X79245239Y-79184083D01*
X79641685Y-78787637D01*
X79621794Y-78767746D01*
X79895239Y-78767746D01*
X79895239Y-78807528D01*
X79910463Y-78844282D01*
X79938594Y-78872413D01*
X79975348Y-78887637D01*
X80015130Y-78887637D01*
X80051884Y-78872413D01*
X80080015Y-78844282D01*
X80095239Y-78807528D01*
X80095239Y-78787637D01*
X80348792Y-78787637D01*
X80711899Y-79150743D01*
X80711900Y-79150743D01*
X80720573Y-79136943D01*
X80720573Y-79136942D01*
X80780116Y-78966778D01*
X80780117Y-78966775D01*
X80800301Y-78787639D01*
X80800301Y-78787634D01*
X80780117Y-78608498D01*
X80720572Y-78438329D01*
X80711900Y-78424529D01*
X80711899Y-78424529D01*
X80348792Y-78787637D01*
X80095239Y-78787637D01*
X80095239Y-78767746D01*
X80080015Y-78730992D01*
X80051884Y-78702861D01*
X80015130Y-78687637D01*
X79975348Y-78687637D01*
X79938594Y-78702861D01*
X79910463Y-78730992D01*
X79895239Y-78767746D01*
X79621794Y-78767746D01*
X79288131Y-78434083D01*
X79245239Y-78391190D01*
X79202347Y-78434083D01*
X79202346Y-78434084D01*
X78848792Y-78787636D01*
X78595239Y-78787636D01*
X78595239Y-78767746D01*
X78580015Y-78730992D01*
X78551884Y-78702861D01*
X78515130Y-78687637D01*
X78475348Y-78687637D01*
X78438594Y-78702861D01*
X78410463Y-78730992D01*
X78395239Y-78767746D01*
X78121794Y-78767746D01*
X77788131Y-78434083D01*
X77745239Y-78391190D01*
X77702347Y-78434083D01*
X77702346Y-78434084D01*
X77348792Y-78787636D01*
X77095239Y-78787636D01*
X77095239Y-78767746D01*
X77080015Y-78730992D01*
X77051884Y-78702861D01*
X77015130Y-78687637D01*
X76975348Y-78687637D01*
X76938594Y-78702861D01*
X76910463Y-78730992D01*
X76895239Y-78767746D01*
X76621795Y-78767746D01*
X76278577Y-78424528D01*
X76278576Y-78424528D01*
X76269906Y-78438328D01*
X76269901Y-78438338D01*
X76210361Y-78608495D01*
X76210360Y-78608498D01*
X76190177Y-78787634D01*
X69036720Y-78787634D01*
X69066055Y-78758299D01*
X69162028Y-78605559D01*
X69221607Y-78435292D01*
X69221743Y-78434084D01*
X69241804Y-78256040D01*
X69241804Y-78256033D01*
X69221608Y-78076784D01*
X69221607Y-78076782D01*
X69219575Y-78070974D01*
X76632130Y-78070974D01*
X76632130Y-78070975D01*
X76995237Y-78434083D01*
X76995238Y-78434083D01*
X77352541Y-78076782D01*
X77391685Y-78037636D01*
X77391685Y-78037635D01*
X77371796Y-78017746D01*
X77645239Y-78017746D01*
X77645239Y-78057528D01*
X77660463Y-78094282D01*
X77688594Y-78122413D01*
X77725348Y-78137637D01*
X77765130Y-78137637D01*
X77801884Y-78122413D01*
X77830015Y-78094282D01*
X77845239Y-78057528D01*
X77845239Y-78037635D01*
X78098792Y-78037635D01*
X78098792Y-78037636D01*
X78495239Y-78434083D01*
X78852541Y-78076782D01*
X78891685Y-78037636D01*
X78891685Y-78037635D01*
X78871796Y-78017746D01*
X79145239Y-78017746D01*
X79145239Y-78057528D01*
X79160463Y-78094282D01*
X79188594Y-78122413D01*
X79225348Y-78137637D01*
X79265130Y-78137637D01*
X79301884Y-78122413D01*
X79330015Y-78094282D01*
X79345239Y-78057528D01*
X79345239Y-78037635D01*
X79598792Y-78037635D01*
X79598792Y-78037636D01*
X79995239Y-78434083D01*
X79995240Y-78434083D01*
X80358346Y-78070975D01*
X80344542Y-78062301D01*
X80174381Y-78002760D01*
X80142986Y-77999222D01*
X80078573Y-77972153D01*
X80039019Y-77914557D01*
X80033652Y-77889883D01*
X80030116Y-77858495D01*
X79970572Y-77688329D01*
X79961900Y-77674529D01*
X79961899Y-77674529D01*
X79598792Y-78037635D01*
X79345239Y-78037635D01*
X79345239Y-78017746D01*
X79330015Y-77980992D01*
X79301884Y-77952861D01*
X79265130Y-77937637D01*
X79225348Y-77937637D01*
X79188594Y-77952861D01*
X79160463Y-77980992D01*
X79145239Y-78017746D01*
X78871796Y-78017746D01*
X78528577Y-77674528D01*
X78509123Y-77676720D01*
X78481359Y-77676721D01*
X78461899Y-77674529D01*
X78098792Y-78037635D01*
X77845239Y-78037635D01*
X77845239Y-78017746D01*
X77830015Y-77980992D01*
X77801884Y-77952861D01*
X77765130Y-77937637D01*
X77725348Y-77937637D01*
X77688594Y-77952861D01*
X77660463Y-77980992D01*
X77645239Y-78017746D01*
X77371796Y-78017746D01*
X77028577Y-77674528D01*
X77028576Y-77674528D01*
X77019906Y-77688328D01*
X77019901Y-77688338D01*
X76960362Y-77858494D01*
X76956824Y-77889890D01*
X76929755Y-77954303D01*
X76872159Y-77993856D01*
X76847492Y-77999222D01*
X76816096Y-78002760D01*
X76645940Y-78062299D01*
X76645930Y-78062304D01*
X76632130Y-78070974D01*
X69219575Y-78070974D01*
X69200949Y-78017746D01*
X69162028Y-77906515D01*
X69151577Y-77889883D01*
X69066054Y-77753774D01*
X68938501Y-77626221D01*
X68785758Y-77530246D01*
X68662496Y-77487114D01*
X68605720Y-77446392D01*
X68579973Y-77381440D01*
X68591841Y-77320974D01*
X77382130Y-77320974D01*
X77382130Y-77320975D01*
X77745239Y-77684083D01*
X77745240Y-77684083D01*
X78108346Y-77320975D01*
X78108344Y-77320974D01*
X78882130Y-77320974D01*
X78882130Y-77320975D01*
X79245239Y-77684083D01*
X79245240Y-77684083D01*
X79608346Y-77320975D01*
X79594543Y-77312302D01*
X79424377Y-77252758D01*
X79245242Y-77232575D01*
X79245236Y-77232575D01*
X79066100Y-77252758D01*
X79066097Y-77252759D01*
X78895940Y-77312299D01*
X78895930Y-77312304D01*
X78882130Y-77320974D01*
X78108344Y-77320974D01*
X78094543Y-77312302D01*
X77924377Y-77252758D01*
X77745242Y-77232575D01*
X77745236Y-77232575D01*
X77566100Y-77252758D01*
X77566097Y-77252759D01*
X77395940Y-77312299D01*
X77395930Y-77312304D01*
X77382130Y-77320974D01*
X68591841Y-77320974D01*
X68593430Y-77312878D01*
X68641817Y-77262475D01*
X68689566Y-77246853D01*
X68722259Y-77243170D01*
X68892526Y-77183591D01*
X69045266Y-77087618D01*
X69172820Y-76960064D01*
X69268793Y-76807324D01*
X69328372Y-76637057D01*
X69328373Y-76637051D01*
X69348569Y-76457805D01*
X69348569Y-76457798D01*
X69328373Y-76278552D01*
X69328372Y-76278547D01*
X69268792Y-76108277D01*
X69223634Y-76036410D01*
X69204633Y-75969173D01*
X69225000Y-75902338D01*
X69278268Y-75857123D01*
X69287662Y-75853399D01*
X69420761Y-75806826D01*
X69573501Y-75710853D01*
X69701055Y-75583299D01*
X69797028Y-75430559D01*
X69856607Y-75260292D01*
X69856607Y-75260291D01*
X69857969Y-75256399D01*
X69898691Y-75199623D01*
X69963643Y-75173875D01*
X70015965Y-75180311D01*
X70071156Y-75199623D01*
X70161984Y-75231405D01*
X70165877Y-75232767D01*
X70222653Y-75273489D01*
X70248401Y-75338441D01*
X70241965Y-75390764D01*
X70190870Y-75536782D01*
X70190869Y-75536787D01*
X70170674Y-75716033D01*
X70170674Y-75716040D01*
X70190869Y-75895286D01*
X70190870Y-75895291D01*
X70250450Y-76065560D01*
X70346423Y-76218299D01*
X70473977Y-76345853D01*
X70626717Y-76441826D01*
X70796984Y-76501405D01*
X70796989Y-76501406D01*
X70976235Y-76521602D01*
X70976239Y-76521602D01*
X70976243Y-76521602D01*
X71155488Y-76501406D01*
X71155491Y-76501405D01*
X71155494Y-76501405D01*
X71325761Y-76441826D01*
X71478501Y-76345853D01*
X71606055Y-76218299D01*
X71702028Y-76065559D01*
X71761607Y-75895292D01*
X71766848Y-75848775D01*
X71781804Y-75716040D01*
X71781804Y-75716033D01*
X71761608Y-75536787D01*
X71761607Y-75536782D01*
X71724438Y-75430559D01*
X71702028Y-75366515D01*
X71606055Y-75213775D01*
X71478501Y-75086221D01*
X71325760Y-74990247D01*
X71232928Y-74957764D01*
X71155494Y-74930669D01*
X71155491Y-74930668D01*
X71151600Y-74929307D01*
X71094824Y-74888585D01*
X71069076Y-74823633D01*
X71075513Y-74771310D01*
X71126605Y-74625299D01*
X71126608Y-74625286D01*
X71146804Y-74446040D01*
X71146804Y-74446033D01*
X73345674Y-74446033D01*
X73345674Y-74446040D01*
X73365869Y-74625286D01*
X73365870Y-74625291D01*
X73425450Y-74795560D01*
X73510345Y-74930669D01*
X73521423Y-74948299D01*
X73648977Y-75075853D01*
X73801717Y-75171826D01*
X73971984Y-75231405D01*
X73971989Y-75231406D01*
X74151235Y-75251602D01*
X74151239Y-75251602D01*
X74151243Y-75251602D01*
X74330488Y-75231406D01*
X74330491Y-75231405D01*
X74330494Y-75231405D01*
X74500761Y-75171826D01*
X74653501Y-75075853D01*
X74781055Y-74948299D01*
X74877028Y-74795559D01*
X74936607Y-74625292D01*
X74956804Y-74446037D01*
X74954848Y-74428681D01*
X74936608Y-74266787D01*
X74936607Y-74266782D01*
X74877027Y-74096513D01*
X74816838Y-74000723D01*
X74781055Y-73943775D01*
X74653501Y-73816221D01*
X74645244Y-73811033D01*
X75885674Y-73811033D01*
X75885674Y-73811040D01*
X75905869Y-73990286D01*
X75905870Y-73990291D01*
X75965450Y-74160560D01*
X76047321Y-74290856D01*
X76061423Y-74313299D01*
X76188977Y-74440853D01*
X76341717Y-74536826D01*
X76511984Y-74596405D01*
X76511989Y-74596406D01*
X76691235Y-74616602D01*
X76691239Y-74616602D01*
X76691243Y-74616602D01*
X76870488Y-74596406D01*
X76870491Y-74596405D01*
X76870494Y-74596405D01*
X77040761Y-74536826D01*
X77185257Y-74446033D01*
X79060674Y-74446033D01*
X79060674Y-74446040D01*
X79080869Y-74625286D01*
X79080870Y-74625291D01*
X79140450Y-74795560D01*
X79225345Y-74930669D01*
X79236423Y-74948299D01*
X79363977Y-75075853D01*
X79516717Y-75171826D01*
X79686984Y-75231405D01*
X79686989Y-75231406D01*
X79866235Y-75251602D01*
X79866239Y-75251602D01*
X79866243Y-75251602D01*
X80045488Y-75231406D01*
X80045491Y-75231405D01*
X80045494Y-75231405D01*
X80215761Y-75171826D01*
X80368501Y-75075853D01*
X80496055Y-74948299D01*
X80592028Y-74795559D01*
X80651607Y-74625292D01*
X80671804Y-74446037D01*
X80669848Y-74428681D01*
X80651608Y-74266787D01*
X80651607Y-74266782D01*
X80592027Y-74096513D01*
X80531838Y-74000723D01*
X80496055Y-73943775D01*
X80368501Y-73816221D01*
X80215762Y-73720248D01*
X80045493Y-73660668D01*
X80045488Y-73660667D01*
X79866243Y-73640472D01*
X79866235Y-73640472D01*
X79686989Y-73660667D01*
X79686984Y-73660668D01*
X79516715Y-73720248D01*
X79363976Y-73816221D01*
X79236423Y-73943774D01*
X79140450Y-74096513D01*
X79080870Y-74266782D01*
X79080869Y-74266787D01*
X79060674Y-74446033D01*
X77185257Y-74446033D01*
X77193501Y-74440853D01*
X77321055Y-74313299D01*
X77417028Y-74160559D01*
X77476607Y-73990292D01*
X77481848Y-73943775D01*
X77496804Y-73811040D01*
X77496804Y-73811033D01*
X77476608Y-73631787D01*
X77476607Y-73631782D01*
X77417027Y-73461513D01*
X77321054Y-73308774D01*
X77193501Y-73181221D01*
X77040762Y-73085248D01*
X76870493Y-73025668D01*
X76870488Y-73025667D01*
X76691243Y-73005472D01*
X76691235Y-73005472D01*
X76511989Y-73025667D01*
X76511984Y-73025668D01*
X76341715Y-73085248D01*
X76188976Y-73181221D01*
X76061423Y-73308774D01*
X75965450Y-73461513D01*
X75905870Y-73631782D01*
X75905869Y-73631787D01*
X75885674Y-73811033D01*
X74645244Y-73811033D01*
X74500762Y-73720248D01*
X74330493Y-73660668D01*
X74330488Y-73660667D01*
X74151243Y-73640472D01*
X74151235Y-73640472D01*
X73971989Y-73660667D01*
X73971984Y-73660668D01*
X73801715Y-73720248D01*
X73648976Y-73816221D01*
X73521423Y-73943774D01*
X73425450Y-74096513D01*
X73365870Y-74266782D01*
X73365869Y-74266787D01*
X73345674Y-74446033D01*
X71146804Y-74446033D01*
X71126608Y-74266787D01*
X71126607Y-74266782D01*
X71067027Y-74096513D01*
X71006838Y-74000723D01*
X70971055Y-73943775D01*
X70843501Y-73816221D01*
X70690762Y-73720248D01*
X70520493Y-73660668D01*
X70520488Y-73660667D01*
X70341243Y-73640472D01*
X70341235Y-73640472D01*
X70161989Y-73660667D01*
X70161984Y-73660668D01*
X69991715Y-73720248D01*
X69838976Y-73816221D01*
X69711423Y-73943774D01*
X69615449Y-74096515D01*
X69554509Y-74270675D01*
X69513787Y-74327451D01*
X69448835Y-74353199D01*
X69396513Y-74346763D01*
X69324469Y-74321554D01*
X69250494Y-74295669D01*
X69250491Y-74295668D01*
X69243922Y-74293370D01*
X69244801Y-74290856D01*
X69194429Y-74262658D01*
X69161593Y-74200985D01*
X69165989Y-74134951D01*
X69216605Y-73990299D01*
X69216608Y-73990286D01*
X69236804Y-73811040D01*
X69236804Y-73811033D01*
X69216608Y-73631787D01*
X69216607Y-73631782D01*
X69157027Y-73461513D01*
X69061054Y-73308774D01*
X68933501Y-73181221D01*
X68780762Y-73085248D01*
X68610493Y-73025668D01*
X68610488Y-73025667D01*
X68431243Y-73005472D01*
X68431235Y-73005472D01*
X68251989Y-73025667D01*
X68251984Y-73025668D01*
X68081715Y-73085248D01*
X67928975Y-73181222D01*
X67926142Y-73183482D01*
X67923963Y-73184371D01*
X67923081Y-73184926D01*
X67922983Y-73184771D01*
X67861456Y-73209892D01*
X67848827Y-73210537D01*
X67674379Y-73210537D01*
X67674363Y-73210536D01*
X67666767Y-73210536D01*
X67508653Y-73210536D01*
X67401297Y-73239302D01*
X67355920Y-73251461D01*
X67355919Y-73251462D01*
X67320776Y-73271753D01*
X67320774Y-73271754D01*
X67219000Y-73330512D01*
X67218992Y-73330518D01*
X66685720Y-73863790D01*
X66685714Y-73863798D01*
X66639541Y-73943774D01*
X66639541Y-73943775D01*
X66606662Y-74000723D01*
X66565738Y-74153451D01*
X66565738Y-74153453D01*
X66565738Y-74321554D01*
X66565739Y-74321567D01*
X66565739Y-79436537D01*
X66546054Y-79503576D01*
X66493250Y-79549331D01*
X66441739Y-79560537D01*
X66396767Y-79560537D01*
X66238653Y-79560537D01*
X66085925Y-79601460D01*
X66059311Y-79616826D01*
X66023265Y-79637637D01*
X65948995Y-79680516D01*
X65948992Y-79680518D01*
X65837188Y-79792323D01*
X64748576Y-80880934D01*
X64687253Y-80914419D01*
X64617561Y-80909435D01*
X64573214Y-80880934D01*
X64493501Y-80801221D01*
X64340762Y-80705248D01*
X64170493Y-80645668D01*
X64170488Y-80645667D01*
X63991243Y-80625472D01*
X63991235Y-80625472D01*
X63811989Y-80645667D01*
X63811984Y-80645668D01*
X63641715Y-80705248D01*
X63488976Y-80801221D01*
X63361423Y-80928774D01*
X63265450Y-81081513D01*
X63205870Y-81251782D01*
X63205869Y-81251787D01*
X63185674Y-81431033D01*
X63185674Y-81431040D01*
X63205869Y-81610286D01*
X63205870Y-81610291D01*
X63265450Y-81780560D01*
X63361423Y-81933299D01*
X63441136Y-82013012D01*
X63474621Y-82074335D01*
X63469637Y-82144027D01*
X63441136Y-82188374D01*
X49117649Y-96511861D01*
X49056326Y-96545346D01*
X48986634Y-96540362D01*
X48930701Y-96498490D01*
X48912926Y-96465134D01*
X48877028Y-96362542D01*
X48877027Y-96362540D01*
X48781055Y-96209802D01*
X48653501Y-96082248D01*
X48500762Y-95986275D01*
X48330493Y-95926695D01*
X48330488Y-95926694D01*
X48151243Y-95906499D01*
X48151235Y-95906499D01*
X47971989Y-95926694D01*
X47971984Y-95926695D01*
X47801715Y-95986275D01*
X47648976Y-96082248D01*
X47521423Y-96209801D01*
X47425450Y-96362540D01*
X47365870Y-96532809D01*
X47365869Y-96532814D01*
X47345674Y-96712060D01*
X47345674Y-96712067D01*
X47365869Y-96891313D01*
X47365870Y-96891318D01*
X47425450Y-97061587D01*
X47484566Y-97155669D01*
X47521423Y-97214326D01*
X47648977Y-97341880D01*
X47801717Y-97437853D01*
X47904310Y-97473751D01*
X47961085Y-97514472D01*
X47986833Y-97579425D01*
X47973377Y-97647987D01*
X47951036Y-97678474D01*
X42752357Y-102877153D01*
X42691034Y-102910638D01*
X42621342Y-102905654D01*
X42565409Y-102863782D01*
X42547635Y-102830427D01*
X42492029Y-102671517D01*
X42492028Y-102671515D01*
X42396055Y-102518775D01*
X42268501Y-102391221D01*
X42115762Y-102295248D01*
X41945493Y-102235668D01*
X41945488Y-102235667D01*
X41766243Y-102215472D01*
X41766235Y-102215472D01*
X41586989Y-102235667D01*
X41586984Y-102235668D01*
X41416715Y-102295248D01*
X41263976Y-102391221D01*
X41136423Y-102518774D01*
X41040450Y-102671513D01*
X40980870Y-102841782D01*
X40980869Y-102841787D01*
X40960674Y-103021033D01*
X40960674Y-103021040D01*
X40980869Y-103200286D01*
X40980870Y-103200291D01*
X41040450Y-103370560D01*
X41136423Y-103523299D01*
X41263977Y-103650853D01*
X41416717Y-103746826D01*
X41416719Y-103746827D01*
X41575629Y-103802433D01*
X41632405Y-103843154D01*
X41658152Y-103908107D01*
X41644696Y-103976669D01*
X41622355Y-104007155D01*
X39550814Y-106078696D01*
X39516940Y-106102732D01*
X39511724Y-106105244D01*
X39511718Y-106105247D01*
X39511717Y-106105248D01*
X39452454Y-106142485D01*
X39358976Y-106201221D01*
X39231423Y-106328774D01*
X39135450Y-106481513D01*
X39075870Y-106651782D01*
X39075869Y-106651787D01*
X39055674Y-106831033D01*
X32896214Y-106831033D01*
X32863299Y-106814262D01*
X32620707Y-106735438D01*
X32368780Y-106695537D01*
X32368775Y-106695537D01*
X32113703Y-106695537D01*
X32113698Y-106695537D01*
X31861770Y-106735438D01*
X31619178Y-106814262D01*
X31391911Y-106930061D01*
X31290555Y-107003701D01*
X31185554Y-107079989D01*
X31185552Y-107079991D01*
X31185551Y-107079991D01*
X31005193Y-107260349D01*
X31005193Y-107260350D01*
X31005191Y-107260352D01*
X30952192Y-107333299D01*
X30855263Y-107466709D01*
X30739464Y-107693976D01*
X30660640Y-107936568D01*
X30620739Y-108188495D01*
X28741739Y-108188495D01*
X28741739Y-103021033D01*
X35245674Y-103021033D01*
X35245674Y-103021040D01*
X35265869Y-103200286D01*
X35265870Y-103200291D01*
X35325450Y-103370560D01*
X35421423Y-103523299D01*
X35548977Y-103650853D01*
X35701717Y-103746826D01*
X35725966Y-103755311D01*
X35871984Y-103806405D01*
X35871989Y-103806406D01*
X36051235Y-103826602D01*
X36051239Y-103826602D01*
X36051243Y-103826602D01*
X36230488Y-103806406D01*
X36230490Y-103806405D01*
X36230494Y-103806405D01*
X36230497Y-103806403D01*
X36230501Y-103806403D01*
X36376512Y-103755311D01*
X36446290Y-103751748D01*
X36506918Y-103786477D01*
X36534509Y-103831398D01*
X36535870Y-103835289D01*
X36535871Y-103835292D01*
X36561350Y-103908107D01*
X36595449Y-104005558D01*
X36691423Y-104158299D01*
X36818977Y-104285853D01*
X36971717Y-104381826D01*
X37141984Y-104441405D01*
X37141989Y-104441406D01*
X37321235Y-104461602D01*
X37321239Y-104461602D01*
X37321243Y-104461602D01*
X37500488Y-104441406D01*
X37500491Y-104441405D01*
X37500494Y-104441405D01*
X37670761Y-104381826D01*
X37823501Y-104285853D01*
X37951055Y-104158299D01*
X38047028Y-104005559D01*
X38106607Y-103835292D01*
X38109862Y-103806403D01*
X38126804Y-103656040D01*
X38126804Y-103656033D01*
X38106608Y-103476787D01*
X38106607Y-103476782D01*
X38047027Y-103306513D01*
X38007821Y-103244117D01*
X37951055Y-103153775D01*
X37823501Y-103026221D01*
X37670762Y-102930248D01*
X37500493Y-102870668D01*
X37500488Y-102870667D01*
X37321243Y-102850472D01*
X37321235Y-102850472D01*
X37141989Y-102870667D01*
X37141984Y-102870668D01*
X36995966Y-102921763D01*
X36926187Y-102925324D01*
X36865559Y-102890595D01*
X36837969Y-102845675D01*
X36777028Y-102671515D01*
X36692133Y-102536406D01*
X36681055Y-102518775D01*
X36553501Y-102391221D01*
X36400762Y-102295248D01*
X36230493Y-102235668D01*
X36230488Y-102235667D01*
X36051243Y-102215472D01*
X36051235Y-102215472D01*
X35871989Y-102235667D01*
X35871984Y-102235668D01*
X35701715Y-102295248D01*
X35548976Y-102391221D01*
X35421423Y-102518774D01*
X35325450Y-102671513D01*
X35265870Y-102841782D01*
X35265869Y-102841787D01*
X35245674Y-103021033D01*
X28741739Y-103021033D01*
X28741739Y-98576033D01*
X33340674Y-98576033D01*
X33340674Y-98576040D01*
X33360869Y-98755286D01*
X33360870Y-98755291D01*
X33420450Y-98925560D01*
X33516423Y-99078299D01*
X33643977Y-99205853D01*
X33796717Y-99301826D01*
X33966984Y-99361405D01*
X33966989Y-99361406D01*
X34146235Y-99381602D01*
X34146239Y-99381602D01*
X34146243Y-99381602D01*
X34325488Y-99361406D01*
X34325491Y-99361405D01*
X34325494Y-99361405D01*
X34495761Y-99301826D01*
X34648501Y-99205853D01*
X34776055Y-99078299D01*
X34872028Y-98925559D01*
X34931607Y-98755292D01*
X34951804Y-98576037D01*
X34936848Y-98443299D01*
X34931608Y-98396787D01*
X34931607Y-98396782D01*
X34872027Y-98226513D01*
X34832821Y-98164117D01*
X34776055Y-98073775D01*
X34648501Y-97946221D01*
X34495762Y-97850248D01*
X34325493Y-97790668D01*
X34325488Y-97790667D01*
X34146243Y-97770472D01*
X34146235Y-97770472D01*
X33966989Y-97790667D01*
X33966984Y-97790668D01*
X33796715Y-97850248D01*
X33643976Y-97946221D01*
X33516423Y-98073774D01*
X33420450Y-98226513D01*
X33360870Y-98396782D01*
X33360869Y-98396787D01*
X33340674Y-98576033D01*
X28741739Y-98576033D01*
X28741739Y-97306033D01*
X42230674Y-97306033D01*
X42230674Y-97306040D01*
X42250869Y-97485286D01*
X42250870Y-97485291D01*
X42310450Y-97655560D01*
X42382655Y-97770472D01*
X42406423Y-97808299D01*
X42533977Y-97935853D01*
X42686717Y-98031826D01*
X42856984Y-98091405D01*
X42856989Y-98091406D01*
X43036235Y-98111602D01*
X43036239Y-98111602D01*
X43036243Y-98111602D01*
X43215488Y-98091406D01*
X43215491Y-98091405D01*
X43215494Y-98091405D01*
X43385761Y-98031826D01*
X43538501Y-97935853D01*
X43666055Y-97808299D01*
X43762028Y-97655559D01*
X43821607Y-97485292D01*
X43821608Y-97485286D01*
X43841804Y-97306040D01*
X43841804Y-97306033D01*
X43821608Y-97126787D01*
X43821607Y-97126782D01*
X43762027Y-96956513D01*
X43677133Y-96821406D01*
X43666055Y-96803775D01*
X43538501Y-96676221D01*
X43385762Y-96580248D01*
X43215493Y-96520668D01*
X43215488Y-96520667D01*
X43036243Y-96500472D01*
X43036235Y-96500472D01*
X42856989Y-96520667D01*
X42856984Y-96520668D01*
X42686715Y-96580248D01*
X42533976Y-96676221D01*
X42406423Y-96803774D01*
X42310450Y-96956513D01*
X42250870Y-97126782D01*
X42250869Y-97126787D01*
X42230674Y-97306033D01*
X28741739Y-97306033D01*
X28741739Y-95401033D01*
X43903174Y-95401033D01*
X43903174Y-95401040D01*
X43923369Y-95580286D01*
X43923370Y-95580291D01*
X43982950Y-95750560D01*
X44078923Y-95903299D01*
X44206477Y-96030853D01*
X44359217Y-96126826D01*
X44529484Y-96186405D01*
X44529489Y-96186406D01*
X44708735Y-96206602D01*
X44708739Y-96206602D01*
X44708743Y-96206602D01*
X44887988Y-96186406D01*
X44887991Y-96186405D01*
X44887994Y-96186405D01*
X45058261Y-96126826D01*
X45211001Y-96030853D01*
X45338555Y-95903299D01*
X45434528Y-95750559D01*
X45494107Y-95580292D01*
X45499348Y-95533775D01*
X45514304Y-95401040D01*
X45514304Y-95401033D01*
X45494108Y-95221787D01*
X45494107Y-95221782D01*
X45434527Y-95051513D01*
X45395321Y-94989117D01*
X45338555Y-94898775D01*
X45211001Y-94771221D01*
X45058262Y-94675248D01*
X44887993Y-94615668D01*
X44887988Y-94615667D01*
X44708743Y-94595472D01*
X44708735Y-94595472D01*
X44529489Y-94615667D01*
X44529484Y-94615668D01*
X44359215Y-94675248D01*
X44206476Y-94771221D01*
X44078923Y-94898774D01*
X43982950Y-95051513D01*
X43923370Y-95221782D01*
X43923369Y-95221787D01*
X43903174Y-95401033D01*
X28741739Y-95401033D01*
X28741739Y-92226033D01*
X35880674Y-92226033D01*
X35880674Y-92226040D01*
X35900869Y-92405286D01*
X35900870Y-92405291D01*
X35960450Y-92575560D01*
X36056423Y-92728299D01*
X36183977Y-92855853D01*
X36336717Y-92951826D01*
X36506984Y-93011405D01*
X36506989Y-93011406D01*
X36686235Y-93031602D01*
X36686239Y-93031602D01*
X36686243Y-93031602D01*
X36865488Y-93011406D01*
X36865491Y-93011405D01*
X36865494Y-93011405D01*
X37035761Y-92951826D01*
X37188501Y-92855853D01*
X37316055Y-92728299D01*
X37412028Y-92575559D01*
X37471607Y-92405292D01*
X37491804Y-92226037D01*
X37471607Y-92046782D01*
X37412028Y-91876515D01*
X37316055Y-91723775D01*
X37188501Y-91596221D01*
X37035762Y-91500248D01*
X36865493Y-91440668D01*
X36865488Y-91440667D01*
X36686243Y-91420472D01*
X36686235Y-91420472D01*
X36506989Y-91440667D01*
X36506984Y-91440668D01*
X36336715Y-91500248D01*
X36183976Y-91596221D01*
X36056423Y-91723774D01*
X35960450Y-91876513D01*
X35900870Y-92046782D01*
X35900869Y-92046787D01*
X35880674Y-92226033D01*
X28741739Y-92226033D01*
X28741739Y-89686033D01*
X52390674Y-89686033D01*
X52390674Y-89686040D01*
X52410869Y-89865286D01*
X52410870Y-89865291D01*
X52470450Y-90035560D01*
X52542655Y-90150472D01*
X52566423Y-90188299D01*
X52693977Y-90315853D01*
X52846717Y-90411826D01*
X53016984Y-90471405D01*
X53016989Y-90471406D01*
X53196235Y-90491602D01*
X53196239Y-90491602D01*
X53196243Y-90491602D01*
X53375488Y-90471406D01*
X53375491Y-90471405D01*
X53375494Y-90471405D01*
X53545761Y-90411826D01*
X53698501Y-90315853D01*
X53826055Y-90188299D01*
X53922028Y-90035559D01*
X53981607Y-89865292D01*
X54001804Y-89686037D01*
X53981607Y-89506782D01*
X53922028Y-89336515D01*
X53826055Y-89183775D01*
X53698501Y-89056221D01*
X53545762Y-88960248D01*
X53375493Y-88900668D01*
X53375488Y-88900667D01*
X53196243Y-88880472D01*
X53196235Y-88880472D01*
X53016989Y-88900667D01*
X53016984Y-88900668D01*
X52846715Y-88960248D01*
X52693976Y-89056221D01*
X52566423Y-89183774D01*
X52470450Y-89336513D01*
X52410870Y-89506782D01*
X52410869Y-89506787D01*
X52390674Y-89686033D01*
X28741739Y-89686033D01*
X28741739Y-86511033D01*
X47945674Y-86511033D01*
X47945674Y-86511040D01*
X47965869Y-86690286D01*
X47965870Y-86690291D01*
X48025450Y-86860560D01*
X48121423Y-87013299D01*
X48248977Y-87140853D01*
X48401717Y-87236826D01*
X48571984Y-87296405D01*
X48571989Y-87296406D01*
X48751235Y-87316602D01*
X48751239Y-87316602D01*
X48751243Y-87316602D01*
X48930488Y-87296406D01*
X48930491Y-87296405D01*
X48930494Y-87296405D01*
X49100761Y-87236826D01*
X49253501Y-87140853D01*
X49381055Y-87013299D01*
X49477028Y-86860559D01*
X49536607Y-86690292D01*
X49541848Y-86643775D01*
X49556804Y-86511040D01*
X49556804Y-86511033D01*
X49536608Y-86331787D01*
X49536607Y-86331782D01*
X49477027Y-86161513D01*
X49437821Y-86099117D01*
X49381055Y-86008775D01*
X49253501Y-85881221D01*
X49100762Y-85785248D01*
X48930493Y-85725668D01*
X48930488Y-85725667D01*
X48751243Y-85705472D01*
X48751235Y-85705472D01*
X48571989Y-85725667D01*
X48571984Y-85725668D01*
X48401715Y-85785248D01*
X48248976Y-85881221D01*
X48121423Y-86008774D01*
X48025450Y-86161513D01*
X47965870Y-86331782D01*
X47965869Y-86331787D01*
X47945674Y-86511033D01*
X28741739Y-86511033D01*
X28741739Y-83336033D01*
X36515674Y-83336033D01*
X36515674Y-83336040D01*
X36535869Y-83515286D01*
X36535870Y-83515291D01*
X36595450Y-83685560D01*
X36667655Y-83800472D01*
X36691423Y-83838299D01*
X36818977Y-83965853D01*
X36971717Y-84061826D01*
X37141984Y-84121405D01*
X37141989Y-84121406D01*
X37321235Y-84141602D01*
X37321239Y-84141602D01*
X37321243Y-84141602D01*
X37500488Y-84121406D01*
X37500491Y-84121405D01*
X37500494Y-84121405D01*
X37670761Y-84061826D01*
X37815257Y-83971033D01*
X55565674Y-83971033D01*
X55565674Y-83971040D01*
X55585869Y-84150286D01*
X55585870Y-84150291D01*
X55645450Y-84320560D01*
X55741423Y-84473299D01*
X55868977Y-84600853D01*
X56021717Y-84696826D01*
X56191984Y-84756405D01*
X56191989Y-84756406D01*
X56371235Y-84776602D01*
X56371239Y-84776602D01*
X56371243Y-84776602D01*
X56550488Y-84756406D01*
X56550491Y-84756405D01*
X56550494Y-84756405D01*
X56720761Y-84696826D01*
X56873501Y-84600853D01*
X57001055Y-84473299D01*
X57097028Y-84320559D01*
X57156607Y-84150292D01*
X57161848Y-84103775D01*
X57176804Y-83971040D01*
X57176804Y-83971033D01*
X57156608Y-83791787D01*
X57156607Y-83791782D01*
X57097027Y-83621513D01*
X57057821Y-83559117D01*
X57001055Y-83468775D01*
X56873501Y-83341221D01*
X56720762Y-83245248D01*
X56550493Y-83185668D01*
X56550488Y-83185667D01*
X56371243Y-83165472D01*
X56371235Y-83165472D01*
X56191989Y-83185667D01*
X56191984Y-83185668D01*
X56021715Y-83245248D01*
X55868976Y-83341221D01*
X55741423Y-83468774D01*
X55645450Y-83621513D01*
X55585870Y-83791782D01*
X55585869Y-83791787D01*
X55565674Y-83971033D01*
X37815257Y-83971033D01*
X37823501Y-83965853D01*
X37951055Y-83838299D01*
X38047028Y-83685559D01*
X38106607Y-83515292D01*
X38111848Y-83468775D01*
X38126804Y-83336040D01*
X38126804Y-83336033D01*
X38106608Y-83156787D01*
X38106607Y-83156782D01*
X38047027Y-82986513D01*
X37962133Y-82851406D01*
X37951055Y-82833775D01*
X37823501Y-82706221D01*
X37670762Y-82610248D01*
X37500493Y-82550668D01*
X37500488Y-82550667D01*
X37321243Y-82530472D01*
X37321235Y-82530472D01*
X37141989Y-82550667D01*
X37141984Y-82550668D01*
X36971715Y-82610248D01*
X36818976Y-82706221D01*
X36691423Y-82833774D01*
X36595450Y-82986513D01*
X36535870Y-83156782D01*
X36535869Y-83156787D01*
X36515674Y-83336033D01*
X28741739Y-83336033D01*
X28741739Y-80161033D01*
X37553174Y-80161033D01*
X37553174Y-80161040D01*
X37573369Y-80340286D01*
X37573370Y-80340291D01*
X37632950Y-80510560D01*
X37721034Y-80650744D01*
X37728923Y-80663299D01*
X37856477Y-80790853D01*
X38009217Y-80886826D01*
X38179484Y-80946405D01*
X38179489Y-80946406D01*
X38358735Y-80966602D01*
X38358739Y-80966602D01*
X38358743Y-80966602D01*
X38537988Y-80946406D01*
X38537991Y-80946405D01*
X38537994Y-80946405D01*
X38708261Y-80886826D01*
X38852757Y-80796033D01*
X42865674Y-80796033D01*
X42865674Y-80796040D01*
X42885869Y-80975286D01*
X42885870Y-80975291D01*
X42945450Y-81145560D01*
X43017655Y-81260472D01*
X43041423Y-81298299D01*
X43168977Y-81425853D01*
X43321717Y-81521826D01*
X43491984Y-81581405D01*
X43491989Y-81581406D01*
X43671235Y-81601602D01*
X43671239Y-81601602D01*
X43671243Y-81601602D01*
X43850488Y-81581406D01*
X43850491Y-81581405D01*
X43850494Y-81581405D01*
X44020761Y-81521826D01*
X44173501Y-81425853D01*
X44301055Y-81298299D01*
X44397028Y-81145559D01*
X44456607Y-80975292D01*
X44457586Y-80966602D01*
X44476804Y-80796040D01*
X44476804Y-80796033D01*
X44456608Y-80616787D01*
X44456607Y-80616782D01*
X44404117Y-80466775D01*
X44397028Y-80446515D01*
X44301055Y-80293775D01*
X44173501Y-80166221D01*
X44165244Y-80161033D01*
X53025674Y-80161033D01*
X53025674Y-80161040D01*
X53045869Y-80340286D01*
X53045870Y-80340291D01*
X53105450Y-80510560D01*
X53193534Y-80650744D01*
X53201423Y-80663299D01*
X53328977Y-80790853D01*
X53481717Y-80886826D01*
X53651984Y-80946405D01*
X53651989Y-80946406D01*
X53831235Y-80966602D01*
X53831239Y-80966602D01*
X53831243Y-80966602D01*
X54010488Y-80946406D01*
X54010491Y-80946405D01*
X54010494Y-80946405D01*
X54180761Y-80886826D01*
X54333501Y-80790853D01*
X54461055Y-80663299D01*
X54557028Y-80510559D01*
X54616607Y-80340292D01*
X54621848Y-80293775D01*
X54636804Y-80161040D01*
X54636804Y-80161033D01*
X54616608Y-79981787D01*
X54616607Y-79981782D01*
X54557027Y-79811513D01*
X54472133Y-79676406D01*
X54461055Y-79658775D01*
X54333501Y-79531221D01*
X54321622Y-79523757D01*
X54180762Y-79435248D01*
X54010493Y-79375668D01*
X54010488Y-79375667D01*
X53831243Y-79355472D01*
X53831235Y-79355472D01*
X53651989Y-79375667D01*
X53651984Y-79375668D01*
X53481715Y-79435248D01*
X53328976Y-79531221D01*
X53201423Y-79658774D01*
X53105450Y-79811513D01*
X53045870Y-79981782D01*
X53045869Y-79981787D01*
X53025674Y-80161033D01*
X44165244Y-80161033D01*
X44020762Y-80070248D01*
X43850493Y-80010668D01*
X43850488Y-80010667D01*
X43671243Y-79990472D01*
X43671235Y-79990472D01*
X43491989Y-80010667D01*
X43491984Y-80010668D01*
X43321715Y-80070248D01*
X43168976Y-80166221D01*
X43041423Y-80293774D01*
X42945450Y-80446513D01*
X42885870Y-80616782D01*
X42885869Y-80616787D01*
X42865674Y-80796033D01*
X38852757Y-80796033D01*
X38861001Y-80790853D01*
X38988555Y-80663299D01*
X39084528Y-80510559D01*
X39144107Y-80340292D01*
X39149348Y-80293775D01*
X39164304Y-80161040D01*
X39164304Y-80161033D01*
X39144108Y-79981787D01*
X39144107Y-79981782D01*
X39084527Y-79811513D01*
X38999633Y-79676406D01*
X38988555Y-79658775D01*
X38861001Y-79531221D01*
X38849122Y-79523757D01*
X38708262Y-79435248D01*
X38537993Y-79375668D01*
X38537988Y-79375667D01*
X38358743Y-79355472D01*
X38358735Y-79355472D01*
X38179489Y-79375667D01*
X38179484Y-79375668D01*
X38009215Y-79435248D01*
X37856476Y-79531221D01*
X37728923Y-79658774D01*
X37632950Y-79811513D01*
X37573370Y-79981782D01*
X37573369Y-79981787D01*
X37553174Y-80161033D01*
X28741739Y-80161033D01*
X28741739Y-78256033D01*
X40960674Y-78256033D01*
X40960674Y-78256040D01*
X40980869Y-78435286D01*
X40980870Y-78435291D01*
X41040450Y-78605560D01*
X41119265Y-78730992D01*
X41136423Y-78758299D01*
X41263977Y-78885853D01*
X41416717Y-78981826D01*
X41586984Y-79041405D01*
X41586989Y-79041406D01*
X41766235Y-79061602D01*
X41766239Y-79061602D01*
X41766243Y-79061602D01*
X41945488Y-79041406D01*
X41945491Y-79041405D01*
X41945494Y-79041405D01*
X42115761Y-78981826D01*
X42268501Y-78885853D01*
X42396055Y-78758299D01*
X42492028Y-78605559D01*
X42551607Y-78435292D01*
X42551743Y-78434084D01*
X42571804Y-78256040D01*
X42571804Y-78256033D01*
X48580674Y-78256033D01*
X48580674Y-78256040D01*
X48600869Y-78435286D01*
X48600870Y-78435291D01*
X48660450Y-78605560D01*
X48739265Y-78730992D01*
X48756423Y-78758299D01*
X48883977Y-78885853D01*
X49036717Y-78981826D01*
X49206984Y-79041405D01*
X49206989Y-79041406D01*
X49386235Y-79061602D01*
X49386239Y-79061602D01*
X49386243Y-79061602D01*
X49565488Y-79041406D01*
X49565491Y-79041405D01*
X49565494Y-79041405D01*
X49735761Y-78981826D01*
X49880257Y-78891033D01*
X60645674Y-78891033D01*
X60645674Y-78891040D01*
X60665869Y-79070286D01*
X60665870Y-79070291D01*
X60725450Y-79240560D01*
X60797655Y-79355472D01*
X60821423Y-79393299D01*
X60948977Y-79520853D01*
X61101717Y-79616826D01*
X61271984Y-79676405D01*
X61271989Y-79676406D01*
X61451235Y-79696602D01*
X61451239Y-79696602D01*
X61451243Y-79696602D01*
X61630488Y-79676406D01*
X61630491Y-79676405D01*
X61630494Y-79676405D01*
X61800761Y-79616826D01*
X61953501Y-79520853D01*
X62081055Y-79393299D01*
X62177028Y-79240559D01*
X62236607Y-79070292D01*
X62236608Y-79070286D01*
X62256804Y-78891040D01*
X62256804Y-78891033D01*
X62550674Y-78891033D01*
X62550674Y-78891040D01*
X62570869Y-79070286D01*
X62570870Y-79070291D01*
X62630450Y-79240560D01*
X62702655Y-79355472D01*
X62726423Y-79393299D01*
X62853977Y-79520853D01*
X63006717Y-79616826D01*
X63176984Y-79676405D01*
X63176989Y-79676406D01*
X63356235Y-79696602D01*
X63356239Y-79696602D01*
X63356243Y-79696602D01*
X63535488Y-79676406D01*
X63535491Y-79676405D01*
X63535494Y-79676405D01*
X63705761Y-79616826D01*
X63858501Y-79520853D01*
X63986055Y-79393299D01*
X64082028Y-79240559D01*
X64141607Y-79070292D01*
X64141608Y-79070286D01*
X64161804Y-78891040D01*
X64161804Y-78891033D01*
X64141608Y-78711787D01*
X64141607Y-78711782D01*
X64082027Y-78541513D01*
X64042821Y-78479117D01*
X63986055Y-78388775D01*
X63858501Y-78261221D01*
X63705762Y-78165248D01*
X63535493Y-78105668D01*
X63535488Y-78105667D01*
X63356243Y-78085472D01*
X63356235Y-78085472D01*
X63176989Y-78105667D01*
X63176984Y-78105668D01*
X63006715Y-78165248D01*
X62853976Y-78261221D01*
X62726423Y-78388774D01*
X62630450Y-78541513D01*
X62570870Y-78711782D01*
X62570869Y-78711787D01*
X62550674Y-78891033D01*
X62256804Y-78891033D01*
X62236608Y-78711787D01*
X62236607Y-78711782D01*
X62177027Y-78541513D01*
X62137821Y-78479117D01*
X62081055Y-78388775D01*
X61953501Y-78261221D01*
X61800762Y-78165248D01*
X61630493Y-78105668D01*
X61630488Y-78105667D01*
X61451243Y-78085472D01*
X61451235Y-78085472D01*
X61271989Y-78105667D01*
X61271984Y-78105668D01*
X61101715Y-78165248D01*
X60948976Y-78261221D01*
X60821423Y-78388774D01*
X60725450Y-78541513D01*
X60665870Y-78711782D01*
X60665869Y-78711787D01*
X60645674Y-78891033D01*
X49880257Y-78891033D01*
X49888501Y-78885853D01*
X50016055Y-78758299D01*
X50112028Y-78605559D01*
X50171607Y-78435292D01*
X50171743Y-78434084D01*
X50191804Y-78256040D01*
X50191804Y-78256033D01*
X50171608Y-78076784D01*
X50171607Y-78076782D01*
X50150949Y-78017746D01*
X50112028Y-77906515D01*
X50101577Y-77889883D01*
X50016054Y-77753774D01*
X49888501Y-77626221D01*
X49735762Y-77530248D01*
X49565493Y-77470668D01*
X49565488Y-77470667D01*
X49386243Y-77450472D01*
X49386235Y-77450472D01*
X49206989Y-77470667D01*
X49206984Y-77470668D01*
X49036715Y-77530248D01*
X48883976Y-77626221D01*
X48756423Y-77753774D01*
X48660450Y-77906513D01*
X48600870Y-78076782D01*
X48600870Y-78076784D01*
X48580674Y-78256033D01*
X42571804Y-78256033D01*
X42551608Y-78076784D01*
X42551607Y-78076782D01*
X42530949Y-78017746D01*
X42492028Y-77906515D01*
X42481577Y-77889883D01*
X42396054Y-77753774D01*
X42268501Y-77626221D01*
X42115762Y-77530248D01*
X41945493Y-77470668D01*
X41945488Y-77470667D01*
X41766243Y-77450472D01*
X41766235Y-77450472D01*
X41586989Y-77470667D01*
X41586984Y-77470668D01*
X41416715Y-77530248D01*
X41263976Y-77626221D01*
X41136423Y-77753774D01*
X41040450Y-77906513D01*
X40980870Y-78076782D01*
X40980870Y-78076784D01*
X40960674Y-78256033D01*
X28741739Y-78256033D01*
X28741739Y-76351033D01*
X33340674Y-76351033D01*
X33340674Y-76351040D01*
X33360869Y-76530286D01*
X33360870Y-76530291D01*
X33420450Y-76700560D01*
X33516423Y-76853299D01*
X33643977Y-76980853D01*
X33796717Y-77076826D01*
X33827559Y-77087618D01*
X33966984Y-77136405D01*
X33966989Y-77136406D01*
X34146235Y-77156602D01*
X34146239Y-77156602D01*
X34146243Y-77156602D01*
X34325488Y-77136406D01*
X34325491Y-77136405D01*
X34325494Y-77136405D01*
X34495761Y-77076826D01*
X34648501Y-76980853D01*
X34776055Y-76853299D01*
X34872028Y-76700559D01*
X34931607Y-76530292D01*
X34934862Y-76501405D01*
X34951804Y-76351040D01*
X34951804Y-76351033D01*
X34931608Y-76171787D01*
X34931607Y-76171782D01*
X34872027Y-76001513D01*
X34809711Y-75902338D01*
X34776055Y-75848775D01*
X34648501Y-75721221D01*
X34495762Y-75625248D01*
X34325493Y-75565668D01*
X34325488Y-75565667D01*
X34146243Y-75545472D01*
X34146235Y-75545472D01*
X33966989Y-75565667D01*
X33966984Y-75565668D01*
X33796715Y-75625248D01*
X33643976Y-75721221D01*
X33516423Y-75848774D01*
X33420450Y-76001513D01*
X33360870Y-76171782D01*
X33360869Y-76171787D01*
X33340674Y-76351033D01*
X28741739Y-76351033D01*
X28741739Y-73811033D01*
X58105674Y-73811033D01*
X58105674Y-73811040D01*
X58125869Y-73990286D01*
X58125870Y-73990291D01*
X58185450Y-74160560D01*
X58267321Y-74290856D01*
X58281423Y-74313299D01*
X58408977Y-74440853D01*
X58561717Y-74536826D01*
X58731984Y-74596405D01*
X58731989Y-74596406D01*
X58911235Y-74616602D01*
X58911239Y-74616602D01*
X58911243Y-74616602D01*
X59090488Y-74596406D01*
X59090491Y-74596405D01*
X59090494Y-74596405D01*
X59260761Y-74536826D01*
X59413501Y-74440853D01*
X59541055Y-74313299D01*
X59637028Y-74160559D01*
X59696607Y-73990292D01*
X59701848Y-73943775D01*
X59716804Y-73811040D01*
X59716804Y-73811033D01*
X59696608Y-73631787D01*
X59696607Y-73631782D01*
X59637027Y-73461513D01*
X59541054Y-73308774D01*
X59413501Y-73181221D01*
X59260762Y-73085248D01*
X59090493Y-73025668D01*
X59090488Y-73025667D01*
X58911243Y-73005472D01*
X58911235Y-73005472D01*
X58731989Y-73025667D01*
X58731984Y-73025668D01*
X58561715Y-73085248D01*
X58408976Y-73181221D01*
X58281423Y-73308774D01*
X58185450Y-73461513D01*
X58125870Y-73631782D01*
X58125869Y-73631787D01*
X58105674Y-73811033D01*
X28741739Y-73811033D01*
X28741739Y-71251036D01*
X30270580Y-71251036D01*
X30270580Y-71251037D01*
X30291175Y-71486440D01*
X30291177Y-71486450D01*
X30352333Y-71714692D01*
X30352335Y-71714696D01*
X30352336Y-71714700D01*
X30356239Y-71723069D01*
X30452204Y-71928867D01*
X30452206Y-71928871D01*
X30560520Y-72083558D01*
X30587744Y-72122438D01*
X30754838Y-72289532D01*
X30851623Y-72357302D01*
X30948404Y-72425069D01*
X30948406Y-72425070D01*
X30948409Y-72425072D01*
X31162576Y-72524940D01*
X31390831Y-72586100D01*
X31579157Y-72602576D01*
X31626238Y-72606696D01*
X31626239Y-72606696D01*
X31626240Y-72606696D01*
X31665473Y-72603263D01*
X31861647Y-72586100D01*
X32089902Y-72524940D01*
X32304069Y-72425072D01*
X32497640Y-72289532D01*
X32664734Y-72122438D01*
X32794664Y-71936879D01*
X32849241Y-71893254D01*
X32918739Y-71886060D01*
X32981094Y-71917583D01*
X32997814Y-71936879D01*
X33127739Y-72122432D01*
X33127744Y-72122438D01*
X33294838Y-72289532D01*
X33391623Y-72357302D01*
X33488404Y-72425069D01*
X33488406Y-72425070D01*
X33488409Y-72425072D01*
X33702576Y-72524940D01*
X33930831Y-72586100D01*
X34119157Y-72602576D01*
X34166238Y-72606696D01*
X34166239Y-72606696D01*
X34166240Y-72606696D01*
X34205473Y-72603263D01*
X34401647Y-72586100D01*
X34629902Y-72524940D01*
X34844069Y-72425072D01*
X35037640Y-72289532D01*
X35204734Y-72122438D01*
X35340274Y-71928867D01*
X35440142Y-71714700D01*
X35501302Y-71486445D01*
X35521898Y-71251037D01*
X35501302Y-71015629D01*
X35440142Y-70787374D01*
X35340274Y-70573208D01*
X35334664Y-70565195D01*
X35204733Y-70379634D01*
X35037641Y-70212543D01*
X35037635Y-70212538D01*
X34852081Y-70082612D01*
X34808456Y-70028035D01*
X34801262Y-69958537D01*
X34832785Y-69896182D01*
X34852081Y-69879462D01*
X34922663Y-69830040D01*
X35037640Y-69749532D01*
X35204734Y-69582438D01*
X35340274Y-69388867D01*
X35350923Y-69366031D01*
X42165596Y-69366031D01*
X42165596Y-69366042D01*
X42186129Y-69613849D01*
X42186131Y-69613861D01*
X42247175Y-69854918D01*
X42347065Y-70082643D01*
X42483072Y-70290819D01*
X42483075Y-70290822D01*
X42651495Y-70473775D01*
X42847730Y-70626511D01*
X43066429Y-70744865D01*
X43301625Y-70825608D01*
X43546904Y-70866537D01*
X43795574Y-70866537D01*
X44040853Y-70825608D01*
X44276049Y-70744865D01*
X44494748Y-70626511D01*
X44690983Y-70473775D01*
X44859403Y-70290822D01*
X44995412Y-70082644D01*
X45095302Y-69854918D01*
X45156347Y-69613858D01*
X45156757Y-69608909D01*
X45176882Y-69366042D01*
X45176882Y-69366031D01*
X48515596Y-69366031D01*
X48515596Y-69366042D01*
X48536129Y-69613849D01*
X48536131Y-69613861D01*
X48597175Y-69854918D01*
X48697065Y-70082643D01*
X48833072Y-70290819D01*
X48833075Y-70290822D01*
X49001495Y-70473775D01*
X49197730Y-70626511D01*
X49416429Y-70744865D01*
X49651625Y-70825608D01*
X49896904Y-70866537D01*
X50145574Y-70866537D01*
X50390853Y-70825608D01*
X50626049Y-70744865D01*
X50844748Y-70626511D01*
X51040983Y-70473775D01*
X51209403Y-70290822D01*
X51282094Y-70179560D01*
X60045674Y-70179560D01*
X60045674Y-70179567D01*
X60065869Y-70358813D01*
X60065870Y-70358818D01*
X60125450Y-70529087D01*
X60186666Y-70626511D01*
X60221423Y-70681826D01*
X60348977Y-70809380D01*
X60501717Y-70905353D01*
X60671984Y-70964932D01*
X60671989Y-70964933D01*
X60851235Y-70985129D01*
X60851239Y-70985129D01*
X60851243Y-70985129D01*
X61030488Y-70964933D01*
X61030491Y-70964932D01*
X61030494Y-70964932D01*
X61200761Y-70905353D01*
X61353501Y-70809380D01*
X61481055Y-70681826D01*
X61577028Y-70529086D01*
X61636607Y-70358819D01*
X61636608Y-70358813D01*
X61656804Y-70179567D01*
X61656804Y-70179560D01*
X61636608Y-70000314D01*
X61636607Y-70000309D01*
X61577027Y-69830040D01*
X61481054Y-69677301D01*
X61353501Y-69549748D01*
X61200762Y-69453775D01*
X61030493Y-69394195D01*
X61030488Y-69394194D01*
X60851243Y-69373999D01*
X60851235Y-69373999D01*
X60671989Y-69394194D01*
X60671984Y-69394195D01*
X60501715Y-69453775D01*
X60348976Y-69549748D01*
X60221423Y-69677301D01*
X60125450Y-69830040D01*
X60065870Y-70000309D01*
X60065869Y-70000314D01*
X60045674Y-70179560D01*
X51282094Y-70179560D01*
X51345412Y-70082644D01*
X51445302Y-69854918D01*
X51506347Y-69613858D01*
X51506757Y-69608909D01*
X51526882Y-69366042D01*
X51526882Y-69366031D01*
X80265596Y-69366031D01*
X80265596Y-69366042D01*
X80286129Y-69613849D01*
X80286131Y-69613861D01*
X80347175Y-69854918D01*
X80447065Y-70082643D01*
X80583072Y-70290819D01*
X80583075Y-70290822D01*
X80751495Y-70473775D01*
X80947730Y-70626511D01*
X81166429Y-70744865D01*
X81401625Y-70825608D01*
X81646904Y-70866537D01*
X81895574Y-70866537D01*
X82140853Y-70825608D01*
X82376049Y-70744865D01*
X82594748Y-70626511D01*
X82790983Y-70473775D01*
X82959403Y-70290822D01*
X83095412Y-70082644D01*
X83195302Y-69854918D01*
X83256347Y-69613858D01*
X83256757Y-69608909D01*
X83276882Y-69366042D01*
X83276882Y-69366031D01*
X83256348Y-69118224D01*
X83256346Y-69118212D01*
X83195302Y-68877155D01*
X83095412Y-68649430D01*
X82959405Y-68441254D01*
X82937796Y-68417781D01*
X82790983Y-68258299D01*
X82594748Y-68105563D01*
X82594746Y-68105562D01*
X82594745Y-68105561D01*
X82376050Y-67987209D01*
X82376041Y-67987206D01*
X82140855Y-67906466D01*
X81895574Y-67865537D01*
X81646904Y-67865537D01*
X81401622Y-67906466D01*
X81166436Y-67987206D01*
X81166427Y-67987209D01*
X80947732Y-68105561D01*
X80751496Y-68258298D01*
X80583072Y-68441254D01*
X80447065Y-68649430D01*
X80347175Y-68877155D01*
X80286131Y-69118212D01*
X80286129Y-69118224D01*
X80265596Y-69366031D01*
X51526882Y-69366031D01*
X51506348Y-69118224D01*
X51506346Y-69118212D01*
X51445302Y-68877155D01*
X51345412Y-68649430D01*
X51209405Y-68441254D01*
X51187796Y-68417781D01*
X51040983Y-68258299D01*
X50844748Y-68105563D01*
X50844746Y-68105562D01*
X50844745Y-68105561D01*
X50626050Y-67987209D01*
X50626041Y-67987206D01*
X50390855Y-67906466D01*
X50145574Y-67865537D01*
X49896904Y-67865537D01*
X49651622Y-67906466D01*
X49416436Y-67987206D01*
X49416427Y-67987209D01*
X49197732Y-68105561D01*
X49001496Y-68258298D01*
X48833072Y-68441254D01*
X48697065Y-68649430D01*
X48597175Y-68877155D01*
X48536131Y-69118212D01*
X48536129Y-69118224D01*
X48515596Y-69366031D01*
X45176882Y-69366031D01*
X45156348Y-69118224D01*
X45156346Y-69118212D01*
X45095302Y-68877155D01*
X44995412Y-68649430D01*
X44859405Y-68441254D01*
X44837796Y-68417781D01*
X44690983Y-68258299D01*
X44494748Y-68105563D01*
X44494746Y-68105562D01*
X44494745Y-68105561D01*
X44276050Y-67987209D01*
X44276041Y-67987206D01*
X44040855Y-67906466D01*
X43795574Y-67865537D01*
X43546904Y-67865537D01*
X43301622Y-67906466D01*
X43066436Y-67987206D01*
X43066427Y-67987209D01*
X42847732Y-68105561D01*
X42651496Y-68258298D01*
X42483072Y-68441254D01*
X42347065Y-68649430D01*
X42247175Y-68877155D01*
X42186131Y-69118212D01*
X42186129Y-69118224D01*
X42165596Y-69366031D01*
X35350923Y-69366031D01*
X35440142Y-69174700D01*
X35501302Y-68946445D01*
X35521898Y-68711037D01*
X35501302Y-68475629D01*
X35440142Y-68247374D01*
X35340274Y-68033208D01*
X35308066Y-67987209D01*
X35204733Y-67839634D01*
X35037641Y-67672543D01*
X35037634Y-67672538D01*
X34844073Y-67537004D01*
X34844069Y-67537002D01*
X34844067Y-67537001D01*
X34629902Y-67437134D01*
X34629898Y-67437133D01*
X34629894Y-67437131D01*
X34401652Y-67375975D01*
X34401642Y-67375973D01*
X34166240Y-67355378D01*
X34166238Y-67355378D01*
X33930835Y-67375973D01*
X33930825Y-67375975D01*
X33702583Y-67437131D01*
X33702574Y-67437135D01*
X33488410Y-67537001D01*
X33488408Y-67537002D01*
X33294839Y-67672540D01*
X33172912Y-67794467D01*
X33111589Y-67827951D01*
X33041897Y-67822967D01*
X32985964Y-67781095D01*
X32969049Y-67750118D01*
X32920036Y-67618708D01*
X32920032Y-67618701D01*
X32833786Y-67503492D01*
X32833783Y-67503489D01*
X32718574Y-67417243D01*
X32718567Y-67417239D01*
X32583721Y-67366945D01*
X32583722Y-67366945D01*
X32524122Y-67360538D01*
X32524120Y-67360537D01*
X32524112Y-67360537D01*
X32524103Y-67360537D01*
X30728368Y-67360537D01*
X30728362Y-67360538D01*
X30668755Y-67366945D01*
X30533910Y-67417239D01*
X30533903Y-67417243D01*
X30418694Y-67503489D01*
X30418691Y-67503492D01*
X30332445Y-67618701D01*
X30332441Y-67618708D01*
X30282147Y-67753554D01*
X30275740Y-67813153D01*
X30275739Y-67813172D01*
X30275739Y-69608907D01*
X30275740Y-69608913D01*
X30282147Y-69668520D01*
X30332441Y-69803365D01*
X30332445Y-69803372D01*
X30418691Y-69918581D01*
X30418694Y-69918584D01*
X30533903Y-70004830D01*
X30533910Y-70004834D01*
X30665320Y-70053847D01*
X30721254Y-70095718D01*
X30745671Y-70161182D01*
X30730819Y-70229455D01*
X30709669Y-70257710D01*
X30587742Y-70379637D01*
X30452204Y-70573206D01*
X30452203Y-70573208D01*
X30352337Y-70787372D01*
X30352333Y-70787381D01*
X30291177Y-71015623D01*
X30291175Y-71015633D01*
X30270580Y-71251036D01*
X28741739Y-71251036D01*
X28741739Y-64286033D01*
X46040674Y-64286033D01*
X46040674Y-64286040D01*
X46060869Y-64465286D01*
X46060870Y-64465291D01*
X46120450Y-64635560D01*
X46216423Y-64788299D01*
X46343977Y-64915853D01*
X46496717Y-65011826D01*
X46666984Y-65071405D01*
X46666989Y-65071406D01*
X46846235Y-65091602D01*
X46846239Y-65091602D01*
X46846243Y-65091602D01*
X47025488Y-65071406D01*
X47025491Y-65071405D01*
X47025494Y-65071405D01*
X47195761Y-65011826D01*
X47348501Y-64915853D01*
X47476055Y-64788299D01*
X47572028Y-64635559D01*
X47631607Y-64465292D01*
X47651804Y-64286037D01*
X47631698Y-64107594D01*
X47631608Y-64106787D01*
X47631607Y-64106782D01*
X47572027Y-63936513D01*
X47476054Y-63783774D01*
X47348501Y-63656221D01*
X47195762Y-63560248D01*
X47025493Y-63500668D01*
X47025488Y-63500667D01*
X46846243Y-63480472D01*
X46846235Y-63480472D01*
X46666989Y-63500667D01*
X46666984Y-63500668D01*
X46496715Y-63560248D01*
X46343976Y-63656221D01*
X46216423Y-63783774D01*
X46120450Y-63936513D01*
X46060870Y-64106782D01*
X46060869Y-64106787D01*
X46040674Y-64286033D01*
X28741739Y-64286033D01*
X28741739Y-52206020D01*
X53625739Y-52206020D01*
X53625739Y-53506038D01*
X53625740Y-53506055D01*
X53636239Y-53608833D01*
X53636240Y-53608836D01*
X53691424Y-53775368D01*
X53691426Y-53775373D01*
X53783528Y-53924694D01*
X53907583Y-54048749D01*
X54062797Y-54144485D01*
X54109522Y-54196433D01*
X54120745Y-54265395D01*
X54092902Y-54329478D01*
X54085383Y-54337705D01*
X53946510Y-54476578D01*
X53821618Y-54648479D01*
X53725143Y-54837819D01*
X53659481Y-55039907D01*
X53659481Y-55039910D01*
X53649008Y-55106037D01*
X54697093Y-55106037D01*
X54658609Y-55172694D01*
X54626239Y-55293502D01*
X54626239Y-55418572D01*
X54658609Y-55539380D01*
X54697093Y-55606037D01*
X53649008Y-55606037D01*
X53659481Y-55672163D01*
X53659481Y-55672166D01*
X53725143Y-55874254D01*
X53821618Y-56063594D01*
X53946511Y-56235496D01*
X53946515Y-56235501D01*
X54096774Y-56385760D01*
X54096779Y-56385764D01*
X54261457Y-56505409D01*
X54304123Y-56560738D01*
X54310102Y-56630352D01*
X54277497Y-56692147D01*
X54261457Y-56706045D01*
X54096453Y-56825927D01*
X54096448Y-56825931D01*
X53946129Y-56976250D01*
X53821190Y-57148216D01*
X53724683Y-57337622D01*
X53658992Y-57539797D01*
X53625739Y-57749750D01*
X53625739Y-57962323D01*
X53658992Y-58172276D01*
X53724683Y-58374451D01*
X53821190Y-58563857D01*
X53946129Y-58735823D01*
X54096448Y-58886142D01*
X54096453Y-58886146D01*
X54261032Y-59005719D01*
X54303698Y-59061048D01*
X54309677Y-59130662D01*
X54277072Y-59192457D01*
X54261032Y-59206355D01*
X54096453Y-59325927D01*
X54096448Y-59325931D01*
X53946129Y-59476250D01*
X53821190Y-59648216D01*
X53724683Y-59837622D01*
X53658992Y-60039797D01*
X53627175Y-60240684D01*
X53625739Y-60249750D01*
X53625739Y-60462324D01*
X53658993Y-60672280D01*
X53691796Y-60773238D01*
X53724683Y-60874451D01*
X53821190Y-61063857D01*
X53946129Y-61235823D01*
X54096448Y-61386142D01*
X54096453Y-61386146D01*
X54261032Y-61505719D01*
X54303698Y-61561048D01*
X54309677Y-61630662D01*
X54277072Y-61692457D01*
X54261032Y-61706355D01*
X54096453Y-61825927D01*
X54096448Y-61825931D01*
X53946129Y-61976250D01*
X53821190Y-62148216D01*
X53724683Y-62337622D01*
X53658992Y-62539797D01*
X53625739Y-62749750D01*
X53625739Y-62962323D01*
X53658992Y-63172276D01*
X53724683Y-63374451D01*
X53821190Y-63563857D01*
X53946129Y-63735823D01*
X54096452Y-63886146D01*
X54268418Y-64011085D01*
X54268420Y-64011086D01*
X54268423Y-64011088D01*
X54457827Y-64107594D01*
X54659996Y-64173283D01*
X54869952Y-64206537D01*
X54869953Y-64206537D01*
X55332525Y-64206537D01*
X55332526Y-64206537D01*
X55542482Y-64173283D01*
X55744651Y-64107594D01*
X55934055Y-64011088D01*
X56036697Y-63936515D01*
X56106025Y-63886146D01*
X56106027Y-63886143D01*
X56106031Y-63886141D01*
X56256343Y-63735829D01*
X56256345Y-63735825D01*
X56256348Y-63735823D01*
X56381287Y-63563857D01*
X56381286Y-63563857D01*
X56381290Y-63563853D01*
X56477796Y-63374449D01*
X56543485Y-63172280D01*
X56576739Y-62962324D01*
X56576739Y-62749750D01*
X56543485Y-62539794D01*
X56477796Y-62337625D01*
X56381290Y-62148221D01*
X56381288Y-62148218D01*
X56381287Y-62148216D01*
X56256348Y-61976250D01*
X56106031Y-61825933D01*
X56106023Y-61825927D01*
X55941443Y-61706353D01*
X55898779Y-61651026D01*
X55892800Y-61581413D01*
X55925405Y-61519617D01*
X55941438Y-61505723D01*
X56106031Y-61386141D01*
X56256343Y-61235829D01*
X56256345Y-61235825D01*
X56256348Y-61235823D01*
X56381287Y-61063857D01*
X56381286Y-61063857D01*
X56381290Y-61063853D01*
X56477796Y-60874449D01*
X56510683Y-60773235D01*
X57700676Y-60773235D01*
X57700676Y-60773238D01*
X57720889Y-61004281D01*
X57720890Y-61004288D01*
X57780917Y-61228311D01*
X57780920Y-61228317D01*
X57878938Y-61438518D01*
X57933904Y-61517018D01*
X58489896Y-60961026D01*
X58498686Y-60993828D01*
X58573926Y-61124146D01*
X58680330Y-61230550D01*
X58810648Y-61305790D01*
X58843449Y-61314579D01*
X58287457Y-61870570D01*
X58365957Y-61925538D01*
X58576158Y-62023555D01*
X58576164Y-62023558D01*
X58800187Y-62083585D01*
X58800194Y-62083586D01*
X59031237Y-62103800D01*
X59031241Y-62103800D01*
X59262283Y-62083586D01*
X59262290Y-62083585D01*
X59486313Y-62023558D01*
X59486324Y-62023554D01*
X59696518Y-61925539D01*
X59696522Y-61925537D01*
X59775019Y-61870570D01*
X59219028Y-61314579D01*
X59251830Y-61305790D01*
X59382148Y-61230550D01*
X59488552Y-61124146D01*
X59563792Y-60993828D01*
X59572581Y-60961026D01*
X60128572Y-61517017D01*
X60179359Y-61444489D01*
X60233936Y-61400864D01*
X60303434Y-61393672D01*
X60365789Y-61425195D01*
X60382505Y-61444485D01*
X60511584Y-61628829D01*
X60675647Y-61792892D01*
X60865706Y-61925973D01*
X61075988Y-62024029D01*
X61300102Y-62084080D01*
X61485011Y-62100257D01*
X61531238Y-62104302D01*
X61531239Y-62104302D01*
X61531240Y-62104302D01*
X61569761Y-62100931D01*
X61762376Y-62084080D01*
X61986490Y-62024029D01*
X62196772Y-61925973D01*
X62386831Y-61792892D01*
X62550894Y-61628829D01*
X62679665Y-61444925D01*
X62734241Y-61401301D01*
X62803740Y-61394109D01*
X62866094Y-61425631D01*
X62882811Y-61444922D01*
X63011584Y-61628829D01*
X63175647Y-61792892D01*
X63365706Y-61925973D01*
X63575988Y-62024029D01*
X63800102Y-62084080D01*
X63985011Y-62100257D01*
X64031238Y-62104302D01*
X64031239Y-62104302D01*
X64031240Y-62104302D01*
X64069761Y-62100931D01*
X64262376Y-62084080D01*
X64486490Y-62024029D01*
X64696772Y-61925973D01*
X64886831Y-61792892D01*
X65050894Y-61628829D01*
X65179665Y-61444925D01*
X65234241Y-61401301D01*
X65303740Y-61394109D01*
X65366094Y-61425631D01*
X65382811Y-61444922D01*
X65511584Y-61628829D01*
X65675647Y-61792892D01*
X65865706Y-61925973D01*
X66075988Y-62024029D01*
X66300102Y-62084080D01*
X66485011Y-62100257D01*
X66531238Y-62104302D01*
X66531239Y-62104302D01*
X66531240Y-62104302D01*
X66569761Y-62100931D01*
X66762376Y-62084080D01*
X66986490Y-62024029D01*
X67196772Y-61925973D01*
X67386831Y-61792892D01*
X67550894Y-61628829D01*
X67679665Y-61444925D01*
X67734241Y-61401301D01*
X67803740Y-61394109D01*
X67866094Y-61425631D01*
X67882811Y-61444922D01*
X68011584Y-61628829D01*
X68175647Y-61792892D01*
X68365706Y-61925973D01*
X68575988Y-62024029D01*
X68800102Y-62084080D01*
X68985011Y-62100257D01*
X69031238Y-62104302D01*
X69031239Y-62104302D01*
X69031240Y-62104302D01*
X69069761Y-62100931D01*
X69262376Y-62084080D01*
X69486490Y-62024029D01*
X69696772Y-61925973D01*
X69886831Y-61792892D01*
X70050894Y-61628829D01*
X70179665Y-61444925D01*
X70234241Y-61401301D01*
X70303740Y-61394109D01*
X70366094Y-61425631D01*
X70382811Y-61444922D01*
X70511584Y-61628829D01*
X70675647Y-61792892D01*
X70865706Y-61925973D01*
X71075988Y-62024029D01*
X71300102Y-62084080D01*
X71485011Y-62100257D01*
X71531238Y-62104302D01*
X71531239Y-62104302D01*
X71531240Y-62104302D01*
X71569761Y-62100931D01*
X71762376Y-62084080D01*
X71986490Y-62024029D01*
X72196772Y-61925973D01*
X72386831Y-61792892D01*
X72550894Y-61628829D01*
X72679665Y-61444925D01*
X72734241Y-61401301D01*
X72803740Y-61394109D01*
X72866094Y-61425631D01*
X72882811Y-61444922D01*
X73011584Y-61628829D01*
X73175647Y-61792892D01*
X73365706Y-61925973D01*
X73575988Y-62024029D01*
X73800102Y-62084080D01*
X73985011Y-62100257D01*
X74031238Y-62104302D01*
X74031239Y-62104302D01*
X74031240Y-62104302D01*
X74069761Y-62100931D01*
X74262376Y-62084080D01*
X74486490Y-62024029D01*
X74696772Y-61925973D01*
X74886831Y-61792892D01*
X75050894Y-61628829D01*
X75179665Y-61444925D01*
X75234241Y-61401301D01*
X75303740Y-61394109D01*
X75366094Y-61425631D01*
X75382811Y-61444922D01*
X75511584Y-61628829D01*
X75675647Y-61792892D01*
X75865706Y-61925973D01*
X76075988Y-62024029D01*
X76300102Y-62084080D01*
X76485011Y-62100257D01*
X76531238Y-62104302D01*
X76531239Y-62104302D01*
X76531240Y-62104302D01*
X76569761Y-62100931D01*
X76762376Y-62084080D01*
X76986490Y-62024029D01*
X77196772Y-61925973D01*
X77386831Y-61792892D01*
X77550894Y-61628829D01*
X77679665Y-61444925D01*
X77734241Y-61401301D01*
X77803740Y-61394109D01*
X77866094Y-61425631D01*
X77882811Y-61444922D01*
X78011584Y-61628829D01*
X78175647Y-61792892D01*
X78365706Y-61925973D01*
X78575988Y-62024029D01*
X78800102Y-62084080D01*
X78985011Y-62100257D01*
X79031238Y-62104302D01*
X79031239Y-62104302D01*
X79031240Y-62104302D01*
X79069761Y-62100931D01*
X79262376Y-62084080D01*
X79486490Y-62024029D01*
X79696772Y-61925973D01*
X79886831Y-61792892D01*
X80050894Y-61628829D01*
X80179665Y-61444925D01*
X80234241Y-61401301D01*
X80303740Y-61394109D01*
X80366094Y-61425631D01*
X80382811Y-61444922D01*
X80511584Y-61628829D01*
X80675647Y-61792892D01*
X80865706Y-61925973D01*
X81075988Y-62024029D01*
X81300102Y-62084080D01*
X81485011Y-62100257D01*
X81531238Y-62104302D01*
X81531239Y-62104302D01*
X81531240Y-62104302D01*
X81569761Y-62100931D01*
X81762376Y-62084080D01*
X81986490Y-62024029D01*
X82196772Y-61925973D01*
X82386831Y-61792892D01*
X82550894Y-61628829D01*
X82683975Y-61438770D01*
X82782031Y-61228488D01*
X82842082Y-61004374D01*
X82862304Y-60773237D01*
X82842082Y-60542100D01*
X82782031Y-60317986D01*
X82683975Y-60107705D01*
X82683973Y-60107702D01*
X82683972Y-60107700D01*
X82550893Y-59917643D01*
X82386835Y-59753586D01*
X82386831Y-59753582D01*
X82234783Y-59647117D01*
X82196771Y-59620500D01*
X82091631Y-59571473D01*
X81986490Y-59522445D01*
X81986486Y-59522444D01*
X81986482Y-59522442D01*
X81762381Y-59462395D01*
X81762371Y-59462393D01*
X81531240Y-59442172D01*
X81531238Y-59442172D01*
X81300106Y-59462393D01*
X81300096Y-59462395D01*
X81075995Y-59522442D01*
X81075986Y-59522446D01*
X80865706Y-59620501D01*
X80865702Y-59620503D01*
X80675645Y-59753582D01*
X80511584Y-59917643D01*
X80382814Y-60101547D01*
X80328237Y-60145172D01*
X80258739Y-60152365D01*
X80196384Y-60120843D01*
X80179664Y-60101547D01*
X80050893Y-59917643D01*
X79886835Y-59753586D01*
X79886831Y-59753582D01*
X79734783Y-59647117D01*
X79696771Y-59620500D01*
X79591631Y-59571473D01*
X79486490Y-59522445D01*
X79486486Y-59522444D01*
X79486482Y-59522442D01*
X79262381Y-59462395D01*
X79262371Y-59462393D01*
X79031240Y-59442172D01*
X79031238Y-59442172D01*
X78800106Y-59462393D01*
X78800096Y-59462395D01*
X78575995Y-59522442D01*
X78575986Y-59522446D01*
X78365706Y-59620501D01*
X78365702Y-59620503D01*
X78175645Y-59753582D01*
X78011584Y-59917643D01*
X77882814Y-60101547D01*
X77828237Y-60145172D01*
X77758739Y-60152365D01*
X77696384Y-60120843D01*
X77679664Y-60101547D01*
X77550893Y-59917643D01*
X77386835Y-59753586D01*
X77386831Y-59753582D01*
X77234783Y-59647117D01*
X77196771Y-59620500D01*
X77091631Y-59571473D01*
X76986490Y-59522445D01*
X76986486Y-59522444D01*
X76986482Y-59522442D01*
X76762381Y-59462395D01*
X76762371Y-59462393D01*
X76531240Y-59442172D01*
X76531238Y-59442172D01*
X76300106Y-59462393D01*
X76300096Y-59462395D01*
X76075995Y-59522442D01*
X76075986Y-59522446D01*
X75865706Y-59620501D01*
X75865702Y-59620503D01*
X75675645Y-59753582D01*
X75511584Y-59917643D01*
X75382814Y-60101547D01*
X75328237Y-60145172D01*
X75258739Y-60152365D01*
X75196384Y-60120843D01*
X75179664Y-60101547D01*
X75050893Y-59917643D01*
X74886835Y-59753586D01*
X74886831Y-59753582D01*
X74734783Y-59647117D01*
X74696771Y-59620500D01*
X74591631Y-59571473D01*
X74486490Y-59522445D01*
X74486486Y-59522444D01*
X74486482Y-59522442D01*
X74262381Y-59462395D01*
X74262371Y-59462393D01*
X74031240Y-59442172D01*
X74031238Y-59442172D01*
X73800106Y-59462393D01*
X73800096Y-59462395D01*
X73575995Y-59522442D01*
X73575986Y-59522446D01*
X73365706Y-59620501D01*
X73365702Y-59620503D01*
X73175645Y-59753582D01*
X73011584Y-59917643D01*
X72882814Y-60101547D01*
X72828237Y-60145172D01*
X72758739Y-60152365D01*
X72696384Y-60120843D01*
X72679664Y-60101547D01*
X72550893Y-59917643D01*
X72386835Y-59753586D01*
X72386831Y-59753582D01*
X72234783Y-59647117D01*
X72196771Y-59620500D01*
X72091631Y-59571473D01*
X71986490Y-59522445D01*
X71986486Y-59522444D01*
X71986482Y-59522442D01*
X71762381Y-59462395D01*
X71762371Y-59462393D01*
X71531240Y-59442172D01*
X71531238Y-59442172D01*
X71300106Y-59462393D01*
X71300096Y-59462395D01*
X71075995Y-59522442D01*
X71075986Y-59522446D01*
X70865706Y-59620501D01*
X70865702Y-59620503D01*
X70675645Y-59753582D01*
X70511584Y-59917643D01*
X70382814Y-60101547D01*
X70328237Y-60145172D01*
X70258739Y-60152365D01*
X70196384Y-60120843D01*
X70179664Y-60101547D01*
X70050893Y-59917643D01*
X69886835Y-59753586D01*
X69886831Y-59753582D01*
X69734783Y-59647117D01*
X69696771Y-59620500D01*
X69591631Y-59571473D01*
X69486490Y-59522445D01*
X69486486Y-59522444D01*
X69486482Y-59522442D01*
X69262381Y-59462395D01*
X69262371Y-59462393D01*
X69031240Y-59442172D01*
X69031238Y-59442172D01*
X68800106Y-59462393D01*
X68800096Y-59462395D01*
X68575995Y-59522442D01*
X68575986Y-59522446D01*
X68365706Y-59620501D01*
X68365702Y-59620503D01*
X68175645Y-59753582D01*
X68011584Y-59917643D01*
X67882814Y-60101547D01*
X67828237Y-60145172D01*
X67758739Y-60152365D01*
X67696384Y-60120843D01*
X67679664Y-60101547D01*
X67550893Y-59917643D01*
X67386835Y-59753586D01*
X67386831Y-59753582D01*
X67234783Y-59647117D01*
X67196771Y-59620500D01*
X67091631Y-59571473D01*
X66986490Y-59522445D01*
X66986486Y-59522444D01*
X66986482Y-59522442D01*
X66762381Y-59462395D01*
X66762371Y-59462393D01*
X66531240Y-59442172D01*
X66531238Y-59442172D01*
X66300106Y-59462393D01*
X66300096Y-59462395D01*
X66075995Y-59522442D01*
X66075986Y-59522446D01*
X65865706Y-59620501D01*
X65865702Y-59620503D01*
X65675645Y-59753582D01*
X65511584Y-59917643D01*
X65382814Y-60101547D01*
X65328237Y-60145172D01*
X65258739Y-60152365D01*
X65196384Y-60120843D01*
X65179664Y-60101547D01*
X65050893Y-59917643D01*
X64886835Y-59753586D01*
X64886831Y-59753582D01*
X64734783Y-59647117D01*
X64696771Y-59620500D01*
X64591631Y-59571473D01*
X64486490Y-59522445D01*
X64486486Y-59522444D01*
X64486482Y-59522442D01*
X64262381Y-59462395D01*
X64262371Y-59462393D01*
X64031240Y-59442172D01*
X64031238Y-59442172D01*
X63800106Y-59462393D01*
X63800096Y-59462395D01*
X63575995Y-59522442D01*
X63575986Y-59522446D01*
X63365706Y-59620501D01*
X63365702Y-59620503D01*
X63175645Y-59753582D01*
X63011584Y-59917643D01*
X62882814Y-60101547D01*
X62828237Y-60145172D01*
X62758739Y-60152365D01*
X62696384Y-60120843D01*
X62679664Y-60101547D01*
X62550893Y-59917643D01*
X62386835Y-59753586D01*
X62386831Y-59753582D01*
X62234783Y-59647117D01*
X62196771Y-59620500D01*
X62091631Y-59571473D01*
X61986490Y-59522445D01*
X61986486Y-59522444D01*
X61986482Y-59522442D01*
X61762381Y-59462395D01*
X61762371Y-59462393D01*
X61531240Y-59442172D01*
X61531238Y-59442172D01*
X61300106Y-59462393D01*
X61300096Y-59462395D01*
X61075995Y-59522442D01*
X61075986Y-59522446D01*
X60865706Y-59620501D01*
X60865702Y-59620503D01*
X60675645Y-59753582D01*
X60511587Y-59917640D01*
X60382508Y-60101984D01*
X60327931Y-60145609D01*
X60258432Y-60152801D01*
X60196078Y-60121279D01*
X60179358Y-60101984D01*
X60128572Y-60029454D01*
X59572580Y-60585446D01*
X59563792Y-60552646D01*
X59488552Y-60422328D01*
X59382148Y-60315924D01*
X59251830Y-60240684D01*
X59219028Y-60231894D01*
X59775020Y-59675902D01*
X59696520Y-59620936D01*
X59486319Y-59522918D01*
X59486313Y-59522915D01*
X59262290Y-59462888D01*
X59262283Y-59462887D01*
X59031241Y-59442674D01*
X59031237Y-59442674D01*
X58800194Y-59462887D01*
X58800187Y-59462888D01*
X58576156Y-59522918D01*
X58365954Y-59620938D01*
X58287457Y-59675901D01*
X58287456Y-59675902D01*
X58843449Y-60231894D01*
X58810648Y-60240684D01*
X58680330Y-60315924D01*
X58573926Y-60422328D01*
X58498686Y-60552646D01*
X58489896Y-60585446D01*
X57933904Y-60029454D01*
X57933903Y-60029455D01*
X57878940Y-60107952D01*
X57780920Y-60318154D01*
X57720890Y-60542185D01*
X57720889Y-60542192D01*
X57700676Y-60773235D01*
X56510683Y-60773235D01*
X56543485Y-60672280D01*
X56576739Y-60462324D01*
X56576739Y-60249750D01*
X56543485Y-60039794D01*
X56477796Y-59837625D01*
X56381290Y-59648221D01*
X56381288Y-59648218D01*
X56381287Y-59648216D01*
X56256348Y-59476250D01*
X56106031Y-59325933D01*
X56106023Y-59325927D01*
X55941443Y-59206353D01*
X55898779Y-59151026D01*
X55892800Y-59081413D01*
X55925405Y-59019617D01*
X55941438Y-59005723D01*
X56106031Y-58886141D01*
X56256343Y-58735829D01*
X56256345Y-58735825D01*
X56256348Y-58735823D01*
X56381287Y-58563857D01*
X56381286Y-58563857D01*
X56381290Y-58563853D01*
X56477796Y-58374449D01*
X56543485Y-58172280D01*
X56576739Y-57962324D01*
X56576739Y-57749750D01*
X56543485Y-57539794D01*
X56477796Y-57337625D01*
X56381290Y-57148221D01*
X56381288Y-57148218D01*
X56381287Y-57148216D01*
X56256348Y-56976250D01*
X56106029Y-56825931D01*
X56106024Y-56825927D01*
X55941020Y-56706045D01*
X55910166Y-56666033D01*
X70170674Y-56666033D01*
X70170674Y-56666040D01*
X70190869Y-56845286D01*
X70190870Y-56845291D01*
X70250450Y-57015560D01*
X70333804Y-57148216D01*
X70346423Y-57168299D01*
X70473977Y-57295853D01*
X70626717Y-57391826D01*
X70796984Y-57451405D01*
X70796989Y-57451406D01*
X70976235Y-57471602D01*
X70976239Y-57471602D01*
X70976243Y-57471602D01*
X71155488Y-57451406D01*
X71155491Y-57451405D01*
X71155494Y-57451405D01*
X71325761Y-57391826D01*
X71478501Y-57295853D01*
X71606055Y-57168299D01*
X71702028Y-57015559D01*
X71761607Y-56845292D01*
X71761608Y-56845286D01*
X71781804Y-56666040D01*
X71781804Y-56666033D01*
X73980674Y-56666033D01*
X73980674Y-56666040D01*
X74000869Y-56845286D01*
X74000870Y-56845291D01*
X74060450Y-57015560D01*
X74143804Y-57148216D01*
X74156423Y-57168299D01*
X74283977Y-57295853D01*
X74436717Y-57391826D01*
X74606984Y-57451405D01*
X74606989Y-57451406D01*
X74786235Y-57471602D01*
X74786239Y-57471602D01*
X74786243Y-57471602D01*
X74965488Y-57451406D01*
X74965491Y-57451405D01*
X74965494Y-57451405D01*
X75135761Y-57391826D01*
X75288501Y-57295853D01*
X75416055Y-57168299D01*
X75512028Y-57015559D01*
X75571607Y-56845292D01*
X75571608Y-56845286D01*
X75591804Y-56666040D01*
X75591804Y-56666033D01*
X75571608Y-56486787D01*
X75571607Y-56486782D01*
X75512027Y-56316513D01*
X75416054Y-56163774D01*
X75288501Y-56036221D01*
X75135762Y-55940248D01*
X74965493Y-55880668D01*
X74965488Y-55880667D01*
X74786243Y-55860472D01*
X74786235Y-55860472D01*
X74606989Y-55880667D01*
X74606984Y-55880668D01*
X74436715Y-55940248D01*
X74283976Y-56036221D01*
X74156423Y-56163774D01*
X74060450Y-56316513D01*
X74000870Y-56486782D01*
X74000869Y-56486787D01*
X73980674Y-56666033D01*
X71781804Y-56666033D01*
X71761608Y-56486787D01*
X71761607Y-56486782D01*
X71702027Y-56316513D01*
X71606054Y-56163774D01*
X71478501Y-56036221D01*
X71325762Y-55940248D01*
X71155493Y-55880668D01*
X71155488Y-55880667D01*
X70976243Y-55860472D01*
X70976235Y-55860472D01*
X70796989Y-55880667D01*
X70796984Y-55880668D01*
X70626715Y-55940248D01*
X70473976Y-56036221D01*
X70346423Y-56163774D01*
X70250450Y-56316513D01*
X70190870Y-56486782D01*
X70190869Y-56486787D01*
X70170674Y-56666033D01*
X55910166Y-56666033D01*
X55898354Y-56650715D01*
X55892375Y-56581102D01*
X55924980Y-56519307D01*
X55941020Y-56505408D01*
X56105705Y-56385758D01*
X56255962Y-56235501D01*
X56255966Y-56235496D01*
X56380859Y-56063594D01*
X56477334Y-55874254D01*
X56542996Y-55672166D01*
X56542996Y-55672163D01*
X56553470Y-55606037D01*
X55505385Y-55606037D01*
X55543869Y-55539380D01*
X55576239Y-55418572D01*
X55576239Y-55293502D01*
X55543869Y-55172694D01*
X55505385Y-55106037D01*
X56553470Y-55106037D01*
X56542996Y-55039910D01*
X56542996Y-55039907D01*
X56477334Y-54837819D01*
X56380859Y-54648479D01*
X56255966Y-54476577D01*
X56255962Y-54476572D01*
X56117095Y-54337705D01*
X56083610Y-54276382D01*
X56088594Y-54206690D01*
X56130466Y-54150757D01*
X56139680Y-54144485D01*
X56145570Y-54140851D01*
X56145573Y-54140851D01*
X56294895Y-54048749D01*
X56418951Y-53924693D01*
X56511053Y-53775371D01*
X56566238Y-53608834D01*
X56576739Y-53506046D01*
X56576738Y-52206029D01*
X56566238Y-52103240D01*
X56511053Y-51936703D01*
X56418951Y-51787381D01*
X56294895Y-51663325D01*
X56202127Y-51606106D01*
X56145575Y-51571224D01*
X56145570Y-51571222D01*
X56099328Y-51555899D01*
X55979036Y-51516038D01*
X55979034Y-51516037D01*
X55876249Y-51505537D01*
X54326237Y-51505537D01*
X54326220Y-51505538D01*
X54223442Y-51516037D01*
X54223439Y-51516038D01*
X54056907Y-51571222D01*
X54056902Y-51571224D01*
X53907581Y-51663326D01*
X53783528Y-51787379D01*
X53691426Y-51936700D01*
X53691425Y-51936703D01*
X53636240Y-52103240D01*
X53636240Y-52103241D01*
X53636239Y-52103241D01*
X53625739Y-52206020D01*
X28741739Y-52206020D01*
X28741739Y-50319083D01*
X28741888Y-50312999D01*
X28748024Y-50188107D01*
X30615739Y-50188107D01*
X30615739Y-50443967D01*
X30622741Y-50488172D01*
X30655765Y-50696677D01*
X30734827Y-50940009D01*
X30734828Y-50940012D01*
X30783756Y-51036037D01*
X30839748Y-51145927D01*
X30850989Y-51167987D01*
X31001371Y-51374972D01*
X31001375Y-51374977D01*
X31182298Y-51555900D01*
X31182303Y-51555904D01*
X31260057Y-51612395D01*
X31389292Y-51706289D01*
X31538319Y-51782222D01*
X31617263Y-51822447D01*
X31617266Y-51822448D01*
X31738932Y-51861979D01*
X31860600Y-51901511D01*
X32113309Y-51941537D01*
X32113310Y-51941537D01*
X32369168Y-51941537D01*
X32369169Y-51941537D01*
X32621878Y-51901511D01*
X32865214Y-51822447D01*
X33093186Y-51706289D01*
X33300181Y-51555899D01*
X33481101Y-51374979D01*
X33631491Y-51167984D01*
X33747649Y-50940012D01*
X33826713Y-50696676D01*
X33859737Y-50488172D01*
X58630739Y-50488172D01*
X58630739Y-52683907D01*
X58630740Y-52683913D01*
X58637147Y-52743520D01*
X58687441Y-52878365D01*
X58687445Y-52878372D01*
X58773691Y-52993581D01*
X58773694Y-52993584D01*
X58888903Y-53079830D01*
X58888910Y-53079834D01*
X59023756Y-53130128D01*
X59023755Y-53130128D01*
X59030683Y-53130872D01*
X59083366Y-53136537D01*
X61279111Y-53136536D01*
X61338722Y-53130128D01*
X61473570Y-53079833D01*
X61588785Y-52993583D01*
X61666626Y-52889599D01*
X61722558Y-52847731D01*
X61792249Y-52842747D01*
X61830681Y-52858186D01*
X62015377Y-52971368D01*
X62240781Y-53064733D01*
X62478019Y-53121688D01*
X62478018Y-53121688D01*
X62721239Y-53140829D01*
X62964458Y-53121688D01*
X63201696Y-53064733D01*
X63427100Y-52971368D01*
X63629180Y-52847532D01*
X63629180Y-52847531D01*
X62891473Y-52109824D01*
X62933531Y-52098555D01*
X63058947Y-52026147D01*
X63161349Y-51923745D01*
X63233757Y-51798329D01*
X63245026Y-51756271D01*
X63982733Y-52493978D01*
X63982734Y-52493978D01*
X64106570Y-52291898D01*
X64199935Y-52066494D01*
X64256890Y-51829256D01*
X64276031Y-51586037D01*
X64256890Y-51342817D01*
X64199935Y-51105579D01*
X64106570Y-50880175D01*
X63982733Y-50678094D01*
X63245026Y-51415801D01*
X63233757Y-51373745D01*
X63161349Y-51248329D01*
X63058947Y-51145927D01*
X62933531Y-51073519D01*
X62891473Y-51062249D01*
X63629180Y-50324541D01*
X63427100Y-50200705D01*
X63396686Y-50188107D01*
X79615739Y-50188107D01*
X79615739Y-50443967D01*
X79622741Y-50488172D01*
X79655765Y-50696677D01*
X79734827Y-50940009D01*
X79734828Y-50940012D01*
X79783756Y-51036037D01*
X79839748Y-51145927D01*
X79850989Y-51167987D01*
X80001371Y-51374972D01*
X80001375Y-51374977D01*
X80182298Y-51555900D01*
X80182303Y-51555904D01*
X80260057Y-51612395D01*
X80389292Y-51706289D01*
X80538319Y-51782222D01*
X80617263Y-51822447D01*
X80617266Y-51822448D01*
X80738932Y-51861979D01*
X80860600Y-51901511D01*
X81113309Y-51941537D01*
X81113310Y-51941537D01*
X81369168Y-51941537D01*
X81369169Y-51941537D01*
X81621878Y-51901511D01*
X81865214Y-51822447D01*
X82093186Y-51706289D01*
X82300181Y-51555899D01*
X82481101Y-51374979D01*
X82631491Y-51167984D01*
X82747649Y-50940012D01*
X82826713Y-50696676D01*
X82866739Y-50443967D01*
X82866739Y-50188107D01*
X82826713Y-49935398D01*
X82787181Y-49813730D01*
X82747650Y-49692064D01*
X82747649Y-49692061D01*
X82707424Y-49613117D01*
X82631491Y-49464090D01*
X82542078Y-49341023D01*
X82481106Y-49257101D01*
X82481102Y-49257096D01*
X82300179Y-49076173D01*
X82300174Y-49076169D01*
X82093189Y-48925787D01*
X82093188Y-48925786D01*
X82093186Y-48925785D01*
X82020149Y-48888570D01*
X81865214Y-48809626D01*
X81865211Y-48809625D01*
X81621879Y-48730563D01*
X81495523Y-48710550D01*
X81369169Y-48690537D01*
X81113309Y-48690537D01*
X81029072Y-48703879D01*
X80860598Y-48730563D01*
X80617266Y-48809625D01*
X80617263Y-48809626D01*
X80389288Y-48925787D01*
X80182303Y-49076169D01*
X80182298Y-49076173D01*
X80001375Y-49257096D01*
X80001371Y-49257101D01*
X79850989Y-49464086D01*
X79734828Y-49692061D01*
X79734827Y-49692064D01*
X79655765Y-49935396D01*
X79626599Y-50119541D01*
X79615739Y-50188107D01*
X63396686Y-50188107D01*
X63201696Y-50107340D01*
X62964458Y-50050385D01*
X62964459Y-50050385D01*
X62721239Y-50031244D01*
X62478019Y-50050385D01*
X62240781Y-50107340D01*
X62015379Y-50200704D01*
X61830680Y-50313888D01*
X61763235Y-50332132D01*
X61696632Y-50311015D01*
X61666624Y-50282471D01*
X61588785Y-50178491D01*
X61565948Y-50161395D01*
X61473574Y-50092243D01*
X61473567Y-50092239D01*
X61338721Y-50041945D01*
X61338722Y-50041945D01*
X61279122Y-50035538D01*
X61279120Y-50035537D01*
X61279112Y-50035537D01*
X61279103Y-50035537D01*
X59083368Y-50035537D01*
X59083362Y-50035538D01*
X59023755Y-50041945D01*
X58888910Y-50092239D01*
X58888903Y-50092243D01*
X58773694Y-50178489D01*
X58773691Y-50178492D01*
X58687445Y-50293701D01*
X58687441Y-50293708D01*
X58637147Y-50428554D01*
X58630740Y-50488153D01*
X58630739Y-50488172D01*
X33859737Y-50488172D01*
X33866739Y-50443967D01*
X33866739Y-50188107D01*
X33826713Y-49935398D01*
X33787181Y-49813730D01*
X33747650Y-49692064D01*
X33747649Y-49692061D01*
X33707424Y-49613117D01*
X33631491Y-49464090D01*
X33542078Y-49341023D01*
X33481106Y-49257101D01*
X33481102Y-49257096D01*
X33300179Y-49076173D01*
X33300174Y-49076169D01*
X33093189Y-48925787D01*
X33093188Y-48925786D01*
X33093186Y-48925785D01*
X33020149Y-48888570D01*
X32865214Y-48809626D01*
X32865211Y-48809625D01*
X32621879Y-48730563D01*
X32495523Y-48710550D01*
X32369169Y-48690537D01*
X32113309Y-48690537D01*
X32029072Y-48703879D01*
X31860598Y-48730563D01*
X31617266Y-48809625D01*
X31617263Y-48809626D01*
X31389288Y-48925787D01*
X31182303Y-49076169D01*
X31182298Y-49076173D01*
X31001375Y-49257096D01*
X31001371Y-49257101D01*
X30850989Y-49464086D01*
X30734828Y-49692061D01*
X30734827Y-49692064D01*
X30655765Y-49935396D01*
X30626599Y-50119541D01*
X30615739Y-50188107D01*
X28748024Y-50188107D01*
X28751392Y-50119541D01*
X28758291Y-49979105D01*
X28759484Y-49966999D01*
X28808087Y-49639345D01*
X28810461Y-49627410D01*
X28882195Y-49341034D01*
X28890949Y-49306085D01*
X28894474Y-49294464D01*
X29006077Y-48982554D01*
X29010725Y-48971335D01*
X29152359Y-48671874D01*
X29158083Y-48661166D01*
X29328385Y-48377036D01*
X29335131Y-48366940D01*
X29532472Y-48100856D01*
X29540175Y-48091471D01*
X29762645Y-47846013D01*
X29771215Y-47837443D01*
X30016673Y-47614974D01*
X30026058Y-47607271D01*
X30292145Y-47409927D01*
X30302238Y-47403184D01*
X30586376Y-47232879D01*
X30597068Y-47227163D01*
X30896558Y-47085515D01*
X30907765Y-47080874D01*
X31219651Y-46969278D01*
X31231287Y-46965748D01*
X31552622Y-46885258D01*
X31564532Y-46882889D01*
X31892203Y-46834283D01*
X31904305Y-46833091D01*
X32238261Y-46816685D01*
X32244317Y-46816537D01*
X32307131Y-46816537D01*
X81175342Y-46816537D01*
X81238180Y-46816537D01*
X81244265Y-46816686D01*
G37*
%TD.AperFunction*%
M02*
