%TF.GenerationSoftware,KiCad,Pcbnew,8.0.5*%
%TF.CreationDate,2024-11-16T16:01:40-06:00*%
%TF.ProjectId,ControllerPCB,436f6e74-726f-46c6-9c65-725043422e6b,rev?*%
%TF.SameCoordinates,Original*%
%TF.FileFunction,Legend,Bot*%
%TF.FilePolarity,Positive*%
%FSLAX46Y46*%
G04 Gerber Fmt 4.6, Leading zero omitted, Abs format (unit mm)*
G04 Created by KiCad (PCBNEW 8.0.5) date 2024-11-16 16:01:40*
%MOMM*%
%LPD*%
G01*
G04 APERTURE LIST*
G04 Aperture macros list*
%AMRoundRect*
0 Rectangle with rounded corners*
0 $1 Rounding radius*
0 $2 $3 $4 $5 $6 $7 $8 $9 X,Y pos of 4 corners*
0 Add a 4 corners polygon primitive as box body*
4,1,4,$2,$3,$4,$5,$6,$7,$8,$9,$2,$3,0*
0 Add four circle primitives for the rounded corners*
1,1,$1+$1,$2,$3*
1,1,$1+$1,$4,$5*
1,1,$1+$1,$6,$7*
1,1,$1+$1,$8,$9*
0 Add four rect primitives between the rounded corners*
20,1,$1+$1,$2,$3,$4,$5,0*
20,1,$1+$1,$4,$5,$6,$7,0*
20,1,$1+$1,$6,$7,$8,$9,0*
20,1,$1+$1,$8,$9,$2,$3,0*%
G04 Aperture macros list end*
%ADD10C,0.150000*%
%ADD11C,0.120000*%
%ADD12C,0.508000*%
%ADD13C,0.200000*%
%ADD14C,0.127000*%
%ADD15O,1.000000X1.900000*%
%ADD16O,1.050000X1.250000*%
%ADD17R,1.500000X1.500000*%
%ADD18R,1.700000X1.700000*%
%ADD19O,1.700000X1.700000*%
%ADD20C,1.651000*%
%ADD21C,3.200000*%
%ADD22C,0.600000*%
%ADD23C,4.270000*%
%ADD24C,1.779000*%
%ADD25RoundRect,0.102000X0.787500X0.787500X-0.787500X0.787500X-0.787500X-0.787500X0.787500X-0.787500X0*%
%ADD26RoundRect,0.250000X-0.725000X0.600000X-0.725000X-0.600000X0.725000X-0.600000X0.725000X0.600000X0*%
%ADD27O,1.950000X1.700000*%
%ADD28R,2.100000X2.100000*%
%ADD29C,2.100000*%
G04 APERTURE END LIST*
D10*
X70968143Y-87235856D02*
X70396715Y-87235856D01*
X70682429Y-88235856D02*
X70682429Y-87235856D01*
X70063381Y-88235856D02*
X70063381Y-87235856D01*
X70063381Y-87235856D02*
X69682429Y-87235856D01*
X69682429Y-87235856D02*
X69587191Y-87283475D01*
X69587191Y-87283475D02*
X69539572Y-87331094D01*
X69539572Y-87331094D02*
X69491953Y-87426332D01*
X69491953Y-87426332D02*
X69491953Y-87569189D01*
X69491953Y-87569189D02*
X69539572Y-87664427D01*
X69539572Y-87664427D02*
X69587191Y-87712046D01*
X69587191Y-87712046D02*
X69682429Y-87759665D01*
X69682429Y-87759665D02*
X70063381Y-87759665D01*
X69015762Y-88235856D02*
X68825286Y-88235856D01*
X68825286Y-88235856D02*
X68730048Y-88188237D01*
X68730048Y-88188237D02*
X68682429Y-88140617D01*
X68682429Y-88140617D02*
X68587191Y-87997760D01*
X68587191Y-87997760D02*
X68539572Y-87807284D01*
X68539572Y-87807284D02*
X68539572Y-87426332D01*
X68539572Y-87426332D02*
X68587191Y-87331094D01*
X68587191Y-87331094D02*
X68634810Y-87283475D01*
X68634810Y-87283475D02*
X68730048Y-87235856D01*
X68730048Y-87235856D02*
X68920524Y-87235856D01*
X68920524Y-87235856D02*
X69015762Y-87283475D01*
X69015762Y-87283475D02*
X69063381Y-87331094D01*
X69063381Y-87331094D02*
X69111000Y-87426332D01*
X69111000Y-87426332D02*
X69111000Y-87664427D01*
X69111000Y-87664427D02*
X69063381Y-87759665D01*
X69063381Y-87759665D02*
X69015762Y-87807284D01*
X69015762Y-87807284D02*
X68920524Y-87854903D01*
X68920524Y-87854903D02*
X68730048Y-87854903D01*
X68730048Y-87854903D02*
X68634810Y-87807284D01*
X68634810Y-87807284D02*
X68587191Y-87759665D01*
X68587191Y-87759665D02*
X68539572Y-87664427D01*
X70968143Y-80885856D02*
X70396715Y-80885856D01*
X70682429Y-81885856D02*
X70682429Y-80885856D01*
X70063381Y-81885856D02*
X70063381Y-80885856D01*
X70063381Y-80885856D02*
X69682429Y-80885856D01*
X69682429Y-80885856D02*
X69587191Y-80933475D01*
X69587191Y-80933475D02*
X69539572Y-80981094D01*
X69539572Y-80981094D02*
X69491953Y-81076332D01*
X69491953Y-81076332D02*
X69491953Y-81219189D01*
X69491953Y-81219189D02*
X69539572Y-81314427D01*
X69539572Y-81314427D02*
X69587191Y-81362046D01*
X69587191Y-81362046D02*
X69682429Y-81409665D01*
X69682429Y-81409665D02*
X70063381Y-81409665D01*
X68920524Y-81314427D02*
X69015762Y-81266808D01*
X69015762Y-81266808D02*
X69063381Y-81219189D01*
X69063381Y-81219189D02*
X69111000Y-81123951D01*
X69111000Y-81123951D02*
X69111000Y-81076332D01*
X69111000Y-81076332D02*
X69063381Y-80981094D01*
X69063381Y-80981094D02*
X69015762Y-80933475D01*
X69015762Y-80933475D02*
X68920524Y-80885856D01*
X68920524Y-80885856D02*
X68730048Y-80885856D01*
X68730048Y-80885856D02*
X68634810Y-80933475D01*
X68634810Y-80933475D02*
X68587191Y-80981094D01*
X68587191Y-80981094D02*
X68539572Y-81076332D01*
X68539572Y-81076332D02*
X68539572Y-81123951D01*
X68539572Y-81123951D02*
X68587191Y-81219189D01*
X68587191Y-81219189D02*
X68634810Y-81266808D01*
X68634810Y-81266808D02*
X68730048Y-81314427D01*
X68730048Y-81314427D02*
X68920524Y-81314427D01*
X68920524Y-81314427D02*
X69015762Y-81362046D01*
X69015762Y-81362046D02*
X69063381Y-81409665D01*
X69063381Y-81409665D02*
X69111000Y-81504903D01*
X69111000Y-81504903D02*
X69111000Y-81695379D01*
X69111000Y-81695379D02*
X69063381Y-81790617D01*
X69063381Y-81790617D02*
X69015762Y-81838237D01*
X69015762Y-81838237D02*
X68920524Y-81885856D01*
X68920524Y-81885856D02*
X68730048Y-81885856D01*
X68730048Y-81885856D02*
X68634810Y-81838237D01*
X68634810Y-81838237D02*
X68587191Y-81790617D01*
X68587191Y-81790617D02*
X68539572Y-81695379D01*
X68539572Y-81695379D02*
X68539572Y-81504903D01*
X68539572Y-81504903D02*
X68587191Y-81409665D01*
X68587191Y-81409665D02*
X68634810Y-81362046D01*
X68634810Y-81362046D02*
X68730048Y-81314427D01*
X84303143Y-78345856D02*
X83731715Y-78345856D01*
X84017429Y-79345856D02*
X84017429Y-78345856D01*
X83398381Y-79345856D02*
X83398381Y-78345856D01*
X83398381Y-78345856D02*
X83017429Y-78345856D01*
X83017429Y-78345856D02*
X82922191Y-78393475D01*
X82922191Y-78393475D02*
X82874572Y-78441094D01*
X82874572Y-78441094D02*
X82826953Y-78536332D01*
X82826953Y-78536332D02*
X82826953Y-78679189D01*
X82826953Y-78679189D02*
X82874572Y-78774427D01*
X82874572Y-78774427D02*
X82922191Y-78822046D01*
X82922191Y-78822046D02*
X83017429Y-78869665D01*
X83017429Y-78869665D02*
X83398381Y-78869665D01*
X82493619Y-78345856D02*
X81826953Y-78345856D01*
X81826953Y-78345856D02*
X82255524Y-79345856D01*
X72873143Y-79615856D02*
X72301715Y-79615856D01*
X72587429Y-80615856D02*
X72587429Y-79615856D01*
X71968381Y-80615856D02*
X71968381Y-79615856D01*
X71968381Y-79615856D02*
X71587429Y-79615856D01*
X71587429Y-79615856D02*
X71492191Y-79663475D01*
X71492191Y-79663475D02*
X71444572Y-79711094D01*
X71444572Y-79711094D02*
X71396953Y-79806332D01*
X71396953Y-79806332D02*
X71396953Y-79949189D01*
X71396953Y-79949189D02*
X71444572Y-80044427D01*
X71444572Y-80044427D02*
X71492191Y-80092046D01*
X71492191Y-80092046D02*
X71587429Y-80139665D01*
X71587429Y-80139665D02*
X71968381Y-80139665D01*
X70539810Y-79615856D02*
X70730286Y-79615856D01*
X70730286Y-79615856D02*
X70825524Y-79663475D01*
X70825524Y-79663475D02*
X70873143Y-79711094D01*
X70873143Y-79711094D02*
X70968381Y-79853951D01*
X70968381Y-79853951D02*
X71016000Y-80044427D01*
X71016000Y-80044427D02*
X71016000Y-80425379D01*
X71016000Y-80425379D02*
X70968381Y-80520617D01*
X70968381Y-80520617D02*
X70920762Y-80568237D01*
X70920762Y-80568237D02*
X70825524Y-80615856D01*
X70825524Y-80615856D02*
X70635048Y-80615856D01*
X70635048Y-80615856D02*
X70539810Y-80568237D01*
X70539810Y-80568237D02*
X70492191Y-80520617D01*
X70492191Y-80520617D02*
X70444572Y-80425379D01*
X70444572Y-80425379D02*
X70444572Y-80187284D01*
X70444572Y-80187284D02*
X70492191Y-80092046D01*
X70492191Y-80092046D02*
X70539810Y-80044427D01*
X70539810Y-80044427D02*
X70635048Y-79996808D01*
X70635048Y-79996808D02*
X70825524Y-79996808D01*
X70825524Y-79996808D02*
X70920762Y-80044427D01*
X70920762Y-80044427D02*
X70968381Y-80092046D01*
X70968381Y-80092046D02*
X71016000Y-80187284D01*
X77953143Y-82790856D02*
X77381715Y-82790856D01*
X77667429Y-83790856D02*
X77667429Y-82790856D01*
X77048381Y-83790856D02*
X77048381Y-82790856D01*
X77048381Y-82790856D02*
X76667429Y-82790856D01*
X76667429Y-82790856D02*
X76572191Y-82838475D01*
X76572191Y-82838475D02*
X76524572Y-82886094D01*
X76524572Y-82886094D02*
X76476953Y-82981332D01*
X76476953Y-82981332D02*
X76476953Y-83124189D01*
X76476953Y-83124189D02*
X76524572Y-83219427D01*
X76524572Y-83219427D02*
X76572191Y-83267046D01*
X76572191Y-83267046D02*
X76667429Y-83314665D01*
X76667429Y-83314665D02*
X77048381Y-83314665D01*
X75572191Y-82790856D02*
X76048381Y-82790856D01*
X76048381Y-82790856D02*
X76096000Y-83267046D01*
X76096000Y-83267046D02*
X76048381Y-83219427D01*
X76048381Y-83219427D02*
X75953143Y-83171808D01*
X75953143Y-83171808D02*
X75715048Y-83171808D01*
X75715048Y-83171808D02*
X75619810Y-83219427D01*
X75619810Y-83219427D02*
X75572191Y-83267046D01*
X75572191Y-83267046D02*
X75524572Y-83362284D01*
X75524572Y-83362284D02*
X75524572Y-83600379D01*
X75524572Y-83600379D02*
X75572191Y-83695617D01*
X75572191Y-83695617D02*
X75619810Y-83743237D01*
X75619810Y-83743237D02*
X75715048Y-83790856D01*
X75715048Y-83790856D02*
X75953143Y-83790856D01*
X75953143Y-83790856D02*
X76048381Y-83743237D01*
X76048381Y-83743237D02*
X76096000Y-83695617D01*
X77953143Y-85330856D02*
X77381715Y-85330856D01*
X77667429Y-86330856D02*
X77667429Y-85330856D01*
X77048381Y-86330856D02*
X77048381Y-85330856D01*
X77048381Y-85330856D02*
X76667429Y-85330856D01*
X76667429Y-85330856D02*
X76572191Y-85378475D01*
X76572191Y-85378475D02*
X76524572Y-85426094D01*
X76524572Y-85426094D02*
X76476953Y-85521332D01*
X76476953Y-85521332D02*
X76476953Y-85664189D01*
X76476953Y-85664189D02*
X76524572Y-85759427D01*
X76524572Y-85759427D02*
X76572191Y-85807046D01*
X76572191Y-85807046D02*
X76667429Y-85854665D01*
X76667429Y-85854665D02*
X77048381Y-85854665D01*
X75619810Y-85664189D02*
X75619810Y-86330856D01*
X75857905Y-85283237D02*
X76096000Y-85997522D01*
X76096000Y-85997522D02*
X75476953Y-85997522D01*
X84159499Y-87495133D02*
X83588071Y-87495133D01*
X83873785Y-88495133D02*
X83873785Y-87495133D01*
X83254737Y-88495133D02*
X83254737Y-87495133D01*
X83254737Y-87495133D02*
X82873785Y-87495133D01*
X82873785Y-87495133D02*
X82778547Y-87542752D01*
X82778547Y-87542752D02*
X82730928Y-87590371D01*
X82730928Y-87590371D02*
X82683309Y-87685609D01*
X82683309Y-87685609D02*
X82683309Y-87828466D01*
X82683309Y-87828466D02*
X82730928Y-87923704D01*
X82730928Y-87923704D02*
X82778547Y-87971323D01*
X82778547Y-87971323D02*
X82873785Y-88018942D01*
X82873785Y-88018942D02*
X83254737Y-88018942D01*
X82302356Y-87590371D02*
X82254737Y-87542752D01*
X82254737Y-87542752D02*
X82159499Y-87495133D01*
X82159499Y-87495133D02*
X81921404Y-87495133D01*
X81921404Y-87495133D02*
X81826166Y-87542752D01*
X81826166Y-87542752D02*
X81778547Y-87590371D01*
X81778547Y-87590371D02*
X81730928Y-87685609D01*
X81730928Y-87685609D02*
X81730928Y-87780847D01*
X81730928Y-87780847D02*
X81778547Y-87923704D01*
X81778547Y-87923704D02*
X82349975Y-88495133D01*
X82349975Y-88495133D02*
X81730928Y-88495133D01*
X81502426Y-82706562D02*
X80930998Y-82706562D01*
X81216712Y-83706562D02*
X81216712Y-82706562D01*
X80597664Y-83706562D02*
X80597664Y-82706562D01*
X80597664Y-82706562D02*
X80216712Y-82706562D01*
X80216712Y-82706562D02*
X80121474Y-82754181D01*
X80121474Y-82754181D02*
X80073855Y-82801800D01*
X80073855Y-82801800D02*
X80026236Y-82897038D01*
X80026236Y-82897038D02*
X80026236Y-83039895D01*
X80026236Y-83039895D02*
X80073855Y-83135133D01*
X80073855Y-83135133D02*
X80121474Y-83182752D01*
X80121474Y-83182752D02*
X80216712Y-83230371D01*
X80216712Y-83230371D02*
X80597664Y-83230371D01*
X79073855Y-83706562D02*
X79645283Y-83706562D01*
X79359569Y-83706562D02*
X79359569Y-82706562D01*
X79359569Y-82706562D02*
X79454807Y-82849419D01*
X79454807Y-82849419D02*
X79550045Y-82944657D01*
X79550045Y-82944657D02*
X79645283Y-82992276D01*
X50819572Y-118685856D02*
X50819572Y-119400141D01*
X50819572Y-119400141D02*
X50867191Y-119542998D01*
X50867191Y-119542998D02*
X50962429Y-119638237D01*
X50962429Y-119638237D02*
X51105286Y-119685856D01*
X51105286Y-119685856D02*
X51200524Y-119685856D01*
X50391000Y-118781094D02*
X50343381Y-118733475D01*
X50343381Y-118733475D02*
X50248143Y-118685856D01*
X50248143Y-118685856D02*
X50010048Y-118685856D01*
X50010048Y-118685856D02*
X49914810Y-118733475D01*
X49914810Y-118733475D02*
X49867191Y-118781094D01*
X49867191Y-118781094D02*
X49819572Y-118876332D01*
X49819572Y-118876332D02*
X49819572Y-118971570D01*
X49819572Y-118971570D02*
X49867191Y-119114427D01*
X49867191Y-119114427D02*
X50438619Y-119685856D01*
X50438619Y-119685856D02*
X49819572Y-119685856D01*
X51756058Y-57522703D02*
X52470343Y-57522703D01*
X52470343Y-57522703D02*
X52613200Y-57475084D01*
X52613200Y-57475084D02*
X52708439Y-57379846D01*
X52708439Y-57379846D02*
X52756058Y-57236989D01*
X52756058Y-57236989D02*
X52756058Y-57141751D01*
X51756058Y-58427465D02*
X51756058Y-58236989D01*
X51756058Y-58236989D02*
X51803677Y-58141751D01*
X51803677Y-58141751D02*
X51851296Y-58094132D01*
X51851296Y-58094132D02*
X51994153Y-57998894D01*
X51994153Y-57998894D02*
X52184629Y-57951275D01*
X52184629Y-57951275D02*
X52565581Y-57951275D01*
X52565581Y-57951275D02*
X52660819Y-57998894D01*
X52660819Y-57998894D02*
X52708439Y-58046513D01*
X52708439Y-58046513D02*
X52756058Y-58141751D01*
X52756058Y-58141751D02*
X52756058Y-58332227D01*
X52756058Y-58332227D02*
X52708439Y-58427465D01*
X52708439Y-58427465D02*
X52660819Y-58475084D01*
X52660819Y-58475084D02*
X52565581Y-58522703D01*
X52565581Y-58522703D02*
X52327486Y-58522703D01*
X52327486Y-58522703D02*
X52232248Y-58475084D01*
X52232248Y-58475084D02*
X52184629Y-58427465D01*
X52184629Y-58427465D02*
X52137010Y-58332227D01*
X52137010Y-58332227D02*
X52137010Y-58141751D01*
X52137010Y-58141751D02*
X52184629Y-58046513D01*
X52184629Y-58046513D02*
X52232248Y-57998894D01*
X52232248Y-57998894D02*
X52327486Y-57951275D01*
X75567181Y-75681585D02*
X74995753Y-75681585D01*
X75281467Y-76681585D02*
X75281467Y-75681585D01*
X74662419Y-76681585D02*
X74662419Y-75681585D01*
X74662419Y-75681585D02*
X74281467Y-75681585D01*
X74281467Y-75681585D02*
X74186229Y-75729204D01*
X74186229Y-75729204D02*
X74138610Y-75776823D01*
X74138610Y-75776823D02*
X74090991Y-75872061D01*
X74090991Y-75872061D02*
X74090991Y-76014918D01*
X74090991Y-76014918D02*
X74138610Y-76110156D01*
X74138610Y-76110156D02*
X74186229Y-76157775D01*
X74186229Y-76157775D02*
X74281467Y-76205394D01*
X74281467Y-76205394D02*
X74662419Y-76205394D01*
X73757657Y-75681585D02*
X73138610Y-75681585D01*
X73138610Y-75681585D02*
X73471943Y-76062537D01*
X73471943Y-76062537D02*
X73329086Y-76062537D01*
X73329086Y-76062537D02*
X73233848Y-76110156D01*
X73233848Y-76110156D02*
X73186229Y-76157775D01*
X73186229Y-76157775D02*
X73138610Y-76253013D01*
X73138610Y-76253013D02*
X73138610Y-76491108D01*
X73138610Y-76491108D02*
X73186229Y-76586346D01*
X73186229Y-76586346D02*
X73233848Y-76633966D01*
X73233848Y-76633966D02*
X73329086Y-76681585D01*
X73329086Y-76681585D02*
X73614800Y-76681585D01*
X73614800Y-76681585D02*
X73710038Y-76633966D01*
X73710038Y-76633966D02*
X73757657Y-76586346D01*
D11*
X70501239Y-84926037D02*
X70501239Y-86826037D01*
X70501239Y-86826037D02*
X68601239Y-86826037D01*
X68601239Y-84926037D02*
X70501239Y-84926037D01*
X68601239Y-86826037D02*
X68601239Y-84926037D01*
X70501239Y-82386037D02*
X70501239Y-84286037D01*
X70501239Y-84286037D02*
X68601239Y-84286037D01*
X68601239Y-82386037D02*
X70501239Y-82386037D01*
X68601239Y-84286037D02*
X68601239Y-82386037D01*
X83991239Y-79846037D02*
X83991239Y-81746037D01*
X83991239Y-81746037D02*
X82091239Y-81746037D01*
X82091239Y-79846037D02*
X83991239Y-79846037D01*
X82091239Y-81746037D02*
X82091239Y-79846037D01*
X73201239Y-81746037D02*
X73201239Y-79846037D01*
X73201239Y-79846037D02*
X75101239Y-79846037D01*
X75101239Y-81746037D02*
X73201239Y-81746037D01*
X75101239Y-79846037D02*
X75101239Y-81746037D01*
X75101239Y-82386037D02*
X75101239Y-84286037D01*
X75101239Y-84286037D02*
X73201239Y-84286037D01*
X73201239Y-82386037D02*
X75101239Y-82386037D01*
X73201239Y-84286037D02*
X73201239Y-82386037D01*
X75101239Y-84926037D02*
X75101239Y-86826037D01*
X75101239Y-86826037D02*
X73201239Y-86826037D01*
X73201239Y-84926037D02*
X75101239Y-84926037D01*
X73201239Y-86826037D02*
X73201239Y-84926037D01*
X82091239Y-86826037D02*
X82091239Y-84926037D01*
X82091239Y-84926037D02*
X83991239Y-84926037D01*
X83991239Y-86826037D02*
X82091239Y-86826037D01*
X83991239Y-84926037D02*
X83991239Y-86826037D01*
D12*
X86321339Y-60773237D02*
G75*
G02*
X85559339Y-60773237I-381000J0D01*
G01*
X85559339Y-60773237D02*
G75*
G02*
X86321339Y-60773237I381000J0D01*
G01*
D11*
X82091239Y-84286037D02*
X82091239Y-82386037D01*
X82091239Y-82386037D02*
X83991239Y-82386037D01*
X83991239Y-84286037D02*
X82091239Y-84286037D01*
X83991239Y-82386037D02*
X83991239Y-84286037D01*
D12*
X75131339Y-108101037D02*
G75*
G02*
X74369339Y-108101037I-381000J0D01*
G01*
X74369339Y-108101037D02*
G75*
G02*
X75131339Y-108101037I381000J0D01*
G01*
D13*
X59176239Y-119521037D02*
G75*
G02*
X58976239Y-119521037I-100000J0D01*
G01*
X58976239Y-119521037D02*
G75*
G02*
X59176239Y-119521037I100000J0D01*
G01*
D14*
X52816239Y-138491037D02*
G75*
G02*
X52116239Y-137871037I-40000J660000D01*
G01*
X77716239Y-137871037D02*
G75*
G02*
X77016239Y-138491037I-660000J40000D01*
G01*
X49511239Y-120191037D02*
X49511239Y-132691037D01*
X80321239Y-120191037D02*
X49511239Y-120191037D01*
X52116239Y-132771037D02*
X52116239Y-137871037D01*
X52816239Y-138491037D02*
X77016239Y-138491037D01*
X77716239Y-137871037D02*
X77716239Y-132771037D01*
X49511239Y-132691037D02*
X80321239Y-132691037D01*
X80321239Y-132691037D02*
X80321239Y-120191037D01*
D11*
X57711239Y-49946037D02*
X55211239Y-49946037D01*
X57711239Y-52446037D02*
X57711239Y-49946037D01*
X57411239Y-50246037D02*
X53391239Y-50246037D01*
X55101239Y-50746037D02*
X55101239Y-50246037D01*
X55911239Y-51246037D02*
X55911239Y-50246037D01*
X57411239Y-65466037D02*
X57411239Y-50246037D01*
X53891239Y-64966037D02*
X53891239Y-50746037D01*
X53891239Y-50746037D02*
X55101239Y-50746037D01*
X57411239Y-51246037D02*
X55911239Y-51246037D01*
X57411239Y-64466037D02*
X55911239Y-64466037D01*
X55101239Y-64966037D02*
X53891239Y-64966037D01*
X55101239Y-65466037D02*
X55101239Y-64966037D01*
X53391239Y-50246037D02*
X53391239Y-65466037D01*
X55911239Y-64466037D02*
X55911239Y-65466037D01*
X53391239Y-65466037D02*
X57411239Y-65466037D01*
X75101239Y-77306037D02*
X75101239Y-79206037D01*
X75101239Y-79206037D02*
X73201239Y-79206037D01*
X73201239Y-77306037D02*
X75101239Y-77306037D01*
X73201239Y-79206037D02*
X73201239Y-77306037D01*
%LPC*%
D15*
X36226643Y-129842442D03*
D16*
X38176643Y-126842442D03*
X42626643Y-126842442D03*
D15*
X44576643Y-129842442D03*
D17*
X69551239Y-85876037D03*
X69551239Y-83336037D03*
X83041239Y-80796037D03*
X74151239Y-80796037D03*
X74151239Y-83336037D03*
X74151239Y-85876037D03*
X83041239Y-85876037D03*
D18*
X31626239Y-68711037D03*
D19*
X31626239Y-71251037D03*
X34166239Y-68711037D03*
X34166239Y-71251037D03*
D20*
X81531239Y-60773237D03*
X79031239Y-60773237D03*
X76531239Y-60773237D03*
X74031239Y-60773237D03*
X71531239Y-60773237D03*
X69031239Y-60773237D03*
X66531239Y-60773237D03*
X64031239Y-60773237D03*
X61531239Y-60773237D03*
X59031239Y-60773237D03*
D17*
X83041239Y-83336037D03*
D20*
X70341239Y-108101037D03*
X67841239Y-108101037D03*
X65341239Y-108101037D03*
X62841239Y-108101037D03*
X60341239Y-108101037D03*
X57841239Y-108101037D03*
X55341239Y-108101037D03*
X52841239Y-108101037D03*
X50341239Y-108101037D03*
X47841239Y-108101037D03*
D21*
X32241239Y-50316037D03*
D22*
X79245239Y-78037637D03*
X77745239Y-78037637D03*
X79995239Y-78787637D03*
X78495239Y-78787637D03*
X76995239Y-78787637D03*
X79245239Y-79537637D03*
X77745239Y-79537637D03*
X79995239Y-80287637D03*
X78495239Y-80287637D03*
X76995239Y-80287637D03*
X79245239Y-81037637D03*
X77745239Y-81037637D03*
D23*
X52421239Y-123191037D03*
X77411239Y-123191037D03*
D24*
X69071239Y-124611037D03*
X66301239Y-124611037D03*
X63531239Y-124611037D03*
X60761239Y-124611037D03*
X70456239Y-121771037D03*
X67686239Y-121771037D03*
X64916239Y-121771037D03*
X62146239Y-121771037D03*
D25*
X59376239Y-121771037D03*
D21*
X81241239Y-108316037D03*
D26*
X55101239Y-52856037D03*
D27*
X55101239Y-55356037D03*
X55101239Y-57856037D03*
X55101239Y-60356037D03*
X55101239Y-62856037D03*
D17*
X74151239Y-78256037D03*
D28*
X60181239Y-51586037D03*
D29*
X62721239Y-51586037D03*
D21*
X81241239Y-50316037D03*
X32241239Y-108316037D03*
%LPD*%
M02*
