%TF.GenerationSoftware,KiCad,Pcbnew,8.0.5*%
%TF.CreationDate,2024-10-10T20:32:44-06:00*%
%TF.ProjectId,PancakeCNCPCB,50616e63-616b-4654-934e-435043422e6b,rev?*%
%TF.SameCoordinates,Original*%
%TF.FileFunction,Soldermask,Bot*%
%TF.FilePolarity,Negative*%
%FSLAX46Y46*%
G04 Gerber Fmt 4.6, Leading zero omitted, Abs format (unit mm)*
G04 Created by KiCad (PCBNEW 8.0.5) date 2024-10-10 20:32:44*
%MOMM*%
%LPD*%
G01*
G04 APERTURE LIST*
G04 Aperture macros list*
%AMRoundRect*
0 Rectangle with rounded corners*
0 $1 Rounding radius*
0 $2 $3 $4 $5 $6 $7 $8 $9 X,Y pos of 4 corners*
0 Add a 4 corners polygon primitive as box body*
4,1,4,$2,$3,$4,$5,$6,$7,$8,$9,$2,$3,0*
0 Add four circle primitives for the rounded corners*
1,1,$1+$1,$2,$3*
1,1,$1+$1,$4,$5*
1,1,$1+$1,$6,$7*
1,1,$1+$1,$8,$9*
0 Add four rect primitives between the rounded corners*
20,1,$1+$1,$2,$3,$4,$5,0*
20,1,$1+$1,$4,$5,$6,$7,0*
20,1,$1+$1,$6,$7,$8,$9,0*
20,1,$1+$1,$8,$9,$2,$3,0*%
G04 Aperture macros list end*
%ADD10C,0.600000*%
%ADD11O,1.900000X1.000000*%
%ADD12O,1.250000X1.050000*%
%ADD13R,1.700000X1.700000*%
%ADD14O,1.700000X1.700000*%
%ADD15C,1.651000*%
%ADD16C,3.200000*%
%ADD17RoundRect,0.102000X0.787500X-0.787500X0.787500X0.787500X-0.787500X0.787500X-0.787500X-0.787500X0*%
%ADD18C,1.779000*%
%ADD19C,4.270000*%
%ADD20RoundRect,0.250000X-0.600000X-0.725000X0.600000X-0.725000X0.600000X0.725000X-0.600000X0.725000X0*%
%ADD21O,1.700000X1.950000*%
%ADD22R,2.100000X2.100000*%
%ADD23C,2.100000*%
G04 APERTURE END LIST*
D10*
%TO.C,U2*%
X50140000Y-52590000D03*
X50140000Y-54090000D03*
X50890000Y-51840000D03*
X50890000Y-53340000D03*
X50890000Y-54840000D03*
X51640000Y-52590000D03*
X51640000Y-54090000D03*
X52390000Y-51840000D03*
X52390000Y-53340000D03*
X52390000Y-54840000D03*
X53140000Y-52590000D03*
X53140000Y-54090000D03*
%TD*%
D11*
%TO.C,J1*%
X31000000Y-64430000D03*
D12*
X34000000Y-62480000D03*
X34000000Y-58030000D03*
D11*
X31000000Y-56080000D03*
%TD*%
D13*
%TO.C,J7*%
X44430000Y-128470000D03*
D14*
X41890000Y-128470000D03*
X44430000Y-131010000D03*
X41890000Y-131010000D03*
%TD*%
D15*
%TO.C,J4*%
X33000000Y-71320000D03*
X33000000Y-73820000D03*
X33000000Y-76320000D03*
X33000000Y-78820000D03*
X33000000Y-81320000D03*
X33000000Y-83820000D03*
X33000000Y-86320000D03*
X33000000Y-88820000D03*
X33000000Y-91320000D03*
X33000000Y-93820000D03*
%TD*%
%TO.C,J5*%
X33000000Y-123110000D03*
X33000000Y-120610000D03*
X33000000Y-118110000D03*
X33000000Y-115610000D03*
X33000000Y-113110000D03*
X33000000Y-110610000D03*
X33000000Y-108110000D03*
X33000000Y-105610000D03*
X33000000Y-103110000D03*
X33000000Y-100610000D03*
%TD*%
D16*
%TO.C,H4*%
X33000000Y-51000000D03*
%TD*%
D17*
%TO.C,J2*%
X65727500Y-80815000D03*
D18*
X65727500Y-83585000D03*
X65727500Y-86355000D03*
X65727500Y-89125000D03*
X65727500Y-91895000D03*
X68567500Y-82200000D03*
X68567500Y-84970000D03*
X68567500Y-87740000D03*
X68567500Y-90510000D03*
D19*
X67147500Y-98850000D03*
X67147500Y-73860000D03*
%TD*%
D16*
%TO.C,H1*%
X73000000Y-131000000D03*
%TD*%
D20*
%TO.C,J6*%
X45780000Y-110390000D03*
D21*
X48280000Y-110390000D03*
X50780000Y-110390000D03*
X53280000Y-110390000D03*
X55780000Y-110390000D03*
%TD*%
D22*
%TO.C,J3*%
X63480000Y-129740000D03*
D23*
X66020000Y-129740000D03*
%TD*%
D16*
%TO.C,H3*%
X73000000Y-51000000D03*
%TD*%
%TO.C,H2*%
X33000000Y-131000000D03*
%TD*%
M02*
